<svg class="main-svg" xmlns="http://www.w3.org/2000/svg" xmlns:xlink="http://www.w3.org/1999/xlink" width="700" height="500" style="" viewBox="0 0 700 500"><rect x="0" y="0" width="700" height="500" style="fill: rgb(255, 255, 255); fill-opacity: 1;"/><defs id="defs-c3a111"><g class="clips"><clipPath id="clipc3a111xyplot" class="plotclip"><rect width="540" height="320"/></clipPath><clipPath class="axesclip" id="clipc3a111x"><rect x="80" y="0" width="540" height="500"/></clipPath><clipPath class="axesclip" id="clipc3a111y"><rect x="0" y="100" width="700" height="320"/></clipPath><clipPath class="axesclip" id="clipc3a111xy"><rect x="80" y="100" width="540" height="320"/></clipPath></g><g class="gradients"/><g class="patterns"/></defs><g class="bglayer"><rect class="bg" x="80" y="100" width="540" height="320" style="fill: rgb(229, 236, 246); fill-opacity: 1; stroke-width: 0;"/></g><g class="layer-below"><g class="imagelayer"/><g class="shapelayer"/></g><g class="cartesianlayer"><g class="subplot xy"><g class="layer-subplot"><g class="shapelayer"/><g class="imagelayer"/></g><g class="minor-gridlayer"><g class="x"/><g class="y"/></g><g class="gridlayer"><g class="x"><path class="xgrid crisp" transform="translate(86.98,0)" d="M0,100v320" style="stroke: rgb(255, 255, 255); stroke-opacity: 1; stroke-width: 1px;"/><path class="xgrid crisp" transform="translate(170.26999999999998,0)" d="M0,100v320" style="stroke: rgb(255, 255, 255); stroke-opacity: 1; stroke-width: 1px;"/><path class="xgrid crisp" transform="translate(253.55,0)" d="M0,100v320" style="stroke: rgb(255, 255, 255); stroke-opacity: 1; stroke-width: 1px;"/><path class="xgrid crisp" transform="translate(336.84,0)" d="M0,100v320" style="stroke: rgb(255, 255, 255); stroke-opacity: 1; stroke-width: 1px;"/><path class="xgrid crisp" transform="translate(420.12,0)" d="M0,100v320" style="stroke: rgb(255, 255, 255); stroke-opacity: 1; stroke-width: 1px;"/><path class="xgrid crisp" transform="translate(503.41,0)" d="M0,100v320" style="stroke: rgb(255, 255, 255); stroke-opacity: 1; stroke-width: 1px;"/><path class="xgrid crisp" transform="translate(586.69,0)" d="M0,100v320" style="stroke: rgb(255, 255, 255); stroke-opacity: 1; stroke-width: 1px;"/></g><g class="y"><path class="ygrid crisp" transform="translate(0,329.52)" d="M80,0h540" style="stroke: rgb(255, 255, 255); stroke-opacity: 1; stroke-width: 1px;"/><path class="ygrid crisp" transform="translate(0,279.86)" d="M80,0h540" style="stroke: rgb(255, 255, 255); stroke-opacity: 1; stroke-width: 1px;"/><path class="ygrid crisp" transform="translate(0,230.21)" d="M80,0h540" style="stroke: rgb(255, 255, 255); stroke-opacity: 1; stroke-width: 1px;"/><path class="ygrid crisp" transform="translate(0,180.55)" d="M80,0h540" style="stroke: rgb(255, 255, 255); stroke-opacity: 1; stroke-width: 1px;"/><path class="ygrid crisp" transform="translate(0,130.9)" d="M80,0h540" style="stroke: rgb(255, 255, 255); stroke-opacity: 1; stroke-width: 1px;"/></g></g><g class="zerolinelayer"><path class="yzl zl crisp" transform="translate(0,379.17)" d="M80,0h540" style="stroke: rgb(255, 255, 255); stroke-opacity: 1; stroke-width: 2px;"/></g><g class="layer-between"><g class="shapelayer"/><g class="imagelayer"/></g><path class="xlines-below"/><path class="ylines-below"/><g class="overlines-below"/><g class="xaxislayer-below"/><g class="yaxislayer-below"/><g class="overaxes-below"/><g class="plot" transform="translate(80,100)" clip-path="url(#clipc3a111xyplot)"><g class="scatterlayer mlayer"><g class="trace scatter trace7586ad" style="stroke-miterlimit: 2; opacity: 1;"><g class="fills"/><g class="errorbars"/><g class="lines"><path class="js-line" d="M0,204.69L0.71,256.83L1.39,217.1L2.1,207.17L2.78,224.55L3.49,289.1L4.2,229.52L5.59,162.48L6.27,207.17L6.98,212.14L7.68,239.45L9.74,142.62L10.44,167.45L11.13,150.07L11.83,192.28L12.54,251.86L13.23,239.45L13.93,264.28L14.62,232L15.32,241.93L16.03,222.07L16.67,204.69L17.38,244.41L18.06,236.97L18.77,264.28L19.45,249.38L20.16,209.66L20.86,214.62L21.55,162.48L22.94,214.62L23.65,197.24L24.35,212.14L24.99,189.79L25.7,194.76L26.38,244.41L27.77,197.24L28.48,232L29.19,179.86L29.87,271.72L31.26,224.55L31.97,217.1L33.31,264.28L34.02,217.1L34.7,184.83L35.41,212.14L36.1,269.24L36.8,249.38L37.51,281.66L38.19,234.48L38.9,249.38L39.58,229.52L41,207.17L41.66,209.66L43.05,279.17L43.76,246.9L45.15,207.17L45.86,241.93L46.54,209.66L47.25,232L48.64,289.1L49.34,246.9L49.98,266.76L50.69,256.83L51.37,286.62L52.08,281.66L52.76,219.59L53.47,264.28L54.18,192.28L54.86,244.41L55.57,187.31L56.25,224.55L56.96,187.31L57.67,189.79L59.7,132.69L60.4,135.17L61.09,189.79L61.79,162.48L63.18,217.1L63.89,207.17L65.28,147.59L65.99,209.66L66.63,229.52L67.33,224.55L68.02,209.66L68.73,251.86L69.41,266.76L70.12,236.97L70.82,232L71.51,177.38L73.61,261.79L74.31,229.52L74.97,214.62L75.68,234.48L76.36,234.48L77.07,182.34L77.76,155.03L78.46,187.31L79.17,194.76L79.85,212.14L80.56,234.48L81.24,207.17L81.95,169.93L82.66,182.34L83.3,145.1L84,155.03L84.69,140.14L85.39,177.38L86.08,145.1L86.78,160L87.49,120.28L88.18,160L88.88,160L89.57,184.83L90.27,197.24L90.98,160L91.62,179.86L92.33,167.45L93.01,227.03L93.72,207.17L94.4,244.41L95.11,199.72L95.81,224.55L96.5,179.86L97.89,202.21L98.6,194.76L100.65,304L101.33,214.62L102.04,212.14L102.72,202.21L104.14,259.31L104.82,241.93L106.21,212.14L106.92,234.48L107.63,207.17L108.29,234.48L108.99,132.69L109.68,192.28L110.39,239.45L111.07,227.03L111.78,212.14L112.48,164.97L113.87,150.07L114.56,162.48L115.97,132.69L116.61,85.52L117.32,145.1L118,97.93L118.71,53.24L119.39,65.66L120.1,50.76L120.81,75.59L122.88,197.24L123.59,219.59L124.93,189.79L125.64,192.28L127.03,269.24L127.71,264.28L129.13,291.59L129.81,271.72L130.52,266.76L131.2,207.17L131.91,174.9L132.62,222.07L133.96,244.41L134.65,222.07L135.35,187.31L136.04,212.14L136.74,219.59L137.45,189.79L138.84,197.24L139.53,189.79L140.23,217.1L140.94,182.34L142.31,157.52L142.99,222.07L143.7,236.97L144.38,197.24L146.48,251.86L147.19,219.59L147.87,217.1L148.58,194.76L149.29,246.9L149.92,160L150.63,174.9L151.31,115.31L152.02,115.31L152.71,145.1L153.41,137.66L154.12,102.9L154.8,85.52L155.51,105.38L156.19,130.21L156.9,110.34L157.61,122.76L158.25,152.55L158.95,164.97L159.64,199.72L160.34,142.62L161.03,160L161.74,140.14L162.44,199.72L164.52,182.34L165.22,189.79L166.57,160L167.28,197.24L168.67,187.31L169.35,202.21L171.45,145.1L172.16,162.48L172.84,137.66L173.55,150.07L174.25,157.52L174.92,147.59L176.31,117.79L177.01,125.24L177.7,137.66L178.4,135.17L179.11,110.34L179.79,137.66L180.5,132.69L181.19,169.93L181.89,177.38L182.6,117.79L183.24,164.97L183.94,157.52L184.63,162.48L185.34,192.28L186.02,179.86L186.73,219.59L187.43,227.03L188.12,212.14L189.51,160L190.22,160L191.56,194.76L192.27,179.86L192.95,155.03L193.66,182.34L195.05,150.07L195.76,174.9L196.44,179.86L197.15,217.1L197.83,214.62L198.54,232L199.24,204.69L199.88,236.97L200.59,174.9L201.27,179.86L201.98,142.62L202.67,142.62L203.37,112.83L204.08,127.72L204.76,122.76L206.86,88L207.57,125.24L208.23,112.83L208.94,135.17L210.33,179.86L211.01,172.41L212.42,197.24L213.11,182.34L214.5,150.07L215.21,187.31L215.91,172.41L216.55,117.79L217.26,187.31L217.94,172.41L218.65,172.41L219.33,199.72L220.75,142.62L221.43,169.93L222.14,177.38L222.82,199.72L223.53,184.83L224.24,202.21L224.87,254.34L225.58,194.76L227.66,182.34L228.36,214.62L229.07,132.69L229.75,172.41L230.46,172.41L231.15,179.86L231.85,140.14L232.56,177.38L233.2,167.45L233.9,169.93L234.59,162.48L235.3,164.97L236.69,132.69L237.39,194.76L238.08,142.62L238.78,145.1L239.47,150.07L240.17,152.55L240.88,80.55L241.54,88L242.25,117.79L242.93,125.24L243.64,117.79L244.32,95.45L245.03,115.31L245.74,112.83L246.42,90.48L247.81,112.83L248.52,97.93L249.87,167.45L250.57,135.17L251.96,169.93L252.65,192.28L253.35,182.34L254.06,199.72L254.75,212.14L255.45,199.72L256.14,187.31L256.84,224.55L258.19,162.48L258.9,232L259.58,179.86L260.29,212.14L260.97,219.59L261.68,192.28L263.07,182.34L263.78,167.45L264.46,172.41L265.17,204.69L265.87,229.52L266.51,169.93L267.22,112.83L267.9,150.07L268.61,150.07L269.29,179.86L270,214.62L270.71,212.14L272.1,227.03L272.78,222.07L273.49,179.86L274.2,182.34L275.56,246.9L276.25,246.9L276.95,194.76L277.64,219.59L278.35,207.17L279.05,232L279.74,209.66L280.44,241.93L281.13,246.9L281.83,227.03L282.54,264.28L283.18,236.97L283.89,266.76L284.57,239.45L285.28,264.28L285.96,259.31L287.38,199.72L288.06,222.07L289.45,184.83L290.16,192.28L290.86,167.45L291.5,174.9L292.21,142.62L292.89,177.38L293.6,189.79L294.28,135.17L295.7,157.52L296.38,140.14L297.09,130.21L297.77,135.17L298.48,162.48L299.19,142.62L299.83,150.07L300.53,135.17L301.22,137.66L301.92,115.31L302.61,122.76L303.31,157.52L304.02,107.86L304.7,145.1L305.41,142.62L306.1,160L307.51,117.79L308.17,120.28L308.88,194.76L309.56,182.34L311.66,125.24L312.37,184.83L313.05,169.93L313.76,179.86L314.44,169.93L315.15,207.17L315.86,222.07L316.49,254.34L317.2,157.52L317.88,174.9L318.59,234.48L319.28,227.03L319.98,219.59L320.69,227.03L322.76,132.69L323.47,132.69L324.18,150.07L324.82,95.45L325.52,122.76L326.21,90.48L327.6,38.34L328.31,25.93L329.01,23.45L329.7,33.38L331.09,88L331.79,78.07L332.5,63.17L333.14,110.34L333.85,120.28L334.53,174.9L335.24,189.79L335.92,169.93L337.33,224.55L338.02,212.14L338.73,197.24L339.41,214.62L340.12,204.69L340.82,249.38L341.48,217.1L342.19,224.55L342.88,236.97L343.58,184.83L344.27,251.86L344.97,197.24L345.68,130.21L346.36,167.45L347.07,167.45L347.76,172.41L348.46,192.28L349.17,145.1L349.81,152.55L350.51,174.9L351.2,127.72L351.91,177.38L352.59,167.45L353.3,177.38L354,199.72L354.69,182.34L355.39,184.83L356.08,172.41L356.78,150.07L357.49,167.45L358.13,167.45L358.84,169.93L360.91,112.83L361.62,127.72L362.33,105.38L363.01,135.17L364.4,107.86L365.11,120.28L365.81,115.31L366.45,122.76L367.84,90.48L368.55,95.45L369.23,97.93L369.94,110.34L370.65,117.79L371.33,105.38L373.43,140.14L374.14,132.69L375.51,107.86L376.19,147.59L377.58,229.52L378.29,172.41L378.99,207.17L379.68,192.28L381.07,179.86L381.78,182.34L383.12,155.03L383.83,152.55L384.51,160L385.22,112.83L385.9,63.17L386.61,97.93L387.32,115.31L388,110.34L388.71,132.69L389.39,105.38L390.1,85.52L390.81,115.31L391.44,155.03L392.15,127.72L392.84,112.83L393.54,160L394.93,169.93L395.64,137.66L396.32,137.66L397.03,160L398.42,179.86L399.13,167.45L399.77,152.55L400.47,155.03L401.16,179.86L401.86,145.1L402.55,145.1L403.26,172.41L403.96,137.66L404.65,145.1L405.35,125.24L406.04,137.66L406.74,105.38L407.45,152.55L408.82,239.45L409.5,150.07L410.21,172.41L410.89,157.52L412.31,135.17L412.99,160L415.09,189.79L415.8,174.9L416.44,102.9L417.14,125.24L417.83,177.38L418.53,169.93L419.22,174.9L419.92,152.55L421.31,187.31L422.02,162.48L422.71,160L423.41,167.45L424.12,105.38L424.76,130.21L425.46,92.97L426.15,97.93L426.86,107.86L427.54,140.14L428.25,135.17L428.95,145.1L429.64,97.93L430.34,110.34L431.03,127.72L431.74,112.83L433.79,229.52L434.47,202.21L435.18,179.86L435.86,132.69L436.57,164.97L437.28,135.17L438.67,177.38L439.35,147.59L440.06,164.97L440.77,152.55L441.43,164.97L442.13,92.97L444.21,162.48L444.92,135.17L445.62,150.07L446.31,147.59L447.01,105.38L447.7,120.28L448.4,122.76L449.11,90.48L449.75,85.52L450.46,137.66L451.14,85.52L451.85,97.93L452.53,92.97L453.24,102.9L453.94,127.72L454.63,112.83L455.34,142.62L456.02,125.24L456.73,137.66L457.43,202.21L458.78,100.41L459.46,160L460.17,115.31L460.85,169.93L462.27,164.97L462.95,137.66L464.34,150.07L465.05,145.1L465.76,137.66L466.39,164.97L467.1,164.97L467.79,145.1L468.49,184.83L469.18,142.62L469.88,157.52L470.59,135.17L471.27,132.69L471.98,100.41L472.67,92.97L473.37,120.28L474.08,50.76L474.74,73.1L475.45,16L476.13,48.28L476.84,30.9L477.52,85.52L478.94,65.66L479.62,73.1L480.33,65.66L481.01,120.28L481.72,55.72L482.42,130.21L483.06,127.72L483.77,179.86L486.55,102.9L487.26,135.17L488.65,182.34L489.33,135.17L490.04,169.93L490.75,164.97L491.39,155.03L492.09,204.69L493.48,162.48L494.17,182.34L496.27,132.69L496.97,100.41L497.66,140.14L498.36,102.9L499.07,70.62L499.71,122.76L501.1,73.1L501.81,88L503.2,95.45L503.9,92.97L505.3,142.62L505.98,115.31L507.39,137.66L508.05,127.72L508.76,105.38L509.45,135.17L510.15,132.69L510.84,120.28L511.54,122.76L512.25,112.83L512.93,112.83L513.64,120.28L515.03,164.97L515.74,135.17L516.38,105.38L517.08,125.24L517.77,172.41L518.47,140.14L519.16,140.14L519.87,179.86L520.57,172.41L521.26,132.69L521.96,167.45L522.65,132.69L523.35,120.28L524.06,130.21L525.41,209.66L526.09,167.45L526.8,160L527.48,162.48L528.19,115.31L528.9,120.28L529.58,169.93L530.29,130.21L530.97,140.14L531.68,199.72L532.38,217.1L533.02,147.59L533.73,92.97L534.41,100.41L535.12,117.79L535.8,102.9L536.51,127.72L537.22,122.76L537.9,95.45L538.61,100.41L539.29,110.34L540,83.03" style="vector-effect: none; fill: none; stroke: rgb(99, 110, 250); stroke-opacity: 1; stroke-width: 2px; opacity: 1;"/></g><g class="points"/><g class="text"/></g></g></g><g class="overplot"/><path class="xlines-above crisp" d="M0,0" style="fill: none;"/><path class="ylines-above crisp" d="M0,0" style="fill: none;"/><g class="overlines-above"/><g class="xaxislayer-above"><g class="xtick"><text text-anchor="middle" x="0" y="433" transform="translate(86.98,0)" style="font-family: 'Open Sans', verdana, arial, sans-serif; font-size: 12px; fill: rgb(42, 63, 95); fill-opacity: 1; white-space: pre; opacity: 1;">1960</text></g><g class="xtick"><text text-anchor="middle" x="0" y="433" style="font-family: 'Open Sans', verdana, arial, sans-serif; font-size: 12px; fill: rgb(42, 63, 95); fill-opacity: 1; white-space: pre; opacity: 1;" transform="translate(170.26999999999998,0)">1970</text></g><g class="xtick"><text text-anchor="middle" x="0" y="433" style="font-family: 'Open Sans', verdana, arial, sans-serif; font-size: 12px; fill: rgb(42, 63, 95); fill-opacity: 1; white-space: pre; opacity: 1;" transform="translate(253.55,0)">1980</text></g><g class="xtick"><text text-anchor="middle" x="0" y="433" style="font-family: 'Open Sans', verdana, arial, sans-serif; font-size: 12px; fill: rgb(42, 63, 95); fill-opacity: 1; white-space: pre; opacity: 1;" transform="translate(336.84,0)">1990</text></g><g class="xtick"><text text-anchor="middle" x="0" y="433" style="font-family: 'Open Sans', verdana, arial, sans-serif; font-size: 12px; fill: rgb(42, 63, 95); fill-opacity: 1; white-space: pre; opacity: 1;" transform="translate(420.12,0)">2000</text></g><g class="xtick"><text text-anchor="middle" x="0" y="433" style="font-family: 'Open Sans', verdana, arial, sans-serif; font-size: 12px; fill: rgb(42, 63, 95); fill-opacity: 1; white-space: pre; opacity: 1;" transform="translate(503.41,0)">2010</text></g><g class="xtick"><text text-anchor="middle" x="0" y="433" style="font-family: 'Open Sans', verdana, arial, sans-serif; font-size: 12px; fill: rgb(42, 63, 95); fill-opacity: 1; white-space: pre; opacity: 1;" transform="translate(586.69,0)">2020</text></g></g><g class="yaxislayer-above"><g class="ytick"><text text-anchor="end" x="79" y="4.199999999999999" transform="translate(0,379.17)" style="font-family: 'Open Sans', verdana, arial, sans-serif; font-size: 12px; fill: rgb(42, 63, 95); fill-opacity: 1; white-space: pre; opacity: 1;">0</text></g><g class="ytick"><text text-anchor="end" x="79" y="4.199999999999999" style="font-family: 'Open Sans', verdana, arial, sans-serif; font-size: 12px; fill: rgb(42, 63, 95); fill-opacity: 1; white-space: pre; opacity: 1;" transform="translate(0,329.52)">0.2</text></g><g class="ytick"><text text-anchor="end" x="79" y="4.199999999999999" style="font-family: 'Open Sans', verdana, arial, sans-serif; font-size: 12px; fill: rgb(42, 63, 95); fill-opacity: 1; white-space: pre; opacity: 1;" transform="translate(0,279.86)">0.4</text></g><g class="ytick"><text text-anchor="end" x="79" y="4.199999999999999" style="font-family: 'Open Sans', verdana, arial, sans-serif; font-size: 12px; fill: rgb(42, 63, 95); fill-opacity: 1; white-space: pre; opacity: 1;" transform="translate(0,230.21)">0.6</text></g><g class="ytick"><text text-anchor="end" x="79" y="4.199999999999999" style="font-family: 'Open Sans', verdana, arial, sans-serif; font-size: 12px; fill: rgb(42, 63, 95); fill-opacity: 1; white-space: pre; opacity: 1;" transform="translate(0,180.55)">0.8</text></g><g class="ytick"><text text-anchor="end" x="79" y="4.199999999999999" style="font-family: 'Open Sans', verdana, arial, sans-serif; font-size: 12px; fill: rgb(42, 63, 95); fill-opacity: 1; white-space: pre; opacity: 1;" transform="translate(0,130.9)">1</text></g></g><g class="overaxes-above"/></g></g><g class="polarlayer"/><g class="smithlayer"/><g class="ternarylayer"/><g class="geolayer"/><g class="funnelarealayer"/><g class="pielayer"/><g class="iciclelayer"/><g class="treemaplayer"/><g class="sunburstlayer"/><g class="glimages"/><defs id="topdefs-c3a111"><g class="clips"/></defs><g class="layer-above"><g class="imagelayer"/><g class="shapelayer"/></g><g class="infolayer"><g class="g-gtitle"><text class="gtitle" x="35" y="50" text-anchor="start" dy="0em" style="font-family: 'Open Sans', verdana, arial, sans-serif; font-size: 17px; fill: rgb(42, 63, 95); opacity: 1; font-weight: normal; white-space: pre;">Monthly Atmospheric Carbon Dioxide Concentrations - Year on Year Growth Rate</text></g><g class="g-xtitle"><text class="xtitle" x="350" y="460.3" text-anchor="middle" style="font-family: 'Open Sans', verdana, arial, sans-serif; font-size: 14px; fill: rgb(42, 63, 95); opacity: 1; font-weight: normal; white-space: pre;">Date</text></g><g class="g-ytitle"><text class="ytitle" transform="rotate(-90,38.0125,260)" x="38.0125" y="260" text-anchor="middle" style="font-family: 'Open Sans', verdana, arial, sans-serif; font-size: 14px; fill: rgb(42, 63, 95); opacity: 1; font-weight: normal; white-space: pre;">Percent Change</text></g></g></svg>