<svg class="main-svg" xmlns="http://www.w3.org/2000/svg" xmlns:xlink="http://www.w3.org/1999/xlink" width="700" height="500" style="" viewBox="0 0 700 500"><rect x="0" y="0" width="700" height="500" style="fill: rgb(255, 255, 255); fill-opacity: 1;"/><defs id="defs-22a1d7"><g class="clips"><clipPath id="clip22a1d7xyplot" class="plotclip"><rect width="540" height="320"/></clipPath><clipPath class="axesclip" id="clip22a1d7x"><rect x="80" y="0" width="540" height="500"/></clipPath><clipPath class="axesclip" id="clip22a1d7y"><rect x="0" y="100" width="700" height="320"/></clipPath><clipPath class="axesclip" id="clip22a1d7xy"><rect x="80" y="100" width="540" height="320"/></clipPath></g><g class="gradients"/><g class="patterns"/></defs><g class="bglayer"><rect class="bg" x="80" y="100" width="540" height="320" style="fill: rgb(229, 236, 246); fill-opacity: 1; stroke-width: 0;"/></g><g class="layer-below"><g class="imagelayer"/><g class="shapelayer"/></g><g class="cartesianlayer"><g class="subplot xy"><g class="layer-subplot"><g class="shapelayer"/><g class="imagelayer"/></g><g class="minor-gridlayer"><g class="x"/><g class="y"/></g><g class="gridlayer"><g class="x"><path class="xgrid crisp" transform="translate(95.07,0)" d="M0,100v320" style="stroke: rgb(255, 255, 255); stroke-opacity: 1; stroke-width: 1px;"/><path class="xgrid crisp" transform="translate(177.1,0)" d="M0,100v320" style="stroke: rgb(255, 255, 255); stroke-opacity: 1; stroke-width: 1px;"/><path class="xgrid crisp" transform="translate(259.11,0)" d="M0,100v320" style="stroke: rgb(255, 255, 255); stroke-opacity: 1; stroke-width: 1px;"/><path class="xgrid crisp" transform="translate(341.14,0)" d="M0,100v320" style="stroke: rgb(255, 255, 255); stroke-opacity: 1; stroke-width: 1px;"/><path class="xgrid crisp" transform="translate(423.15,0)" d="M0,100v320" style="stroke: rgb(255, 255, 255); stroke-opacity: 1; stroke-width: 1px;"/><path class="xgrid crisp" transform="translate(505.18,0)" d="M0,100v320" style="stroke: rgb(255, 255, 255); stroke-opacity: 1; stroke-width: 1px;"/><path class="xgrid crisp" transform="translate(587.19,0)" d="M0,100v320" style="stroke: rgb(255, 255, 255); stroke-opacity: 1; stroke-width: 1px;"/></g><g class="y"><path class="ygrid crisp" transform="translate(0,384.46)" d="M80,0h540" style="stroke: rgb(255, 255, 255); stroke-opacity: 1; stroke-width: 1px;"/><path class="ygrid crisp" transform="translate(0,332.83000000000004)" d="M80,0h540" style="stroke: rgb(255, 255, 255); stroke-opacity: 1; stroke-width: 1px;"/><path class="ygrid crisp" transform="translate(0,281.21000000000004)" d="M80,0h540" style="stroke: rgb(255, 255, 255); stroke-opacity: 1; stroke-width: 1px;"/><path class="ygrid crisp" transform="translate(0,229.58)" d="M80,0h540" style="stroke: rgb(255, 255, 255); stroke-opacity: 1; stroke-width: 1px;"/><path class="ygrid crisp" transform="translate(0,177.95)" d="M80,0h540" style="stroke: rgb(255, 255, 255); stroke-opacity: 1; stroke-width: 1px;"/><path class="ygrid crisp" transform="translate(0,126.33)" d="M80,0h540" style="stroke: rgb(255, 255, 255); stroke-opacity: 1; stroke-width: 1px;"/></g></g><g class="zerolinelayer"/><g class="layer-between"><g class="shapelayer"/><g class="imagelayer"/></g><path class="xlines-below"/><path class="ylines-below"/><g class="overlines-below"/><g class="xaxislayer-below"/><g class="yaxislayer-below"/><g class="overaxes-below"/><g class="plot" transform="translate(80,100)" clip-path="url(#clip22a1d7xyplot)"><g class="scatterlayer mlayer"><g class="trace scatter trace6ac0c9" style="stroke-miterlimit: 2; opacity: 1;"><g class="fills"/><g class="errorbars"/><g class="lines"><path class="js-line" d="M0,295.56L1.37,290.89L2.07,291.58L4.81,304L5.5,301.68L7.57,293.55L8.2,293.11L9.57,288.87L10.26,289.23L13,301.68L13.7,297.86L17.79,284.36L18.48,285.52L21.22,300.39L21.92,297.37L24.61,288.23L25.31,285.8L25.98,282.96L26.68,285.05L28.74,297.39L29.42,296.57L34.18,281.83L34.87,282.86L35.55,285.47L36.24,291.17L37.61,296.28L38.31,293L42.37,278.65L43.07,280.64L45.81,294.81L46.51,292.02L48.57,284.43L49.22,282.55L50.59,278.63L51.29,279.58L53.36,292.98L54.03,292.54L54.73,290.45L58.12,278.94L58.79,278.86L60.16,281.34L60.86,287.38L62.23,291.43L62.92,287.38L64.29,282.86L64.99,280.33L66.99,273.93L67.68,274.78L70.42,289.36L71.12,285.03L73.18,278.01L73.81,276.61L75.18,271.55L75.88,273.9L77.94,286.4L78.62,286.03L79.31,282.57L81.38,276.33L82.03,274.42L83.4,270.08L84.1,270.62L86.84,283.81L87.53,281.05L89.6,273.05L90.23,269.93L91.6,265.41L92.29,267.14L92.97,269.28L93.66,275.01L95.03,279.86L95.73,277.08L99.12,263.47L99.79,263.6L100.49,264.66L101.16,268.09L103.23,276.56L103.93,274.11L105.99,267.22L106.62,265.95L107.99,261.41L108.69,262.34L110.06,270.44L110.75,275.79L111.43,275.27L112.12,272.07L114.19,264.76L114.84,264.45L116.21,258.47L116.91,260.99L118.97,271.97L119.65,271.04L123.73,254.77L124.41,252.24L125.1,253.3L125.78,256.4L127.84,265.93L128.54,263.4L129.91,260.32L130.6,256.81L132.6,250.44L133.3,252.97L134.67,260.84L135.36,265.54L136.04,265.67L136.73,263.01L139.43,253.64L140.13,250.62L140.8,248.45L141.5,249.82L144.24,262.88L144.93,260.25L147,251.57L147.65,249.97L149.02,246.46L149.71,248.37L150.39,250.7L151.08,256.89L152.45,261.95L153.15,258.23L156.54,242.8L157.21,240.76L158.58,246.02L159.28,252.04L160.65,255.34L161.35,252.3L164.74,238.8L165.41,237.94L166.11,237.97L166.78,241.87L168.17,252.55L168.85,252.32L169.54,248.94L172.93,235.88L173.61,234.79L174.3,234.74L174.98,239.18L176.37,248.4L177.04,247.7L181.83,229.09L182.52,229.32L184.59,242.51L185.26,242.8L190.02,224.99L190.72,226.28L192.78,240.71L193.46,240.45L196.22,228.29L196.85,225.66L198.22,220.52L198.92,222.82L201.66,236.94L202.35,234.28L206.42,216.98L207.11,217.96L209.18,231.65L209.85,231.46L210.55,228.21L212.61,220.13L213.26,218.17L214.63,212.75L215.33,214.35L217.4,228.73L218.07,228.03L221.46,212.41L222.16,210.48L222.83,208.88L223.53,210.5L226.27,224.18L226.96,220.62L229.03,213.52L229.66,211.54L231.03,205.68L231.72,207.07L233.79,218.69L234.46,220.39L237.23,209.81L237.85,207.51L239.22,201.47L239.92,202.94L241.99,215.64L242.66,215.49L243.36,211.98L247.44,195.79L248.14,197L249.51,205.75L250.21,209.68L250.88,208.65L251.57,205.93L254.97,192.25L255.64,191.66L256.34,192.98L257.01,196.56L258.4,206.79L259.08,206.17L263.16,190.55L263.84,187.97L265.21,194.4L265.9,199.12L266.6,203.46L267.27,202.66L269.34,194.29L270.03,192L272.03,183.19L272.73,185.77L274.79,200.98L275.47,200.75L278.23,188.41L278.88,186.45L280.25,181.95L280.95,182.65L283.01,199.25L283.69,198.22L288.45,180.43L289.14,182.13L291.21,196.33L291.88,196.1L295.97,177.7L296.64,176.61L298.01,182.47L298.71,187.43L299.41,191.89L300.08,190.99L304.17,172.33L304.84,171.32L305.54,172.61L306.21,176.61L307.6,185.54L308.28,186.01L311.69,170.16L312.39,169.1L313.06,167.65L313.76,168.14L316.5,181.93L317.19,178.52L319.26,170.34L319.89,169.2L321.26,163.73L321.95,166.41L324.02,180.07L324.69,178.68L327.45,165.46L328.08,162.21L329.45,156.53L330.15,157.64L331.52,165.46L332.21,170.47L332.89,169.49L333.58,166.57L335.65,157.25L336.28,155.81L337.65,152.5L338.34,154.2L339.02,156.4L339.71,162.98L340.41,168.43L341.08,166.96L343.85,156.14L344.5,153.46L345.19,150.28L345.87,150.87L346.56,150.57L347.24,155.34L348.63,162.75L349.3,162.67L352.69,148.6L353.39,146.23L354.06,144.99L354.76,146.62L356.83,159.68L357.5,158.98L361.59,142L362.26,140.08L362.96,140.7L363.63,144.65L365.02,153.02L365.7,153.51L368.46,140.37L369.09,138.25L370.46,132.73L371.15,133.55L373.22,146.77L373.89,146.85L376.65,134.61L377.31,132.01L378.68,127.51L379.37,129.91L381.44,143.96L382.11,143.44L384.87,129.81L385.5,127.13L386.87,122.76L387.57,123.38L389.63,137.61L390.31,136.83L394.4,117.19L395.07,116.1L396.44,122.74L397.13,128.03L397.83,132.06L398.5,131.31L401.9,117.16L402.59,112.21L403.27,112.08L403.96,113.24L406.03,126.48L406.7,126.04L409.46,113.94L410.11,113.37L411.48,106.91L412.18,108.95L414.25,120.78L414.92,121.29L419.01,104.39L419.68,102.84L420.38,104.54L421.05,108.31L422.44,116.8L423.12,117.6L427.2,96.87L427.88,95.48L428.57,97.62L429.25,102.71L430.64,111.43L431.31,110.4L434.07,98.47L434.7,96.54L436.07,92.38L436.77,93.57L439.51,105.86L440.21,102.53L442.27,93.34L442.92,91.92L444.29,85.88L444.99,88.51L447.73,100.49L448.42,95.51L452.49,77.9L453.19,81.02L455.25,94.16L455.92,93.7L456.62,89.93L457.99,83.01L458.69,82.42L460.69,72.89L461.38,74.26L463.45,89.46L464.12,87.86L468.88,67.24L469.58,70.29L471.64,83.58L472.32,81.85L475.08,66.98L475.73,64.89L477.1,57.56L477.8,59.91L479.86,74.78L480.54,73.33L482.6,61.53L483.3,60.76L485.3,52.42L485.99,54.51L488.06,68.74L488.73,68.09L491.49,55.96L492.12,53.2L493.49,48.42L494.19,49.58L496.26,63.21L496.93,61.97L499,49.48L499.69,47.08L500.32,46.51L501.02,43L501.69,39.59L502.39,41.43L504.45,55.34L505.13,55.39L507.89,40.99L508.54,39.98L509.91,33.35L510.61,35.15L512.67,48.29L513.34,48.32L516.74,32.49L517.43,28.88L518.8,29.11L519.48,34.33L520.87,43.72L521.54,42.07L524.3,28.29L524.93,29.53L526.3,23.82L527,23.9L529.06,36.88L529.74,37.32L531.8,27.67L532.5,25.55L533.13,23.8L533.82,17.68L534.5,16L535.19,16.83L537.26,30.17L537.93,29.37L540,19.1" style="vector-effect: none; fill: none; stroke: rgb(99, 110, 250); stroke-opacity: 1; stroke-width: 2px; opacity: 1;"/></g><g class="points"/><g class="text"/></g></g></g><g class="overplot"/><path class="xlines-above crisp" d="M0,0" style="fill: none;"/><path class="ylines-above crisp" d="M0,0" style="fill: none;"/><g class="overlines-above"/><g class="xaxislayer-above"><g class="xtick"><text text-anchor="middle" x="0" y="433" transform="translate(95.07,0)" style="font-family: 'Open Sans', verdana, arial, sans-serif; font-size: 12px; fill: rgb(42, 63, 95); fill-opacity: 1; white-space: pre; opacity: 1;">1960</text></g><g class="xtick"><text text-anchor="middle" x="0" y="433" style="font-family: 'Open Sans', verdana, arial, sans-serif; font-size: 12px; fill: rgb(42, 63, 95); fill-opacity: 1; white-space: pre; opacity: 1;" transform="translate(177.1,0)">1970</text></g><g class="xtick"><text text-anchor="middle" x="0" y="433" style="font-family: 'Open Sans', verdana, arial, sans-serif; font-size: 12px; fill: rgb(42, 63, 95); fill-opacity: 1; white-space: pre; opacity: 1;" transform="translate(259.11,0)">1980</text></g><g class="xtick"><text text-anchor="middle" x="0" y="433" style="font-family: 'Open Sans', verdana, arial, sans-serif; font-size: 12px; fill: rgb(42, 63, 95); fill-opacity: 1; white-space: pre; opacity: 1;" transform="translate(341.14,0)">1990</text></g><g class="xtick"><text text-anchor="middle" x="0" y="433" style="font-family: 'Open Sans', verdana, arial, sans-serif; font-size: 12px; fill: rgb(42, 63, 95); fill-opacity: 1; white-space: pre; opacity: 1;" transform="translate(423.15,0)">2000</text></g><g class="xtick"><text text-anchor="middle" x="0" y="433" style="font-family: 'Open Sans', verdana, arial, sans-serif; font-size: 12px; fill: rgb(42, 63, 95); fill-opacity: 1; white-space: pre; opacity: 1;" transform="translate(505.18,0)">2010</text></g><g class="xtick"><text text-anchor="middle" x="0" y="433" style="font-family: 'Open Sans', verdana, arial, sans-serif; font-size: 12px; fill: rgb(42, 63, 95); fill-opacity: 1; white-space: pre; opacity: 1;" transform="translate(587.19,0)">2020</text></g></g><g class="yaxislayer-above"><g class="ytick"><text text-anchor="end" x="79" y="4.199999999999999" transform="translate(0,384.46)" style="font-family: 'Open Sans', verdana, arial, sans-serif; font-size: 12px; fill: rgb(42, 63, 95); fill-opacity: 1; white-space: pre; opacity: 1;">320</text></g><g class="ytick"><text text-anchor="end" x="79" y="4.199999999999999" style="font-family: 'Open Sans', verdana, arial, sans-serif; font-size: 12px; fill: rgb(42, 63, 95); fill-opacity: 1; white-space: pre; opacity: 1;" transform="translate(0,332.83000000000004)">340</text></g><g class="ytick"><text text-anchor="end" x="79" y="4.199999999999999" style="font-family: 'Open Sans', verdana, arial, sans-serif; font-size: 12px; fill: rgb(42, 63, 95); fill-opacity: 1; white-space: pre; opacity: 1;" transform="translate(0,281.21000000000004)">360</text></g><g class="ytick"><text text-anchor="end" x="79" y="4.199999999999999" style="font-family: 'Open Sans', verdana, arial, sans-serif; font-size: 12px; fill: rgb(42, 63, 95); fill-opacity: 1; white-space: pre; opacity: 1;" transform="translate(0,229.58)">380</text></g><g class="ytick"><text text-anchor="end" x="79" y="4.199999999999999" style="font-family: 'Open Sans', verdana, arial, sans-serif; font-size: 12px; fill: rgb(42, 63, 95); fill-opacity: 1; white-space: pre; opacity: 1;" transform="translate(0,177.95)">400</text></g><g class="ytick"><text text-anchor="end" x="79" y="4.199999999999999" style="font-family: 'Open Sans', verdana, arial, sans-serif; font-size: 12px; fill: rgb(42, 63, 95); fill-opacity: 1; white-space: pre; opacity: 1;" transform="translate(0,126.33)">420</text></g></g><g class="overaxes-above"/></g></g><g class="polarlayer"/><g class="smithlayer"/><g class="ternarylayer"/><g class="geolayer"/><g class="funnelarealayer"/><g class="pielayer"/><g class="iciclelayer"/><g class="treemaplayer"/><g class="sunburstlayer"/><g class="glimages"/><defs id="topdefs-22a1d7"><g class="clips"/></defs><g class="layer-above"><g class="imagelayer"/><g class="shapelayer"/></g><g class="infolayer"><g class="g-gtitle"><text class="gtitle" x="35" y="50" text-anchor="start" dy="0em" style="font-family: 'Open Sans', verdana, arial, sans-serif; font-size: 17px; fill: rgb(42, 63, 95); opacity: 1; font-weight: normal; white-space: pre;">Monthly Atmospheric Carbon Dioxide Concentrations</text></g><g class="g-xtitle"><text class="xtitle" x="350" y="460.3" text-anchor="middle" style="font-family: 'Open Sans', verdana, arial, sans-serif; font-size: 14px; fill: rgb(42, 63, 95); opacity: 1; font-weight: normal; white-space: pre;">Date</text></g><g class="g-ytitle"><text class="ytitle" transform="rotate(-90,34.66875,260)" x="34.66875" y="260" text-anchor="middle" style="font-family: 'Open Sans', verdana, arial, sans-serif; font-size: 14px; fill: rgb(42, 63, 95); opacity: 1; font-weight: normal; white-space: pre;">CO2 parts per million</text></g></g></svg>