<svg class="main-svg" xmlns="http://www.w3.org/2000/svg" xmlns:xlink="http://www.w3.org/1999/xlink" width="700" height="500" style="" viewBox="0 0 700 500"><rect x="0" y="0" width="700" height="500" style="fill: rgb(255, 255, 255); fill-opacity: 1;"/><defs id="defs-e2aeeb"><g class="clips"><clipPath id="clipe2aeebxyplot" class="plotclip"><rect width="460" height="320"/></clipPath><clipPath class="axesclip" id="clipe2aeebx"><rect x="80" y="0" width="460" height="500"/></clipPath><clipPath class="axesclip" id="clipe2aeeby"><rect x="0" y="100" width="700" height="320"/></clipPath><clipPath class="axesclip" id="clipe2aeebxy"><rect x="80" y="100" width="460" height="320"/></clipPath></g><g class="gradients"/><g class="patterns"/></defs><g class="bglayer"><rect class="bg" x="80" y="100" width="460" height="320" style="fill: rgb(229, 236, 246); fill-opacity: 1; stroke-width: 0;"/></g><g class="layer-below"><g class="imagelayer"/><g class="shapelayer"/></g><g class="cartesianlayer"><g class="subplot xy"><g class="layer-subplot"><g class="shapelayer"/><g class="imagelayer"/></g><g class="minor-gridlayer"><g class="x"/><g class="y"/></g><g class="gridlayer"><g class="x"><path class="xgrid crisp" transform="translate(110.09,0)" d="M0,100v320" style="stroke: rgb(255, 255, 255); stroke-opacity: 1; stroke-width: 1px;"/><path class="xgrid crisp" transform="translate(183.82999999999998,0)" d="M0,100v320" style="stroke: rgb(255, 255, 255); stroke-opacity: 1; stroke-width: 1px;"/><path class="xgrid crisp" transform="translate(257.62,0)" d="M0,100v320" style="stroke: rgb(255, 255, 255); stroke-opacity: 1; stroke-width: 1px;"/><path class="xgrid crisp" transform="translate(331.36,0)" d="M0,100v320" style="stroke: rgb(255, 255, 255); stroke-opacity: 1; stroke-width: 1px;"/><path class="xgrid crisp" transform="translate(405.11,0)" d="M0,100v320" style="stroke: rgb(255, 255, 255); stroke-opacity: 1; stroke-width: 1px;"/><path class="xgrid crisp" transform="translate(478.86,0)" d="M0,100v320" style="stroke: rgb(255, 255, 255); stroke-opacity: 1; stroke-width: 1px;"/></g><g class="y"><path class="ygrid crisp" transform="translate(0,399.65)" d="M80,0h460" style="stroke: rgb(255, 255, 255); stroke-opacity: 1; stroke-width: 1px;"/><path class="ygrid crisp" transform="translate(0,231.55)" d="M80,0h460" style="stroke: rgb(255, 255, 255); stroke-opacity: 1; stroke-width: 1px;"/><path class="ygrid crisp" transform="translate(0,147.5)" d="M80,0h460" style="stroke: rgb(255, 255, 255); stroke-opacity: 1; stroke-width: 1px;"/></g></g><g class="zerolinelayer"><path class="yzl zl crisp" transform="translate(0,315.6)" d="M80,0h460" style="stroke: rgb(255, 255, 255); stroke-opacity: 1; stroke-width: 2px;"/></g><g class="layer-between"><g class="shapelayer"/><g class="imagelayer"/></g><path class="xlines-below"/><path class="ylines-below"/><g class="overlines-below"/><g class="xaxislayer-below"/><g class="yaxislayer-below"/><g class="overaxes-below"/><g class="plot" transform="translate(80,100)" clip-path="url(#clipe2aeebxyplot)"><g class="scatterlayer mlayer"><g class="trace scatter tracedc74a2" style="stroke-miterlimit: 2; opacity: 1;"><g class="fills"/><g class="errorbars"/><g class="lines"><path class="js-line" d="M134.12,211.43L135.33,200L135.74,204.54L136.95,218.32L137.31,215.63L137.72,228.41L138.12,224.37L138.53,224.88L139.33,213.95L139.74,221.85L140.54,213.28L140.95,213.95L141.72,187.06L142.12,190.25L142.52,185.37L142.93,193.78L143.33,187.56L143.73,166.55L144.95,141.33L145.35,127.04L146.93,162.01L147.33,161.67L149.35,211.43L149.75,211.6L150.52,229.08L150.92,224.54L151.33,226.22L151.73,232.95L152.22,220.17L152.54,230.93L152.94,229.92L153.35,223.7L154.15,235.47L154.56,232.27L155.73,207.9L156.13,203.02L156.54,207.39L156.94,189.07L157.35,192.94L157.75,186.89L158.56,182.01L158.96,168.73L160.13,140.66L160.54,146.38L160.9,150.75L161.5,139.99L162.96,182.52L163.36,168.4L163.73,173.1L164.13,189.07L164.49,211.26L165.02,198.15L165.34,198.65L165.75,212.27L166.15,205.55L166.51,200L166.96,210.59L167.36,198.82L167.76,208.07L168.17,207.23L168.57,206.72L169.38,189.07L169.78,196.8L170.19,197.81L170.55,187.56L170.96,182.18L171.36,185.54L171.76,189.41L172.57,174.78L172.97,147.72L173.38,146.54L173.78,150.24L175.8,126.2L176.17,148.06L177.38,133.1L177.78,144.86L178.99,190.42L179.4,185.88L180.2,181L180.61,183.19L180.97,200.5L181.37,197.31L181.78,191.93L182.18,192.6L182.59,190.08L184.2,220.17L184.61,215.13L185.41,191.59L185.78,202.69L186.58,210.76L186.99,197.81L187.39,193.27L187.8,178.15L188.12,184.2L188.68,173.1L189.82,156.63L190.18,162.18L190.58,161.84L190.99,164.87L192.6,180.84L193.01,207.06L193.41,203.02L193.81,206.39L194.22,215.13L195.39,222.02L195.79,209.41L196.2,209.92L196.6,205.38L197,202.18L197.41,202.69L197.81,187.56L198.22,175.29L198.62,178.48L198.98,193.11L199.39,192.94L199.79,189.41L200.19,200.17L200.6,186.72L201,181.84L201.41,183.36L201.81,181.68L204.19,124.02L204.48,125.87L205.45,127.21L205.81,143.52L206.21,133.77L206.62,142.51L209.4,249.42L209.81,248.41L211.02,215.97L211.42,208.07L212.23,224.71L212.59,210.92L213,210.76L213.4,221.68L213.81,218.32L214.21,227.9L214.61,232.27L215.02,227.9L216.23,212.61L216.63,213.95L217,210.76L217.4,211.26L217.8,191.93L218.21,195.29L218.61,191.93L219.01,170.75L219.42,183.69L219.82,173.61L220.63,165.54L220.99,176.3L222.21,204.71L222.61,202.52L223.01,202.02L223.42,208.4L223.82,197.14L224.22,203.7L224.63,195.96L225.44,191.26L225.84,194.79L226.24,204.54L226.65,198.32L226.93,191.26L227.42,180.33L227.82,180.84L228.22,187.06L229.03,194.96L229.43,188.4L230.24,186.55L230.57,199.16L231.25,204.2L231.45,201.18L231.86,184.37L232.67,180L233.03,161.34L233.43,156.97L233.84,161.84L235.05,167.56L235.45,161.84L236.26,189.91L236.66,189.07L237.07,181.17L237.47,189.91L237.67,134.61L238.48,227.4L238.84,212.27L239.25,202.86L240.86,180.84L241.27,172.43L241.67,165.71L242.08,175.12L242.48,166.55L242.84,175.12L243.25,166.38L243.65,173.94L244.05,172.6L244.46,184.7L245.27,178.31L245.67,169.91L247.45,131.42L247.65,133.6L248.05,125.53L248.86,104.35L249.26,107.71L249.67,110.74L250.07,110.74L250.48,124.52L251.28,114.27L251.65,127.04L252.45,172.6L252.86,164.19L253.26,144.53L253.67,145.2L254.07,153.77L254.47,165.03L254.88,164.7L255.24,162.34L255.69,151.59L256.05,174.78L257.62,211.77L258.07,211.6L258.47,215.97L258.88,209.41L259.28,200.67L259.64,209.08L260.09,211.09L260.45,196.47L260.86,200.33L261.26,200.67L262.87,169.91L263.28,157.47L263.68,154.44L264.09,160.66L264.85,180.5L265.26,173.1L265.66,169.57L266.47,182.52L266.87,171.25L268.08,156.29L268.49,154.78L268.89,151.08L269.26,156.63L270.06,143.52L270.47,160.83L270.87,161.17L271.27,165.37L271.68,163.86L272.08,166.55L274.87,203.86L275.27,196.64L276.08,180.84L276.48,190.92L278.06,150.41L278.46,152.26L278.87,165.54L279.27,161.84L279.68,165.37L280.48,162.18L280.89,174.62L282.06,181.34L282.46,178.48L282.7,206.39L283.31,196.47L286.22,157.47L287.11,167.05L287.55,152.26L287.83,147.38L288.16,151.42L288.6,154.78L289.04,159.66L289.45,155.28L289.77,135.62L290.05,141.16L290.5,137.13L290.94,137.13L291.39,137.97L291.71,134.95L291.99,118.81L292.44,116.79L292.88,125.36L293.49,119.98L293.93,115.78L296.27,162.18L296.72,154.95L297.77,170.92L298.01,183.02L298.94,166.88L299.26,167.89L299.67,179.15L300.43,176.97L300.72,169.74L301.6,187.06L302.05,181.34L302.49,213.11" style="vector-effect: none; fill: none; stroke: rgb(99, 110, 250); stroke-opacity: 1; stroke-width: 2px; opacity: 1;"/></g><g class="points"/><g class="text"/></g><g class="trace scatter trace5a902f" style="stroke-miterlimit: 2; opacity: 1;"><g class="fills"/><g class="errorbars"/><g class="lines"><path class="js-line" d="M229.47,188.97L230.24,184.26L230.65,198.05L231.05,198.72L231.45,193.68L233.43,156.86L233.84,161.4L235.05,174.68L235.45,165.44L236.66,195.86L237.07,192.17L237.88,208.81L238.28,226.29L240.66,176.03L241.07,178.55L241.87,173L242.28,175.69L243.04,165.77L243.45,167.46L244.66,186.45L245.06,178.38L247.08,136.02L247.45,137.87L249.06,94.16L249.47,108.12L249.87,102.74L250.27,116.52L250.68,122.91L251.08,110.81L251.85,136.36L252.25,161.4L252.66,170.82L253.06,150.31L253.46,139.21L253.87,143.08L254.27,157.03L254.68,165.94L255.08,155.52L255.48,155.52L255.89,162.58L257.46,208.97L257.87,212.84L258.67,209.82L259.08,205.44L259.48,204.6L259.89,213.68L260.65,203.43L261.06,207.13L263.48,161.4L263.88,162.24L264.29,163.25L265.46,180.4L265.86,182.08L266.27,185.44L266.67,183.59L267.07,167.62L267.48,173L267.88,169.81L268.29,162.58L268.69,153L269.09,154.34L269.46,153.67L269.86,148.46L270.27,158.71L270.67,157.71L271.07,171.49L271.48,159.05L271.88,164.26L272.28,169.98L273.86,192.5L274.26,195.19L274.67,199.06L275.07,196.37L275.47,187.63L277.49,159.39L277.86,141.23L279.07,159.89L279.47,159.22L279.88,164.09L281.49,175.19L281.9,174.52L283.11,185.61L283.47,185.11L284.68,163.93L285.09,160.06L285.49,159.39L285.89,155.02L286.7,163.42L287.11,166.45L287.91,145.27L288.32,151.49L288.72,152.83L289.13,157.71L289.53,153.5L290.7,132.15L291.1,143.75L292.32,110.81L292.72,121.4L293.12,122.91L293.53,121.06L293.93,115.68L294.34,126.94L294.74,124.09L295.14,136.53L295.55,134.51L295.91,157.54L296.31,152.49L296.72,157.87L297.93,170.48L298.33,162.41L298.74,165.44L299.06,163.93L299.59,159.05L299.91,165.77L300.31,159.72L300.72,165.77L301.12,179.22L301.52,178.89L301.93,173.67L302.33,180.06L302.74,166.61L303.14,168.13L303.54,165.1L305.12,150.81L305.48,134L306.05,131.99L306.33,126.44L307.95,84.92L308.35,107.61L311.14,154.01L311.54,158.38L314.73,119.38L315.13,121.56L315.54,123.25L315.94,128.96L317.15,151.15L317.56,150.98L317.92,146.78L318.73,156.19L319.13,144.43L321.96,83.91L322.36,83.57L323.13,87.61L323.53,103.41L323.94,104.42L324.34,83.57L325.96,123.92L326.36,117.53L326.73,122.07L327.13,115.18L327.53,121.9L327.94,118.54L328.34,103.58L329.55,85.42L329.96,98.7L330.36,101.56L330.76,101.39L331.13,94L332.34,118.03L332.74,109.97L333.95,89.96L334.36,98.7L337.14,16L337.55,28.44L339.16,55.17L339.57,74.16L339.93,94.33L340.34,94.16L340.74,89.29L342.76,145.27L343.16,144.09L344.37,184.26L344.78,177.37L346.35,164.93L346.76,156.19L347.16,161.07L347.56,158.04L347.97,151.32L348.78,163.08L349.18,154.68L349.99,126.94L350.39,127.78L350.8,125.6L351.52,129.8L351.76,118.54L352.57,100.89L352.98,102.4L355,128.12L355.4,119.21L356.21,143.42L356.61,137.2L357.01,143.08L357.38,139.21L357.62,140.9L358.31,138.71L358.59,151.65L358.99,142.07L359.4,139.38L359.8,133L360.08,154.51" style="vector-effect: none; fill: none; stroke: rgb(239, 85, 59); stroke-opacity: 1; stroke-width: 2px; opacity: 1;"/></g><g class="points"/><g class="text"/></g><g class="trace scatter trace5f491e" style="stroke-miterlimit: 2; opacity: 1;"><g class="fills"/><g class="errorbars"/><g class="lines"><path class="js-line" d="M341.63,129.73L342.35,144.19L342.72,143.69L343.16,138.98L343.57,159.15L344.37,185.71L344.78,180L345.99,164.87L346.35,166.21L346.76,156.8L347.16,158.98L347.56,156.8L347.97,150.41L348.37,158.31L348.78,165.37L349.18,158.48L350.39,122.84L350.8,120.83L351.2,128.73L351.6,118.47L352.01,121.33L352.37,96.28L352.77,99.48L353.18,98.8L353.58,112.59L354.39,117.63L354.79,126.2L355.2,121.67L355.6,122.34L356.01,138.64L356.41,138.14L356.81,136.12L357.58,143.35L357.98,135.79L358.79,152.76L359.2,134.27L359.6,130.91L360,140.49L360.41,156.29L360.81,153.94L361.22,157.13L362.39,142.01L362.79,160.66L363.6,154.95L364,149.07L364.41,146.21L364.81,137.97L365.21,144.02L365.62,143.52L366.02,135.11L366.79,106.7L367.19,107.21L367.6,121.16L368,117.8L368.4,118.98L368.81,122.34L370.02,130.07L370.42,139.48L370.79,125.53L371.19,127.89L371.59,125.2L372,126.71L372.4,133.1L372.81,138.48L373.21,127.04L373.61,124.52L374.02,112.08L374.42,109.06L374.83,114.44L375.19,115.11L375.59,112.92L376.4,107.04L376.8,109.73L377.21,111.41L377.61,107.04L378.42,90.74L378.82,91.24L379.23,94.6L380.8,40.14L381.21,36.44L381.61,25.68L382.01,39.13L383.63,72.25L383.99,89.05L385.2,110.57L385.61,102.17L386.86,121.67L387.22,111.75L387.63,115.95L387.91,110.4L389.61,141.5L390.01,131.08L391.22,146.38L391.63,146.21L392.43,128.89L392.84,134.1L393.2,138.98L393.6,127.21L394.41,105.7L394.82,93.43L395.62,74.93L396.03,65.35L397.24,49.72L397.6,48.04L398.01,50.06L398.41,68.55L398.81,66.19L399.22,90.9L399.62,94.6L399.95,81.49L400.47,67.2L400.83,95.78L402.05,115.78L402.45,113.93L403.22,106.54L403.62,111.75L404.02,117.8L404.43,114.44L404.83,118.3L405.64,128.89L406.04,121.83L407.26,107.38L407.66,118.98L408.06,121.83L408.47,109.23L409.23,99.14L409.64,104.52L410.04,102.17L410.45,92.58L411.66,68.04L412.06,89.22L412.47,79.47L412.87,91.07L413.27,94.6L413.68,90.74L414.08,86.2L414.48,86.87L414.85,92.75L415.25,115.95L415.66,115.78L416.06,116.62L416.46,100.32L416.87,100.49L417.27,99.48L417.68,97.8L418.08,81.15L418.48,83L418.89,77.46L419.25,80.48L419.65,96.62L420.06,112.42L420.46,102.84L420.87,91.58L421.27,92.92L421.67,107.21L422.08,109.39L422.48,103.85L423.65,87.37L424.06,84.01L424.46,91.24L424.86,86.2L425.27,78.3L425.67,69.22L426.08,70.23L426.48,81.99L427.29,75.94L427.69,93.26L428.05,99.81L428.46,92.92L428.86,83.84L429.27,87.04L429.67,89.73L430.07,86.37L430.48,91.24L431.69,98.8L432.09,97.29L432.29,81.49L433.06,97.96L433.35,89.22L433.75,92.58L434.15,91.24L434.56,98.3L434.96,80.99L435.36,74.43L435.77,75.94L436.17,89.73L436.94,110.57L437.34,108.05L437.75,99.31L439.36,70.4L439.77,61.15L440.17,56.78L440.57,60.31L440.94,56.95L442.15,70.06L442.55,53.59L442.96,45.35L443.36,59.81L444.17,62.5L444.57,82.16L445.34,92.25L445.74,84.18L446.15,77.29L446.55,84.18L448.57,61.15L448.97,67.37L450.55,81.83L450.95,81.15L451.36,76.62L451.76,84.68L452.57,78.8L452.97,64.68L453.38,65.35L453.78,61.99L454.14,59.97L454.55,47.2L454.95,29.55L456.16,35.94L457.78,50.39L458.18,65.69L458.95,86.2L459.35,93.59L460,112.08" style="vector-effect: none; fill: none; stroke: rgb(0, 204, 150); stroke-opacity: 1; stroke-width: 2px; opacity: 1;"/></g><g class="points"/><g class="text"/></g><g class="trace scatter tracea25920" style="stroke-miterlimit: 2; opacity: 1;"><g class="fills"/><g class="errorbars"/><g class="lines"><path class="js-line" d="M413.27,89.48L413.68,90.82L414.08,88.13L416.06,120.74L416.46,107.46L416.87,108.64L417.27,104.44L419.25,79.39L419.65,90.99L420.06,105.11L420.46,99.22L420.87,92L421.27,91.49L421.67,107.29L422.08,108.81L422.48,96.54L422.88,85.44L423.29,92.67L423.69,89.98L424.06,86.79L424.46,90.65L425.67,74.18L426.08,78.21L426.48,87.12L426.88,79.73L427.29,69.98L428.05,104.94L428.46,98.22L428.86,91.83L430.07,85.95L430.48,92.84L430.88,97.88L431.29,95.86L431.69,96.03L432.09,93.68L432.46,94.35L432.86,103.76L433.26,87.29L433.67,96.87L434.07,91.32L434.48,95.86L434.88,79.05L435.28,78.72L435.69,74.68L437.26,103.93L437.67,101.24L438.07,98.89L438.47,89.31L440.09,57.87L440.49,58.55L440.9,53.17L441.26,59.89L441.66,60.73L442.07,70.31L442.88,56.36L443.28,62.08L444.09,59.22L444.49,75.35L445.3,97.04L445.66,86.79L446.07,76.87L446.47,85.95L447.68,74.35L448.09,70.14L448.49,59.89L448.89,68.8L449.3,70.14L450.47,77.37L450.87,73.17L451.68,81.91L452.08,78.38L452.49,77.71L452.89,64.09L454.47,54.34L454.87,28.96L456.08,31.48L456.49,40.9L456.89,39.21" style="vector-effect: none; fill: none; stroke: rgb(171, 99, 250); stroke-opacity: 1; stroke-width: 2px; opacity: 1;"/></g><g class="points"/><g class="text"/></g><g class="trace scatter trace49141b" style="stroke-miterlimit: 2; opacity: 1;"><g class="fills"/><g class="errorbars"/><g class="lines"><path class="js-line" d="M0,219.45L0.77,239.96L1.17,237.94L1.53,236.26L2.02,240.63L2.79,250.55L3.19,238.61L3.59,237.94L4,239.11L5.21,234.58L5.57,249.87L6.38,252.56L6.78,264.5L7.19,264.33L7.59,265.67L8,265.84L8.4,258.78L9.21,277.78L9.61,267.35L10.78,232.39L11.19,238.11L11.59,229.53L11.99,208.35L12.4,208.69L13.21,214.74L13.61,211.71L14.01,216.25L15.59,246.01L15.99,238.61L16.4,245.84L16.8,268.53L17.2,285.17L17.61,279.79L17.97,267.02L18.78,247.86L19.18,251.72L19.59,252.73L20.4,258.45L20.8,267.35L21.2,272.73L21.61,264.67L22.01,253.57L22.78,267.02L23.99,251.22L24.39,240.29L24.8,241.47L25.2,233.06L27.58,167L28.39,165.49L31.22,207.34L31.62,222.14L31.99,239.45L32.39,219.78L33.6,253.23L34.01,247.69L34.41,244.66L34.81,245.84L35.62,245L36.02,248.7L36.39,246.34L36.79,246.51L37.2,251.89L38,250.21L38.41,246.34L38.81,249.7L39.22,241.64L39.62,250.55L39.98,254.41L40.39,233.9L40.79,217.6L41.19,220.79L41.6,222.14L43.17,206.34L44.02,220.79L44.83,209.87L45.19,220.62L46,233.74L46.4,230.88L47.21,227.18L48.02,250.21L48.42,240.96L48.83,240.96L49.23,235.75L50.04,228.19L50.44,237.77L50.85,228.19L51.21,231.38L52.02,248.19L52.83,231.05L53.23,232.73L53.63,233.9L54.04,229.37L55.25,216.59L55.65,207.51L57.23,177.09L57.63,186.67L58.04,200.96L58.44,194.06L58.84,192.72L59.65,201.29L60.05,194.06L60.46,196.75L60.86,187.68L62.07,204.82L62.44,202.81L62.84,183.98L63.24,171.71L63.65,188.01L64.05,191.04L64.46,189.02L64.86,182.3L65.67,167.51L66.48,191.21L67.65,187.68L68.05,190.7L71.24,121.62L71.65,127.67L72.05,126.49L72.45,133.72L74.88,216.42L75.64,228.52L76.86,259.45L77.26,241.13L77.66,239.96L78.07,246.01L79.28,260.46L79.68,267.19L82.47,304L83.28,289.04L83.68,297.44L84.08,279.12L85.26,251.39L85.66,258.78L86.47,247.18L86.87,247.69L87.27,255.59L87.68,266.01L88.08,249.87L89.25,266.51L89.66,257.1L90.47,281.14L90.91,276.43L91.27,276.6L91.68,280.63L92.08,276.6L92.48,260.13L92.85,270.21L93.25,274.41L94.87,254.92L95.27,255.42L96.08,261.64L96.48,256.6L97.29,268.53L97.69,264.16L98.06,265L98.46,248.36L99.27,248.36L99.67,225.67L100.88,207.68L101.29,209.53L101.69,214.4L102.1,204.82L102.46,207.34L103.27,217.93L103.67,222.47L104.08,237.6L104.48,236.09L104.88,224.66L105.29,233.06L105.69,229.7L106.09,219.95L106.9,236.43L107.31,222.14L108.07,228.69L108.48,227.01L108.88,237.1L109.29,240.63L109.69,229.87L110.09,227.18L110.5,233.06L110.9,234.24L111.3,238.11L112.92,220.96L113.32,231.89L113.73,236.43L114.09,218.44L114.9,197.59L115.3,200.45L115.71,198.27L116.51,181.63L117.73,214.07L118.13,213.23L118.53,208.52L118.94,205.16L119.71,222.47L120.11,235.58L120.51,231.72L120.92,227.35L121.32,222.31L121.72,235.92L122.94,225.33L123.34,241.3L123.74,241.3L124.11,232.9L124.51,241.8L124.91,240.8L125.32,238.78L127.34,208.52L127.74,228.36L128.15,225.84L128.51,215.75L129.32,188.52L129.72,188.69L130.93,173.89L131.34,167.67L132.71,201.8L132.91,202.47L133.32,189.53L133.72,204.15L134.93,212.22L135.33,201.29L135.74,202.64L136.14,211.21L137.76,230.71L138.12,221.63L138.53,223.31L138.93,228.19L140.54,211.38L141.35,207.34L142.52,182.3L143.01,185.32L144.14,158.6L144.54,164.65L144.91,138.93L145.35,125.48L145.75,138.93L146.56,161.96L146.93,160.61L147.33,153.55L148.54,201.8L148.94,204.15L149.75,211.38L150.12,228.02L151.73,231.89L152.14,226.51L152.54,229.53L152.94,228.52L153.35,225.84L154.15,233.57L154.56,224.66L155.33,212.05L156.13,201.63L156.94,190.03L157.35,194.74L158.15,188.35L158.56,191.21L160.13,139.27L160.54,148.17L160.94,153.89L161.5,135.74L161.67,126.66L162.15,157.42L162.96,183.81L163.32,176.58L163.73,171.71L164.94,218.44L165.34,204.49L165.75,221.46L166.15,209.87L166.55,200.79L166.96,213.56L167.36,209.19L167.76,214.4L168.57,200.45L169.78,189.02L170.15,204.65L170.55,192.05L171,187.51L171.36,186.67L171.76,192.72L172.57,178.6L172.97,156.41L173.38,143.97L173.78,155.57L174.99,136.91L175.4,130.19L175.8,124.47L176.17,142.96L176.57,129.18L176.93,132.54L177.38,135.74L178.18,164.98L178.59,180.95L179.4,192.55L179.8,186.33L180.2,181.96L180.61,186.84L182.18,205.83L182.59,192.38L184.2,230.88L184.61,229.37L185.82,201.8L186.18,217.43L186.58,217.43L186.99,200.96L187.39,198.77L187.8,180.79L188.6,184.99" style="vector-effect: none; fill: none; stroke: rgb(255, 161, 90); stroke-opacity: 1; stroke-width: 2px; opacity: 1;"/></g><g class="points"/><g class="text"/></g></g></g><g class="overplot"/><path class="xlines-above crisp" d="M0,0" style="fill: none;"/><path class="ylines-above crisp" d="M0,0" style="fill: none;"/><g class="overlines-above"/><g class="xaxislayer-above"><g class="xtick"><text text-anchor="middle" x="0" y="433" transform="translate(110.09,0)" style="font-family: 'Open Sans', verdana, arial, sans-serif; font-size: 12px; fill: rgb(42, 63, 95); fill-opacity: 1; white-space: pre; opacity: 1;">1995</text></g><g class="xtick"><text text-anchor="middle" x="0" y="433" style="font-family: 'Open Sans', verdana, arial, sans-serif; font-size: 12px; fill: rgb(42, 63, 95); fill-opacity: 1; white-space: pre; opacity: 1;" transform="translate(183.82999999999998,0)">2000</text></g><g class="xtick"><text text-anchor="middle" x="0" y="433" style="font-family: 'Open Sans', verdana, arial, sans-serif; font-size: 12px; fill: rgb(42, 63, 95); fill-opacity: 1; white-space: pre; opacity: 1;" transform="translate(257.62,0)">2005</text></g><g class="xtick"><text text-anchor="middle" x="0" y="433" style="font-family: 'Open Sans', verdana, arial, sans-serif; font-size: 12px; fill: rgb(42, 63, 95); fill-opacity: 1; white-space: pre; opacity: 1;" transform="translate(331.36,0)">2010</text></g><g class="xtick"><text text-anchor="middle" x="0" y="433" style="font-family: 'Open Sans', verdana, arial, sans-serif; font-size: 12px; fill: rgb(42, 63, 95); fill-opacity: 1; white-space: pre; opacity: 1;" transform="translate(405.11,0)">2015</text></g><g class="xtick"><text text-anchor="middle" x="0" y="433" style="font-family: 'Open Sans', verdana, arial, sans-serif; font-size: 12px; fill: rgb(42, 63, 95); fill-opacity: 1; white-space: pre; opacity: 1;" transform="translate(478.86,0)">2020</text></g></g><g class="yaxislayer-above"><g class="ytick"><text text-anchor="end" x="79" y="4.199999999999999" transform="translate(0,399.65)" style="font-family: 'Open Sans', verdana, arial, sans-serif; font-size: 12px; fill: rgb(42, 63, 95); fill-opacity: 1; white-space: pre; opacity: 1;">−50</text></g><g class="ytick"><text text-anchor="end" x="79" y="4.199999999999999" style="font-family: 'Open Sans', verdana, arial, sans-serif; font-size: 12px; fill: rgb(42, 63, 95); fill-opacity: 1; white-space: pre; opacity: 1;" transform="translate(0,315.6)">0</text></g><g class="ytick"><text text-anchor="end" x="79" y="4.199999999999999" style="font-family: 'Open Sans', verdana, arial, sans-serif; font-size: 12px; fill: rgb(42, 63, 95); fill-opacity: 1; white-space: pre; opacity: 1;" transform="translate(0,231.55)">50</text></g><g class="ytick"><text text-anchor="end" x="79" y="4.199999999999999" style="font-family: 'Open Sans', verdana, arial, sans-serif; font-size: 12px; fill: rgb(42, 63, 95); fill-opacity: 1; white-space: pre; opacity: 1;" transform="translate(0,147.5)">100</text></g></g><g class="overaxes-above"/></g></g><g class="polarlayer"/><g class="smithlayer"/><g class="ternarylayer"/><g class="geolayer"/><g class="funnelarealayer"/><g class="pielayer"/><g class="iciclelayer"/><g class="treemaplayer"/><g class="sunburstlayer"/><g class="glimages"/><defs id="topdefs-e2aeeb"><g class="clips"/><clipPath id="legende2aeeb"><rect width="139" height="105" x="0" y="0"/></clipPath></defs><g class="layer-above"><g class="imagelayer"/><g class="shapelayer"/></g><g class="infolayer"><g class="legend" pointer-events="all" transform="translate(549.2,100)"><rect class="bg" shape-rendering="crispEdges" width="139" height="105" x="0" y="0" style="stroke: rgb(68, 68, 68); stroke-opacity: 1; fill: rgb(255, 255, 255); fill-opacity: 1; stroke-width: 0px;"/><g class="scrollbox" transform="" clip-path="url(#legende2aeeb)"><g class="groups"><g class="traces" transform="translate(0,14.5)" style="opacity: 1;"><text class="legendtext" text-anchor="start" x="40" y="4.680000000000001" style="font-family: 'Open Sans', verdana, arial, sans-serif; font-size: 12px; fill: rgb(42, 63, 95); fill-opacity: 1; white-space: pre;">Jason.1</text><g class="layers" style="opacity: 1;"><g class="legendfill"/><g class="legendlines"><path class="js-line" d="M5,0h30" style="fill: none; stroke: rgb(99, 110, 250); stroke-opacity: 1; stroke-width: 2px;"/></g><g class="legendsymbols"><g class="legendpoints"/></g></g><rect class="legendtoggle" x="0" y="-9.5" width="133.84375" height="19" style="fill: rgb(0, 0, 0); fill-opacity: 0;"/></g><g class="traces" transform="translate(0,33.5)" style="opacity: 1;"><text class="legendtext" text-anchor="start" x="40" y="4.680000000000001" style="font-family: 'Open Sans', verdana, arial, sans-serif; font-size: 12px; fill: rgb(42, 63, 95); fill-opacity: 1; white-space: pre;">Jason.2</text><g class="layers" style="opacity: 1;"><g class="legendfill"/><g class="legendlines"><path class="js-line" d="M5,0h30" style="fill: none; stroke: rgb(239, 85, 59); stroke-opacity: 1; stroke-width: 2px;"/></g><g class="legendsymbols"><g class="legendpoints"/></g></g><rect class="legendtoggle" x="0" y="-9.5" width="133.84375" height="19" style="fill: rgb(0, 0, 0); fill-opacity: 0;"/></g><g class="traces" transform="translate(0,52.5)" style="opacity: 1;"><text class="legendtext" text-anchor="start" x="40" y="4.680000000000001" style="font-family: 'Open Sans', verdana, arial, sans-serif; font-size: 12px; fill: rgb(42, 63, 95); fill-opacity: 1; white-space: pre;">Jason.3</text><g class="layers" style="opacity: 1;"><g class="legendfill"/><g class="legendlines"><path class="js-line" d="M5,0h30" style="fill: none; stroke: rgb(0, 204, 150); stroke-opacity: 1; stroke-width: 2px;"/></g><g class="legendsymbols"><g class="legendpoints"/></g></g><rect class="legendtoggle" x="0" y="-9.5" width="133.84375" height="19" style="fill: rgb(0, 0, 0); fill-opacity: 0;"/></g><g class="traces" transform="translate(0,71.5)" style="opacity: 1;"><text class="legendtext" text-anchor="start" x="40" y="4.680000000000001" style="font-family: 'Open Sans', verdana, arial, sans-serif; font-size: 12px; fill: rgb(42, 63, 95); fill-opacity: 1; white-space: pre;">Sentinel-6MF</text><g class="layers" style="opacity: 1;"><g class="legendfill"/><g class="legendlines"><path class="js-line" d="M5,0h30" style="fill: none; stroke: rgb(171, 99, 250); stroke-opacity: 1; stroke-width: 2px;"/></g><g class="legendsymbols"><g class="legendpoints"/></g></g><rect class="legendtoggle" x="0" y="-9.5" width="133.84375" height="19" style="fill: rgb(0, 0, 0); fill-opacity: 0;"/></g><g class="traces" transform="translate(0,90.5)" style="opacity: 1;"><text class="legendtext" text-anchor="start" x="40" y="4.680000000000001" style="font-family: 'Open Sans', verdana, arial, sans-serif; font-size: 12px; fill: rgb(42, 63, 95); fill-opacity: 1; white-space: pre;">TOPEX.Poseidon</text><g class="layers" style="opacity: 1;"><g class="legendfill"/><g class="legendlines"><path class="js-line" d="M5,0h30" style="fill: none; stroke: rgb(255, 161, 90); stroke-opacity: 1; stroke-width: 2px;"/></g><g class="legendsymbols"><g class="legendpoints"/></g></g><rect class="legendtoggle" x="0" y="-9.5" width="133.84375" height="19" style="fill: rgb(0, 0, 0); fill-opacity: 0;"/></g></g></g><rect class="scrollbar" rx="20" ry="3" width="0" height="0" x="0" y="0" style="fill: rgb(128, 139, 164); fill-opacity: 1;"/></g><g class="g-gtitle"><text class="gtitle" x="35" y="50" text-anchor="start" dy="0em" style="font-family: 'Open Sans', verdana, arial, sans-serif; font-size: 17px; fill: rgb(42, 63, 95); opacity: 1; font-weight: normal; white-space: pre;">Mean Sea Levels Changing - Nino</text></g><g class="g-xtitle"><text class="xtitle" x="310" y="460.3" text-anchor="middle" style="font-family: 'Open Sans', verdana, arial, sans-serif; font-size: 14px; fill: rgb(42, 63, 95); opacity: 1; font-weight: normal; white-space: pre;">Date</text></g><g class="g-ytitle"><text class="ytitle" transform="rotate(-90,34.340625,260)" x="34.340625" y="260" text-anchor="middle" style="font-family: 'Open Sans', verdana, arial, sans-serif; font-size: 14px; fill: rgb(42, 63, 95); opacity: 1; font-weight: normal; white-space: pre;">Change in Sea Level [mm]</text></g></g></svg>