<svg class="main-svg" xmlns="http://www.w3.org/2000/svg" xmlns:xlink="http://www.w3.org/1999/xlink" width="700" height="500" style="" viewBox="0 0 700 500"><rect x="0" y="0" width="700" height="500" style="fill: rgb(255, 255, 255); fill-opacity: 1;"/><defs id="defs-108ae2"><g class="clips"><clipPath id="clip108ae2xyplot" class="plotclip"><rect width="460" height="320"/></clipPath><clipPath class="axesclip" id="clip108ae2x"><rect x="80" y="0" width="460" height="500"/></clipPath><clipPath class="axesclip" id="clip108ae2y"><rect x="0" y="100" width="700" height="320"/></clipPath><clipPath class="axesclip" id="clip108ae2xy"><rect x="80" y="100" width="460" height="320"/></clipPath></g><g class="gradients"/><g class="patterns"/></defs><g class="bglayer"><rect class="bg" x="80" y="100" width="460" height="320" style="fill: rgb(229, 236, 246); fill-opacity: 1; stroke-width: 0;"/></g><g class="layer-below"><g class="imagelayer"/><g class="shapelayer"/></g><g class="cartesianlayer"><g class="subplot xy"><g class="layer-subplot"><g class="shapelayer"/><g class="imagelayer"/></g><g class="minor-gridlayer"><g class="x"/><g class="y"/></g><g class="gridlayer"><g class="x"><path class="xgrid crisp" transform="translate(110.09,0)" d="M0,100v320" style="stroke: rgb(255, 255, 255); stroke-opacity: 1; stroke-width: 1px;"/><path class="xgrid crisp" transform="translate(183.82,0)" d="M0,100v320" style="stroke: rgb(255, 255, 255); stroke-opacity: 1; stroke-width: 1px;"/><path class="xgrid crisp" transform="translate(257.6,0)" d="M0,100v320" style="stroke: rgb(255, 255, 255); stroke-opacity: 1; stroke-width: 1px;"/><path class="xgrid crisp" transform="translate(331.34000000000003,0)" d="M0,100v320" style="stroke: rgb(255, 255, 255); stroke-opacity: 1; stroke-width: 1px;"/><path class="xgrid crisp" transform="translate(405.08,0)" d="M0,100v320" style="stroke: rgb(255, 255, 255); stroke-opacity: 1; stroke-width: 1px;"/><path class="xgrid crisp" transform="translate(478.82,0)" d="M0,100v320" style="stroke: rgb(255, 255, 255); stroke-opacity: 1; stroke-width: 1px;"/></g><g class="y"><path class="ygrid crisp" transform="translate(0,376.88)" d="M80,0h460" style="stroke: rgb(255, 255, 255); stroke-opacity: 1; stroke-width: 1px;"/><path class="ygrid crisp" transform="translate(0,328.39)" d="M80,0h460" style="stroke: rgb(255, 255, 255); stroke-opacity: 1; stroke-width: 1px;"/><path class="ygrid crisp" transform="translate(0,231.41)" d="M80,0h460" style="stroke: rgb(255, 255, 255); stroke-opacity: 1; stroke-width: 1px;"/><path class="ygrid crisp" transform="translate(0,182.92000000000002)" d="M80,0h460" style="stroke: rgb(255, 255, 255); stroke-opacity: 1; stroke-width: 1px;"/><path class="ygrid crisp" transform="translate(0,134.44)" d="M80,0h460" style="stroke: rgb(255, 255, 255); stroke-opacity: 1; stroke-width: 1px;"/></g></g><g class="zerolinelayer"><path class="yzl zl crisp" transform="translate(0,279.9)" d="M80,0h460" style="stroke: rgb(255, 255, 255); stroke-opacity: 1; stroke-width: 2px;"/></g><g class="layer-between"><g class="shapelayer"/><g class="imagelayer"/></g><path class="xlines-below"/><path class="ylines-below"/><g class="overlines-below"/><g class="xaxislayer-below"/><g class="yaxislayer-below"/><g class="overaxes-below"/><g class="plot" transform="translate(80,100)" clip-path="url(#clip108ae2xyplot)"><g class="scatterlayer mlayer"><g class="trace scatter trace578459" style="stroke-miterlimit: 2; opacity: 1;"><g class="fills"/><g class="errorbars"/><g class="lines"><path class="js-line" d="M134.11,194.79L134.92,232.9L135.32,229.6L135.73,203.03L136.09,194.59L136.49,209.82L136.9,208.46L137.3,226.01L137.71,215.54L138.11,178.98L138.51,179.75L138.92,155.9L139.32,124.48L139.72,133.01L140.13,126.42L140.53,129.71L140.9,167.15L141.3,163.95L141.7,153.67L142.11,148.92L142.51,169.09L142.91,162.88L143.32,194.4L143.72,198.18L144.13,187.71L144.93,206.91L145.3,205.55L145.7,217.19L146.1,191.68L146.91,226.98L147.32,199.44L147.72,198.47L148.12,229.11L150.1,192.17L150.51,217.38L150.91,215.15L151.31,197.5L152.16,171.8L152.53,193.91L152.93,160.75L153.33,161.23L153.74,163.95L154.5,120.21L154.91,127.77L155.72,182.57L156.12,179.17L156.52,171.41L157.74,162.2L158.14,181.79L158.5,191.88L158.91,191.68L159.31,191.2L159.71,189.65L160.12,168.8L160.52,144.36L160.88,167.83L161.49,144.94L161.73,160.55L162.14,151.92L162.54,154.73L163.31,168.89L163.71,150.27L165,239.39L165.33,223.3L165.73,232.7L166.13,216.51L168.15,121.18L168.56,124.48L168.92,114.88L169.37,116.14L169.73,131.36L170.54,180.92L170.94,173.84L171.34,172.67L172.15,156.09L172.56,189.16L172.96,203.9L173.36,191.2L173.77,192.55L174.13,193.23L174.57,173.74L174.94,176.46L175.34,188.09L175.75,187.42L176.15,152.79L176.55,155.22L177,143L178.17,173.45L178.57,175.78L179.78,189.94L180.19,197.79L180.59,189.55L180.96,205.26L182.17,165.4L182.57,135.24L182.97,152.02L183.38,144.75L183.78,136.6L184.19,139.51L184.59,130.59L185.76,158.42L186.16,143.39L187.38,173.74L187.78,165.79L188.1,171.9L188.67,136.99L189.4,177.23L189.76,152.79L190.16,152.02L190.57,130.78L190.97,124.77L191.37,126.32L191.78,136.41L192.59,151.05L192.95,136.41L194.16,179.95L194.56,162.49L195.78,201.86L196.18,185.18L196.99,142.61L197.39,151.15L197.79,128.36L198.56,149.59L198.97,139.51L200.18,193.82L200.58,155.03L201.79,178.01L202.2,179.56L203.37,220.29L203.77,209.14L204.18,206.33L204.46,196.24L206.19,235.13L206.6,210.3L207.37,250.06L207.77,245.41L208.17,231.73L208.58,205.94L208.98,215.34L209.38,227.37L210.15,248.7L210.56,228.82L212.17,136.41L212.57,124.09L213.38,149.79L213.79,144.94L214.59,190.91L215,171.8L215.36,166.76L215.77,175L216.17,156.19L216.57,151.73L216.98,157.06L218.19,201.48L218.59,207.97L220.57,150.66L220.97,166.18L221.78,185.96L222.19,180.34L222.59,166.47L222.99,175.88L223.4,184.51L224.21,172.09L224.61,163.07L225.82,130.88L226.18,142.52L227.4,89.57L227.8,103.34L228.2,102.17L228.61,151.53L229.01,145.81L229.41,151.15L230.22,165.3L230.55,159.39L231.43,147.65L231.8,159.39L232.2,146.88L232.6,160.26L233.01,140.09L233.41,136.5L233.82,104.89L235.03,132.53L235.43,126.61L235.84,106.73L236.24,107.8L236.64,130.88L237.05,119.14L237.41,129.13L238.42,180.14L239.63,150.56L240.04,147.36L240.44,145.42L240.84,160.75L241.25,160.65L241.61,131.17L242.42,77.06L242.82,102.75L244.03,162.1L244.44,150.86L244.84,150.95L245.24,181.69L246.01,222.04L246.42,194.88L246.82,156.96L247.63,172.67L248.03,171.71L248.43,180.04L248.84,143.48L249.24,166.95L249.65,178.59L250.41,141.64L250.82,146.78L251.22,155.22L253.24,196.72L253.64,196.53L254.05,202.54L254.45,193.04L257.24,97.81L257.64,105.18L258.85,141.55L259.22,149.4L259.58,95.19L260.02,111.87L260.43,116.04L261.24,141.25L261.64,125.64L262.85,71.92L263.21,97.81L263.62,83.26L264.02,99.55L264.83,83.17L265.23,83.55L265.64,84.04L266.85,110.22L267.25,88.79L268.06,158.81L268.42,137.08L268.83,124.19L269.64,145.04L270.04,138.44L270.44,109.25L271.25,142.9L271.65,126.9L272.06,89.95L272.42,100.14L272.83,115.17L273.63,161.91L274.04,143.29L274.85,100.62L275.25,126.42L275.65,159.87L276.06,145.42L276.46,161.43L276.82,167.63L277.23,188.48L278.44,128.26L278.84,163.75L280.05,130.2L280.46,130.59L280.86,116.14L281.27,151.44L281.67,163.07L282.03,154.06L282.44,120.11L282.68,87.34L283.29,118.27L286.15,68.33L286.6,74.53L287.81,109.64L288.09,125.35L288.98,139.9L289.42,153.86L289.71,141.16L290.03,146.1L290.47,162.3L290.92,154.64L291.36,156.87L291.64,171.51L291.97,170.83L292.37,185.77L292.86,170.83L293.14,199.73L293.42,147.56L293.87,147.75L294.31,146.49L294.75,140.58L295.08,145.04L295.36,150.86L295.8,144.65L296.25,150.47L296.69,141.35L296.97,106.92L297.74,107.89L297.98,111.97L298.75,141.45L298.91,107.99L299.64,137.86L300.08,110.9L300.37,68.52L300.69,76.96L301.13,71.72L301.58,52.42L301.98,74.24L302.43,136.7" style="vector-effect: none; fill: none; stroke: rgb(99, 110, 250); stroke-opacity: 1; stroke-width: 2px; opacity: 1;"/></g><g class="points"/><g class="text"/></g><g class="trace scatter trace69a1df" style="stroke-miterlimit: 2; opacity: 1;"><g class="fills"/><g class="errorbars"/><g class="lines"><path class="js-line" d="M229.5,163.01L229.82,164.27L230.22,174.45L230.63,172.9L231.03,155.25L231.43,142.16L231.8,159.61L232.2,150.3L232.6,173.19L233.82,122.57L234.22,129.16L234.62,124.89L235.03,137.6L236.24,101.14L236.64,123.25L237.05,119.37L237.41,127.03L237.81,125.38L238.22,169.6L239.03,149.33L239.43,155.35L240.24,144.68L240.64,136.43L241.04,147.2L241.45,129.74L241.81,104.63L242.22,124.31L242.62,121.5L243.02,115.2L243.43,125.86L245.45,190.84L245.85,185.02L246.21,189.29L246.66,173.96L247.02,178.72L247.43,195.59L248.23,164.17L248.64,168.63L249.04,164.46L249.85,175.81L250.25,171.06L251.02,135.56L251.42,144.87L252.63,185.41L253.04,170.76L253.85,159.9L254.25,177.75L255.42,151.18L255.82,133.04L257.04,103.56L257.44,96.97L259.06,143.42L259.42,137.6L260.23,112.87L260.67,120.53L261.03,143.03L261.44,127.42L261.84,106.08L262.25,103.17L262.65,104.72L263.05,95.32L263.46,92.31L263.86,101.14L264.26,96.19L264.63,97.94L265.03,111.51L265.84,79.41L266.24,93.96L267.05,116.26L267.46,102.2L267.86,134.79L268.22,115.97L268.67,108.12L269.43,117.43L269.84,133.23L270.65,105.69L271.05,118.2L271.45,117.33L271.86,96.67L272.22,99L272.62,121.4L273.84,151.95L274.24,140.7L275.05,125.77L275.45,145.26L275.85,145.16L276.26,134.5L277.03,169.21L277.43,154.08L277.83,152.14L278.24,157.28L279.04,137.21L279.45,148.56L280.26,138.18L280.66,141.67L281.06,122.28L281.47,135.95L281.83,136.63L282.24,138.57L282.64,103.75L283.45,114.52L283.85,148.27L284.66,91.44L285.06,93.86L285.47,92.02L285.87,102.78L286.27,81.84L287.08,98.52L287.48,128.29L287.89,132.26L288.29,125.77L289.46,151.37L289.87,150.21L290.27,148.17L290.68,162.42L291.08,143.51L291.48,170.18L292.29,190.45L292.69,162.72L293.1,168.24L293.5,137.89L293.91,127.71L294.31,139.83L295.48,123.05L295.88,133.82L296.29,145.07L296.69,124.99L297.1,96.58L297.5,99.29L297.9,142.45L298.31,141.57L298.71,123.63L298.95,126.74L299.56,116.85L299.88,131.1L300.29,96.67L301.5,54L301.9,65.84L302.71,127.51L303.11,119.75L303.52,117.91L303.88,114.32L304.28,142.84L305.09,146.52L305.41,110.15L306.71,155.15L307.11,127.61L307.51,127.03L307.92,114.81L309.49,161.36L309.9,145.84L310.7,125.86L311.11,128.29L311.51,143.8L311.92,141.96L312.28,167.95L312.68,170.96L313.09,165.92L313.49,160.39L313.9,165.72L314.3,168.24L314.7,161.84L316.32,95.22L316.72,103.66L317.13,107.54L317.49,126.45L317.89,108.41L318.3,120.63L318.7,124.51L319.51,105.98L319.91,133.91L320.32,148.36L320.72,135.17L321.89,158.55L322.29,147.49L323.1,159.9L323.51,135.08L324.72,108.6L325.12,119.95L325.49,94.73L325.89,98.52L326.29,96.09L327.5,128.87L327.91,140.31L328.72,115.29L329.12,116.85L329.52,133.82L329.93,141.57L330.33,111.22L331.5,66.42L331.91,87.85L332.31,77.18L332.71,93.86L333.48,121.79L333.88,108.51L334.69,122.18L335.1,94.06L336.31,126.35L336.71,138.47L337.12,140.9L337.52,140.22L337.92,150.69L338.69,138.08L339.09,116.07L339.9,102.98L340.31,120.53L340.71,114.03L341.11,134.69L342.73,93.77L343.13,93.86L343.5,107.83L343.94,91.34L344.34,90.57L344.75,81.35L345.15,75.44L345.56,49.45L346.32,37.81L346.73,38.1L347.13,63.9L347.53,50.8L347.94,54.49L348.34,65.25L349.15,110.25L349.55,88.92L350.36,61.57L350.76,82.13L351.49,121.11L351.73,119.85L352.14,94.64L352.54,82.23L352.95,82.71L353.35,95.9L354.56,120.92L354.96,105.69L356.14,126.83L356.54,115.39L356.94,115.58L357.35,122.76L357.59,142.54L358.28,140.12L358.56,123.34L358.96,109.09L359.37,111.71L359.77,57.98L360.05,90.37" style="vector-effect: none; fill: none; stroke: rgb(239, 85, 59); stroke-opacity: 1; stroke-width: 2px; opacity: 1;"/></g><g class="points"/><g class="text"/></g><g class="trace scatter traceefc06e" style="stroke-miterlimit: 2; opacity: 1;"><g class="fills"/><g class="errorbars"/><g class="lines"><path class="js-line" d="M341.6,107.45L341.92,126.46L342.32,110.84L342.65,115.5L343.13,102.21L343.54,122.09L344.75,73.7L345.15,68.95L345.51,32.58L345.92,34.52L346.32,33.26L346.73,32.29L347.13,33.94L347.53,30.74L347.94,35.3L349.15,105.7L349.55,75.45L350.36,40.92L350.76,65.17L351.94,104.73L352.34,71.66L352.74,84.47L353.15,58.67L354.36,120.25L354.76,110.75L355.17,116.27L355.57,104.73L355.97,136.35L356.34,129.46L356.74,121.61L357.55,134.41L357.95,127.13L358.36,135.47L358.76,115.59L359.97,78.94L360.34,100.27L360.78,96.49L361.18,109.19L361.95,113.46L362.35,121.8L363.16,135.18L363.57,157L364.37,127.81L364.78,141.88L365.18,143.14L365.59,133.34L365.95,137.22L366.35,121.9L366.76,102.02L367.16,110.16L367.56,141.58L368.78,112.98L369.14,129.85L370.35,157.49L370.75,153.71L371.16,155.55L371.56,153.12L371.97,152.06L372.37,144.3L372.77,145.46L373.18,144.11L374.75,79.62L375.16,97.56L375.56,96.68L375.96,116.76L376.37,109.58L376.77,127.72L377.17,119.57L377.58,122.29L377.94,133.05L378.35,146.05L378.75,124.03L379.15,161.85L379.56,155.84L379.96,164.28L380.37,131.5L380.77,139.45L381.17,144.4L381.58,125.1L381.98,138.77L382.38,138.97L383.15,93.19L383.56,123.16L384.36,146.34L384.77,129.46L386.22,205.49L386.83,151.96L387.19,155.55L387.55,149.83L387.84,163.02L388.36,150.99L389.98,82.82L390.38,87.76L390.78,78.36L391.19,102.21L391.59,112.39L391.96,87.57L392.36,71.37L392.76,93.48L393.17,79.81L393.57,110.84L394.38,133.05L394.78,107.25L395.19,105.7L395.59,113.46L397.16,182.9L397.57,184.84L397.97,186.68L398.38,195.41L398.78,193.08L399.18,169.51L399.91,165.73L400.23,111.42L400.8,188.13L401.16,182.41L401.57,170L403.18,132.08L403.59,108.52L403.99,109L404.39,111.52L405.6,49.07L406.01,67.79L407.58,51.4L407.99,69.14L409.2,34.43L409.6,65.55L410.01,56.25L410.41,75.64L410.77,75.74L411.26,88.83L411.62,93.87L412.03,79.23L412.83,71.28L413.24,41.21L414,64.29L414.41,56.25L414.81,56.05L415.22,52.17L416.43,68.76L416.83,70.99L417.6,90.38L418,60.22L419.21,18.42L419.62,47.23L420.02,64.39L420.42,22.4L420.83,16L421.23,17.84L421.64,44.8L422.04,62.45L422.44,44.22L422.81,52.17L423.21,47.61L423.62,32.68L424.83,81.36L425.23,84.66L426.44,41.41L426.85,54.21L427.21,28.41L427.61,56.25L428.82,81.85L429.23,91.45L429.63,88.83L430.04,110.45L430.44,112.59L430.84,122.48L431.21,133.63L431.65,133.44L432.01,121.8L434.11,50.81L434.52,39.86L434.92,40.53L435.29,50.14L435.69,56.15L436.09,105.7L436.5,96.01L436.9,68.66L437.71,47.91L438.11,107.74L438.92,88.73L439.32,39.76L439.69,63.52L440.09,42.38L440.5,60.71L440.9,64.68L441.3,84.56L442.11,60.51L442.51,80.3L442.92,66.23L443.32,84.17L443.73,52.75L444.09,82.72L445.3,113.85L445.7,126.36L446.51,95.52L446.92,111.23L447.32,95.62L447.72,110.36L448.09,129.17L448.53,123.93L448.89,87.86L449.3,73.99L449.7,80.68L450.11,101.82L450.51,119.18L450.91,113.56L451.32,102.02L452.53,159.91L452.89,156.23L453.3,166.99L454.51,139.45L454.91,155.55L456.12,201.22L456.53,194.44L456.93,203.16L457.33,207.24L457.7,221.01L458.91,149.83L459.31,165.73L460,145.37" style="vector-effect: none; fill: none; stroke: rgb(0, 204, 150); stroke-opacity: 1; stroke-width: 2px; opacity: 1;"/></g><g class="points"/><g class="text"/></g><g class="trace scatter tracec4677a" style="stroke-miterlimit: 2; opacity: 1;"><g class="fills"/><g class="errorbars"/><g class="lines"><path class="js-line" d="M413.24,41.57L414,71.73L414.41,69.21L414.81,59.03L415.22,54.18L415.62,69.31L417.6,96.66L418,68.63L419.21,22.57L419.62,46.32L420.02,63.1L420.42,18.4L421.19,19.17L421.64,37.6L422.04,55.73L422.44,36.82L422.81,47.78L423.21,46.03L423.66,33.62L424.83,80.27L425.23,90.16L426.44,42.25L426.81,53.6L427.21,25.67L427.61,60.29L428.42,85.89L428.82,88.9L429.23,89.09L429.63,93.94L431.21,141.17L431.65,138.26L434.03,55.05L434.44,52.72L434.84,31L435.25,58.35L435.61,24.12L436.01,46.52L436.42,70.37L436.82,80.46L437.22,58.83L437.63,47.2L438.03,61.06L438.44,79.3L438.84,73.57L439.24,56.51L439.61,71.25L440.05,62.62L440.41,34.4L442.43,85.79L442.84,71.73L443.64,61.36L444.01,75.51L445.22,121.58L445.62,108.58L446.03,88.7L446.43,100.34L446.84,112.46L447.24,116.83L447.64,107.03L448.05,114.11L448.45,108.29L448.81,90.84L449.62,83.47L450.03,86.67L450.43,91.13L450.83,88.61L451.24,103.25L452.45,135.83L452.85,116.54L454.02,148.34L454.43,122.94L456.45,213.12L456.85,223.69" style="vector-effect: none; fill: none; stroke: rgb(171, 99, 250); stroke-opacity: 1; stroke-width: 2px; opacity: 1;"/></g><g class="points"/><g class="text"/></g><g class="trace scatter tracef21a74" style="stroke-miterlimit: 2; opacity: 1;"><g class="fills"/><g class="errorbars"/><g class="lines"><path class="js-line" d="M0,181.42L0.77,171.24L1.17,201.69L1.49,234.37L2.02,228.16L2.34,243.78L2.79,249.6L3.19,248.14L3.59,246.69L3.96,246.2L4.77,223.32L6.78,141.08L7.19,152.04L7.59,155.92L8,169.49L8.36,170.95L9.17,209.06L9.61,198.78L9.97,157.57L10.38,145.44L10.78,181.52L11.15,170.37L11.59,195.58L12.4,188.21L13.16,166.97L13.57,177.06L13.97,167.26L14.38,177.25L14.78,153.3L15.59,166.97L15.99,161.35L16.4,178.51L16.8,171.43L17.2,180.55L17.97,211.48L18.78,189.18L19.18,195.97L19.59,177.16L19.99,183.75L20.39,161.06L20.8,180.06L21.2,151.46L21.56,166.49L22.01,165.42L22.78,178.32L23.99,200.04L24.39,187.43L25.6,238.83L26.01,236.7L26.77,212.36L27.18,212.94L27.58,215.56L29.2,256.09L29.6,235.44L30.37,226.52L30.77,249.69L31.18,274.42L31.58,246.3L31.98,255.71L32.39,235.44L33.6,225.35L34,190.15L34.41,190.34L34.81,151.17L35.98,144.18L36.38,120.13L37.19,132.74L38,130.51L38.4,120.42L38.81,131.87L39.58,130.41L39.98,167.26L41.19,193.93L41.59,173.08L42.4,154.07L42.81,171.14L43.17,174.54L44.02,166.1L45.59,192.57L46,218.66L46.4,219.82L47.21,230.69L47.97,214.01L48.42,217.59L48.82,232.04L49.19,202.66L49.99,149.13L50.4,153.88L50.8,147L52.01,118.48L52.42,137.39L53.22,161.93L53.63,154.56L54.03,162.8L54.84,158.15L55.24,168.72L56.01,186.17L56.82,171.43L58.03,145.93L58.43,154.46L59.24,204.02L59.65,189.96L60.05,199.07L60.45,197.91L60.86,228.94L61.62,256.09L62.03,224.19L62.43,214.2L62.84,181.33L64.05,219.53L64.45,202.37L65.26,142.15L65.66,158.34L66.43,126.92L66.83,125.95L67.24,139.14L68.04,203.73L68.85,192.67L69.26,193.64L69.66,168.23L70.02,200.24L70.47,190.05L71.24,211.1L71.64,241.06L72.04,235.53L72.45,243.87L73.25,286.06L73.66,280.43L74.06,295.95L74.43,289.94L74.83,304L77.25,251.73L77.66,270.83L79.63,165.42L80.44,161.35L81.25,141.27L81.65,126.24L83.27,163.68L83.63,155.24L84.44,139.04L84.84,139.14L85.65,170.56L86.46,127.6L86.86,178.22L87.27,149.03L87.67,139.92L88.03,135.07L88.44,156.89L89.25,177.83L89.65,159.8L90.46,178.9L90.94,171.63L92.07,191.99L92.44,199.07L94.46,118.68L94.86,134.29L96.07,195L96.43,178.8L96.84,181.23L97.24,201.4L98.05,212.07L98.45,183.36L99.66,233.01L100.07,223.32L100.88,181.52L101.28,205.47L102.05,158.15L102.41,165.61L103.26,207.31L103.66,174.15L104.07,174.92L104.47,170.75L104.87,177.64L105.28,204.5L105.68,212.36L106.09,193.54L106.85,184.23L107.26,159.6L108.06,156.31L108.47,161.74L109.68,111.99L110.08,130.02L110.49,131.87L110.85,168.04L111.25,154.85L111.66,170.17L112.87,135.36L113.27,174.63L113.68,187.43L114.08,175.99L114.49,143.89L114.89,159.6L115.29,165.91L115.7,186.46L116.5,180.94L116.91,173.18L117.31,186.08L118.08,202.66L118.52,190.05L120.1,200.04L120.5,213.23L121.71,187.05L122.12,194.03L122.52,192.87L122.88,173.37L123.29,191.22L123.69,169.59L124.1,137.78L124.5,141.95L124.9,144.96L125.31,150.2L125.71,142.53L126.92,169.88L127.33,170.17L127.73,179.68L128.09,163.87L128.5,194.03L128.9,187.14L129.31,182.29L129.71,181.13L130.11,199.75L130.52,206.93L130.92,178.71L131.32,155.24L131.73,177.74L132.09,173.47L132.66,181.33L133.3,166.78L133.71,173.95L134.92,240.58L135.32,236.7L135.73,204.02L136.13,213.23L136.49,207.12L136.9,210.32L137.3,233.98L137.71,216.04L138.11,175.99L138.51,172.89L138.92,151.65L139.32,117.71L139.72,126.44L140.09,116.64L140.49,112.47L141.3,157.18L142.11,135.94L142.47,161.15L143,159.99L143.32,177.64L143.72,181.62L144.13,196.45L144.49,214.88L144.89,202.27L145.34,184.14L145.7,207.02L146.1,184.14L146.51,233.79L146.91,209.35L147.32,181.52L148.12,222.44L148.53,212.94L148.89,207.02L149.3,215.95L149.74,201.5L150.51,214.78L150.91,214.1L151.31,215.36L152.93,173.47L153.33,142.34L153.7,126.05L154.1,147.38L154.91,132.84L155.27,149.61L156.12,170.08L156.6,207.12L156.93,159.7L157.33,162.8L157.74,158.44L158.91,199.85L159.35,213.81L159.71,209.64L160.08,179.97L160.93,145.15L161.49,204.7L161.65,146.22L162.14,168.62L162.54,159.31L163.71,172.6L164.16,198.78L164.92,249.69L165.37,240.97L165.73,228.75L166.98,174.15L167.35,143.6L168.56,107.72L169.73,114.12L170.54,161.15L170.98,140.89L172.56,210.42L172.92,209.06L173.32,198.97L174.53,172.69L174.98,179.58L175.38,193.54L176.11,193.16L176.59,143.31L176.88,146.41L177.36,171.05L177.72,171.72L178.13,155.92L179.38,190.34L179.74,196.74L180.23,212.36L180.55,189.57L181,207.31L181.36,194.61L181.76,173.37L182.17,166.68L182.57,136.04L182.97,144.28L183.34,137.39L183.78,112.57L184.95,171.24L185.36,131.96L185.76,132.55L186.12,107.72L186.57,201.3L186.97,179.39L187.38,192.77L187.78,153.2L188.14,201.3L188.59,134.97" style="vector-effect: none; fill: none; stroke: rgb(255, 161, 90); stroke-opacity: 1; stroke-width: 2px; opacity: 1;"/></g><g class="points"/><g class="text"/></g></g></g><g class="overplot"/><path class="xlines-above crisp" d="M0,0" style="fill: none;"/><path class="ylines-above crisp" d="M0,0" style="fill: none;"/><g class="overlines-above"/><g class="xaxislayer-above"><g class="xtick"><text text-anchor="middle" x="0" y="433" transform="translate(110.09,0)" style="font-family: 'Open Sans', verdana, arial, sans-serif; font-size: 12px; fill: rgb(42, 63, 95); fill-opacity: 1; white-space: pre; opacity: 1;">1995</text></g><g class="xtick"><text text-anchor="middle" x="0" y="433" style="font-family: 'Open Sans', verdana, arial, sans-serif; font-size: 12px; fill: rgb(42, 63, 95); fill-opacity: 1; white-space: pre; opacity: 1;" transform="translate(183.82,0)">2000</text></g><g class="xtick"><text text-anchor="middle" x="0" y="433" style="font-family: 'Open Sans', verdana, arial, sans-serif; font-size: 12px; fill: rgb(42, 63, 95); fill-opacity: 1; white-space: pre; opacity: 1;" transform="translate(257.6,0)">2005</text></g><g class="xtick"><text text-anchor="middle" x="0" y="433" style="font-family: 'Open Sans', verdana, arial, sans-serif; font-size: 12px; fill: rgb(42, 63, 95); fill-opacity: 1; white-space: pre; opacity: 1;" transform="translate(331.34000000000003,0)">2010</text></g><g class="xtick"><text text-anchor="middle" x="0" y="433" style="font-family: 'Open Sans', verdana, arial, sans-serif; font-size: 12px; fill: rgb(42, 63, 95); fill-opacity: 1; white-space: pre; opacity: 1;" transform="translate(405.08,0)">2015</text></g><g class="xtick"><text text-anchor="middle" x="0" y="433" style="font-family: 'Open Sans', verdana, arial, sans-serif; font-size: 12px; fill: rgb(42, 63, 95); fill-opacity: 1; white-space: pre; opacity: 1;" transform="translate(478.82,0)">2020</text></g></g><g class="yaxislayer-above"><g class="ytick"><text text-anchor="end" x="79" y="4.199999999999999" transform="translate(0,376.88)" style="font-family: 'Open Sans', verdana, arial, sans-serif; font-size: 12px; fill: rgb(42, 63, 95); fill-opacity: 1; white-space: pre; opacity: 1;">−100</text></g><g class="ytick"><text text-anchor="end" x="79" y="4.199999999999999" style="font-family: 'Open Sans', verdana, arial, sans-serif; font-size: 12px; fill: rgb(42, 63, 95); fill-opacity: 1; white-space: pre; opacity: 1;" transform="translate(0,328.39)">−50</text></g><g class="ytick"><text text-anchor="end" x="79" y="4.199999999999999" style="font-family: 'Open Sans', verdana, arial, sans-serif; font-size: 12px; fill: rgb(42, 63, 95); fill-opacity: 1; white-space: pre; opacity: 1;" transform="translate(0,279.9)">0</text></g><g class="ytick"><text text-anchor="end" x="79" y="4.199999999999999" style="font-family: 'Open Sans', verdana, arial, sans-serif; font-size: 12px; fill: rgb(42, 63, 95); fill-opacity: 1; white-space: pre; opacity: 1;" transform="translate(0,231.41)">50</text></g><g class="ytick"><text text-anchor="end" x="79" y="4.199999999999999" style="font-family: 'Open Sans', verdana, arial, sans-serif; font-size: 12px; fill: rgb(42, 63, 95); fill-opacity: 1; white-space: pre; opacity: 1;" transform="translate(0,182.92000000000002)">100</text></g><g class="ytick"><text text-anchor="end" x="79" y="4.199999999999999" style="font-family: 'Open Sans', verdana, arial, sans-serif; font-size: 12px; fill: rgb(42, 63, 95); fill-opacity: 1; white-space: pre; opacity: 1;" transform="translate(0,134.44)">150</text></g></g><g class="overaxes-above"/></g></g><g class="polarlayer"/><g class="smithlayer"/><g class="ternarylayer"/><g class="geolayer"/><g class="funnelarealayer"/><g class="pielayer"/><g class="iciclelayer"/><g class="treemaplayer"/><g class="sunburstlayer"/><g class="glimages"/><defs id="topdefs-108ae2"><g class="clips"/><clipPath id="legend108ae2"><rect width="139" height="105" x="0" y="0"/></clipPath></defs><g class="layer-above"><g class="imagelayer"/><g class="shapelayer"/></g><g class="infolayer"><g class="legend" pointer-events="all" transform="translate(549.2,100)"><rect class="bg" shape-rendering="crispEdges" width="139" height="105" x="0" y="0" style="stroke: rgb(68, 68, 68); stroke-opacity: 1; fill: rgb(255, 255, 255); fill-opacity: 1; stroke-width: 0px;"/><g class="scrollbox" transform="" clip-path="url(#legend108ae2)"><g class="groups"><g class="traces" transform="translate(0,14.5)" style="opacity: 1;"><text class="legendtext" text-anchor="start" x="40" y="4.680000000000001" style="font-family: 'Open Sans', verdana, arial, sans-serif; font-size: 12px; fill: rgb(42, 63, 95); fill-opacity: 1; white-space: pre;">Jason.1</text><g class="layers" style="opacity: 1;"><g class="legendfill"/><g class="legendlines"><path class="js-line" d="M5,0h30" style="fill: none; stroke: rgb(99, 110, 250); stroke-opacity: 1; stroke-width: 2px;"/></g><g class="legendsymbols"><g class="legendpoints"/></g></g><rect class="legendtoggle" x="0" y="-9.5" width="133.84375" height="19" style="fill: rgb(0, 0, 0); fill-opacity: 0;"/></g><g class="traces" transform="translate(0,33.5)" style="opacity: 1;"><text class="legendtext" text-anchor="start" x="40" y="4.680000000000001" style="font-family: 'Open Sans', verdana, arial, sans-serif; font-size: 12px; fill: rgb(42, 63, 95); fill-opacity: 1; white-space: pre;">Jason.2</text><g class="layers" style="opacity: 1;"><g class="legendfill"/><g class="legendlines"><path class="js-line" d="M5,0h30" style="fill: none; stroke: rgb(239, 85, 59); stroke-opacity: 1; stroke-width: 2px;"/></g><g class="legendsymbols"><g class="legendpoints"/></g></g><rect class="legendtoggle" x="0" y="-9.5" width="133.84375" height="19" style="fill: rgb(0, 0, 0); fill-opacity: 0;"/></g><g class="traces" transform="translate(0,52.5)" style="opacity: 1;"><text class="legendtext" text-anchor="start" x="40" y="4.680000000000001" style="font-family: 'Open Sans', verdana, arial, sans-serif; font-size: 12px; fill: rgb(42, 63, 95); fill-opacity: 1; white-space: pre;">Jason.3</text><g class="layers" style="opacity: 1;"><g class="legendfill"/><g class="legendlines"><path class="js-line" d="M5,0h30" style="fill: none; stroke: rgb(0, 204, 150); stroke-opacity: 1; stroke-width: 2px;"/></g><g class="legendsymbols"><g class="legendpoints"/></g></g><rect class="legendtoggle" x="0" y="-9.5" width="133.84375" height="19" style="fill: rgb(0, 0, 0); fill-opacity: 0;"/></g><g class="traces" transform="translate(0,71.5)" style="opacity: 1;"><text class="legendtext" text-anchor="start" x="40" y="4.680000000000001" style="font-family: 'Open Sans', verdana, arial, sans-serif; font-size: 12px; fill: rgb(42, 63, 95); fill-opacity: 1; white-space: pre;">Sentinel-6MF</text><g class="layers" style="opacity: 1;"><g class="legendfill"/><g class="legendlines"><path class="js-line" d="M5,0h30" style="fill: none; stroke: rgb(171, 99, 250); stroke-opacity: 1; stroke-width: 2px;"/></g><g class="legendsymbols"><g class="legendpoints"/></g></g><rect class="legendtoggle" x="0" y="-9.5" width="133.84375" height="19" style="fill: rgb(0, 0, 0); fill-opacity: 0;"/></g><g class="traces" transform="translate(0,90.5)" style="opacity: 1;"><text class="legendtext" text-anchor="start" x="40" y="4.680000000000001" style="font-family: 'Open Sans', verdana, arial, sans-serif; font-size: 12px; fill: rgb(42, 63, 95); fill-opacity: 1; white-space: pre;">TOPEX.Poseidon</text><g class="layers" style="opacity: 1;"><g class="legendfill"/><g class="legendlines"><path class="js-line" d="M5,0h30" style="fill: none; stroke: rgb(255, 161, 90); stroke-opacity: 1; stroke-width: 2px;"/></g><g class="legendsymbols"><g class="legendpoints"/></g></g><rect class="legendtoggle" x="0" y="-9.5" width="133.84375" height="19" style="fill: rgb(0, 0, 0); fill-opacity: 0;"/></g></g></g><rect class="scrollbar" rx="20" ry="3" width="0" height="0" x="0" y="0" style="fill: rgb(128, 139, 164); fill-opacity: 1;"/></g><g class="g-gtitle"><text class="gtitle" x="35" y="50" text-anchor="start" dy="0em" style="font-family: 'Open Sans', verdana, arial, sans-serif; font-size: 17px; fill: rgb(42, 63, 95); opacity: 1; font-weight: normal; white-space: pre;">Mean Sea Levels Changing - Bay Bengal</text></g><g class="g-xtitle"><text class="xtitle" x="310" y="460.3" text-anchor="middle" style="font-family: 'Open Sans', verdana, arial, sans-serif; font-size: 14px; fill: rgb(42, 63, 95); opacity: 1; font-weight: normal; white-space: pre;">Date</text></g><g class="g-ytitle"><text class="ytitle" transform="rotate(-90,27.668750000000003,260)" x="27.668750000000003" y="260" text-anchor="middle" style="font-family: 'Open Sans', verdana, arial, sans-serif; font-size: 14px; fill: rgb(42, 63, 95); opacity: 1; font-weight: normal; white-space: pre;">Change in Sea Level [mm]</text></g></g></svg>