<svg class="main-svg" xmlns="http://www.w3.org/2000/svg" xmlns:xlink="http://www.w3.org/1999/xlink" width="700" height="500" style="" viewBox="0 0 700 500"><rect x="0" y="0" width="700" height="500" style="fill: rgb(255, 255, 255); fill-opacity: 1;"/><defs id="defs-64d6a3"><g class="clips"><clipPath id="clip64d6a3xyplot" class="plotclip"><rect width="460" height="320"/></clipPath><clipPath class="axesclip" id="clip64d6a3x"><rect x="80" y="0" width="460" height="500"/></clipPath><clipPath class="axesclip" id="clip64d6a3y"><rect x="0" y="100" width="700" height="320"/></clipPath><clipPath class="axesclip" id="clip64d6a3xy"><rect x="80" y="100" width="460" height="320"/></clipPath></g><g class="gradients"/><g class="patterns"/></defs><g class="bglayer"><rect class="bg" x="80" y="100" width="460" height="320" style="fill: rgb(229, 236, 246); fill-opacity: 1; stroke-width: 0;"/></g><g class="layer-below"><g class="imagelayer"/><g class="shapelayer"/></g><g class="cartesianlayer"><g class="subplot xy"><g class="layer-subplot"><g class="shapelayer"/><g class="imagelayer"/></g><g class="minor-gridlayer"><g class="x"/><g class="y"/></g><g class="gridlayer"><g class="x"><path class="xgrid crisp" transform="translate(110.09,0)" d="M0,100v320" style="stroke: rgb(255, 255, 255); stroke-opacity: 1; stroke-width: 1px;"/><path class="xgrid crisp" transform="translate(183.82999999999998,0)" d="M0,100v320" style="stroke: rgb(255, 255, 255); stroke-opacity: 1; stroke-width: 1px;"/><path class="xgrid crisp" transform="translate(257.62,0)" d="M0,100v320" style="stroke: rgb(255, 255, 255); stroke-opacity: 1; stroke-width: 1px;"/><path class="xgrid crisp" transform="translate(331.36,0)" d="M0,100v320" style="stroke: rgb(255, 255, 255); stroke-opacity: 1; stroke-width: 1px;"/><path class="xgrid crisp" transform="translate(405.11,0)" d="M0,100v320" style="stroke: rgb(255, 255, 255); stroke-opacity: 1; stroke-width: 1px;"/><path class="xgrid crisp" transform="translate(478.86,0)" d="M0,100v320" style="stroke: rgb(255, 255, 255); stroke-opacity: 1; stroke-width: 1px;"/></g><g class="y"><path class="ygrid crisp" transform="translate(0,396.11)" d="M80,0h460" style="stroke: rgb(255, 255, 255); stroke-opacity: 1; stroke-width: 1px;"/><path class="ygrid crisp" transform="translate(0,352.95)" d="M80,0h460" style="stroke: rgb(255, 255, 255); stroke-opacity: 1; stroke-width: 1px;"/><path class="ygrid crisp" transform="translate(0,309.8)" d="M80,0h460" style="stroke: rgb(255, 255, 255); stroke-opacity: 1; stroke-width: 1px;"/><path class="ygrid crisp" transform="translate(0,223.49)" d="M80,0h460" style="stroke: rgb(255, 255, 255); stroke-opacity: 1; stroke-width: 1px;"/><path class="ygrid crisp" transform="translate(0,180.34)" d="M80,0h460" style="stroke: rgb(255, 255, 255); stroke-opacity: 1; stroke-width: 1px;"/><path class="ygrid crisp" transform="translate(0,137.18)" d="M80,0h460" style="stroke: rgb(255, 255, 255); stroke-opacity: 1; stroke-width: 1px;"/></g></g><g class="zerolinelayer"><path class="yzl zl crisp" transform="translate(0,266.65)" d="M80,0h460" style="stroke: rgb(255, 255, 255); stroke-opacity: 1; stroke-width: 2px;"/></g><g class="layer-between"><g class="shapelayer"/><g class="imagelayer"/></g><path class="xlines-below"/><path class="ylines-below"/><g class="overlines-below"/><g class="xaxislayer-below"/><g class="yaxislayer-below"/><g class="overaxes-below"/><g class="plot" transform="translate(80,100)" clip-path="url(#clip64d6a3xyplot)"><g class="scatterlayer mlayer"><g class="trace scatter traceffbb1a" style="stroke-miterlimit: 2; opacity: 1;"><g class="fills"/><g class="errorbars"/><g class="lines"><path class="js-line" d="M134.12,141.59L134.93,116.69L135.33,155.23L136.55,187.55L136.95,177.54L137.35,181.16L137.76,168L138.93,194.07L139.33,193.85L139.74,194.02L140.14,153.33L140.95,180.64L141.35,160.23L142.16,176.16L142.56,149.19L144.14,99.82L144.54,131.45L144.95,178.01L145.35,139.69L145.75,155.83L146.52,197.17L146.97,191.86L147.33,164.85L147.73,181.46L148.14,144.05L148.54,82.21L148.94,153.29L149.35,188.97L149.75,162.05L150.16,164.2L150.56,198.25L150.92,140.51L152.54,191.09L152.94,184.4L153.35,186.25L153.75,195.27L154.96,146.98L155.37,168.43L155.73,146.25L156.13,163.86L156.54,158.59L157.35,115.78L157.75,119.15L158.15,134.08L159.36,93.04L159.77,127.39L160.17,146.77L160.54,133.91L160.94,136.54L161.5,201.1L161.75,137.58L162.15,69.22L162.55,144.44L162.96,203.43L163.36,161.96L163.73,170.89L164.49,127.39L165.02,160.15L166.55,215.17L166.96,201.79L167.36,194.93L167.76,235.84L168.57,154.19L168.98,174.34L169.38,167.14L169.78,178.49L170.19,162.61L170.59,174.34L171,162.87L171.8,168.73L172.17,161.01L173.38,99L173.78,107.41L174.19,154.97L174.59,177.19L174.99,155.57L175.8,104.09L176.21,127.7L176.61,106.51L177.01,112.68L177.42,134.04L177.82,85.84L178.18,102.84L178.59,132.23L179.8,217.41L180.2,223.28L180.61,186.43L181.01,193.12L181.42,196.14L182.22,206.58L182.63,178.62L183.39,203.21L183.8,195.71L184.2,182.89L185.41,156.82L185.82,156.13L186.22,168.91L186.63,139.17L186.99,139.86L187.39,128.69L187.8,130.54L188.12,107.71L189.01,126.27L189.41,147.55L190.22,94.98L190.58,105.04L191.03,195.45L191.79,99.47L192.2,138.57L193.01,170.16L193.41,155.36L193.81,140.25L194.22,192.3L194.62,195.14L195.03,222.42L196.2,172.96L196.6,185.48L197,192.3L197.81,209.99L198.22,173.18L198.62,170.16L199.02,171.37L199.43,170.07L199.83,167.05L200.19,149.36L200.6,150.05L201,158.51L201.41,170.16L201.81,162.99L202.21,123.42L202.62,130.2L203.02,129.38L203.43,114.49L203.79,113.76L204.19,158.9L204.48,104.48L205.45,132.4L206.62,94.6L207.02,115.83L207.42,106.81L207.83,116.52L208.64,169.99L209,190.66L209.4,206.19L209.81,123.38L210.61,189.28L211.02,169.34L211.42,169.77L211.83,184.66L212.23,191.43L212.59,174.56L213.04,182.07L213.4,168.26L213.81,189.58L214.21,170.55L214.61,173.57L215.02,167.87L215.82,140.51L216.23,171.02L217.04,116.17L217.4,119.28L217.8,120.7L218.21,117.6L218.61,100.16L219.01,102.45L219.42,97.14L219.82,105.95L220.23,167.87L221.44,111.86L221.8,167.66L222.21,201.62L222.61,117.64L223.01,116.48L223.42,135.76L224.22,92.01L224.63,176.67L225.84,230.96L226.24,199.42L227.42,180.3L227.82,194.07L228.26,168.95L228.63,174.86L229.03,178.53L229.43,181.16L229.84,153.24L230.57,173.14L231.45,164.38L231.86,177.71L232.26,165.28L233.47,100.85L233.88,92.78L234.24,155.05L234.68,125.32L235.05,131.92L235.45,191L235.86,180.69L236.26,132.83L236.66,144.87L237.07,141.42L237.47,196.87L238.48,163.9L238.88,173.57L239.29,193.07L239.65,163.9L240.06,203.95L240.5,202.14L240.86,194.97L241.31,211.15L241.67,181.68L242.08,192.77L242.48,167.14L242.88,178.49L243.29,167.01L243.69,162.17L244.09,147.33L244.86,171.97L245.27,146.86L245.67,149.1L246.07,147.29L246.48,141.12L247.69,86.14L248.09,114.53L249.26,185.31L249.67,125.49L250.07,141.89L250.48,126.62L250.88,191.78L251.28,173.78L251.69,184.96L252.09,186.77L252.5,170.2L253.3,239.25L253.67,199.85L254.11,152.64L254.47,159.28L254.88,203.9L255.69,192.3L256.09,177.19L256.49,194.71L256.86,184.74L257.3,187.89L257.66,184.96L258.11,174.39L258.47,176.03L258.88,156.82L260.09,177.84L260.49,158.12L260.9,134.94L261.3,152.38L261.7,133.18L262.11,125.36L262.51,156.05L263.28,101.07L263.68,118.81L264.89,195.79L265.3,128.64L265.7,178.14L266.11,149.06L266.51,161.96L266.87,134.04L267.32,142.28L267.68,159.24L268.08,230.79L268.49,167.35L268.89,187.46L269.3,174.78L269.7,170.07L270.1,139.3L270.51,188.71L271.68,161.66L272.08,168.17L272.49,173.48L272.89,167.87L273.29,160.84L273.7,185.56L274.1,181.81L274.51,161.96L275.68,142.41L276.08,150.91L277.29,87.17L277.7,109.35L278.1,139.65L278.5,108.92L278.91,125.41L279.31,76.69L279.68,84.54L280.12,135.2L280.48,103.1L280.89,113.93L281.29,104.82L282.06,195.36L282.46,166.06L282.7,150.44L283.35,168.69L286.22,173.83L286.66,164.76L287.11,175.12L288.12,203.86L288.6,193.81L290.05,148.37L290.5,130.41L290.98,115.09L291.39,127.39L291.71,194.02L291.99,130.5L292.44,146.94L292.88,140.17L293.2,157.13L293.93,131.19L294.38,174.6L295.1,194.58L295.43,170.94L295.87,111.43L296.31,200.19L297.04,152.98L297.32,225.09L297.77,162.87L298.82,232.39L299.26,165.63L299.67,182.8L300.15,164.55L301.16,212.02L301.6,177.75L302.33,183.45L302.49,199.63" style="vector-effect: none; fill: none; stroke: rgb(99, 110, 250); stroke-opacity: 1; stroke-width: 2px; opacity: 1;"/></g><g class="points"/><g class="text"/></g><g class="trace scatter trace906c8f" style="stroke-miterlimit: 2; opacity: 1;"><g class="fills"/><g class="errorbars"/><g class="lines"><path class="js-line" d="M229.43,191.02L230.2,163.45L230.61,175.75L231.41,166.04L231.82,173.63L232.22,169.01L232.63,121.33L233.03,132.98L233.43,99.32L233.84,96.86L234.24,152.01L235.05,124.44L235.45,192.19L235.82,192.23L236.22,135.92L236.66,147.96L237.03,132.55L237.83,213.89L238.24,205.18L238.64,154.08L239.05,202.24L239.85,177.82L240.26,203.41L240.66,196.72L241.03,201.94L241.43,205.74L241.83,170.31L242.24,200.86L242.64,159.87L243.04,172.29L243.45,156.85L243.85,164.7L244.26,150.29L244.66,176.05L245.02,160.86L245.43,144.68L245.83,158.01L246.24,152.4L246.64,130.35L247.04,121.5L247.45,91.42L248.25,118.27L248.66,180.67L249.06,196.03L249.47,173.37L249.83,119.65L250.23,148.26L250.64,136.61L251.04,192.75L251.45,168.63L251.85,191.2L252.66,179.93L253.06,188.61L253.46,227.01L253.87,155.94L254.23,139.28L254.64,179.98L255.04,211.87L255.44,177.3L255.85,176.87L256.25,180.19L256.65,195.42L257.06,176.61L257.46,178.64L257.87,169.14L258.27,151.97L258.67,158.23L259.04,164.87L259.44,185.93L259.85,177.82L260.25,173.16L261.06,125.95L261.46,160.3L261.86,121.76L262.27,155.21L263.44,102.69L263.84,145.02L264.25,156.33L264.65,190.38L265.46,138.38L265.86,163.97L266.27,163.32L266.67,153.95L267.48,136.3L267.84,203.62L268.25,207.77L268.65,168.24L269.05,201.55L269.46,169.66L269.86,169.01L270.27,154.04L271.07,181.1L271.48,166.56L271.84,164.83L272.24,168.19L272.65,177.3L273.05,157.49L273.46,159.91L273.86,185.59L275.07,154.73L275.47,147.09L275.88,151.58L276.24,146.49L277.45,95.52L277.86,119.73L278.26,146.27L278.67,115.94L279.07,113.61L279.47,88.62L280.28,133.84L280.68,107.69L281.05,103.81L281.45,109.16L281.86,200.22L282.26,186.41L282.66,162.11L283.07,154.08L283.47,166.08L283.88,154.39L284.28,154.47L284.68,182.95L285.49,233.62L285.89,203.15L286.3,160.51L286.66,168.67L287.07,176.7L288.28,203.88L288.68,177.08L289.09,155.85L289.49,172.68L289.89,159L291.1,113.13L291.51,140.92L291.91,148.78L292.28,132.9L292.72,146.7L293.08,138.59L293.49,121.03L295.1,196.59L295.51,154.77L295.91,117.27L296.31,197.15L296.72,168.07L297.12,170.22L297.53,204.49L297.93,142.13L298.29,223.65L298.7,247.73L299.1,194.52L299.59,189.38L299.91,165.65L301.12,208.33L301.52,190.85L301.93,177.82L302.33,188.39L302.74,178.47L303.5,140.36L303.91,160.13L305.48,123.31L306.01,147.09L306.33,140.62L306.69,159.61L307.1,122.71L307.5,147.14L307.91,120.77L308.31,108.51L308.71,132.16L309.52,60.05L309.92,122.24L311.1,243.93L311.5,304L313.12,145.11L313.52,144.98L313.92,202.85L314.33,161.98L314.73,144.93L315.9,188.05L316.31,195.3L317.92,137.6L318.32,168.37L318.73,148.86L319.13,170.35L319.54,170.27L319.94,154.86L321.15,88.75L321.52,125.13L321.92,136.74L322.32,86.81L323.13,155.77L323.53,130.09L323.94,129.18L324.34,104.5L324.75,109.68L325.11,98.98L325.51,95.57L325.92,157.02L326.32,186.97L326.73,179.03L327.13,184.77L327.94,156.63L328.34,183.26L329.51,151.93L329.92,193.87L330.32,161.12L330.72,174.62L331.13,181.4L331.53,179.93L331.94,167.03L332.74,156.33L333.15,156.37L333.51,158.57L333.91,143.64L334.32,159.82L335.13,114.51L335.53,148.17L335.93,111.53L336.34,122.8L336.74,107.95L337.51,86.29L337.91,57.38L338.32,110.5L338.72,64.24L339.12,98.46L339.53,74.77L339.93,213.59L340.34,215.53L340.74,121.2L341.14,95.7L341.55,189.51L341.95,157.28L342.35,212.47L343.53,165.13L343.93,195.86L344.33,152.49L344.74,173.89L345.14,154.82L345.55,154.95L345.95,169.88L346.35,171.47L346.76,167.25L347.16,167.81L347.56,153L348.78,113.73L349.14,136.35L350.76,102.08L351.52,162.67L352.21,92.81L352.61,143.6L354.59,37.61L355,93.37L356.21,178.98L356.61,136.17L357.01,167.59L357.42,161.25L357.62,136.95L358.31,152.14L358.63,140.92L359.03,143.25L359.4,171.78L360.08,146.19" style="vector-effect: none; fill: none; stroke: rgb(239, 85, 59); stroke-opacity: 1; stroke-width: 2px; opacity: 1;"/></g><g class="points"/><g class="text"/></g><g class="trace scatter trace02f31e" style="stroke-miterlimit: 2; opacity: 1;"><g class="fills"/><g class="errorbars"/><g class="lines"><path class="js-line" d="M341.63,187.58L341.95,161L342.35,216.54L343.16,174.03L343.57,175.24L343.97,192.2L344.37,146.97L344.78,169.46L345.18,158.19L345.59,153.4L345.99,169.2L346.39,171.7L346.8,164.28L347.16,163.97L347.6,140.24L347.97,138.38L348.37,138.99L348.78,109.99L349.18,130.4L349.58,110.9L350.8,90.83L351.2,116.33L351.6,146.63L352.01,79.09L352.41,134.46L352.81,126.82L353.22,108.69L354.39,16L354.79,81.29L356.01,176.58L356.41,169.46L356.81,139.46L357.22,185.38L357.62,134.5L357.98,158.15L358.43,137.43L358.79,134.46L359.2,151.63L359.6,172.26L360,155L360.41,151.42L360.81,157.42L361.22,145.72L362.43,133.98L362.79,152.97L364.41,117.8L364.81,129.88L365.62,101.7L366.02,82.97L366.42,116.72L366.83,71.63L369.62,159.44L370.02,153.83L370.42,144.77L370.83,172.95L371.59,186.89L372,229.48L372.4,190.08L372.81,197.33L373.21,203.11L374.83,156.21L375.23,171.74L376.4,145.81L376.8,153.14L377.21,142.18L377.61,156.08L378.02,133.9L378.42,135.15L378.82,131.82L379.63,110.94L380.04,72.23L380.44,73.7L380.8,86.12L381.21,72.49L381.61,128.89L382.01,129.45L382.42,120.3L382.82,125.7L383.23,103.52L383.63,162.29L384.03,75.21L384.44,78.53L384.84,148.44L385.2,201.39L385.61,166.56L386.01,109.73L386.86,141.62L387.22,128.42L387.63,143.04L387.91,192.5L388.4,150.73L388.84,159.14L389.24,160.91L389.61,160.87L390.01,166.74L390.82,179.73L391.22,143.95L391.63,124.49L392.03,136.23L392.43,139.51L392.84,157.33L393.24,143.39L393.6,108.87L394.01,119.78L394.41,85.43L394.82,121.17L395.22,109.86L395.62,118.27L396.03,87.51L396.43,142.79L396.84,178.43L397.24,148.74L397.64,103.26L398.05,127.77L398.41,127.25L398.81,72.06L399.22,54.88L399.62,56.26L399.95,121.25L400.59,107.49L400.83,81.94L401.24,166.09L401.64,143.13L402.05,155.69L402.45,151.76L402.85,133.38L403.66,176.45L404.02,155.47L404.83,136.74L405.24,170.15L406.45,136.44L406.85,137.18L407.66,123.45L408.06,138.95L409.27,98.42L409.68,124.06L410.04,154.18L410.45,140.97L410.85,138.21L411.25,69.12L411.66,92.77L412.06,62.17L412.87,166.87L413.27,134.63L413.68,183.7L414.08,149.35L414.48,156.85L415.25,181.93L415.66,99.59L416.06,106.19L416.46,153.49L417.27,133.12L417.68,117.15L419.29,189.61L419.69,179.81L420.1,143.13L420.46,136.23L420.87,152.28L421.27,157.59L421.67,133.64L422.08,152.71L422.48,145.29L422.88,124.01L423.29,122.16L423.65,127.85L425.27,85.52L425.67,89.84L426.08,90.66L426.48,79.26L426.88,102.83L427.29,187.06L428.5,95.14L428.86,81.08L429.27,60.36L429.67,61.14L430.07,112.92L431.29,160.61L431.69,154.39L432.09,169.33L433.06,177.14L433.39,158.75L433.75,154.65L434.15,134.76L434.56,143.95L434.96,117.58L435.36,141.84L435.77,133.16L436.17,123.32L436.58,132.43L436.98,113.14L437.38,116.72L437.75,130.62L438.15,140.07L438.55,120.22L439.77,68L440.17,106.67L440.98,72.45L441.38,140.63L441.79,103.56L442.15,126.65L442.55,102.74L443.36,90.7L443.76,141.58L444.57,81.29L444.98,95.49L445.38,120.09L446.19,150.04L446.59,141.84L447.36,163.63L447.76,144.99L448.17,166.65L448.57,144.51L448.97,143.09L449.38,131.48L449.78,134.37L450.19,113.31L450.95,141.06L451.36,135.62L451.76,118.66L452.17,108.87L452.57,119.7L454.59,54.15L454.99,145.16L456.16,99.8L456.57,125.52L456.97,121.68L457.37,48.19L457.78,160.48L458.18,120.69L458.59,79.26L458.99,43.32L459.39,113.53L459.8,136.23L460,107.53" style="vector-effect: none; fill: none; stroke: rgb(0, 204, 150); stroke-opacity: 1; stroke-width: 2px; opacity: 1;"/></g><g class="points"/><g class="text"/></g><g class="trace scatter trace36d45d" style="stroke-miterlimit: 2; opacity: 1;"><g class="fills"/><g class="errorbars"/><g class="lines"><path class="js-line" d="M413.27,132.12L413.68,183.69L414.08,147.83L414.48,153.91L415.29,178.25L415.7,96.99L416.06,101.22L416.46,151.8L417.27,129.27L417.68,116.76L419.29,189.73L419.69,180.11L420.1,150.46L420.46,134.71L420.87,152.66L421.27,159.31L421.67,137.81L422.08,151.15L422.48,151.11L422.88,123.06L423.29,120.77L423.69,127.8L424.46,93.93L424.9,106.44L425.27,84.09L425.67,84.91L426.08,91.81L426.48,73.3L426.88,103.81L427.29,185.37L427.69,115.94L428.09,121.16L429.67,61.48L430.07,113L432.09,166.56L432.5,154.99L432.9,168.28L433.26,166.86L433.67,148.56L434.48,141.57L434.88,121.68L435.69,141.96L436.09,116.58L436.5,132.38L436.9,121.98L437.26,122.37L438.47,137.43L438.88,68.81L439.28,112.22L439.69,75.24L440.09,108L440.49,76.58L440.9,71.01L441.3,110.89L442.11,116.07L442.47,124.39L443.28,95.31L443.68,133.72L444.49,73.39L444.9,95.87L446.07,154.04L446.47,149.68L446.87,151.06L447.28,183.3L447.68,155.81L448.09,154.99L449.3,133.37L449.7,145.67L450.51,121.16L450.91,140.96L452.08,112.4L452.49,118.4L453.3,93.93L453.7,108.34L454.51,49.82L454.91,117.66L455.27,137.04L455.68,98.8L456.89,138.16" style="vector-effect: none; fill: none; stroke: rgb(171, 99, 250); stroke-opacity: 1; stroke-width: 2px; opacity: 1;"/></g><g class="points"/><g class="text"/></g><g class="trace scatter trace4cb8e2" style="stroke-miterlimit: 2; opacity: 1;"><g class="fills"/><g class="errorbars"/><g class="lines"><path class="js-line" d="M0,146.95L0.4,145.09L0.77,126.54L1.17,55.16L1.53,104.92L2.02,138.66L2.79,158.6L3.19,216.95L3.59,141.73L4,169.86L4.81,229.94L5.21,210.69L5.61,214.23L6.02,231.45L6.78,198.82L7.19,199.47L8,173.53L8.4,194.68L10.02,157.91L10.38,158.43L10.78,184.67L11.19,161.75L11.59,202.79L11.99,208.32L12.4,125.11L13.21,150.62L13.61,126.02L14.78,192.39L15.19,201.67L15.59,229.03L15.99,166.84L16.4,141.64L16.8,235.03L17.57,218.41L18.01,168.31L18.82,194.07L19.18,229.98L19.59,230.37L19.99,221L21.2,174.66L21.61,180.48L22.01,175.6L22.82,179.4L23.22,191.36L23.63,184.02L23.99,173.06L24.39,154.29L24.8,175.43L26.01,157.39L26.41,121.75L26.82,120.97L27.22,194.12L27.58,186.91L28.43,96.2L28.8,111.82L29.2,95.68L30.81,196.02L31.18,177.55L31.62,146.04L32.03,168.27L32.39,179.75L33.2,165.38L33.6,135.82L34.81,222.86L35.62,192.22L36.02,189.11L36.39,214.36L37.2,173.62L38,172.02L39.22,160.54L39.62,147.9L40.02,184.24L40.43,182.51L40.83,127.83L41.23,134.35L41.64,109.88L42.41,90.51L42.81,145.05L44.02,152.56L44.42,167.23L44.79,173.49L45.23,167.49L46.4,260.44L47.21,189.8L47.62,243.79L48.02,236.32L48.42,179.79L48.83,186.65L49.23,225.62L50.04,193.9L50.44,211.12L51.25,168.87L52.06,192.78L52.42,187.3L52.87,160.54L53.63,191.01L54.04,188.03L54.44,176.77L55.25,157.83L55.65,160.37L56.06,132.19L56.82,142.81L57.27,124.86L57.67,139.53L58.48,176.34L58.84,165.25L60.05,146.43L60.46,127.75L60.86,124.94L61.67,143.02L62.07,117.48L62.48,155.97L62.84,197.18L63.29,154.07L63.65,159.08L64.05,178.63L64.86,237.79L65.26,204.39L65.67,170.94L66.48,192.95L66.88,217.81L67.28,194.55L68.86,158.04L69.26,159.16L69.67,111.09L70.07,111.26L70.47,114.54L71.28,119.2L71.69,104.44L72.45,200.25L72.86,188.21L73.26,157.26L73.66,156.88L74.07,165.2L74.47,156.83L74.88,124.55L75.68,144.58L76.09,116.53L76.49,106.08L76.86,160.63L77.26,165.33L77.66,180.44L78.47,242.19L78.87,220.66L79.68,193.6L80.45,198.61L80.89,201.5L81.26,186.65L82.06,163.65L82.47,172.02L83.28,162.87L83.68,141.12L84.49,169.48L84.89,141.9L85.26,180.35L85.66,147.34L86.47,119.37L87.68,159.98L88.08,150.92L88.49,89.12L89.29,173.06L89.7,162.79L90.47,130.34L90.91,138.15L91.27,160.93L91.68,245.73L92.08,195.37L92.48,195.54L92.89,188.12L93.29,222.17L94.87,185.44L95.27,203.22L96.08,185.62L96.48,189.67L97.29,157.87L97.65,175.99L98.1,179.57L98.46,160.89L99.27,137.46L99.67,157.65L100.48,113.76L100.88,168.92L101.29,101.85L101.69,103.58L102.1,138.19L102.46,120.28L103.27,160.37L103.71,163.52L104.08,127.36L104.48,148.98L104.88,143.41L105.29,118.3L106.09,160.24L106.5,144.92L106.9,155.75L107.31,209.87L108.11,233.04L108.52,215.78L109.29,181.56L109.69,184.11L110.09,191.4L110.5,171.12L110.9,175.86L111.3,179.75L111.71,180.44L112.52,172.89L113.32,167.75L113.73,161.02L114.09,156.7L114.54,185.1L114.94,165.29L115.34,205.86L115.71,135.34L116.51,209.95L117.32,157.78L117.73,120.71L118.53,169.17L118.94,137.76L120.15,215.09L120.55,124.86L120.92,198.91L121.32,179.32L121.72,192.13L122.13,220.74L122.53,191.18L123.34,232.22L123.74,201.76L124.15,200.89L124.55,178.63L125.32,196.32L125.72,189.76L126.13,198.99L126.53,191.49L126.93,178.28L128.55,127.19L128.91,138.75L129.36,149.54L129.76,133.18L130.53,119.94L130.93,66.73L132.14,135.99L132.71,118.6L133.36,135.21L133.72,107.46L134.12,143.67L134.53,124.38L134.93,122.78L135.74,161.49L136.14,160.16L136.55,183.46L136.95,175.65L137.35,183.2L137.76,175.73L138.12,187.3L138.53,201.11L138.93,192.09L139.33,193.25L139.74,198.56L140.14,157.91L140.54,174.66L141.35,160.24L142.16,178.41L142.56,152.22L144.14,98.83L144.54,135.95L144.95,174.44L145.35,133.44L146.6,188.42L146.97,183.24L148.14,141.99L148.58,92.19L149.35,187.77L149.75,166.54L150.16,167.36L150.56,193.08L150.96,144.02L151.37,149.06L151.77,142.59L152.58,188.59L152.98,173.32L153.75,193.43L154.15,189.76L154.56,153.81L154.96,148.12L155.37,150.32L156.17,164.86L156.66,157.18L156.98,139.4L157.79,116.57L158.15,134.39L159.36,101.34L159.77,131.8L160.17,148.68L160.58,130.72L160.98,133.87L161.5,202.01L162.15,80.11L162.55,147.86L162.96,199.9L163.36,163.78L163.77,170.21L164.57,138.1L164.94,157.31L165.38,183.85L165.79,162.14L166.59,228.51L167,214.1L167.36,200.42L167.76,232.65L168.17,186.87L168.57,154.11L169.78,173.92L170.19,176.94L170.55,171.12L170.96,159.9L171.36,162.57L171.76,165.89L173.01,136.08L173.38,97.5L173.78,107.59L174.19,158.64L174.59,179.32L174.99,158.95L175.8,106.56L176.21,130.16L176.61,114.58L176.93,114.71L177.42,138.45L177.82,96.72L178.22,100.13L178.63,134.09L179.8,223.29L180.24,215.65L181.01,190.62L181.42,195.76L182.18,215.09L182.63,175L183.43,209.61L183.84,196.79L184.2,187.9L185.78,159.34L186.22,171.03L186.58,142.59L186.99,152.22L187.39,140.09L188.2,115.19L188.6,103.15" style="vector-effect: none; fill: none; stroke: rgb(255, 161, 90); stroke-opacity: 1; stroke-width: 2px; opacity: 1;"/></g><g class="points"/><g class="text"/></g></g></g><g class="overplot"/><path class="xlines-above crisp" d="M0,0" style="fill: none;"/><path class="ylines-above crisp" d="M0,0" style="fill: none;"/><g class="overlines-above"/><g class="xaxislayer-above"><g class="xtick"><text text-anchor="middle" x="0" y="433" transform="translate(110.09,0)" style="font-family: 'Open Sans', verdana, arial, sans-serif; font-size: 12px; fill: rgb(42, 63, 95); fill-opacity: 1; white-space: pre; opacity: 1;">1995</text></g><g class="xtick"><text text-anchor="middle" x="0" y="433" style="font-family: 'Open Sans', verdana, arial, sans-serif; font-size: 12px; fill: rgb(42, 63, 95); fill-opacity: 1; white-space: pre; opacity: 1;" transform="translate(183.82999999999998,0)">2000</text></g><g class="xtick"><text text-anchor="middle" x="0" y="433" style="font-family: 'Open Sans', verdana, arial, sans-serif; font-size: 12px; fill: rgb(42, 63, 95); fill-opacity: 1; white-space: pre; opacity: 1;" transform="translate(257.62,0)">2005</text></g><g class="xtick"><text text-anchor="middle" x="0" y="433" style="font-family: 'Open Sans', verdana, arial, sans-serif; font-size: 12px; fill: rgb(42, 63, 95); fill-opacity: 1; white-space: pre; opacity: 1;" transform="translate(331.36,0)">2010</text></g><g class="xtick"><text text-anchor="middle" x="0" y="433" style="font-family: 'Open Sans', verdana, arial, sans-serif; font-size: 12px; fill: rgb(42, 63, 95); fill-opacity: 1; white-space: pre; opacity: 1;" transform="translate(405.11,0)">2015</text></g><g class="xtick"><text text-anchor="middle" x="0" y="433" style="font-family: 'Open Sans', verdana, arial, sans-serif; font-size: 12px; fill: rgb(42, 63, 95); fill-opacity: 1; white-space: pre; opacity: 1;" transform="translate(478.86,0)">2020</text></g></g><g class="yaxislayer-above"><g class="ytick"><text text-anchor="end" x="79" y="4.199999999999999" transform="translate(0,396.11)" style="font-family: 'Open Sans', verdana, arial, sans-serif; font-size: 12px; fill: rgb(42, 63, 95); fill-opacity: 1; white-space: pre; opacity: 1;">−300</text></g><g class="ytick"><text text-anchor="end" x="79" y="4.199999999999999" style="font-family: 'Open Sans', verdana, arial, sans-serif; font-size: 12px; fill: rgb(42, 63, 95); fill-opacity: 1; white-space: pre; opacity: 1;" transform="translate(0,352.95)">−200</text></g><g class="ytick"><text text-anchor="end" x="79" y="4.199999999999999" style="font-family: 'Open Sans', verdana, arial, sans-serif; font-size: 12px; fill: rgb(42, 63, 95); fill-opacity: 1; white-space: pre; opacity: 1;" transform="translate(0,309.8)">−100</text></g><g class="ytick"><text text-anchor="end" x="79" y="4.199999999999999" style="font-family: 'Open Sans', verdana, arial, sans-serif; font-size: 12px; fill: rgb(42, 63, 95); fill-opacity: 1; white-space: pre; opacity: 1;" transform="translate(0,266.65)">0</text></g><g class="ytick"><text text-anchor="end" x="79" y="4.199999999999999" style="font-family: 'Open Sans', verdana, arial, sans-serif; font-size: 12px; fill: rgb(42, 63, 95); fill-opacity: 1; white-space: pre; opacity: 1;" transform="translate(0,223.49)">100</text></g><g class="ytick"><text text-anchor="end" x="79" y="4.199999999999999" style="font-family: 'Open Sans', verdana, arial, sans-serif; font-size: 12px; fill: rgb(42, 63, 95); fill-opacity: 1; white-space: pre; opacity: 1;" transform="translate(0,180.34)">200</text></g><g class="ytick"><text text-anchor="end" x="79" y="4.199999999999999" style="font-family: 'Open Sans', verdana, arial, sans-serif; font-size: 12px; fill: rgb(42, 63, 95); fill-opacity: 1; white-space: pre; opacity: 1;" transform="translate(0,137.18)">300</text></g></g><g class="overaxes-above"/></g></g><g class="polarlayer"/><g class="smithlayer"/><g class="ternarylayer"/><g class="geolayer"/><g class="funnelarealayer"/><g class="pielayer"/><g class="iciclelayer"/><g class="treemaplayer"/><g class="sunburstlayer"/><g class="glimages"/><defs id="topdefs-64d6a3"><g class="clips"/><clipPath id="legend64d6a3"><rect width="139" height="105" x="0" y="0"/></clipPath></defs><g class="layer-above"><g class="imagelayer"/><g class="shapelayer"/></g><g class="infolayer"><g class="legend" pointer-events="all" transform="translate(549.2,100)"><rect class="bg" shape-rendering="crispEdges" width="139" height="105" x="0" y="0" style="stroke: rgb(68, 68, 68); stroke-opacity: 1; fill: rgb(255, 255, 255); fill-opacity: 1; stroke-width: 0px;"/><g class="scrollbox" transform="" clip-path="url(#legend64d6a3)"><g class="groups"><g class="traces" transform="translate(0,14.5)" style="opacity: 1;"><text class="legendtext" text-anchor="start" x="40" y="4.680000000000001" style="font-family: 'Open Sans', verdana, arial, sans-serif; font-size: 12px; fill: rgb(42, 63, 95); fill-opacity: 1; white-space: pre;">Jason.1</text><g class="layers" style="opacity: 1;"><g class="legendfill"/><g class="legendlines"><path class="js-line" d="M5,0h30" style="fill: none; stroke: rgb(99, 110, 250); stroke-opacity: 1; stroke-width: 2px;"/></g><g class="legendsymbols"><g class="legendpoints"/></g></g><rect class="legendtoggle" x="0" y="-9.5" width="133.84375" height="19" style="fill: rgb(0, 0, 0); fill-opacity: 0;"/></g><g class="traces" transform="translate(0,33.5)" style="opacity: 1;"><text class="legendtext" text-anchor="start" x="40" y="4.680000000000001" style="font-family: 'Open Sans', verdana, arial, sans-serif; font-size: 12px; fill: rgb(42, 63, 95); fill-opacity: 1; white-space: pre;">Jason.2</text><g class="layers" style="opacity: 1;"><g class="legendfill"/><g class="legendlines"><path class="js-line" d="M5,0h30" style="fill: none; stroke: rgb(239, 85, 59); stroke-opacity: 1; stroke-width: 2px;"/></g><g class="legendsymbols"><g class="legendpoints"/></g></g><rect class="legendtoggle" x="0" y="-9.5" width="133.84375" height="19" style="fill: rgb(0, 0, 0); fill-opacity: 0;"/></g><g class="traces" transform="translate(0,52.5)" style="opacity: 1;"><text class="legendtext" text-anchor="start" x="40" y="4.680000000000001" style="font-family: 'Open Sans', verdana, arial, sans-serif; font-size: 12px; fill: rgb(42, 63, 95); fill-opacity: 1; white-space: pre;">Jason.3</text><g class="layers" style="opacity: 1;"><g class="legendfill"/><g class="legendlines"><path class="js-line" d="M5,0h30" style="fill: none; stroke: rgb(0, 204, 150); stroke-opacity: 1; stroke-width: 2px;"/></g><g class="legendsymbols"><g class="legendpoints"/></g></g><rect class="legendtoggle" x="0" y="-9.5" width="133.84375" height="19" style="fill: rgb(0, 0, 0); fill-opacity: 0;"/></g><g class="traces" transform="translate(0,71.5)" style="opacity: 1;"><text class="legendtext" text-anchor="start" x="40" y="4.680000000000001" style="font-family: 'Open Sans', verdana, arial, sans-serif; font-size: 12px; fill: rgb(42, 63, 95); fill-opacity: 1; white-space: pre;">Sentinel-6MF</text><g class="layers" style="opacity: 1;"><g class="legendfill"/><g class="legendlines"><path class="js-line" d="M5,0h30" style="fill: none; stroke: rgb(171, 99, 250); stroke-opacity: 1; stroke-width: 2px;"/></g><g class="legendsymbols"><g class="legendpoints"/></g></g><rect class="legendtoggle" x="0" y="-9.5" width="133.84375" height="19" style="fill: rgb(0, 0, 0); fill-opacity: 0;"/></g><g class="traces" transform="translate(0,90.5)" style="opacity: 1;"><text class="legendtext" text-anchor="start" x="40" y="4.680000000000001" style="font-family: 'Open Sans', verdana, arial, sans-serif; font-size: 12px; fill: rgb(42, 63, 95); fill-opacity: 1; white-space: pre;">TOPEX.Poseidon</text><g class="layers" style="opacity: 1;"><g class="legendfill"/><g class="legendlines"><path class="js-line" d="M5,0h30" style="fill: none; stroke: rgb(255, 161, 90); stroke-opacity: 1; stroke-width: 2px;"/></g><g class="legendsymbols"><g class="legendpoints"/></g></g><rect class="legendtoggle" x="0" y="-9.5" width="133.84375" height="19" style="fill: rgb(0, 0, 0); fill-opacity: 0;"/></g></g></g><rect class="scrollbar" rx="20" ry="3" width="0" height="0" x="0" y="0" style="fill: rgb(128, 139, 164); fill-opacity: 1;"/></g><g class="g-gtitle"><text class="gtitle" x="35" y="50" text-anchor="start" dy="0em" style="font-family: 'Open Sans', verdana, arial, sans-serif; font-size: 17px; fill: rgb(42, 63, 95); opacity: 1; font-weight: normal; white-space: pre;">Mean Sea Levels Changing - North Sea</text></g><g class="g-xtitle"><text class="xtitle" x="310" y="460.3" text-anchor="middle" style="font-family: 'Open Sans', verdana, arial, sans-serif; font-size: 14px; fill: rgb(42, 63, 95); opacity: 1; font-weight: normal; white-space: pre;">Date</text></g><g class="g-ytitle"><text class="ytitle" transform="rotate(-90,27.668750000000003,260)" x="27.668750000000003" y="260" text-anchor="middle" style="font-family: 'Open Sans', verdana, arial, sans-serif; font-size: 14px; fill: rgb(42, 63, 95); opacity: 1; font-weight: normal; white-space: pre;">Change in Sea Level [mm]</text></g></g></svg>