<svg class="main-svg" xmlns="http://www.w3.org/2000/svg" xmlns:xlink="http://www.w3.org/1999/xlink" width="700" height="500" style="" viewBox="0 0 700 500"><rect x="0" y="0" width="700" height="500" style="fill: rgb(255, 255, 255); fill-opacity: 1;"/><defs id="defs-528d23"><g class="clips"><clipPath id="clip528d23xyplot" class="plotclip"><rect width="460" height="320"/></clipPath><clipPath class="axesclip" id="clip528d23x"><rect x="80" y="0" width="460" height="500"/></clipPath><clipPath class="axesclip" id="clip528d23y"><rect x="0" y="100" width="700" height="320"/></clipPath><clipPath class="axesclip" id="clip528d23xy"><rect x="80" y="100" width="460" height="320"/></clipPath></g><g class="gradients"/><g class="patterns"/></defs><g class="bglayer"><rect class="bg" x="80" y="100" width="460" height="320" style="fill: rgb(229, 236, 246); fill-opacity: 1; stroke-width: 0;"/></g><g class="layer-below"><g class="imagelayer"/><g class="shapelayer"/></g><g class="cartesianlayer"><g class="subplot xy"><g class="layer-subplot"><g class="shapelayer"/><g class="imagelayer"/></g><g class="minor-gridlayer"><g class="x"/><g class="y"/></g><g class="gridlayer"><g class="x"><path class="xgrid crisp" transform="translate(110.05,0)" d="M0,100v320" style="stroke: rgb(255, 255, 255); stroke-opacity: 1; stroke-width: 1px;"/><path class="xgrid crisp" transform="translate(183.79000000000002,0)" d="M0,100v320" style="stroke: rgb(255, 255, 255); stroke-opacity: 1; stroke-width: 1px;"/><path class="xgrid crisp" transform="translate(257.58000000000004,0)" d="M0,100v320" style="stroke: rgb(255, 255, 255); stroke-opacity: 1; stroke-width: 1px;"/><path class="xgrid crisp" transform="translate(331.32,0)" d="M0,100v320" style="stroke: rgb(255, 255, 255); stroke-opacity: 1; stroke-width: 1px;"/><path class="xgrid crisp" transform="translate(405.07,0)" d="M0,100v320" style="stroke: rgb(255, 255, 255); stroke-opacity: 1; stroke-width: 1px;"/><path class="xgrid crisp" transform="translate(478.81,0)" d="M0,100v320" style="stroke: rgb(255, 255, 255); stroke-opacity: 1; stroke-width: 1px;"/></g><g class="y"><path class="ygrid crisp" transform="translate(0,367.09)" d="M80,0h460" style="stroke: rgb(255, 255, 255); stroke-opacity: 1; stroke-width: 1px;"/><path class="ygrid crisp" transform="translate(0,244.42)" d="M80,0h460" style="stroke: rgb(255, 255, 255); stroke-opacity: 1; stroke-width: 1px;"/><path class="ygrid crisp" transform="translate(0,183.09)" d="M80,0h460" style="stroke: rgb(255, 255, 255); stroke-opacity: 1; stroke-width: 1px;"/><path class="ygrid crisp" transform="translate(0,121.75)" d="M80,0h460" style="stroke: rgb(255, 255, 255); stroke-opacity: 1; stroke-width: 1px;"/></g></g><g class="zerolinelayer"><path class="yzl zl crisp" transform="translate(0,305.76)" d="M80,0h460" style="stroke: rgb(255, 255, 255); stroke-opacity: 1; stroke-width: 2px;"/></g><g class="layer-between"><g class="shapelayer"/><g class="imagelayer"/></g><path class="xlines-below"/><path class="ylines-below"/><g class="overlines-below"/><g class="xaxislayer-below"/><g class="yaxislayer-below"/><g class="overaxes-below"/><g class="plot" transform="translate(80,100)" clip-path="url(#clip528d23xyplot)"><g class="scatterlayer mlayer"><g class="trace scatter trace88edda" style="stroke-miterlimit: 2; opacity: 1;"><g class="fills"/><g class="errorbars"/><g class="lines"><path class="js-line" d="M134.08,213.89L134.53,201.99L134.89,216.95L135.7,228.12L136.1,265.78L136.91,287.37L137.31,257.07L137.72,256.82L138.12,242.59L138.48,264.92L138.89,246.15L139.29,238.42L139.7,235.97L140.1,236.09L140.5,255.1L142.12,163.35L142.48,158.07L143.69,115.39L144.1,121.64L144.5,136.12L144.91,108.76L146.12,164.58L146.48,172.3L146.88,164.7L147.29,176.23L149.31,234.5L149.71,228.73L150.12,238.67L150.52,252.16L150.92,247.5L151.29,252.53L152.5,270.81L152.9,242.1L153.31,239.04L153.71,247.38L154.92,214.87L155.33,213.89L157.3,147.16L157.71,148.87L158.92,108.27L159.32,125.2L159.73,130.11L160.13,126.06L160.5,118.21L162.92,199.17L163.32,182.36L165.34,254.74L165.71,242.84L166.11,229.34L166.51,260.38L166.92,267.98L167.32,265.41L167.72,242.84L168.13,240.14L168.53,243.45L168.94,238.3L169.34,223.46L169.74,220.02L170.15,203.22L170.55,209.35L170.96,196.59L173.34,110.48L173.74,118.94L174.15,103.24L174.55,119.43L174.95,142.25L175.36,129.74L175.76,137.47L176.97,166.78L177.38,167.64L177.78,174.27L178.14,152.68L179.76,247.13L180.16,250.81L180.57,253.63L180.97,236.46L181.74,252.53L182.18,240.75L182.55,232.41L182.95,256.45L183.76,234.37L184.16,211.68L184.97,196.47L185.37,173.78L185.78,170.22L186.18,180.15L186.99,134.15L187.35,140.29L187.76,127.41L188.08,121.15L188.64,93.55L189.37,140.16L189.78,128.39L190.18,116.98L190.58,155.01L190.99,153.54L191.35,148.87L192.56,195L192.97,200.03L193.37,202.48L193.77,210.58L195.75,261.61L196.16,251.3L196.56,267.62L196.96,263.57L197.37,243.08L198.18,213.52L198.58,228.49L200.56,166.78L200.96,153.41L201.37,166.78L201.77,145.68L202.58,109.87L202.98,115.63L203.39,102.38L203.79,104.22L204.19,112.69L204.44,112.69L205.4,154.88L205.77,152.06L206.17,162.61L207.79,195.37L208.19,215.11L208.96,257.19L209.36,248.73L209.77,242.59L210.98,247.38L211.38,265.16L212.19,259.64L212.59,236.95L213.36,215.85L213.76,227.38L215.38,178.93L215.78,165.43L216.59,151.94L217,132.68L217.4,135.63L217.76,116.73L218.17,94.41L218.57,105.69L218.97,120.91L219.38,130.11L219.78,163.84L220.19,146.3L220.59,147.16L220.99,156.36L222.17,195.12L222.57,193.53L224.99,253.76L225.4,249.46L225.8,251.79L226.2,235.6L228.18,222.6L228.59,199.54L229.8,168.75L230.2,170.83L230.53,170.46L231.21,118.45L231.41,153.78L231.82,133.91L232.22,119.31L232.63,106.68L233.03,116.98L233.43,111.34L233.84,108.27L234.2,126.18L234.6,114.89L235.01,117.72L235.41,153.9L235.82,155.25L236.22,164.08L237.03,201.25L237.43,190.95L238.44,216.95L240.42,254.61L240.82,239.77L242.04,208.86L242.44,212.17L242.84,206.28L244.01,168.13L244.42,175.49L244.82,172.3L245.23,166.29L245.63,141.76L246.8,111.46L247.41,100.79L247.65,121.03L248.05,112.44L248.42,111.71L248.82,107.66L249.22,137.22L249.63,140.78L250.03,152.55L250.44,147.52L250.84,169.6L254.03,272.52L254.43,270.44L254.84,256.94L255.24,276.57L256.45,252.04L256.82,260.13L259.24,182.85L259.64,189.48L260.45,158.2L260.86,146.91L262.03,105.82L262.43,128.39L262.83,112.93L263.24,125.2L263.64,157.95L264.05,137.96L264.45,155.25L266.02,215.85L266.43,205.91L266.83,212.66L267.24,244.06L267.64,247.5L268.04,239.65L268.45,239.77L268.85,251.06L269.66,283.69L270.02,266.27L270.43,267.37L270.83,257.19L271.23,262.22L271.64,255.35L272.04,251.55L272.45,229.96L274.42,186.29L274.83,182.73L276.44,128.76L276.85,147.89L278.06,112.93L278.46,132.07L279.23,155.38L279.63,145.68L280.04,144.46L280.44,163.96L282.06,207.51L282.46,205.42L282.66,193.4L283.27,258.05L286.18,209.72L286.62,211.19L287.03,215.61L287.51,210.21L287.79,178.19L288.52,174.51L288.96,158.07L290.9,96.99L291.35,88.52L291.63,108.64L291.95,84.96L292.4,94.29L292.84,96.25L293.12,94.29L293.45,107.04L295.35,172.3L295.79,178.07L296.96,185.8L297.28,212.17L297.97,257.07L298.74,235.72L299.63,269.21L300.07,238.05L300.39,240.51L300.68,221.49L301.12,218.06L301.56,238.05L302.01,230.08L302.29,208.61L302.45,209.35" style="vector-effect: none; fill: none; stroke: rgb(99, 110, 250); stroke-opacity: 1; stroke-width: 2px; opacity: 1;"/></g><g class="points"/><g class="text"/></g><g class="trace scatter trace2182f0" style="stroke-miterlimit: 2; opacity: 1;"><g class="fills"/><g class="errorbars"/><g class="lines"><path class="js-line" d="M229.43,177.47L230.2,158.7L230.61,162.63L232.22,112.7L232.63,110.25L233.03,119.81L233.43,112.21L233.84,109.76L234.24,125.82L234.6,118.59L235.01,122.76L236.22,170.72L236.62,198.32L237.03,206.42L237.43,194.15L238.64,228.74L239.01,228.5L239.81,234.02L240.22,248.86L240.62,244.81L241.03,232.06L241.43,227.39L241.83,212.55L242.64,217.95L243.04,190.35L243.45,194.52L243.85,175.26L244.62,162.38L245.02,171.83L245.83,115.4L246.24,116.99L246.64,118.83L247.85,108.41L248.21,109.88L248.62,104.6L249.02,120.8L249.43,149.99L249.83,141.77L250.23,152.08L251.45,204.45L251.85,233.77L252.25,226.17L252.62,247.14L253.02,268.12L253.42,264.32L253.83,271.06L254.23,274.87L254.64,268.49L255.04,283.82L255.44,272.04L255.85,278.42L258.23,203.84L258.63,201.39L261.46,111.47L261.82,103.62L262.63,123.13L263.04,112.45L263.84,160.42L264.25,147.66L265.86,217.83L266.23,214.27L266.63,198.93L267.03,242.6L267.44,239.78L267.84,240.89L268.25,240.76L268.65,248.86L269.46,282.1L269.86,279.65L270.22,264.44L270.63,267.87L271.03,265.79L272.24,237.45L272.65,220.52L274.26,175.38L274.63,177.1L276.65,128.65L277.05,138.34L277.86,101.17L278.26,122.88L279.07,150.73L279.43,150.24L279.84,143.12L281.86,209.36L282.26,206.79L282.66,218.56L283.07,236.47L283.47,231.93L283.88,225.68L284.28,229.97L284.68,228.01L285.05,228.38L285.45,231.2L285.85,225.19L286.26,202.49L286.66,204.09L287.07,202.25L287.47,196.97L287.87,174.28L288.68,160.29L289.09,150.85L290.7,89.02L291.06,94.54L291.47,97.24L291.87,87.8L292.68,80.68L293.08,92.46L295.51,176.12L295.91,180.29L296.31,189.61L296.72,188.63L297.08,186.55L298.29,235.49L298.7,243.59L299.06,209.85L299.55,256.1L300.72,213.16L301.12,217.21L301.48,232.18L301.89,225.06L302.29,200.53L302.7,191.57L303.1,158.09L305.12,110.61L305.44,106.57L306.29,110.12L306.69,107.79L307.1,97.86L307.5,110.25L307.91,85.71L308.31,114.17L309.88,145.33L310.29,168.02L310.69,172.32L311.1,185.93L312.31,226.66L312.71,222L313.92,252.91L314.29,246.78L315.5,206.42L315.9,219.3L316.31,215.99L316.71,217.83L317.11,185.93L319.09,126.81L319.5,128.28L321.11,98.72L321.52,99.33L322.73,115.52L323.13,105.83L325.11,175.14L325.51,176L326.32,181.88L326.73,204.82L327.13,192.56L327.49,207.28L327.9,205.31L328.3,214.51L329.11,223.1L329.51,220.16L330.32,210.22L330.72,210.71L331.13,193.66L331.53,199.67L331.89,184.71L333.91,110.74L334.32,100.06L335.13,87.43L335.53,89.27L335.93,89.15L336.3,69.52L336.7,78.84L337.1,84.24L338.32,114.78L338.72,115.03L340.34,169.13L340.74,170.35L341.14,161.77L341.51,189.24L341.91,190.59L342.31,196.6L343.12,228.38L343.53,218.93L343.93,217.09L344.33,191.21L345.14,184.83L345.55,196.97L345.95,209.48L346.35,183.72L348.74,104.73L349.14,102.52L350.35,74.43L350.76,72.22L351.48,85.34L351.76,79.21L352.17,70.5L353.34,118.46L353.74,109.88L354.15,113.31L354.55,134.53L356.17,195.75L356.57,191.21L356.97,193.29L357.58,210.22L358.27,209.24L358.95,180.9L359.36,196.97L360.04,192.56" style="vector-effect: none; fill: none; stroke: rgb(239, 85, 59); stroke-opacity: 1; stroke-width: 2px; opacity: 1;"/></g><g class="points"/><g class="text"/></g><g class="trace scatter trace2fd340" style="stroke-miterlimit: 2; opacity: 1;"><g class="fills"/><g class="errorbars"/><g class="lines"><path class="js-line" d="M341.63,189.87L341.91,189.38L342.31,192.81L343.12,220.9L343.53,211.58L343.93,207.17L344.33,183.49L345.14,178.34L345.55,192.08L345.95,204.1L346.35,181.41L348.74,105.35L349.14,101.67L350.76,63.52L351.16,68.8L351.56,81.19L351.97,63.4L353.54,108.54L353.95,98.48L355.56,170.24L355.96,178.71L356.37,190.12L356.77,177.97L357.58,203.49L357.98,198.95L358.39,191.71L358.75,183.98L359.16,184.47L359.56,193.18L362.39,119.95L362.75,132.58L363.96,90.39L364.37,80.2L365.17,52.24L365.58,60.82L365.98,59.6L366.38,69.29L366.79,89.04L367.19,71.62L367.56,73.21L367.96,94.92L369.98,118.97L370.38,139.21L370.79,138.23L371.19,153.93L372.36,199.81L372.77,183.25L373.17,186.43L373.57,195.76L373.98,208.76L374.38,187.91L375.19,165.21L375.59,166.69L376,180.18L376.36,155.03L377.98,89.77L378.38,93.7L379.19,59.96L379.59,32.36L379.99,36.04L380.36,51.75L382.78,71.74L383.19,106.09L384.4,145.95L384.76,136.51L385.57,163.37L385.97,163.01L386.21,160.31L387.18,185.82L387.59,172.33L388.4,180.67L388.8,175.03L389.97,158.34L390.37,154.54L390.78,152.82L391.18,141.42L392.39,91L392.8,97.87L395.18,39.72L395.58,39.48L396.39,58.12L396.8,56.9L397.2,60.33L398.77,117.99L399.18,109.4L401.2,162.02L401.6,159.45L402.81,184.84L403.22,181.53L403.62,184.1L404.02,192.94L404.39,201.65L404.79,145.59L405.2,145.71L405.6,154.42L407.62,72.23L408.02,80.45L408.83,49.29L409.23,52.48L409.64,58.61L410.04,57.02L410.41,59.84L410.81,52.73L411.25,64.87L411.62,42.55L412.02,63.03L412.42,81.43L414.04,134.91L414.44,131.48L416.83,191.1L417.23,186.68L418.04,164.11L418.44,168.65L418.85,167.79L419.25,171.47L419.65,165.21L420.02,132.34L420.42,124.36L420.83,142.89L422.44,68.43L422.84,69.65L423.25,66.96L423.65,65.97L424.06,54.81L425.23,19.61L425.63,21.69L427.25,84.87L427.65,72.35L429.23,134.91L429.63,132.46L430.84,168.77L431.24,177.73L431.65,178.71L432.05,192.81L433.02,209.25L433.3,182.63L433.71,137.12L434.11,153.19L434.52,140.31L435.32,107.07L435.73,110.75L436.94,66.1L437.3,71.5L437.71,69.16L438.11,62.42L438.51,32.61L439.32,28.44L439.73,32.24L440.94,36.9L441.34,28.44L442.92,101.06L443.32,95.66L445.34,171.35L445.74,137.86L446.51,168.65L446.91,149.88L447.32,162.64L447.72,151.35L448.13,161.29L448.53,156.26L448.93,153.56L450.91,85.72L451.32,96.52L452.12,60.82L452.53,63.64L452.93,45.98L454.55,20.22L454.95,40.83L456.53,80.2L456.93,79.84L457.33,70.64L458.14,81.31L458.55,115.53L459.35,133.93L459.72,127.19L460,109.03" style="vector-effect: none; fill: none; stroke: rgb(0, 204, 150); stroke-opacity: 1; stroke-width: 2px; opacity: 1;"/></g><g class="points"/><g class="text"/></g><g class="trace scatter trace52e6ec" style="stroke-miterlimit: 2; opacity: 1;"><g class="fills"/><g class="errorbars"/><g class="lines"><path class="js-line" d="M413.23,91.32L414.04,132.78L414.44,129.22L414.85,138.05L416.87,190.43L417.23,186.63L418.04,165.53L418.44,172.28L418.85,164.55L419.25,169.58L419.65,166.39L420.46,125.67L420.83,146.76L422.44,69.48L422.84,73.65L423.25,68.26L423.65,69.12L424.06,54.03L425.23,18.82L425.63,21.15L427.25,83.84L427.65,70.1L429.23,132.9L429.63,129.22L430.84,161.73L431.24,171.42L432.05,189.45L432.46,181.36L432.86,175.84L433.26,189.94L433.63,144.07L434.03,152.28L434.44,145.17L435.24,108.86L435.65,123.95L437.67,65.31L438.03,70.1L439.24,26.3L439.65,27.53L440.45,36.24L440.86,32.31L441.26,24.1L441.66,47.4L442.84,97.94L443.24,93.77L445.26,172.16L445.66,146.03L446.07,152.16L446.43,171.54L446.83,141.24L447.24,160.63L447.64,158.79L448.05,161.24L448.45,158.66L450.83,86.04L451.24,98.06L452.85,42.74L453.26,45.32L454.47,16L454.87,33.42L455.23,21.27L455.64,35.5L456.85,82.12" style="vector-effect: none; fill: none; stroke: rgb(171, 99, 250); stroke-opacity: 1; stroke-width: 2px; opacity: 1;"/></g><g class="points"/><g class="text"/></g><g class="trace scatter trace3b2e24" style="stroke-miterlimit: 2; opacity: 1;"><g class="fills"/><g class="errorbars"/><g class="lines"><path class="js-line" d="M0,202.43L0.73,226.72L1.17,217.64L1.98,249.04L2.34,252.85L3.96,304L4.77,279.96L5.57,293.7L5.98,282.04L8.36,234.08L9.17,206.11L11.95,150.66L12.36,162.56L13.17,163.91L13.57,176.92L13.97,169.92L14.38,186.48L16.36,260.21L16.76,259.84L17.16,260.21L18.78,288.91L19.18,280.2L19.55,298.6L19.95,287.07L20.35,271.86L21.16,259.84L21.57,265.6L21.97,257.75L22.78,223.04L23.18,236.53L23.59,227.46L23.95,188.94L24.76,181.21L25.16,166.73L26.37,141.34L26.78,147.72L27.58,165.63L28.35,159.5L29.16,173.24L29.56,196.67L31.58,252.6L31.99,247.45L32.35,232.61L33.16,272.72L33.56,272.11L33.96,257.26L34.77,267.08L35.58,243.77L35.98,240.7L36.39,251.5L36.79,245.49L37.16,246.35L37.96,203.66L38.37,202.31L38.77,187.22L39.17,152.87L39.58,153L39.98,148.09L40.39,146.86L40.79,134.6L41.19,130.18L41.56,132.02L42.37,153.98L42.77,152.01L43.13,163.79L44.38,195.44L44.79,221.2L45.19,220.71L45.56,239.6L46.36,257.51L47.17,259.47L47.98,282.29L48.38,295.66L49.59,272.6L50,275.91L50.81,252.11L51.21,262.91L52.02,251.5L52.42,213.59L53.19,182.31L53.59,195.68L54.8,143.92L55.21,150.54L55.61,144.41L56.82,133.86L57.23,137.91L57.63,137.54L58.04,168.94L59.61,205.25L60.01,191.15L60.42,197.89L60.82,230.89L61.63,260.21L62.03,257.14L62.44,238.62L63.2,283.27L63.61,280.57L64.01,272.35L65.22,254.44L65.63,250.03L66.44,240.95L66.84,227.46L67.65,219.6L68.01,202.19L69.63,143.92L70.03,148.21L70.43,146.98L71.24,129.69L71.65,140.73L72.41,152.87L72.82,178.63L74.03,203.29L74.43,201.2L74.84,202.55L75.64,251.13L76.05,238.62L76.41,243.65L76.81,249.66L77.22,256.77L77.62,280.94L78.03,254.69L78.43,264.38L78.83,271.25L79.64,248.19L80.45,252.97L80.85,249.04L81.22,226.11L82.43,166.24L83.24,172.87L84.85,116.69L85.26,136.93L86.43,110.55L86.83,128.34L88.04,173.11L88.45,155.69L88.85,160.85L89.25,181.7L89.66,204.52L90.42,203.66L92.44,284.25L92.85,264.38L93.25,247.45L94.02,251.01L94.42,260.21L94.83,253.09L95.23,224.51L95.63,225.12L96.04,220.22L98.42,143.8L99.23,127.85L100.04,108.22L100.44,134.6L100.84,126.01L101.25,134.72L101.65,124.05L102.06,137.42L103.63,180.23L104.04,158.03L105.25,204.03L105.65,201.2L106.86,254.93L107.27,256.77L108.07,240.21L108.48,243.77L108.88,243.28L109.65,220.71L110.05,225.25L111.67,190.9L112.48,160.72L112.88,158.52L113.28,150.79L113.69,148.09L114.09,124.29L114.45,118.4L114.9,119.26L115.26,141.1L115.67,114.48L116.47,133.49L117.28,156.92L117.69,170.78L122.09,286.58L122.49,285.11L122.9,272.96L123.7,258.74L124.11,259.59L124.51,263.64L126.49,203.17L126.89,183.54L127.3,181.33L127.7,186.97L128.91,130.67L129.32,121.84L129.68,133.37L130.08,127.6L130.49,119.88L130.89,111.66L131.3,136.31L132.67,192.86L132.91,182.93L135.29,227.21L135.7,223.28L136.91,285.6L137.31,261.92L137.72,260.58L138.12,245.12L138.48,274.56L138.89,245.24L140.1,235.67L140.5,253.22L141.72,168.57L142.12,171.03L142.52,166.73L143.69,111.41L144.1,127.48L144.5,133.49L144.87,117.42L146.52,169.07L146.88,161.58L149.31,238.13L149.71,236.41L150.12,237.02L150.52,236.16L150.92,242.67L151.29,240.7L151.69,257.63L152.09,258.86L152.5,266.46L153.31,233.59L153.71,249.04L155.33,193.72L156.09,185.26L157.3,139.26L157.71,147.6L158.92,117.54L159.32,128.22L159.73,129.08L160.13,118.28L160.5,101.97L160.9,132.51L161.46,181.33L161.63,169.56L162.11,162.69L162.92,212.73L163.32,192.99L165.3,264.26L165.71,250.76L166.11,232.98L166.51,261.8L166.92,280.82L167.32,269.53L167.72,242.54L168.13,241.32L168.53,241.68L169.74,206.36L170.51,222.43L170.96,187.22L171.72,167.72L172.13,155.08L172.53,153.12L172.93,130.67L174.15,106.01L174.55,129.57L174.95,143.55L175.36,131.41L176.89,169.43L177.34,177.77L177.74,184.28L178.14,170.54L180.16,257.88L180.57,259.47L180.97,241.93L181.37,261.07L182.55,249.29L182.95,269.41L183.76,238L184.16,215.68L184.97,200.59L185.37,181.21L185.78,178.88L186.14,179.12L186.54,151.52L186.95,134.23L187.35,152.75L188.56,103.68" style="vector-effect: none; fill: none; stroke: rgb(255, 161, 90); stroke-opacity: 1; stroke-width: 2px; opacity: 1;"/></g><g class="points"/><g class="text"/></g></g></g><g class="overplot"/><path class="xlines-above crisp" d="M0,0" style="fill: none;"/><path class="ylines-above crisp" d="M0,0" style="fill: none;"/><g class="overlines-above"/><g class="xaxislayer-above"><g class="xtick"><text text-anchor="middle" x="0" y="433" transform="translate(110.05,0)" style="font-family: 'Open Sans', verdana, arial, sans-serif; font-size: 12px; fill: rgb(42, 63, 95); fill-opacity: 1; white-space: pre; opacity: 1;">1995</text></g><g class="xtick"><text text-anchor="middle" x="0" y="433" style="font-family: 'Open Sans', verdana, arial, sans-serif; font-size: 12px; fill: rgb(42, 63, 95); fill-opacity: 1; white-space: pre; opacity: 1;" transform="translate(183.79000000000002,0)">2000</text></g><g class="xtick"><text text-anchor="middle" x="0" y="433" style="font-family: 'Open Sans', verdana, arial, sans-serif; font-size: 12px; fill: rgb(42, 63, 95); fill-opacity: 1; white-space: pre; opacity: 1;" transform="translate(257.58000000000004,0)">2005</text></g><g class="xtick"><text text-anchor="middle" x="0" y="433" style="font-family: 'Open Sans', verdana, arial, sans-serif; font-size: 12px; fill: rgb(42, 63, 95); fill-opacity: 1; white-space: pre; opacity: 1;" transform="translate(331.32,0)">2010</text></g><g class="xtick"><text text-anchor="middle" x="0" y="433" style="font-family: 'Open Sans', verdana, arial, sans-serif; font-size: 12px; fill: rgb(42, 63, 95); fill-opacity: 1; white-space: pre; opacity: 1;" transform="translate(405.07,0)">2015</text></g><g class="xtick"><text text-anchor="middle" x="0" y="433" style="font-family: 'Open Sans', verdana, arial, sans-serif; font-size: 12px; fill: rgb(42, 63, 95); fill-opacity: 1; white-space: pre; opacity: 1;" transform="translate(478.81,0)">2020</text></g></g><g class="yaxislayer-above"><g class="ytick"><text text-anchor="end" x="79" y="4.199999999999999" transform="translate(0,367.09)" style="font-family: 'Open Sans', verdana, arial, sans-serif; font-size: 12px; fill: rgb(42, 63, 95); fill-opacity: 1; white-space: pre; opacity: 1;">−50</text></g><g class="ytick"><text text-anchor="end" x="79" y="4.199999999999999" style="font-family: 'Open Sans', verdana, arial, sans-serif; font-size: 12px; fill: rgb(42, 63, 95); fill-opacity: 1; white-space: pre; opacity: 1;" transform="translate(0,305.76)">0</text></g><g class="ytick"><text text-anchor="end" x="79" y="4.199999999999999" style="font-family: 'Open Sans', verdana, arial, sans-serif; font-size: 12px; fill: rgb(42, 63, 95); fill-opacity: 1; white-space: pre; opacity: 1;" transform="translate(0,244.42)">50</text></g><g class="ytick"><text text-anchor="end" x="79" y="4.199999999999999" style="font-family: 'Open Sans', verdana, arial, sans-serif; font-size: 12px; fill: rgb(42, 63, 95); fill-opacity: 1; white-space: pre; opacity: 1;" transform="translate(0,183.09)">100</text></g><g class="ytick"><text text-anchor="end" x="79" y="4.199999999999999" style="font-family: 'Open Sans', verdana, arial, sans-serif; font-size: 12px; fill: rgb(42, 63, 95); fill-opacity: 1; white-space: pre; opacity: 1;" transform="translate(0,121.75)">150</text></g></g><g class="overaxes-above"/></g></g><g class="polarlayer"/><g class="smithlayer"/><g class="ternarylayer"/><g class="geolayer"/><g class="funnelarealayer"/><g class="pielayer"/><g class="iciclelayer"/><g class="treemaplayer"/><g class="sunburstlayer"/><g class="glimages"/><defs id="topdefs-528d23"><g class="clips"/><clipPath id="legend528d23"><rect width="139" height="105" x="0" y="0"/></clipPath></defs><g class="layer-above"><g class="imagelayer"/><g class="shapelayer"/></g><g class="infolayer"><g class="legend" pointer-events="all" transform="translate(549.2,100)"><rect class="bg" shape-rendering="crispEdges" width="139" height="105" x="0" y="0" style="stroke: rgb(68, 68, 68); stroke-opacity: 1; fill: rgb(255, 255, 255); fill-opacity: 1; stroke-width: 0px;"/><g class="scrollbox" transform="" clip-path="url(#legend528d23)"><g class="groups"><g class="traces" transform="translate(0,14.5)" style="opacity: 1;"><text class="legendtext" text-anchor="start" x="40" y="4.680000000000001" style="font-family: 'Open Sans', verdana, arial, sans-serif; font-size: 12px; fill: rgb(42, 63, 95); fill-opacity: 1; white-space: pre;">Jason.1</text><g class="layers" style="opacity: 1;"><g class="legendfill"/><g class="legendlines"><path class="js-line" d="M5,0h30" style="fill: none; stroke: rgb(99, 110, 250); stroke-opacity: 1; stroke-width: 2px;"/></g><g class="legendsymbols"><g class="legendpoints"/></g></g><rect class="legendtoggle" x="0" y="-9.5" width="133.84375" height="19" style="fill: rgb(0, 0, 0); fill-opacity: 0;"/></g><g class="traces" transform="translate(0,33.5)" style="opacity: 1;"><text class="legendtext" text-anchor="start" x="40" y="4.680000000000001" style="font-family: 'Open Sans', verdana, arial, sans-serif; font-size: 12px; fill: rgb(42, 63, 95); fill-opacity: 1; white-space: pre;">Jason.2</text><g class="layers" style="opacity: 1;"><g class="legendfill"/><g class="legendlines"><path class="js-line" d="M5,0h30" style="fill: none; stroke: rgb(239, 85, 59); stroke-opacity: 1; stroke-width: 2px;"/></g><g class="legendsymbols"><g class="legendpoints"/></g></g><rect class="legendtoggle" x="0" y="-9.5" width="133.84375" height="19" style="fill: rgb(0, 0, 0); fill-opacity: 0;"/></g><g class="traces" transform="translate(0,52.5)" style="opacity: 1;"><text class="legendtext" text-anchor="start" x="40" y="4.680000000000001" style="font-family: 'Open Sans', verdana, arial, sans-serif; font-size: 12px; fill: rgb(42, 63, 95); fill-opacity: 1; white-space: pre;">Jason.3</text><g class="layers" style="opacity: 1;"><g class="legendfill"/><g class="legendlines"><path class="js-line" d="M5,0h30" style="fill: none; stroke: rgb(0, 204, 150); stroke-opacity: 1; stroke-width: 2px;"/></g><g class="legendsymbols"><g class="legendpoints"/></g></g><rect class="legendtoggle" x="0" y="-9.5" width="133.84375" height="19" style="fill: rgb(0, 0, 0); fill-opacity: 0;"/></g><g class="traces" transform="translate(0,71.5)" style="opacity: 1;"><text class="legendtext" text-anchor="start" x="40" y="4.680000000000001" style="font-family: 'Open Sans', verdana, arial, sans-serif; font-size: 12px; fill: rgb(42, 63, 95); fill-opacity: 1; white-space: pre;">Sentinel-6MF</text><g class="layers" style="opacity: 1;"><g class="legendfill"/><g class="legendlines"><path class="js-line" d="M5,0h30" style="fill: none; stroke: rgb(171, 99, 250); stroke-opacity: 1; stroke-width: 2px;"/></g><g class="legendsymbols"><g class="legendpoints"/></g></g><rect class="legendtoggle" x="0" y="-9.5" width="133.84375" height="19" style="fill: rgb(0, 0, 0); fill-opacity: 0;"/></g><g class="traces" transform="translate(0,90.5)" style="opacity: 1;"><text class="legendtext" text-anchor="start" x="40" y="4.680000000000001" style="font-family: 'Open Sans', verdana, arial, sans-serif; font-size: 12px; fill: rgb(42, 63, 95); fill-opacity: 1; white-space: pre;">TOPEX.Poseidon</text><g class="layers" style="opacity: 1;"><g class="legendfill"/><g class="legendlines"><path class="js-line" d="M5,0h30" style="fill: none; stroke: rgb(255, 161, 90); stroke-opacity: 1; stroke-width: 2px;"/></g><g class="legendsymbols"><g class="legendpoints"/></g></g><rect class="legendtoggle" x="0" y="-9.5" width="133.84375" height="19" style="fill: rgb(0, 0, 0); fill-opacity: 0;"/></g></g></g><rect class="scrollbar" rx="20" ry="3" width="0" height="0" x="0" y="0" style="fill: rgb(128, 139, 164); fill-opacity: 1;"/></g><g class="g-gtitle"><text class="gtitle" x="35" y="50" text-anchor="start" dy="0em" style="font-family: 'Open Sans', verdana, arial, sans-serif; font-size: 17px; fill: rgb(42, 63, 95); opacity: 1; font-weight: normal; white-space: pre;">Mean Sea Levels Changing - North Atlantic</text></g><g class="g-xtitle"><text class="xtitle" x="310" y="460.3" text-anchor="middle" style="font-family: 'Open Sans', verdana, arial, sans-serif; font-size: 14px; fill: rgb(42, 63, 95); opacity: 1; font-weight: normal; white-space: pre;">Date</text></g><g class="g-ytitle"><text class="ytitle" transform="rotate(-90,34.340625,260)" x="34.340625" y="260" text-anchor="middle" style="font-family: 'Open Sans', verdana, arial, sans-serif; font-size: 14px; fill: rgb(42, 63, 95); opacity: 1; font-weight: normal; white-space: pre;">Change in Sea Level [mm]</text></g></g></svg>