<svg class="main-svg" xmlns="http://www.w3.org/2000/svg" xmlns:xlink="http://www.w3.org/1999/xlink" width="700" height="500" style="" viewBox="0 0 700 500"><rect x="0" y="0" width="700" height="500" style="fill: rgb(255, 255, 255); fill-opacity: 1;"/><defs id="defs-7b7ff4"><g class="clips"><clipPath id="clip7b7ff4xyplot" class="plotclip"><rect width="460" height="320"/></clipPath><clipPath class="axesclip" id="clip7b7ff4x"><rect x="80" y="0" width="460" height="500"/></clipPath><clipPath class="axesclip" id="clip7b7ff4y"><rect x="0" y="100" width="700" height="320"/></clipPath><clipPath class="axesclip" id="clip7b7ff4xy"><rect x="80" y="100" width="460" height="320"/></clipPath></g><g class="gradients"/><g class="patterns"/></defs><g class="bglayer"><rect class="bg" x="80" y="100" width="460" height="320" style="fill: rgb(229, 236, 246); fill-opacity: 1; stroke-width: 0;"/></g><g class="layer-below"><g class="imagelayer"/><g class="shapelayer"/></g><g class="cartesianlayer"><g class="subplot xy"><g class="layer-subplot"><g class="shapelayer"/><g class="imagelayer"/></g><g class="minor-gridlayer"><g class="x"/><g class="y"/></g><g class="gridlayer"><g class="x"><path class="xgrid crisp" transform="translate(110.09,0)" d="M0,100v320" style="stroke: rgb(255, 255, 255); stroke-opacity: 1; stroke-width: 1px;"/><path class="xgrid crisp" transform="translate(183.82999999999998,0)" d="M0,100v320" style="stroke: rgb(255, 255, 255); stroke-opacity: 1; stroke-width: 1px;"/><path class="xgrid crisp" transform="translate(257.62,0)" d="M0,100v320" style="stroke: rgb(255, 255, 255); stroke-opacity: 1; stroke-width: 1px;"/><path class="xgrid crisp" transform="translate(331.36,0)" d="M0,100v320" style="stroke: rgb(255, 255, 255); stroke-opacity: 1; stroke-width: 1px;"/><path class="xgrid crisp" transform="translate(405.11,0)" d="M0,100v320" style="stroke: rgb(255, 255, 255); stroke-opacity: 1; stroke-width: 1px;"/><path class="xgrid crisp" transform="translate(478.86,0)" d="M0,100v320" style="stroke: rgb(255, 255, 255); stroke-opacity: 1; stroke-width: 1px;"/></g><g class="y"><path class="ygrid crisp" transform="translate(0,399.84)" d="M80,0h460" style="stroke: rgb(255, 255, 255); stroke-opacity: 1; stroke-width: 1px;"/><path class="ygrid crisp" transform="translate(0,360.29)" d="M80,0h460" style="stroke: rgb(255, 255, 255); stroke-opacity: 1; stroke-width: 1px;"/><path class="ygrid crisp" transform="translate(0,281.18)" d="M80,0h460" style="stroke: rgb(255, 255, 255); stroke-opacity: 1; stroke-width: 1px;"/><path class="ygrid crisp" transform="translate(0,241.62)" d="M80,0h460" style="stroke: rgb(255, 255, 255); stroke-opacity: 1; stroke-width: 1px;"/><path class="ygrid crisp" transform="translate(0,202.07)" d="M80,0h460" style="stroke: rgb(255, 255, 255); stroke-opacity: 1; stroke-width: 1px;"/><path class="ygrid crisp" transform="translate(0,162.52)" d="M80,0h460" style="stroke: rgb(255, 255, 255); stroke-opacity: 1; stroke-width: 1px;"/><path class="ygrid crisp" transform="translate(0,122.96000000000001)" d="M80,0h460" style="stroke: rgb(255, 255, 255); stroke-opacity: 1; stroke-width: 1px;"/></g></g><g class="zerolinelayer"><path class="yzl zl crisp" transform="translate(0,320.73)" d="M80,0h460" style="stroke: rgb(255, 255, 255); stroke-opacity: 1; stroke-width: 2px;"/></g><g class="layer-between"><g class="shapelayer"/><g class="imagelayer"/></g><path class="xlines-below"/><path class="ylines-below"/><g class="overlines-below"/><g class="xaxislayer-below"/><g class="yaxislayer-below"/><g class="overaxes-below"/><g class="plot" transform="translate(80,100)" clip-path="url(#clip7b7ff4xyplot)"><g class="scatterlayer mlayer"><g class="trace scatter trace3a25d0" style="stroke-miterlimit: 2; opacity: 1;"><g class="fills"/><g class="errorbars"/><g class="lines"><path class="js-line" d="M134.12,251.87L134.53,253.69L134.93,225.6L136.14,262.31L136.51,254.56L136.91,252.74L138.12,222.28L138.53,215.32L138.93,218.01L139.33,202.58L139.74,191.35L140.14,203.77L140.91,220.54L141.31,207.96L142.93,162.4L143.33,141.91L144.14,119.92L144.5,135.74L144.95,122.45L145.31,137.64L147.73,240.48L148.14,238.34L148.54,252.98L148.9,251.31L149.35,247.68L149.71,235.65L150.12,246.17L150.52,247.2L150.92,238.02L151.33,238.97L151.73,244.99L152.18,259.7L152.54,244.67L152.94,207.73L153.35,218.25L153.71,234.7L154.92,224.5L155.33,184.55L155.73,190.01L156.13,171.89L156.94,199.18L157.35,178.77L159.32,113.9L159.73,131.62L160.13,126.56L160.54,133.36L160.9,135.26L161.5,182.41L162.51,228.21L162.92,226.55L163.32,224.02L163.73,248.31L164.13,244.67L164.49,243.25L165.75,264.68L166.15,235.65L166.51,259.62L166.96,243.01L167.36,259.7L168.53,205.35L168.94,222.44L169.34,219.83L169.74,190.48L170.55,213.9L170.96,210.49L171.36,211.29L172.17,176.79L172.57,203.61L172.97,195.23L173.38,164.22L174.19,136.53L174.59,148.08L174.95,148.08L175.36,151.32L175.76,134.47L176.17,162.4L177.01,208.44L177.38,204.01L177.78,208.99L179.36,191.51L179.8,224.34L180.57,266.42L180.97,235.73L181.78,228.93L182.18,228.61L182.59,220.62L182.99,230.67L183.39,234.07L183.8,200.29L185.78,161.53L186.18,200.61L186.58,212.87L186.99,193.33L188.68,132.65L188.97,137.79L189.37,162.24L189.78,156.31L190.18,167.93L190.99,209.86L191.39,199.89L191.79,213.82L193.01,263.1L193.37,257.09L193.77,251.16L194.18,268.8L195.39,246.81L195.79,249.65L196.2,247.36L196.6,247.6L197,253.61L198.18,229.01L198.58,224.42L198.98,207.73L199.39,213.03L199.79,206.14L200.19,219.43L200.6,205.35L201,203.77L201.41,198.23L202.17,203.69L202.58,188.98L204.19,138.27L204.48,162.16L206.58,226.32L206.98,232.33L207.38,228.85L207.79,232.01L209,282.4L209.4,267.06L210.21,238.97L210.57,247.12L210.98,236.68L211.38,254.16L211.79,221.41L212.59,207.09L213,185.73L213.81,204.09L214.21,202.03L214.61,189.77L215.02,198.87L215.38,192.93L215.78,192.54L216.19,189.21L217.8,140.56L218.21,110.26L218.61,120.55L219.01,156.38L219.42,157.57L219.78,168.96L220.59,189.37L220.99,211.21L221.4,226.4L221.8,207.73L222.21,226.79L222.61,224.34L223.01,225.45L224.63,249.89L224.99,254.48L225.4,269.75L225.8,252.82L226.61,237.23L226.89,258.12L227.82,220.38L228.22,221.81L229.84,180.75L230.24,182.25L231.45,190.88L231.82,143.41L232.22,104.49L232.63,123.16L233.03,127.43L233.43,138.59L233.84,105.83L235.86,217.14L236.26,211.76L237.47,256.3L238.44,249.18L238.84,252.18L239.25,238.42L240.06,210.42L240.46,231.62L242.04,198.15L242.44,202.74L242.84,205.43L244.46,158.52L244.86,170.86L245.27,177.51L245.67,141.04L247.45,109.71L247.65,112.56L248.05,126.96L248.46,125.22L248.86,149.42L249.26,127.75L249.67,139.14L250.07,156.46L251.24,189.37L251.65,230.75L252.05,251.95L252.45,238.5L252.86,250.05L253.26,251.16L253.67,260.89L254.07,262.71L254.47,272.44L255.24,247.91L255.65,248.07L256.05,247.2L256.45,228.14L256.86,240.24L257.26,237.55L258.07,198.71L258.47,213.18L259.64,185.26L260.05,174.34L261.26,148.08L261.66,145.47L262.47,169.67L262.87,158.05L263.28,171.89L263.68,213.66L264.45,183.76L264.85,220.86L265.66,267.29L266.06,261.04L266.47,260.02L266.87,266.34L267.28,290.08L267.68,288.97L268.08,275.13L268.45,245.7L268.85,247.04L269.26,267.69L269.66,283.75L270.06,264.45L271.68,222.12L272.08,236.05L272.49,226.63L272.89,199.26L274.06,173.39L274.47,170.31L274.87,176.08L275.27,166.27L276.48,155.2L276.85,155.99L277.29,159.31L277.7,127.91L278.87,169.44L279.27,171.57L279.68,182.33L280.08,174.98L280.48,163.66L281.29,237.07L281.69,234.15L282.06,249.02L282.46,232.09L282.7,150.29L283.27,254L286.22,196.97L286.66,195.86L287.11,180.59L288.16,136.21L288.6,173.79L289.45,137.16L289.77,159.87L290.54,105.2L290.94,121.5L291.71,158.84L291.99,142.78L292.44,145.15L293.16,133.6L293.49,150.85L293.93,149.34L294.38,153.62L295.43,198L295.87,190.72L297.04,235.33L297.32,219.2L298.01,304L298.78,209.7L299.71,224.02L300.11,219.28L301.2,203.45L301.6,204.8L302.05,229.08L302.33,199.97L302.49,257.88" style="vector-effect: none; fill: none; stroke: rgb(99, 110, 250); stroke-opacity: 1; stroke-width: 2px; opacity: 1;"/></g><g class="points"/><g class="text"/></g><g class="trace scatter trace4bdeee" style="stroke-miterlimit: 2; opacity: 1;"><g class="fills"/><g class="errorbars"/><g class="lines"><path class="js-line" d="M229.47,194.05L230.24,175.85L230.65,180.76L232.26,119.05L232.63,134.16L233.03,131.87L233.43,142.07L233.84,111.78L234.24,126.49L234.64,159.95L235.05,171.66L235.45,212.56L235.86,204.09L236.26,210.82L236.66,239.38L238.28,266.12L238.68,258.76L239.85,221.58L240.26,234L240.66,233.21L241.07,223.08L241.47,224.66L241.87,222.45L242.28,210.58L242.64,217.07L243.09,176.96L244.26,140.57L244.66,171.82L245.06,176.8L245.47,170.39L245.87,148.72L246.28,148.96L246.68,146.66L247.08,109.56L247.45,112.96L247.85,133.29L248.25,125.62L248.66,128.07L249.06,125.94L251.49,219.13L251.85,249.58L252.25,237.4L252.66,242.62L253.06,261.69L253.46,258.52L253.87,267.54L254.27,269.83L254.68,265.32L255.08,271.42L255.48,266.75L255.89,265.64L259.48,164.46L259.85,182.5L260.29,160.19L260.65,162.48L261.06,166.52L261.46,149.59L261.86,152.28L262.27,173.24L262.67,180.36L263.08,162.4L263.88,210.74L264.29,178.7L265.46,248.24L265.86,246.5L266.27,250.06L267.07,277.27L267.48,276.95L267.88,273L268.29,268.88L268.69,252.27L269.86,264.14L270.27,252.9L271.48,224.74L271.88,222.29L272.28,226.64L272.69,202.91L273.86,179.41L274.26,168.89L274.67,161.93L275.07,168.73L275.88,139.7L276.28,159.16L276.69,144.92L277.09,151.73L277.49,146.74L277.9,151.25L278.3,173.95L278.67,163.91L279.07,169.6L279.47,179.33L281.09,210.66L281.49,222.29L282.3,218.41L282.7,237.64L283.11,241.43L283.51,232.42L284.68,208.29L285.09,202.2L285.89,193.49L286.3,174.11L286.7,190.65L287.11,184.48L287.51,151.09L288.32,134.01L288.72,160.27L289.13,134.56L289.49,138.36L289.89,141.12L290.3,138.2L290.74,125.07L291.51,112.88L291.91,135.9L292.72,125.38L293.12,137.33L293.93,149.59L294.34,145L295.55,199.03L295.95,193.65L296.72,212.64L297.12,210.03L297.53,240.8L297.93,245.55L298.33,221.34L298.98,180.52L299.59,238.19L300.72,198.95L301.12,204.89L301.52,193.97L301.93,210.66L302.74,180.6L303.14,156.55L303.95,175.93L304.35,170.79L304.71,160.82L305.48,129.73L306.05,163.51L307.95,120.16L308.31,149.43L308.71,143.18L309.12,162.72L309.52,158.92L309.92,193.1L310.33,195.95L310.73,228.93L311.14,227.75L311.54,221.26L311.94,224.74L312.35,239.61L313.52,251.56L313.92,237.4L314.73,227.83L315.13,197.45L315.54,184.08L315.94,209.47L316.35,208.13L316.75,208.37L317.15,179.33L317.92,155.92L318.32,179.57L320.75,119.45L321.15,124.27L321.56,110.98L321.92,111.93L322.36,112.41L323.53,138.44L323.94,143.89L325.55,192.86L325.96,196.5L326.32,200.06L326.73,218.57L327.13,207.65L327.53,223.71L327.94,235.1L328.34,214.46L328.74,238.27L329.15,227.12L329.55,209.16L330.36,176.25L330.72,177.75L331.13,186.77L331.53,174.59L333.55,116.92L333.95,121.82L334.36,126.17L334.76,107.11L335.17,108.69L335.53,116.21L336.74,79.58L337.14,98.72L337.55,123.17L337.95,116.05L338.36,109.09L339.93,136.46L340.34,160.19L340.74,183.21L341.14,178.23L341.55,184.24L342.76,219.44L343.16,220.31L343.53,220L343.97,191.91L345.18,155.92L345.59,167.55L345.95,166.76L346.39,152.2L346.76,150.78L347.16,141.36L347.97,115.18L348.37,116.36L348.78,119.21L349.18,132.82L349.58,115.65L350.39,102.84L350.8,89.78L351.48,65.89L351.76,87.73L352.17,78L352.57,92.47L353.38,155.29L353.78,144.61L354.19,147.3L354.59,158.13L355,146.03L356.21,209.63L356.61,204.33L357.62,171.98L358.31,194.44L358.59,189.54L358.99,167.47L359.4,162.17L359.8,180.92L360.08,183.37" style="vector-effect: none; fill: none; stroke: rgb(239, 85, 59); stroke-opacity: 1; stroke-width: 2px; opacity: 1;"/></g><g class="points"/><g class="text"/></g><g class="trace scatter trace224782" style="stroke-miterlimit: 2; opacity: 1;"><g class="fills"/><g class="errorbars"/><g class="lines"><path class="js-line" d="M341.63,181.02L342.68,217.09L343.16,208.63L343.97,184.03L344.33,151.35L345.14,135.29L345.55,158.95L345.95,166.15L346.35,148.58L346.76,151.43L347.16,148.9L347.56,151.27L347.97,121.29L348.37,120.26L348.78,114.41L349.18,135.53L349.58,115.04L349.99,93.76L350.35,97.88L350.76,94.32L351.16,90.92L351.56,77.63L351.97,65.92L352.37,71.45L352.77,80.95L353.54,137.91L353.99,131.26L354.39,141.7L355.2,154.83L355.6,191.78L356.37,225.16L356.77,209.74L357.18,182.76L357.58,199.21L357.98,203.25L359.6,162.67L360,178.49L361.58,153.65L361.98,149.22L362.39,150.88L362.79,157.52L363.19,123.51L363.6,128.73L364,142.18L365.58,96.93L365.98,61.57L366.38,64.49L366.79,121.29L367.19,125.25L367.6,105.15L369.98,206.89L370.38,210.61L370.79,197.24L371.19,197.39L371.59,214.24L373.21,155.7L373.61,177.46L373.98,199.53L374.38,196.29L374.78,175.16L375.19,161.64L375.59,178.72L376.4,184.34L376.8,168.36L377.61,163.3L378.02,138.54L378.78,128.89L379.19,113.7L379.59,86.8L379.99,88.15L380.4,104.84L380.8,64.81L381.21,80.79L381.61,109.98L383.99,182.13L384.4,194.47L384.8,188.77L385.2,193.12L385.61,171.84L386.25,202.62L386.86,184.42L387.91,164.33L388.4,188.77L389.61,132.05L390.01,142.02L390.41,135.69L390.82,143.6L391.22,143.36L391.59,132.6L391.99,133.87L392.39,122.95L393.2,133.16L393.6,121.77L395.22,48.36L395.58,16L398.41,162.35L398.81,167.81L399.62,140.04L399.95,162.98L400.39,196.21L400.83,164.72L401.6,181.81L402.01,175.32L402.81,153.49L403.22,133L404.43,165.2L404.83,141.23L405.24,112.43L405.6,119.55L406.04,137.43L406.81,154.91L407.26,126.91L407.62,125.64L408.02,126.43L408.43,108.48L409.23,89.1L409.64,45.19L410.81,87.36L411.25,93.68L411.66,72.8L412.06,92.02L413.64,191.94L414.04,199.69L414.44,211.87L414.85,199.37L415.25,184.42L415.66,195.26L416.06,200.95L416.46,175.56L416.87,179.83L417.27,176.51L418.04,137.67L418.44,152.54L418.85,173.9L419.25,151.2L419.65,163.46L420.06,145.82L420.46,139.65L420.87,155.7L421.27,155.63L421.67,139.88L422.08,141.23L422.44,130.07L424.06,97.4L424.46,88.07L424.86,87.04L425.27,70.74L425.67,65.76L426.08,91.94L426.48,89.81L426.84,109.82L428.86,153.49L429.27,162.35L429.67,142.97L430.07,168.28L430.48,165.28L430.88,175.09L431.24,181.41L431.65,169.39L432.05,189.88L433.06,193.99L433.75,124.14L434.15,133.87L434.56,127.94L434.96,135.61L435.36,121.77L435.77,122.08L436.13,124.77L436.94,72.96L437.34,79.84L437.75,101.2L439.36,65.28L439.73,64.41L440.53,78.18L440.94,70.66L441.34,58.64L441.75,71.14L442.11,70.98L442.51,79.05L443.32,106.02L443.72,128.49L444.94,154.68L445.34,173.11L446.15,122L446.55,127.78L446.96,127.23L448.17,152.54L448.53,134.03L448.97,131.66L449.34,123.82L449.74,123.59L450.15,119.24L451.36,105.39L451.76,113.94L453.74,86.01L454.14,31.82L458.55,178.33L458.95,203.01L459.35,181.81L459.76,193.2L460,218.91" style="vector-effect: none; fill: none; stroke: rgb(0, 204, 150); stroke-opacity: 1; stroke-width: 2px; opacity: 1;"/></g><g class="points"/><g class="text"/></g><g class="trace scatter trace1fb227" style="stroke-miterlimit: 2; opacity: 1;"><g class="fills"/><g class="errorbars"/><g class="lines"><path class="js-line" d="M413.23,158.49L414.44,210.86L414.85,199.86L415.25,178.5L415.66,189.74L416.06,200.42L417.23,168.85L417.68,160.62L418.04,134.04L418.48,146.86L418.85,170.59L419.25,142.35L419.65,160.07L420.06,140.22L420.46,138.32L420.83,154.06L421.23,151.61L421.67,141.56L422.08,144.96L422.44,128.98L423.25,105.49L423.65,117.67L424.86,83.65L425.27,69.02L425.67,64.75L426.08,89.98L426.48,88.64L426.84,105.17L428.05,144.25L428.46,140.69L428.86,149.79L429.27,160.07L429.67,140.14L430.88,172.1L431.24,176.13L431.65,162.92L432.05,183.57L432.46,187.76L432.86,167.82L433.26,166.8L433.67,134.04L434.07,111.42L434.48,114.03L434.88,123.21L435.28,117.99L435.69,119.33L436.05,148.21L436.86,109.05L437.26,112.05L437.67,110.23L438.47,80.01L438.88,56.76L439.28,60L439.69,70.13L440.05,65.38L440.45,71.95L440.86,71.07L441.26,61.19L442.07,105.88L442.47,87.29L445.26,180.24L445.66,160.94L446.07,111.02L446.47,135.39L446.87,137.76L447.28,121.23L447.68,130.17L448.09,133.02L449.26,114.98L449.7,116.64L450.06,117.27L451.28,107.31L451.68,116.32L452.08,117.27L452.49,127.8L452.89,85L453.26,91.33L453.7,97.73L454.47,51.54L454.87,80.01L455.27,51.3L455.68,64.11L456.08,87.21L456.89,120.83" style="vector-effect: none; fill: none; stroke: rgb(171, 99, 250); stroke-opacity: 1; stroke-width: 2px; opacity: 1;"/></g><g class="points"/><g class="text"/></g><g class="trace scatter trace6c4313" style="stroke-miterlimit: 2; opacity: 1;"><g class="fills"/><g class="errorbars"/><g class="lines"><path class="js-line" d="M0,222.72L0.77,241.39L1.17,239.1L1.49,237.44L2.02,231.66L2.34,247.64L2.79,238.47L3.19,275.25L3.59,293.05L4,288.31L4.77,256.5L5.17,271.06L5.57,265.6L5.98,258.88L7.59,214.02L8,234.2L9.17,215.84L9.61,217.9L9.98,220.19L11.59,158.81L11.99,160.39L12.4,162.84L13.17,170.59L13.57,197.25L13.97,207.14L14.38,203.5L14.78,233.72L16.4,289.89L16.8,276.99L17.57,249.7L17.97,276.12L18.78,293.53L19.18,261.57L19.99,251.84L20.4,260.3L20.8,260.85L21.16,232.06L21.97,254.76L22.78,231.58L23.59,257.69L23.99,221.06L25.6,186.65L26.01,192.82L26.41,195.43L26.78,187.21L27.18,178.82L27.58,187.52L28.39,193.06L28.8,182.3L31.18,294.79L31.58,303.81L34.01,231.74L34.37,243.29L34.77,262.59L35.58,224.86L36.79,246.69L37.2,224.78L38,217.03L38.41,219.24L38.81,181.11L41.19,122.73L41.6,136.26L45.19,277.23L45.6,257.14L46,257.14L46.4,280.87L47.21,295.03L47.62,279.68L47.94,280.39L48.42,291.55L48.83,291.07L49.19,299.85L50.81,268.84L51.21,279.29L52.02,292.66L52.42,264.65L53.23,230.79L53.63,231.11L54.04,227.23L54.44,218.85L54.84,226.84L55.25,227.31L55.61,204.85L56.02,152.56L56.82,179.29L57.23,169.64L57.63,171.07L58.04,187.28L59.65,256.74L60.05,240.44L60.46,244.8L60.86,257.53L61.63,270.9L62.03,260.93L62.44,239.81L62.84,251.84L63.24,267.42L63.65,241.47L64.05,248.67L64.46,244.64L64.86,239.73L65.26,257.85L65.63,257.53L66.44,228.82L67.24,233.4L67.65,220.98L69.67,191.48L70.03,175.89L70.43,190.69L71.24,151.37L72.05,220.11L72.45,216.79L72.86,202L74.07,283.08L74.47,281.74L74.84,281.5L75.64,246.62L76.45,260.93L76.86,250.97L77.26,236.49L77.66,256.66L78.07,276.91L78.47,254.13L78.87,253.34L79.24,255.16L79.64,230.79L80.45,230.08L80.85,236.88L81.26,227.79L81.66,242.11L82.06,229.84L82.47,232.22L83.24,222.33L83.64,207.46L84.85,144.01L85.26,162.6L85.66,168.22L86.47,136.81L88.04,246.46L88.45,224.94L88.85,220.75L89.25,229.13L89.66,252.55L90.47,228.1L90.95,217.11L91.27,234.51L92.44,266.95L92.85,253.81L94.06,214.5L94.46,229.77L94.87,229.13L95.27,218.37L96.08,228.26L96.44,220.35L96.85,218.22L97.25,212.05L97.65,211.02L98.06,198.04L98.46,194.25L99.27,172.81L100.08,122.57L100.48,134.28L100.88,153.19L102.06,184.44L102.46,173.12L103.67,245.74L104.08,230.64L104.48,228.1L105.29,254.68L105.69,250.97L106.05,241.63L106.46,253.42L106.86,255.16L107.27,238.78L108.07,234.35L108.48,227.63L108.88,224.39L109.29,225.18L109.69,211.25L110.09,214.89L110.5,205.08L110.9,217.27L111.3,210.38L111.71,209.83L112.48,200.65L112.88,205.72L113.69,194.64L114.09,178.98L114.9,183.65L115.3,154.38L115.71,150.26L116.51,167.67L116.92,168.46L117.32,207.85L118.09,232.61L118.49,251.12L119.71,277.23L120.11,271.22L120.51,272.56L120.92,278.65L121.32,278.57L121.72,265.44L122.13,278.18L122.53,258.4L123.7,235.46L124.11,234.04L125.32,251.28L125.72,239.57L126.13,228.82L126.53,238.94L127.34,203.98L127.7,207.62L128.11,176.53L128.51,186.97L128.91,185.46L129.72,153.03L130.12,154.61L130.53,161.57L130.93,147.02L131.3,159.04L131.74,192.66L132.1,186.97L132.71,191.48L133.32,209.43L133.72,239.18L134.53,258.88L134.93,228.97L135.7,246.93L136.1,260.78L136.51,263.62L136.91,255.48L138.12,227.31L138.53,224.54L138.93,225.97L139.33,210.3L139.74,196.38L140.14,203.03L140.5,217.9L141.31,213.94L141.72,201.29L144.14,111.5L144.5,130.25L144.95,117.04L145.31,149L146.12,188.15L146.52,229.84L146.93,206.43L147.29,214.26L147.73,245.27L148.14,253.73L148.5,236.65L150.16,276.6L150.56,253.81L151.33,240.37L151.73,241.71L152.14,241.39L152.54,245.27L152.94,221.78L153.35,219.16L153.75,237.36L154.96,214.02L155.33,186.33L156.13,181.11L156.66,219.56L157.75,146.94L158.15,159.2L158.56,152.64L158.92,134.68L159.32,127.8L159.77,156.04L160.54,152.56L160.94,136.18L161.5,157.94L161.63,196.7L163.32,224.39L163.73,255.08L164.57,280.16L164.94,256.66L165.34,254.68L165.75,255.55L166.15,224.15L166.96,267.02L167.36,265.76L167.76,225.89L168.53,217.11L169.74,204.93L170.15,210.38L170.51,207.06L171,192.11L171.36,204.21L171.76,203.26L172.17,191.48L172.57,211.73L172.97,175.73L173.38,128.19L173.78,148.84L174.15,147.57L174.59,141.32L174.99,151.76L175.36,162.13L175.8,144.41L176.89,206.67L177.38,196.3L178.59,220.43L178.99,203.58L179.4,209.2L179.8,237.44L180.57,262.91L180.97,239.1L182.59,220.59L182.95,221.14L183.39,227.63L183.8,200.1L184.16,192.66L184.61,193.06L184.97,205.48L185.78,171.23L186.18,199.47L186.58,202.24L186.99,183.49L188.6,115.45" style="vector-effect: none; fill: none; stroke: rgb(255, 161, 90); stroke-opacity: 1; stroke-width: 2px; opacity: 1;"/></g><g class="points"/><g class="text"/></g></g></g><g class="overplot"/><path class="xlines-above crisp" d="M0,0" style="fill: none;"/><path class="ylines-above crisp" d="M0,0" style="fill: none;"/><g class="overlines-above"/><g class="xaxislayer-above"><g class="xtick"><text text-anchor="middle" x="0" y="433" transform="translate(110.09,0)" style="font-family: 'Open Sans', verdana, arial, sans-serif; font-size: 12px; fill: rgb(42, 63, 95); fill-opacity: 1; white-space: pre; opacity: 1;">1995</text></g><g class="xtick"><text text-anchor="middle" x="0" y="433" style="font-family: 'Open Sans', verdana, arial, sans-serif; font-size: 12px; fill: rgb(42, 63, 95); fill-opacity: 1; white-space: pre; opacity: 1;" transform="translate(183.82999999999998,0)">2000</text></g><g class="xtick"><text text-anchor="middle" x="0" y="433" style="font-family: 'Open Sans', verdana, arial, sans-serif; font-size: 12px; fill: rgb(42, 63, 95); fill-opacity: 1; white-space: pre; opacity: 1;" transform="translate(257.62,0)">2005</text></g><g class="xtick"><text text-anchor="middle" x="0" y="433" style="font-family: 'Open Sans', verdana, arial, sans-serif; font-size: 12px; fill: rgb(42, 63, 95); fill-opacity: 1; white-space: pre; opacity: 1;" transform="translate(331.36,0)">2010</text></g><g class="xtick"><text text-anchor="middle" x="0" y="433" style="font-family: 'Open Sans', verdana, arial, sans-serif; font-size: 12px; fill: rgb(42, 63, 95); fill-opacity: 1; white-space: pre; opacity: 1;" transform="translate(405.11,0)">2015</text></g><g class="xtick"><text text-anchor="middle" x="0" y="433" style="font-family: 'Open Sans', verdana, arial, sans-serif; font-size: 12px; fill: rgb(42, 63, 95); fill-opacity: 1; white-space: pre; opacity: 1;" transform="translate(478.86,0)">2020</text></g></g><g class="yaxislayer-above"><g class="ytick"><text text-anchor="end" x="79" y="4.199999999999999" transform="translate(0,399.84)" style="font-family: 'Open Sans', verdana, arial, sans-serif; font-size: 12px; fill: rgb(42, 63, 95); fill-opacity: 1; white-space: pre; opacity: 1;">−100</text></g><g class="ytick"><text text-anchor="end" x="79" y="4.199999999999999" style="font-family: 'Open Sans', verdana, arial, sans-serif; font-size: 12px; fill: rgb(42, 63, 95); fill-opacity: 1; white-space: pre; opacity: 1;" transform="translate(0,360.29)">−50</text></g><g class="ytick"><text text-anchor="end" x="79" y="4.199999999999999" style="font-family: 'Open Sans', verdana, arial, sans-serif; font-size: 12px; fill: rgb(42, 63, 95); fill-opacity: 1; white-space: pre; opacity: 1;" transform="translate(0,320.73)">0</text></g><g class="ytick"><text text-anchor="end" x="79" y="4.199999999999999" style="font-family: 'Open Sans', verdana, arial, sans-serif; font-size: 12px; fill: rgb(42, 63, 95); fill-opacity: 1; white-space: pre; opacity: 1;" transform="translate(0,281.18)">50</text></g><g class="ytick"><text text-anchor="end" x="79" y="4.199999999999999" style="font-family: 'Open Sans', verdana, arial, sans-serif; font-size: 12px; fill: rgb(42, 63, 95); fill-opacity: 1; white-space: pre; opacity: 1;" transform="translate(0,241.62)">100</text></g><g class="ytick"><text text-anchor="end" x="79" y="4.199999999999999" style="font-family: 'Open Sans', verdana, arial, sans-serif; font-size: 12px; fill: rgb(42, 63, 95); fill-opacity: 1; white-space: pre; opacity: 1;" transform="translate(0,202.07)">150</text></g><g class="ytick"><text text-anchor="end" x="79" y="4.199999999999999" style="font-family: 'Open Sans', verdana, arial, sans-serif; font-size: 12px; fill: rgb(42, 63, 95); fill-opacity: 1; white-space: pre; opacity: 1;" transform="translate(0,162.52)">200</text></g><g class="ytick"><text text-anchor="end" x="79" y="4.199999999999999" style="font-family: 'Open Sans', verdana, arial, sans-serif; font-size: 12px; fill: rgb(42, 63, 95); fill-opacity: 1; white-space: pre; opacity: 1;" transform="translate(0,122.96000000000001)">250</text></g></g><g class="overaxes-above"/></g></g><g class="polarlayer"/><g class="smithlayer"/><g class="ternarylayer"/><g class="geolayer"/><g class="funnelarealayer"/><g class="pielayer"/><g class="iciclelayer"/><g class="treemaplayer"/><g class="sunburstlayer"/><g class="glimages"/><defs id="topdefs-7b7ff4"><g class="clips"/><clipPath id="legend7b7ff4"><rect width="139" height="105" x="0" y="0"/></clipPath></defs><g class="layer-above"><g class="imagelayer"/><g class="shapelayer"/></g><g class="infolayer"><g class="legend" pointer-events="all" transform="translate(549.2,100)"><rect class="bg" shape-rendering="crispEdges" width="139" height="105" x="0" y="0" style="stroke: rgb(68, 68, 68); stroke-opacity: 1; fill: rgb(255, 255, 255); fill-opacity: 1; stroke-width: 0px;"/><g class="scrollbox" transform="" clip-path="url(#legend7b7ff4)"><g class="groups"><g class="traces" transform="translate(0,14.5)" style="opacity: 1;"><text class="legendtext" text-anchor="start" x="40" y="4.680000000000001" style="font-family: 'Open Sans', verdana, arial, sans-serif; font-size: 12px; fill: rgb(42, 63, 95); fill-opacity: 1; white-space: pre;">Jason.1</text><g class="layers" style="opacity: 1;"><g class="legendfill"/><g class="legendlines"><path class="js-line" d="M5,0h30" style="fill: none; stroke: rgb(99, 110, 250); stroke-opacity: 1; stroke-width: 2px;"/></g><g class="legendsymbols"><g class="legendpoints"/></g></g><rect class="legendtoggle" x="0" y="-9.5" width="133.84375" height="19" style="fill: rgb(0, 0, 0); fill-opacity: 0;"/></g><g class="traces" transform="translate(0,33.5)" style="opacity: 1;"><text class="legendtext" text-anchor="start" x="40" y="4.680000000000001" style="font-family: 'Open Sans', verdana, arial, sans-serif; font-size: 12px; fill: rgb(42, 63, 95); fill-opacity: 1; white-space: pre;">Jason.2</text><g class="layers" style="opacity: 1;"><g class="legendfill"/><g class="legendlines"><path class="js-line" d="M5,0h30" style="fill: none; stroke: rgb(239, 85, 59); stroke-opacity: 1; stroke-width: 2px;"/></g><g class="legendsymbols"><g class="legendpoints"/></g></g><rect class="legendtoggle" x="0" y="-9.5" width="133.84375" height="19" style="fill: rgb(0, 0, 0); fill-opacity: 0;"/></g><g class="traces" transform="translate(0,52.5)" style="opacity: 1;"><text class="legendtext" text-anchor="start" x="40" y="4.680000000000001" style="font-family: 'Open Sans', verdana, arial, sans-serif; font-size: 12px; fill: rgb(42, 63, 95); fill-opacity: 1; white-space: pre;">Jason.3</text><g class="layers" style="opacity: 1;"><g class="legendfill"/><g class="legendlines"><path class="js-line" d="M5,0h30" style="fill: none; stroke: rgb(0, 204, 150); stroke-opacity: 1; stroke-width: 2px;"/></g><g class="legendsymbols"><g class="legendpoints"/></g></g><rect class="legendtoggle" x="0" y="-9.5" width="133.84375" height="19" style="fill: rgb(0, 0, 0); fill-opacity: 0;"/></g><g class="traces" transform="translate(0,71.5)" style="opacity: 1;"><text class="legendtext" text-anchor="start" x="40" y="4.680000000000001" style="font-family: 'Open Sans', verdana, arial, sans-serif; font-size: 12px; fill: rgb(42, 63, 95); fill-opacity: 1; white-space: pre;">Sentinel-6MF</text><g class="layers" style="opacity: 1;"><g class="legendfill"/><g class="legendlines"><path class="js-line" d="M5,0h30" style="fill: none; stroke: rgb(171, 99, 250); stroke-opacity: 1; stroke-width: 2px;"/></g><g class="legendsymbols"><g class="legendpoints"/></g></g><rect class="legendtoggle" x="0" y="-9.5" width="133.84375" height="19" style="fill: rgb(0, 0, 0); fill-opacity: 0;"/></g><g class="traces" transform="translate(0,90.5)" style="opacity: 1;"><text class="legendtext" text-anchor="start" x="40" y="4.680000000000001" style="font-family: 'Open Sans', verdana, arial, sans-serif; font-size: 12px; fill: rgb(42, 63, 95); fill-opacity: 1; white-space: pre;">TOPEX.Poseidon</text><g class="layers" style="opacity: 1;"><g class="legendfill"/><g class="legendlines"><path class="js-line" d="M5,0h30" style="fill: none; stroke: rgb(255, 161, 90); stroke-opacity: 1; stroke-width: 2px;"/></g><g class="legendsymbols"><g class="legendpoints"/></g></g><rect class="legendtoggle" x="0" y="-9.5" width="133.84375" height="19" style="fill: rgb(0, 0, 0); fill-opacity: 0;"/></g></g></g><rect class="scrollbar" rx="20" ry="3" width="0" height="0" x="0" y="0" style="fill: rgb(128, 139, 164); fill-opacity: 1;"/></g><g class="g-gtitle"><text class="gtitle" x="35" y="50" text-anchor="start" dy="0em" style="font-family: 'Open Sans', verdana, arial, sans-serif; font-size: 17px; fill: rgb(42, 63, 95); opacity: 1; font-weight: normal; white-space: pre;">Mean Sea Levels Changing - Gulf Mexico</text></g><g class="g-xtitle"><text class="xtitle" x="310" y="460.3" text-anchor="middle" style="font-family: 'Open Sans', verdana, arial, sans-serif; font-size: 14px; fill: rgb(42, 63, 95); opacity: 1; font-weight: normal; white-space: pre;">Date</text></g><g class="g-ytitle"><text class="ytitle" transform="rotate(-90,27.668750000000003,260)" x="27.668750000000003" y="260" text-anchor="middle" style="font-family: 'Open Sans', verdana, arial, sans-serif; font-size: 14px; fill: rgb(42, 63, 95); opacity: 1; font-weight: normal; white-space: pre;">Change in Sea Level [mm]</text></g></g></svg>