<svg class="main-svg" xmlns="http://www.w3.org/2000/svg" xmlns:xlink="http://www.w3.org/1999/xlink" width="700" height="500" style="" viewBox="0 0 700 500"><rect x="0" y="0" width="700" height="500" style="fill: rgb(255, 255, 255); fill-opacity: 1;"/><defs id="defs-f7a5d2"><g class="clips"><clipPath id="clipf7a5d2xyplot" class="plotclip"><rect width="460" height="320"/></clipPath><clipPath class="axesclip" id="clipf7a5d2x"><rect x="80" y="0" width="460" height="500"/></clipPath><clipPath class="axesclip" id="clipf7a5d2y"><rect x="0" y="100" width="700" height="320"/></clipPath><clipPath class="axesclip" id="clipf7a5d2xy"><rect x="80" y="100" width="460" height="320"/></clipPath></g><g class="gradients"/><g class="patterns"/></defs><g class="bglayer"><rect class="bg" x="80" y="100" width="460" height="320" style="fill: rgb(229, 236, 246); fill-opacity: 1; stroke-width: 0;"/></g><g class="layer-below"><g class="imagelayer"/><g class="shapelayer"/></g><g class="cartesianlayer"><g class="subplot xy"><g class="layer-subplot"><g class="shapelayer"/><g class="imagelayer"/></g><g class="minor-gridlayer"><g class="x"/><g class="y"/></g><g class="gridlayer"><g class="x"><path class="xgrid crisp" transform="translate(110.09,0)" d="M0,100v320" style="stroke: rgb(255, 255, 255); stroke-opacity: 1; stroke-width: 1px;"/><path class="xgrid crisp" transform="translate(183.82999999999998,0)" d="M0,100v320" style="stroke: rgb(255, 255, 255); stroke-opacity: 1; stroke-width: 1px;"/><path class="xgrid crisp" transform="translate(257.62,0)" d="M0,100v320" style="stroke: rgb(255, 255, 255); stroke-opacity: 1; stroke-width: 1px;"/><path class="xgrid crisp" transform="translate(331.36,0)" d="M0,100v320" style="stroke: rgb(255, 255, 255); stroke-opacity: 1; stroke-width: 1px;"/><path class="xgrid crisp" transform="translate(405.11,0)" d="M0,100v320" style="stroke: rgb(255, 255, 255); stroke-opacity: 1; stroke-width: 1px;"/><path class="xgrid crisp" transform="translate(478.86,0)" d="M0,100v320" style="stroke: rgb(255, 255, 255); stroke-opacity: 1; stroke-width: 1px;"/></g><g class="y"><path class="ygrid crisp" transform="translate(0,396.22)" d="M80,0h460" style="stroke: rgb(255, 255, 255); stroke-opacity: 1; stroke-width: 1px;"/><path class="ygrid crisp" transform="translate(0,360.36)" d="M80,0h460" style="stroke: rgb(255, 255, 255); stroke-opacity: 1; stroke-width: 1px;"/><path class="ygrid crisp" transform="translate(0,324.49)" d="M80,0h460" style="stroke: rgb(255, 255, 255); stroke-opacity: 1; stroke-width: 1px;"/><path class="ygrid crisp" transform="translate(0,252.76)" d="M80,0h460" style="stroke: rgb(255, 255, 255); stroke-opacity: 1; stroke-width: 1px;"/><path class="ygrid crisp" transform="translate(0,216.9)" d="M80,0h460" style="stroke: rgb(255, 255, 255); stroke-opacity: 1; stroke-width: 1px;"/><path class="ygrid crisp" transform="translate(0,181.03)" d="M80,0h460" style="stroke: rgb(255, 255, 255); stroke-opacity: 1; stroke-width: 1px;"/><path class="ygrid crisp" transform="translate(0,145.17000000000002)" d="M80,0h460" style="stroke: rgb(255, 255, 255); stroke-opacity: 1; stroke-width: 1px;"/><path class="ygrid crisp" transform="translate(0,109.3)" d="M80,0h460" style="stroke: rgb(255, 255, 255); stroke-opacity: 1; stroke-width: 1px;"/></g></g><g class="zerolinelayer"><path class="yzl zl crisp" transform="translate(0,288.63)" d="M80,0h460" style="stroke: rgb(255, 255, 255); stroke-opacity: 1; stroke-width: 2px;"/></g><g class="layer-between"><g class="shapelayer"/><g class="imagelayer"/></g><path class="xlines-below"/><path class="ylines-below"/><g class="overlines-below"/><g class="xaxislayer-below"/><g class="yaxislayer-below"/><g class="overaxes-below"/><g class="plot" transform="translate(80,100)" clip-path="url(#clipf7a5d2xyplot)"><g class="scatterlayer mlayer"><g class="trace scatter trace4cfdf6" style="stroke-miterlimit: 2; opacity: 1;"><g class="fills"/><g class="errorbars"/><g class="lines"><path class="js-line" d="M134.12,215L134.53,189.39L134.93,216.79L135.33,212.77L135.7,226.69L136.1,206.75L136.51,222.38L136.91,259.68L137.72,165.29L138.12,217.22L138.93,233.07L139.33,217.36L140.14,192.47L140.54,228.27L141.31,191.9L141.72,164.07L142.52,174.32L142.93,158.97L144.1,94.92L144.54,131.79L144.91,111.27L145.31,112.49L145.71,141.33L146.12,135.81L146.52,87.1L147.73,147.5L148.14,120.89L148.5,135.09L148.9,214.85L149.71,224.32L150.12,253.01L150.92,256.82L151.33,278.12L152.9,222.38L153.35,234.79L153.71,238.52L154.11,213.63L154.52,220.02L154.92,211.7L155.73,180.78L156.13,182.57L157.75,148L158.11,137.74L158.92,149.51L159.32,119.59L159.73,144.84L160.13,107.97L160.54,75.69L160.9,137.89L161.5,170.16L161.75,130.57L162.55,175.04L162.92,169.23L163.32,183.08L163.73,203.09L164.13,171.67L164.49,241.11L165.02,212.77L165.34,172.6L166.15,284.07L166.51,235.58L166.96,237.88L167.36,246.13L168.13,169.59L168.57,218.08L168.94,218.3L169.34,211.12L169.74,207.75L170.15,185.16L170.55,208.18L170.96,202.01L171.36,171.96L172.17,127.77L172.57,149.08L172.97,143.55L173.38,146.56L173.78,107.11L174.19,115.79L174.55,107.83L174.99,112.35L175.36,109.48L175.76,123.25L176.97,209.33L177.38,193.84L177.78,192.33L178.18,243.55L178.99,174.54L179.4,286.87L180.16,204.31L180.57,223.82L180.97,230.06L181.37,211.55L181.78,236.8L182.99,200.94L183.39,227.19L183.8,222.46L184.2,195.77L184.61,170.09L184.97,188.38L185.37,184.01L185.78,181L186.18,150.8L186.58,147.78L186.99,135.73L187.39,135.81L187.8,143.91L188.12,137.96L188.64,149.94L188.97,148.57L189.37,137.45L189.78,131.57L190.18,138.1L190.58,173.54L190.99,156.54L191.39,120.1L192.2,202.66L192.6,184.51L193.37,241.32L193.77,238.52L194.18,213.42L195.79,174.32L196.2,207.46L196.56,202.87L197,243.69L198.58,205.81L198.98,215.43L199.79,154.31L200.19,175.69L200.6,187.81L201,164.21L201.77,135.66L202.17,151.8L202.62,153.59L202.98,126.62L203.39,105.61L203.79,132.79L204.19,122.46L204.48,70.75L206.98,232.79L207.38,214.28L208.19,193.19L208.6,222.38L209,186.38L209.4,209.33L209.81,217.44L210.21,264.42L210.57,215.93L211.79,270.87L212.19,242.9L213,186.3L213.4,188.03L213.81,187.45L214.21,173.97L214.61,183.51L214.98,191.76L215.78,159.48L216.19,163.49L216.59,160.12L217,170.74L217.4,155.39L217.8,154.46L218.21,116.37L218.61,114.21L219.01,144.48L219.78,174.61L220.19,123.54L220.59,183.58L220.99,157.04L221.4,171.1L221.8,236.44L222.21,175.9L222.61,175.4L223.01,208.33L224.22,271.74L224.59,241.97L225.4,204.24L225.8,216.29L226.2,170.81L226.61,195.92L226.93,233.43L227.42,228.77L227.82,191.61L228.22,214.35L228.63,211.77L229.03,178.27L229.43,171.03L229.84,189.53L230.24,191.18L230.57,181.71L231.82,160.7L232.22,126.98L232.63,123.4L233.03,137.89L233.43,170.88L233.84,143.12L234.24,117.23L234.64,111.2L235.05,160.12L235.45,115.22L235.86,136.88L236.26,163.78L237.47,248.28L238.48,171.67L238.84,264.35L239.25,246.13L239.65,220.88L240.06,253.44L240.46,237.81L240.86,241.54L242.84,199.86L243.25,145.92L243.65,151.44L244.05,143.34L244.86,185.51L245.27,168.66L246.48,142.76L246.84,151.73L248.05,115.22L248.46,121.6L248.86,108.76L250.07,151.8L250.48,120.67L250.84,112.28L251.24,45.5L252.05,113.21L252.45,208.54L252.86,201.58L253.26,138.67L253.67,91.19L254.07,139.03L255.24,264.2L255.65,231.85L256.86,174.25L257.26,205.96L257.62,193.76L258.07,147.86L258.88,179.49L259.28,176.91L259.6,162.2L260.05,158.04L260.45,139.68L260.86,139.61L261.26,125.05L263.28,76.91L263.64,112.06L264.05,105.53L264.45,66.94L264.85,70.6L265.26,97.86L267.68,221.45L268.08,194.62L268.45,164.71L268.85,250.5L269.26,237.59L269.66,268.51L270.06,263.63L270.47,238.67L271.27,172.75L271.68,225.83L272.89,164.71L273.25,186.38L274.47,139.75L274.87,158.76L275.27,161.41L275.68,144.41L276.08,127.99L276.48,134.3L276.85,131.21L277.25,149.86L277.66,125.05L278.06,120.45L278.46,129.64L278.87,136.45L279.27,171.24L279.63,202.95L280.08,141.54L280.48,140.11L280.89,194.84L281.29,197.57L281.65,214.06L282.46,249.71L282.7,274.53L283.31,277.98L286.22,189.75L286.66,175.97L287.11,204.81L287.55,214.49L287.83,213.71L288.16,179.35L288.6,178.27L289.04,187.88L290.05,137.67L290.5,128.13L290.94,141.11L291.39,127.05L291.71,123.32L291.99,97.64L292.44,107.83L292.88,88.82L293.16,67.23L293.49,79.5L293.93,174.97L295.1,130.86L295.43,131L295.87,193.62L296.27,191.97L296.72,115.72L298.01,243.4L298.78,156.32L298.94,148.93L299.26,152.95L299.71,165.57L300.15,246.7L300.43,229.41L300.72,207.61L301.6,174.9L302.05,184.94L302.33,176.19L302.49,182.5" style="vector-effect: none; fill: none; stroke: rgb(99, 110, 250); stroke-opacity: 1; stroke-width: 2px; opacity: 1;"/></g><g class="points"/><g class="text"/></g><g class="trace scatter trace4c3f9b" style="stroke-miterlimit: 2; opacity: 1;"><g class="fills"/><g class="errorbars"/><g class="lines"><path class="js-line" d="M229.47,154.48L230.24,179.58L230.65,167.6L232.22,111.8L232.63,111.87L233.03,123.85L233.43,153.9L233.84,122.99L234.24,102.26L234.64,103.19L235.05,155.91L235.45,118.9L235.86,141.21L236.26,168.03L237.47,247.22L237.83,154.69L238.24,137.05L238.64,215.81L239.05,267.31L239.45,221.83L239.85,254.04L240.26,243.64L240.66,253.47L241.83,220.76L242.24,216.24L242.64,215.73L243.04,168.61L243.85,144.08L244.26,143.65L244.66,172.12L245.06,172.05L245.47,155.27L247.04,137.19L247.45,118.4L247.85,125.28L248.25,121.98L248.66,110.15L249.06,133.03L249.47,110L249.87,149.31L250.23,144.36L250.68,135.9L251.45,63.45L251.85,105.41L252.66,233.88L253.06,182.45L253.46,114.74L253.87,115.02L254.27,186.68L255.44,268.96L255.85,203.25L256.25,214.23L256.65,194.65L257.06,191.27L257.46,207.99L258.27,139.2L258.67,163.73L259.08,168.61L259.48,163.01L262.27,96.09L262.67,107.78L263.08,80.74L263.48,101.4L263.88,137.19L264.25,73.78L264.65,79.3L265.06,82.24L265.46,132.38L265.86,109.14L266.27,138.91L266.67,155.41L267.07,221.4L267.48,202.82L267.88,236.54L268.29,179.65L268.65,222.84L269.05,257.12L269.46,258.99L269.86,276.56L271.07,192.14L271.48,213.15L271.88,221.47L272.28,190.63L272.65,170.62L273.05,182.02L273.46,182.67L274.67,135.75L275.07,155.98L275.47,158.06L275.88,133.75L276.65,124.28L277.05,134.61L277.45,138.19L277.86,127.43L278.26,122.34L278.67,131.67L279.47,192.06L279.88,170.83L280.28,136.26L282.26,242.06L282.66,271.33L283.07,270.39L283.47,258.7L283.88,240.12L284.28,260.64L285.49,182.31L285.89,188.76L286.3,189.7L286.7,166.38L287.51,200.53L287.91,188.19L288.28,165.88L288.68,174.2L289.09,167.39L290.3,118.97L290.7,119.11L291.1,131.24L291.51,117.46L293.12,65.82L293.53,80.45L293.89,167.75L294.34,156.77L294.7,130.81L295.1,130.02L295.51,135.9L295.91,204.69L296.31,195.36L296.72,117.97L297.93,231.87L298.33,213.58L299.06,143.79L299.59,146.51L300.31,238.04L300.72,205.33L301.52,164.95L301.93,177.57L302.33,171.91L302.74,181.02L303.14,179.51L303.54,145.87L303.91,150.03L304.31,135.32L305.48,118.61L306.01,138.34L306.73,88.05L307.14,102.69L307.5,106.63L308.71,115.17L309.12,157.27L309.92,193.43L310.33,179.8L310.73,162.15L311.14,181.81L311.54,187.04L311.94,179.8L312.35,191.85L312.71,248.8L313.12,234.82L313.52,262.5L315.13,181.16L315.54,194.86L315.94,229.36L316.35,209.14L316.71,207.06L317.52,132.1L317.92,144.79L318.32,152.76L319.13,127.65L319.54,144L320.34,106.85L320.75,88.2L321.15,75.21L321.52,140.2L322.32,97.67L322.73,117.97L323.53,92.29L323.94,110.72L325.92,238.47L326.32,210.43L326.73,166.89L327.13,274.2L327.94,252.96L328.34,270.39L328.74,220.18L329.15,235.17L329.55,273.98L330.32,181.95L330.72,218.75L331.13,215.38L331.53,222.98L332.34,155.84L332.74,182.95L334.36,117.61L334.72,125.93L335.13,125.86L335.53,118.32L336.74,71.56L337.14,74.57L337.55,112.59L337.95,146.59L338.36,133.24L338.72,107.49L339.93,189.62L340.34,113.16L341.14,198.95L341.55,192.14L341.95,191.63L342.35,215.88L342.76,190.13L343.16,216.45L343.53,214.37L343.97,213.8L344.37,176.79L344.74,196.87L345.14,177.43L345.55,176.57L345.95,191.13L346.35,198.3L346.76,153.4L347.97,167.17L348.37,131.67L348.78,122.34L349.18,137.69L350.39,109.64L350.8,111.01L351.76,94.44L352.17,100.68L352.57,76.22L352.98,128.87L353.38,107.06L353.78,166.67L354.59,213.22L355,177.57L355.8,226.06L356.21,189.62L356.97,244.71L357.38,197.66L358.31,240.77L358.59,236.61L360.08,136.04" style="vector-effect: none; fill: none; stroke: rgb(239, 85, 59); stroke-opacity: 1; stroke-width: 2px; opacity: 1;"/></g><g class="points"/><g class="text"/></g><g class="trace scatter trace36ff91" style="stroke-miterlimit: 2; opacity: 1;"><g class="fills"/><g class="errorbars"/><g class="lines"><path class="js-line" d="M341.63,180.24L341.95,182.68L342.35,197.17L342.72,171.56L343.12,206.57L343.57,214.24L343.93,205.06L344.37,171.49L344.74,186.63L345.14,172.93L345.55,172.71L345.95,188.56L346.35,196.31L346.76,147.25L347.16,150.47L347.56,160.95L347.97,165.39L348.37,130.82L348.78,118.27L349.18,136.49L350.35,108.15L350.76,113.96L351.16,126.59L351.56,93.59L352.37,91.94L352.77,87.28L354.39,212.74L354.79,191.65L355.2,172.14L355.6,211.59L355.96,202.26L356.37,179.67L356.77,249.68L357.18,206.21L357.58,198.03L357.98,238.27L358.39,234.76L358.79,220.91L360,164.61L360.37,184.69L360.77,192.08L361.17,190.72L361.58,156.71L361.98,136.34L362.39,143.95L362.79,148.54L363.6,118.7L364,136.56L365.17,99.55L365.58,125.66L366.38,101.77L366.79,107.94L367.19,119.7L367.6,119.77L368,104.85L369.17,173.86L369.58,117.91L370.38,189.78L370.79,246.81L372,95.89L372.4,117.41L372.81,137.2L373.98,227.73L374.38,209.29L374.78,180.03L375.19,168.84L375.59,172.5L376,168.98L378.38,118.63L378.78,118.48L379.19,115.25L379.59,100.12L379.99,91.22L380.4,103.63L380.8,104.06L381.21,116.26L382.01,84.48L382.38,118.48L382.78,81.97L383.19,105.79L383.59,110.81L384.4,190.07L384.8,163.53L385.61,126.87L385.97,197.96L386.25,242.94L386.86,187.27L387.59,259.65L387.91,216.25L388.4,169.63L388.8,223.35L389.61,181.61L390.01,187.49L390.41,191.65L390.82,188.13L391.18,155.42L391.59,155.28L391.99,138.71L392.39,140.29L392.8,139L393.2,135.91L394.41,122.43L394.82,145.38L395.58,91.94L395.99,98.18L396.39,102.99L396.8,67.98L397.2,57.22L397.6,63.25L398.01,154.85L398.81,99.98L399.22,169.12L399.95,217.76L400.59,191.29L401.2,207.86L401.6,161.81L402.41,239.85L402.81,200.76L403.22,211.23L403.62,167.55L404.02,175.01L404.43,165.32L404.83,191.79L405.24,152.41L405.6,102.06L406.04,138.78L406.45,147.17L408.02,108.87L408.43,111.95L408.83,105.43L409.23,112.53L410.04,89.22L410.45,74.01L410.81,73.65L411.25,94.81L411.66,111.67L412.06,84.41L412.47,87.71L412.87,56.22L413.64,157L414.04,120.78L414.44,155.21L414.85,133.12L415.25,100.41L416.46,262.23L416.87,222.42L417.23,224.29L417.63,211.88L418.44,179.53L418.85,186.2L419.25,199.54L419.65,215.18L420.06,165.54L420.46,134.19L420.87,146.6L421.27,168.48L422.04,105.07L422.44,108.15L422.84,126.73L423.25,119.34L423.65,97.25L424.06,93.38L424.46,103.2L424.86,117.33L425.27,100.12L425.67,108.58L426.04,91.08L426.84,130.75L427.25,69.56L427.65,84.19L428.05,140.86L428.46,121.78L428.86,145.02L429.67,227.15L430.07,188.49L430.48,200.54L430.84,233.9L431.24,226.65L431.65,278.51L433.06,178.95L433.35,199.75L433.75,188.71L434.15,180.67L434.56,145.17L434.96,159.58L435.36,150.33L435.77,142.08L436.13,170.13L436.54,141.87L436.94,113.46L437.34,128.31L437.75,123.07L439.36,91.15L439.77,100.26L440.13,96.1L440.53,75.59L440.94,81.47L441.34,76.45L441.75,61.81L442.15,92.87L442.55,35.35L443.72,140.36L444.17,144.88L444.94,271.2L445.34,257.86L445.74,136.49L446.15,141.01L446.55,189.07L447.36,197.1L447.76,178.23L448.17,160.52L448.57,183.76L449.34,140L449.74,109.95L450.15,102.34L450.55,120.06L450.95,114.82L451.36,124.65L453.74,76.02L454.14,82.76L454.55,86.56L454.95,46.82L456.16,79.89L456.57,76.52L456.97,57.22L457.78,99.11L458.14,80.03L458.55,83.41L458.95,139.86L459.35,179.45L459.76,106.43L460,174.15" style="vector-effect: none; fill: none; stroke: rgb(0, 204, 150); stroke-opacity: 1; stroke-width: 2px; opacity: 1;"/></g><g class="points"/><g class="text"/></g><g class="trace scatter trace88b96d" style="stroke-miterlimit: 2; opacity: 1;"><g class="fills"/><g class="errorbars"/><g class="lines"><path class="js-line" d="M413.27,124.39L413.64,154.94L414.04,118.79L414.44,151.57L414.85,130.91L415.25,96.98L416.46,260.67L416.87,214.55L417.27,227.25L417.63,208.96L418.48,179.19L418.85,188.3L419.25,200.21L419.65,216.56L420.06,168.14L420.46,137.3L420.87,153.8L421.27,169.86L422.04,107.24L422.44,109.39L422.88,127.18L423.25,121.44L423.65,99.71L424.06,95.98L424.46,103.15L424.86,115.13L425.27,97.7L425.67,107.53L426.08,90.82L426.88,128.55L427.25,64.27L427.65,77.98L428.05,143.82L428.46,121.52L428.86,142.1L429.67,221.29L430.07,185.79L430.48,196.91L430.84,231.41L431.24,222.51L431.65,271.15L433.26,191.45L433.67,203.5L435.65,138.01L436.05,168.36L436.86,117.36L437.26,126.61L437.67,128.12L439.65,91.96L440.05,110.18L441.66,48.57L442.07,92.61L442.47,49L442.88,72.52L443.28,128.76L443.68,138.09L444.05,130.12L444.45,185.79L445.26,278.82L445.66,148.49L446.07,132.85L446.47,183.13L446.87,186.72L447.28,197.55L448.09,158.1L448.49,181.27L448.85,178.54L449.26,151.57L450.06,103.22L450.47,124.31L450.87,112.69L451.28,128.9L452.04,101.65L452.49,106.74L452.89,77.26L453.26,80.7L453.66,76.25L454.47,93.68L454.87,60.54L455.27,16L455.68,40.03L456.08,78.19L456.49,80.2L456.89,50.43" style="vector-effect: none; fill: none; stroke: rgb(171, 99, 250); stroke-opacity: 1; stroke-width: 2px; opacity: 1;"/></g><g class="points"/><g class="text"/></g><g class="trace scatter tracedebf82" style="stroke-miterlimit: 2; opacity: 1;"><g class="fills"/><g class="errorbars"/><g class="lines"><path class="js-line" d="M0,153.58L1.53,261.68L2.02,244.18L2.34,304L2.79,285.49L3.19,235.71L4,291.52L4.77,258.16L6.38,221.29L6.78,219.5L7.19,218.86L7.55,220.51L7.96,213.98L8.36,227.32L11.19,137.3L11.59,152.5L11.99,112.55L12.4,115.71L13.17,138.09L13.57,209.17L13.97,193.25L14.38,169.93L15.19,184.85L15.59,168.72L15.99,188.37L16.4,282.84L16.76,266.34L17.16,191.96L18.78,293.38L19.18,278.11L19.99,213.91L20.4,234.13L20.8,226.32L21.16,188.94L21.57,212.54L21.97,225.74L23.18,200.21L23.59,204.01L23.99,179.55L24.8,173.95L25.2,161.83L25.6,170.08L25.97,148.06L26.37,141.31L26.78,169.72L27.58,131.2L28.39,136.72L29.6,188.87L29.97,177.11L30.77,232.27L31.18,217.78L31.58,219.5L31.99,206.23L32.39,250.99L33.6,282.7L34.01,270.65L34.77,236L35.58,233.85L35.98,236.43L36.39,231.62L36.79,201.42L37.2,207.67L38,187.29L38.41,189.45L38.81,188.8L39.17,187.8L40.39,142.53L40.79,155.3L41.6,176.32L42.41,149.28L43.17,118.22L43.98,161.11L44.79,89.74L45.19,102.15L45.6,199.7L46,165.34L46.4,195.9L47.62,254.58L48.02,214.55L48.83,230.05L49.19,254.86L49.63,260.24L50,188.73L50.4,167.35L50.81,209.17L51.21,228.04L52.02,228.54L53.23,176.89L53.63,179.12L54.04,159.89L54.44,163.84L54.84,180.91L55.65,118.86L56.02,139.23L56.82,133.07L57.23,145.9L57.63,123.74L58.04,104.73L58.44,133.07L58.84,149.28L59.25,115.71L59.65,101.07L60.05,124.53L62.03,259.67L62.44,254.58L62.84,254.79L63.24,287.21L64.05,276.38L64.46,221.8L64.86,199.49L65.26,209.1L65.63,208.6L67.24,178.18L67.65,202.72L68.86,176.39L69.26,166.49L70.03,142.68L70.43,164.34L72.45,84.29L72.86,122.38L73.66,146.84L74.07,105.88L74.84,208.88L75.64,186.29L76.05,185L76.45,255.08L77.26,237.07L77.66,265.91L78.47,230.62L78.83,204.8L79.24,238.58L79.64,220.65L80.45,194.68L81.26,207.38L81.66,198.56L83.24,160.97L83.64,160.9L84.85,131.34L85.26,155.3L85.66,110.76L86.47,138.01L86.87,114.85L87.23,132.42L87.64,158.67L88.45,188.23L88.85,184.07L89.25,176.75L90.47,231.98L90.91,199.42L91.68,249.7L92.04,208.53L93.25,240.8L94.06,204.58L94.46,238.51L94.87,214.26L95.27,208.6L95.68,215.27L96.04,211.32L96.44,215.13L98.06,145.69L98.46,142.61L99.27,161.97L99.67,142.96L100.08,113.7L100.48,147.84L100.84,147.55L101.29,92.54L102.46,166.06L103.27,152.65L104.48,221.51L104.88,217.28L105.29,218.78L105.65,215.05L106.05,216.99L106.46,255.73L106.86,246.26L107.27,249.41L108.07,178.04L108.48,176.18L108.88,203.94L110.09,231.7L110.5,222.37L110.9,225.1L111.3,199.34L111.71,182.42L112.48,183.85L112.88,195.61L113.28,169.5L114.09,154.37L114.5,137.44L114.9,159.89L115.3,145.76L115.71,142.46L116.88,129.84L117.32,104.01L118.13,176.25L118.49,110.18L118.9,102.87L119.71,199.2L120.11,183.78L120.51,225.67L120.92,238.8L121.32,141.24L122.53,267.27L122.9,267.78L124.11,187.29L124.51,216.78L125.32,223.66L125.72,213.12L126.13,208.53L126.53,181.77L127.34,172.01L127.7,172.23L128.11,175.03L129.72,111.33L130.12,129.69L130.53,134.28L130.93,128.33L131.34,130.41L131.74,184.07L132.91,220.36L133.32,174.38L133.72,236.5L134.12,219.07L134.53,194.97L134.93,221.72L135.33,216.99L135.7,221.22L136.1,206.8L136.51,221.29L136.91,264.83L137.31,223.37L137.72,175.03L138.12,221.58L138.53,236.43L138.93,232.91L139.33,220.65L140.14,194.9L140.54,226.96L141.72,164.55L142.12,169.65L142.52,173.74L144.14,99.42L144.54,139.88L145.31,114.63L145.71,140.31L146.12,129.62L146.56,89.45L147.73,153.51L148.14,126.54L148.5,137.73L148.9,216.2L149.71,228.61L150.12,252L150.52,246.33L150.92,256.51L151.33,278.97L151.73,259.02L152.94,219.86L153.35,227.89L153.75,233.49L154.11,216.99L154.56,215.7L154.96,208.02L155.33,179.12L156.13,183.56L156.66,180.05L156.94,169.07L158.15,139.09L158.52,149.13L158.92,155.73L159.32,120.15L159.73,136.8L160.13,93.54L160.54,68.72L160.94,140.02L161.5,166.2L161.67,132.35L162.55,172.16L162.92,171.08L163.36,186.36L163.73,200.71L164.13,174.81L164.53,241.81L164.94,221.29L165.34,170.8L166.15,285.49L166.55,230.98L167.36,245.54L167.76,205.15L168.17,169.29L168.57,216.78L170.19,189.95L170.55,205.8L171.76,154.94L172.17,129.26L172.57,157.6L172.97,146.55L173.38,147.91L173.78,109.54L174.19,122.45L174.59,108.89L175.76,128.19L176.17,178.04L176.57,161.04L176.89,211.47L177.78,198.27L178.18,253.64L178.99,175.46L179.4,281.26L180.16,213.76L180.61,226.67L181.01,234.49L181.37,213.91L181.78,238.44L182.14,214.05L182.59,224.74L182.99,209.24L183.39,231.34L183.8,227.53L184.16,199.34L184.57,169.5L184.97,192.96L185.37,184.21L185.78,184.21L186.18,152.65L186.58,153.72L186.99,139.02L187.39,147.12L187.8,144.47L188.2,143.54L188.6,152.86" style="vector-effect: none; fill: none; stroke: rgb(255, 161, 90); stroke-opacity: 1; stroke-width: 2px; opacity: 1;"/></g><g class="points"/><g class="text"/></g></g></g><g class="overplot"/><path class="xlines-above crisp" d="M0,0" style="fill: none;"/><path class="ylines-above crisp" d="M0,0" style="fill: none;"/><g class="overlines-above"/><g class="xaxislayer-above"><g class="xtick"><text text-anchor="middle" x="0" y="433" transform="translate(110.09,0)" style="font-family: 'Open Sans', verdana, arial, sans-serif; font-size: 12px; fill: rgb(42, 63, 95); fill-opacity: 1; white-space: pre; opacity: 1;">1995</text></g><g class="xtick"><text text-anchor="middle" x="0" y="433" style="font-family: 'Open Sans', verdana, arial, sans-serif; font-size: 12px; fill: rgb(42, 63, 95); fill-opacity: 1; white-space: pre; opacity: 1;" transform="translate(183.82999999999998,0)">2000</text></g><g class="xtick"><text text-anchor="middle" x="0" y="433" style="font-family: 'Open Sans', verdana, arial, sans-serif; font-size: 12px; fill: rgb(42, 63, 95); fill-opacity: 1; white-space: pre; opacity: 1;" transform="translate(257.62,0)">2005</text></g><g class="xtick"><text text-anchor="middle" x="0" y="433" style="font-family: 'Open Sans', verdana, arial, sans-serif; font-size: 12px; fill: rgb(42, 63, 95); fill-opacity: 1; white-space: pre; opacity: 1;" transform="translate(331.36,0)">2010</text></g><g class="xtick"><text text-anchor="middle" x="0" y="433" style="font-family: 'Open Sans', verdana, arial, sans-serif; font-size: 12px; fill: rgb(42, 63, 95); fill-opacity: 1; white-space: pre; opacity: 1;" transform="translate(405.11,0)">2015</text></g><g class="xtick"><text text-anchor="middle" x="0" y="433" style="font-family: 'Open Sans', verdana, arial, sans-serif; font-size: 12px; fill: rgb(42, 63, 95); fill-opacity: 1; white-space: pre; opacity: 1;" transform="translate(478.86,0)">2020</text></g></g><g class="yaxislayer-above"><g class="ytick"><text text-anchor="end" x="79" y="4.199999999999999" transform="translate(0,396.22)" style="font-family: 'Open Sans', verdana, arial, sans-serif; font-size: 12px; fill: rgb(42, 63, 95); fill-opacity: 1; white-space: pre; opacity: 1;">−150</text></g><g class="ytick"><text text-anchor="end" x="79" y="4.199999999999999" style="font-family: 'Open Sans', verdana, arial, sans-serif; font-size: 12px; fill: rgb(42, 63, 95); fill-opacity: 1; white-space: pre; opacity: 1;" transform="translate(0,360.36)">−100</text></g><g class="ytick"><text text-anchor="end" x="79" y="4.199999999999999" style="font-family: 'Open Sans', verdana, arial, sans-serif; font-size: 12px; fill: rgb(42, 63, 95); fill-opacity: 1; white-space: pre; opacity: 1;" transform="translate(0,324.49)">−50</text></g><g class="ytick"><text text-anchor="end" x="79" y="4.199999999999999" style="font-family: 'Open Sans', verdana, arial, sans-serif; font-size: 12px; fill: rgb(42, 63, 95); fill-opacity: 1; white-space: pre; opacity: 1;" transform="translate(0,288.63)">0</text></g><g class="ytick"><text text-anchor="end" x="79" y="4.199999999999999" style="font-family: 'Open Sans', verdana, arial, sans-serif; font-size: 12px; fill: rgb(42, 63, 95); fill-opacity: 1; white-space: pre; opacity: 1;" transform="translate(0,252.76)">50</text></g><g class="ytick"><text text-anchor="end" x="79" y="4.199999999999999" style="font-family: 'Open Sans', verdana, arial, sans-serif; font-size: 12px; fill: rgb(42, 63, 95); fill-opacity: 1; white-space: pre; opacity: 1;" transform="translate(0,216.9)">100</text></g><g class="ytick"><text text-anchor="end" x="79" y="4.199999999999999" style="font-family: 'Open Sans', verdana, arial, sans-serif; font-size: 12px; fill: rgb(42, 63, 95); fill-opacity: 1; white-space: pre; opacity: 1;" transform="translate(0,181.03)">150</text></g><g class="ytick"><text text-anchor="end" x="79" y="4.199999999999999" style="font-family: 'Open Sans', verdana, arial, sans-serif; font-size: 12px; fill: rgb(42, 63, 95); fill-opacity: 1; white-space: pre; opacity: 1;" transform="translate(0,145.17000000000002)">200</text></g><g class="ytick"><text text-anchor="end" x="79" y="4.199999999999999" style="font-family: 'Open Sans', verdana, arial, sans-serif; font-size: 12px; fill: rgb(42, 63, 95); fill-opacity: 1; white-space: pre; opacity: 1;" transform="translate(0,109.3)">250</text></g></g><g class="overaxes-above"/></g></g><g class="polarlayer"/><g class="smithlayer"/><g class="ternarylayer"/><g class="geolayer"/><g class="funnelarealayer"/><g class="pielayer"/><g class="iciclelayer"/><g class="treemaplayer"/><g class="sunburstlayer"/><g class="glimages"/><defs id="topdefs-f7a5d2"><g class="clips"/><clipPath id="legendf7a5d2"><rect width="139" height="105" x="0" y="0"/></clipPath></defs><g class="layer-above"><g class="imagelayer"/><g class="shapelayer"/></g><g class="infolayer"><g class="legend" pointer-events="all" transform="translate(549.2,100)"><rect class="bg" shape-rendering="crispEdges" width="139" height="105" x="0" y="0" style="stroke: rgb(68, 68, 68); stroke-opacity: 1; fill: rgb(255, 255, 255); fill-opacity: 1; stroke-width: 0px;"/><g class="scrollbox" transform="" clip-path="url(#legendf7a5d2)"><g class="groups"><g class="traces" transform="translate(0,14.5)" style="opacity: 1;"><text class="legendtext" text-anchor="start" x="40" y="4.680000000000001" style="font-family: 'Open Sans', verdana, arial, sans-serif; font-size: 12px; fill: rgb(42, 63, 95); fill-opacity: 1; white-space: pre;">Jason.1</text><g class="layers" style="opacity: 1;"><g class="legendfill"/><g class="legendlines"><path class="js-line" d="M5,0h30" style="fill: none; stroke: rgb(99, 110, 250); stroke-opacity: 1; stroke-width: 2px;"/></g><g class="legendsymbols"><g class="legendpoints"/></g></g><rect class="legendtoggle" x="0" y="-9.5" width="133.84375" height="19" style="fill: rgb(0, 0, 0); fill-opacity: 0;"/></g><g class="traces" transform="translate(0,33.5)" style="opacity: 1;"><text class="legendtext" text-anchor="start" x="40" y="4.680000000000001" style="font-family: 'Open Sans', verdana, arial, sans-serif; font-size: 12px; fill: rgb(42, 63, 95); fill-opacity: 1; white-space: pre;">Jason.2</text><g class="layers" style="opacity: 1;"><g class="legendfill"/><g class="legendlines"><path class="js-line" d="M5,0h30" style="fill: none; stroke: rgb(239, 85, 59); stroke-opacity: 1; stroke-width: 2px;"/></g><g class="legendsymbols"><g class="legendpoints"/></g></g><rect class="legendtoggle" x="0" y="-9.5" width="133.84375" height="19" style="fill: rgb(0, 0, 0); fill-opacity: 0;"/></g><g class="traces" transform="translate(0,52.5)" style="opacity: 1;"><text class="legendtext" text-anchor="start" x="40" y="4.680000000000001" style="font-family: 'Open Sans', verdana, arial, sans-serif; font-size: 12px; fill: rgb(42, 63, 95); fill-opacity: 1; white-space: pre;">Jason.3</text><g class="layers" style="opacity: 1;"><g class="legendfill"/><g class="legendlines"><path class="js-line" d="M5,0h30" style="fill: none; stroke: rgb(0, 204, 150); stroke-opacity: 1; stroke-width: 2px;"/></g><g class="legendsymbols"><g class="legendpoints"/></g></g><rect class="legendtoggle" x="0" y="-9.5" width="133.84375" height="19" style="fill: rgb(0, 0, 0); fill-opacity: 0;"/></g><g class="traces" transform="translate(0,71.5)" style="opacity: 1;"><text class="legendtext" text-anchor="start" x="40" y="4.680000000000001" style="font-family: 'Open Sans', verdana, arial, sans-serif; font-size: 12px; fill: rgb(42, 63, 95); fill-opacity: 1; white-space: pre;">Sentinel-6MF</text><g class="layers" style="opacity: 1;"><g class="legendfill"/><g class="legendlines"><path class="js-line" d="M5,0h30" style="fill: none; stroke: rgb(171, 99, 250); stroke-opacity: 1; stroke-width: 2px;"/></g><g class="legendsymbols"><g class="legendpoints"/></g></g><rect class="legendtoggle" x="0" y="-9.5" width="133.84375" height="19" style="fill: rgb(0, 0, 0); fill-opacity: 0;"/></g><g class="traces" transform="translate(0,90.5)" style="opacity: 1;"><text class="legendtext" text-anchor="start" x="40" y="4.680000000000001" style="font-family: 'Open Sans', verdana, arial, sans-serif; font-size: 12px; fill: rgb(42, 63, 95); fill-opacity: 1; white-space: pre;">TOPEX.Poseidon</text><g class="layers" style="opacity: 1;"><g class="legendfill"/><g class="legendlines"><path class="js-line" d="M5,0h30" style="fill: none; stroke: rgb(255, 161, 90); stroke-opacity: 1; stroke-width: 2px;"/></g><g class="legendsymbols"><g class="legendpoints"/></g></g><rect class="legendtoggle" x="0" y="-9.5" width="133.84375" height="19" style="fill: rgb(0, 0, 0); fill-opacity: 0;"/></g></g></g><rect class="scrollbar" rx="20" ry="3" width="0" height="0" x="0" y="0" style="fill: rgb(128, 139, 164); fill-opacity: 1;"/></g><g class="g-gtitle"><text class="gtitle" x="35" y="50" text-anchor="start" dy="0em" style="font-family: 'Open Sans', verdana, arial, sans-serif; font-size: 17px; fill: rgb(42, 63, 95); opacity: 1; font-weight: normal; white-space: pre;">Mean Sea Levels Changing - Mediterranean</text></g><g class="g-xtitle"><text class="xtitle" x="310" y="460.3" text-anchor="middle" style="font-family: 'Open Sans', verdana, arial, sans-serif; font-size: 14px; fill: rgb(42, 63, 95); opacity: 1; font-weight: normal; white-space: pre;">Date</text></g><g class="g-ytitle"><text class="ytitle" transform="rotate(-90,27.668750000000003,260)" x="27.668750000000003" y="260" text-anchor="middle" style="font-family: 'Open Sans', verdana, arial, sans-serif; font-size: 14px; fill: rgb(42, 63, 95); opacity: 1; font-weight: normal; white-space: pre;">Change in Sea Level [mm]</text></g></g></svg>