<svg class="main-svg" xmlns="http://www.w3.org/2000/svg" xmlns:xlink="http://www.w3.org/1999/xlink" width="700" height="500" style="" viewBox="0 0 700 500"><rect x="0" y="0" width="700" height="500" style="fill: rgb(255, 255, 255); fill-opacity: 1;"/><defs id="defs-33279b"><g class="clips"><clipPath id="clip33279bxyplot" class="plotclip"><rect width="460" height="320"/></clipPath><clipPath class="axesclip" id="clip33279bx"><rect x="80" y="0" width="460" height="500"/></clipPath><clipPath class="axesclip" id="clip33279by"><rect x="0" y="100" width="700" height="320"/></clipPath><clipPath class="axesclip" id="clip33279bxy"><rect x="80" y="100" width="460" height="320"/></clipPath></g><g class="gradients"/><g class="patterns"/></defs><g class="bglayer"><rect class="bg" x="80" y="100" width="460" height="320" style="fill: rgb(229, 236, 246); fill-opacity: 1; stroke-width: 0;"/></g><g class="layer-below"><g class="imagelayer"/><g class="shapelayer"/></g><g class="cartesianlayer"><g class="subplot xy"><g class="layer-subplot"><g class="shapelayer"/><g class="imagelayer"/></g><g class="minor-gridlayer"><g class="x"/><g class="y"/></g><g class="gridlayer"><g class="x"><path class="xgrid crisp" transform="translate(110.05,0)" d="M0,100v320" style="stroke: rgb(255, 255, 255); stroke-opacity: 1; stroke-width: 1px;"/><path class="xgrid crisp" transform="translate(183.8,0)" d="M0,100v320" style="stroke: rgb(255, 255, 255); stroke-opacity: 1; stroke-width: 1px;"/><path class="xgrid crisp" transform="translate(257.59000000000003,0)" d="M0,100v320" style="stroke: rgb(255, 255, 255); stroke-opacity: 1; stroke-width: 1px;"/><path class="xgrid crisp" transform="translate(331.35,0)" d="M0,100v320" style="stroke: rgb(255, 255, 255); stroke-opacity: 1; stroke-width: 1px;"/><path class="xgrid crisp" transform="translate(405.1,0)" d="M0,100v320" style="stroke: rgb(255, 255, 255); stroke-opacity: 1; stroke-width: 1px;"/><path class="xgrid crisp" transform="translate(478.85,0)" d="M0,100v320" style="stroke: rgb(255, 255, 255); stroke-opacity: 1; stroke-width: 1px;"/></g><g class="y"><path class="ygrid crisp" transform="translate(0,405.42)" d="M80,0h460" style="stroke: rgb(255, 255, 255); stroke-opacity: 1; stroke-width: 1px;"/><path class="ygrid crisp" transform="translate(0,352.38)" d="M80,0h460" style="stroke: rgb(255, 255, 255); stroke-opacity: 1; stroke-width: 1px;"/><path class="ygrid crisp" transform="translate(0,246.32)" d="M80,0h460" style="stroke: rgb(255, 255, 255); stroke-opacity: 1; stroke-width: 1px;"/><path class="ygrid crisp" transform="translate(0,193.28)" d="M80,0h460" style="stroke: rgb(255, 255, 255); stroke-opacity: 1; stroke-width: 1px;"/><path class="ygrid crisp" transform="translate(0,140.25)" d="M80,0h460" style="stroke: rgb(255, 255, 255); stroke-opacity: 1; stroke-width: 1px;"/></g></g><g class="zerolinelayer"><path class="yzl zl crisp" transform="translate(0,299.35)" d="M80,0h460" style="stroke: rgb(255, 255, 255); stroke-opacity: 1; stroke-width: 2px;"/></g><g class="layer-between"><g class="shapelayer"/><g class="imagelayer"/></g><path class="xlines-below"/><path class="ylines-below"/><g class="overlines-below"/><g class="xaxislayer-below"/><g class="yaxislayer-below"/><g class="overaxes-below"/><g class="plot" transform="translate(80,100)" clip-path="url(#clip33279bxyplot)"><g class="scatterlayer mlayer"><g class="trace scatter trace3ebe0c" style="stroke-miterlimit: 2; opacity: 1;"><g class="fills"/><g class="errorbars"/><g class="lines"><path class="js-line" d="M134.09,184.29L134.54,257.96L134.9,227.2L135.31,194.26L135.71,201.95L136.11,229.64L136.92,184.98L137.33,226.61L138.09,247.56L138.5,197.71L139.3,238.87L139.71,231.81L140.11,199.62L140.52,226.67L140.92,243.43L142.13,209.27L142.54,214.84L142.94,167.59L143.3,224.76L143.71,217.39L144.11,174.38L144.51,175.33L144.88,153.69L145.73,208.21L146.13,147.54L146.45,189.12L146.9,175.97L147.3,192.25L148.51,245.34L148.88,211.98L149.32,187.21L149.73,229.27L150.13,227.62L150.49,285.22L150.94,262.84L151.3,193.36L151.7,200.73L152.11,198.35L152.51,241.52L152.92,242.42L153.32,169.55L154.09,259.07L154.49,212.72L155.34,158.89L155.7,174.91L156.15,173.21L156.47,207.52L156.91,193.73L157.32,199.04L157.72,210.86L158.13,227.41L158.53,187.32L158.93,177.35L159.3,186.31L159.74,194L160.15,212.93L160.51,167.11L160.91,149.88L161.72,165.63L162.08,178.41L162.53,169.82L162.93,154.44L163.3,143.46L163.7,168.38L164.95,251.12L165.32,246.34L165.76,217.17L166.12,233.24L166.45,223.33L166.93,234.99L167.34,232.29L167.74,233.93L168.14,216.75L168.55,225.61L168.95,192.3L169.35,164.3L169.76,167.22L170.16,190.45L171.74,215.48L172.18,191.29L172.55,226.93L172.95,209.8L173.35,184.98L173.76,185.62L174.12,174.17L174.56,173.1L174.97,181.43L175.37,119.59L175.78,134.6L176.18,164.3L176.58,156.82L176.95,163.88L177.35,168.65L178.6,225.13L178.97,230.91L179.78,222.16L180.18,212.14L180.54,219.72L180.95,246.29L181.39,249.68L181.75,191.82L182.56,216.11L182.97,204.66L183.33,203.76L183.77,206.89L184.18,198.72L184.58,235.84L184.99,243.8L185.39,172.31L186.2,220.73L186.56,179.73L187.37,167.48L187.77,189.49L188.1,251.33L188.62,187.53L189.39,160.54L189.75,192.41L190.2,210.7L190.56,183.18L191.77,140.17L192.17,193.52L192.58,139.8L192.98,256.9L193.39,245.76L193.79,190.87L194.19,196.6L194.6,234.89L194.96,226.19L195.37,190.18L195.77,236.27L196.17,220.36L196.54,214.36L196.98,208.11L197.39,209.27L197.75,241.25L198.6,199.67L198.96,202.06L199.36,202.38L200.17,229.32L200.62,227.36L200.98,219.99L202.19,163.56L202.56,177.13L202.96,222.9L203.4,170.66L203.77,198.35L204.17,175.23L204.45,175.97L205.42,163.45L205.79,168.65L206.19,168.81L206.59,225.29L207,219.99L207.4,233.99L207.81,254.51L208.21,194.48L208.57,203.65L208.98,233.24L209.38,233.72L209.78,235.42L211,200.63L211.4,199.67L211.76,187.21L212.17,192.04L212.61,220.36L212.98,194.9L213.38,60.25L214.59,209.43L215,210.39L216.61,130.89L216.97,144.68L218.19,160.01L218.59,156.82L218.95,165.26L219.4,149.61L219.76,182.6L220.21,164.78L220.57,160.01L221.42,206.36L221.78,162.6L222.99,233.72L223.4,218.39L223.8,267.4L224.16,245.44L224.61,198.14L224.97,185.14L225.42,193.84L225.82,217.81L226.22,179.36L226.59,206.41L226.83,193.58L227.39,228.58L227.84,175.44L228.61,219.93L229.01,181.7L229.41,193.63L229.82,166.74L230.55,196.23L231.43,157.72L231.84,156.88L232.24,173.69L232.65,198.83L233.05,177.98L233.45,145.95L233.82,143.3L234.22,194.11L235.03,135.13L235.47,135.66L235.84,207.42L236.24,169.23L236.64,223.54L237.05,149.72L237.45,165.52L238.5,200.26L238.87,166.16L239.11,223.27L240.04,183.18L240.44,187.58L240.84,183.29L241.21,193.04L241.61,180.85L242.02,206.09L242.38,205.98L242.78,185.67L243.23,186.89L243.63,201.26L244.04,190.18L244.44,197.18L244.8,212.45L245.21,211.29L245.61,171.25L246.82,180.74L247.63,191.82L248.03,226.99L248.44,181.59L249.21,120.34L249.65,155.97L250.05,196.17L250.42,167.96L250.82,142.19L251.22,202.54L251.63,181.43L252.03,189.7L252.44,176.87L252.84,128.82L254.01,220.14L254.46,201.58L254.82,204.66L255.22,204.02L255.67,227.52L255.99,189.86L256.44,204.55L256.84,179.89L257.2,179.63L257.53,167.48L258.05,163.03L258.45,190.5L259.5,147.01L260.03,171.57L260.84,143.51L261.24,172.15L261.65,168.6L262.05,146.53L262.45,124.47L262.82,147.7L263.22,178.35L263.62,133.38L264.03,107.4L264.43,114.93L264.84,129.41L265.64,179.73L266.05,126.54L266.45,173.1L266.86,171.67L267.26,138.05L267.66,210.17L268.07,181.64L268.47,183.6L268.83,186.04L269.24,198.4L270.01,213.78L270.45,205.77L270.85,171.35L271.18,178.46L271.66,223.96L272.03,162.23L272.47,171.46L272.83,198.67L273.28,207.36L273.64,171.09L274.05,196.17L274.45,184.4L274.85,187.37L275.66,131.31L276.06,170.19L276.43,172.2L276.87,162.55L277.24,137.73L277.64,165.26L278.45,122.56L278.85,140.22L279.26,171.09L279.62,112.22L280.87,197.87L281.27,198.56L281.64,213.25L282.04,188.01L282.45,179.31L282.69,234.68L286.2,185.57L286.69,227.04L287.13,274.66L287.54,169.39L288.1,187.26L288.55,121.82L289.8,222.69L290.08,175.12L290.52,159.58L291.01,173.85L291.74,147.49L291.98,163.56L293.43,133.28L293.88,162.44L294.4,142.08L294.81,163.03L295.37,141.76L295.86,191.67L296.34,221.36L296.74,174.75L297.07,161.07L297.31,165.94L297.79,170.03L298.8,175.76L298.97,168.33L299.25,195.43L299.73,189.6L300.14,197.5L300.74,172.31L301.15,190.13L301.67,191.77L302.08,180.1L302.36,129.78" style="vector-effect: none; fill: none; stroke: rgb(99, 110, 250); stroke-opacity: 1; stroke-width: 2px; opacity: 1;"/></g><g class="points"/><g class="text"/></g><g class="trace scatter trace60c324" style="stroke-miterlimit: 2; opacity: 1;"><g class="fills"/><g class="errorbars"/><g class="lines"><path class="js-line" d="M229.45,193.85L230.26,165.53L230.59,184.04L230.99,185.84L231.39,153.49L231.8,138.59L232.2,162.77L232.61,189.45L233.01,184.46L233.41,142.04L233.82,133.76L234.22,188.65L235.43,127.72L235.8,202.28L236.2,148.93L236.6,236.54L237.41,162.88L237.82,196.4L238.22,213.58L238.62,193.37L239.03,201.54L239.43,226.09L239.83,169.88L240.24,192.37L240.64,179.53L241.45,218.94L241.85,207.43L242.22,195.49L242.62,188.39L243.03,191.68L243.43,198.04L243.83,172.69L244.24,209.5L245.05,185.26L245.41,225.03L245.81,150.36L246.22,190.14L246.62,152.38L247.83,216.65L248.2,214.59L249.41,102.21L249.81,168.77L250.22,199.74L250.62,151.9L251.02,143.42L251.43,187.01L251.83,188.44L252.23,187.75L252.64,159.59L253,135.04L253.45,166.65L255.02,221.91L255.43,184.94L256.23,230.28L256.64,189.93L257.81,129.58L258.25,175.82L258.62,193L259.02,191.62L259.42,157.74L259.83,167.71L260.23,154.34L261.44,140.66L261.85,132.54L262.25,133.39L262.61,131.06L263.42,161.02L263.87,135.36L264.23,72.78L264.63,127.82L265.04,138.33L265.44,159.96L265.85,133.23L266.25,137.21L266.61,172.69L267.06,167.12L267.42,187.06L267.83,219.68L268.23,193.32L268.63,200L269.04,204.56L269.44,202.55L269.84,218.94L270.25,215.28L270.61,183.09L271.42,195.07L271.82,182.61L272.23,174.49L272.63,189.77L273.04,196.87L273.44,217.08L273.84,166.06L274.25,192.84L274.65,177.89L275.42,148.3L275.82,150.74L276.23,179.37L277.44,126.61L277.84,190.51L278.65,127.45L279.05,145.64L279.46,184.57L279.82,170.68L280.22,117.48L281.44,215.01L281.84,204.62L282.24,125.97L282.65,166.59L283.05,230.23L283.86,304L284.26,189.56L284.67,197.03L285.07,181.18L285.44,182.18L285.88,172.58L286.24,181.71L286.65,238.08L287.05,246.83L287.45,192.47L287.86,189.87L288.26,167.28L288.67,139.86L289.07,169.77L289.47,181.18L289.88,175.13L290.28,150.31L291.09,171.31L291.49,155.19L291.9,137.8L292.26,156.62L292.66,146.6L293.11,150.05L293.47,119.34L294.32,151.85L294.68,132.6L295.09,132.39L295.49,111.54L296.3,222.75L296.7,166.75L297.11,164.42L297.51,150.1L298.28,201.43L298.68,172.85L299.05,192.79L299.53,149.57L300.7,211.99L301.11,211.46L301.91,197.78L302.32,181.12L302.72,145.59L303.09,166.49L303.49,166.65L303.89,185.1L304.3,142.89L305.1,166.43L305.47,139.33L306.03,140.23L306.32,199.63L307.08,171.63L307.49,185.1L308.7,97.81L309.1,131.91L309.51,192.37L309.91,181.92L310.27,137.05L311.49,200.21L311.89,152.8L312.7,207.48L313.1,160.65L313.51,196.61L313.91,162.56L314.31,209.71L314.68,154.71L315.53,209.44L315.93,201.43L317.1,145.06L317.5,180.96L317.91,172.37L318.31,209.65L319.52,124.54L319.89,139.97L320.33,159.22L320.7,142.94L321.1,145.22L321.5,161.77L321.91,141.98L322.31,184.46L322.71,114.67L323.12,125.07L323.52,113.61L324.69,212.73L325.14,149.2L325.5,173.27L325.95,136.42L326.31,129.63L326.71,93.35L327.12,223.6L327.52,206.68L327.93,135.94L328.69,189.77L329.14,189.34L329.54,207.32L330.31,174.18L330.67,187.06L331.48,140.29L331.92,110.64L332.33,164.42L332.73,163.78L333.14,153.23L333.9,187.12L334.31,133.23L334.71,140.34L335.11,121.41L335.52,120.4L335.92,138.38L336.33,122.26L336.69,68.27L337.13,67.21L337.54,87.36L338.71,152.33L339.11,142.09L339.52,138.86L339.92,168.61L340.73,161.02L341.13,196.56L341.54,190.56L341.94,194.49L342.34,140.39L342.71,154.87L343.11,210.98L343.52,212.62L343.96,181.23L344.32,182.82L344.77,168.5L346.34,206.42L346.75,158.53L347.15,154.61L347.55,143.1L347.96,125.49L348.36,142.2L348.77,158.58L349.17,147.29L349.57,159.86L349.94,130.26L350.38,161.98L350.75,220L351.47,175.55L351.8,180.59L352.2,142.73L352.6,155.93L353.01,89.85L353.41,100.57L353.82,200.21L354.62,170.36L355.03,179.32L355.43,128.14L356.2,208.17L356.64,152.86L357.41,183.14L357.61,149.89L358.3,218.72L358.58,183.4L359.03,203.34L360.08,137.16" style="vector-effect: none; fill: none; stroke: rgb(239, 85, 59); stroke-opacity: 1; stroke-width: 2px; opacity: 1;"/></g><g class="points"/><g class="text"/></g><g class="trace scatter tracefa2961" style="stroke-miterlimit: 2; opacity: 1;"><g class="fills"/><g class="errorbars"/><g class="lines"><path class="js-line" d="M341.58,161.2L341.94,175.47L342.34,145.93L342.67,144.98L343.15,216.3L343.56,214.93L343.96,165.02L344.32,180.72L344.77,174.14L345.17,176.64L346.38,196.1L346.75,153.41L347.15,150.81L347.55,130.55L347.96,131.77L348.36,139.2L348.77,155.58L349.17,115.86L349.57,153.41L349.98,120.95L350.79,213.6L351.19,192.28L351.59,161.79L352.81,136.91L353.17,83.25L353.98,220.6L354.38,167.41L354.82,160.51L355.19,223.2L355.59,138.19L356,211.59L356.4,146.04L356.8,181.46L357.21,182.84L357.98,177.86L358.38,192.55L358.74,178.92L359.19,193.71L359.99,163.38L360.4,183.9L360.8,199.28L361.21,179.77L361.97,115.07L362.38,149.48L362.78,190.16L363.19,166.35L363.59,180.19L363.99,152.35L364.4,152.98L364.8,155.26L365.21,133.52L365.61,176.05L366.01,187.88L366.42,129.07L367.18,141.21L367.59,121.59L368.4,191.91L368.8,168.68L369.2,157.86L369.61,171.23L369.97,213.28L371.59,165.34L371.99,201.83L372.39,190.8L372.8,204.74L373.2,206.65L373.61,181.78L374.01,153.57L374.41,191.49L374.78,188.41L375.18,157.6L376.39,199.33L376.8,146.41L377.2,148.26L377.6,180.88L378.01,185.02L378.41,176.37L379.58,147.89L379.99,156.27L380.39,168.63L380.8,122.33L381.2,144.5L381.6,142.7L382.01,139.57L382.81,176.48L383.22,153.14L383.62,151.45L383.99,165.5L384.39,160.99L384.79,200.98L385.2,163.01L385.6,168.84L386.01,206.28L386.21,271.72L386.85,190.21L387.22,198.11L387.62,145.4L388.83,246.85L389.2,201.3L390.41,156.8L390.81,108.81L391.18,98.68L391.62,136.6L392.02,93.59L392.43,125.25L392.83,173.24L394,107.64L394.41,118.04L394.81,140.79L395.21,101.28L395.62,79.37L396.02,101.59L396.39,16L396.79,65.69L397.23,99.69L398,90.19L398.41,117.56L398.81,117.82L399.21,139.99L399.62,142.7L399.94,180.4L400.79,171.97L401.23,147.84L401.6,139.09L402.04,169.69L402.44,150.97L402.81,159.88L403.25,157.12L403.66,144.34L404.02,192.44L404.38,157.12L404.83,186.39L405.23,147.47L406.44,76.88L406.85,119.94L407.25,106.42L407.65,106.95L408.06,135.01L408.46,128.54L408.83,128.59L409.23,133.04L409.63,136.76L410.04,123.07L410.85,123.97L411.29,140.79L412.1,72.11L412.46,109.87L412.87,152.45L413.27,104.88L413.67,76.3L414.08,114L414.48,156.75L414.84,156.43L415.25,154.26L415.65,149.17L416.06,170.22L416.46,187.24L416.86,143.17L417.27,132.35L417.67,154.42L418.03,179.18L418.48,127.42L418.84,98.31L419.25,99.26L419.65,115.33L420.05,160.41L420.46,137.34L420.86,150.28L421.27,80.59L421.67,104.78L422.07,153.51L422.48,122.65L422.88,127.16L423.29,130.07L423.69,142.22L424.05,178.81L424.86,58.21L425.26,114.91L425.67,129.91L426.07,121.8L426.48,101.86L426.88,135.27L427.28,109.82L427.69,85.53L428.09,67.28L428.5,73.54L428.86,123.82L429.26,189.47L429.67,179.08L430.07,186.71L430.48,147.84L430.88,154.42L431.24,167.67L432.05,202.3L432.29,160.04L433.06,118.62L433.34,178.12L434.15,240.7L434.51,193.02L435.32,95.92L435.73,103.77L436.13,159.4L436.53,132.57L436.94,137.76L437.34,156.43L437.75,122.81L438.15,132.78L438.55,131.29L438.96,147.73L439.36,122.12L440.17,152.82L440.49,112.52L440.94,116.92L441.34,145.29L441.7,155.05L442.03,119.89L442.55,111.67L442.96,123.6L443.36,118.83L443.76,138.51L444.17,125.57L444.53,184.22L444.93,213.76L445.34,162.11L445.74,139.67L446.15,162.9L446.95,200.87L447.36,192.02L448.17,141.16L448.57,164.44L448.93,200.24L449.34,170.38L449.74,78.9L450.51,124.24L450.95,158.82L452.16,130.23L452.53,179.92L453.74,119.94L454.14,117.82L454.55,122.12L454.95,88.6L456.16,148.05L456.57,131.29L457.78,205.8L458.14,182.74L458.95,168.31L459.35,216.09L460,154.04" style="vector-effect: none; fill: none; stroke: rgb(0, 204, 150); stroke-opacity: 1; stroke-width: 2px; opacity: 1;"/></g><g class="points"/><g class="text"/></g><g class="trace scatter tracedf4f01" style="stroke-miterlimit: 2; opacity: 1;"><g class="fills"/><g class="errorbars"/><g class="lines"><path class="js-line" d="M413.31,99.57L413.67,70.57L414.08,111.88L414.48,154.04L414.84,153.51L415.25,153.35L415.65,144.81L416.06,174.19L416.46,185.01L416.86,146.03L417.27,148.1L417.67,154.3L418.08,180.66L418.48,144.71L419.25,103.76L419.65,117.66L420.05,151.6L420.46,138.82L420.86,155.15L421.27,84.73L421.67,106.15L422.07,158.23L422.84,119.67L423.29,124.45L423.69,143.38L424.05,181.24L424.5,123.01L424.86,70.83L425.26,117.92L425.67,129.48L426.07,127.36L426.48,95.33L426.88,121.26L427.24,105.2L427.69,83.08L428.09,65.63L428.46,66.96L428.86,128.27L429.26,186.07L429.67,179.18L430.07,181.93L430.48,148.68L430.88,159.18L431.28,161.15L431.69,186.6L432.05,179.39L432.49,172.23L432.86,157.33L433.26,179.71L434.07,230.51L434.47,185.81L435.28,119.94L435.69,120.31L436.05,144.02L437.26,171.27L437.66,129.8L438.47,162.37L438.88,126.99L439.28,126.99L439.68,89.82L440.45,143.75L440.9,116.76L441.26,137.97L441.7,115.27L442.07,99.15L442.47,125.51L442.87,139.19L443.28,131.98L443.68,131.61L444.09,107.48L444.45,181.46L444.85,201.03L445.26,172.39L446.07,141.95L446.51,191.9L446.87,195.83L447.28,183.84L447.68,181.88L448.08,146.3L448.89,197.74L449.3,164.27L450.1,92.68L450.51,139.83L450.87,161.36L451.32,130.17L451.68,188.14L452.08,161.89L452.49,165.81L453.3,134.52L453.7,144.86L454.87,79.85L455.27,117.82L455.68,90.19L456.08,116.44L456.49,114.74L456.89,143.64" style="vector-effect: none; fill: none; stroke: rgb(171, 99, 250); stroke-opacity: 1; stroke-width: 2px; opacity: 1;"/></g><g class="points"/><g class="text"/></g><g class="trace scatter trace2152fa" style="stroke-miterlimit: 2; opacity: 1;"><g class="fills"/><g class="errorbars"/><g class="lines"><path class="js-line" d="M0,134.24L0.32,154.44L0.77,139.27L1.17,236.96L1.49,251.7L1.98,216.91L2.34,253.35L2.75,220.04L3.15,192.41L3.96,261.78L4.77,259.34L5.57,224.98L5.98,251.07L6.38,250.96L6.75,227.52L7.55,233.3L7.96,164.15L9.17,253.77L9.57,248.42L11.19,180.43L11.55,204.45L13.57,133.12L13.97,209.28L14.78,157.41L15.19,161.92L15.55,194.96L15.95,153.01L16.36,170.35L16.72,220.57L17.17,251.12L17.57,250.27L17.97,207.37L18.78,226.73L19.19,206.2L19.55,191.88L19.99,237.65L20.36,222.96L20.76,238.5L21.97,189.76L22.78,231.55L23.55,187.43L23.99,200.95L24.4,182.44L24.76,205.94L25.16,207.58L25.57,200.21L26.74,146.49L27.14,166.85L28.39,112.07L28.76,183.66L29.16,229.01L29.57,210.23L29.97,216.97L30.37,182.07L30.74,200.63L31.18,252.92L31.58,189.6L31.99,216.17L32.35,223.49L33.16,208.22L33.56,254.99L33.97,253.83L34.37,221.21L34.74,187.91L35.58,219.3L35.95,191.99L36.39,238.13L36.75,201.22L37.16,244.92L37.97,210.18L38.37,125.01L39.58,197.88L39.99,222.7L41.2,173.75L41.6,206.68L42.77,160.86L43.18,190.03L43.98,136.09L44.39,182.23L44.75,143.36L45.16,158.63L45.48,192.84L46,220.57L46.37,196.76L47.22,198.51L47.58,196.97L47.94,169.13L48.39,255.47L48.79,205.72L49.19,217.55L49.6,239.45L50.41,210.92L50.81,209.97L51.21,173.48L52.02,241.31L52.39,189.66L52.83,195.65L53.23,226.78L53.6,174.01L54,188.91L54.41,180.11L54.81,214.48L55.21,204.29L55.66,168.76L57.23,193.95L57.64,174.17L58.4,138.64L58.81,185.52L60.02,204.24L60.42,190.93L60.83,248.79L61.63,228.74L62.04,244.7L62.44,216.6L62.85,239.4L63.25,208.22L64.02,232.45L64.42,214.26L65.23,237.12L65.63,253.93L66.44,144.37L66.85,148.77L67.25,195.22L67.65,192.89L68.06,217.76L69.63,169.5L70.04,207.32L71.65,110.42L72.06,118.27L72.42,168.12L72.86,163.25L73.23,169.61L73.63,183.56L74.03,235.21L74.4,205.88L74.84,288.88L75.65,202.7L76.05,222.85L76.46,227.89L76.86,278.91L77.27,249.21L77.63,219.2L78.44,182.55L78.84,199.89L79.24,230.39L79.65,191.62L80.42,232.93L80.82,197.66L81.26,202.54L81.67,177.46L82.03,217.76L82.44,156.83L83.24,181.49L83.65,105.33L84.82,188.54L85.26,161.55L85.67,170.83L86.43,167.33L87.24,201.16L87.65,185.47L88.05,180.32L88.45,102.89L89.63,174.12L90.47,163.09L90.88,146.01L91.24,153.28L91.64,150.25L92.41,264.7L92.86,223.65L93.22,257.22L94.07,261.46L94.47,240.3L94.88,168.6L96.05,223.92L96.45,210.23L96.85,178.15L97.26,181.91L97.62,213.52L98.03,209.86L98.47,156.67L99.64,189.39L100.05,215.16L100.45,172.42L100.85,190.61L101.26,209.38L101.66,208.06L102.07,217.07L104.04,164.47L104.45,164.68L104.85,174.97L105.26,240.46L105.66,219.25L106.06,235.37L106.47,268.46L106.87,270.9L107.28,206.31L108.89,269.21L109.29,213.04L109.66,180.43L110.06,211.45L110.47,232.61L110.87,223.86L111.27,199.68L111.68,214.16L112.45,207.42L112.89,161.97L113.29,199.15L113.7,224.71L114.1,188.91L114.51,192.63L114.87,164.09L115.31,177.35L115.72,215.27L116.89,151.31L117.33,198.35L117.7,209.6L118.1,195.86L118.91,178.31L119.72,207.32L120.52,256.58L120.93,215.8L121.33,198.3L121.69,239.19L122.1,255.05L122.5,236.59L122.91,231.07L123.31,212.51L123.71,218.77L124.12,238.92L125.73,184.14L126.1,203.71L126.5,231.55L126.9,182.07L127.31,189.6L127.71,210.92L128.12,192.36L128.52,201.22L128.92,200.85L129.33,187.11L129.73,223.65L130.14,226.2L130.5,236.11L130.9,212.94L131.27,143.62L131.71,215.59L132.12,159.16L133.33,110.48L133.65,148.29L134.5,258.33L134.9,231.82L135.31,204.08L135.71,195.49L136.11,228.79L136.52,190.72L136.92,196.13L137.33,228.37L137.73,251.17L138.17,248.79L138.5,205.35L139.71,237.07L140.11,190.98L141.73,231.39L142.13,213.52L142.5,206.73L142.94,138.85L143.75,207.58L144.11,191.3L144.84,165.05L145.2,173.85L145.73,214.85L146.86,155.56L147.3,221.48L147.71,227.47L148.11,217.66L148.51,253.72L148.92,228.58L149.28,202.22L150.49,294.5L150.94,279.33L151.22,209.7L151.7,193.32L152.11,195.91L152.51,253.3L153.28,195.97L153.72,227.36L154.09,258.86L154.49,220.41L154.9,209.28L155.3,163.88L156.03,195.6L156.59,187.48L156.91,191.03L157.28,193.16L157.68,205.62L158.13,195.7L158.49,200.16L158.89,200.79L159.66,183.66L160.11,199.73L160.47,186.95L160.83,146.12L162.12,188.91L162.49,166.48L163.3,155.4L163.7,199.94L164.02,197.93L164.43,235.48L164.91,244.23L165.32,268.3L165.68,206.94L166.04,209.17L166.53,242.9L166.93,249.16L167.34,191.62L168.14,234.26L168.55,217.02L169.72,149.72L170.2,196.5L170.85,221.21L171.33,192.25L171.78,207.1L172.06,157.57L172.51,232.45L172.91,186.74L173.31,216.81L173.76,198.04L174.12,203.92L174.61,151.84L175.05,180.59L175.33,128.46L176.46,208.75L176.79,184.25L177.43,163.72L177.8,196.97L178.28,202.01L178.48,231.07L179.05,253.35L179.29,239.56L179.69,197.77L181.35,271.17L181.79,208.06L182.2,177.56L182.56,219.94L182.93,223.33L183.37,211.66L183.81,225.29L184.18,191.57L184.54,194.69L184.99,223.12L185.63,169.45L186.2,188.44L186.64,187.59L187.05,165.42L188.22,234.57L188.58,235.32" style="vector-effect: none; fill: none; stroke: rgb(255, 161, 90); stroke-opacity: 1; stroke-width: 2px; opacity: 1;"/></g><g class="points"/><g class="text"/></g></g></g><g class="overplot"/><path class="xlines-above crisp" d="M0,0" style="fill: none;"/><path class="ylines-above crisp" d="M0,0" style="fill: none;"/><g class="overlines-above"/><g class="xaxislayer-above"><g class="xtick"><text text-anchor="middle" x="0" y="433" transform="translate(110.05,0)" style="font-family: 'Open Sans', verdana, arial, sans-serif; font-size: 12px; fill: rgb(42, 63, 95); fill-opacity: 1; white-space: pre; opacity: 1;">1995</text></g><g class="xtick"><text text-anchor="middle" x="0" y="433" style="font-family: 'Open Sans', verdana, arial, sans-serif; font-size: 12px; fill: rgb(42, 63, 95); fill-opacity: 1; white-space: pre; opacity: 1;" transform="translate(183.8,0)">2000</text></g><g class="xtick"><text text-anchor="middle" x="0" y="433" style="font-family: 'Open Sans', verdana, arial, sans-serif; font-size: 12px; fill: rgb(42, 63, 95); fill-opacity: 1; white-space: pre; opacity: 1;" transform="translate(257.59000000000003,0)">2005</text></g><g class="xtick"><text text-anchor="middle" x="0" y="433" style="font-family: 'Open Sans', verdana, arial, sans-serif; font-size: 12px; fill: rgb(42, 63, 95); fill-opacity: 1; white-space: pre; opacity: 1;" transform="translate(331.35,0)">2010</text></g><g class="xtick"><text text-anchor="middle" x="0" y="433" style="font-family: 'Open Sans', verdana, arial, sans-serif; font-size: 12px; fill: rgb(42, 63, 95); fill-opacity: 1; white-space: pre; opacity: 1;" transform="translate(405.1,0)">2015</text></g><g class="xtick"><text text-anchor="middle" x="0" y="433" style="font-family: 'Open Sans', verdana, arial, sans-serif; font-size: 12px; fill: rgb(42, 63, 95); fill-opacity: 1; white-space: pre; opacity: 1;" transform="translate(478.85,0)">2020</text></g></g><g class="yaxislayer-above"><g class="ytick"><text text-anchor="end" x="79" y="4.199999999999999" transform="translate(0,405.42)" style="font-family: 'Open Sans', verdana, arial, sans-serif; font-size: 12px; fill: rgb(42, 63, 95); fill-opacity: 1; white-space: pre; opacity: 1;">−200</text></g><g class="ytick"><text text-anchor="end" x="79" y="4.199999999999999" style="font-family: 'Open Sans', verdana, arial, sans-serif; font-size: 12px; fill: rgb(42, 63, 95); fill-opacity: 1; white-space: pre; opacity: 1;" transform="translate(0,352.38)">−100</text></g><g class="ytick"><text text-anchor="end" x="79" y="4.199999999999999" style="font-family: 'Open Sans', verdana, arial, sans-serif; font-size: 12px; fill: rgb(42, 63, 95); fill-opacity: 1; white-space: pre; opacity: 1;" transform="translate(0,299.35)">0</text></g><g class="ytick"><text text-anchor="end" x="79" y="4.199999999999999" style="font-family: 'Open Sans', verdana, arial, sans-serif; font-size: 12px; fill: rgb(42, 63, 95); fill-opacity: 1; white-space: pre; opacity: 1;" transform="translate(0,246.32)">100</text></g><g class="ytick"><text text-anchor="end" x="79" y="4.199999999999999" style="font-family: 'Open Sans', verdana, arial, sans-serif; font-size: 12px; fill: rgb(42, 63, 95); fill-opacity: 1; white-space: pre; opacity: 1;" transform="translate(0,193.28)">200</text></g><g class="ytick"><text text-anchor="end" x="79" y="4.199999999999999" style="font-family: 'Open Sans', verdana, arial, sans-serif; font-size: 12px; fill: rgb(42, 63, 95); fill-opacity: 1; white-space: pre; opacity: 1;" transform="translate(0,140.25)">300</text></g></g><g class="overaxes-above"/></g></g><g class="polarlayer"/><g class="smithlayer"/><g class="ternarylayer"/><g class="geolayer"/><g class="funnelarealayer"/><g class="pielayer"/><g class="iciclelayer"/><g class="treemaplayer"/><g class="sunburstlayer"/><g class="glimages"/><defs id="topdefs-33279b"><g class="clips"/><clipPath id="legend33279b"><rect width="139" height="105" x="0" y="0"/></clipPath></defs><g class="layer-above"><g class="imagelayer"/><g class="shapelayer"/></g><g class="infolayer"><g class="legend" pointer-events="all" transform="translate(549.2,100)"><rect class="bg" shape-rendering="crispEdges" width="139" height="105" x="0" y="0" style="stroke: rgb(68, 68, 68); stroke-opacity: 1; fill: rgb(255, 255, 255); fill-opacity: 1; stroke-width: 0px;"/><g class="scrollbox" transform="" clip-path="url(#legend33279b)"><g class="groups"><g class="traces" transform="translate(0,14.5)" style="opacity: 1;"><text class="legendtext" text-anchor="start" x="40" y="4.680000000000001" style="font-family: 'Open Sans', verdana, arial, sans-serif; font-size: 12px; fill: rgb(42, 63, 95); fill-opacity: 1; white-space: pre;">Jason.1</text><g class="layers" style="opacity: 1;"><g class="legendfill"/><g class="legendlines"><path class="js-line" d="M5,0h30" style="fill: none; stroke: rgb(99, 110, 250); stroke-opacity: 1; stroke-width: 2px;"/></g><g class="legendsymbols"><g class="legendpoints"/></g></g><rect class="legendtoggle" x="0" y="-9.5" width="133.84375" height="19" style="fill: rgb(0, 0, 0); fill-opacity: 0;"/></g><g class="traces" transform="translate(0,33.5)" style="opacity: 1;"><text class="legendtext" text-anchor="start" x="40" y="4.680000000000001" style="font-family: 'Open Sans', verdana, arial, sans-serif; font-size: 12px; fill: rgb(42, 63, 95); fill-opacity: 1; white-space: pre;">Jason.2</text><g class="layers" style="opacity: 1;"><g class="legendfill"/><g class="legendlines"><path class="js-line" d="M5,0h30" style="fill: none; stroke: rgb(239, 85, 59); stroke-opacity: 1; stroke-width: 2px;"/></g><g class="legendsymbols"><g class="legendpoints"/></g></g><rect class="legendtoggle" x="0" y="-9.5" width="133.84375" height="19" style="fill: rgb(0, 0, 0); fill-opacity: 0;"/></g><g class="traces" transform="translate(0,52.5)" style="opacity: 1;"><text class="legendtext" text-anchor="start" x="40" y="4.680000000000001" style="font-family: 'Open Sans', verdana, arial, sans-serif; font-size: 12px; fill: rgb(42, 63, 95); fill-opacity: 1; white-space: pre;">Jason.3</text><g class="layers" style="opacity: 1;"><g class="legendfill"/><g class="legendlines"><path class="js-line" d="M5,0h30" style="fill: none; stroke: rgb(0, 204, 150); stroke-opacity: 1; stroke-width: 2px;"/></g><g class="legendsymbols"><g class="legendpoints"/></g></g><rect class="legendtoggle" x="0" y="-9.5" width="133.84375" height="19" style="fill: rgb(0, 0, 0); fill-opacity: 0;"/></g><g class="traces" transform="translate(0,71.5)" style="opacity: 1;"><text class="legendtext" text-anchor="start" x="40" y="4.680000000000001" style="font-family: 'Open Sans', verdana, arial, sans-serif; font-size: 12px; fill: rgb(42, 63, 95); fill-opacity: 1; white-space: pre;">Sentinel-6MF</text><g class="layers" style="opacity: 1;"><g class="legendfill"/><g class="legendlines"><path class="js-line" d="M5,0h30" style="fill: none; stroke: rgb(171, 99, 250); stroke-opacity: 1; stroke-width: 2px;"/></g><g class="legendsymbols"><g class="legendpoints"/></g></g><rect class="legendtoggle" x="0" y="-9.5" width="133.84375" height="19" style="fill: rgb(0, 0, 0); fill-opacity: 0;"/></g><g class="traces" transform="translate(0,90.5)" style="opacity: 1;"><text class="legendtext" text-anchor="start" x="40" y="4.680000000000001" style="font-family: 'Open Sans', verdana, arial, sans-serif; font-size: 12px; fill: rgb(42, 63, 95); fill-opacity: 1; white-space: pre;">TOPEX.Poseidon</text><g class="layers" style="opacity: 1;"><g class="legendfill"/><g class="legendlines"><path class="js-line" d="M5,0h30" style="fill: none; stroke: rgb(255, 161, 90); stroke-opacity: 1; stroke-width: 2px;"/></g><g class="legendsymbols"><g class="legendpoints"/></g></g><rect class="legendtoggle" x="0" y="-9.5" width="133.84375" height="19" style="fill: rgb(0, 0, 0); fill-opacity: 0;"/></g></g></g><rect class="scrollbar" rx="20" ry="3" width="0" height="0" x="0" y="0" style="fill: rgb(128, 139, 164); fill-opacity: 1;"/></g><g class="g-gtitle"><text class="gtitle" x="35" y="50" text-anchor="start" dy="0em" style="font-family: 'Open Sans', verdana, arial, sans-serif; font-size: 17px; fill: rgb(42, 63, 95); opacity: 1; font-weight: normal; white-space: pre;">Mean Sea Levels Changing - Persian Gulf</text></g><g class="g-xtitle"><text class="xtitle" x="310" y="460.3" text-anchor="middle" style="font-family: 'Open Sans', verdana, arial, sans-serif; font-size: 14px; fill: rgb(42, 63, 95); opacity: 1; font-weight: normal; white-space: pre;">Date</text></g><g class="g-ytitle"><text class="ytitle" transform="rotate(-90,27.668750000000003,260)" x="27.668750000000003" y="260" text-anchor="middle" style="font-family: 'Open Sans', verdana, arial, sans-serif; font-size: 14px; fill: rgb(42, 63, 95); opacity: 1; font-weight: normal; white-space: pre;">Change in Sea Level [mm]</text></g></g></svg>