<svg class="main-svg" xmlns="http://www.w3.org/2000/svg" xmlns:xlink="http://www.w3.org/1999/xlink" width="700" height="500" style="" viewBox="0 0 700 500"><rect x="0" y="0" width="700" height="500" style="fill: rgb(255, 255, 255); fill-opacity: 1;"/><defs id="defs-97983f"><g class="clips"><clipPath id="clip97983fxyplot" class="plotclip"><rect width="460" height="320"/></clipPath><clipPath class="axesclip" id="clip97983fx"><rect x="80" y="0" width="460" height="500"/></clipPath><clipPath class="axesclip" id="clip97983fy"><rect x="0" y="100" width="700" height="320"/></clipPath><clipPath class="axesclip" id="clip97983fxy"><rect x="80" y="100" width="460" height="320"/></clipPath></g><g class="gradients"/><g class="patterns"/></defs><g class="bglayer"><rect class="bg" x="80" y="100" width="460" height="320" style="fill: rgb(229, 236, 246); fill-opacity: 1; stroke-width: 0;"/></g><g class="layer-below"><g class="imagelayer"/><g class="shapelayer"/></g><g class="cartesianlayer"><g class="subplot xy"><g class="layer-subplot"><g class="shapelayer"/><g class="imagelayer"/></g><g class="minor-gridlayer"><g class="x"/><g class="y"/></g><g class="gridlayer"><g class="x"><path class="xgrid crisp" transform="translate(110.09,0)" d="M0,100v320" style="stroke: rgb(255, 255, 255); stroke-opacity: 1; stroke-width: 1px;"/><path class="xgrid crisp" transform="translate(183.82999999999998,0)" d="M0,100v320" style="stroke: rgb(255, 255, 255); stroke-opacity: 1; stroke-width: 1px;"/><path class="xgrid crisp" transform="translate(257.62,0)" d="M0,100v320" style="stroke: rgb(255, 255, 255); stroke-opacity: 1; stroke-width: 1px;"/><path class="xgrid crisp" transform="translate(331.36,0)" d="M0,100v320" style="stroke: rgb(255, 255, 255); stroke-opacity: 1; stroke-width: 1px;"/><path class="xgrid crisp" transform="translate(405.11,0)" d="M0,100v320" style="stroke: rgb(255, 255, 255); stroke-opacity: 1; stroke-width: 1px;"/><path class="xgrid crisp" transform="translate(478.86,0)" d="M0,100v320" style="stroke: rgb(255, 255, 255); stroke-opacity: 1; stroke-width: 1px;"/></g><g class="y"><path class="ygrid crisp" transform="translate(0,382.7)" d="M80,0h460" style="stroke: rgb(255, 255, 255); stroke-opacity: 1; stroke-width: 1px;"/><path class="ygrid crisp" transform="translate(0,290.19)" d="M80,0h460" style="stroke: rgb(255, 255, 255); stroke-opacity: 1; stroke-width: 1px;"/><path class="ygrid crisp" transform="translate(0,243.94)" d="M80,0h460" style="stroke: rgb(255, 255, 255); stroke-opacity: 1; stroke-width: 1px;"/><path class="ygrid crisp" transform="translate(0,197.68)" d="M80,0h460" style="stroke: rgb(255, 255, 255); stroke-opacity: 1; stroke-width: 1px;"/><path class="ygrid crisp" transform="translate(0,151.43)" d="M80,0h460" style="stroke: rgb(255, 255, 255); stroke-opacity: 1; stroke-width: 1px;"/><path class="ygrid crisp" transform="translate(0,105.18)" d="M80,0h460" style="stroke: rgb(255, 255, 255); stroke-opacity: 1; stroke-width: 1px;"/></g></g><g class="zerolinelayer"><path class="yzl zl crisp" transform="translate(0,336.45)" d="M80,0h460" style="stroke: rgb(255, 255, 255); stroke-opacity: 1; stroke-width: 2px;"/></g><g class="layer-between"><g class="shapelayer"/><g class="imagelayer"/></g><path class="xlines-below"/><path class="ylines-below"/><g class="overlines-below"/><g class="xaxislayer-below"/><g class="yaxislayer-below"/><g class="overaxes-below"/><g class="plot" transform="translate(80,100)" clip-path="url(#clip97983fxyplot)"><g class="scatterlayer mlayer"><g class="trace scatter trace0b31f9" style="stroke-miterlimit: 2; opacity: 1;"><g class="fills"/><g class="errorbars"/><g class="lines"><path class="js-line" d="M134.12,249.3L135.33,223.4L135.74,228.26L136.14,241.67L136.55,233.58L136.91,233.81L137.35,228.26L137.72,244.22L138.93,224.1L139.33,226.64L139.74,237.74L140.14,224.79L140.54,219.01L140.95,229.88L141.72,209.3L142.12,210.22L142.52,209.06L142.93,224.1L143.33,223.63L143.73,213L144.14,208.14L144.54,211.15L144.95,192.87L145.35,184.55L145.75,198.43L146.12,198.89L146.52,201.2L146.93,203.28L147.33,197.5L148.54,213.69L148.94,206.06L149.35,208.83L149.75,206.06L150.52,227.1L150.92,225.02L151.33,219.93L151.73,222.94L152.22,211.38L152.54,221.32L152.94,215.77L153.35,210.68L153.75,209.3L154.15,213.92L155.33,223.87L155.73,222.94L156.94,204.67L157.35,213.23L158.56,199.12L158.96,193.11L160.13,188.48L160.54,196.34L160.9,195.65L161.5,200.97L162.15,191.02L162.55,199.81L162.96,209.99L163.36,196.34L164.49,230.57L165.02,218.78L165.34,217.85L165.75,218.55L166.15,205.36L166.51,206.29L166.96,213.69L167.36,203.98L167.76,215.08L168.17,215.77L168.57,212.76L169.38,195.65L169.78,199.35L170.15,210.45L171.36,227.8L171.76,223.4L173.38,195.19L173.78,204.21L174.59,186.63L174.99,192.64L175.4,191.26L175.8,184.78L176.17,206.75L176.61,195.42L176.97,197.27L177.38,184.09L177.78,194.03L178.18,203.05L178.99,210.22L179.4,207.68L180.2,197.04L180.61,206.06L180.97,223.63L181.37,219.01L181.78,202.59L182.18,200.04L182.59,191.02L182.99,191.49L183.39,200.74L184.2,208.37L184.61,201.89L185.01,200.97L185.41,185.94L186.58,199.81L186.99,201.2L188.12,179.69L188.68,182.93L189.01,182.01L189.41,178.07L190.18,173.91L190.58,168.36L191.39,173.68L191.79,166.97L192.6,178.77L193.01,197.96L193.41,193.57L193.81,193.8L194.22,203.51L194.99,199.35L195.39,211.15L196.6,202.36L197,196.81L197.41,195.19L197.81,186.63L198.22,182.7L198.62,182.93L198.98,190.33L199.39,188.94L199.79,181.77L200.19,200.51L200.6,199.12L201,194.03L201.41,190.79L201.81,200.04L202.21,197.5L202.62,197.96L203.02,176.22L203.79,165.59L204.19,171.83L205.81,190.79L206.21,170.67L207.79,204.9L208.19,190.79L208.6,195.65L209,214.38L209.81,216.23L210.21,213.46L211.02,184.78L211.42,188.02L211.83,187.32L212.19,193.8L212.59,181.31L213,179.92L213.4,196.34L215.02,208.37L215.42,198.66L216.23,186.86L216.63,194.49L217.4,191.95L217.8,167.9L218.61,176.45L219.01,169.29L219.42,183.39L219.82,166.97L220.23,153.79L220.63,163.5L220.99,177.84L221.4,197.5L221.8,189.17L222.21,191.72L222.61,190.79L223.01,193.8L223.42,200.04L223.82,194.03L224.22,202.36L224.63,197.27L225.03,197.27L226.24,208.14L226.65,197.5L227.42,171.6L227.82,175.76L228.22,179.69L228.63,183.39L229.03,179.92L229.43,180.85L229.84,178.54L230.24,178.3L230.57,185.01L231.25,141.76L231.45,195.65L232.67,170.21L233.03,160.27L233.43,165.82L233.84,160.73L234.24,161.88L234.64,155.41L235.05,153.33L235.45,144.54L236.26,176.22L236.66,171.37L237.07,170.44L237.47,171.83L237.67,29.14L238.48,208.14L238.84,193.8L239.25,180.85L239.65,181.31L240.06,173.68L240.86,180.85L241.27,171.83L241.67,169.52L242.08,177.38L242.48,173.45L242.84,180.16L244.05,170.9L244.46,179.23L244.86,178.07L245.27,173.91L246.07,170.21L246.48,163.5L246.84,151.25L247.45,158.42L248.05,160.27L248.46,152.4L248.86,151.02L249.26,160.96L249.67,160.27L250.07,158.65L250.48,161.65L250.88,153.1L251.28,149.4L251.65,151.02L252.05,164.2L252.45,186.4L252.86,183.62L253.26,165.59L253.67,162.35L254.07,171.37L254.47,180.16L254.88,172.99L255.24,169.75L255.69,155.87L256.05,162.35L256.45,165.82L256.86,162.81L257.26,165.59L258.07,168.82L258.47,172.99L258.88,178.3L259.28,166.28L259.64,165.59L260.09,169.52L260.45,161.65L260.86,172.52L261.66,167.67L262.07,168.59L262.47,160.5L263.68,142.69L264.09,154.02L264.85,181.54L265.26,172.99L265.66,170.21L266.06,171.83L266.47,182.47L266.87,178.07L267.28,180.39L267.68,197.73L268.89,182.47L269.26,191.72L269.66,176.92L270.06,187.79L270.47,189.41L270.87,189.17L271.27,182.93L272.08,174.37L272.49,174.84L272.89,174.6L274.06,193.11L274.47,181.31L275.27,176.45L275.68,163.04L276.08,163.27L276.48,173.45L277.7,147.08L278.1,154.25L278.46,150.32L278.87,157.26L279.27,154.72L279.68,158.65L280.48,149.17L280.89,157.26L281.69,164.66L282.1,164.2L282.46,160.5L282.7,184.78L283.31,184.09L286.22,151.71L287.11,162.35L287.55,154.48L287.83,155.41L288.16,153.33L288.6,154.25L289,150.78L289.45,156.1L289.77,139.45L290.05,149.17L290.5,144.54L290.94,143.38L291.99,130.43L292.44,134.36L292.88,142.69L293.16,138.06L293.49,123.96L293.93,120.95L294.38,129.51L294.82,131.59L295.1,136.68L295.39,137.6L295.83,143.15L296.27,151.48L296.72,144.31L298.01,175.53L298.78,148.47L299.67,159.57L300.11,161.42L300.72,140.38L301.16,146.16L301.6,148.01L302.33,169.52L302.49,185.94" style="vector-effect: none; fill: none; stroke: rgb(99, 110, 250); stroke-opacity: 1; stroke-width: 2px; opacity: 1;"/></g><g class="points"/><g class="text"/></g><g class="trace scatter traceb37e0d" style="stroke-miterlimit: 2; opacity: 1;"><g class="fills"/><g class="errorbars"/><g class="lines"><path class="js-line" d="M229.47,180.96L230.24,177.03L230.65,185.82L231.05,190.91L231.45,185.36L232.26,165.24L232.67,165.93L233.03,159.23L233.43,163.62L233.84,160.84L234.24,162.69L235.05,160.15L235.45,146.51L236.66,175.41L237.07,174.95L237.47,175.41L237.88,187.9L238.28,200.62L238.64,195.3L239.05,186.75L239.45,185.82L239.85,182.81L241.07,174.49L241.47,176.8L241.87,178.88L242.28,175.65L243.45,171.02L243.85,176.11L244.26,177.5L244.66,182.12L245.87,165.24L246.28,167.78L247.08,149.28L247.45,156.45L247.85,156.68L248.66,149.05L249.06,153.44L249.47,166.63L249.87,156.22L250.27,163.62L250.68,164.78L251.08,148.12L252.25,173.1L252.66,186.52L253.87,162L254.27,179.11L255.08,168.24L255.48,160.38L255.89,158.99L256.25,168.24L256.65,166.63L257.06,158.76L257.46,159.69L257.87,164.08L258.67,169.86L259.08,164.08L259.48,164.08L259.89,169.63L260.29,169.86L260.65,168.01L261.06,175.41L261.46,166.63L262.27,159.92L262.67,149.28L263.08,145.35L263.48,150.21L263.88,152.06L264.29,158.07L265.06,176.34L265.46,174.95L265.86,171.71L266.27,178.19L266.67,180.73L267.07,174.72L267.88,199L268.29,190.45L268.69,183.28L269.09,185.36L269.46,184.66L269.86,177.73L270.27,187.44L270.67,186.52L271.07,188.83L272.28,170.79L272.69,176.57L273.09,170.79L273.5,182.58L273.86,186.98L274.26,180.96L275.88,159.23L276.28,160.84L276.69,158.99L277.09,151.59L277.9,142.11L278.26,153.44L278.67,146.27L279.07,150.9L279.47,153.91L279.88,154.37L280.28,152.06L280.68,152.29L281.09,149.97L282.3,160.38L282.7,157.61L283.11,171.71L283.47,168.94L283.88,158.76L285.09,160.15L285.49,156.68L285.89,155.06L286.3,149.05L287.11,165.7L287.51,157.14L289.13,148.59L289.49,152.52L290.7,136.1L291.1,144.42L292.32,125.92L292.72,138.64L293.12,136.1L293.53,126.15L293.93,121.3L294.34,127.08L294.74,123.38L295.14,128.93L295.55,130.09L295.91,143.5L296.72,143.73L297.12,149.97L297.93,155.06L298.33,152.52L299.06,149.74L299.59,139.57L299.95,145.12L300.31,134.25L300.72,134.02L301.12,144.66L301.93,144.19L302.33,154.83L302.74,146.04L303.14,152.06L303.54,153.67L303.95,151.13L304.35,143.5L305.12,151.36L305.48,140.95L306.05,149.28L306.33,138.41L307.95,117.13L308.35,129.62L309.52,154.6L309.92,143.96L310.33,138.18L310.73,146.74L311.14,142.57L311.54,151.13L311.94,154.37L312.35,152.75L312.75,153.67L313.16,149.05L313.52,158.07L313.92,158.76L314.33,146.27L315.54,138.18L315.94,141.19L316.35,142.34L316.75,152.06L317.92,137.95L318.32,141.88L318.73,144.19L319.13,142.57L319.54,140.95L320.75,119.91L321.15,126.38L321.96,113.2L322.32,114.59L322.73,121.07L323.13,121.99L323.53,137.49L323.94,132.17L324.34,106.5L325.15,126.38L325.55,123.38L325.96,124.53L326.36,123.38L326.73,128.7L327.13,128L327.53,132.17L329.15,121.53L329.55,121.07L329.96,127.08L330.36,126.38L330.76,125.92L331.13,118.29L331.53,127.77L331.94,128L332.34,121.3L333.15,135.4L333.55,122.92L333.95,118.06L334.36,128.93L336.34,84.76L336.74,84.76L337.14,87.99L337.55,101.87L337.95,108.11L338.36,100.95L338.76,94.24L339.16,102.56L340.34,117.6L340.74,110.66L341.14,120.37L341.55,116.44L341.95,119.45L343.16,106.5L343.53,115.05L344.37,124.77L344.78,122.45L345.95,104.18L346.35,109.96L346.76,101.18L347.16,106.26L347.56,114.82L347.97,113.67L348.37,118.06L348.78,115.98L349.18,120.6L349.99,105.8L350.39,107.88L350.8,102.8L351.52,102.56L351.81,95.63L352.57,84.29L352.98,84.53L354.59,114.13L355,107.19L355.4,103.95L355.8,111.81L356.21,123.84L356.61,115.28L357.01,118.29L357.38,114.82L357.62,121.76L358.99,104.88L359.4,105.57L359.8,109.04L360.08,119.45" style="vector-effect: none; fill: none; stroke: rgb(239, 85, 59); stroke-opacity: 1; stroke-width: 2px; opacity: 1;"/></g><g class="points"/><g class="text"/></g><g class="trace scatter trace110bdc" style="stroke-miterlimit: 2; opacity: 1;"><g class="fills"/><g class="errorbars"/><g class="lines"><path class="js-line" d="M341.63,118.89L341.95,118.66L342.35,111.03L342.72,114.27L343.16,101.78L344.37,125.83L344.78,123.98L345.95,101.32L346.35,108.72L346.76,101.78L347.16,103.17L347.56,112.65L347.97,111.72L348.37,117.5L348.78,117.27L349.18,123.52L350.39,103.4L350.8,97.85L351.2,101.08L351.6,93.45L352.01,93.45L352.37,75.41L352.77,78.88L353.18,76.8L353.58,98.08L354.79,111.72L355.2,104.55L355.6,107.33L356.01,120.74L356.81,117.27L357.22,119.59L357.98,108.48L358.39,111.03L358.79,116.12L359.2,105.25L359.6,105.48L360,114.04L360.41,120.05L360.81,112.19L361.62,117.97L361.98,110.33L362.39,107.56L362.79,115.89L363.19,107.79L363.6,111.26L364,110.1L365.21,96L365.62,98.31L366.02,95.76L366.38,83.74L366.79,76.57L367.19,77.49L367.6,86.05L368,82.35L368.4,85.59L368.81,92.3L369.62,108.72L370.02,107.56L370.42,116.12L370.79,107.56L371.59,125.14L372,117.04L372.81,123.29L373.21,122.13L373.61,119.12L374.42,105.48L374.83,109.18L375.19,108.95L375.59,106.63L376,107.33L376.4,111.49L376.8,112.19L377.21,106.87L377.61,104.09L378.02,107.79L378.42,99.47L378.82,103.63L379.23,109.64L380.4,84.66L380.8,85.59L381.61,70.09L382.01,80.5L382.42,82.12L382.82,87.21L383.23,81.66L383.63,83.74L383.99,96L384.4,101.08L384.8,92.99L386.01,109.18L386.25,106.63L386.86,108.48L387.22,96L387.91,87.21L388.4,94.38L389.2,79.34L389.61,88.13L390.01,89.52L390.41,94.61L390.82,88.6L391.22,93.45L391.63,91.83L392.43,85.13L392.8,89.52L393.2,87.44L393.6,78.65L394.01,83.74L394.41,78.19L394.82,77.49L395.22,78.42L396.84,59.92L397.2,67.32L397.6,65.47L398.01,66.86L398.41,77.26L398.81,79.34L399.22,99.47L399.62,99.47L399.95,92.3L400.47,84.2L400.83,95.53L402.05,105.94L402.45,96.23L402.81,78.19L403.22,86.05L403.62,85.59L404.83,72.64L405.24,77.49L405.64,85.36L406.04,82.12L406.45,83.28L406.85,85.13L407.26,78.65L407.66,82.12L408.06,93.22L409.23,68.01L409.64,76.11L411.25,54.6L411.66,55.52L412.87,78.19L413.27,73.1L413.68,68.71L414.08,73.1L414.85,74.72L415.25,90.21L416.06,97.62L416.46,86.28L416.87,86.98L417.27,79.81L417.68,75.64L418.08,62.46L418.48,73.79L418.89,67.32L419.25,60.38L420.06,84.66L420.46,78.42L420.87,71.71L421.27,69.4L421.67,77.03L422.08,66.86L422.48,69.63L422.88,68.48L423.29,73.1L423.65,61.31L424.06,58.76L424.46,61.07L425.67,43.96L426.08,48.12L426.48,56.91L426.88,50.67L427.29,43.5L428.05,64.77L428.46,61.54L428.86,58.76L430.48,82.12L430.88,80.96L432.09,72.18L432.29,92.53L433.35,73.56L433.75,74.72L434.15,76.34L434.56,83.28L434.96,73.33L435.77,61.54L436.17,65.47L436.94,74.95L437.34,74.49L437.75,69.63L439.77,45.81L440.17,46.74L440.57,50.44L440.98,47.66L441.34,58.07L441.75,58.07L442.15,63.16L442.96,35.4L443.36,47.2L444.17,54.6L444.57,68.71L444.98,67.55L445.34,76.8L445.74,67.78L446.15,70.33L446.55,80.27L447.36,72.18L447.76,59.46L448.57,42.57L448.97,50.44L450.15,57.61L450.55,55.76L451.36,43.5L451.76,49.74L452.17,59.46L452.57,57.61L452.97,40.03L453.38,42.8L453.78,37.02L454.14,35.87L454.55,26.85L454.95,16.9L456.16,40.49L456.57,44.89L456.97,39.34L457.37,33.78L457.78,36.1L458.18,42.11L458.59,34.71L458.95,40.95L459.35,50.2L460,48.59" style="vector-effect: none; fill: none; stroke: rgb(0, 204, 150); stroke-opacity: 1; stroke-width: 2px; opacity: 1;"/></g><g class="points"/><g class="text"/></g><g class="trace scatter trace705ea0" style="stroke-miterlimit: 2; opacity: 1;"><g class="fills"/><g class="errorbars"/><g class="lines"><path class="js-line" d="M413.27,69.42L413.68,69.89L414.08,75.9L416.06,101.34L416.46,94.63L416.87,96.48L417.27,86.31L418.08,68.73L418.48,78.21L419.25,59.25L419.65,62.95L420.06,76.82L421.27,67.11L421.67,76.36L422.48,59.94L422.88,64.34L423.29,72.43L423.65,63.18L424.46,60.17L424.86,48.84L425.27,46.99L425.67,48.61L426.08,55.55L426.48,63.41L426.88,51.62L427.29,38.2L427.69,57.63L428.05,70.58L428.46,68.73L428.86,68.04L429.27,63.87L429.67,72.89L430.88,83.53L431.29,77.98L432.09,67.11L432.46,72.66L432.86,82.61L433.26,74.74L433.67,77.29L434.07,70.58L434.48,78.44L435.69,62.25L436.09,62.02L436.5,62.02L436.86,67.11L437.26,74.74L437.67,72.66L438.07,68.73L439.28,46.76L439.69,50.23L440.09,45.14L440.49,49.77L440.9,41.44L441.26,50.23L441.66,52.08L442.07,61.1L442.88,40.05L443.28,46.53L443.68,46.53L445.3,81.68L445.66,70.12L446.07,65.26L446.47,78.91L447.28,76.82L447.68,65.26L448.49,39.36L448.89,44.68L449.3,53.47L450.06,58.78L450.47,56.24L450.87,41.21L451.28,43.29L451.68,47.45L452.49,58.32L452.89,39.59L454.47,31.73L454.87,16L456.49,47.92L456.89,43.06" style="vector-effect: none; fill: none; stroke: rgb(171, 99, 250); stroke-opacity: 1; stroke-width: 2px; opacity: 1;"/></g><g class="points"/><g class="text"/></g><g class="trace scatter tracee3e7d8" style="stroke-miterlimit: 2; opacity: 1;"><g class="fills"/><g class="errorbars"/><g class="lines"><path class="js-line" d="M0,279.49L1.17,304L1.53,297.99L2.02,296.83L2.34,301.22L3.19,293.59L3.59,297.06L4,297.06L4.81,288.5L5.17,281.1L5.57,288.04L5.98,288.27L7.19,280.18L7.59,281.1L8,286.65L8.4,275.79L9.21,282.95L9.98,279.49L10.38,270L11.19,283.88L11.59,271.16L11.99,250.11L12.4,259.83L13.21,265.61L13.61,262.6L14.01,263.53L14.38,265.38L14.78,255.2L15.19,264.45L15.59,279.95L15.99,270.23L16.4,271.62L17.2,302.38L17.61,292.21L18.01,280.87L19.18,265.61L19.59,273.01L21.2,287.12L21.61,280.41L22.01,268.38L22.78,283.88L23.18,273.47L23.59,282.72L23.99,279.25L24.39,282.03L24.8,281.57L26.41,258.9L26.82,260.52L27.18,261.68L27.58,251.73L28.8,265.84L29.2,250.81L29.6,252.89L30.01,260.06L30.41,254.51L30.81,263.3L31.22,259.13L31.58,274.4L31.99,284.57L32.39,262.83L33.2,261.22L33.6,276.25L34.81,258.67L35.62,262.14L35.98,267.23L36.39,265.84L36.79,266.53L37.2,274.17L38,272.55L39.22,254.51L39.62,258.21L39.98,259.6L40.79,229.07L41.19,239.01L41.6,243.64L42.41,242.94L42.81,239.48L43.17,230.23L44.02,243.87L44.42,236.7L44.83,244.33L46,270.7L46.4,257.98L47.21,255.2L47.62,263.3L49.23,260.29L49.63,246.88L50.04,236.7L50.44,249.42L50.81,247.8L51.21,253.12L52.02,263.07L52.42,255.9L53.23,239.48L53.63,250.35L54.44,242.71L54.84,245.95L56.06,225.14L56.86,222.59L57.23,210.57L57.63,217.04L58.04,233.23L58.44,231.61L58.84,235.54L59.25,250.58L59.65,249.19L60.05,250.58L60.46,259.83L60.86,258.9L61.67,258.44L62.44,261.22L62.84,256.36L63.24,247.8L63.65,260.98L64.05,269.31L64.46,261.22L65.67,232.54L66.48,251.27L66.84,251.04L67.24,249.19L67.65,241.79L68.05,247.8L68.86,238.32L69.26,239.24L69.67,247.11L71.24,219.36L71.65,218.66L72.05,215.19L72.45,229.53L72.86,229.76L73.26,226.52L74.88,246.65L75.64,243.18L76.86,257.75L77.26,245.95L77.66,243.18L78.07,247.57L78.87,245.72L79.28,251.5L80.85,245.26L81.26,243.18L81.66,242.02L82.06,253.35L82.47,258.44L83.28,248.5L83.68,253.12L84.08,242.25L84.45,246.18L84.85,236.7L85.26,234.85L85.66,238.78L86.47,225.14L86.87,235.08L87.27,235.08L87.68,246.41L88.08,236.47L88.49,252.43L89.25,255.43L89.66,247.11L90.47,265.84L90.91,259.83L91.27,265.84L92.08,273.7L92.48,256.36L93.25,268.85L94.06,261.45L94.46,262.6L94.87,260.06L95.27,255.66L95.68,258.44L96.08,267.46L96.89,261.68L97.29,267.69L97.65,262.14L98.06,267.92L98.46,251.96L99.27,255.66L100.48,233.93L100.88,235.54L101.29,236.01L101.69,230.92L102.1,222.36L102.46,228.61L103.27,235.54L104.08,254.05L104.48,249.65L104.88,244.79L105.69,256.82L106.09,246.41L106.9,259.13L107.31,249.19L108.07,257.98L108.48,250.35L108.88,257.75L109.29,255.9L109.69,249.19L110.09,243.64L110.5,248.96L110.9,256.82L111.3,251.96L111.71,242.02L112.52,252.43L112.92,246.65L113.73,250.81L114.09,237.86L114.9,218.43L115.3,218.66L115.71,225.37L116.51,208.95L116.92,210.1L117.32,213.57L118.13,231.15L118.53,220.74L118.94,219.36L119.71,237.16L120.11,241.09L120.51,240.86L120.92,233.46L121.32,224.21L121.72,240.4L122.13,234.39L122.53,240.17L122.94,232.08L123.34,244.33L124.11,220.97L124.51,233.93L124.91,240.63L125.32,238.32L125.72,225.14L126.13,220.74L126.53,233L126.93,228.61L127.34,215.66L128.15,229.07L128.51,223.29L128.91,207.33L129.32,210.57L129.72,208.25L130.53,217.27L130.93,199.93L131.34,195.07L131.74,212.88L132.14,224.21L132.71,216.58L133.32,214.96L134.12,246.65L134.53,238.32L134.93,237.63L135.33,225.37L135.74,226.99L136.14,237.16L136.95,234.85L137.31,235.78L137.76,248.5L138.12,232.08L138.53,228.61L138.93,232.31L139.74,241.33L140.14,224.91L140.54,218.89L141.35,224.67L142.12,210.8L142.52,211.72L143.01,219.36L143.73,210.57L144.14,211.03L144.54,223.52L145.35,181.66L145.75,196.92L146.56,207.79L146.93,196.46L147.33,186.98L147.73,212.42L148.94,201.55L149.35,203.4L149.75,201.55L150.16,223.75L150.52,220.97L150.92,225.83L151.73,219.36L152.14,211.49L152.54,216.81L152.94,213.34L153.35,206.4L154.15,210.8L154.56,214.5L154.92,211.26L155.33,217.51L156.94,201.78L157.35,211.49L157.75,205.94L158.15,207.1L158.56,209.41L159.73,190.22L160.13,186.98L160.94,198.31L161.5,192.76L161.67,198.54L162.15,192.99L162.55,195.07L162.96,214.27L163.36,205.94L163.73,208.49L164.94,233.46L165.34,220.97L165.75,226.06L166.15,205.25L166.55,206.17L166.96,217.04L167.36,209.87L167.76,218.43L168.57,203.86L169.78,191.6L170.15,218.89L170.55,217.04L171,220.97L171.36,234.62L171.76,228.61L172.17,221.21L172.57,218.43L172.97,209.64L174.19,190.91L174.59,194.15L174.99,201.78L175.4,197.38L175.8,188.13L176.21,208.25L176.61,197.38L176.93,198.31L177.38,194.15L177.78,206.64L178.99,212.42L179.4,222.13L180.2,206.87L180.61,213.11L181.37,224.44L181.78,213.57L182.18,215.66L182.59,196.23L182.99,190.68L183.39,203.17L184.2,218.89L184.61,215.19L185.82,192.99L186.18,202.94L186.58,207.79L186.99,205.94L187.39,205.48L187.8,182.81L188.2,186.75L188.6,192.3" style="vector-effect: none; fill: none; stroke: rgb(255, 161, 90); stroke-opacity: 1; stroke-width: 2px; opacity: 1;"/></g><g class="points"/><g class="text"/></g></g></g><g class="overplot"/><path class="xlines-above crisp" d="M0,0" style="fill: none;"/><path class="ylines-above crisp" d="M0,0" style="fill: none;"/><g class="overlines-above"/><g class="xaxislayer-above"><g class="xtick"><text text-anchor="middle" x="0" y="433" transform="translate(110.09,0)" style="font-family: 'Open Sans', verdana, arial, sans-serif; font-size: 12px; fill: rgb(42, 63, 95); fill-opacity: 1; white-space: pre; opacity: 1;">1995</text></g><g class="xtick"><text text-anchor="middle" x="0" y="433" style="font-family: 'Open Sans', verdana, arial, sans-serif; font-size: 12px; fill: rgb(42, 63, 95); fill-opacity: 1; white-space: pre; opacity: 1;" transform="translate(183.82999999999998,0)">2000</text></g><g class="xtick"><text text-anchor="middle" x="0" y="433" style="font-family: 'Open Sans', verdana, arial, sans-serif; font-size: 12px; fill: rgb(42, 63, 95); fill-opacity: 1; white-space: pre; opacity: 1;" transform="translate(257.62,0)">2005</text></g><g class="xtick"><text text-anchor="middle" x="0" y="433" style="font-family: 'Open Sans', verdana, arial, sans-serif; font-size: 12px; fill: rgb(42, 63, 95); fill-opacity: 1; white-space: pre; opacity: 1;" transform="translate(331.36,0)">2010</text></g><g class="xtick"><text text-anchor="middle" x="0" y="433" style="font-family: 'Open Sans', verdana, arial, sans-serif; font-size: 12px; fill: rgb(42, 63, 95); fill-opacity: 1; white-space: pre; opacity: 1;" transform="translate(405.11,0)">2015</text></g><g class="xtick"><text text-anchor="middle" x="0" y="433" style="font-family: 'Open Sans', verdana, arial, sans-serif; font-size: 12px; fill: rgb(42, 63, 95); fill-opacity: 1; white-space: pre; opacity: 1;" transform="translate(478.86,0)">2020</text></g></g><g class="yaxislayer-above"><g class="ytick"><text text-anchor="end" x="79" y="4.199999999999999" transform="translate(0,382.7)" style="font-family: 'Open Sans', verdana, arial, sans-serif; font-size: 12px; fill: rgb(42, 63, 95); fill-opacity: 1; white-space: pre; opacity: 1;">−20</text></g><g class="ytick"><text text-anchor="end" x="79" y="4.199999999999999" style="font-family: 'Open Sans', verdana, arial, sans-serif; font-size: 12px; fill: rgb(42, 63, 95); fill-opacity: 1; white-space: pre; opacity: 1;" transform="translate(0,336.45)">0</text></g><g class="ytick"><text text-anchor="end" x="79" y="4.199999999999999" style="font-family: 'Open Sans', verdana, arial, sans-serif; font-size: 12px; fill: rgb(42, 63, 95); fill-opacity: 1; white-space: pre; opacity: 1;" transform="translate(0,290.19)">20</text></g><g class="ytick"><text text-anchor="end" x="79" y="4.199999999999999" style="font-family: 'Open Sans', verdana, arial, sans-serif; font-size: 12px; fill: rgb(42, 63, 95); fill-opacity: 1; white-space: pre; opacity: 1;" transform="translate(0,243.94)">40</text></g><g class="ytick"><text text-anchor="end" x="79" y="4.199999999999999" style="font-family: 'Open Sans', verdana, arial, sans-serif; font-size: 12px; fill: rgb(42, 63, 95); fill-opacity: 1; white-space: pre; opacity: 1;" transform="translate(0,197.68)">60</text></g><g class="ytick"><text text-anchor="end" x="79" y="4.199999999999999" style="font-family: 'Open Sans', verdana, arial, sans-serif; font-size: 12px; fill: rgb(42, 63, 95); fill-opacity: 1; white-space: pre; opacity: 1;" transform="translate(0,151.43)">80</text></g><g class="ytick"><text text-anchor="end" x="79" y="4.199999999999999" style="font-family: 'Open Sans', verdana, arial, sans-serif; font-size: 12px; fill: rgb(42, 63, 95); fill-opacity: 1; white-space: pre; opacity: 1;" transform="translate(0,105.18)">100</text></g></g><g class="overaxes-above"/></g></g><g class="polarlayer"/><g class="smithlayer"/><g class="ternarylayer"/><g class="geolayer"/><g class="funnelarealayer"/><g class="pielayer"/><g class="iciclelayer"/><g class="treemaplayer"/><g class="sunburstlayer"/><g class="glimages"/><defs id="topdefs-97983f"><g class="clips"/><clipPath id="legend97983f"><rect width="139" height="105" x="0" y="0"/></clipPath></defs><g class="layer-above"><g class="imagelayer"/><g class="shapelayer"/></g><g class="infolayer"><g class="legend" pointer-events="all" transform="translate(549.2,100)"><rect class="bg" shape-rendering="crispEdges" width="139" height="105" x="0" y="0" style="stroke: rgb(68, 68, 68); stroke-opacity: 1; fill: rgb(255, 255, 255); fill-opacity: 1; stroke-width: 0px;"/><g class="scrollbox" transform="" clip-path="url(#legend97983f)"><g class="groups"><g class="traces" transform="translate(0,14.5)" style="opacity: 1;"><text class="legendtext" text-anchor="start" x="40" y="4.680000000000001" style="font-family: 'Open Sans', verdana, arial, sans-serif; font-size: 12px; fill: rgb(42, 63, 95); fill-opacity: 1; white-space: pre;">Jason.1</text><g class="layers" style="opacity: 1;"><g class="legendfill"/><g class="legendlines"><path class="js-line" d="M5,0h30" style="fill: none; stroke: rgb(99, 110, 250); stroke-opacity: 1; stroke-width: 2px;"/></g><g class="legendsymbols"><g class="legendpoints"/></g></g><rect class="legendtoggle" x="0" y="-9.5" width="133.84375" height="19" style="fill: rgb(0, 0, 0); fill-opacity: 0;"/></g><g class="traces" transform="translate(0,33.5)" style="opacity: 1;"><text class="legendtext" text-anchor="start" x="40" y="4.680000000000001" style="font-family: 'Open Sans', verdana, arial, sans-serif; font-size: 12px; fill: rgb(42, 63, 95); fill-opacity: 1; white-space: pre;">Jason.2</text><g class="layers" style="opacity: 1;"><g class="legendfill"/><g class="legendlines"><path class="js-line" d="M5,0h30" style="fill: none; stroke: rgb(239, 85, 59); stroke-opacity: 1; stroke-width: 2px;"/></g><g class="legendsymbols"><g class="legendpoints"/></g></g><rect class="legendtoggle" x="0" y="-9.5" width="133.84375" height="19" style="fill: rgb(0, 0, 0); fill-opacity: 0;"/></g><g class="traces" transform="translate(0,52.5)" style="opacity: 1;"><text class="legendtext" text-anchor="start" x="40" y="4.680000000000001" style="font-family: 'Open Sans', verdana, arial, sans-serif; font-size: 12px; fill: rgb(42, 63, 95); fill-opacity: 1; white-space: pre;">Jason.3</text><g class="layers" style="opacity: 1;"><g class="legendfill"/><g class="legendlines"><path class="js-line" d="M5,0h30" style="fill: none; stroke: rgb(0, 204, 150); stroke-opacity: 1; stroke-width: 2px;"/></g><g class="legendsymbols"><g class="legendpoints"/></g></g><rect class="legendtoggle" x="0" y="-9.5" width="133.84375" height="19" style="fill: rgb(0, 0, 0); fill-opacity: 0;"/></g><g class="traces" transform="translate(0,71.5)" style="opacity: 1;"><text class="legendtext" text-anchor="start" x="40" y="4.680000000000001" style="font-family: 'Open Sans', verdana, arial, sans-serif; font-size: 12px; fill: rgb(42, 63, 95); fill-opacity: 1; white-space: pre;">Sentinel-6MF</text><g class="layers" style="opacity: 1;"><g class="legendfill"/><g class="legendlines"><path class="js-line" d="M5,0h30" style="fill: none; stroke: rgb(171, 99, 250); stroke-opacity: 1; stroke-width: 2px;"/></g><g class="legendsymbols"><g class="legendpoints"/></g></g><rect class="legendtoggle" x="0" y="-9.5" width="133.84375" height="19" style="fill: rgb(0, 0, 0); fill-opacity: 0;"/></g><g class="traces" transform="translate(0,90.5)" style="opacity: 1;"><text class="legendtext" text-anchor="start" x="40" y="4.680000000000001" style="font-family: 'Open Sans', verdana, arial, sans-serif; font-size: 12px; fill: rgb(42, 63, 95); fill-opacity: 1; white-space: pre;">TOPEX.Poseidon</text><g class="layers" style="opacity: 1;"><g class="legendfill"/><g class="legendlines"><path class="js-line" d="M5,0h30" style="fill: none; stroke: rgb(255, 161, 90); stroke-opacity: 1; stroke-width: 2px;"/></g><g class="legendsymbols"><g class="legendpoints"/></g></g><rect class="legendtoggle" x="0" y="-9.5" width="133.84375" height="19" style="fill: rgb(0, 0, 0); fill-opacity: 0;"/></g></g></g><rect class="scrollbar" rx="20" ry="3" width="0" height="0" x="0" y="0" style="fill: rgb(128, 139, 164); fill-opacity: 1;"/></g><g class="g-gtitle"><text class="gtitle" x="35" y="50" text-anchor="start" dy="0em" style="font-family: 'Open Sans', verdana, arial, sans-serif; font-size: 17px; fill: rgb(42, 63, 95); opacity: 1; font-weight: normal; white-space: pre;">Mean Sea Levels Changing - Tropics</text></g><g class="g-xtitle"><text class="xtitle" x="310" y="460.3" text-anchor="middle" style="font-family: 'Open Sans', verdana, arial, sans-serif; font-size: 14px; fill: rgb(42, 63, 95); opacity: 1; font-weight: normal; white-space: pre;">Date</text></g><g class="g-ytitle"><text class="ytitle" transform="rotate(-90,34.340625,260)" x="34.340625" y="260" text-anchor="middle" style="font-family: 'Open Sans', verdana, arial, sans-serif; font-size: 14px; fill: rgb(42, 63, 95); opacity: 1; font-weight: normal; white-space: pre;">Change in Sea Level [mm]</text></g></g></svg>