<svg class="main-svg" xmlns="http://www.w3.org/2000/svg" xmlns:xlink="http://www.w3.org/1999/xlink" width="700" height="500" style="" viewBox="0 0 700 500"><rect x="0" y="0" width="700" height="500" style="fill: rgb(255, 255, 255); fill-opacity: 1;"/><defs id="defs-e96123"><g class="clips"><clipPath id="clipe96123xyplot" class="plotclip"><rect width="460" height="320"/></clipPath><clipPath class="axesclip" id="clipe96123x"><rect x="80" y="0" width="460" height="500"/></clipPath><clipPath class="axesclip" id="clipe96123y"><rect x="0" y="100" width="700" height="320"/></clipPath><clipPath class="axesclip" id="clipe96123xy"><rect x="80" y="100" width="460" height="320"/></clipPath></g><g class="gradients"/><g class="patterns"/></defs><g class="bglayer"><rect class="bg" x="80" y="100" width="460" height="320" style="fill: rgb(229, 236, 246); fill-opacity: 1; stroke-width: 0;"/></g><g class="layer-below"><g class="imagelayer"/><g class="shapelayer"/></g><g class="cartesianlayer"><g class="subplot xy"><g class="layer-subplot"><g class="shapelayer"/><g class="imagelayer"/></g><g class="minor-gridlayer"><g class="x"/><g class="y"/></g><g class="gridlayer"><g class="x"><path class="xgrid crisp" transform="translate(110.09,0)" d="M0,100v320" style="stroke: rgb(255, 255, 255); stroke-opacity: 1; stroke-width: 1px;"/><path class="xgrid crisp" transform="translate(183.82999999999998,0)" d="M0,100v320" style="stroke: rgb(255, 255, 255); stroke-opacity: 1; stroke-width: 1px;"/><path class="xgrid crisp" transform="translate(257.62,0)" d="M0,100v320" style="stroke: rgb(255, 255, 255); stroke-opacity: 1; stroke-width: 1px;"/><path class="xgrid crisp" transform="translate(331.36,0)" d="M0,100v320" style="stroke: rgb(255, 255, 255); stroke-opacity: 1; stroke-width: 1px;"/><path class="xgrid crisp" transform="translate(405.11,0)" d="M0,100v320" style="stroke: rgb(255, 255, 255); stroke-opacity: 1; stroke-width: 1px;"/><path class="xgrid crisp" transform="translate(478.86,0)" d="M0,100v320" style="stroke: rgb(255, 255, 255); stroke-opacity: 1; stroke-width: 1px;"/></g><g class="y"><path class="ygrid crisp" transform="translate(0,418.52)" d="M80,0h460" style="stroke: rgb(255, 255, 255); stroke-opacity: 1; stroke-width: 1px;"/><path class="ygrid crisp" transform="translate(0,354.47)" d="M80,0h460" style="stroke: rgb(255, 255, 255); stroke-opacity: 1; stroke-width: 1px;"/><path class="ygrid crisp" transform="translate(0,226.38)" d="M80,0h460" style="stroke: rgb(255, 255, 255); stroke-opacity: 1; stroke-width: 1px;"/><path class="ygrid crisp" transform="translate(0,162.32999999999998)" d="M80,0h460" style="stroke: rgb(255, 255, 255); stroke-opacity: 1; stroke-width: 1px;"/></g></g><g class="zerolinelayer"><path class="yzl zl crisp" transform="translate(0,290.43)" d="M80,0h460" style="stroke: rgb(255, 255, 255); stroke-opacity: 1; stroke-width: 2px;"/></g><g class="layer-between"><g class="shapelayer"/><g class="imagelayer"/></g><path class="xlines-below"/><path class="ylines-below"/><g class="overlines-below"/><g class="xaxislayer-below"/><g class="yaxislayer-below"/><g class="overaxes-below"/><g class="plot" transform="translate(80,100)" clip-path="url(#clipe96123xyplot)"><g class="scatterlayer mlayer"><g class="trace scatter trace313030" style="stroke-miterlimit: 2; opacity: 1;"><g class="fills"/><g class="errorbars"/><g class="lines"><path class="js-line" d="M134.12,178.12L135.33,127.58L135.74,143.98L137.31,177.99L137.72,176.58L138.12,199.76L138.53,196.57L138.93,185.17L139.74,209.83L140.14,199.7L140.91,230.77L141.31,218.85L143.33,252.67L143.73,243.25L144.54,237.74L144.95,243.12L145.35,217.7L145.71,235.31L146.12,232.18L146.52,229.8L146.93,207.32L147.33,210.02L147.73,207.19L148.54,150.51L148.9,182.54L149.35,185.67L149.75,171.65L150.52,164.92L150.92,168.7L151.33,187.66L151.73,177.67L152.22,184.21L152.94,214.62L153.35,196.95L153.75,181.77L154.11,197.78L155.73,240.88L156.13,241.2L156.54,256.12L156.94,245.49L157.35,244.99L157.75,244.6L158.15,247.29L159.32,211.8L159.73,212.25L160.13,192.53L160.54,196.57L160.9,192.91L161.5,193.62L161.75,175.43L162.51,150.19L162.96,165.75L163.32,165.37L163.73,186.38L164.49,151.86L165.02,164.15L165.34,171.27L165.75,153.91L166.15,143.85L166.51,152.88L166.96,182.54L167.36,176.84L167.76,187.34L168.53,172.48L168.98,174.28L169.38,187.99L170.15,230.06L170.55,218.34L172.17,261.83L172.57,252.22L173.38,238.96L173.78,245.81L174.99,210.79L175.4,208.47L176.21,204.7L176.61,185.62L178.59,162.04L178.99,171.85L179.8,195.35L180.2,181.77L180.57,171.14L180.97,181.38L181.37,186.77L181.78,174.47L182.59,204.82L182.99,196.63L183.8,214.94L184.2,207.32L184.61,194.64L184.97,208.42L185.37,199.38L185.78,227.56L186.18,216.22L186.58,224.75L186.99,233.84L187.39,228.66L187.8,201.82L188.68,222.5L188.97,199.58L190.18,162.94L190.58,157.36L190.99,142.57L191.39,150.77L191.79,144.17L193.41,105.29L193.77,111.63L194.58,136.36L194.99,128.29L195.79,114.07L196.2,97.74L198.62,170.37L198.98,199.83L199.39,195.92L199.79,210.84L201.41,236.21L201.81,238.13L202.62,244.67L202.98,241.14L204.19,217.63L204.48,217.7L205.45,209.88L205.77,211.04L206.21,205.6L206.62,203.42L207.02,196.38L208.19,161.14L208.6,153.97L209,175.3L209.4,169.41L209.81,159.41L210.21,160.63L210.61,155.38L211.42,152.95L211.79,160.12L213,171.52L213.4,196.18L213.81,197.14L214.21,203.48L215.02,244.6L215.42,222.05L215.82,216.54L216.19,218.85L216.59,217.63L217,221.99L217.4,216.93L220.59,121.11L220.99,129.31L221.4,127.4L221.8,72.57L222.21,73.98L222.61,111.45L223.01,114.84L223.42,85.96L223.82,70.9L224.22,71.29L224.59,82.81L225.03,83.52L225.44,77.24L226.61,119L226.93,116.76L227.42,124.06L229.03,197.46L229.43,194.71L230.24,178.88L230.57,190.23L231.25,209.31L231.45,196.89L231.86,176.97L232.63,164.29L233.03,164.54L233.43,163.9L235.05,116.82L235.45,94.85L237.07,73.85L237.47,95.43L238.44,86.28L238.84,104.01L239.25,94.41L239.65,102.48L240.06,101.07L240.86,114.9L241.27,107.93L243.25,154.29L243.65,149.87L245.27,209.31L245.67,202.26L246.48,196.95L246.84,188.63L247.45,185.67L247.65,174.02L248.86,187.91L249.26,184.78L249.67,178.83L250.07,158.9L252.45,143.15L252.86,153.97L253.26,167.87L253.67,153.07L254.07,164.6L254.47,159.99L254.88,148.01L255.24,149.87L255.65,148.33L256.05,149.37L256.45,162.3L256.86,150.19L257.26,143.66L257.62,163.26L258.07,174.02L258.47,164.86L259.28,144.68L259.64,162.62L260.05,159.86L260.45,143.53L261.66,132.51L262.07,132.96L264.45,72.76L264.85,71.48L266.47,44.52L266.87,44.77L268.08,67.51L268.45,64.3L268.85,65.66L269.26,79.04L269.66,72.44L270.06,72.76L271.68,130.21L272.08,148.21L272.49,155.38L272.85,183.37L274.47,200.54L274.87,204.25L275.27,210.08L275.68,209.83L276.08,202.2L276.48,209.24L276.85,183.75L278.46,138.09L278.87,135.52L279.63,121.95L280.08,99.86L280.85,71.48L281.29,94.21L282.06,52.65L282.46,73.72L282.7,92.17L283.31,79.43L286.26,122.02L286.66,142L287.11,152.24L287.55,151.02L287.83,174.86L288.16,173L288.6,184.58L289.77,204.57L290.09,204.89L291.39,188.95L291.71,185.87L293.16,153.07L293.49,153.33L293.93,149.17L294.34,150.06L294.82,129.51L295.1,128.54L295.43,124.06L296.72,80.96L297.04,102.8L297.32,105.42L297.77,92.68L298.01,34.85L298.82,102.74L298.94,88.51L299.26,100.43L299.67,101.07L300.72,118.04L301.16,95.11L301.6,100.94L302.05,120.6L302.49,130.79" style="vector-effect: none; fill: none; stroke: rgb(99, 110, 250); stroke-opacity: 1; stroke-width: 2px; opacity: 1;"/></g><g class="points"/><g class="text"/></g><g class="trace scatter trace0a2f17" style="stroke-miterlimit: 2; opacity: 1;"><g class="fills"/><g class="errorbars"/><g class="lines"><path class="js-line" d="M229.47,204.74L230.24,186.68L230.65,193.53L231.05,215.31L231.41,194.56L231.86,173.81L233.03,160.68L233.43,157.22L234.64,124.49L235.05,106.94L235.45,84.78L235.86,85.36L236.26,84.72L237.07,72.16L237.47,92.72L237.88,92.66L238.24,98.87L239.05,98.87L239.45,95.16L239.85,97.65L240.26,106.94L240.66,113.86L241.07,105.28L241.87,131.15L242.28,119.17L243.45,154.59L243.85,164.07L245.47,215.5L245.87,208.71L247.85,183.28L248.25,183.99L249.06,190.27L249.47,175.34L250.68,153.76L251.04,147.1L251.85,138.64L252.25,144.28L252.66,143.19L253.06,158.24L253.87,138.2L254.27,159.14L255.08,135.7L255.48,147.74L255.89,143.7L256.25,163.69L256.65,161.32L257.06,142.61L257.46,149.02L257.87,171.88L258.27,176.94L258.67,163.62L259.08,155.42L259.48,159.65L259.89,160.36L260.29,165.8L260.65,147.1L262.27,119.11L262.67,101.82L263.48,85.8L263.88,64.29L264.25,62.75L264.69,65.37L265.06,65.25L265.5,59.29L266.67,40.65L267.07,33.86L267.88,66.46L268.29,58.39L268.69,55.89L269.09,68.9L269.86,60.76L270.27,82.15L273.09,191.35L273.46,203.46L273.86,213.39L274.26,202.95L275.47,220.05L275.88,208.2L276.28,209.35L276.69,202.5L278.26,143.9L278.67,131.41L279.47,119.88L279.88,107.07L280.68,65.37L281.09,80.49L281.49,72.8L281.9,48.4L282.3,53.46L282.7,74.6L283.07,80.36L283.47,71.65L283.88,34.25L284.28,45.97L284.68,72.48L285.89,116.23L286.3,124.49L287.91,179.06L288.32,196.8L288.72,176.3L289.09,194.68L289.53,211.34L289.89,213.13L290.3,203.78L291.51,182.64L291.91,171.63L292.72,165.93L293.12,157.79L293.53,159.07L293.93,145.75L294.34,141.91L294.74,129.1L296.31,73.51L296.72,81.19L297.12,100.86L297.53,97.91L297.93,81.83L298.33,75.94L298.74,86.13L299.1,119.81L299.59,93.68L299.95,90.99L300.35,101.56L300.72,111.42L301.12,95.86L302.74,125.64L303.14,156.96L303.54,150.81L303.95,168.04L305.48,192.25L306.05,162.66L307.14,132.82L307.54,135.06L307.95,131.66L308.35,140.76L309.12,130.25L309.56,116.55L310.73,94.07L311.14,93.36L311.54,85.29L311.94,91.31L312.35,102.71L313.92,153.05L314.33,133.52L315.94,166.82L316.35,174.7L317.92,201.41L318.32,191.74L319.94,225.17L320.34,217.36L321.15,212.43L321.56,215.76L322.73,186.36L323.13,170.09L323.53,171.12L323.94,154.91L325.15,115.65L325.55,110.33L325.96,102.46L326.36,112.9L326.73,127.18L327.13,125.26L327.53,127.82L327.94,130.51L328.34,143.83L328.74,157.09L329.15,155.3L329.55,158.88L331.53,223.83L331.94,230.74L333.55,269.49L333.95,271.16L334.76,256.55L335.17,268.53L336.74,250.79L337.14,239.65L338.32,214.48L338.76,209.29L339.16,197.18L339.57,161.96L340.34,200.19L340.78,182.26L341.95,165.54L342.35,176.69L342.76,165.03L343.16,165.54L343.53,172.52L344.37,192.12L344.78,192.06L345.18,180.98L345.95,151.97L346.35,156.83L346.8,153.37L348.37,204.29L348.78,202.63L349.58,189.11L349.99,174.45L350.8,148.19L351.52,151.71L352.57,114.31L352.98,117.7L353.38,117.44L353.78,111.49L354.19,89.71L354.59,92.4L355,105.15L355.36,100.47L355.76,111.42L356.57,100.66L356.97,123.46L357.38,130L357.62,174.51L358.31,112.83L358.95,119.75L359.4,129.04L360.08,161.76" style="vector-effect: none; fill: none; stroke: rgb(239, 85, 59); stroke-opacity: 1; stroke-width: 2px; opacity: 1;"/></g><g class="points"/><g class="text"/></g><g class="trace scatter tracefd67fb" style="stroke-miterlimit: 2; opacity: 1;"><g class="fills"/><g class="errorbars"/><g class="lines"><path class="js-line" d="M341.67,158.33L342.35,177.73L342.72,165.37L343.16,164.47L343.57,174.08L344.78,196.75L345.18,181.7L345.95,146.92L346.35,148.59L346.76,150.9L348.37,195.66L348.78,193.17L349.18,187.72L350.35,160.37L350.8,147.82L352.77,109.07L353.18,110.87L353.54,119.64L353.99,98.89L354.39,82.3L354.79,87.75L355.2,104.46L355.6,112.92L356.01,107.98L356.41,101.9L357.58,123.87L357.98,115.54L359.2,129.44L359.6,131.17L360.81,164.6L361.22,167.68L363.6,187.91L364,191.69L364.81,189.07L365.21,179.08L366.79,110.29L367.19,111.12L367.6,110.55L368,105.93L369.21,91.14L369.62,101.32L370.38,79.74L370.79,91.52L372,105.93L372.4,108.37L372.81,112.15L373.21,111.12L373.61,135.33L375.19,163.96L375.59,161.34L376,158.26L376.4,174.66L376.8,176.64L377.21,176.51L377.61,175.3L378.82,193.23L379.19,186.76L379.99,201.17L380.4,189.84L382.78,142.38L383.23,139.11L383.59,130.14L383.99,130.91L384.4,130.59L384.8,139.94L385.2,119.32L385.61,115.86L386.01,138.02L386.25,163.64L386.86,136.04L387.22,129.44L387.59,136.87L387.91,138.47L388.4,154.67L389.61,172.16L390.01,188.62L390.41,216.48L390.82,201.04L391.22,203.67L391.63,206.55L392.03,228.58L393.2,239.73L393.6,229.67L394.01,233.84L394.41,228.33L395.22,223.72L395.62,204.57L396.8,167.68L397.2,168.64L397.6,170.81L398.01,170.24L398.41,173.7L399.62,138.34L399.95,145.13L400.51,113.11L400.83,133.35L401.2,137.06L402.01,148.4L402.41,142.31L403.22,135.59L403.62,147.82L404.02,156.79L404.43,156.08L404.83,146.28L405.24,148.97L405.64,157.94L406.45,175.87L406.85,169.92L407.66,179.78L408.02,168.57L408.47,176L408.83,167.36L409.23,166.52L409.64,158.33L410.45,134.56L410.81,112.6L412.47,83.07L412.87,79.36L413.27,63.41L413.68,66.29L414.04,63.22L414.85,42.02L415.25,52.78L417.27,85.18L417.68,74.36L419.65,141.35L420.06,140.78L420.46,134.18L420.87,137.96L421.27,144.56L421.67,136.49L422.08,138.79L422.48,146.99L422.84,154.61L423.29,147.5L423.69,150.7L424.06,138.28L424.46,131.81L424.86,111.63L426.48,86.08L426.88,56.11L427.65,43.1L428.05,46.56L428.86,77.88L429.27,73.4L429.67,74.23L430.07,74.81L430.48,73.33L430.88,72.95L431.24,76.6L432.05,61.29L433.06,82.81L433.35,84.54L433.75,78.27L434.56,73.46L434.96,86.14L436.54,128.61L436.94,126.05L437.34,132.83L437.75,132.45L438.15,124.51L440.13,58.16L440.53,60.08L440.94,61.29L441.34,66.23L441.75,62.19L442.15,66.74L443.36,19.22L443.76,51.82L444.17,60.59L444.53,53.67L444.94,34.84L445.74,45.47L446.15,72.89L449.74,156.4L450.15,163.19L450.55,165.05L450.95,171.9L452.57,217.95L452.97,216.42L454.95,185.35L456.16,196.37L457.33,153.84L457.74,159.67L458.14,157.75L458.95,107.15L459.35,127.97L459.76,124.57L460,132.07" style="vector-effect: none; fill: none; stroke: rgb(0, 204, 150); stroke-opacity: 1; stroke-width: 2px; opacity: 1;"/></g><g class="points"/><g class="text"/></g><g class="trace scatter trace5514c1" style="stroke-miterlimit: 2; opacity: 1;"><g class="fills"/><g class="errorbars"/><g class="lines"><path class="js-line" d="M413.27,55.65L413.68,68.58L414.08,64.68L414.44,53.47L414.85,43.8L415.25,49.88L415.66,57.89L416.06,58.66L416.46,76.01L417.27,89.53L417.68,76.65L419.65,140.19L420.06,137.43L420.46,135.06L420.87,135.32L421.27,142.36L421.67,134.23L422.08,135.51L422.48,140.76L422.84,152.61L423.25,143.52L423.65,147.17L426.48,89.72L426.88,62.82L427.65,43.99L428.05,46.74L428.86,79.34L429.27,71.72L429.67,70.89L430.07,74.28L430.48,70.95L430.88,69.86L431.24,82.67L432.05,62.69L432.46,69.61L433.67,89.72L434.07,75.69L435.28,92.54L435.69,111.17L436.86,125.07L437.26,121.1L438.07,133.01L438.47,115.4L440.05,72.75L440.45,62.24L441.26,71.78L441.66,61.92L442.07,66.73L442.47,60.7L443.28,16L443.68,38.99L444.09,54.75L444.49,45.72L444.9,29.9L446.87,84.98L447.28,90.93L449.26,150.82L449.66,153.12L451.28,171.57L451.68,197.64L452.49,212.69L452.89,208.91L453.3,204.17L453.7,203.66L454.06,205.32L454.87,177.91L455.27,182.97L455.68,186.11L456.49,196.8L456.89,169.46" style="vector-effect: none; fill: none; stroke: rgb(171, 99, 250); stroke-opacity: 1; stroke-width: 2px; opacity: 1;"/></g><g class="points"/><g class="text"/></g><g class="trace scatter trace9a35b8" style="stroke-miterlimit: 2; opacity: 1;"><g class="fills"/><g class="errorbars"/><g class="lines"><path class="js-line" d="M0,199.99L0.4,200.05L0.77,208.63L1.17,218.63L1.53,200.37L2.02,181.35L2.38,187.69L2.79,193.26L3.59,221L4,218.18L5.17,235.28L5.57,251.8L6.38,263.65L6.78,252.51L8,266.53L8.4,266.15L9.17,268.33L9.98,279.47L10.38,272.1L10.78,273.07L11.19,276.2L14.38,216.9L14.78,190.06L15.19,180.26L15.59,189.93L15.99,194.61L16.4,180.71L16.8,195.31L17.2,180.84L17.61,170.59L17.97,176.67L18.78,174.24L19.18,176.03L19.59,194.22L21.2,239.7L21.61,238.61L22.01,243.8L22.78,271.72L23.18,258.46L23.59,284.34L23.99,285.3L24.39,304L25.6,290.74L26.01,281.65L26.78,258.65L27.18,259.55L28.39,241.23L28.8,234.57L29.2,216.13L29.6,220.61L30.01,227.85L31.18,187.5L31.58,194.54L31.99,206.46L32.39,188.72L33.2,193.97L33.6,196.21L34.01,190.44L36.79,238.1L37.2,250.84L38,232.4L38.41,246.1L38.81,265.51L39.22,264.29L39.62,252.7L40.79,217.98L41.19,213.25L41.6,212.67L42.41,187.37L43.17,154.77L44.02,121.66L45.6,162.14L46,160.41L46.4,164.7L47.21,151.18L47.62,163.61L48.42,180.84L48.83,167.52L50.04,161.3L50.4,176.23L51.21,194.1L52.02,198.64L52.42,203.51L52.83,195.25L54.04,214.33L54.44,199.16L54.84,203.77L55.25,194.54L55.65,196.34L56.06,188.07L57.63,159.32L58.04,157.01L59.25,124.16L59.65,127.68L60.05,151.25L60.46,162.9L60.86,154.83L61.63,133.06L62.07,126.21L62.44,168.22L64.05,220.42L64.46,220.1L64.86,217.92L65.26,218.43L65.67,212.93L67.65,285.17L68.05,291.83L68.86,299.32L69.26,295.29L69.67,291L70.07,302.59L70.43,289.14L71.24,293.11L72.05,286.52L72.45,287.16L72.86,287.86L73.66,274.15L74.07,250.26L74.47,244.82L74.84,255.07L76.45,228.74L76.86,216.19L77.26,234.64L77.66,215.87L78.07,222.34L78.47,214.72L78.87,200.37L79.28,205.18L79.64,213.63L80.45,183.91L80.85,186.35L81.26,192.05L82.06,210.3L82.47,205.43L83.28,198.51L83.68,204.54L84.08,196.27L84.45,200.31L84.85,191.66L87.27,111.22L87.64,111.86L88.04,105.45L88.45,118.52L88.85,119.54L89.25,128.51L90.47,111.86L90.91,101.42L91.27,106.86L91.68,129.22L92.08,131.59L92.48,110.07L92.85,109.55L93.25,117.11L94.46,143.88L94.87,142.6L95.68,158.17L96.08,177.51L97.29,209.66L97.65,207.1L98.06,218.63L98.46,213.69L99.27,202.68L99.67,200.12L100.08,184.68L102.06,120.7L102.46,127.55L103.67,107.44L104.08,123.9L104.48,130.11L104.88,123.2L105.69,110.77L106.05,94.05L106.46,89.7L106.86,96.17L108.07,105.65L108.48,97.51L110.09,173.98L110.5,177.44L111.3,181.93L111.71,164.44L112.48,195.5L112.88,191.66L113.28,185.71L113.69,184.49L114.09,191.85L117.73,108.4L118.13,117.5L118.53,126.46L118.94,125.05L119.71,129.09L120.51,76.31L120.92,85.15L121.32,101.55L122.13,130.95L122.53,124.73L122.94,130.37L124.51,172.26L124.91,169.44L125.32,169.05L126.93,211.07L127.34,210.49L128.11,221.7L128.51,202.1L129.72,196.14L130.12,184.23L132.71,143.43L132.91,159.51L133.32,155.99L133.72,156.95L134.12,177.12L135.33,126.46L135.74,148.88L138.12,202.68L138.53,194.61L138.93,186.54L139.33,200.05L139.74,206.84L140.14,200.82L141.72,229.19L142.12,225.41L143.33,251.03L143.73,245.33L144.14,244.05L144.54,252.25L145.35,229.45L145.75,234.44L146.12,236.69L146.56,237.13L146.93,215.04L147.33,209.72L147.73,210.24L148.14,188.33L148.54,155.92L148.94,180.33L149.35,192.05L150.52,163.35L150.92,179.81L151.33,192.37L151.73,190.32L152.14,183.02L152.94,205.37L153.35,197.75L153.75,182.82L154.11,193.45L154.52,213.95L155.33,233.48L156.13,240.66L156.66,258.14L156.94,246.61L157.35,239.63L157.75,240.02L158.11,242.32L160.13,188.33L160.54,197.04L160.94,195.89L161.5,186.6L162.55,148.94L162.92,164.06L163.32,165.72L163.73,193.52L164.53,154.32L164.94,169.57L165.34,169.69L165.75,150.1L166.15,145.61L166.55,164.44L167.76,187.31L168.17,178.85L168.53,165.27L169.74,220.03L170.15,232.91L170.55,218.5L171,247.64L171.32,240.47L171.76,241.36L172.17,254.04L172.57,250.01L172.97,248.15L173.38,247.19L173.78,242.71L174.95,214.53L175.4,216.7L176.93,189.48L177.38,192.11L178.59,165.85L178.99,171.42L179.8,198.07L180.16,177.44L180.61,164.7L180.97,188.65L181.37,192.75L181.78,187.82L182.59,208.38L182.99,197.49L183.76,219.39L184.2,203.77L184.57,200.37L184.97,211.39L185.41,203.83L185.78,213.89L186.18,215.42L186.58,228.3L186.99,235.79L187.39,235.15L187.8,206.33L188.2,207.35L188.6,222.4" style="vector-effect: none; fill: none; stroke: rgb(255, 161, 90); stroke-opacity: 1; stroke-width: 2px; opacity: 1;"/></g><g class="points"/><g class="text"/></g></g></g><g class="overplot"/><path class="xlines-above crisp" d="M0,0" style="fill: none;"/><path class="ylines-above crisp" d="M0,0" style="fill: none;"/><g class="overlines-above"/><g class="xaxislayer-above"><g class="xtick"><text text-anchor="middle" x="0" y="433" transform="translate(110.09,0)" style="font-family: 'Open Sans', verdana, arial, sans-serif; font-size: 12px; fill: rgb(42, 63, 95); fill-opacity: 1; white-space: pre; opacity: 1;">1995</text></g><g class="xtick"><text text-anchor="middle" x="0" y="433" style="font-family: 'Open Sans', verdana, arial, sans-serif; font-size: 12px; fill: rgb(42, 63, 95); fill-opacity: 1; white-space: pre; opacity: 1;" transform="translate(183.82999999999998,0)">2000</text></g><g class="xtick"><text text-anchor="middle" x="0" y="433" style="font-family: 'Open Sans', verdana, arial, sans-serif; font-size: 12px; fill: rgb(42, 63, 95); fill-opacity: 1; white-space: pre; opacity: 1;" transform="translate(257.62,0)">2005</text></g><g class="xtick"><text text-anchor="middle" x="0" y="433" style="font-family: 'Open Sans', verdana, arial, sans-serif; font-size: 12px; fill: rgb(42, 63, 95); fill-opacity: 1; white-space: pre; opacity: 1;" transform="translate(331.36,0)">2010</text></g><g class="xtick"><text text-anchor="middle" x="0" y="433" style="font-family: 'Open Sans', verdana, arial, sans-serif; font-size: 12px; fill: rgb(42, 63, 95); fill-opacity: 1; white-space: pre; opacity: 1;" transform="translate(405.11,0)">2015</text></g><g class="xtick"><text text-anchor="middle" x="0" y="433" style="font-family: 'Open Sans', verdana, arial, sans-serif; font-size: 12px; fill: rgb(42, 63, 95); fill-opacity: 1; white-space: pre; opacity: 1;" transform="translate(478.86,0)">2020</text></g></g><g class="yaxislayer-above"><g class="ytick"><text text-anchor="end" x="79" y="4.199999999999999" transform="translate(0,418.52)" style="font-family: 'Open Sans', verdana, arial, sans-serif; font-size: 12px; fill: rgb(42, 63, 95); fill-opacity: 1; white-space: pre; opacity: 1;">−200</text></g><g class="ytick"><text text-anchor="end" x="79" y="4.199999999999999" style="font-family: 'Open Sans', verdana, arial, sans-serif; font-size: 12px; fill: rgb(42, 63, 95); fill-opacity: 1; white-space: pre; opacity: 1;" transform="translate(0,354.47)">−100</text></g><g class="ytick"><text text-anchor="end" x="79" y="4.199999999999999" style="font-family: 'Open Sans', verdana, arial, sans-serif; font-size: 12px; fill: rgb(42, 63, 95); fill-opacity: 1; white-space: pre; opacity: 1;" transform="translate(0,290.43)">0</text></g><g class="ytick"><text text-anchor="end" x="79" y="4.199999999999999" style="font-family: 'Open Sans', verdana, arial, sans-serif; font-size: 12px; fill: rgb(42, 63, 95); fill-opacity: 1; white-space: pre; opacity: 1;" transform="translate(0,226.38)">100</text></g><g class="ytick"><text text-anchor="end" x="79" y="4.199999999999999" style="font-family: 'Open Sans', verdana, arial, sans-serif; font-size: 12px; fill: rgb(42, 63, 95); fill-opacity: 1; white-space: pre; opacity: 1;" transform="translate(0,162.32999999999998)">200</text></g></g><g class="overaxes-above"/></g></g><g class="polarlayer"/><g class="smithlayer"/><g class="ternarylayer"/><g class="geolayer"/><g class="funnelarealayer"/><g class="pielayer"/><g class="iciclelayer"/><g class="treemaplayer"/><g class="sunburstlayer"/><g class="glimages"/><defs id="topdefs-e96123"><g class="clips"/><clipPath id="legende96123"><rect width="139" height="105" x="0" y="0"/></clipPath></defs><g class="layer-above"><g class="imagelayer"/><g class="shapelayer"/></g><g class="infolayer"><g class="legend" pointer-events="all" transform="translate(549.2,100)"><rect class="bg" shape-rendering="crispEdges" width="139" height="105" x="0" y="0" style="stroke: rgb(68, 68, 68); stroke-opacity: 1; fill: rgb(255, 255, 255); fill-opacity: 1; stroke-width: 0px;"/><g class="scrollbox" transform="" clip-path="url(#legende96123)"><g class="groups"><g class="traces" transform="translate(0,14.5)" style="opacity: 1;"><text class="legendtext" text-anchor="start" x="40" y="4.680000000000001" style="font-family: 'Open Sans', verdana, arial, sans-serif; font-size: 12px; fill: rgb(42, 63, 95); fill-opacity: 1; white-space: pre;">Jason.1</text><g class="layers" style="opacity: 1;"><g class="legendfill"/><g class="legendlines"><path class="js-line" d="M5,0h30" style="fill: none; stroke: rgb(99, 110, 250); stroke-opacity: 1; stroke-width: 2px;"/></g><g class="legendsymbols"><g class="legendpoints"/></g></g><rect class="legendtoggle" x="0" y="-9.5" width="133.84375" height="19" style="fill: rgb(0, 0, 0); fill-opacity: 0;"/></g><g class="traces" transform="translate(0,33.5)" style="opacity: 1;"><text class="legendtext" text-anchor="start" x="40" y="4.680000000000001" style="font-family: 'Open Sans', verdana, arial, sans-serif; font-size: 12px; fill: rgb(42, 63, 95); fill-opacity: 1; white-space: pre;">Jason.2</text><g class="layers" style="opacity: 1;"><g class="legendfill"/><g class="legendlines"><path class="js-line" d="M5,0h30" style="fill: none; stroke: rgb(239, 85, 59); stroke-opacity: 1; stroke-width: 2px;"/></g><g class="legendsymbols"><g class="legendpoints"/></g></g><rect class="legendtoggle" x="0" y="-9.5" width="133.84375" height="19" style="fill: rgb(0, 0, 0); fill-opacity: 0;"/></g><g class="traces" transform="translate(0,52.5)" style="opacity: 1;"><text class="legendtext" text-anchor="start" x="40" y="4.680000000000001" style="font-family: 'Open Sans', verdana, arial, sans-serif; font-size: 12px; fill: rgb(42, 63, 95); fill-opacity: 1; white-space: pre;">Jason.3</text><g class="layers" style="opacity: 1;"><g class="legendfill"/><g class="legendlines"><path class="js-line" d="M5,0h30" style="fill: none; stroke: rgb(0, 204, 150); stroke-opacity: 1; stroke-width: 2px;"/></g><g class="legendsymbols"><g class="legendpoints"/></g></g><rect class="legendtoggle" x="0" y="-9.5" width="133.84375" height="19" style="fill: rgb(0, 0, 0); fill-opacity: 0;"/></g><g class="traces" transform="translate(0,71.5)" style="opacity: 1;"><text class="legendtext" text-anchor="start" x="40" y="4.680000000000001" style="font-family: 'Open Sans', verdana, arial, sans-serif; font-size: 12px; fill: rgb(42, 63, 95); fill-opacity: 1; white-space: pre;">Sentinel-6MF</text><g class="layers" style="opacity: 1;"><g class="legendfill"/><g class="legendlines"><path class="js-line" d="M5,0h30" style="fill: none; stroke: rgb(171, 99, 250); stroke-opacity: 1; stroke-width: 2px;"/></g><g class="legendsymbols"><g class="legendpoints"/></g></g><rect class="legendtoggle" x="0" y="-9.5" width="133.84375" height="19" style="fill: rgb(0, 0, 0); fill-opacity: 0;"/></g><g class="traces" transform="translate(0,90.5)" style="opacity: 1;"><text class="legendtext" text-anchor="start" x="40" y="4.680000000000001" style="font-family: 'Open Sans', verdana, arial, sans-serif; font-size: 12px; fill: rgb(42, 63, 95); fill-opacity: 1; white-space: pre;">TOPEX.Poseidon</text><g class="layers" style="opacity: 1;"><g class="legendfill"/><g class="legendlines"><path class="js-line" d="M5,0h30" style="fill: none; stroke: rgb(255, 161, 90); stroke-opacity: 1; stroke-width: 2px;"/></g><g class="legendsymbols"><g class="legendpoints"/></g></g><rect class="legendtoggle" x="0" y="-9.5" width="133.84375" height="19" style="fill: rgb(0, 0, 0); fill-opacity: 0;"/></g></g></g><rect class="scrollbar" rx="20" ry="3" width="0" height="0" x="0" y="0" style="fill: rgb(128, 139, 164); fill-opacity: 1;"/></g><g class="g-gtitle"><text class="gtitle" x="35" y="50" text-anchor="start" dy="0em" style="font-family: 'Open Sans', verdana, arial, sans-serif; font-size: 17px; fill: rgb(42, 63, 95); opacity: 1; font-weight: normal; white-space: pre;">Mean Sea Levels Changing - Indonesian</text></g><g class="g-xtitle"><text class="xtitle" x="310" y="460.3" text-anchor="middle" style="font-family: 'Open Sans', verdana, arial, sans-serif; font-size: 14px; fill: rgb(42, 63, 95); opacity: 1; font-weight: normal; white-space: pre;">Date</text></g><g class="g-ytitle"><text class="ytitle" transform="rotate(-90,27.668750000000003,260)" x="27.668750000000003" y="260" text-anchor="middle" style="font-family: 'Open Sans', verdana, arial, sans-serif; font-size: 14px; fill: rgb(42, 63, 95); opacity: 1; font-weight: normal; white-space: pre;">Change in Sea Level [mm]</text></g></g></svg>