<svg class="main-svg" xmlns="http://www.w3.org/2000/svg" xmlns:xlink="http://www.w3.org/1999/xlink" width="700" height="500" style="" viewBox="0 0 700 500"><rect x="0" y="0" width="700" height="500" style="fill: rgb(255, 255, 255); fill-opacity: 1;"/><defs id="defs-a4ecad"><g class="clips"><clipPath id="clipa4ecadxyplot" class="plotclip"><rect width="460" height="320"/></clipPath><clipPath class="axesclip" id="clipa4ecadx"><rect x="80" y="0" width="460" height="500"/></clipPath><clipPath class="axesclip" id="clipa4ecady"><rect x="0" y="100" width="700" height="320"/></clipPath><clipPath class="axesclip" id="clipa4ecadxy"><rect x="80" y="100" width="460" height="320"/></clipPath></g><g class="gradients"/><g class="patterns"/></defs><g class="bglayer"><rect class="bg" x="80" y="100" width="460" height="320" style="fill: rgb(229, 236, 246); fill-opacity: 1; stroke-width: 0;"/></g><g class="layer-below"><g class="imagelayer"/><g class="shapelayer"/></g><g class="cartesianlayer"><g class="subplot xy"><g class="layer-subplot"><g class="shapelayer"/><g class="imagelayer"/></g><g class="minor-gridlayer"><g class="x"/><g class="y"/></g><g class="gridlayer"><g class="x"><path class="xgrid crisp" transform="translate(110.09,0)" d="M0,100v320" style="stroke: rgb(255, 255, 255); stroke-opacity: 1; stroke-width: 1px;"/><path class="xgrid crisp" transform="translate(183.82,0)" d="M0,100v320" style="stroke: rgb(255, 255, 255); stroke-opacity: 1; stroke-width: 1px;"/><path class="xgrid crisp" transform="translate(257.6,0)" d="M0,100v320" style="stroke: rgb(255, 255, 255); stroke-opacity: 1; stroke-width: 1px;"/><path class="xgrid crisp" transform="translate(331.34000000000003,0)" d="M0,100v320" style="stroke: rgb(255, 255, 255); stroke-opacity: 1; stroke-width: 1px;"/><path class="xgrid crisp" transform="translate(405.08,0)" d="M0,100v320" style="stroke: rgb(255, 255, 255); stroke-opacity: 1; stroke-width: 1px;"/><path class="xgrid crisp" transform="translate(478.82,0)" d="M0,100v320" style="stroke: rgb(255, 255, 255); stroke-opacity: 1; stroke-width: 1px;"/></g><g class="y"><path class="ygrid crisp" transform="translate(0,367.56)" d="M80,0h460" style="stroke: rgb(255, 255, 255); stroke-opacity: 1; stroke-width: 1px;"/><path class="ygrid crisp" transform="translate(0,235.05)" d="M80,0h460" style="stroke: rgb(255, 255, 255); stroke-opacity: 1; stroke-width: 1px;"/><path class="ygrid crisp" transform="translate(0,168.8)" d="M80,0h460" style="stroke: rgb(255, 255, 255); stroke-opacity: 1; stroke-width: 1px;"/><path class="ygrid crisp" transform="translate(0,102.54)" d="M80,0h460" style="stroke: rgb(255, 255, 255); stroke-opacity: 1; stroke-width: 1px;"/></g></g><g class="zerolinelayer"><path class="yzl zl crisp" transform="translate(0,301.31)" d="M80,0h460" style="stroke: rgb(255, 255, 255); stroke-opacity: 1; stroke-width: 2px;"/></g><g class="layer-between"><g class="shapelayer"/><g class="imagelayer"/></g><path class="xlines-below"/><path class="ylines-below"/><g class="overlines-below"/><g class="xaxislayer-below"/><g class="yaxislayer-below"/><g class="overaxes-below"/><g class="plot" transform="translate(80,100)" clip-path="url(#clipa4ecadxyplot)"><g class="scatterlayer mlayer"><g class="trace scatter trace734f57" style="stroke-miterlimit: 2; opacity: 1;"><g class="fills"/><g class="errorbars"/><g class="lines"><path class="js-line" d="M134.15,243.05L134.51,242.38L134.92,261.27L135.32,252.19L135.73,280.61L136.13,280.28L136.53,291.94L138.51,189.18L138.92,192.63L139.32,215.02L139.72,205.41L140.13,189.05L140.53,132.27L140.94,185.74L141.74,116.77L142.15,150.56L143.32,88.81L143.72,107.69L144.53,155.33L144.93,125.18L145.34,122.6L145.74,189.84L146.15,184.74L146.51,169.5L146.95,169.17L147.32,201.77L147.76,177.26L148.12,230.86L148.53,256.5L148.93,248.21L149.34,239.07L149.74,208.93L150.14,241.46L150.95,222.04L151.35,249.74L151.72,249.74L152.2,265.04L152.53,253.98L152.93,288.96L153.74,185.67L154.14,188.32L154.54,206.34L154.95,209.85L155.35,232.71L157.33,119.15L157.74,139.82L158.95,70.32L159.35,88.01L159.75,107.56L160.16,148.44L160.56,135.38L160.93,133.59L161.49,130.94L161.73,162.68L162.54,254.77L162.94,230.72L163.35,210.38L163.75,263.25L164.48,285.38L165,282.53L165.37,261.13L166.18,244.57L166.54,247.75L166.94,256.23L168.15,206.74L168.56,176.53L169.37,197.2L169.77,196.73L170.17,167.05L170.98,127.83L171.38,108.02L172.96,83.24L173.36,108.15L173.77,133.13L174.17,132.87L174.57,127.43L174.98,115.18L175.38,147.84L175.79,153.47L176.19,207.4L177,168.11L177.4,168.71L177.81,215.22L178.98,254.57L179.38,208.4L180.59,299.69L181,284.46L182.97,209.72L183.38,231.52L183.78,228.14L184.19,197.4L184.59,221.84L184.99,195.08L185.8,176.2L186.2,137.77L186.61,137.83L187.01,150.82L187.78,106.36L188.14,114.38L188.67,100.73L189.8,162.94L190.2,158.44L190.61,122.07L191.01,182.16L191.78,263.45L192.18,228.8L192.59,193.36L192.99,200.11L193.39,198.52L195.41,294.53L195.78,261.13L196.18,247.55L196.58,257.29L196.99,250.2L198.2,204.69L198.6,185.87L199.01,168.05L199.41,187.46L199.81,181.3L200.18,164.01L201.39,123.86L201.79,128.63L202.2,123.59L202.6,129.82L203,95.43L203.41,84.9L203.81,101.13L204.46,133.33L205.43,122L207,207.93L207.41,226.81L207.81,222.71L208.21,286.97L208.62,284.39L208.98,256.83L210.19,185.94L210.6,213.5L211,244.84L211.4,240.73L211.81,233.44L212.21,250.6L212.62,220.72L213.42,197.73L213.79,198.99L214.19,232.45L216.21,95.23L216.61,122.13L217.02,125.11L217.42,123.13L217.82,104.18L218.19,117.36L218.59,172.02L219,179.11L219.4,165.93L219.8,141.15L220.21,168.31L220.61,167.58L221.01,189.38L221.42,185.54L221.82,247.62L222.59,211.97L223.03,230.86L224.21,294.92L224.61,256.23L226.22,210.45L226.63,230.52L226.91,227.74L227.44,191.04L227.84,205.75L228.24,162.81L228.65,164.6L229.01,179.38L229.41,182.29L229.82,161.09L230.22,117.49L230.59,139.95L231.43,138.03L231.84,127.1L232.24,132.67L232.65,144.26L233.05,137.9L233.45,143.4L233.86,142.87L235.07,196.07L235.47,192.43L235.84,192.63L236.24,208.93L237.45,256.03L238.46,243.97L238.86,245.1L239.27,268.36L240.44,234.37L240.88,258.75L241.25,232.18L241.65,235.1L242.05,247.82L243.23,192.1L243.63,199.19L244.44,182.75L244.84,169.77L245.65,110.54L246.05,150.36L247.43,70.45L247.63,103.05L248.43,157.18L248.84,147.11L249.24,152.15L249.65,159.57L250.05,144.33L250.45,154.33L250.86,200.31L251.26,250.86L251.67,245.63L252.03,242.58L252.43,249.94L252.84,209.85L253.24,224.1L253.64,198.99L254.45,276.64L254.86,235.82L255.66,203.03L256.07,232.91L256.43,211.84L256.83,218.27L257.24,212.44L257.64,196.34L258.05,200.91L258.45,217.34L258.85,204.82L259.26,159.83L259.62,143.53L260.06,155.46L260.47,161.49L261.28,115.31L261.68,134.19L262.04,117.43L262.45,139.36L263.26,98.15L263.66,105.83L264.06,153.21L264.47,144.26L264.87,187.46L266.04,273.46L266.45,252.12L266.85,234.5L267.66,270.28L268.06,254.77L268.46,253.91L268.87,263.72L270.04,289.16L270.44,260.14L270.85,263.25L271.25,238.08L271.65,229.53L272.06,197.66L272.46,224.56L272.87,208.93L273.27,201.31L273.67,196.6L274.04,173.08L277.27,89.27L277.67,144.59L278.04,144.53L278.48,128.82L279.25,204.82L279.65,178.18L280.05,175.93L280.46,198.46L280.86,208.13L281.27,197.86L282.03,214.82L282.44,252.12L283.29,180.5L286.19,194.88L287.08,168.25L287.48,173.21L287.81,146.25L288.09,169.17L288.53,159.04L289.42,82.05L289.71,83.31L290.03,97.02L290.88,136.71L291.32,112.26L291.93,73.77L292.37,74.96L292.82,144.53L293.42,122.93L293.87,155.06L295.8,217.01L296.25,227.28L296.65,222.57L296.97,208.06L297.98,259.15L298.71,243.05L298.87,244.17L299.2,212.9L299.64,221.58L300.08,202.63L301.13,147.24L301.54,181.96L301.98,183.02L302.31,194.68L302.43,193.62" style="vector-effect: none; fill: none; stroke: rgb(99, 110, 250); stroke-opacity: 1; stroke-width: 2px; opacity: 1;"/></g><g class="points"/><g class="text"/></g><g class="trace scatter trace8346a3" style="stroke-miterlimit: 2; opacity: 1;"><g class="fills"/><g class="errorbars"/><g class="lines"><path class="js-line" d="M229.45,163.82L230.22,119.03L230.63,135.33L231.03,118.97L231.43,127.18L231.84,117.64L232.65,136.46L233.05,135.93L233.45,137.19L233.86,134.34L234.26,176.34L234.66,158.39L235.07,193.17L235.47,185.42L235.84,192.11L236.24,205.23L237.45,261.48L237.85,223.78L239.07,245.31L239.47,281.16L239.87,276.72L240.28,223.32L241.04,242.33L241.45,222.32L241.85,217.82L242.26,224.77L242.66,175.81L243.06,189.39L243.47,182.24L243.87,191.98L244.28,157.46L244.64,188L245.04,146L245.85,105.85L246.25,116.78L246.66,101.21L247.06,116.12L247.47,92.6L247.87,103.86L248.27,139.24L248.68,138.64L249.08,172.37L250.25,146.66L250.66,174.95L251.87,246.37L252.27,259.42L253.08,198.8L253.48,223.45L253.85,213.64L254.25,257.57L254.65,253.86L255.06,228.62L255.87,214.84L256.27,224.71L257.48,181.77L257.84,200.86L258.25,204.1L258.65,181.44L260.27,140.1L260.67,140.03L261.07,112.01L261.48,121.09L261.88,122.28L262.25,128.04L262.65,120.75L263.46,105.18L263.86,129.23L265.88,270.82L266.28,247.3L266.69,260.68L267.05,244.91L267.5,248.49L267.86,259.03L268.26,237.03L268.67,284.2L269.07,272.87L269.47,273.01L269.88,278.9L270.28,286.65L270.69,268.77L271.45,224.77L271.86,201.25L272.66,211.39L273.07,197.21L274.28,165.41L274.68,132.02L275.09,148.71L275.49,130.49L276.66,93.99L277.07,93.46L277.87,146.46L278.28,139.57L278.68,125.86L279.49,183.89L279.89,180.05L280.26,196.95L280.66,195.29L281.06,181.05L282.28,243.72L282.68,225.37L283.49,185.42L283.89,218.35L284.7,292.29L285.1,253.66L286.68,158.19L287.08,191.45L288.7,129.3L289.1,111.15L289.5,77.49L289.91,103.4L290.31,113.27L290.72,144.41L291.12,106.38L292.33,68.02L292.69,111.61L295.52,243.06L295.92,211.46L296.33,218.94L296.73,215.3L297.14,236.83L297.54,229.94L297.9,231.07L298.31,245.78L298.71,239.15L299.16,287.12L300.33,189.46L300.73,167.99L301.13,146.2L301.5,174.29L302.35,191.51L302.75,176.81L304.32,114.46L304.73,136.52L305.13,130.29L305.46,143.08L305.98,131.29L306.34,103.33L306.71,103.99L307.11,101.34L307.51,92.53L307.92,129.1L309.13,273.93L309.53,236.96L309.94,212.05L310.34,231.4L310.75,217.02L311.51,238.89L311.96,193.7L312.32,170.11L312.72,205.49L313.13,204.76L313.53,224.71L313.94,228.42L314.3,204.76L314.74,193.1L315.15,217.49L315.55,215.17L315.91,188.93L316.32,176.34L316.72,198.74L317.13,173.23L317.53,177.14L317.93,176.21L319.14,114.79L319.51,117.38L319.95,126.72L321.16,81.4L321.53,81L321.93,73.05L322.34,103.59L324.72,226.76L325.12,207.68L325.53,212.85L325.93,211.79L326.33,228.55L326.74,278.04L327.14,233.98L327.95,256.31L328.35,221.06L328.72,203.17L329.12,243.99L329.52,246.5L329.93,245.11L330.33,219.8L331.14,190.98L331.54,210.06L333.52,126.65L333.97,87.96L334.73,109.95L335.14,108.7L335.54,103.2L335.94,62.72L336.35,115.26L337.52,151.7L337.96,121.22L338.33,130.1L338.73,166.07L339.13,167.13L339.54,171.04L340.35,194.03L340.75,227.16L341.56,220.47L341.96,250.68L343.54,202.71L343.94,193.3L344.34,183.3L344.75,199.93L345.15,197.61L345.56,175.48L346.36,146.06L346.77,157.53L347.17,179.39L347.57,164.75L347.94,156.27L349.15,106.84L349.55,97.37L349.96,96.7L350.4,65.03L351.49,97.23L351.77,88.49L352.99,118.24L353.39,132.22L353.79,139.11L354.2,166.34L354.6,169.91L355,197.21L355.37,184.23L355.77,192.71L356.18,221.06L356.58,185.62L356.98,208.47L357.39,206.95L358.28,198.74L358.56,206.95L359.77,241.93L360.05,240.54" style="vector-effect: none; fill: none; stroke: rgb(239, 85, 59); stroke-opacity: 1; stroke-width: 2px; opacity: 1;"/></g><g class="points"/><g class="text"/></g><g class="trace scatter tracec283fb" style="stroke-miterlimit: 2; opacity: 1;"><g class="fills"/><g class="errorbars"/><g class="lines"><path class="js-line" d="M341.6,216.76L341.92,240.87L342.32,226.89L342.69,219.87L344.34,179.59L344.75,193.9L345.15,192.24L345.56,169.38L346.36,145.8L346.77,155.94L347.17,182.17L347.57,159.91L347.94,150.3L348.75,104.06L349.15,113.14L349.55,93.79L349.96,91.07L350.36,51.92L351.57,84.65L351.98,95.18L352.38,106.64L352.78,98.43L353.19,107.5L354.76,166.73L355.17,171.84L355.57,179.85L355.97,204.76L356.78,186.61L357.19,211.19L358.4,183.96L358.8,205.43L359.97,237.23L360.38,216.76L361.99,157.26L362.39,147.85L363.97,95.78L364.37,122.81L366.39,36.81L366.8,85.9L368.01,214.44L368.37,212.78L368.78,203.17L369.18,216.49L369.99,255.91L370.39,208.41L371.2,261.61L371.6,242.99L371.97,272.61L372.37,236.96L372.77,221.99L373.18,235.44L373.58,249.22L373.98,219.54L374.39,209.2L374.79,171.57L375.2,174.02L375.6,171.64L376,155.54L376.41,171.31L377.58,120.22L377.98,108.3L378.79,55.03L379.19,106.05L379.6,96.9L380,108.76L380.41,91.74L380.77,120.62L381.17,122.15L381.58,163.62L381.98,150.1L382.38,165.67L383.6,132.35L384,146.46L384.81,209.87L385.17,203.11L385.57,169.32L386.22,219.74L386.83,207.28L387.19,204.43L387.59,207.35L387.88,191.38L388.4,200.72L388.81,187.47L389.61,165.87L389.98,193.17L390.38,194.83L390.82,157.92L391.59,116.05L392,130.29L392.4,149.71L392.8,115.98L393.61,102.8L394.01,115.12L394.78,94.39L395.23,109.36L395.99,76.83L396.4,115.12L398.01,188.2L398.38,163.16L398.78,151.3L399.18,189.72L399.59,214.5L399.95,159.31L400.44,147.19L400.8,205.49L401.2,205.29L401.61,219.47L402.01,241.8L402.41,228.02L402.82,192.97L403.63,224.77L403.99,189.53L405.6,123.34L406.01,115.45L406.41,137.91L406.82,136.32L407.22,116.12L407.62,136.19L408.03,115.39L408.43,75.77L408.84,77.76L409.24,90.34L410.45,19.92L410.81,57.02L412.83,175.55L413.24,168.06L414.04,215.3L414.45,204.76L414.85,195.56L415.66,222.52L416.06,158.72L416.83,219.41L417.23,193.97L417.64,195.09L418.04,151.56L418.45,189.53L418.85,174.75L419.25,172.83L419.66,184.56L420.06,171.7L420.83,104.92L421.23,116.12L421.64,82.72L422.04,56.55L422.44,74.97L422.85,89.61L424.06,76.89L424.46,46.68L424.87,43.04L425.23,70.73L427.25,173.1L427.65,183.36L428.06,196.68L428.46,171.17L428.86,174.69L429.23,143.21L430.84,210.99L431.25,176.67L431.65,163.02L432.06,199.33L433.06,214.17L433.31,203.11L433.71,225.17L434.11,163.09L434.92,125.99L435.33,166.01L436.94,100.41L437.3,109.42L437.71,115.06L438.52,49.33L438.92,56.95L439.32,80.67L440.13,110.48L440.54,94.19L440.94,139.24L441.34,131.29L441.75,141.62L442.55,242.07L442.92,231.33L443.32,173.43L444.13,181.44L444.53,163.36L446.11,225.63L446.51,203.04L446.92,202.11L447.32,209L448.53,158.59L448.94,156.6L449.34,162.96L449.74,149.77L450.15,149.77L450.55,151.3L452.13,99.22L452.53,113.86L453.34,36.81L453.74,53.37L454.14,62.12L456.12,190.12L456.53,181.97L456.93,187.94L457.33,184.62L457.74,169.25L458.14,190.06L458.55,176.54L458.95,158.45L459.76,184.49L460,120.29" style="vector-effect: none; fill: none; stroke: rgb(0, 204, 150); stroke-opacity: 1; stroke-width: 2px; opacity: 1;"/></g><g class="points"/><g class="text"/></g><g class="trace scatter traceb8a266" style="stroke-miterlimit: 2; opacity: 1;"><g class="fills"/><g class="errorbars"/><g class="lines"><path class="js-line" d="M413.24,173.68L414.04,211.71L414.45,208.47L414.85,196.74L415.66,223.18L416.02,152.95L416.83,232.32L417.23,201.51L417.64,201.18L418.04,155.46L418.49,185.88L418.85,179.65L419.25,175.87L419.66,188.66L420.06,177.59L420.83,107.36L421.23,117.17L421.64,83.58L422.04,53.37L422.44,76.36L422.85,89.87L423.25,111.01L423.66,87.36L424.87,44.29L425.23,68.61L427.25,170.37L427.65,179.78L428.06,192.5L428.46,175.47L428.86,177.4L429.23,145.13L430.84,213.83L431.25,182.7L431.65,167.06L432.06,198.66L432.86,214.5L433.27,203.76L434.84,139.83L435.25,152.95L436.86,85.9L437.26,109.29L437.67,120.55L438.07,99.75L438.44,82.19L438.84,16L440.05,111.27L440.45,95.37L440.86,114.65L441.26,106.7L441.67,111.8L442.84,235.23L443.24,184.62L444.05,165.14L444.45,167.72L444.86,178.79L445.66,222.78L446.07,207.61L446.47,210.59L446.84,192.77L447.24,223.11L448.85,137.31L449.26,156.33L449.66,157.92L450.07,145L450.47,150.3L450.87,122.34L451.64,90.07L452.04,99.02L452.45,109.75L452.85,63.44L453.26,47.4L453.66,60.66L454.06,63.04L456.85,188.39" style="vector-effect: none; fill: none; stroke: rgb(171, 99, 250); stroke-opacity: 1; stroke-width: 2px; opacity: 1;"/></g><g class="points"/><g class="text"/></g><g class="trace scatter traced1ca11" style="stroke-miterlimit: 2; opacity: 1;"><g class="fills"/><g class="errorbars"/><g class="lines"><path class="js-line" d="M0,254.44L0.77,229.73L1.17,241.85L2.02,300.95L2.38,279.22L2.79,289.82L3.19,282.14L3.59,240L4,258.15L4.81,249.08L6.02,229.8L6.38,246.03L7.59,226.81L8,211.44L9.61,155.86L10.01,186.2L10.42,182.29L10.82,153.93L11.19,185.41L11.59,141.21L11.99,118.75L12.4,178.38L13.61,203.56L14.01,258.55L14.42,257.42L14.82,261.46L15.99,225.09L16.4,264.05L16.8,297.31L17.2,278.09L17.61,261.93L18.01,271.4L18.82,270.94L19.59,229.46L19.99,231.98L20.39,242.18L20.8,251.66L21.2,240.86L22.01,228.4L22.82,214.95L23.99,150.62L24.39,131.54L24.8,114.65L25.2,144.53L25.6,149.56L26.01,133.79L26.41,123.06L26.81,160.49L27.22,142.54L27.62,157.45L28.43,189.65L28.83,219.13L29.2,206.87L29.6,194.68L30,214.23L30.41,281.27L32.02,235.69L32.43,269.55L33.24,271.93L33.6,281.94L34,277.17L34.41,249.27L34.81,259.08L35.62,220.78L36.43,238.54L36.79,217.54L37.19,225.89L38,212.3L38.4,183.22L38.81,194.81L39.21,194.08L40.83,122.07L41.23,154.46L41.63,159.76L42.4,252.52L42.81,255.7L43.21,221.51L44.02,184.28L44.42,204.75L44.82,253.98L45.23,253.45L45.63,234.83L47.21,302.01L47.61,304L49.63,259.54L50.03,225.42L50.44,217.87L50.84,227.48L53.63,139.03L54.03,164.6L54.44,161.35L54.84,151.68L56.05,111.6L56.86,130.08L57.67,152.08L58.07,205.41L58.47,252.98L58.88,246.76L59.28,244.17L59.65,252.85L60.05,252.26L60.45,253.85L60.86,232.71L61.66,265.77L62.07,225.09L62.47,230.86L62.88,249.27L63.64,289.62L64.09,238.94L64.85,255.44L65.26,230.59L66.47,184.74L66.87,191.5L68.85,91.66L69.26,124.98L69.66,135.98L70.06,108.48L71.28,196.8L71.68,192.96L72.08,189.38L72.49,188.85L72.89,183.55L73.66,231.12L74.06,189.65L74.47,214.82L74.87,190.24L76.08,266.24L76.48,202.76L77.29,221.51L77.7,263.78L78.06,263.58L78.46,250.14L79.27,219.72L79.68,230.52L81.25,147.71L81.65,166.39L82.06,162.81L82.46,129.55L84.08,171.36L84.48,165.4L84.88,129.62L85.29,122.07L85.69,141.88L88.07,184.01L88.48,232.78L88.88,209.32L89.29,251L89.69,231.92L90.46,274.72L91.27,283L91.67,248.61L92.07,208.73L92.48,212.83L92.88,217.41L94.05,251.46L94.46,251.66L94.86,239.4L95.3,201.11L95.67,217.6L96.07,195.21L96.88,166.85L97.28,179.44L98.09,118.36L98.49,145.19L100.88,91.92L101.28,98.94L103.3,240.59L103.66,229.93L104.07,194.48L104.47,213.5L104.91,257.29L106.49,230.86L106.89,233.77L107.3,242.05L108.1,272.53L108.51,248.35L109.68,220.12L110.08,224.43L110.53,192.23L110.93,194.55L111.29,167.58L111.7,159.83L112.51,159.3L112.91,156.12L113.31,138.5L114.12,98.81L114.53,119.22L114.93,125.45L115.33,147.71L115.7,150.95L116.5,167.78L116.91,167.19L117.31,181.5L118.52,198.19L118.93,165.07L121.31,272.2L121.71,268.49L122.12,241.46L122.93,248.74L123.33,236.82L124.54,221.65L124.94,227.21L126.12,164.87L126.52,164.07L128.94,74.3L129.35,103.25L129.75,110.6L130.11,88.54L130.92,154.99L131.32,208.86L132.13,194.22L132.66,221.45L133.75,280.94L134.11,244.31L134.51,236.35L134.92,259.48L135.32,252.26L135.73,283.79L136.13,283.93L136.53,287.7L138.55,186.66L138.92,185.74L139.32,213.1L139.72,206.61L140.13,185.21L140.53,131.01L141.34,145.26L141.74,111.86L142.15,142.07L143,104.31L143.32,88.34L143.72,97.75L144.13,127.5L144.53,155.99L144.93,137.11L145.34,130.08L146.1,191.17L146.55,161.62L146.91,162.41L147.32,190.44L147.72,182.62L148.12,218.07L148.53,250.4L148.93,244.97L149.34,248.08L149.74,217.34L150.14,244.97L150.91,218.13L151.31,234.7L152.93,286.38L153.33,218.6L154.14,172.82L154.54,191.24L155.35,243.84L156.12,175.86L157.33,131.61L157.74,145.12L159.35,70.45L159.75,100.27L160.52,154.46L160.93,139.23L161.49,67.21L161.65,133.86L162.1,227.34L162.54,263.58L162.94,241.26L163.35,210.45L164.96,294.33L165.33,266.83L165.73,274.12L166.18,235.76L166.94,263.78L167.35,260.6L167.75,249.61L168.56,189.25L169.77,223.57L171.34,123.86L171.75,115.9L173,90.79L173.36,128.89L173.77,134.52L174.17,116.24L174.57,112.66L174.98,123.59L176.19,209.12L176.59,194.15L176.92,175.2L177.36,183.42L177.76,207.14L178.17,236.49L178.57,225.16L178.98,236.42L179.38,208.93L179.78,255.5L180.23,297.57L180.59,293.8L181,287.11L181.76,266.96L182.13,272.13L182.97,209.92L183.38,240.4L184.19,213.1L184.59,229.99L186.16,147.84L186.57,163.67L186.97,159.17L187.38,119.81L187.78,96.43L188.18,134.12L188.59,125.31" style="vector-effect: none; fill: none; stroke: rgb(255, 161, 90); stroke-opacity: 1; stroke-width: 2px; opacity: 1;"/></g><g class="points"/><g class="text"/></g></g></g><g class="overplot"/><path class="xlines-above crisp" d="M0,0" style="fill: none;"/><path class="ylines-above crisp" d="M0,0" style="fill: none;"/><g class="overlines-above"/><g class="xaxislayer-above"><g class="xtick"><text text-anchor="middle" x="0" y="433" transform="translate(110.09,0)" style="font-family: 'Open Sans', verdana, arial, sans-serif; font-size: 12px; fill: rgb(42, 63, 95); fill-opacity: 1; white-space: pre; opacity: 1;">1995</text></g><g class="xtick"><text text-anchor="middle" x="0" y="433" style="font-family: 'Open Sans', verdana, arial, sans-serif; font-size: 12px; fill: rgb(42, 63, 95); fill-opacity: 1; white-space: pre; opacity: 1;" transform="translate(183.82,0)">2000</text></g><g class="xtick"><text text-anchor="middle" x="0" y="433" style="font-family: 'Open Sans', verdana, arial, sans-serif; font-size: 12px; fill: rgb(42, 63, 95); fill-opacity: 1; white-space: pre; opacity: 1;" transform="translate(257.6,0)">2005</text></g><g class="xtick"><text text-anchor="middle" x="0" y="433" style="font-family: 'Open Sans', verdana, arial, sans-serif; font-size: 12px; fill: rgb(42, 63, 95); fill-opacity: 1; white-space: pre; opacity: 1;" transform="translate(331.34000000000003,0)">2010</text></g><g class="xtick"><text text-anchor="middle" x="0" y="433" style="font-family: 'Open Sans', verdana, arial, sans-serif; font-size: 12px; fill: rgb(42, 63, 95); fill-opacity: 1; white-space: pre; opacity: 1;" transform="translate(405.08,0)">2015</text></g><g class="xtick"><text text-anchor="middle" x="0" y="433" style="font-family: 'Open Sans', verdana, arial, sans-serif; font-size: 12px; fill: rgb(42, 63, 95); fill-opacity: 1; white-space: pre; opacity: 1;" transform="translate(478.82,0)">2020</text></g></g><g class="yaxislayer-above"><g class="ytick"><text text-anchor="end" x="79" y="4.199999999999999" transform="translate(0,367.56)" style="font-family: 'Open Sans', verdana, arial, sans-serif; font-size: 12px; fill: rgb(42, 63, 95); fill-opacity: 1; white-space: pre; opacity: 1;">−100</text></g><g class="ytick"><text text-anchor="end" x="79" y="4.199999999999999" style="font-family: 'Open Sans', verdana, arial, sans-serif; font-size: 12px; fill: rgb(42, 63, 95); fill-opacity: 1; white-space: pre; opacity: 1;" transform="translate(0,301.31)">0</text></g><g class="ytick"><text text-anchor="end" x="79" y="4.199999999999999" style="font-family: 'Open Sans', verdana, arial, sans-serif; font-size: 12px; fill: rgb(42, 63, 95); fill-opacity: 1; white-space: pre; opacity: 1;" transform="translate(0,235.05)">100</text></g><g class="ytick"><text text-anchor="end" x="79" y="4.199999999999999" style="font-family: 'Open Sans', verdana, arial, sans-serif; font-size: 12px; fill: rgb(42, 63, 95); fill-opacity: 1; white-space: pre; opacity: 1;" transform="translate(0,168.8)">200</text></g><g class="ytick"><text text-anchor="end" x="79" y="4.199999999999999" style="font-family: 'Open Sans', verdana, arial, sans-serif; font-size: 12px; fill: rgb(42, 63, 95); fill-opacity: 1; white-space: pre; opacity: 1;" transform="translate(0,102.54)">300</text></g></g><g class="overaxes-above"/></g></g><g class="polarlayer"/><g class="smithlayer"/><g class="ternarylayer"/><g class="geolayer"/><g class="funnelarealayer"/><g class="pielayer"/><g class="iciclelayer"/><g class="treemaplayer"/><g class="sunburstlayer"/><g class="glimages"/><defs id="topdefs-a4ecad"><g class="clips"/><clipPath id="legenda4ecad"><rect width="139" height="105" x="0" y="0"/></clipPath></defs><g class="layer-above"><g class="imagelayer"/><g class="shapelayer"/></g><g class="infolayer"><g class="legend" pointer-events="all" transform="translate(549.2,100)"><rect class="bg" shape-rendering="crispEdges" width="139" height="105" x="0" y="0" style="stroke: rgb(68, 68, 68); stroke-opacity: 1; fill: rgb(255, 255, 255); fill-opacity: 1; stroke-width: 0px;"/><g class="scrollbox" transform="" clip-path="url(#legenda4ecad)"><g class="groups"><g class="traces" transform="translate(0,14.5)" style="opacity: 1;"><text class="legendtext" text-anchor="start" x="40" y="4.680000000000001" style="font-family: 'Open Sans', verdana, arial, sans-serif; font-size: 12px; fill: rgb(42, 63, 95); fill-opacity: 1; white-space: pre;">Jason.1</text><g class="layers" style="opacity: 1;"><g class="legendfill"/><g class="legendlines"><path class="js-line" d="M5,0h30" style="fill: none; stroke: rgb(99, 110, 250); stroke-opacity: 1; stroke-width: 2px;"/></g><g class="legendsymbols"><g class="legendpoints"/></g></g><rect class="legendtoggle" x="0" y="-9.5" width="133.84375" height="19" style="fill: rgb(0, 0, 0); fill-opacity: 0;"/></g><g class="traces" transform="translate(0,33.5)" style="opacity: 1;"><text class="legendtext" text-anchor="start" x="40" y="4.680000000000001" style="font-family: 'Open Sans', verdana, arial, sans-serif; font-size: 12px; fill: rgb(42, 63, 95); fill-opacity: 1; white-space: pre;">Jason.2</text><g class="layers" style="opacity: 1;"><g class="legendfill"/><g class="legendlines"><path class="js-line" d="M5,0h30" style="fill: none; stroke: rgb(239, 85, 59); stroke-opacity: 1; stroke-width: 2px;"/></g><g class="legendsymbols"><g class="legendpoints"/></g></g><rect class="legendtoggle" x="0" y="-9.5" width="133.84375" height="19" style="fill: rgb(0, 0, 0); fill-opacity: 0;"/></g><g class="traces" transform="translate(0,52.5)" style="opacity: 1;"><text class="legendtext" text-anchor="start" x="40" y="4.680000000000001" style="font-family: 'Open Sans', verdana, arial, sans-serif; font-size: 12px; fill: rgb(42, 63, 95); fill-opacity: 1; white-space: pre;">Jason.3</text><g class="layers" style="opacity: 1;"><g class="legendfill"/><g class="legendlines"><path class="js-line" d="M5,0h30" style="fill: none; stroke: rgb(0, 204, 150); stroke-opacity: 1; stroke-width: 2px;"/></g><g class="legendsymbols"><g class="legendpoints"/></g></g><rect class="legendtoggle" x="0" y="-9.5" width="133.84375" height="19" style="fill: rgb(0, 0, 0); fill-opacity: 0;"/></g><g class="traces" transform="translate(0,71.5)" style="opacity: 1;"><text class="legendtext" text-anchor="start" x="40" y="4.680000000000001" style="font-family: 'Open Sans', verdana, arial, sans-serif; font-size: 12px; fill: rgb(42, 63, 95); fill-opacity: 1; white-space: pre;">Sentinel-6MF</text><g class="layers" style="opacity: 1;"><g class="legendfill"/><g class="legendlines"><path class="js-line" d="M5,0h30" style="fill: none; stroke: rgb(171, 99, 250); stroke-opacity: 1; stroke-width: 2px;"/></g><g class="legendsymbols"><g class="legendpoints"/></g></g><rect class="legendtoggle" x="0" y="-9.5" width="133.84375" height="19" style="fill: rgb(0, 0, 0); fill-opacity: 0;"/></g><g class="traces" transform="translate(0,90.5)" style="opacity: 1;"><text class="legendtext" text-anchor="start" x="40" y="4.680000000000001" style="font-family: 'Open Sans', verdana, arial, sans-serif; font-size: 12px; fill: rgb(42, 63, 95); fill-opacity: 1; white-space: pre;">TOPEX.Poseidon</text><g class="layers" style="opacity: 1;"><g class="legendfill"/><g class="legendlines"><path class="js-line" d="M5,0h30" style="fill: none; stroke: rgb(255, 161, 90); stroke-opacity: 1; stroke-width: 2px;"/></g><g class="legendsymbols"><g class="legendpoints"/></g></g><rect class="legendtoggle" x="0" y="-9.5" width="133.84375" height="19" style="fill: rgb(0, 0, 0); fill-opacity: 0;"/></g></g></g><rect class="scrollbar" rx="20" ry="3" width="0" height="0" x="0" y="0" style="fill: rgb(128, 139, 164); fill-opacity: 1;"/></g><g class="g-gtitle"><text class="gtitle" x="35" y="50" text-anchor="start" dy="0em" style="font-family: 'Open Sans', verdana, arial, sans-serif; font-size: 17px; fill: rgb(42, 63, 95); opacity: 1; font-weight: normal; white-space: pre;">Mean Sea Levels Changing - Yellow Sea</text></g><g class="g-xtitle"><text class="xtitle" x="310" y="460.3" text-anchor="middle" style="font-family: 'Open Sans', verdana, arial, sans-serif; font-size: 14px; fill: rgb(42, 63, 95); opacity: 1; font-weight: normal; white-space: pre;">Date</text></g><g class="g-ytitle"><text class="ytitle" transform="rotate(-90,27.668750000000003,260)" x="27.668750000000003" y="260" text-anchor="middle" style="font-family: 'Open Sans', verdana, arial, sans-serif; font-size: 14px; fill: rgb(42, 63, 95); opacity: 1; font-weight: normal; white-space: pre;">Change in Sea Level [mm]</text></g></g></svg>