<svg class="main-svg" xmlns="http://www.w3.org/2000/svg" xmlns:xlink="http://www.w3.org/1999/xlink" width="700" height="500" style="" viewBox="0 0 700 500"><rect x="0" y="0" width="700" height="500" style="fill: rgb(255, 255, 255); fill-opacity: 1;"/><defs id="defs-00abbc"><g class="clips"><clipPath id="clip00abbcxyplot" class="plotclip"><rect width="460" height="320"/></clipPath><clipPath class="axesclip" id="clip00abbcx"><rect x="80" y="0" width="460" height="500"/></clipPath><clipPath class="axesclip" id="clip00abbcy"><rect x="0" y="100" width="700" height="320"/></clipPath><clipPath class="axesclip" id="clip00abbcxy"><rect x="80" y="100" width="460" height="320"/></clipPath></g><g class="gradients"/><g class="patterns"/></defs><g class="bglayer"><rect class="bg" x="80" y="100" width="460" height="320" style="fill: rgb(229, 236, 246); fill-opacity: 1; stroke-width: 0;"/></g><g class="layer-below"><g class="imagelayer"/><g class="shapelayer"/></g><g class="cartesianlayer"><g class="subplot xy"><g class="layer-subplot"><g class="shapelayer"/><g class="imagelayer"/></g><g class="minor-gridlayer"><g class="x"/><g class="y"/></g><g class="gridlayer"><g class="x"><path class="xgrid crisp" transform="translate(110.09,0)" d="M0,100v320" style="stroke: rgb(255, 255, 255); stroke-opacity: 1; stroke-width: 1px;"/><path class="xgrid crisp" transform="translate(183.82999999999998,0)" d="M0,100v320" style="stroke: rgb(255, 255, 255); stroke-opacity: 1; stroke-width: 1px;"/><path class="xgrid crisp" transform="translate(257.62,0)" d="M0,100v320" style="stroke: rgb(255, 255, 255); stroke-opacity: 1; stroke-width: 1px;"/><path class="xgrid crisp" transform="translate(331.36,0)" d="M0,100v320" style="stroke: rgb(255, 255, 255); stroke-opacity: 1; stroke-width: 1px;"/><path class="xgrid crisp" transform="translate(405.11,0)" d="M0,100v320" style="stroke: rgb(255, 255, 255); stroke-opacity: 1; stroke-width: 1px;"/><path class="xgrid crisp" transform="translate(478.86,0)" d="M0,100v320" style="stroke: rgb(255, 255, 255); stroke-opacity: 1; stroke-width: 1px;"/></g><g class="y"><path class="ygrid crisp" transform="translate(0,414.25)" d="M80,0h460" style="stroke: rgb(255, 255, 255); stroke-opacity: 1; stroke-width: 1px;"/><path class="ygrid crisp" transform="translate(0,370.62)" d="M80,0h460" style="stroke: rgb(255, 255, 255); stroke-opacity: 1; stroke-width: 1px;"/><path class="ygrid crisp" transform="translate(0,283.35)" d="M80,0h460" style="stroke: rgb(255, 255, 255); stroke-opacity: 1; stroke-width: 1px;"/><path class="ygrid crisp" transform="translate(0,239.71)" d="M80,0h460" style="stroke: rgb(255, 255, 255); stroke-opacity: 1; stroke-width: 1px;"/><path class="ygrid crisp" transform="translate(0,196.07)" d="M80,0h460" style="stroke: rgb(255, 255, 255); stroke-opacity: 1; stroke-width: 1px;"/><path class="ygrid crisp" transform="translate(0,152.44)" d="M80,0h460" style="stroke: rgb(255, 255, 255); stroke-opacity: 1; stroke-width: 1px;"/><path class="ygrid crisp" transform="translate(0,108.8)" d="M80,0h460" style="stroke: rgb(255, 255, 255); stroke-opacity: 1; stroke-width: 1px;"/></g></g><g class="zerolinelayer"><path class="yzl zl crisp" transform="translate(0,326.98)" d="M80,0h460" style="stroke: rgb(255, 255, 255); stroke-opacity: 1; stroke-width: 2px;"/></g><g class="layer-between"><g class="shapelayer"/><g class="imagelayer"/></g><path class="xlines-below"/><path class="ylines-below"/><g class="overlines-below"/><g class="xaxislayer-below"/><g class="yaxislayer-below"/><g class="overaxes-below"/><g class="plot" transform="translate(80,100)" clip-path="url(#clip00abbcxyplot)"><g class="scatterlayer mlayer"><g class="trace scatter tracea3f21b" style="stroke-miterlimit: 2; opacity: 1;"><g class="fills"/><g class="errorbars"/><g class="lines"><path class="js-line" d="M134.12,234.18L135.33,217.82L135.74,226.33L136.14,234.62L136.55,210.62L136.95,213.89L137.31,204.73L138.12,235.05L138.53,220.44L138.93,200.36L139.33,219.13L139.74,219.35L140.14,209.09L140.54,163.27L140.95,165.45L141.35,177.02L141.72,178.76L142.12,196L142.52,180.29L142.93,191.64L143.33,195.78L143.73,201.45L144.14,194.47L144.54,191.64L144.95,183.13L145.35,156.95L145.75,177.89L146.12,168.29L146.93,181.16L147.33,197.31L148.14,206.69L148.54,201.45L148.94,200.15L149.35,194.69L150.16,222.4L150.52,211.93L150.92,221.31L151.73,218.69L152.22,208.65L152.54,206.69L152.94,237.02L153.75,199.27L154.15,203.64L154.56,214.11L154.92,236.58L155.33,230.69L155.73,209.53L156.54,193.38L156.94,193.82L157.35,206.91L157.75,173.75L158.15,175.93L158.56,188.15L158.96,199.93L159.32,195.56L159.73,189.45L160.54,213.67L160.9,208.22L161.5,205.6L161.75,190.55L162.15,197.53L162.55,198.4L164.13,218.04L164.49,216.73L165.02,189.89L165.75,212.8L166.15,210.84L166.51,182.91L166.96,193.16L167.36,187.93L167.76,218.69L168.57,184.22L168.98,190.55L169.38,198.4L169.78,196L170.19,186.18L170.55,175.49L170.96,180.51L171.36,194.25L171.76,195.78L172.17,188.8L173.38,170.69L173.78,182.69L174.19,182.47L174.59,173.75L175.4,197.09L175.8,179.64L176.21,197.31L176.57,190.98L176.97,186.62L177.38,192.29L177.78,212.58L178.18,209.96L178.59,199.27L179.8,181.16L180.2,184.22L180.61,193.16L180.97,226.98L181.78,192.73L182.18,209.96L182.59,204.51L182.99,185.75L184.2,206.47L184.61,182.47L185.01,176.8L185.41,192.73L186.18,167.42L186.58,196.87L186.99,188.36L187.39,163.05L187.8,150.4L188.12,153.02L188.68,179.42L189.82,147.78L190.18,152.8L190.58,151.71L190.99,173.31L191.39,184.22L191.79,174.84L192.2,154.55L193.01,199.93L193.41,194.25L193.81,190.33L194.58,199.49L194.99,184.65L195.39,195.35L195.79,186.84L196.2,196.22L196.6,192.07L197,204.95L197.81,195.35L198.22,201.89L200.19,179.85L200.6,190.76L201.41,175.05L201.81,178.76L202.21,177.89L202.62,171.78L203.02,144.95L203.39,152.36L203.79,169.38L204.48,198.18L205.45,167.42L207.02,192.73L207.42,184L208.19,198.4L208.6,199.05L209.4,187.93L209.81,193.6L211.02,206.04L211.42,182.47L212.59,191.85L213,194.69L213.4,215.64L213.81,202.76L214.21,212.8L214.61,182.04L215.02,197.75L215.42,191.42L216.23,168.07L216.59,180.95L217,186.62L217.4,173.31L217.8,160.65L218.21,178.98L218.61,187.71L219.01,182.69L219.42,186.18L220.23,160.87L220.63,178.98L221.4,207.78L221.8,185.31L222.21,176.58L222.61,196.44L223.01,204.07L223.42,201.67L223.82,184L225.03,192.51L225.44,193.82L225.84,185.75L226.24,203.64L226.65,203.42L226.93,193.82L227.42,188.8L227.82,199.49L228.22,183.35L228.63,184.22L229.03,187.49L230.24,177.67L230.57,152.8L231.25,151.27L231.45,175.27L231.86,170.69L232.26,182.47L232.67,167.85L233.03,172L233.43,169.38L235.05,206.47L235.45,172.87L236.26,197.53L236.66,171.13L237.07,172.44L237.47,177.45L238.84,199.27L239.25,191.85L239.65,202.55L240.06,181.6L240.86,197.75L241.27,177.89L241.67,184.87L242.08,211.27L242.48,207.78L242.84,209.09L243.25,196.22L244.46,180.95L244.86,154.98L245.27,136.87L245.67,154.55L246.07,154.76L246.48,141.24L247.45,145.16L247.65,138.4L248.05,165.67L248.46,160.65L248.86,165.45L250.07,147.56L250.48,165.02L251.28,175.71L251.65,156.95L252.45,177.45L252.86,171.35L253.26,182.04L253.67,177.67L254.07,178.76L254.47,177.89L254.88,183.35L255.69,167.64L256.05,175.05L256.45,195.78L256.86,183.13L257.26,184.87L258.07,200.15L258.47,198.62L258.88,205.16L259.64,170.47L260.09,171.13L260.49,188.58L260.86,188.15L261.26,196.87L261.66,197.31L262.07,203.64L262.47,180.73L262.87,189.89L263.28,183.56L263.68,172.22L264.09,182.91L264.85,207.13L265.26,188.15L265.66,187.05L266.06,187.49L266.47,196.44L266.87,191.64L267.28,198.84L268.49,209.75L268.89,207.13L269.66,197.75L270.06,222.62L270.47,198.84L270.87,218.04L271.27,209.31L272.08,195.56L272.49,203.64L272.89,186.4L273.29,197.75L273.7,187.05L274.06,195.13L274.47,175.93L275.68,161.09L276.08,161.53L276.48,174.18L276.89,150.18L277.29,157.16L277.7,165.24L278.06,198.84L278.46,182.69L278.87,182.25L279.27,168.73L279.68,182.69L280.08,193.6L280.48,182.04L280.89,179.2L281.29,166.11L281.69,178.76L282.1,165.67L282.46,190.33L282.7,180.95L283.31,181.16L286.66,181.38L287.11,172.87L287.55,159.56L287.83,168.95L288.16,164.8L289.04,143.85L289.45,151.93L289.77,146.91L290.05,165.67L291.71,126.62L291.99,128.58L292.44,132.07L293.16,162.62L293.49,137.53L293.93,131.2L294.38,136.87L294.82,131.42L295.1,141.02L295.83,147.78L296.27,141.45L296.72,140.8L297.04,168.29L298.01,131.64L298.78,155.64L298.94,175.49L299.26,170.04L299.67,166.11L300.72,186.4L301.16,161.31L301.6,149.53L302.05,151.27L302.33,176.8L302.49,190.55" style="vector-effect: none; fill: none; stroke: rgb(99, 110, 250); stroke-opacity: 1; stroke-width: 2px; opacity: 1;"/></g><g class="points"/><g class="text"/></g><g class="trace scatter tracec1a5a2" style="stroke-miterlimit: 2; opacity: 1;"><g class="fills"/><g class="errorbars"/><g class="lines"><path class="js-line" d="M229.47,184.44L229.84,187.27L230.24,178.11L230.65,159.56L231.05,168.51L231.45,171.56L232.26,178.33L232.67,164.36L235.05,207.56L235.45,171.78L236.26,193.82L236.66,174.84L237.07,173.53L237.47,182.47L238.64,201.67L239.05,202.11L239.45,203.42L239.85,192.07L240.26,177.89L240.66,191.42L241.47,184.22L241.87,209.96L242.64,202.55L243.04,204.07L243.45,194.91L244.66,175.93L245.06,136.44L245.87,162.18L246.28,150.62L247.45,132.95L247.85,158.04L248.66,167.42L249.06,160.44L249.87,154.76L250.27,158.04L250.68,182.91L251.08,172.87L251.49,170.47L251.85,161.31L252.25,169.16L252.66,180.95L253.06,184.22L253.46,183.13L253.87,178.76L255.08,181.38L255.48,175.05L255.85,169.16L256.25,189.45L256.65,192.73L257.06,178.33L257.46,182.69L257.87,201.02L259.48,167.85L259.89,168.51L260.29,191.85L260.65,191.42L261.06,196.65L261.86,201.67L262.27,189.24L262.67,170.04L263.08,180.73L263.48,177.67L263.88,169.82L264.29,187.05L264.69,199.71L265.06,194.04L265.46,188.8L265.86,186.84L266.27,187.93L266.67,196.22L267.07,186.62L267.48,203.2L267.88,202.98L268.29,205.38L268.69,209.31L269.09,197.09L269.46,203.2L269.86,189.02L271.07,208.65L271.48,197.75L271.88,182.47L272.28,194.04L272.69,191.64L273.86,181.82L274.26,183.78L275.47,160.65L275.88,152.58L276.28,161.96L276.69,160.65L277.09,143.2L278.26,176.36L278.67,172.65L279.07,167.2L279.47,171.13L279.88,191.42L281.09,155.64L281.49,171.13L281.9,157.82L282.3,173.75L283.07,166.55L283.47,175.49L284.28,154.55L284.68,175.27L285.09,186.4L285.49,178.33L285.89,175.27L286.3,177.02L286.7,170.69L287.11,174.18L287.51,161.09L287.91,168.73L288.32,162.4L288.72,153.24L289.13,142.33L289.49,149.96L289.89,154.33L290.3,164.8L290.7,146.47L291.91,126.62L292.32,130.55L293.12,158.04L293.53,146.91L294.74,132.73L295.14,138.4L295.55,137.09L295.91,148L296.31,137.53L296.72,143.64L297.12,169.6L297.53,164.8L297.93,141.24L299.06,190.11L299.59,155.85L300.31,161.09L300.72,183.56L301.93,143.2L302.33,162.18L302.74,152.15L303.14,168.95L303.54,169.82L303.95,146.69L304.71,151.27L305.12,142.55L306.05,135.56L306.33,118.76L306.73,113.96L307.14,137.96L308.75,160L309.12,162.4L309.52,177.67L309.92,170.69L310.33,146.69L310.73,157.38L311.14,152.15L311.54,153.89L311.94,155.42L312.35,146.04L313.12,134.04L313.52,137.53L313.92,153.24L314.33,140.58L314.73,144.29L315.13,155.42L315.54,164.36L315.94,151.71L316.75,146.04L317.15,147.35L318.32,126.84L318.73,129.24L319.13,137.31L319.54,127.71L320.34,114.18L320.75,116.15L321.15,130.76L321.96,109.16L322.32,115.05L322.73,118.33L323.53,159.78L323.94,154.11L324.34,117.02L324.75,115.27L325.15,124.44L325.55,117.24L325.96,129.89L326.36,146.91L326.73,135.13L327.13,131.42L327.94,123.56L328.34,132.73L328.74,131.42L329.15,120.51L329.55,114.84L329.96,121.82L330.76,130.76L331.13,121.16L331.53,115.27L331.94,127.05L332.34,118.98L332.74,121.16L333.15,125.96L333.55,112L333.95,119.85L334.36,117.89L335.93,82.98L336.34,87.56L337.14,92.58L337.55,102.18L337.95,105.45L338.36,101.75L338.76,106.98L339.16,104.15L339.57,107.64L339.93,125.53L340.34,116.8L340.74,113.09L341.14,128.36L341.55,105.02L342.76,125.53L343.16,108.73L343.97,122.91L344.37,139.05L344.78,140.8L345.18,130.33L345.59,123.78L345.95,101.75L346.35,102.18L346.76,112.65L347.16,100.87L347.56,108.07L347.97,121.82L348.78,109.16L349.18,93.89L349.58,100.65L349.99,88L350.39,100.22L350.8,95.42L351.52,93.24L351.81,80.8L352.21,103.71L353.38,91.49L353.78,112.65L354.19,99.13L354.59,108.51L355,110.04L355.4,98.91L355.8,114.4L356.61,116.8L357.01,122.91L358.31,89.53L358.59,114.62L359.8,131.42L360.08,138.84" style="vector-effect: none; fill: none; stroke: rgb(239, 85, 59); stroke-opacity: 1; stroke-width: 2px; opacity: 1;"/></g><g class="points"/><g class="text"/></g><g class="trace scatter trace1c256a" style="stroke-miterlimit: 2; opacity: 1;"><g class="fills"/><g class="errorbars"/><g class="lines"><path class="js-line" d="M341.63,103.93L342.72,121.38L343.16,99.13L343.97,117.02L344.37,137.31L344.78,141.02L345.18,131.2L346.35,97.38L346.76,105.67L347.16,94.55L347.56,101.31L347.97,117.89L348.37,115.05L348.78,105.02L349.99,85.6L350.39,94.55L351.6,79.27L352.01,93.45L352.77,88.87L353.18,79.93L353.99,105.24L354.39,90.62L354.79,112.44L355.2,97.16L355.6,106.55L356.81,118.98L357.22,120.07L358.39,99.35L358.79,123.78L359.6,122.47L360,134.47L360.41,131.64L360.81,116.15L361.22,119.2L361.62,128.15L361.98,147.13L362.39,127.71L363.19,92.8L363.6,109.16L364,104.58L364.41,114.84L366.02,99.35L366.38,92.36L366.79,86.69L367.19,99.35L368.4,87.78L368.81,96.95L369.62,118.76L370.02,113.31L371.19,128.15L371.59,127.27L372,117.24L372.4,109.16L372.81,114.84L373.21,128.8L373.61,125.31L374.02,110.25L374.42,106.11L374.83,111.13L375.19,113.75L375.59,92.15L376,84.51L376.4,104.8L376.8,110.69L377.21,80.15L378.02,88.65L378.42,79.27L378.82,99.78L379.23,99.56L379.59,90.18L380.4,74.69L380.8,83.64L381.61,71.42L382.01,84.07L382.42,92.36L382.82,86.91L383.23,86.69L383.99,77.75L384.4,91.27L384.8,89.96L385.2,100.65L385.61,93.67L386.01,94.76L386.25,98.25L386.86,95.2L387.22,89.09L388.4,104.36L388.8,95.85L389.61,98.47L390.01,104.58L390.41,117.45L390.82,88.65L391.63,76L392.03,84.51L392.43,92.36L392.8,83.85L394.41,55.05L394.82,76L396.03,88.44L396.43,95.2L396.84,85.16L397.2,89.31L397.6,88.44L398.01,79.49L398.41,86.04L398.81,86.25L399.22,90.4L399.62,112.22L400.47,80.15L400.83,92.15L402.05,107.2L402.41,101.96L403.22,97.82L403.62,102.84L404.43,62.25L404.83,65.53L405.24,80.15L405.64,97.6L406.04,96.29L406.45,89.53L406.85,81.67L407.26,82.33L407.66,97.82L409.64,61.82L410.04,69.67L410.45,76.44L410.85,72.51L411.25,74.04L412.06,97.16L412.47,79.27L412.87,76.44L413.27,101.31L414.48,83.85L414.85,87.56L416.06,102.18L416.46,92.8L416.87,92.58L417.27,79.71L417.68,74.69L418.08,81.45L418.48,99.13L418.89,93.02L419.25,70.98L419.65,63.13L420.06,77.09L420.46,77.53L420.87,84.07L421.27,89.53L421.67,70.98L422.08,52.44L422.48,62.69L422.88,51.78L423.29,63.13L423.65,55.05L424.06,48.73L425.27,68.58L425.67,62.69L426.08,62.47L426.48,79.49L426.88,81.02L427.29,73.16L428.46,90.4L428.86,81.89L429.27,78.84L429.67,90.84L430.07,69.24L430.48,97.82L430.88,98.69L431.29,83.2L431.69,81.24L432.09,69.45L432.29,112L433.06,76.87L433.35,75.56L433.75,95.42L434.15,81.89L434.56,100.44L434.96,105.24L435.36,88L436.17,58.76L436.54,70.76L436.94,86.69L437.34,72.95L437.75,70.33L438.55,44.58L438.96,58.11L439.36,62.04L439.77,58.55L440.17,60.29L440.57,74.91L441.34,95.85L441.75,85.6L442.55,81.24L442.96,46.55L444.17,79.49L444.57,73.16L444.98,51.78L445.34,58.98L445.74,85.38L446.15,83.85L446.55,96.07L446.96,103.05L447.36,79.05L448.17,60.07L448.57,62.69L448.97,65.96L449.74,81.67L450.15,78.18L450.55,73.38L451.36,41.75L451.76,42.62L452.17,48.73L453.78,16L454.14,36.29L454.55,39.13L454.95,24.29L456.57,53.96L456.97,43.49L458.18,68.8L458.59,64.65L458.95,58.33L459.76,76L460,64.22" style="vector-effect: none; fill: none; stroke: rgb(0, 204, 150); stroke-opacity: 1; stroke-width: 2px; opacity: 1;"/></g><g class="points"/><g class="text"/></g><g class="trace scatter trace67627e" style="stroke-miterlimit: 2; opacity: 1;"><g class="fills"/><g class="errorbars"/><g class="lines"><path class="js-line" d="M413.27,100.41L413.68,88.2L414.08,89.29L414.48,88.85L414.85,90.38L415.25,97.8L415.66,103.47L416.06,102.6L416.46,97.58L416.87,97.58L417.27,82.52L417.68,74.01L418.08,86.67L418.48,100.63L418.89,93.43L419.25,70.31L419.65,59.18L420.06,73.8L420.46,73.8L420.87,81.43L421.27,86.45L421.67,71.18L422.88,48.05L423.29,68.12L424.06,49.58L424.46,59.4L425.27,69.21L425.67,63.54L426.08,65.29L426.48,84.92L426.88,83.18L427.29,70.09L428.46,94.31L428.86,87.76L429.27,77.51L429.67,88.41L430.07,68.78L430.48,94.74L430.88,98.89L431.29,83.83L432.46,62.67L432.86,82.09L433.26,71.83L433.67,93.87L434.07,81.65L434.48,93L434.88,106.96L435.28,96.27L435.69,87.11L436.09,61.58L436.5,64.63L436.86,77.94L437.67,74.23L438.07,62.45L438.47,45.43L438.88,53.51L439.28,60.49L439.69,61.58L440.09,58.09L441.26,91.47L441.66,82.52L442.07,81.43L442.47,81.65L442.88,56.34L444.09,75.32L444.49,72.49L445.3,53.72L445.66,79.91L446.47,85.58L446.87,101.51L448.49,63.54L448.89,64.2L450.06,83.83L450.47,72.92L451.68,38.67L452.08,49.14L453.3,29.94L453.7,18.81L454.47,39.76L454.87,19.47L455.27,45.21L455.68,43.47L456.08,39.32L456.49,57.43L456.89,43.69" style="vector-effect: none; fill: none; stroke: rgb(171, 99, 250); stroke-opacity: 1; stroke-width: 2px; opacity: 1;"/></g><g class="points"/><g class="text"/></g><g class="trace scatter tracef68915" style="stroke-miterlimit: 2; opacity: 1;"><g class="fills"/><g class="errorbars"/><g class="lines"><path class="js-line" d="M0,259.05L1.17,304L1.53,296.58L4,263.85L4.81,269.09L5.17,261.89L5.57,279.78L6.38,284.58L6.78,275.2L7.19,272.58L7.59,247.05L8,263.85L8.4,263.2L9.21,255.56L9.61,240.95L9.98,250.33L10.38,252.07L11.19,267.78L11.59,255.35L11.99,248.15L12.4,251.2L13.21,278.04L14.78,242.04L15.19,258.4L15.59,267.13L15.99,259.71L16.4,252.07L17.61,279.78L18.01,260.8L19.99,251.64L20.4,275.2L21.2,293.09L21.61,273.24L22.01,255.35L22.78,272.36L23.59,233.09L23.99,258.18L24.8,230.69L25.2,242.47L25.6,243.78L26.01,240.29L26.41,255.78L26.82,244L27.18,237.02L27.58,238.55L28.39,263.85L28.8,267.13L29.2,235.49L29.6,224.15L30.01,241.82L30.41,260.36L30.81,246.84L31.22,222.4L32.39,271.27L33.2,232.22L34.01,259.27L34.41,259.71L34.81,262.11L35.62,278.69L36.79,260.36L37.2,255.35L38,262.33L38.41,254.25L39.62,237.89L39.98,240.51L40.39,223.71L40.79,221.75L41.19,232.87L41.6,229.82L42.41,242.47L42.81,246.4L43.17,231.13L45.19,268.22L45.6,254.04L46,255.35L46.4,246.18L47.21,247.49L47.62,256.44L48.42,238.98L48.83,250.11L49.23,245.75L49.63,247.93L50.04,248.58L50.81,262.33L51.21,243.35L52.02,239.64L52.42,253.16L53.63,223.27L54.04,230.69L55.65,202.55L56.06,217.6L56.86,219.13L57.23,204.73L58.04,242.25L58.44,236.58L58.84,237.24L59.25,238.33L59.65,235.05L60.46,268.44L60.86,249.67L62.07,217.82L62.44,235.49L62.84,242.91L63.24,220.87L64.05,244.65L64.46,235.93L65.26,243.35L65.67,221.96L66.48,240.29L66.84,236.8L67.24,221.53L68.05,199.27L68.86,188.8L69.67,209.75L70.07,189.24L70.47,185.53L71.24,212.36L72.05,199.93L72.45,219.35L73.26,199.71L73.66,214.76L74.07,210.84L74.47,218.47L74.88,213.02L75.64,213.89L76.86,248.36L77.26,245.96L77.66,234.18L78.47,252.29L78.87,241.38L79.28,247.93L79.68,266.91L80.85,233.75L81.26,252.95L82.06,261.45L82.47,268.87L83.28,228.95L83.68,248.36L84.08,242.69L84.45,248.15L84.85,252.73L85.26,233.53L85.66,234.62L86.47,247.27L86.87,247.49L87.27,228.95L87.68,243.56L88.08,224.36L89.25,270.18L89.66,245.31L90.47,255.13L90.91,246.18L92.08,263.64L92.48,210.18L94.06,265.16L94.46,265.38L95.27,248.15L95.68,252.51L96.08,252.95L96.48,252.95L96.89,249.24L97.65,233.96L98.06,235.27L98.46,230.47L99.27,227.42L99.67,216.07L100.08,218.69L100.48,206.47L102.46,232.87L103.27,225.24L104.48,252.07L104.88,241.6L105.29,242.69L105.69,246.62L106.9,220.65L107.31,215.2L108.48,247.49L108.88,235.71L109.69,257.53L110.09,254.25L110.5,240.07L111.71,209.09L112.52,231.78L113.32,206.04L113.73,206.91L114.09,206.25L114.9,199.71L115.3,192.07L115.71,211.71L116.51,204.29L116.92,216.07L117.32,200.36L118.94,221.75L119.71,231.13L120.11,233.31L120.51,231.78L120.92,223.49L121.32,218.91L121.72,221.96L122.13,203.64L123.74,227.42L124.11,222.84L124.91,232.65L125.32,230.25L125.72,205.16L126.53,200.36L126.93,211.71L127.74,182.47L128.15,199.93L128.51,203.2L128.91,190.98L129.32,189.67L129.72,190.98L130.53,211.93L130.93,204.29L131.34,208L132.71,185.75L132.91,223.49L133.72,235.49L134.12,228.29L135.33,215.2L135.74,225.24L136.14,225.45L136.55,217.82L136.95,208.44L137.31,213.67L137.76,223.27L138.12,230.25L138.53,216.07L138.93,213.24L139.33,235.93L140.14,218.69L140.54,173.96L142.12,199.49L142.52,181.82L143.73,202.55L144.14,199.49L144.54,201.67L144.95,183.35L145.35,158.69L145.75,179.2L146.12,175.71L146.56,179.85L146.93,174.84L147.73,206.04L148.14,196.44L148.54,197.96L148.94,196.44L149.35,187.49L150.16,220.87L150.52,203.42L150.92,218.04L151.33,217.82L151.73,210.18L152.14,210.62L152.54,204.07L152.94,233.31L153.35,223.27L153.75,201.67L154.92,232L155.33,230.04L156.13,195.78L157.35,208.87L157.75,185.53L158.15,187.93L158.56,199.93L158.96,201.67L159.32,196.44L159.73,189.67L160.13,195.78L160.54,220L160.94,215.2L161.5,194.91L161.67,194.69L162.15,190.98L162.55,189.89L162.96,204.07L163.36,214.98L163.77,212.8L164.13,215.2L165.34,197.75L165.75,220.22L166.15,211.71L166.55,185.09L166.96,191.85L167.36,191.2L167.76,221.96L168.57,180.51L169.78,191.42L170.55,185.75L170.96,191.64L171.36,211.49L171.76,204.07L172.17,198.4L173.38,175.05L173.78,190.98L174.19,183.13L174.59,185.31L174.99,193.82L175.4,199.49L175.8,184.65L176.21,196.65L176.57,184.87L177.38,196.22L177.78,222.62L178.99,190.76L179.4,194.69L179.8,190.98L180.2,189.67L180.61,200.8L180.97,220.87L181.37,203.2L181.78,198.84L182.18,221.31L182.59,217.6L182.99,187.71L183.39,192.95L183.8,210.18L184.2,219.13L184.61,201.89L185.01,193.38L185.41,209.53L186.18,180.29L186.58,202.98L187.39,178.11L187.8,158.69L188.2,156.51L188.6,183.78" style="vector-effect: none; fill: none; stroke: rgb(255, 161, 90); stroke-opacity: 1; stroke-width: 2px; opacity: 1;"/></g><g class="points"/><g class="text"/></g></g></g><g class="overplot"/><path class="xlines-above crisp" d="M0,0" style="fill: none;"/><path class="ylines-above crisp" d="M0,0" style="fill: none;"/><g class="overlines-above"/><g class="xaxislayer-above"><g class="xtick"><text text-anchor="middle" x="0" y="433" transform="translate(110.09,0)" style="font-family: 'Open Sans', verdana, arial, sans-serif; font-size: 12px; fill: rgb(42, 63, 95); fill-opacity: 1; white-space: pre; opacity: 1;">1995</text></g><g class="xtick"><text text-anchor="middle" x="0" y="433" style="font-family: 'Open Sans', verdana, arial, sans-serif; font-size: 12px; fill: rgb(42, 63, 95); fill-opacity: 1; white-space: pre; opacity: 1;" transform="translate(183.82999999999998,0)">2000</text></g><g class="xtick"><text text-anchor="middle" x="0" y="433" style="font-family: 'Open Sans', verdana, arial, sans-serif; font-size: 12px; fill: rgb(42, 63, 95); fill-opacity: 1; white-space: pre; opacity: 1;" transform="translate(257.62,0)">2005</text></g><g class="xtick"><text text-anchor="middle" x="0" y="433" style="font-family: 'Open Sans', verdana, arial, sans-serif; font-size: 12px; fill: rgb(42, 63, 95); fill-opacity: 1; white-space: pre; opacity: 1;" transform="translate(331.36,0)">2010</text></g><g class="xtick"><text text-anchor="middle" x="0" y="433" style="font-family: 'Open Sans', verdana, arial, sans-serif; font-size: 12px; fill: rgb(42, 63, 95); fill-opacity: 1; white-space: pre; opacity: 1;" transform="translate(405.11,0)">2015</text></g><g class="xtick"><text text-anchor="middle" x="0" y="433" style="font-family: 'Open Sans', verdana, arial, sans-serif; font-size: 12px; fill: rgb(42, 63, 95); fill-opacity: 1; white-space: pre; opacity: 1;" transform="translate(478.86,0)">2020</text></g></g><g class="yaxislayer-above"><g class="ytick"><text text-anchor="end" x="79" y="4.199999999999999" transform="translate(0,414.25)" style="font-family: 'Open Sans', verdana, arial, sans-serif; font-size: 12px; fill: rgb(42, 63, 95); fill-opacity: 1; white-space: pre; opacity: 1;">−40</text></g><g class="ytick"><text text-anchor="end" x="79" y="4.199999999999999" style="font-family: 'Open Sans', verdana, arial, sans-serif; font-size: 12px; fill: rgb(42, 63, 95); fill-opacity: 1; white-space: pre; opacity: 1;" transform="translate(0,370.62)">−20</text></g><g class="ytick"><text text-anchor="end" x="79" y="4.199999999999999" style="font-family: 'Open Sans', verdana, arial, sans-serif; font-size: 12px; fill: rgb(42, 63, 95); fill-opacity: 1; white-space: pre; opacity: 1;" transform="translate(0,326.98)">0</text></g><g class="ytick"><text text-anchor="end" x="79" y="4.199999999999999" style="font-family: 'Open Sans', verdana, arial, sans-serif; font-size: 12px; fill: rgb(42, 63, 95); fill-opacity: 1; white-space: pre; opacity: 1;" transform="translate(0,283.35)">20</text></g><g class="ytick"><text text-anchor="end" x="79" y="4.199999999999999" style="font-family: 'Open Sans', verdana, arial, sans-serif; font-size: 12px; fill: rgb(42, 63, 95); fill-opacity: 1; white-space: pre; opacity: 1;" transform="translate(0,239.71)">40</text></g><g class="ytick"><text text-anchor="end" x="79" y="4.199999999999999" style="font-family: 'Open Sans', verdana, arial, sans-serif; font-size: 12px; fill: rgb(42, 63, 95); fill-opacity: 1; white-space: pre; opacity: 1;" transform="translate(0,196.07)">60</text></g><g class="ytick"><text text-anchor="end" x="79" y="4.199999999999999" style="font-family: 'Open Sans', verdana, arial, sans-serif; font-size: 12px; fill: rgb(42, 63, 95); fill-opacity: 1; white-space: pre; opacity: 1;" transform="translate(0,152.44)">80</text></g><g class="ytick"><text text-anchor="end" x="79" y="4.199999999999999" style="font-family: 'Open Sans', verdana, arial, sans-serif; font-size: 12px; fill: rgb(42, 63, 95); fill-opacity: 1; white-space: pre; opacity: 1;" transform="translate(0,108.8)">100</text></g></g><g class="overaxes-above"/></g></g><g class="polarlayer"/><g class="smithlayer"/><g class="ternarylayer"/><g class="geolayer"/><g class="funnelarealayer"/><g class="pielayer"/><g class="iciclelayer"/><g class="treemaplayer"/><g class="sunburstlayer"/><g class="glimages"/><defs id="topdefs-00abbc"><g class="clips"/><clipPath id="legend00abbc"><rect width="139" height="105" x="0" y="0"/></clipPath></defs><g class="layer-above"><g class="imagelayer"/><g class="shapelayer"/></g><g class="infolayer"><g class="legend" pointer-events="all" transform="translate(549.2,100)"><rect class="bg" shape-rendering="crispEdges" width="139" height="105" x="0" y="0" style="stroke: rgb(68, 68, 68); stroke-opacity: 1; fill: rgb(255, 255, 255); fill-opacity: 1; stroke-width: 0px;"/><g class="scrollbox" transform="" clip-path="url(#legend00abbc)"><g class="groups"><g class="traces" transform="translate(0,14.5)" style="opacity: 1;"><text class="legendtext" text-anchor="start" x="40" y="4.680000000000001" style="font-family: 'Open Sans', verdana, arial, sans-serif; font-size: 12px; fill: rgb(42, 63, 95); fill-opacity: 1; white-space: pre;">Jason.1</text><g class="layers" style="opacity: 1;"><g class="legendfill"/><g class="legendlines"><path class="js-line" d="M5,0h30" style="fill: none; stroke: rgb(99, 110, 250); stroke-opacity: 1; stroke-width: 2px;"/></g><g class="legendsymbols"><g class="legendpoints"/></g></g><rect class="legendtoggle" x="0" y="-9.5" width="133.84375" height="19" style="fill: rgb(0, 0, 0); fill-opacity: 0;"/></g><g class="traces" transform="translate(0,33.5)" style="opacity: 1;"><text class="legendtext" text-anchor="start" x="40" y="4.680000000000001" style="font-family: 'Open Sans', verdana, arial, sans-serif; font-size: 12px; fill: rgb(42, 63, 95); fill-opacity: 1; white-space: pre;">Jason.2</text><g class="layers" style="opacity: 1;"><g class="legendfill"/><g class="legendlines"><path class="js-line" d="M5,0h30" style="fill: none; stroke: rgb(239, 85, 59); stroke-opacity: 1; stroke-width: 2px;"/></g><g class="legendsymbols"><g class="legendpoints"/></g></g><rect class="legendtoggle" x="0" y="-9.5" width="133.84375" height="19" style="fill: rgb(0, 0, 0); fill-opacity: 0;"/></g><g class="traces" transform="translate(0,52.5)" style="opacity: 1;"><text class="legendtext" text-anchor="start" x="40" y="4.680000000000001" style="font-family: 'Open Sans', verdana, arial, sans-serif; font-size: 12px; fill: rgb(42, 63, 95); fill-opacity: 1; white-space: pre;">Jason.3</text><g class="layers" style="opacity: 1;"><g class="legendfill"/><g class="legendlines"><path class="js-line" d="M5,0h30" style="fill: none; stroke: rgb(0, 204, 150); stroke-opacity: 1; stroke-width: 2px;"/></g><g class="legendsymbols"><g class="legendpoints"/></g></g><rect class="legendtoggle" x="0" y="-9.5" width="133.84375" height="19" style="fill: rgb(0, 0, 0); fill-opacity: 0;"/></g><g class="traces" transform="translate(0,71.5)" style="opacity: 1;"><text class="legendtext" text-anchor="start" x="40" y="4.680000000000001" style="font-family: 'Open Sans', verdana, arial, sans-serif; font-size: 12px; fill: rgb(42, 63, 95); fill-opacity: 1; white-space: pre;">Sentinel-6MF</text><g class="layers" style="opacity: 1;"><g class="legendfill"/><g class="legendlines"><path class="js-line" d="M5,0h30" style="fill: none; stroke: rgb(171, 99, 250); stroke-opacity: 1; stroke-width: 2px;"/></g><g class="legendsymbols"><g class="legendpoints"/></g></g><rect class="legendtoggle" x="0" y="-9.5" width="133.84375" height="19" style="fill: rgb(0, 0, 0); fill-opacity: 0;"/></g><g class="traces" transform="translate(0,90.5)" style="opacity: 1;"><text class="legendtext" text-anchor="start" x="40" y="4.680000000000001" style="font-family: 'Open Sans', verdana, arial, sans-serif; font-size: 12px; fill: rgb(42, 63, 95); fill-opacity: 1; white-space: pre;">TOPEX.Poseidon</text><g class="layers" style="opacity: 1;"><g class="legendfill"/><g class="legendlines"><path class="js-line" d="M5,0h30" style="fill: none; stroke: rgb(255, 161, 90); stroke-opacity: 1; stroke-width: 2px;"/></g><g class="legendsymbols"><g class="legendpoints"/></g></g><rect class="legendtoggle" x="0" y="-9.5" width="133.84375" height="19" style="fill: rgb(0, 0, 0); fill-opacity: 0;"/></g></g></g><rect class="scrollbar" rx="20" ry="3" width="0" height="0" x="0" y="0" style="fill: rgb(128, 139, 164); fill-opacity: 1;"/></g><g class="g-gtitle"><text class="gtitle" x="35" y="50" text-anchor="start" dy="0em" style="font-family: 'Open Sans', verdana, arial, sans-serif; font-size: 17px; fill: rgb(42, 63, 95); opacity: 1; font-weight: normal; white-space: pre;">Mean Sea Levels Changing - Pacific Ocean</text></g><g class="g-xtitle"><text class="xtitle" x="310" y="460.3" text-anchor="middle" style="font-family: 'Open Sans', verdana, arial, sans-serif; font-size: 14px; fill: rgb(42, 63, 95); opacity: 1; font-weight: normal; white-space: pre;">Date</text></g><g class="g-ytitle"><text class="ytitle" transform="rotate(-90,34.340625,260)" x="34.340625" y="260" text-anchor="middle" style="font-family: 'Open Sans', verdana, arial, sans-serif; font-size: 14px; fill: rgb(42, 63, 95); opacity: 1; font-weight: normal; white-space: pre;">Change in Sea Level [mm]</text></g></g></svg>