<svg class="main-svg" xmlns="http://www.w3.org/2000/svg" xmlns:xlink="http://www.w3.org/1999/xlink" width="700" height="500" style="" viewBox="0 0 700 500"><rect x="0" y="0" width="700" height="500" style="fill: rgb(255, 255, 255); fill-opacity: 1;"/><defs id="defs-679dfe"><g class="clips"><clipPath id="clip679dfexyplot" class="plotclip"><rect width="460" height="320"/></clipPath><clipPath class="axesclip" id="clip679dfex"><rect x="80" y="0" width="460" height="500"/></clipPath><clipPath class="axesclip" id="clip679dfey"><rect x="0" y="100" width="700" height="320"/></clipPath><clipPath class="axesclip" id="clip679dfexy"><rect x="80" y="100" width="460" height="320"/></clipPath></g><g class="gradients"/><g class="patterns"/></defs><g class="bglayer"><rect class="bg" x="80" y="100" width="460" height="320" style="fill: rgb(229, 236, 246); fill-opacity: 1; stroke-width: 0;"/></g><g class="layer-below"><g class="imagelayer"/><g class="shapelayer"/></g><g class="cartesianlayer"><g class="subplot xy"><g class="layer-subplot"><g class="shapelayer"/><g class="imagelayer"/></g><g class="minor-gridlayer"><g class="x"/><g class="y"/></g><g class="gridlayer"><g class="x"><path class="xgrid crisp" transform="translate(110.13,0)" d="M0,100v320" style="stroke: rgb(255, 255, 255); stroke-opacity: 1; stroke-width: 1px;"/><path class="xgrid crisp" transform="translate(183.86,0)" d="M0,100v320" style="stroke: rgb(255, 255, 255); stroke-opacity: 1; stroke-width: 1px;"/><path class="xgrid crisp" transform="translate(257.64,0)" d="M0,100v320" style="stroke: rgb(255, 255, 255); stroke-opacity: 1; stroke-width: 1px;"/><path class="xgrid crisp" transform="translate(331.38,0)" d="M0,100v320" style="stroke: rgb(255, 255, 255); stroke-opacity: 1; stroke-width: 1px;"/><path class="xgrid crisp" transform="translate(405.12,0)" d="M0,100v320" style="stroke: rgb(255, 255, 255); stroke-opacity: 1; stroke-width: 1px;"/><path class="xgrid crisp" transform="translate(478.86,0)" d="M0,100v320" style="stroke: rgb(255, 255, 255); stroke-opacity: 1; stroke-width: 1px;"/></g><g class="y"><path class="ygrid crisp" transform="translate(0,368.57)" d="M80,0h460" style="stroke: rgb(255, 255, 255); stroke-opacity: 1; stroke-width: 1px;"/><path class="ygrid crisp" transform="translate(0,238.16)" d="M80,0h460" style="stroke: rgb(255, 255, 255); stroke-opacity: 1; stroke-width: 1px;"/><path class="ygrid crisp" transform="translate(0,172.95999999999998)" d="M80,0h460" style="stroke: rgb(255, 255, 255); stroke-opacity: 1; stroke-width: 1px;"/><path class="ygrid crisp" transform="translate(0,107.76)" d="M80,0h460" style="stroke: rgb(255, 255, 255); stroke-opacity: 1; stroke-width: 1px;"/></g></g><g class="zerolinelayer"><path class="yzl zl crisp" transform="translate(0,303.37)" d="M80,0h460" style="stroke: rgb(255, 255, 255); stroke-opacity: 1; stroke-width: 2px;"/></g><g class="layer-between"><g class="shapelayer"/><g class="imagelayer"/></g><path class="xlines-below"/><path class="ylines-below"/><g class="overlines-below"/><g class="xaxislayer-below"/><g class="yaxislayer-below"/><g class="overaxes-below"/><g class="plot" transform="translate(80,100)" clip-path="url(#clip679dfexyplot)"><g class="scatterlayer mlayer"><g class="trace scatter trace0220bb" style="stroke-miterlimit: 2; opacity: 1;"><g class="fills"/><g class="errorbars"/><g class="lines"><path class="js-line" d="M134.15,214.67L134.51,253.4L134.96,209.33L135.32,215.72L135.73,244.67L136.13,224.32L136.53,239.19L136.98,229.8L137.38,192.76L137.79,236.45L138.55,266.7L138.96,263.57L139.36,263.05L140.94,181.29L141.34,168.77L141.74,161.47L142.11,201.76L142.95,154.16L143.36,186.9L144.53,219.5L144.93,194.98L145.34,150.77L145.74,156.51L146.15,145.56L146.51,164.21L146.95,125.08L147.76,216.76L148.12,137.08L148.53,176.46L148.97,159.77L149.34,135.91L150.18,203.33L150.55,196.94L150.95,203.98L151.35,283L151.8,274.53L152.2,238.28L152.97,266.96L153.37,231.49L153.74,215.06L154.14,238.15L154.95,230.58L155.35,234.1L156.16,176.72L156.56,179.59L156.97,206.85L157.78,161.6L158.18,181.55L158.95,145.56L159.35,174.51L159.75,176.59L160.16,122.08L160.56,207.89L160.93,202.81L161.53,221.06L162.14,265.27L162.54,192.11L163.75,142.69L164.16,186.5L164.52,238.93L165.04,178.81L165.37,180.12L165.77,209.59L166.98,264.75L167.39,240.23L167.79,194.46L168.15,199.15L168.56,208.28L169.37,221.84L169.77,193.81L170.17,202.41L170.58,148.43L170.98,156.77L171.38,200.85L172.6,138.52L173,177.38L173.4,145.69L173.81,188.2L174.21,223.54L174.57,167.86L174.98,213.63L175.38,176.46L175.79,218.85L176.59,230.97L177,91.18L177.81,222.76L178.17,147.51L178.57,168.77L179.02,135.26L179.78,234.23L180.19,212.98L180.63,241.93L181.04,218.45L181.4,252.75L181.8,242.06L182.21,187.94L182.61,173.99L183.01,229.8L183.42,229.02L183.82,187.68L184.19,219.76L184.59,205.41L184.99,173.2L185.4,191.59L185.8,169.55L186.2,223.02L186.61,190.81L187.01,183.38L187.42,172.68L187.82,136.43L188.67,218.58L188.99,206.85L189.4,211.93L189.8,234.1L190.2,114.52L190.61,75.14L191.01,159.25L191.41,76.44L191.82,129.13L192.18,116.22L193.8,186.64L194.2,251.71L195.01,304L195.41,287.83L195.82,277.27L197.03,188.85L197.43,240.23L198.2,201.11L198.6,212.85L199.01,233.06L199.41,216.89L199.81,184.94L200.22,176.33L200.62,190.94L201.39,162.51L201.79,228.1L202.2,187.29L202.6,192.5L203,186.5L203.41,180.38L203.81,149.73L204.22,248.84L204.5,187.55L205.47,188.33L205.83,210.5L206.19,196.81L206.6,194.2L207.41,176.72L207.81,205.8L208.62,248.19L208.98,236.71L209.42,253.79L209.83,198.11L210.23,156.51L210.6,235.93L211.04,230.19L211.44,182.07L211.85,205.8L212.21,201.5L212.62,187.29L213.42,230.32L213.83,216.11L214.23,234.36L214.63,186.24L215.81,163.42L216.21,192.37L216.61,155.99L217.02,156.51L217.42,207.76L217.82,199.02L218.23,156.64L219.04,211.8L219.44,209.46L219.8,171.9L220.21,219.37L220.61,159.77L221.42,208.02L221.82,188.2L222.23,190.55L222.59,174.38L223.44,227.84L223.8,201.5L224.25,199.94L224.65,203.46L225.05,201.89L225.46,197.2L226.22,211.8L226.63,256.92L228.24,170.73L228.65,236.84L230.26,182.46L230.59,192.24L231.84,157.95L232.24,196.94L232.65,142.82L233.05,152.08L233.45,184.68L234.26,133.17L234.66,196.42L235.07,193.29L235.47,102.26L236.28,225.89L236.64,163.81L237.05,165.38L237.49,187.68L238.5,203.59L238.86,263.05L239.31,266.83L239.71,226.28L240.08,214.93L240.48,234.89L240.88,226.93L241.29,259.01L241.69,272.31L242.09,222.76L242.46,225.63L242.9,249.88L243.67,218.32L244.07,226.8L244.48,200.2L244.88,204.5L245.28,199.68L246.09,161.73L246.46,180.38L247.47,79.05L247.67,100.05L248.07,152.86L248.48,141.25L248.88,206.46L249.69,222.24L250.09,122.22L250.9,146.21L251.3,131.21L251.67,106.57L252.07,141.12L252.51,167.07L252.88,98.48L253.28,184.16L253.68,142.43L254.09,169.29L254.49,229.54L254.9,178.03L256.11,238.8L256.51,191.85L257.68,207.63L258.09,226.54L259.3,179.07L259.66,196.55L260.11,213.11L260.51,167.99L261.28,231.23L261.68,186.11L262.49,146.08L262.89,184.03L263.7,214.93L264.1,139.04L264.51,108.78L264.87,156.12L265.31,181.16L265.68,163.03L266.08,117.39L266.49,160.68L266.89,60.4L268.06,248.19L268.5,240.49L268.87,231.36L269.31,235.28L269.72,202.81L270.12,209.06L270.48,205.28L270.93,208.67L271.29,196.42L271.7,248.19L272.5,177.64L272.91,212.85L273.31,207.11L273.67,217.93L274.48,229.54L274.89,167.2L275.29,169.55L275.69,194.2L276.1,199.81L276.5,184.81L276.9,170.86L277.27,188.98L277.71,169.81L278.08,197.07L278.48,189.5L278.88,209.06L279.29,194.72L279.69,206.33L280.09,200.98L280.5,157.82L280.9,166.16L281.31,178.55L281.71,128.6L282.07,185.59L282.48,202.68L282.72,193.55L283.33,186.37L286.23,242.84L286.68,209.2L287.12,230.19L287.57,202.81L288.66,183.11L289.06,184.03L289.5,133.56L289.79,136.17L290.11,179.2L290.96,157.16L291.44,167.6L292.45,108.13L292.9,164.73L293.5,131.34L293.95,139.95L294.39,170.33L294.83,103.96L295.12,186.5L295.44,232.54L295.84,196.55L296.33,125.21L298.83,279.09L298.95,217.15L299.28,221.06L299.72,193.94L300.17,167.47L300.45,171.51L300.77,198.89L301.62,217.8L302.06,214.93L302.39,245.19L302.51,250.93" style="vector-effect: none; fill: none; stroke: rgb(99, 110, 250); stroke-opacity: 1; stroke-width: 2px; opacity: 1;"/></g><g class="points"/><g class="text"/></g><g class="trace scatter trace2cee51" style="stroke-miterlimit: 2; opacity: 1;"><g class="fills"/><g class="errorbars"/><g class="lines"><path class="js-line" d="M229.5,208.45L230.22,159.41L230.67,165.68L231.07,175.33L231.84,133.34L232.24,171.03L232.65,136.06L233.05,157.71L233.45,199.45L234.26,151.84L234.66,201.41L235.07,213.26L235.47,112.47L236.24,230.22L236.64,182.11L237.09,182.36L237.49,202.19L238.66,243.14L239.03,238.58L239.47,240.65L239.87,198.67L241.09,251.73L241.45,195.27L241.85,228.65L242.26,216.13L242.66,216.26L243.06,225.91L243.47,197.22L243.87,203.35L244.28,201.41L244.68,177.14L245.08,167.62L245.49,173.23L245.85,146.25L246.25,136.72L246.66,174.42L247.47,88.73L247.87,128.5L248.68,169.07L249.08,241.71L249.48,228.27L249.85,168.42L250.25,147.02L250.66,169.98L251.87,138.42L252.27,193.83L253.04,144.02L253.48,182.5L253.85,153.55L254.29,246.79L255.06,184.44L255.5,211.05L257.48,173.37L257.88,187.44L258.29,200.76L258.65,187.33L259.46,146.11L259.86,202.19L260.67,169.33L261.07,195.27L261.48,196.98L261.88,183.41L262.69,152.1L263.09,183.92L263.86,212.1L264.26,135.54L265.48,198.67L265.88,139.59L266.28,159.15L266.69,142.71L267.05,70.87L267.86,235.71L268.26,228.14L268.67,233.1L269.07,228.91L269.47,200.89L269.88,193.59L270.28,214.83L270.69,201.41L271.09,223.04L271.49,222.26L271.9,209.74L272.7,167.77L273.07,194.62L273.88,174.94L274.28,196.7L274.68,166.46L275.09,166.85L275.49,185.75L276.66,162.67L277.07,186.92L277.47,164.24L277.87,197.22L278.28,217.7L278.68,203.11L279.09,205.57L279.49,222.54L279.89,192.79L280.3,196.45L280.66,157.99L281.1,184.57L281.47,162.67L281.87,119.25L282.28,228.8L282.68,195.15L283.08,203.61L284.7,255.65L285.1,218.09L285.51,218.74L285.91,198.92L286.31,229.97L286.72,192.79L287.12,210.02L287.48,193.7L287.89,190.05L288.7,161.62L289.1,183.53L289.5,133.34L289.91,158.75L290.31,170.76L290.72,156.16L291.12,159.41L291.52,162.29L292.33,108.94L292.73,142.98L293.1,145.19L293.5,119.76L294.31,153.93L294.71,83.65L295.52,221.61L295.92,191.23L296.33,130.46L296.73,148.71L297.1,208.84L297.54,181.46L297.9,212.76L298.31,259.82L298.75,247.04L299.07,214.96L299.6,172.33L299.96,191.36L300.33,179.36L301.54,200.63L301.94,193.33L302.31,215.87L302.71,164.62L303.52,209.74L303.92,157.84L304.32,163.07L304.73,161.36L305.13,143.24L305.5,144.42L306.02,160.71L306.34,205.84L306.75,122.12L307.11,151.97L307.51,144.54L307.92,145.73L308.32,183.14L308.73,140.5L309.53,159.02L309.94,102.43L310.34,172.84L310.75,166.59L311.11,150.8L312.32,208.45L312.72,213.52L313.13,150.67L313.53,218.74L313.94,203.61L314.34,148.58L315.55,164.11L315.91,135.29L316.72,195.54L317.13,147.15L317.53,143.63L317.93,187.7L319.14,131.76L319.55,144.67L320.36,89.38L320.72,114.95L321.12,124.98L321.53,96.94L321.93,68.92L322.34,125.38L322.74,159.15L323.14,156.41L323.55,122.89L324.31,88.09L324.76,96.83L325.12,85.09L325.53,124.46L325.93,103.08L326.33,123.41L326.74,102.43L327.1,118.21L327.54,169.84L328.35,135.29L328.76,190.44L329.16,178.85L329.56,140.11L329.93,147.02L330.33,138.54L330.73,162.16L331.14,153.67L331.54,151.45L332.75,140.89L333.12,106.21L333.97,135.02L334.33,89.91L334.73,73.22L335.14,79.87L335.54,85.48L335.94,76.61L336.35,83L336.75,138.15L337.16,116.26L337.56,131.89L337.92,137.63L338.33,113.78L338.73,138.54L339.13,161.88L339.54,150.28L339.94,149.37L340.35,129.02L340.71,129.67L341.11,151.73L341.92,161.1L342.37,187.18L343.98,128.5L344.38,141.15L344.75,157.33L345.15,126.54L345.56,157.19L345.96,150.67L346.36,107.11L347.17,139.98L347.57,120.55L348.34,123.41L348.79,97.74L349.55,72.05L349.96,100.74L350.76,90.3L351.53,150.93L351.81,119.52L352.18,176.89L353.39,97.09L353.79,149.63L354.2,139.85L354.6,150.28L355,163.07L355.37,132.02L355.81,170.76L356.22,86.65L356.62,156.03L357.02,103.61L357.43,140.5L357.63,176.63L358.32,85.35L358.6,152.1L359,145.32L359.41,127.2L359.81,128.24L360.09,136.32" style="vector-effect: none; fill: none; stroke: rgb(239, 85, 59); stroke-opacity: 1; stroke-width: 2px; opacity: 1;"/></g><g class="points"/><g class="text"/></g><g class="trace scatter tracec05f82" style="stroke-miterlimit: 2; opacity: 1;"><g class="fills"/><g class="errorbars"/><g class="lines"><path class="js-line" d="M341.64,140.28L341.92,136.62L342.37,148.36L342.73,149.14L343.17,116.02L343.58,113.54L343.98,119.15L344.75,142.49L345.15,114.98L345.96,149.14L346.36,106.76L347.17,154.1L347.57,129.58L347.98,131.02L348.34,123.19L349.55,66.34L350,109.5L350.76,74.81L351.17,133.23L351.57,84.2L351.98,99.33L352.38,165.71L353.55,72.07L354,132.06L355.21,98.16L355.61,127.37L356.38,60.6L356.78,132.06L357.63,110.02L357.99,135.84L358.4,109.63L358.8,153.84L359.61,115.5L359.97,141.06L360.38,184.87L360.78,155.53L361.18,150.71L361.59,170.01L361.99,151.75L362.8,92.42L363.2,95.68L363.61,122.41L364.01,73.9L364.37,110.67L364.78,131.15L365.18,88.37L365.59,91.11L365.99,128.28L366.8,118.76L367.2,147.84L367.6,134.67L368.01,192.05L368.41,167.66L368.78,83.81L369.22,95.55L369.58,156.84L369.99,149.4L370.39,113.02L372.41,239.65L372.81,175.49L373.22,201.83L373.62,200.65L374.03,174.57L374.43,158.79L374.79,161.66L375.2,189.57L376,131.93L376.41,149.8L377.98,131.15L378.39,87.98L379.19,129.06L379.6,81.2L380.41,160.62L380.81,123.98L381.21,84.85L381.62,95.03L382.02,110.28L382.38,57.86L382.79,104.15L383.19,119.02L383.6,101.15L384,28.52L384.4,129.45L384.81,47.17L385.21,105.2L386.22,214.61L386.87,179.27L387.92,142.36L388.4,142.49L388.81,140.41L389.21,143.41L390.42,185.79L390.78,159.05L391.23,159.97L391.59,137.02L392.4,183.44L392.8,168.05L393.61,84.2L394.01,113.41L394.42,96.2L395.19,173.53L395.59,141.19L395.99,126.84L396.4,73.64L396.8,75.07L397.2,95.55L397.61,158.92L398.01,152.53L398.42,164.53L398.82,75.46L399.22,109.37L399.59,158.14L399.95,130.89L400.27,48.08L401.65,175.22L402.05,149.01L402.41,185.66L402.82,174.96L403.22,182.01L403.63,169.62L404.03,194L404.43,114.98L404.84,126.97L405.24,120.72L406.41,139.62L406.82,125.02L407.26,139.1L407.62,137.54L408.03,139.49L408.84,98.29L409.24,101.68L409.64,126.71L410.45,54.21L410.81,68.81L411.26,55.64L412.07,233.26L412.47,193.48L412.87,96.59L413.64,154.36L414.04,109.5L414.45,127.5L414.85,102.07L415.3,85.38L415.66,134.02L416.47,186.31L416.87,145.62L417.28,150.58L417.68,139.88L418.08,141.97L418.49,187.74L418.85,193.87L419.25,176.53L419.66,158.53L420.06,164.79L420.47,172.23L420.87,112.24L421.27,146.27L421.68,135.58L422.04,77.03L422.44,106.24L422.85,104.94L423.25,99.2L423.66,107.94L424.06,113.28L424.46,92.29L424.87,101.02L425.27,189.05L425.67,180.7L426.04,125.41L426.44,135.71L426.85,75.33L427.25,71.03L427.65,125.67L428.06,108.07L428.46,132.32L429.23,47.56L429.67,73.64L430.08,16.26L430.44,57.08L430.84,166.62L431.25,117.32L431.65,174.44L432.06,193.48L433.06,184.74L433.35,178.75L433.75,133.89L434.56,163.36L434.96,140.28L435.37,137.54L435.77,140.41L436.54,117.98L436.94,118.5L438.15,96.46L438.56,107.81L439.36,81.33L439.77,111.2L440.17,95.16L440.58,124.76L440.94,163.75L441.34,153.19L441.75,81.46L442.55,191.92L442.96,16L443.77,98.29L444.17,55.64L446.59,243.3L447,219.43L448.17,137.8L448.57,119.15L449.38,153.45L449.78,127.24L450.55,150.97L450.95,121.24L452.97,85.77L453.38,94.5L453.78,65.03L454.18,76.77L454.55,76.77L454.95,46.91L456.16,127.37L456.57,78.2L456.97,117.06L457.38,84.59L458.18,152.66L458.59,127.76L458.99,82.38L459.35,128.67L460,206.13" style="vector-effect: none; fill: none; stroke: rgb(0, 204, 150); stroke-opacity: 1; stroke-width: 2px; opacity: 1;"/></g><g class="points"/><g class="text"/></g><g class="trace scatter trace35a23e" style="stroke-miterlimit: 2; opacity: 1;"><g class="fills"/><g class="errorbars"/><g class="lines"><path class="js-line" d="M413.28,136.98L413.64,149.5L414.04,106.2L414.45,124.72L414.85,114.42L415.3,85.6L416.47,170.49L416.91,162.15L417.28,173.88L417.68,144.54L418.08,127.07L418.49,179.36L418.85,193.31L419.25,179.23L419.66,161.1L420.06,174.66L420.47,189.66L420.83,123.81L421.23,147.28L421.68,142.71L422.04,93.42L422.44,115.85L422.85,108.81L423.25,108.42L423.66,126.94L424.46,85.47L424.87,90.16L425.27,165.93L425.67,177.66L426.04,120.42L426.44,130.2L426.85,69.3L427.25,67.08L427.65,122.76L428.06,104.9L428.46,122.24L429.23,38.52L429.67,60.43L430.04,17.4L430.44,50.52L430.84,153.41L431.25,122.24L431.65,174.79L432.06,178.58L432.46,134.76L432.86,191.36L433.27,162.15L433.67,137.76L434.88,186.4L435.29,157.19L435.65,149.63L436.05,150.54L436.46,102.81L437.26,134.5L437.67,123.28L438.07,82.34L438.88,102.68L439.28,63.17L440.05,118.98L440.45,113.11L440.86,135.67L441.26,157.45L441.67,70.6L442.47,178.32L442.88,45.56L443.64,98.9L444.09,37.35L445.66,180.14L446.11,136.98L446.47,238.04L446.88,219.65L447.28,167.75L448.85,120.68L449.26,171.66L450.07,128.63L450.47,176.36L451.28,98.9L451.68,123.81L452.08,134.24L452.89,85.73L453.26,110.11L453.66,57.69L454.06,77.25L454.47,90.55L454.87,52.21L455.28,88.47L455.68,127.98L456.08,114.16L456.49,75.03L456.89,88.6" style="vector-effect: none; fill: none; stroke: rgb(171, 99, 250); stroke-opacity: 1; stroke-width: 2px; opacity: 1;"/></g><g class="points"/><g class="text"/></g><g class="trace scatter trace9f4526" style="stroke-miterlimit: 2; opacity: 1;"><g class="fills"/><g class="errorbars"/><g class="lines"><path class="js-line" d="M0,190.18L0.4,252.12L0.81,249L1.21,252.91L1.57,253.95L2.06,248.34L2.83,189.79L3.19,214.44L3.63,178.58L4.04,226.96L5.61,250.95L6.02,255.91L6.82,236.48L7.23,258.38L8,234.52L8.4,240.91L9.21,222.52L9.61,232.96L10.01,232.43L10.42,178.45L11.23,241.3L11.63,208.83L12.4,246.13L13.21,228.52L14.42,283.55L14.82,179.23L16.4,236.61L16.8,269.86L17.61,194.36L18.05,201.4L18.78,262.3L19.22,219L19.63,249.13L20.03,265.56L20.43,294.38L20.84,270.51L21.2,267.64L21.6,283.68L22.01,252.91L22.82,231.13L23.22,250.56L23.62,212.09L24.03,251.21L24.43,243.13L24.84,175.71L25.6,171.8L26.01,177.01L26.41,181.05L26.81,208.57L27.22,213.92L27.62,177.14L28.43,267.12L28.83,232.04L29.24,233.35L30,199.83L30.45,219.13L32.06,111.16L32.43,197.35L33.24,227.09L33.64,290.72L34.45,219.39L34.81,235.56L35.62,235.17L36.02,211.96L36.43,245.34L36.83,229.04L37.23,205.44L38.04,184.18L38.44,199.31L38.81,258.65L39.21,225.91L39.62,185.36L40.02,195.79L40.42,175.45L40.83,160.58L41.23,171.01L41.63,228.52L43.21,122.76L44.02,135.67L44.42,176.88L44.82,126.28L45.23,100.2L45.63,180.53L46.44,145.06L47.25,220.57L47.61,199.44L48.02,260.6L49.23,206.87L49.63,194.36L50.44,174.27L50.84,252.52L51.25,204.01L52.05,237.78L52.86,173.23L53.26,196.18L53.67,182.23L54.88,196.44L55.24,131.5L55.69,112.33L56.05,125.11L56.86,165.8L57.67,209.61L58.07,200.22L58.47,176.1L58.88,224.35L59.69,118.85L60.09,179.88L60.86,127.07L61.66,210.4L62.07,157.97L62.47,234.13L63.68,178.05L64.09,197.22L64.49,214.57L64.9,200.88L65.3,201.27L65.66,164.75L66.47,244.17L67.28,154.58L67.68,168.14L68.09,190.44L68.89,127.85L69.3,157.97L69.7,168.01L70.06,150.15L71.28,111.94L71.68,112.46L72.89,228L73.25,188.49L74.1,146.37L74.47,165.41L74.87,146.24L75.68,184.71L76.08,190.44L76.44,154.71L77.7,207.27L78.1,233.61L78.5,260.34L78.87,229.3L79.31,210.92L79.68,229.43L80.48,200.09L80.89,209.61L81.29,227.74L81.69,234.39L82.1,231.26L82.5,217.44L83.27,161.75L83.67,195.14L84.88,228.91L85.29,190.31L85.69,177.66L86.5,239.61L87.27,217.96L87.67,180.79L88.07,200.35L88.48,176.62L88.88,188.23L89.29,172.19L89.65,136.72L90.46,232.43L90.9,289.03L91.27,266.73L91.71,256.17L92.84,218.48L93.28,252.52L94.09,215.35L94.5,226.3L94.9,216.92L95.26,221.61L95.67,241.69L96.07,210.4L96.47,227.74L96.88,213.26L97.28,230.09L97.69,224.74L98.09,203.09L98.49,206.61L99.3,180.66L99.71,213.26L100.11,171.01L100.47,178.58L100.88,167.23L101.28,159.54L101.68,225.26L102.09,224.48L102.49,203.74L103.3,96.29L103.7,127.98L104.11,129.67L105.28,235.82L105.72,206.61L106.09,205.18L106.49,220.05L107.34,201.4L108.15,210L108.55,199.57L108.91,226.83L109.32,236.22L109.72,203.09L110.12,237.13L110.53,192.92L110.93,195.92L111.34,189.14L112.55,203.22L112.91,172.58L113.31,173.49L113.72,151.58L114.12,213.52L114.53,195.27L114.93,169.71L115.33,174.4L115.74,191.36L116.54,207.53L116.95,250.43L117.72,155.49L118.12,196.96L118.93,141.67L119.69,275.6L121.31,193.57L121.79,214.96L122.16,166.45L122.52,233.87L123.77,286.81L124.14,218.87L124.58,234.13L124.94,216.39L125.71,193.18L126.16,209.48L126.56,231L126.92,218.87L127.33,181.18L127.73,202.05L128.13,187.97L128.54,174.79L129.35,234L129.75,172.97L131.32,227.35L131.77,220.31L132.13,135.54L132.74,110.9L132.94,201.14L133.34,141.02L133.71,150.02L134.11,218.22L134.51,239.08L134.96,195.53L135.73,230.22L136.13,204.4L136.53,258.91L136.98,237.52L137.34,196.96L138.55,271.69L138.96,264.9L139.36,268.82L139.72,237.78L141.34,183.66L141.74,174.4L142.15,214.96L142.55,183.01L143,173.88L143.36,161.1L143.76,185.49L144.17,177.79L144.57,211.96L145.38,135.8L145.78,152.36L146.15,138.28L146.55,142.58L146.95,127.46L147.76,218.48L148.12,144.93L148.57,189.14L148.97,157.97L149.38,127.33L150.18,189.01L150.59,188.36L150.99,204.4L151.35,252.52L151.8,248.47L152.16,233.74L152.97,274.55L153.37,222.39L153.78,227.35L154.18,244.17L154.99,218.22L155.39,236.22L156.16,175.71L156.69,193.18L156.97,193.05L157.37,180.66L157.78,144.67L158.18,174.92L158.58,162.28L158.99,144.15L159.39,181.45L160.16,121.46L160.56,200.48L160.97,204.27L161.53,256.43L161.69,246.39L162.18,262.3L162.58,176.1L162.98,161.88L163.35,175.84L163.75,148.71L164.16,194.22L164.56,220.83L165,191.1L165.37,149.63L165.81,199.18L166.98,293.2L167.39,242.74L168.19,194.75L168.6,209.61L169.81,203.22L170.21,236.87L171.02,168.01L171.38,201.14L171.79,196.83L172.19,163.71L172.6,135.41L173,174.53L173.4,157.06L173.81,212.35L174.21,216.92L174.62,177.01L175.83,225.65L176.19,221.35L176.63,211.44L176.96,71.64L177.81,238.3L178.21,156.67L178.61,182.75L179.02,138.8L180.19,234.39L180.63,260.99L181.04,229.56L181.4,257.73L181.84,237.13L182.21,191.75L182.61,206.48L183.01,239.87L183.42,252.12L183.82,206.87L184.23,233.22L184.63,218.22L185.03,198.53L185.44,221.35L185.8,189.27L186.25,210.66L186.61,184.84L187.01,172.58L187.42,185.49L187.82,167.88L188.22,193.96L188.63,220.44" style="vector-effect: none; fill: none; stroke: rgb(255, 161, 90); stroke-opacity: 1; stroke-width: 2px; opacity: 1;"/></g><g class="points"/><g class="text"/></g></g></g><g class="overplot"/><path class="xlines-above crisp" d="M0,0" style="fill: none;"/><path class="ylines-above crisp" d="M0,0" style="fill: none;"/><g class="overlines-above"/><g class="xaxislayer-above"><g class="xtick"><text text-anchor="middle" x="0" y="433" transform="translate(110.13,0)" style="font-family: 'Open Sans', verdana, arial, sans-serif; font-size: 12px; fill: rgb(42, 63, 95); fill-opacity: 1; white-space: pre; opacity: 1;">1995</text></g><g class="xtick"><text text-anchor="middle" x="0" y="433" style="font-family: 'Open Sans', verdana, arial, sans-serif; font-size: 12px; fill: rgb(42, 63, 95); fill-opacity: 1; white-space: pre; opacity: 1;" transform="translate(183.86,0)">2000</text></g><g class="xtick"><text text-anchor="middle" x="0" y="433" style="font-family: 'Open Sans', verdana, arial, sans-serif; font-size: 12px; fill: rgb(42, 63, 95); fill-opacity: 1; white-space: pre; opacity: 1;" transform="translate(257.64,0)">2005</text></g><g class="xtick"><text text-anchor="middle" x="0" y="433" style="font-family: 'Open Sans', verdana, arial, sans-serif; font-size: 12px; fill: rgb(42, 63, 95); fill-opacity: 1; white-space: pre; opacity: 1;" transform="translate(331.38,0)">2010</text></g><g class="xtick"><text text-anchor="middle" x="0" y="433" style="font-family: 'Open Sans', verdana, arial, sans-serif; font-size: 12px; fill: rgb(42, 63, 95); fill-opacity: 1; white-space: pre; opacity: 1;" transform="translate(405.12,0)">2015</text></g><g class="xtick"><text text-anchor="middle" x="0" y="433" style="font-family: 'Open Sans', verdana, arial, sans-serif; font-size: 12px; fill: rgb(42, 63, 95); fill-opacity: 1; white-space: pre; opacity: 1;" transform="translate(478.86,0)">2020</text></g></g><g class="yaxislayer-above"><g class="ytick"><text text-anchor="end" x="79" y="4.199999999999999" transform="translate(0,368.57)" style="font-family: 'Open Sans', verdana, arial, sans-serif; font-size: 12px; fill: rgb(42, 63, 95); fill-opacity: 1; white-space: pre; opacity: 1;">−50</text></g><g class="ytick"><text text-anchor="end" x="79" y="4.199999999999999" style="font-family: 'Open Sans', verdana, arial, sans-serif; font-size: 12px; fill: rgb(42, 63, 95); fill-opacity: 1; white-space: pre; opacity: 1;" transform="translate(0,303.37)">0</text></g><g class="ytick"><text text-anchor="end" x="79" y="4.199999999999999" style="font-family: 'Open Sans', verdana, arial, sans-serif; font-size: 12px; fill: rgb(42, 63, 95); fill-opacity: 1; white-space: pre; opacity: 1;" transform="translate(0,238.16)">50</text></g><g class="ytick"><text text-anchor="end" x="79" y="4.199999999999999" style="font-family: 'Open Sans', verdana, arial, sans-serif; font-size: 12px; fill: rgb(42, 63, 95); fill-opacity: 1; white-space: pre; opacity: 1;" transform="translate(0,172.95999999999998)">100</text></g><g class="ytick"><text text-anchor="end" x="79" y="4.199999999999999" style="font-family: 'Open Sans', verdana, arial, sans-serif; font-size: 12px; fill: rgb(42, 63, 95); fill-opacity: 1; white-space: pre; opacity: 1;" transform="translate(0,107.76)">150</text></g></g><g class="overaxes-above"/></g></g><g class="polarlayer"/><g class="smithlayer"/><g class="ternarylayer"/><g class="geolayer"/><g class="funnelarealayer"/><g class="pielayer"/><g class="iciclelayer"/><g class="treemaplayer"/><g class="sunburstlayer"/><g class="glimages"/><defs id="topdefs-679dfe"><g class="clips"/><clipPath id="legend679dfe"><rect width="139" height="105" x="0" y="0"/></clipPath></defs><g class="layer-above"><g class="imagelayer"/><g class="shapelayer"/></g><g class="infolayer"><g class="legend" pointer-events="all" transform="translate(549.2,100)"><rect class="bg" shape-rendering="crispEdges" width="139" height="105" x="0" y="0" style="stroke: rgb(68, 68, 68); stroke-opacity: 1; fill: rgb(255, 255, 255); fill-opacity: 1; stroke-width: 0px;"/><g class="scrollbox" transform="" clip-path="url(#legend679dfe)"><g class="groups"><g class="traces" transform="translate(0,14.5)" style="opacity: 1;"><text class="legendtext" text-anchor="start" x="40" y="4.680000000000001" style="font-family: 'Open Sans', verdana, arial, sans-serif; font-size: 12px; fill: rgb(42, 63, 95); fill-opacity: 1; white-space: pre;">Jason.1</text><g class="layers" style="opacity: 1;"><g class="legendfill"/><g class="legendlines"><path class="js-line" d="M5,0h30" style="fill: none; stroke: rgb(99, 110, 250); stroke-opacity: 1; stroke-width: 2px;"/></g><g class="legendsymbols"><g class="legendpoints"/></g></g><rect class="legendtoggle" x="0" y="-9.5" width="133.84375" height="19" style="fill: rgb(0, 0, 0); fill-opacity: 0;"/></g><g class="traces" transform="translate(0,33.5)" style="opacity: 1;"><text class="legendtext" text-anchor="start" x="40" y="4.680000000000001" style="font-family: 'Open Sans', verdana, arial, sans-serif; font-size: 12px; fill: rgb(42, 63, 95); fill-opacity: 1; white-space: pre;">Jason.2</text><g class="layers" style="opacity: 1;"><g class="legendfill"/><g class="legendlines"><path class="js-line" d="M5,0h30" style="fill: none; stroke: rgb(239, 85, 59); stroke-opacity: 1; stroke-width: 2px;"/></g><g class="legendsymbols"><g class="legendpoints"/></g></g><rect class="legendtoggle" x="0" y="-9.5" width="133.84375" height="19" style="fill: rgb(0, 0, 0); fill-opacity: 0;"/></g><g class="traces" transform="translate(0,52.5)" style="opacity: 1;"><text class="legendtext" text-anchor="start" x="40" y="4.680000000000001" style="font-family: 'Open Sans', verdana, arial, sans-serif; font-size: 12px; fill: rgb(42, 63, 95); fill-opacity: 1; white-space: pre;">Jason.3</text><g class="layers" style="opacity: 1;"><g class="legendfill"/><g class="legendlines"><path class="js-line" d="M5,0h30" style="fill: none; stroke: rgb(0, 204, 150); stroke-opacity: 1; stroke-width: 2px;"/></g><g class="legendsymbols"><g class="legendpoints"/></g></g><rect class="legendtoggle" x="0" y="-9.5" width="133.84375" height="19" style="fill: rgb(0, 0, 0); fill-opacity: 0;"/></g><g class="traces" transform="translate(0,71.5)" style="opacity: 1;"><text class="legendtext" text-anchor="start" x="40" y="4.680000000000001" style="font-family: 'Open Sans', verdana, arial, sans-serif; font-size: 12px; fill: rgb(42, 63, 95); fill-opacity: 1; white-space: pre;">Sentinel-6MF</text><g class="layers" style="opacity: 1;"><g class="legendfill"/><g class="legendlines"><path class="js-line" d="M5,0h30" style="fill: none; stroke: rgb(171, 99, 250); stroke-opacity: 1; stroke-width: 2px;"/></g><g class="legendsymbols"><g class="legendpoints"/></g></g><rect class="legendtoggle" x="0" y="-9.5" width="133.84375" height="19" style="fill: rgb(0, 0, 0); fill-opacity: 0;"/></g><g class="traces" transform="translate(0,90.5)" style="opacity: 1;"><text class="legendtext" text-anchor="start" x="40" y="4.680000000000001" style="font-family: 'Open Sans', verdana, arial, sans-serif; font-size: 12px; fill: rgb(42, 63, 95); fill-opacity: 1; white-space: pre;">TOPEX.Poseidon</text><g class="layers" style="opacity: 1;"><g class="legendfill"/><g class="legendlines"><path class="js-line" d="M5,0h30" style="fill: none; stroke: rgb(255, 161, 90); stroke-opacity: 1; stroke-width: 2px;"/></g><g class="legendsymbols"><g class="legendpoints"/></g></g><rect class="legendtoggle" x="0" y="-9.5" width="133.84375" height="19" style="fill: rgb(0, 0, 0); fill-opacity: 0;"/></g></g></g><rect class="scrollbar" rx="20" ry="3" width="0" height="0" x="0" y="0" style="fill: rgb(128, 139, 164); fill-opacity: 1;"/></g><g class="g-gtitle"><text class="gtitle" x="35" y="50" text-anchor="start" dy="0em" style="font-family: 'Open Sans', verdana, arial, sans-serif; font-size: 17px; fill: rgb(42, 63, 95); opacity: 1; font-weight: normal; white-space: pre;">Mean Sea Levels Changing - Sea Okhotsk</text></g><g class="g-xtitle"><text class="xtitle" x="310" y="460.3" text-anchor="middle" style="font-family: 'Open Sans', verdana, arial, sans-serif; font-size: 14px; fill: rgb(42, 63, 95); opacity: 1; font-weight: normal; white-space: pre;">Date</text></g><g class="g-ytitle"><text class="ytitle" transform="rotate(-90,34.340625,260)" x="34.340625" y="260" text-anchor="middle" style="font-family: 'Open Sans', verdana, arial, sans-serif; font-size: 14px; fill: rgb(42, 63, 95); opacity: 1; font-weight: normal; white-space: pre;">Change in Sea Level [mm]</text></g></g></svg>