<svg class="main-svg" xmlns="http://www.w3.org/2000/svg" xmlns:xlink="http://www.w3.org/1999/xlink" width="700" height="500" style="" viewBox="0 0 700 500"><rect x="0" y="0" width="700" height="500" style="fill: rgb(255, 255, 255); fill-opacity: 1;"/><defs id="defs-acfcd4"><g class="clips"><clipPath id="clipacfcd4xyplot" class="plotclip"><rect width="460" height="320"/></clipPath><clipPath class="axesclip" id="clipacfcd4x"><rect x="80" y="0" width="460" height="500"/></clipPath><clipPath class="axesclip" id="clipacfcd4y"><rect x="0" y="100" width="700" height="320"/></clipPath><clipPath class="axesclip" id="clipacfcd4xy"><rect x="80" y="100" width="460" height="320"/></clipPath></g><g class="gradients"/><g class="patterns"/></defs><g class="bglayer"><rect class="bg" x="80" y="100" width="460" height="320" style="fill: rgb(229, 236, 246); fill-opacity: 1; stroke-width: 0;"/></g><g class="layer-below"><g class="imagelayer"/><g class="shapelayer"/></g><g class="cartesianlayer"><g class="subplot xy"><g class="layer-subplot"><g class="shapelayer"/><g class="imagelayer"/></g><g class="minor-gridlayer"><g class="x"/><g class="y"/></g><g class="gridlayer"><g class="x"><path class="xgrid crisp" transform="translate(110.09,0)" d="M0,100v320" style="stroke: rgb(255, 255, 255); stroke-opacity: 1; stroke-width: 1px;"/><path class="xgrid crisp" transform="translate(183.82,0)" d="M0,100v320" style="stroke: rgb(255, 255, 255); stroke-opacity: 1; stroke-width: 1px;"/><path class="xgrid crisp" transform="translate(257.6,0)" d="M0,100v320" style="stroke: rgb(255, 255, 255); stroke-opacity: 1; stroke-width: 1px;"/><path class="xgrid crisp" transform="translate(331.34000000000003,0)" d="M0,100v320" style="stroke: rgb(255, 255, 255); stroke-opacity: 1; stroke-width: 1px;"/><path class="xgrid crisp" transform="translate(405.08,0)" d="M0,100v320" style="stroke: rgb(255, 255, 255); stroke-opacity: 1; stroke-width: 1px;"/><path class="xgrid crisp" transform="translate(478.82,0)" d="M0,100v320" style="stroke: rgb(255, 255, 255); stroke-opacity: 1; stroke-width: 1px;"/></g><g class="y"><path class="ygrid crisp" transform="translate(0,399.47)" d="M80,0h460" style="stroke: rgb(255, 255, 255); stroke-opacity: 1; stroke-width: 1px;"/><path class="ygrid crisp" transform="translate(0,361.03)" d="M80,0h460" style="stroke: rgb(255, 255, 255); stroke-opacity: 1; stroke-width: 1px;"/><path class="ygrid crisp" transform="translate(0,284.16999999999996)" d="M80,0h460" style="stroke: rgb(255, 255, 255); stroke-opacity: 1; stroke-width: 1px;"/><path class="ygrid crisp" transform="translate(0,245.74)" d="M80,0h460" style="stroke: rgb(255, 255, 255); stroke-opacity: 1; stroke-width: 1px;"/><path class="ygrid crisp" transform="translate(0,207.31)" d="M80,0h460" style="stroke: rgb(255, 255, 255); stroke-opacity: 1; stroke-width: 1px;"/><path class="ygrid crisp" transform="translate(0,168.88)" d="M80,0h460" style="stroke: rgb(255, 255, 255); stroke-opacity: 1; stroke-width: 1px;"/><path class="ygrid crisp" transform="translate(0,130.45)" d="M80,0h460" style="stroke: rgb(255, 255, 255); stroke-opacity: 1; stroke-width: 1px;"/></g></g><g class="zerolinelayer"><path class="yzl zl crisp" transform="translate(0,322.6)" d="M80,0h460" style="stroke: rgb(255, 255, 255); stroke-opacity: 1; stroke-width: 2px;"/></g><g class="layer-between"><g class="shapelayer"/><g class="imagelayer"/></g><path class="xlines-below"/><path class="ylines-below"/><g class="overlines-below"/><g class="xaxislayer-below"/><g class="yaxislayer-below"/><g class="overaxes-below"/><g class="plot" transform="translate(80,100)" clip-path="url(#clipacfcd4xyplot)"><g class="scatterlayer mlayer"><g class="trace scatter trace52bcc0" style="stroke-miterlimit: 2; opacity: 1;"><g class="fills"/><g class="errorbars"/><g class="lines"><path class="js-line" d="M134.11,223.8L134.92,186.71L135.32,197.66L135.73,189.4L136.13,224.18L136.94,265.68L137.34,241.86L137.75,243.01L138.11,222.64L138.51,240.32L138.92,235.71L139.32,233.59L140.13,252.81L140.53,288.94L142.15,203.43L142.51,204.39L142.91,205.16L143.72,165L144.13,176.14L144.53,194.01L144.93,161.54L145.34,181.91L145.74,184.4L146.15,215.72L146.51,214L146.91,193.82L147.32,192.09L147.72,210.54L148.12,211.5L148.53,207.85L148.93,197.47L149.34,226.1L149.74,206.12L150.14,210.73L150.55,220.72L150.95,201.7L151.31,206.69L151.72,228.21L152.2,223.6L152.53,231.29L152.93,189.4L153.33,205.73L153.74,227.25L154.14,215.92L154.54,229.18L155.35,207.65L155.72,207.85L156.12,203.04L156.52,208.61L156.93,182.87L157.33,188.05L157.74,203.81L159.35,145.4L159.75,149.82L160.52,140.4L160.88,159.04L161.73,178.64L162.14,171.53L162.94,196.7L163.35,180.18L164.48,206.31L165,198.82L165.33,224.95L165.73,210.34L166.13,194.59L166.94,236.86L167.35,235.52L167.75,219.18L168.15,224.37L168.56,247.62L168.96,227.83L169.37,228.02L169.77,226.49L170.17,205.35L170.58,218.03L170.98,224.56L172.15,178.45L172.56,194.78L174.17,130.02L174.57,149.43L174.98,160.96L175.38,142.9L177,189.02L177.4,164.04L177.76,181.33L178.17,161.35L178.57,165L178.98,196.51L179.78,210.15L180.19,190.55L180.59,193.24L181,182.67L181.4,198.24L181.76,191.71L182.17,184.21L182.57,183.44L182.97,221.87L184.19,187.09L184.59,190.94L184.99,193.43L185.4,170.38L185.8,189.4L186.2,208.23L186.97,163.46L187.38,187.48L187.78,184.02L188.1,170.57L188.67,136.17L188.99,162.31L189.4,174.8L189.8,167.69L190.2,140.78L190.61,175.95L190.97,160L191.37,152.7L192.59,209.96L192.99,195.36L193.39,188.82L193.8,191.51L194.2,203.23L194.6,203.04L194.97,220.14L195.37,223.8L195.78,214.38L196.18,204.77L196.58,227.25L197.39,209.58L197.79,190.94L198.2,189.21L198.6,204L199.01,208.42L199.37,201.51L199.77,201.89L200.18,193.63L200.58,178.64L200.98,187.29L201.39,210.73L202.6,143.09L203,149.62L203.41,146.36L203.81,128.1L205.43,172.3L205.79,170.57L206.19,162.88L207,171.34L207.41,184.21L207.81,182.29L208.17,193.24L208.58,196.89L208.98,212.84L211,186.33L211.4,219.76L211.81,210.73L212.21,233.02L213.38,189.02L213.79,219.95L214.19,191.32L214.59,191.51L215,195.93L215.4,193.43L215.81,196.12L216.21,186.33L216.61,194.97L218.19,140.21L218.59,134.64L219.8,188.25L220.21,161.15L220.61,161.35L221.01,166.15L221.78,196.51L222.19,191.32L222.59,179.6L222.99,182.1L223.4,193.82L224.21,222.64L224.61,203.43L225.01,203.81L225.42,211.69L226.63,184.21L226.91,203.04L227.44,206.89L227.8,197.28L228.2,215.34L228.61,196.32L229.01,170.38L229.41,174.8L229.82,187.09L230.55,215.15L231.23,142.71L231.43,208.04L231.84,191.13L232.24,165.38L233.05,158.08L233.45,163.27L234.62,119.65L235.03,125.8L235.43,161.73L237.05,209.96L237.45,199.58L239.63,173.26L240.04,196.12L240.44,210.15L240.84,188.63L241.25,195.74L241.65,183.06L242.05,173.26L242.46,185.17L242.86,188.25L243.27,179.22L243.63,189.4L244.03,176.53L244.44,172.11L244.84,174.8L245.24,195.93L246.05,170.57L246.46,171.72L246.82,160.58L248.84,117.34L249.24,152.31L250.45,142.9L250.86,154.24L251.26,153.47L251.67,175.95L252.84,203.23L253.24,175.76L254.05,194.2L254.45,190.55L254.86,187.86L255.22,205.16L255.66,193.43L256.07,187.29L256.47,183.63L256.83,198.05L257.24,192.28L257.64,174.03L258.05,155L258.45,172.87L258.85,164.61L259.26,172.11L259.66,192.86L260.06,181.33L260.47,158.85L260.83,153.47L261.24,130.98L262.04,120.8L262.45,145.4L262.85,118.88L263.26,121.38L263.66,169.03L264.06,158.85L264.47,160.19L264.87,164.42L265.23,159.81L265.64,166.15L267.25,193.24L267.66,187.48L268.06,166.53L268.46,173.45L268.87,190.36L269.27,205.54L269.64,193.82L270.04,182.87L270.44,207.08L270.85,181.71L271.25,184.6L271.65,207.85L272.06,213.61L272.46,190.17L273.27,149.62L273.67,183.83L274.08,172.49L274.44,186.52L274.85,195.74L275.25,170.95L275.65,154.24L276.06,176.91L277.67,132.91L278.08,115.8L279.25,151.16L279.65,134.83L280.05,136.56L280.46,151.74L281.27,179.79L281.67,165.57L282.07,192.47L282.48,162.11L282.68,145.97L283.29,204.58L286.19,169.99L286.64,188.82L287.08,189.78L287.53,181.33L287.81,181.14L288.13,176.91L290.47,135.02L290.92,139.44L291.97,120.22L292.41,122.34L293.14,89.86L293.46,116.19L294.75,163.07L295.4,162.88L295.8,146.74L296.25,144.24L296.69,145.59L297.02,131.75L297.98,220.91L298.75,162.88L299.24,153.27L299.64,178.45L300.41,171.91L300.69,140.4L302.02,194.01L302.31,175.37L302.47,183.63" style="vector-effect: none; fill: none; stroke: rgb(99, 110, 250); stroke-opacity: 1; stroke-width: 2px; opacity: 1;"/></g><g class="points"/><g class="text"/></g><g class="trace scatter trace22f03d" style="stroke-miterlimit: 2; opacity: 1;"><g class="fills"/><g class="errorbars"/><g class="lines"><path class="js-line" d="M229.45,178.73L230.63,214.28L231.03,195.64L231.43,200.64L231.84,191.42L232.24,165.28L232.65,167.01L233.05,165.09L233.45,163.75L233.82,152.41L234.62,126.28L235.03,130.7L235.43,169.9L236.24,176.04L236.64,191.42L237.05,211.79L237.45,191.22L239.43,176.81L239.83,184.31L240.24,206.21L240.64,197.95L241.04,190.07L241.45,194.68L241.85,171.05L242.66,200.26L243.06,182.39L243.83,192.38L244.23,181.43L244.64,173.55L245.04,203.91L245.85,161.06L246.25,167.4L246.66,173.93L248.23,126.85L248.64,117.44L249.44,157.79L249.85,141.84L251.06,152.22L251.46,166.44L252.63,196.41L253.04,187.38L253.44,187.57L253.85,186.81L254.25,199.87L254.65,187.19L255.87,203.52L256.27,190.84L256.63,198.33L257.04,197.76L257.44,178.93L257.84,158.56L258.25,164.71L258.65,168.74L259.06,166.44L259.46,185.27L259.86,192.95L260.27,170.86L260.67,163.75L261.07,142.61L261.84,120.7L262.25,135.88L262.65,145.3L263.05,121.47L263.86,182L264.26,150.68L265.07,162.59L265.48,158.56L266.24,169.7L266.65,154.52L267.46,188.15L267.86,174.89L268.26,167.97L268.67,176.81L269.47,200.83L269.84,192.57L270.24,190.84L270.65,193.53L271.45,186.23L271.86,214.09L272.66,181.62L273.07,156.64L274.64,190.07L275.05,184.88L275.45,155.87L276.26,174.51L276.66,161.63L277.07,175.08L277.47,151.64L277.87,113.98L278.28,134.35L278.68,146.26L279.04,144.53L279.45,138.38L279.85,128.39L280.26,141.46L281.06,176.81L281.47,160.1L281.87,180.85L282.28,175.08L282.68,170.28L283.08,196.03L283.49,187.57L283.89,183.92L285.06,158.17L285.47,174.12L285.87,188.92L286.27,173.74L286.68,193.34L287.08,190.65L287.48,174.89L288.7,160.67L289.1,170.09L290.27,130.89L290.68,137.81L291.08,144.53L291.48,136.46L293.1,104.95L293.5,118.01L295.12,164.9L295.52,167.78L296.69,149.34L297.1,135.5L297.9,176.04L298.31,158.17L298.71,161.44L299.03,145.88L299.56,179.89L299.92,167.01L300.33,166.44L300.69,150.49L301.09,170.86L301.9,198.14L302.31,174.32L302.71,166.24L303.11,134.16L303.52,133.77L303.92,160.1L304.32,144.15L304.73,150.1L305.09,149.14L305.46,141.07L306.02,152.03L306.3,146.84L306.71,149.53L307.11,123.39L307.92,92.27L308.32,123.97L309.49,104.18L309.9,127.43L311.51,162.79L311.92,162.98L312.72,170.66L313.13,188.73L313.53,191.8L313.9,179.31L314.3,187.57L314.7,170.28L315.11,178.54L315.51,154.72L316.72,193.72L317.13,168.55L317.93,137.81L318.3,154.33L318.7,152.22L319.1,145.88L319.51,144.34L319.91,133.77L320.32,135.31L320.72,134.73L321.12,127.62L322.34,104.95L322.74,119.55L323.51,102.07L323.91,105.14L325.12,168.94L325.53,167.01L325.93,154.72L327.14,131.66L327.5,149.72L327.91,148.76L328.31,145.3L329.12,163.17L329.52,159.33L329.93,147.41L330.33,151.45L330.73,180.46L331.14,156.06L331.5,175.08L331.91,164.13L333.12,121.67L333.52,131.47L335.14,100.72L335.54,104.95L335.9,113.21L336.31,92.46L337.12,83.04L337.52,104.37L337.92,106.87L338.33,117.44L338.73,112.06L339.13,125.89L339.94,133.96L340.35,127.62L341.11,119.17L341.52,138.19L341.92,137.81L342.32,140.5L343.13,157.41L343.54,155.29L343.94,147.61L344.34,123.59L344.75,114.75L345.15,133.39L345.96,180.46L346.36,171.82L346.77,147.22L347.13,150.49L347.53,148.18L347.94,115.9L348.34,106.29L348.75,114.94L349.15,129.16L349.55,118.21L349.96,114.75L350.36,112.83L350.76,105.33L351.49,103.22L351.77,105.52L352.18,80.35L352.58,98.8L352.99,102.26L353.35,113.59L353.75,89.58L354.56,126.85L354.96,125.51L355.37,133.96L355.77,124.55L356.18,140.88L356.98,133.19L357.39,140.11L357.59,133.96L358.28,146.84L358.96,110.14L359.37,137.23L360.05,123.59" style="vector-effect: none; fill: none; stroke: rgb(239, 85, 59); stroke-opacity: 1; stroke-width: 2px; opacity: 1;"/></g><g class="points"/><g class="text"/></g><g class="trace scatter trace9edcfd" style="stroke-miterlimit: 2; opacity: 1;"><g class="fills"/><g class="errorbars"/><g class="lines"><path class="js-line" d="M341.64,144.22L342.32,144.99L342.69,154.79L343.13,156.14L343.54,155.37L343.94,149.22L344.75,113.67L345.15,129.04L345.96,178.24L346.36,174.2L346.77,150.18L347.13,154.98L347.53,151.33L347.94,120.59L348.34,110.02L348.75,121.74L349.15,136.15L349.55,121.17L351.17,97.53L351.57,109.44L352.38,86.39L352.78,100.03L353.19,108.29L353.55,106.56L353.95,98.49L354.36,136.92L354.76,127.31L355.17,133.85L355.97,129.04L356.38,148.26L356.78,128.08L357.19,129.04L357.59,144.99L357.95,151.72L358.36,142.49L359.16,122.7L359.57,140.38L359.97,125.01L360.38,128.28L360.78,133.46L361.18,128.47L361.59,133.66L361.99,115.98L362.35,119.63L362.76,152.87L363.57,100.03L363.97,116.36L365.18,57.56L365.59,87.54L365.99,76.59L366.39,98.49L366.8,105.79L367.16,82.54L367.56,75.24L367.97,79.28L368.37,83.7L369.18,96.19L369.58,89.46L370.39,92.92L370.79,89.46L371.56,122.9L371.97,116.55L372.37,132.31L373.18,104.45L373.58,115.98L373.98,140.19L374.39,134.62L374.79,137.5L375.56,145.57L375.96,164.4L377.98,105.02L378.39,124.05L379.6,55.83L380,72.74L380.37,89.84L381.17,63.71L381.58,66.4L381.98,68.32L382.38,53.14L382.79,65.83L383.19,99.45L383.6,116.94L384,105.79L384.36,112.13L384.77,95.8L385.17,96.57L385.57,105.79L385.98,102.33L386.22,84.85L387.19,120.59L387.59,112.13L387.92,117.71L388.4,107.14L388.76,117.13L389.17,104.26L390.38,110.79L390.78,122.13L391.59,101.95L392,108.1L392.4,95.99L392.8,110.79L393.97,83.7L394.38,90.61L395.59,39.5L395.99,55.06L397.2,35.66L397.57,53.53L398.78,88.31L399.18,93.3L399.59,75.05L399.91,87.15L400.48,115.59L401.61,85.62L402.01,105.6L402.41,99.84L402.82,106.75L404.39,160.37L404.8,121.55L405.2,113.29L405.6,124.82L406.01,108.48L406.41,123.86L407.62,81.01L408.03,88.69L408.84,65.44L409.24,87.35L409.64,89.27L410.01,74.66L411.26,62.37L411.62,39.88L413.64,102.91L414.04,97.53L414.85,76.97L415.22,84.85L416.43,105.79L416.83,104.06L417.23,113.86L417.64,101.76L418.04,93.5L418.45,94.65L418.85,93.69L419.62,128.47L420.02,101.18L420.42,97.15L420.83,124.24L422.44,75.82L422.85,76.97L423.25,86.77L423.66,86.19L424.06,76.59L425.23,17.59L425.63,29.7L426.04,36.81L426.85,22.21L427.25,43.73L427.65,48.53L428.06,65.63L428.42,61.98L428.82,73.32L430.04,111.37L430.44,97.72L431.25,97.34L431.65,97.15L433.02,137.5L433.31,115.4L433.71,90.04L434.11,108.29L434.52,109.64L435.33,93.3L435.73,107.14L436.13,105.22L436.54,81.2L436.94,63.71L437.3,86.58L437.71,93.5L438.11,92.92L438.52,76.39L439.32,53.91L439.73,58.52L440.13,56.79L440.54,46.8L440.94,39.88L441.34,16.25L442.92,85.04L443.32,64.86L444.13,82.93L444.53,74.66L445.34,107.33L445.74,60.45L446.51,86.19L446.92,69.09L448.13,99.84L448.53,94.84L448.94,98.3L449.34,95.61L449.74,76.97L450.15,81.77L450.51,61.98L450.91,60.45L451.32,94.07L452.93,42.77L453.34,62.37L454.55,16.25L454.91,36.04L456.12,40.08L456.53,50.26L457.33,46.03L457.74,31.81L458.14,25.28L458.55,49.11L458.95,75.82L459.35,72.17L459.72,56.6L460,47.19" style="vector-effect: none; fill: none; stroke: rgb(0, 204, 150); stroke-opacity: 1; stroke-width: 2px; opacity: 1;"/></g><g class="points"/><g class="text"/></g><g class="trace scatter tracebe03fa" style="stroke-miterlimit: 2; opacity: 1;"><g class="fills"/><g class="errorbars"/><g class="lines"><path class="js-line" d="M413.24,76.91L413.64,105.16L414.04,101.32L414.45,89.4L414.85,79.03L415.22,83.45L415.62,99.01L417.23,118.03L417.64,103.43L418.85,93.44L419.25,121.11L419.62,126.49L420.02,99.59L420.42,94.98L420.83,123.41L422.44,71.15L422.85,75.95L423.66,88.06L424.06,77.3L425.23,17.54L425.63,30.99L426.04,41.56L426.44,36.37L426.85,23.11L428.06,66.73L428.42,65.77L428.82,78.07L430.04,112.85L430.44,95.36L430.84,97.67L431.25,94.78L431.65,94.21L432.06,101.51L432.82,122.65L433.23,121.88L433.63,90.94L434.03,106.89L434.44,109L435.25,91.32L435.65,107.85L436.05,105.54L436.46,87.48L436.86,61.92L437.22,87.1L437.63,87.29L438.03,96.7L439.24,54.62L439.65,56.54L440.05,56.93L440.45,50.4L441.26,16L441.63,22.53L442.03,51.93L442.43,50.97L442.84,87.1L443.24,72.69L443.64,79.99L444.05,89.21L444.45,78.07L444.86,87.87L445.26,114.96L445.66,66.92L446.03,70.38L446.43,91.52L446.84,62.5L447.24,85.56L447.64,101.12L448.05,104.58L448.45,96.13L448.85,97.09L449.26,88.44L450.07,80.56L450.43,62.89L450.83,54.82L451.24,91.13L452.04,49.24L452.45,68.07L452.85,47.71L453.26,64.42L453.66,54.43L454.47,16L454.83,37.14L455.64,21.76L456.04,45.4L456.85,57.7" style="vector-effect: none; fill: none; stroke: rgb(171, 99, 250); stroke-opacity: 1; stroke-width: 2px; opacity: 1;"/></g><g class="points"/><g class="text"/></g><g class="trace scatter trace1b914b" style="stroke-miterlimit: 2; opacity: 1;"><g class="fills"/><g class="errorbars"/><g class="lines"><path class="js-line" d="M0,248.85L0.4,243.66L0.77,257.31L1.21,251.73L1.53,262.88L2.02,263.07L2.38,264.42L3.19,273.26L3.59,272.29L4,287.67L4.81,269.8L5.21,275.95L5.57,279.98L5.98,273.26L6.38,279.6L7.59,303.23L8,288.44L8.4,288.24L9.21,264.61L9.61,272.29L10.01,253.85L10.38,260.77L10.78,245.2L11.99,211.57L12.4,222.33L13.21,211.77L13.61,214.84L14.01,218.3L14.42,222.14L14.78,232.71L15.18,235.4L15.59,252.5L16.4,275.56L16.8,264.61L17.2,263.65L17.61,248.28L19.59,276.14L19.99,273.64L21.2,245.2L21.6,268.45L22.01,277.87L22.82,253.08L23.18,304L23.58,299.39L23.99,255L24.8,262.11L25.2,244.82L26.41,197.74L26.81,216.19L28.39,202.54L28.79,213.5L29.6,244.82L30,241.93L30.41,240.01L31.22,265.57L31.62,262.69L31.98,250.39L32.39,223.68L33.19,258.65L33.6,268.26L34,254.23L34.41,245.2L34.81,262.88L35.62,234.25L36.02,245.01L36.43,264.42L36.79,262.69L37.19,269.03L38,254.23L38.4,269.41L38.81,258.84L39.21,222.53L39.62,232.52L40.02,226.18L40.42,223.87L41.19,195.43L41.59,209.08L42.4,206.19L42.81,196.97L43.17,200.81L44.02,199.85L44.42,204.27L44.82,228.29L45.19,230.98L45.59,248.08L46,239.24L46.4,249.62L47.21,230.02L47.61,232.52L48.02,252.31L48.42,261.92L48.82,250.39L49.23,262.3L49.63,251.73L50.03,250.97L50.44,236.36L50.84,231.94L51.25,281.52L52.01,273.83L52.42,254.04L53.22,220.99L53.63,259.8L55.24,226.75L55.65,225.79L56.86,188.52L57.26,195.43L57.67,191.97L58.07,218.3L58.43,226.95L58.84,221.18L59.24,225.6L59.65,227.91L60.05,212.53L60.45,200.43L60.86,220.99L61.66,264.61L62.07,253.85L62.47,229.64L63.24,271.53L63.64,264.03L64.05,249.43L64.85,235.59L65.26,236.94L65.66,253.08L66.47,268.26L66.87,263.84L67.24,264.03L68.04,257.69L68.85,246.16L70.06,203.89L70.47,211.77L71.28,175.06L71.68,186.21L72.04,186.98L72.45,182.75L72.85,195.05L73.25,227.71L73.66,223.68L74.06,218.68L74.47,217.72L74.87,206.19L75.68,245.2L76.04,230.6L76.44,237.32L77.25,223.1L77.66,249.24L78.46,236.55L78.87,245.97L79.27,247.89L79.68,228.48L80.85,274.02L81.25,253.08L82.46,207.35L83.27,231.75L84.88,183.14L85.25,211L86.46,167.96L86.86,183.33L88.07,219.64L88.48,194.47L88.88,190.24L89.29,191.59L89.65,226.95L90.9,209.84L91.27,224.26L91.67,230.6L92.07,228.87L92.48,280.75L93.24,237.51L94.05,247.12L94.86,281.71L95.26,258.65L95.67,250.77L96.07,253.85L96.47,253.27L97.69,231.56L98.09,238.67L99.26,215.99L99.66,201.77L100.07,191.59L100.47,207.73L100.88,200.81L101.28,202.16L101.68,201.2L102.09,191.59L102.45,197.93L103.26,204.27L103.66,216.95L104.07,200.81L104.47,187.75L104.87,207.73L106.89,261.53L107.3,251.16L108.47,233.29L108.87,247.7L109.28,239.44L109.68,239.82L110.08,241.55L110.49,247.51L110.89,270.18L112.51,235.4L112.91,241.55L113.72,229.06L114.12,202.35L114.49,199.47L114.89,206.39L115.29,226.18L115.7,181.41L116.91,191.78L117.31,200.62L118.12,215.03L118.52,204.66L118.93,209.27L119.73,209.65L120.14,216.19L120.5,206.96L122.52,249.04L122.93,242.51L123.33,246.35L123.73,234.06L124.9,258.46L125.31,255.96L126.12,227.91L126.52,230.41L126.92,227.14L127.33,227.33L127.73,242.32L129.31,189.86L129.71,185.06L130.52,162L130.92,147.39L132.13,206.77L132.7,199.66L133.34,180.45L133.71,208.5L134.11,221.95L134.51,196.59L134.92,194.66L135.32,199.85L135.73,180.45L136.13,217.72L136.94,264.8L137.34,245.97L137.75,246.16L138.11,220.99L138.51,246.35L138.92,235.59L139.32,232.33L140.13,246.35L140.53,283.44L142.15,202.54L142.55,210.04L143.72,166.99L144.13,179.48L144.53,196.39L144.93,164.5L145.74,176.79L146.1,206.58L146.55,208.69L146.91,177.37L147.32,180.83L147.72,208.88L148.12,210.81L148.53,209.65L148.93,193.9L149.34,227.14L149.74,205.23L150.14,214.26L150.91,199.08L151.31,201.39L151.72,224.64L152.12,217.34L152.53,229.25L152.93,189.28L153.33,194.66L153.74,222.14L155.31,192.55L156.12,207.35L156.64,209.27L156.93,182.56L157.33,184.86L157.74,202.54L159.35,148.74L159.71,151.81L160.52,128.56L160.93,154.7L161.65,182.56L162.14,171.8L162.94,201.01L163.35,188.52L164.56,204.46L164.92,203.12L165.33,232.71L165.73,214.07L166.13,196.97L166.94,237.13L167.35,234.25L167.75,217.15L168.15,217.34L168.56,238.67L170.17,216.76L170.54,226.37L170.98,226.56L171.34,217.34L172.15,187.17L172.56,201.77L174.17,133.37L174.57,155.66L174.98,164.69L175.38,146.24L176.92,193.9L177.36,171.41L177.76,189.86L178.17,166.42L178.57,172.18L178.98,201.58L179.78,220.03L180.19,204.85L181,184.48L181.4,206.19L182.57,191.21L182.97,224.45L184.19,198.89L184.59,199.47L184.99,204.27L185.4,180.64L185.8,198.89L186.16,218.88L186.97,169.3L187.38,200.24L188.59,146.82" style="vector-effect: none; fill: none; stroke: rgb(255, 161, 90); stroke-opacity: 1; stroke-width: 2px; opacity: 1;"/></g><g class="points"/><g class="text"/></g></g></g><g class="overplot"/><path class="xlines-above crisp" d="M0,0" style="fill: none;"/><path class="ylines-above crisp" d="M0,0" style="fill: none;"/><g class="overlines-above"/><g class="xaxislayer-above"><g class="xtick"><text text-anchor="middle" x="0" y="433" transform="translate(110.09,0)" style="font-family: 'Open Sans', verdana, arial, sans-serif; font-size: 12px; fill: rgb(42, 63, 95); fill-opacity: 1; white-space: pre; opacity: 1;">1995</text></g><g class="xtick"><text text-anchor="middle" x="0" y="433" style="font-family: 'Open Sans', verdana, arial, sans-serif; font-size: 12px; fill: rgb(42, 63, 95); fill-opacity: 1; white-space: pre; opacity: 1;" transform="translate(183.82,0)">2000</text></g><g class="xtick"><text text-anchor="middle" x="0" y="433" style="font-family: 'Open Sans', verdana, arial, sans-serif; font-size: 12px; fill: rgb(42, 63, 95); fill-opacity: 1; white-space: pre; opacity: 1;" transform="translate(257.6,0)">2005</text></g><g class="xtick"><text text-anchor="middle" x="0" y="433" style="font-family: 'Open Sans', verdana, arial, sans-serif; font-size: 12px; fill: rgb(42, 63, 95); fill-opacity: 1; white-space: pre; opacity: 1;" transform="translate(331.34000000000003,0)">2010</text></g><g class="xtick"><text text-anchor="middle" x="0" y="433" style="font-family: 'Open Sans', verdana, arial, sans-serif; font-size: 12px; fill: rgb(42, 63, 95); fill-opacity: 1; white-space: pre; opacity: 1;" transform="translate(405.08,0)">2015</text></g><g class="xtick"><text text-anchor="middle" x="0" y="433" style="font-family: 'Open Sans', verdana, arial, sans-serif; font-size: 12px; fill: rgb(42, 63, 95); fill-opacity: 1; white-space: pre; opacity: 1;" transform="translate(478.82,0)">2020</text></g></g><g class="yaxislayer-above"><g class="ytick"><text text-anchor="end" x="79" y="4.199999999999999" transform="translate(0,399.47)" style="font-family: 'Open Sans', verdana, arial, sans-serif; font-size: 12px; fill: rgb(42, 63, 95); fill-opacity: 1; white-space: pre; opacity: 1;">−40</text></g><g class="ytick"><text text-anchor="end" x="79" y="4.199999999999999" style="font-family: 'Open Sans', verdana, arial, sans-serif; font-size: 12px; fill: rgb(42, 63, 95); fill-opacity: 1; white-space: pre; opacity: 1;" transform="translate(0,361.03)">−20</text></g><g class="ytick"><text text-anchor="end" x="79" y="4.199999999999999" style="font-family: 'Open Sans', verdana, arial, sans-serif; font-size: 12px; fill: rgb(42, 63, 95); fill-opacity: 1; white-space: pre; opacity: 1;" transform="translate(0,322.6)">0</text></g><g class="ytick"><text text-anchor="end" x="79" y="4.199999999999999" style="font-family: 'Open Sans', verdana, arial, sans-serif; font-size: 12px; fill: rgb(42, 63, 95); fill-opacity: 1; white-space: pre; opacity: 1;" transform="translate(0,284.16999999999996)">20</text></g><g class="ytick"><text text-anchor="end" x="79" y="4.199999999999999" style="font-family: 'Open Sans', verdana, arial, sans-serif; font-size: 12px; fill: rgb(42, 63, 95); fill-opacity: 1; white-space: pre; opacity: 1;" transform="translate(0,245.74)">40</text></g><g class="ytick"><text text-anchor="end" x="79" y="4.199999999999999" style="font-family: 'Open Sans', verdana, arial, sans-serif; font-size: 12px; fill: rgb(42, 63, 95); fill-opacity: 1; white-space: pre; opacity: 1;" transform="translate(0,207.31)">60</text></g><g class="ytick"><text text-anchor="end" x="79" y="4.199999999999999" style="font-family: 'Open Sans', verdana, arial, sans-serif; font-size: 12px; fill: rgb(42, 63, 95); fill-opacity: 1; white-space: pre; opacity: 1;" transform="translate(0,168.88)">80</text></g><g class="ytick"><text text-anchor="end" x="79" y="4.199999999999999" style="font-family: 'Open Sans', verdana, arial, sans-serif; font-size: 12px; fill: rgb(42, 63, 95); fill-opacity: 1; white-space: pre; opacity: 1;" transform="translate(0,130.45)">100</text></g></g><g class="overaxes-above"/></g></g><g class="polarlayer"/><g class="smithlayer"/><g class="ternarylayer"/><g class="geolayer"/><g class="funnelarealayer"/><g class="pielayer"/><g class="iciclelayer"/><g class="treemaplayer"/><g class="sunburstlayer"/><g class="glimages"/><defs id="topdefs-acfcd4"><g class="clips"/><clipPath id="legendacfcd4"><rect width="139" height="105" x="0" y="0"/></clipPath></defs><g class="layer-above"><g class="imagelayer"/><g class="shapelayer"/></g><g class="infolayer"><g class="legend" pointer-events="all" transform="translate(549.2,100)"><rect class="bg" shape-rendering="crispEdges" width="139" height="105" x="0" y="0" style="stroke: rgb(68, 68, 68); stroke-opacity: 1; fill: rgb(255, 255, 255); fill-opacity: 1; stroke-width: 0px;"/><g class="scrollbox" transform="" clip-path="url(#legendacfcd4)"><g class="groups"><g class="traces" transform="translate(0,14.5)" style="opacity: 1;"><text class="legendtext" text-anchor="start" x="40" y="4.680000000000001" style="font-family: 'Open Sans', verdana, arial, sans-serif; font-size: 12px; fill: rgb(42, 63, 95); fill-opacity: 1; white-space: pre;">Jason.1</text><g class="layers" style="opacity: 1;"><g class="legendfill"/><g class="legendlines"><path class="js-line" d="M5,0h30" style="fill: none; stroke: rgb(99, 110, 250); stroke-opacity: 1; stroke-width: 2px;"/></g><g class="legendsymbols"><g class="legendpoints"/></g></g><rect class="legendtoggle" x="0" y="-9.5" width="133.84375" height="19" style="fill: rgb(0, 0, 0); fill-opacity: 0;"/></g><g class="traces" transform="translate(0,33.5)" style="opacity: 1;"><text class="legendtext" text-anchor="start" x="40" y="4.680000000000001" style="font-family: 'Open Sans', verdana, arial, sans-serif; font-size: 12px; fill: rgb(42, 63, 95); fill-opacity: 1; white-space: pre;">Jason.2</text><g class="layers" style="opacity: 1;"><g class="legendfill"/><g class="legendlines"><path class="js-line" d="M5,0h30" style="fill: none; stroke: rgb(239, 85, 59); stroke-opacity: 1; stroke-width: 2px;"/></g><g class="legendsymbols"><g class="legendpoints"/></g></g><rect class="legendtoggle" x="0" y="-9.5" width="133.84375" height="19" style="fill: rgb(0, 0, 0); fill-opacity: 0;"/></g><g class="traces" transform="translate(0,52.5)" style="opacity: 1;"><text class="legendtext" text-anchor="start" x="40" y="4.680000000000001" style="font-family: 'Open Sans', verdana, arial, sans-serif; font-size: 12px; fill: rgb(42, 63, 95); fill-opacity: 1; white-space: pre;">Jason.3</text><g class="layers" style="opacity: 1;"><g class="legendfill"/><g class="legendlines"><path class="js-line" d="M5,0h30" style="fill: none; stroke: rgb(0, 204, 150); stroke-opacity: 1; stroke-width: 2px;"/></g><g class="legendsymbols"><g class="legendpoints"/></g></g><rect class="legendtoggle" x="0" y="-9.5" width="133.84375" height="19" style="fill: rgb(0, 0, 0); fill-opacity: 0;"/></g><g class="traces" transform="translate(0,71.5)" style="opacity: 1;"><text class="legendtext" text-anchor="start" x="40" y="4.680000000000001" style="font-family: 'Open Sans', verdana, arial, sans-serif; font-size: 12px; fill: rgb(42, 63, 95); fill-opacity: 1; white-space: pre;">Sentinel-6MF</text><g class="layers" style="opacity: 1;"><g class="legendfill"/><g class="legendlines"><path class="js-line" d="M5,0h30" style="fill: none; stroke: rgb(171, 99, 250); stroke-opacity: 1; stroke-width: 2px;"/></g><g class="legendsymbols"><g class="legendpoints"/></g></g><rect class="legendtoggle" x="0" y="-9.5" width="133.84375" height="19" style="fill: rgb(0, 0, 0); fill-opacity: 0;"/></g><g class="traces" transform="translate(0,90.5)" style="opacity: 1;"><text class="legendtext" text-anchor="start" x="40" y="4.680000000000001" style="font-family: 'Open Sans', verdana, arial, sans-serif; font-size: 12px; fill: rgb(42, 63, 95); fill-opacity: 1; white-space: pre;">TOPEX.Poseidon</text><g class="layers" style="opacity: 1;"><g class="legendfill"/><g class="legendlines"><path class="js-line" d="M5,0h30" style="fill: none; stroke: rgb(255, 161, 90); stroke-opacity: 1; stroke-width: 2px;"/></g><g class="legendsymbols"><g class="legendpoints"/></g></g><rect class="legendtoggle" x="0" y="-9.5" width="133.84375" height="19" style="fill: rgb(0, 0, 0); fill-opacity: 0;"/></g></g></g><rect class="scrollbar" rx="20" ry="3" width="0" height="0" x="0" y="0" style="fill: rgb(128, 139, 164); fill-opacity: 1;"/></g><g class="g-gtitle"><text class="gtitle" x="35" y="50" text-anchor="start" dy="0em" style="font-family: 'Open Sans', verdana, arial, sans-serif; font-size: 17px; fill: rgb(42, 63, 95); opacity: 1; font-weight: normal; white-space: pre;">Mean Sea Levels Changing - Atlantic Ocean</text></g><g class="g-xtitle"><text class="xtitle" x="310" y="460.3" text-anchor="middle" style="font-family: 'Open Sans', verdana, arial, sans-serif; font-size: 14px; fill: rgb(42, 63, 95); opacity: 1; font-weight: normal; white-space: pre;">Date</text></g><g class="g-ytitle"><text class="ytitle" transform="rotate(-90,34.340625,260)" x="34.340625" y="260" text-anchor="middle" style="font-family: 'Open Sans', verdana, arial, sans-serif; font-size: 14px; fill: rgb(42, 63, 95); opacity: 1; font-weight: normal; white-space: pre;">Change in Sea Level [mm]</text></g></g></svg>