<svg class="main-svg" xmlns="http://www.w3.org/2000/svg" xmlns:xlink="http://www.w3.org/1999/xlink" width="700" height="500" style="" viewBox="0 0 700 500"><rect x="0" y="0" width="700" height="500" style="fill: rgb(255, 255, 255); fill-opacity: 1;"/><defs id="defs-b24721"><g class="clips"><clipPath id="clipb24721xyplot" class="plotclip"><rect width="460" height="320"/></clipPath><clipPath class="axesclip" id="clipb24721x"><rect x="80" y="0" width="460" height="500"/></clipPath><clipPath class="axesclip" id="clipb24721y"><rect x="0" y="100" width="700" height="320"/></clipPath><clipPath class="axesclip" id="clipb24721xy"><rect x="80" y="100" width="460" height="320"/></clipPath></g><g class="gradients"/><g class="patterns"/></defs><g class="bglayer"><rect class="bg" x="80" y="100" width="460" height="320" style="fill: rgb(229, 236, 246); fill-opacity: 1; stroke-width: 0;"/></g><g class="layer-below"><g class="imagelayer"/><g class="shapelayer"/></g><g class="cartesianlayer"><g class="subplot xy"><g class="layer-subplot"><g class="shapelayer"/><g class="imagelayer"/></g><g class="minor-gridlayer"><g class="x"/><g class="y"/></g><g class="gridlayer"><g class="x"><path class="xgrid crisp" transform="translate(110.09,0)" d="M0,100v320" style="stroke: rgb(255, 255, 255); stroke-opacity: 1; stroke-width: 1px;"/><path class="xgrid crisp" transform="translate(183.82,0)" d="M0,100v320" style="stroke: rgb(255, 255, 255); stroke-opacity: 1; stroke-width: 1px;"/><path class="xgrid crisp" transform="translate(257.6,0)" d="M0,100v320" style="stroke: rgb(255, 255, 255); stroke-opacity: 1; stroke-width: 1px;"/><path class="xgrid crisp" transform="translate(331.34000000000003,0)" d="M0,100v320" style="stroke: rgb(255, 255, 255); stroke-opacity: 1; stroke-width: 1px;"/><path class="xgrid crisp" transform="translate(405.08,0)" d="M0,100v320" style="stroke: rgb(255, 255, 255); stroke-opacity: 1; stroke-width: 1px;"/><path class="xgrid crisp" transform="translate(478.82,0)" d="M0,100v320" style="stroke: rgb(255, 255, 255); stroke-opacity: 1; stroke-width: 1px;"/></g><g class="y"><path class="ygrid crisp" transform="translate(0,393.31)" d="M80,0h460" style="stroke: rgb(255, 255, 255); stroke-opacity: 1; stroke-width: 1px;"/><path class="ygrid crisp" transform="translate(0,355.61)" d="M80,0h460" style="stroke: rgb(255, 255, 255); stroke-opacity: 1; stroke-width: 1px;"/><path class="ygrid crisp" transform="translate(0,280.22)" d="M80,0h460" style="stroke: rgb(255, 255, 255); stroke-opacity: 1; stroke-width: 1px;"/><path class="ygrid crisp" transform="translate(0,242.52)" d="M80,0h460" style="stroke: rgb(255, 255, 255); stroke-opacity: 1; stroke-width: 1px;"/><path class="ygrid crisp" transform="translate(0,204.82999999999998)" d="M80,0h460" style="stroke: rgb(255, 255, 255); stroke-opacity: 1; stroke-width: 1px;"/><path class="ygrid crisp" transform="translate(0,167.13)" d="M80,0h460" style="stroke: rgb(255, 255, 255); stroke-opacity: 1; stroke-width: 1px;"/><path class="ygrid crisp" transform="translate(0,129.43)" d="M80,0h460" style="stroke: rgb(255, 255, 255); stroke-opacity: 1; stroke-width: 1px;"/></g></g><g class="zerolinelayer"><path class="yzl zl crisp" transform="translate(0,317.91999999999996)" d="M80,0h460" style="stroke: rgb(255, 255, 255); stroke-opacity: 1; stroke-width: 2px;"/></g><g class="layer-between"><g class="shapelayer"/><g class="imagelayer"/></g><path class="xlines-below"/><path class="ylines-below"/><g class="overlines-below"/><g class="xaxislayer-below"/><g class="yaxislayer-below"/><g class="overaxes-below"/><g class="plot" transform="translate(80,100)" clip-path="url(#clipb24721xyplot)"><g class="scatterlayer mlayer"><g class="trace scatter trace1f4a50" style="stroke-miterlimit: 2; opacity: 1;"><g class="fills"/><g class="errorbars"/><g class="lines"><path class="js-line" d="M134.11,207.17L134.51,184.86L134.92,201.9L135.32,189.31L136.9,252.48L137.34,242.31L138.11,219.84L138.51,227.83L138.92,237.33L139.32,233.79L139.72,239.59L140.13,254.44L140.53,245.62L140.94,250.75L141.7,223.76L142.11,237.33L142.51,246.45L142.91,217.73L143.72,234.54L144.13,200.69L144.89,176.71L145.34,192.92L146.51,141.43L146.91,172.64L147.32,131.71L147.72,166.16L148.12,136.76L148.93,195.49L149.34,167.37L150.1,210.11L150.51,232.96L150.91,196.24L151.31,218.41L151.72,259.27L152.16,235.6L152.53,243.36L152.93,247.89L153.74,234.77L154.1,242.08L155.31,278.12L155.72,254.52L156.12,251.13L156.52,263.19L157.74,215.32L158.14,237.33L160.12,148.14L160.52,169.18L160.88,158.92L161.49,103.58L163.35,208.08L163.71,182.75L164.12,225.42L164.48,181.99L165,255.05L165.33,207.4L165.73,203.71L166.94,251.5L167.35,256.86L167.75,247.51L168.15,257.69L169.32,222.63L169.77,276.53L170.94,236.73L171.34,256.4L171.75,249.02L172.15,262.21L174.17,174.75L174.57,147.76L174.94,141.88L175.34,175.96L176.15,150.63L176.55,153.72L176.96,187.57L177.36,184.4L177.76,168.57L178.57,247.66L178.98,238.69L179.38,232.96L179.78,238.54L180.19,219.91L181.36,256.71L181.76,261.46L182.17,266.28L182.57,289.5L183.78,262.96L184.19,268.02L184.59,280.3L184.95,268.24L185.36,255.8L185.76,274.35L186.16,274.35L186.57,269.3L186.97,277.51L187.38,229.87L188.1,196.02L188.67,221.27L189.76,169.25L190.16,201.44L190.57,122.73L190.97,146.03L191.37,141.51L191.78,117.23L192.18,184.63L192.59,149.65L192.99,206.72L193.39,165.78L193.8,187.19L194.16,203.4L194.6,196.92L194.97,224.21L196.18,247.43L196.58,220.89L197.39,236.8L197.79,200.92L198.97,262.51L199.37,242.83L199.77,233.03L200.18,247.36L200.58,255.27L200.98,241.02L201.79,230.39L202.2,231L202.6,197.82L203,205.74L203.41,180.41L203.77,169.4L204.18,169.63L204.46,129.74L205.43,182.52L205.79,164.27L206.15,125.52L206.6,101.17L206.96,157.11L207.77,179.13L208.17,175.28L208.58,236.2L208.98,272.09L209.38,243.29L209.79,209.51L210.19,208.83L210.6,224.82L210.96,201.67L211.36,234.92L211.77,228.43L212.17,250.07L212.57,240.12L212.98,260.25L213.79,268.02L214.19,267.56L214.59,286.11L215.81,235.67L216.17,248.71L217.38,208.98L217.78,214.03L220.17,109.39L220.61,120.17L221.38,184.78L221.78,142.49L222.19,198.35L222.59,152.97L222.99,162.09L223.4,156.74L223.8,160.13L224.21,188.4L225.01,229.94L225.42,220.29L225.82,219.91L226.22,195.71L226.63,205.67L226.87,232.96L227.4,186.29L227.8,222.7L228.2,228.81L228.61,250.37L229.41,225.27L229.82,205.06L230.22,219.54L230.55,202.05L231.43,205.59L231.84,188.93L232.6,202.05L233.01,163.45L233.41,136.45L233.82,139.62L234.22,171.21L235.43,67.62L235.84,97.48L236.24,126.43L236.64,126.13L237.05,86.02L237.65,64.3L238.42,223.31L238.82,208.45L239.23,183.27L239.63,196.47L240.04,205.74L240.44,157.79L240.8,210.64L241.21,203.48L241.61,175.73L242.42,210.49L242.82,199.71L243.23,214.26L243.63,198.2L244.44,210.26L244.8,225.49L245.61,225.34L246.01,180.41L246.42,200.99L246.82,174.6L248.03,146.48L248.43,157.19L248.84,114.06L249.2,120.85L249.61,119.19L250.01,118.21L250.41,129.9L250.82,137.66L251.22,168.42L251.62,165.63L252.03,138.72L252.84,197.37L253.24,167.89L253.64,209.59L254.01,190.29L254.41,191.27L254.82,188.7L255.22,192.85L255.62,182.82L256.03,192.92L257.24,224.66L257.6,199.86L258.05,227.53L258.41,224.36L258.81,224.44L259.62,170.98L260.02,203.33L260.83,180.48L261.24,188.93L261.64,190.13L262.04,159.83L263.62,44.93L264.02,83.38L265.23,133.44L265.64,105.62L266.04,107.81L266.45,95.82L267.21,106.07L267.62,159.75L268.02,155.38L268.42,178.07L269.64,138.49L270.04,194.73L271.25,227.53L271.61,221.12L272.02,197.75L272.42,225.95L272.83,244.49L273.23,228.66L273.63,229.04L274.04,232.96L274.44,211.24L275.21,190.81L275.65,199.86L276.42,181.77L276.82,169.78L277.23,162.39L277.63,165.56L278.04,124.69L278.44,121.23L278.84,150.7L280.05,83.53L280.42,86.17L281.63,180.41L282.03,139.32L283.29,182.37L286.15,196.92L287.04,174.83L287.44,208.15L287.81,190.29L288.09,204.99L288.53,200.84L288.94,199.33L289.42,193.45L289.71,183.2L290.03,199.63L291.32,157.04L291.64,162.84L292.37,113.61L292.82,136L293.14,125.98L293.42,126.58L293.87,143.24L294.31,148.44L294.75,114.21L295.04,135.85L295.36,120.47L295.76,125.37L296.21,134.49L296.65,159.07L296.97,172.79L297.26,161.18L297.7,138.42L297.98,197.75L298.75,185.54L298.91,201.82L299.2,188.17L299.6,168.35L300.08,189.15L300.37,178.37L300.65,177.09L301.09,199.71L301.54,198.35L301.98,192.32L302.31,195.56L302.43,210.26" style="vector-effect: none; fill: none; stroke: rgb(99, 110, 250); stroke-opacity: 1; stroke-width: 2px; opacity: 1;"/></g><g class="points"/><g class="text"/></g><g class="trace scatter tracec37f2e" style="stroke-miterlimit: 2; opacity: 1;"><g class="fills"/><g class="errorbars"/><g class="lines"><path class="js-line" d="M229.45,206.77L229.82,194.64L230.22,200.21L230.63,198.03L231.03,195.24L231.43,180.24L231.84,168.17L232.2,185.14L232.6,192.45L233.01,153.4L233.41,130.85L233.82,136.21L234.22,159.8L235.43,74.91L235.84,101.45L236.64,134.32L237.05,94.06L238.22,203.31L238.62,200.52L239.03,204.96L239.43,190.56L239.83,216.95L240.24,175.03L240.64,178.65L241.04,222.15L241.45,183.33L241.81,199.23L242.22,207.6L242.62,192.6L243.02,210.69L243.43,199.69L243.83,204.81L244.23,212.13L244.64,217.48L245.04,212.5L245.45,211.15L245.85,175.94L246.66,184.91L247.02,179.86L247.43,176.84L247.83,143.22L248.23,153.62L248.64,151.74L249.04,121.43L249.44,159.13L249.85,122.56L251.42,181.74L251.83,143.52L252.63,196.6L253.04,194.64L253.44,190.49L253.85,214.09L254.25,169.68L254.65,195.31L255.02,185.59L255.42,193.35L255.82,183.1L256.23,207.75L256.63,206.62L257.04,203.08L257.84,197.35L258.25,230.07L259.46,174.51L259.86,191.02L261.03,164.1L261.44,170.28L261.84,166.51L262.25,135.98L263.86,78.61L264.22,103.33L264.63,104.31L265.03,112.31L265.44,138.69L265.84,134.7L266.24,124.07L266.65,125.35L267.05,119.7L267.86,185.59L268.26,181.59L268.67,174.88L269.03,177.97L269.43,167.19L271.05,232.71L271.45,223.21L271.86,210.54L272.26,212.5L272.66,231.65L273.07,229.39L273.43,220.27L273.84,221.48L274.24,220.57L274.64,198.41L275.05,202.25L275.45,190.19L275.85,203.38L276.26,178.5L276.62,188.91L277.07,163.2L277.43,165.16L277.83,157.62L279.04,131.91L279.45,121.43L279.85,127.99L280.26,102.2L281.06,130.7L281.47,174.28L281.83,145.18L282.24,170.43L282.64,167.42L283.04,169.61L283.45,160.18L283.85,150.3L284.25,159.88L285.47,209.56L285.87,208.43L286.68,173.07L287.08,181.22L287.48,215.14L287.89,211.07L288.29,193.28L289.46,186.04L289.87,189.21L290.27,186.12L290.68,167.49L291.08,168.25L291.48,152.04L291.89,147.29L292.29,121.96L292.69,122.79L293.1,137.26L293.5,130.48L293.91,134.7L294.31,147.82L295.48,102.81L295.88,131.68L296.29,123.24L296.69,146.08L297.1,161.31L297.5,138.39L298.31,175.18L298.71,200.06L299.56,164.1L299.88,179.03L300.69,160.86L301.09,184.68L301.5,181.97L301.9,188.08L302.71,198.78L303.11,176.77L303.48,179.71L303.88,179.63L304.32,171.49L304.69,169.38L305.09,182.42L307.11,127.01L307.51,91.27L308.69,137.19L309.09,130.48L309.49,160.11L309.9,110.57L310.7,166.66L311.11,136.28L311.51,207.45L311.92,192.22L312.32,166.44L312.68,208.06L313.09,184.16L313.49,187.32L313.9,208.36L314.3,204.36L314.7,207.9L315.11,197.88L315.51,203.38L315.91,224.79L316.28,204.06L316.72,219.97L317.13,224.26L317.49,226.98L317.89,215.29L318.3,206.47L318.7,215.97L319.91,188.38L320.32,195.62L320.72,194.03L321.08,185.66L321.89,120.98L322.29,155.51L323.1,135.68L323.51,139.22L323.91,152.34L324.31,92.7L324.72,113.74L325.12,142.39L325.53,136.96L325.89,169.91L326.7,177.37L327.1,217.71L328.31,205.64L328.72,208.51L329.12,198.18L329.52,219.51L329.93,229.47L330.29,229.39L330.69,227.58L331.5,217.55L331.91,245.98L332.31,247.64L332.71,238.66L333.93,214.16L334.33,227.58L335.5,177.97L335.9,180.84L336.31,175.26L336.71,146.76L337.12,158.52L337.52,155.96L337.92,163.65L338.33,140.81L338.73,142.16L339.09,135.75L339.9,162.97L340.31,185.81L341.11,146.76L341.52,167.57L341.92,150.76L342.32,172.09L342.73,206.55L343.13,201.57L343.5,197.8L343.94,231.8L344.3,223.06L344.75,217.48L345.92,212.88L346.32,220.87L346.73,229.77L347.13,216.57L347.53,226.98L347.94,218.01L348.34,199.54L348.75,218.08L349.15,224.34L349.55,185.66L349.96,197.8L350.32,184.31L351.49,167.12L351.73,170.96L352.14,147.36L352.54,132.29L352.95,140.81L353.35,95.12L353.75,123.01L354.16,122.79L354.56,95.64L354.92,141.56L355.33,108.61L355.73,127.39L356.14,151.66L356.54,129.95L357.59,220.95L358.28,165.61L360.05,221.4" style="vector-effect: none; fill: none; stroke: rgb(239, 85, 59); stroke-opacity: 1; stroke-width: 2px; opacity: 1;"/></g><g class="points"/><g class="text"/></g><g class="trace scatter tracea4d05d" style="stroke-miterlimit: 2; opacity: 1;"><g class="fills"/><g class="errorbars"/><g class="lines"><path class="js-line" d="M341.64,168.93L341.92,135.84L342.32,165.32L342.69,212.13L343.13,193.51L343.54,198.56L343.94,233.47L345.51,211L345.92,215.68L346.73,242.59L347.13,222.92L347.94,234.83L348.34,214.4L349.15,226.76L349.55,188.69L349.96,204.37L350.36,188.08L351.53,152.27L351.94,171.05L352.34,115.1L352.74,130.48L353.15,107.64L353.55,93.54L353.95,123.7L354.36,95.58L354.76,119.25L355.17,124.68L355.57,99.42L355.97,147.22L356.38,122.12L356.74,144.66L357.15,166.6L357.55,182.35L357.95,181.75L358.36,168.63L359.16,214.77L359.57,200.45L359.97,219.82L360.38,212.74L360.78,212.36L361.18,206.55L361.55,227.29L362.35,215.07L362.76,219.52L364.78,174.59L365.18,167.58L365.59,153.63L365.95,115.63L366.76,81.63L367.16,102.59L367.56,139.08L367.97,94.6L368.78,67L369.18,117.37L370.35,173.53L370.75,110.35L371.56,198.04L371.97,200.52L372.37,206.63L372.77,181.68L373.58,219.3L373.98,217.79L374.39,213.79L374.75,212.89L375.16,209.19L375.56,213.79L375.96,238.14L377.58,194.12L377.98,211.98L378.39,212.89L378.75,205.12L379.15,220.05L379.56,189.44L379.96,172.85L380.37,113.67L381.17,148.28L381.58,118.57L382.38,150.76L382.79,130.63L383.96,103.42L384.36,127.92L384.77,124.9L385.17,130.03L386.22,203.84L386.83,186.05L387.19,171.05L387.55,188.61L387.84,173.31L388.36,198.49L388.76,203.46L389.17,185.37L389.57,195.4L389.98,186.73L390.38,216.28L390.78,214.17L391.19,202.33L392.36,225.86L392.76,237.99L393.17,236.86L393.57,211.53L394.38,191.63L394.78,147.82L395.19,172.7L395.59,152.65L395.99,124.53L396.36,144.21L396.76,119.93L397.16,119.85L397.57,84.87L398.38,172.1L398.78,140.51L399.91,191.7L400.35,129.28L400.8,144.66L401.2,186.12L402.37,225.7L402.78,190.87L403.18,193.51L403.59,182.05L403.99,220.5L404.39,207.46L404.8,203.54L405.6,199.85L406.01,202.03L406.41,202.86L406.82,193.51L407.18,176.02L407.62,197.43L408.39,173.01L408.79,156.42L409.2,165.54L409.6,148.8L410.77,43.63L411.22,69.26L411.62,61.8L412.03,114.8L412.43,57.65L412.83,97.54L413.24,76.13L413.64,90.45L414,86.61L414.41,141.94L414.81,143.98L415.22,156.95L416.02,184.01L416.43,163.05L417.23,200.07L417.64,163.51L418,161.7L418.41,167.95L418.81,170.29L419.21,199.62L419.62,196.53L420.02,211.83L420.42,212.59L420.83,199.92L421.23,177.53L421.64,187.18L422.04,185.45L422.44,195.55L422.81,164.79L423.21,166.75L423.62,176.32L424.02,168.1L424.42,136.97L424.83,135.91L425.23,116.31L425.63,97.84L426.04,106.13L426.44,100.78L426.85,81.63L427.21,24.26L428.82,116.39L429.23,114.2L429.63,111.33L430.04,114.73L430.44,94.97L430.84,152.57L431.65,171.65L432.01,124.75L432.22,63.23L433.02,176.93L433.31,164.11L433.71,183.33L434.07,172.25L434.48,198.34L435.29,173.68L435.69,176.17L436.09,175.34L436.5,152.12L436.9,156.87L437.3,160.94L438.52,128.22L438.88,132.52L440.09,44.84L440.5,60.44L440.9,65.72L441.3,114.95L441.71,112.54L442.11,52.98L442.51,43.63L442.92,60.52L443.73,119.63L444.09,67.46L444.49,126.64L444.9,121.14L445.3,62.4L446.51,196L446.92,192.53L447.28,179.49L447.68,156.19L448.09,156.34L448.49,161.24L449.7,184.54L450.11,187.41L450.51,192.15L450.91,190.35L451.32,168.63L452.08,203.46L452.49,180.92L453.7,143.53L454.1,136.89L454.91,128.15L456.08,95.8L456.93,127.39L457.29,79.9L457.7,89.7L458.1,123.17L458.91,116.91L459.31,152.2L459.72,133.88L460,182.2" style="vector-effect: none; fill: none; stroke: rgb(0, 204, 150); stroke-opacity: 1; stroke-width: 2px; opacity: 1;"/></g><g class="points"/><g class="text"/></g><g class="trace scatter tracec2945a" style="stroke-miterlimit: 2; opacity: 1;"><g class="fills"/><g class="errorbars"/><g class="lines"><path class="js-line" d="M413.24,72.32L413.64,83.55L414,79.1L414.41,136.55L414.81,139.42L415.22,150.73L416.02,183.6L416.43,159.17L417.23,205.61L417.64,160L418.45,168.59L418.81,175.91L420.02,207.2L420.42,210.36L421.23,172.59L421.64,183.75L422.04,178.09L422.44,187.59L423.21,165.13L423.62,176.59L424.83,131.73L425.23,111.37L426.85,73.83L427.21,16L428.82,111.22L429.23,110.47L429.63,105.42L430.04,109.56L430.44,90.26L431.65,172.44L432.01,119.51L432.82,174.1L433.23,168.97L433.63,186.09L434.03,170.78L434.44,192.49L434.84,188.27L435.25,179.38L435.65,179.98L436.01,167.31L436.42,150.35L436.82,150.58L437.22,157.59L438.44,134.52L438.84,135.8L440.05,31.91L440.41,63.27L440.82,45.18L441.22,103.23L441.63,113.94L442.03,53.39L442.43,31.91L442.84,76.92L443.24,79.86L443.64,134.22L444.05,55.43L444.45,119.66L444.86,132.93L445.22,75.71L445.62,103.98L446.03,164.3L446.43,202.75L446.84,194.76L447.24,181.26L447.64,176.36L448.05,158.12L449.62,186.16L450.03,199.2L451.24,174.63L451.64,188.5L452.04,208.78L452.45,192.04L452.85,160L454.83,130.52L455.23,141.38L455.64,136.78L456.04,81.67L456.85,134.74" style="vector-effect: none; fill: none; stroke: rgb(171, 99, 250); stroke-opacity: 1; stroke-width: 2px; opacity: 1;"/></g><g class="points"/><g class="text"/></g><g class="trace scatter trace0bbfe7" style="stroke-miterlimit: 2; opacity: 1;"><g class="fills"/><g class="errorbars"/><g class="lines"><path class="js-line" d="M0,221.14L0.73,244.67L1.13,215.87L1.53,211.57L2.02,228.08L2.34,281.99L2.75,280.48L3.19,250.02L3.59,280.85L3.96,269.24L4.77,236.07L5.17,294.05L5.57,290.35L5.98,290.73L6.38,283.42L6.78,304L8,287.34L8.4,277.91L9.17,286.28L9.57,272.56L9.97,266.23L10.38,244.21L11.19,257.03L11.59,230.72L11.99,179.75L12.4,198.15L13.21,211.64L13.57,220.31L13.97,199.96L14.38,196.41L14.78,140.77L15.59,242.78L15.99,222.95L16.4,210.97L17.2,281.38L17.57,252.58L17.97,253.11L18.78,221.29L19.18,274.37L19.59,250.02L19.99,273.92L20.39,265.63L20.8,284.25L21.2,283.19L21.6,270.45L21.97,288.62L22.78,284.7L23.18,262.08L23.58,276.18L23.99,278.74L24.39,297.44L24.8,259.67L25.2,265.85L25.6,249.64L27.58,172.67L28.39,187.14L29.2,222.2L29.6,178.32L30.77,219.64L31.18,185.71L31.58,179.83L31.98,269.09L32.39,252.43L33.19,254.32L34.41,280.25L34.81,249.94L37.19,290.28L38,270.83L38.4,275.43L38.81,264.87L39.58,249.72L39.98,271.66L40.79,190.38L41.19,216.92L41.59,210.89L43.17,157.21L44.02,155.85L44.82,173.19L45.19,218.43L45.59,226.57L46,194.45L47.21,227.55L47.61,289.83L47.97,299.78L48.42,279.5L49.23,239.39L49.63,248.44L50.03,257.03L50.4,230.87L50.8,256.65L51.21,257.26L52.01,270.22L52.82,244.89L53.22,255.75L53.63,272.18L54.03,255.6L54.84,249.19L55.24,228.08L56.82,162.64L57.22,169.27L57.63,153.89L58.03,154.72L58.43,164.45L59.65,210.74L60.05,164.3L60.45,231.92L60.86,226.27L61.66,186.61L62.43,254.69L62.84,249.72L63.24,239.09L63.64,291.33L64.05,267.36L64.45,225.59L65.26,265.93L65.66,250.92L66.47,251.83L66.83,261.03L67.24,276.93L67.64,245.5L68.04,231.02L68.85,272.18L70.02,221.37L70.47,192.57L71.24,223.25L71.64,219.56L72.04,167.84L72.85,238.71L73.25,186.46L73.66,197.55L74.06,240.59L74.47,231.85L74.87,256.65L75.64,225.14L76.04,260.27L76.44,266.76L76.85,246.85L77.25,274.45L77.66,239.46L78.06,248.89L78.46,280.55L78.87,264.65L79.23,278.52L79.63,269.55L80.44,251.53L80.85,260.57L81.25,262.38L81.65,257.86L82.46,274.14L83.27,249.64L83.63,230.49L84.04,235.85L84.44,240.75L85.25,187.29L85.65,188.95L86.46,166.18L86.86,164.22L87.27,172.82L88.44,132.56L88.84,168.37L89.65,152.54L90.46,196.57L91.67,250.32L92.07,244.74L92.44,208.93L92.84,194.83L93.24,227.63L94.05,196.26L94.46,233.28L96.07,262.08L96.43,249.04L96.84,263.44L97.28,257.11L97.65,247.98L98.05,246.48L98.45,227.17L99.26,226.5L99.66,209.68L100.84,112.43L101.24,142.43L101.64,139.04L102.05,139.27L102.41,128.94L103.26,94.94L103.66,139.57L104.07,201.99L104.47,195.81L104.87,115.07L105.64,216.54L106.05,174.93L106.85,221.07L107.26,203.43L108.47,253.71L108.87,241.27L109.28,239.31L109.68,230.12L110.08,250.25L110.49,238.03L110.89,239.84L111.7,209.53L112.51,253.49L114.49,165.88L114.89,198L115.7,167.16L116.5,148.09L116.91,129.47L117.31,155.25L117.72,162.11L118.12,145.07L118.48,152.61L118.89,177.94L119.69,195.06L120.1,177.19L120.5,155.7L120.91,196.79L121.31,187.59L121.71,238.03L122.12,235.47L122.52,218.2L122.93,221.67L123.29,237.73L124.1,226.04L124.5,240.67L124.9,235.09L125.31,247.46L126.12,223.48L126.52,236.3L127.69,206.82L128.09,206.44L128.5,203.05L128.9,184.43L130.11,160.9L130.52,145.68L130.92,158.12L131.32,110.54L131.73,124.11L132.09,178.17L132.9,123.59L133.3,165.73L134.11,210.81L134.51,183.97L136.9,258.76L137.3,250.55L138.11,225.74L138.51,234.64L138.92,241.95L139.32,233.73L139.68,238.41L140.13,254.99L140.53,241.2L141.3,243.08L141.7,223.33L142.11,228.76L142.51,247.38L142.95,219.26L143.32,228.15L143.72,220.84L144.89,162.86L145.3,183.52L146.51,144.54L146.91,169.65L147.28,134.06L147.72,164.37L148.49,137.08L148.89,197.92L149.7,162.26L150.1,210.36L150.51,239.92L150.91,198.22L151.31,205.54L151.68,246.93L152.12,241.95L152.53,227.85L153.29,243.46L153.7,235.02L154.14,220.46L154.54,249.26L154.91,254.62L155.31,277.69L157.74,212.02L158.1,229.06L158.5,218.43L158.95,183.52L160.12,150.27L160.52,172.06L160.93,146.05L161.49,169.8L161.61,95.99L162.1,103.53L162.5,157.89L163.31,207.35L163.75,187.9L164.12,223.25L164.52,184.2L164.92,258.84L165.33,223.03L165.73,209.53L167.35,256.05L167.71,245.12L169.73,273.01L170.13,257.78L170.54,237.35L170.94,252.05L171.3,241.73L171.75,236.6L172.15,254.99L174.13,172.97L174.53,142.21L174.94,147.48L175.34,190.76L176.55,162.19L176.92,167.69L177.36,198L177.76,157.44L178.57,256.43L178.94,237.05L179.34,224.61L179.74,251.53L180.15,202.52L180.55,266.45L181,256.28L181.36,250.92L182.57,283.27L182.97,254.77L183.74,266.23L184.15,262.76L184.55,273.24L184.95,243.54L185.36,239.99L185.8,256.05L186.57,265.32L186.97,262.91L187.38,212.85L187.78,189.63L188.18,213.98L188.55,224.54" style="vector-effect: none; fill: none; stroke: rgb(255, 161, 90); stroke-opacity: 1; stroke-width: 2px; opacity: 1;"/></g><g class="points"/><g class="text"/></g></g></g><g class="overplot"/><path class="xlines-above crisp" d="M0,0" style="fill: none;"/><path class="ylines-above crisp" d="M0,0" style="fill: none;"/><g class="overlines-above"/><g class="xaxislayer-above"><g class="xtick"><text text-anchor="middle" x="0" y="433" transform="translate(110.09,0)" style="font-family: 'Open Sans', verdana, arial, sans-serif; font-size: 12px; fill: rgb(42, 63, 95); fill-opacity: 1; white-space: pre; opacity: 1;">1995</text></g><g class="xtick"><text text-anchor="middle" x="0" y="433" style="font-family: 'Open Sans', verdana, arial, sans-serif; font-size: 12px; fill: rgb(42, 63, 95); fill-opacity: 1; white-space: pre; opacity: 1;" transform="translate(183.82,0)">2000</text></g><g class="xtick"><text text-anchor="middle" x="0" y="433" style="font-family: 'Open Sans', verdana, arial, sans-serif; font-size: 12px; fill: rgb(42, 63, 95); fill-opacity: 1; white-space: pre; opacity: 1;" transform="translate(257.6,0)">2005</text></g><g class="xtick"><text text-anchor="middle" x="0" y="433" style="font-family: 'Open Sans', verdana, arial, sans-serif; font-size: 12px; fill: rgb(42, 63, 95); fill-opacity: 1; white-space: pre; opacity: 1;" transform="translate(331.34000000000003,0)">2010</text></g><g class="xtick"><text text-anchor="middle" x="0" y="433" style="font-family: 'Open Sans', verdana, arial, sans-serif; font-size: 12px; fill: rgb(42, 63, 95); fill-opacity: 1; white-space: pre; opacity: 1;" transform="translate(405.08,0)">2015</text></g><g class="xtick"><text text-anchor="middle" x="0" y="433" style="font-family: 'Open Sans', verdana, arial, sans-serif; font-size: 12px; fill: rgb(42, 63, 95); fill-opacity: 1; white-space: pre; opacity: 1;" transform="translate(478.82,0)">2020</text></g></g><g class="yaxislayer-above"><g class="ytick"><text text-anchor="end" x="79" y="4.199999999999999" transform="translate(0,393.31)" style="font-family: 'Open Sans', verdana, arial, sans-serif; font-size: 12px; fill: rgb(42, 63, 95); fill-opacity: 1; white-space: pre; opacity: 1;">−100</text></g><g class="ytick"><text text-anchor="end" x="79" y="4.199999999999999" style="font-family: 'Open Sans', verdana, arial, sans-serif; font-size: 12px; fill: rgb(42, 63, 95); fill-opacity: 1; white-space: pre; opacity: 1;" transform="translate(0,355.61)">−50</text></g><g class="ytick"><text text-anchor="end" x="79" y="4.199999999999999" style="font-family: 'Open Sans', verdana, arial, sans-serif; font-size: 12px; fill: rgb(42, 63, 95); fill-opacity: 1; white-space: pre; opacity: 1;" transform="translate(0,317.91999999999996)">0</text></g><g class="ytick"><text text-anchor="end" x="79" y="4.199999999999999" style="font-family: 'Open Sans', verdana, arial, sans-serif; font-size: 12px; fill: rgb(42, 63, 95); fill-opacity: 1; white-space: pre; opacity: 1;" transform="translate(0,280.22)">50</text></g><g class="ytick"><text text-anchor="end" x="79" y="4.199999999999999" style="font-family: 'Open Sans', verdana, arial, sans-serif; font-size: 12px; fill: rgb(42, 63, 95); fill-opacity: 1; white-space: pre; opacity: 1;" transform="translate(0,242.52)">100</text></g><g class="ytick"><text text-anchor="end" x="79" y="4.199999999999999" style="font-family: 'Open Sans', verdana, arial, sans-serif; font-size: 12px; fill: rgb(42, 63, 95); fill-opacity: 1; white-space: pre; opacity: 1;" transform="translate(0,204.82999999999998)">150</text></g><g class="ytick"><text text-anchor="end" x="79" y="4.199999999999999" style="font-family: 'Open Sans', verdana, arial, sans-serif; font-size: 12px; fill: rgb(42, 63, 95); fill-opacity: 1; white-space: pre; opacity: 1;" transform="translate(0,167.13)">200</text></g><g class="ytick"><text text-anchor="end" x="79" y="4.199999999999999" style="font-family: 'Open Sans', verdana, arial, sans-serif; font-size: 12px; fill: rgb(42, 63, 95); fill-opacity: 1; white-space: pre; opacity: 1;" transform="translate(0,129.43)">250</text></g></g><g class="overaxes-above"/></g></g><g class="polarlayer"/><g class="smithlayer"/><g class="ternarylayer"/><g class="geolayer"/><g class="funnelarealayer"/><g class="pielayer"/><g class="iciclelayer"/><g class="treemaplayer"/><g class="sunburstlayer"/><g class="glimages"/><defs id="topdefs-b24721"><g class="clips"/><clipPath id="legendb24721"><rect width="139" height="105" x="0" y="0"/></clipPath></defs><g class="layer-above"><g class="imagelayer"/><g class="shapelayer"/></g><g class="infolayer"><g class="legend" pointer-events="all" transform="translate(549.2,100)"><rect class="bg" shape-rendering="crispEdges" width="139" height="105" x="0" y="0" style="stroke: rgb(68, 68, 68); stroke-opacity: 1; fill: rgb(255, 255, 255); fill-opacity: 1; stroke-width: 0px;"/><g class="scrollbox" transform="" clip-path="url(#legendb24721)"><g class="groups"><g class="traces" transform="translate(0,14.5)" style="opacity: 1;"><text class="legendtext" text-anchor="start" x="40" y="4.680000000000001" style="font-family: 'Open Sans', verdana, arial, sans-serif; font-size: 12px; fill: rgb(42, 63, 95); fill-opacity: 1; white-space: pre;">Jason.1</text><g class="layers" style="opacity: 1;"><g class="legendfill"/><g class="legendlines"><path class="js-line" d="M5,0h30" style="fill: none; stroke: rgb(99, 110, 250); stroke-opacity: 1; stroke-width: 2px;"/></g><g class="legendsymbols"><g class="legendpoints"/></g></g><rect class="legendtoggle" x="0" y="-9.5" width="133.84375" height="19" style="fill: rgb(0, 0, 0); fill-opacity: 0;"/></g><g class="traces" transform="translate(0,33.5)" style="opacity: 1;"><text class="legendtext" text-anchor="start" x="40" y="4.680000000000001" style="font-family: 'Open Sans', verdana, arial, sans-serif; font-size: 12px; fill: rgb(42, 63, 95); fill-opacity: 1; white-space: pre;">Jason.2</text><g class="layers" style="opacity: 1;"><g class="legendfill"/><g class="legendlines"><path class="js-line" d="M5,0h30" style="fill: none; stroke: rgb(239, 85, 59); stroke-opacity: 1; stroke-width: 2px;"/></g><g class="legendsymbols"><g class="legendpoints"/></g></g><rect class="legendtoggle" x="0" y="-9.5" width="133.84375" height="19" style="fill: rgb(0, 0, 0); fill-opacity: 0;"/></g><g class="traces" transform="translate(0,52.5)" style="opacity: 1;"><text class="legendtext" text-anchor="start" x="40" y="4.680000000000001" style="font-family: 'Open Sans', verdana, arial, sans-serif; font-size: 12px; fill: rgb(42, 63, 95); fill-opacity: 1; white-space: pre;">Jason.3</text><g class="layers" style="opacity: 1;"><g class="legendfill"/><g class="legendlines"><path class="js-line" d="M5,0h30" style="fill: none; stroke: rgb(0, 204, 150); stroke-opacity: 1; stroke-width: 2px;"/></g><g class="legendsymbols"><g class="legendpoints"/></g></g><rect class="legendtoggle" x="0" y="-9.5" width="133.84375" height="19" style="fill: rgb(0, 0, 0); fill-opacity: 0;"/></g><g class="traces" transform="translate(0,71.5)" style="opacity: 1;"><text class="legendtext" text-anchor="start" x="40" y="4.680000000000001" style="font-family: 'Open Sans', verdana, arial, sans-serif; font-size: 12px; fill: rgb(42, 63, 95); fill-opacity: 1; white-space: pre;">Sentinel-6MF</text><g class="layers" style="opacity: 1;"><g class="legendfill"/><g class="legendlines"><path class="js-line" d="M5,0h30" style="fill: none; stroke: rgb(171, 99, 250); stroke-opacity: 1; stroke-width: 2px;"/></g><g class="legendsymbols"><g class="legendpoints"/></g></g><rect class="legendtoggle" x="0" y="-9.5" width="133.84375" height="19" style="fill: rgb(0, 0, 0); fill-opacity: 0;"/></g><g class="traces" transform="translate(0,90.5)" style="opacity: 1;"><text class="legendtext" text-anchor="start" x="40" y="4.680000000000001" style="font-family: 'Open Sans', verdana, arial, sans-serif; font-size: 12px; fill: rgb(42, 63, 95); fill-opacity: 1; white-space: pre;">TOPEX.Poseidon</text><g class="layers" style="opacity: 1;"><g class="legendfill"/><g class="legendlines"><path class="js-line" d="M5,0h30" style="fill: none; stroke: rgb(255, 161, 90); stroke-opacity: 1; stroke-width: 2px;"/></g><g class="legendsymbols"><g class="legendpoints"/></g></g><rect class="legendtoggle" x="0" y="-9.5" width="133.84375" height="19" style="fill: rgb(0, 0, 0); fill-opacity: 0;"/></g></g></g><rect class="scrollbar" rx="20" ry="3" width="0" height="0" x="0" y="0" style="fill: rgb(128, 139, 164); fill-opacity: 1;"/></g><g class="g-gtitle"><text class="gtitle" x="35" y="50" text-anchor="start" dy="0em" style="font-family: 'Open Sans', verdana, arial, sans-serif; font-size: 17px; fill: rgb(42, 63, 95); opacity: 1; font-weight: normal; white-space: pre;">Mean Sea Levels Changing - South China</text></g><g class="g-xtitle"><text class="xtitle" x="310" y="460.3" text-anchor="middle" style="font-family: 'Open Sans', verdana, arial, sans-serif; font-size: 14px; fill: rgb(42, 63, 95); opacity: 1; font-weight: normal; white-space: pre;">Date</text></g><g class="g-ytitle"><text class="ytitle" transform="rotate(-90,27.668750000000003,260)" x="27.668750000000003" y="260" text-anchor="middle" style="font-family: 'Open Sans', verdana, arial, sans-serif; font-size: 14px; fill: rgb(42, 63, 95); opacity: 1; font-weight: normal; white-space: pre;">Change in Sea Level [mm]</text></g></g></svg>