<svg class="main-svg" xmlns="http://www.w3.org/2000/svg" xmlns:xlink="http://www.w3.org/1999/xlink" width="700" height="500" style="" viewBox="0 0 700 500"><rect x="0" y="0" width="700" height="500" style="fill: rgb(255, 255, 255); fill-opacity: 1;"/><defs id="defs-0bee73"><g class="clips"><clipPath id="clip0bee73xyplot" class="plotclip"><rect width="460" height="320"/></clipPath><clipPath class="axesclip" id="clip0bee73x"><rect x="80" y="0" width="460" height="500"/></clipPath><clipPath class="axesclip" id="clip0bee73y"><rect x="0" y="100" width="700" height="320"/></clipPath><clipPath class="axesclip" id="clip0bee73xy"><rect x="80" y="100" width="460" height="320"/></clipPath></g><g class="gradients"/><g class="patterns"/></defs><g class="bglayer"><rect class="bg" x="80" y="100" width="460" height="320" style="fill: rgb(229, 236, 246); fill-opacity: 1; stroke-width: 0;"/></g><g class="layer-below"><g class="imagelayer"/><g class="shapelayer"/></g><g class="cartesianlayer"><g class="subplot xy"><g class="layer-subplot"><g class="shapelayer"/><g class="imagelayer"/></g><g class="minor-gridlayer"><g class="x"/><g class="y"/></g><g class="gridlayer"><g class="x"><path class="xgrid crisp" transform="translate(110.09,0)" d="M0,100v320" style="stroke: rgb(255, 255, 255); stroke-opacity: 1; stroke-width: 1px;"/><path class="xgrid crisp" transform="translate(183.82999999999998,0)" d="M0,100v320" style="stroke: rgb(255, 255, 255); stroke-opacity: 1; stroke-width: 1px;"/><path class="xgrid crisp" transform="translate(257.62,0)" d="M0,100v320" style="stroke: rgb(255, 255, 255); stroke-opacity: 1; stroke-width: 1px;"/><path class="xgrid crisp" transform="translate(331.36,0)" d="M0,100v320" style="stroke: rgb(255, 255, 255); stroke-opacity: 1; stroke-width: 1px;"/><path class="xgrid crisp" transform="translate(405.11,0)" d="M0,100v320" style="stroke: rgb(255, 255, 255); stroke-opacity: 1; stroke-width: 1px;"/><path class="xgrid crisp" transform="translate(478.86,0)" d="M0,100v320" style="stroke: rgb(255, 255, 255); stroke-opacity: 1; stroke-width: 1px;"/></g><g class="y"><path class="ygrid crisp" transform="translate(0,387.06)" d="M80,0h460" style="stroke: rgb(255, 255, 255); stroke-opacity: 1; stroke-width: 1px;"/><path class="ygrid crisp" transform="translate(0,331.84000000000003)" d="M80,0h460" style="stroke: rgb(255, 255, 255); stroke-opacity: 1; stroke-width: 1px;"/><path class="ygrid crisp" transform="translate(0,221.39)" d="M80,0h460" style="stroke: rgb(255, 255, 255); stroke-opacity: 1; stroke-width: 1px;"/><path class="ygrid crisp" transform="translate(0,166.17000000000002)" d="M80,0h460" style="stroke: rgb(255, 255, 255); stroke-opacity: 1; stroke-width: 1px;"/><path class="ygrid crisp" transform="translate(0,110.95)" d="M80,0h460" style="stroke: rgb(255, 255, 255); stroke-opacity: 1; stroke-width: 1px;"/></g></g><g class="zerolinelayer"><path class="yzl zl crisp" transform="translate(0,276.62)" d="M80,0h460" style="stroke: rgb(255, 255, 255); stroke-opacity: 1; stroke-width: 2px;"/></g><g class="layer-between"><g class="shapelayer"/><g class="imagelayer"/></g><path class="xlines-below"/><path class="ylines-below"/><g class="overlines-below"/><g class="xaxislayer-below"/><g class="yaxislayer-below"/><g class="overaxes-below"/><g class="plot" transform="translate(80,100)" clip-path="url(#clip0bee73xyplot)"><g class="scatterlayer mlayer"><g class="trace scatter trace797d61" style="stroke-miterlimit: 2; opacity: 1;"><g class="fills"/><g class="errorbars"/><g class="lines"><path class="js-line" d="M134.12,249.44L134.53,272.57L134.93,234.42L136.1,282.57L136.51,245.18L136.91,242.92L137.31,234.14L137.72,229.94L138.12,205.87L139.33,91.45L139.74,142.53L140.5,112.16L140.95,137.83L141.31,115.91L141.72,130.82L142.12,115.8L142.93,148.16L143.33,187.04L144.1,182.51L144.54,198.69L145.75,167.87L146.12,194.99L146.93,150.98L147.33,171.52L147.73,186.48L148.14,152.8L149.31,231.1L149.71,220.56L150.12,226.46L150.52,253.41L152.94,196.37L153.31,149.82L153.71,77.31L154.11,89.13L154.52,121.49L155.73,201.39L156.13,182.62L156.54,196.2L156.94,154.07L157.71,131.65L158.11,144.02L158.92,158.71L159.32,171.35L159.73,133.36L160.13,140.48L160.54,146.61L160.94,135.74L161.75,149.71L162.15,142.86L162.51,156.66L164.13,250.87L164.53,257.94L164.98,252.64L165.34,231.32L165.75,234.2L166.15,193.99L166.47,201.89L166.96,183.83L167.36,191.9L167.72,167.71L168.94,88.63L169.34,90.18L170.96,151.09L171.36,147.61L171.76,139.05L172.17,160.25L172.57,155.39L172.97,125.8L173.78,175.16L174.15,170.86L174.59,149.1L174.95,197.42L175.36,180.96L175.76,176.88L176.17,144.79L176.57,160.92L176.97,171.91L178.18,205.54L178.59,209.12L178.99,221.33L179.4,219.51L179.8,264.57L180.2,258.05L180.57,277.82L181.78,168.32L182.18,178.48L182.59,175.22L182.99,163.95L183.39,122.26L183.8,143.63L184.2,129.94L184.57,120.33L184.97,125.8L185.37,146.45L185.78,147.06L186.18,131.26L186.58,129.55L186.99,165.89L187.39,178.42L187.8,131.43L188.08,83L188.64,158.82L189.01,162.74L189.41,116.35L189.78,131.43L190.18,100.01L190.58,93.82L190.99,109.51L191.39,142.31L191.79,131.87L192.2,104.48L194.18,244.85L194.58,222.99L194.99,243.09L195.39,221.11L195.79,217.13L196.2,199.85L197.81,136.29L198.18,147.66L198.58,140.54L198.98,176.49L199.39,181.57L199.79,147.17L200.19,147.83L200.6,125.63L202.58,200.12L202.98,176.38L203.39,194.44L203.75,169.42L204.52,191.67L205.45,209.18L205.81,248.99L206.17,226.41L206.62,239.83L207.38,224.26L207.79,231.49L208.19,226.63L208.6,254.3L209,237.78L209.4,262.08L209.81,276L210.17,260.81L212.19,132.97L212.59,125.19L213.4,193.88L213.81,182.62L214.21,166.71L214.61,147.39L214.98,164.62L215.38,152.47L216.19,105.42L216.59,175.5L217,164.4L217.4,191.56L217.8,159.54L218.21,182.4L218.61,171.68L219.01,164.45L219.38,135.4L220.19,103.71L220.59,134.36L220.99,161.41L221.4,154.29L221.8,151.53L222.21,154.35L222.61,175.33L223.01,201.61L223.42,175L224.18,187.7L224.63,167.93L225.4,131.37L225.8,143.47L226.2,155.28L226.61,94.6L226.93,95.42L227.42,123.92L228.22,190.9L228.63,177.98L229.03,170.14L229.43,179.75L229.84,169.48L230.61,108.29L231.41,163.79L231.86,152.58L232.22,118.18L233.03,145.68L233.43,137.72L233.84,131.43L234.24,83.22L234.64,110.94L235.05,109.06L235.45,96.64L235.86,116.3L237.43,204.32L238.44,239.33L240.06,183.94L240.46,193.66L241.67,121.16L242.08,141.64L242.84,107.35L243.25,107.57L243.65,139.88L244.05,144.57L244.46,165.22L244.86,163.13L245.27,189.41L245.63,184.61L246.07,133.42L246.48,111.88L246.8,149.71L247.45,145.95L247.65,133.58L248.46,122.15L248.9,151.25L249.26,161.69L249.67,146.56L250.03,120.33L250.44,135.9L250.88,146.84L251.24,160.53L251.65,129.99L252.86,242.04L253.26,226.52L253.67,238.72L254.07,216.86L254.47,249.99L255.65,157.16L256.05,167.43L256.86,141.37L257.26,109.56L258.88,148.93L259.28,128L259.68,110.33L260.05,132.64L260.45,140.21L260.9,83.17L261.66,99.9L262.07,147.77L262.87,42.58L263.28,53.24L263.68,89.74L264.09,80.68L264.45,117.84L264.85,91.23L265.26,94.71L265.66,94.1L267.68,187.64L268.08,171.02L268.45,193.17L268.85,181.29L269.3,193.28L270.06,159.48L270.47,180.46L270.87,174.06L271.27,134.02L271.68,130.1L272.08,145.4L272.49,146.56L272.85,123.75L273.29,156.55L273.66,132.15L274.06,120.55L274.47,115.52L274.87,140.65L275.68,153.35L276.08,169.14L276.89,178.2L277.29,142.14L278.06,151.97L278.5,171.08L278.87,144.41L279.27,152.8L279.68,151.86L280.89,108.46L281.29,134.58L283.31,208.63L286.26,121.38L287.11,117.9L287.55,105.14L287.87,111.44L288.2,109.84L288.64,149.38L289.49,120.55L289.77,139.77L290.09,134.02L290.62,158.27L290.94,152.3L291.39,164.4L291.71,138.83L292.03,173.01L292.44,147.94L292.88,155.23L293.2,146.28L293.93,87.53L294.42,100.12L294.82,108.07L295.47,147.83L295.87,123.81L297.77,188.31L298.86,184.94L299.3,193.94L299.71,178.09L300.43,124.91L300.8,127.89L301.2,49.48L301.65,60.8L302.09,104.43L302.37,83.5L302.53,100.5" style="vector-effect: none; fill: none; stroke: rgb(99, 110, 250); stroke-opacity: 1; stroke-width: 2px; opacity: 1;"/></g><g class="points"/><g class="text"/></g><g class="trace scatter trace12d377" style="stroke-miterlimit: 2; opacity: 1;"><g class="fills"/><g class="errorbars"/><g class="lines"><path class="js-line" d="M229.47,181.06L229.84,170.95L230.24,130.75L230.65,107.34L231.05,137.49L231.41,167.75L231.86,146.76L232.22,123.35L232.63,126.22L233.03,143.89L233.43,142.01L233.84,135.22L234.24,77.13L234.64,108.33L235.05,119.87L235.45,90.82L235.86,108.99L236.26,138.54L236.66,145L237.07,173.66L238.24,230.31L238.64,202.65L239.05,208.89L239.45,201.87L239.85,178.74L240.26,190.77L240.62,188.18L241.47,125.34L241.83,146.05L242.24,135.17L242.64,95.85L243.04,99.11L243.45,124.07L244.26,157.81L244.66,155.32L245.06,157.37L245.47,159.19L245.87,170.84L246.64,132.3L247.04,139.64L247.45,134.28L247.85,127.05L248.25,132.24L248.66,133.73L249.06,178.57L249.47,155.87L249.83,126.99L251.04,150.35L251.45,145L251.85,150.85L252.25,174.26L253.46,239.31L253.87,235.5L254.27,243.46L254.68,219.88L255.08,206.57L255.44,157.59L255.85,164.54L256.25,149.64L256.65,157.37L257.06,106.23L258.67,136.71L259.04,138.59L259.44,138.09L259.85,117.94L260.65,136.66L261.06,92.92L261.46,99.16L261.86,127.38L263.08,48.86L263.44,80.44L264.25,107.11L264.65,89.22L265.06,49.46L265.46,93.09L266.67,133.46L267.07,148.31L267.48,195.74L267.88,168.85L268.25,197.51L269.46,165.7L269.86,173.82L271.07,152.73L271.48,119.54L272.28,137.65L272.69,135.28L273.05,154.11L273.46,140.8L273.86,146.82L274.26,112.31L274.67,152.62L275.07,143.73L275.47,187.68L275.88,162.67L276.28,172L276.69,167.47L277.09,161.95L277.45,144.94L277.86,141.3L278.26,160.35L278.67,128.43L279.07,153.06L279.47,175.09L280.68,120.75L281.09,117.33L283.07,194.92L283.47,208.67L285.09,155.49L285.49,152.34L287.11,98.06L287.51,101.87L288.28,133.23L288.68,151.73L289.49,109.65L289.89,130.86L290.7,161.84L291.1,139.75L291.91,162.61L292.32,148.09L292.72,142.57L293.12,160.13L294.29,87.24L294.7,85.47L295.51,147.54L295.91,113.3L297.93,208.22L298.33,183.54L298.74,181.39L299.1,211.54L300.31,130.42L300.72,122.08L301.12,45.27L301.52,46.76L301.93,76.91L302.33,83.31L302.7,110.21L303.1,114.51L303.5,133.73L303.91,136.49L304.31,145.6L304.71,94.41L305.12,136.16L305.52,136.49L306.01,137.93L306.33,105.07L307.54,142.12L307.91,127.44L308.31,125.83L308.71,130.97L309.52,164.38L309.92,124.23L310.73,168.19L311.14,198.62L311.54,226.34L311.94,219.05L312.31,227.28L313.12,244.78L313.52,239.76L314.73,197.68L315.13,152.18L317.11,84.36L317.52,92.87L317.92,63.43L318.32,73.82L318.73,95.52L319.13,96.79L319.54,126.22L321.11,163.72L321.56,136.22L321.96,154.16L322.32,140.3L322.73,132.68L323.53,103.91L323.94,112.47L324.34,109.93L324.79,135.77L325.15,76.47L325.51,103.97L325.92,140.97L327.53,220.26L327.94,224.79L329.51,172.28L329.92,162.72L330.36,148.25L330.72,110.65L331.53,128.32L331.94,113.96L332.34,112.58L332.74,113.8L333.15,122.69L334.32,148.36L334.72,128.37L335.53,159.74L335.93,152.95L336.34,154.88L336.74,163.11L337.14,153.39L337.55,177.19L339.12,110.65L339.53,112.58L339.93,159.24L341.14,204.19L341.55,200L341.95,187.41L342.35,223.36L343.57,172.11L343.93,191.71L345.18,111.97L345.55,56.2L346.76,16L347.16,18.1L347.97,85.63L348.37,68.74L349.18,100.99L349.58,84.97L349.99,69.67L350.39,78.62L350.76,80.61L352.17,106.95L352.57,101.59L353.38,71.83L353.78,88.95L354.19,98.78L354.59,150.91L355,122.41L355.4,148.03L356.97,215.9L357.38,201.93L357.58,237.6L358.27,213.14L359.4,132.68L359.8,160.35L360.08,152.01" style="vector-effect: none; fill: none; stroke: rgb(239, 85, 59); stroke-opacity: 1; stroke-width: 2px; opacity: 1;"/></g><g class="points"/><g class="text"/></g><g class="trace scatter trace3ea40e" style="stroke-miterlimit: 2; opacity: 1;"><g class="fills"/><g class="errorbars"/><g class="lines"><path class="js-line" d="M341.63,183.87L341.95,186.96L342.35,214.96L342.72,208.66L343.16,187.12L343.97,190.27L344.33,172.44L346.76,17.6L347.16,17.04L347.97,91.1L348.37,62.82L349.18,90.87L349.58,82.04L349.99,72.1L350.35,73.42L350.76,67.07L351.16,97.56L351.56,97.39L351.97,98.72L352.77,72.87L353.18,86.57L354.39,118.48L354.79,126.71L355.2,121.69L355.56,152.17L355.96,209.6L356.37,188.89L356.77,206.73L357.18,183.37L357.58,209.93L359.2,151.89L359.56,137.32L359.96,149.91L360.37,142.01L360.77,111.86L361.17,104.29L361.58,135.93L361.98,137.04L362.39,126.71L362.79,105.84L363.19,134.66L364,122.63L364.41,156.86L364.81,146.37L365.17,95.57L365.58,97.11L365.98,130.47L366.42,65.69L366.79,100.26L367.19,112.19L367.6,124.84L368,95.9L368.4,91.1L368.81,107.72L369.98,167.08L370.38,160.4L371.59,216.5L372,211.26L372.4,204.13L372.81,184.42L373.21,188.01L373.57,190.16L373.98,191.76L374.38,148.41L374.78,139.86L375.19,166.09L376,97.94L376.4,114.9L376.8,136.76L377.21,103.19L377.61,124.28L377.98,108.32L378.38,78.5L378.78,93.14L379.19,123.45L379.59,149.35L379.99,134.22L380.4,142.06L381.21,126.93L381.61,147.48L382.01,130.58L382.42,52.27L383.19,124.39L383.59,104.46L385.2,220.64L385.61,197.45L385.97,231.74L386.25,229.92L386.82,213.8L387.18,192.65L387.59,195.52L387.91,216.56L388.8,145.93L389.2,111.2L390.37,151.89L390.78,106.39L391.18,125.39L391.59,104.57L391.99,123.01L392.39,117.33L392.8,111.75L393.2,103.74L393.6,143.44L394.01,144.83L394.41,141.13L395.58,200.87L395.99,198.5L396.39,200.82L396.8,174.48L397.2,194.52L397.6,212.14L398.01,239.86L398.41,212.31L398.81,223.02L399.22,205.79L399.62,222.47L399.95,210.32L400.83,212.69L401.2,224.34L401.6,212.91L402.01,224.51L402.41,183.65L402.81,193.2L403.22,161.12L403.62,166.53L404.02,152.11L404.83,22.79L405.24,65.42L405.56,70.72L406.85,123.12L407.26,129.42L408.02,88.94L408.43,108.77L408.83,103.8L409.23,130.63L409.64,107.16L410.04,118.93L410.45,112.52L411.25,72.6L411.66,93.75L412.47,89.44L412.87,80.33L414.04,133.67L414.44,108.82L414.85,111.8L415.25,134.66L416.42,172.93L416.87,174.26L418.04,106.61L418.44,124.28L418.85,120.86L419.25,130.74L419.65,125.61L420.06,43.27L420.87,84.14L421.27,75.74L421.67,82.54L423.25,100.76L423.65,109.93L424.46,126.77L424.86,88.22L425.67,99.1L426.08,61.61L426.44,42.89L426.84,47.8L427.25,49.29L428.46,141.9L428.86,149.8L429.67,199.6L430.07,195.9L430.48,168.74L430.84,190.99L431.24,174.76L431.65,153.94L432.05,150.29L432.25,30.13L433.02,139.08L433.35,138.42L433.75,49.9L434.15,53.54L434.56,74.47L435.36,113.07L435.77,73.37L436.13,77.9L436.54,94.91L436.94,89.71L437.34,91.92L437.75,99.93L439.77,68.51L440.17,69.84L440.53,98.77L441.34,71.82L441.75,72.32L442.15,85.46L443.36,105.51L443.76,140.35L444.17,139.69L444.57,172.1L445.34,174.64L445.74,172.88L446.15,177.13L446.55,209.65L446.96,216.56L447.36,206.01L448.17,153.66L448.57,92.97L448.97,91.54L449.34,102.91L450.95,135.05L451.36,114.01L451.76,149.57L452.17,147.97L452.57,141.01L452.97,143.61L453.38,160.12L453.74,144.33L454.14,160.51L454.99,210.98L456.16,226.17L456.57,220.53L456.97,227.66L458.95,152.28L459.35,168.57L459.76,201.7L460,148.58" style="vector-effect: none; fill: none; stroke: rgb(0, 204, 150); stroke-opacity: 1; stroke-width: 2px; opacity: 1;"/></g><g class="points"/><g class="text"/></g><g class="trace scatter trace73d6f3" style="stroke-miterlimit: 2; opacity: 1;"><g class="fills"/><g class="errorbars"/><g class="lines"><path class="js-line" d="M413.27,93.51L413.64,95L414.04,121.51L414.44,110.91L414.85,111.74L415.25,132.11L416.46,179.82L416.91,162.04L417.27,152.49L417.63,121.9L418.08,103.18L418.48,122.84L418.85,137.58L419.25,124.88L419.65,119.25L420.06,39.78L420.46,60.66L420.87,86.89L421.27,71.2L421.67,79.76L422.04,82.97L422.44,79.54L422.84,85.45L423.25,90.59L423.65,109.97L424.06,124.22L424.46,121.23L424.86,80.7L425.67,102.51L426.08,72.47L426.44,44.53L426.84,45.42L427.25,41.88L428.46,141.72L428.86,160.17L429.67,201.14L430.07,193.13L430.48,169.61L430.88,187.11L431.24,177.67L431.65,149.34L432.46,145.53L432.86,123.06L433.26,129.74L433.67,63.25L434.07,62.76L434.48,52.48L435.28,89.26L435.65,87.38L436.05,80.43L436.45,107.1L436.86,100.03L437.26,80.37L437.67,87.27L438.07,125.27L438.47,63.86L438.88,87.38L439.28,80.43L439.65,99.2L440.05,59.11L441.26,102.13L441.66,98.48L442.07,79.1L442.47,108.04L442.88,90.86L443.28,109.64L444.09,177.34L444.45,166.74L444.86,145.26L446.47,210.97L446.87,188.83L448.09,175.35L448.45,107.98L448.85,82.14L449.26,100.2L449.66,102.85L450.47,114.99L450.87,111.02L452.49,140.12L452.85,135.81L453.3,152.16L453.66,140.84L454.06,150.28L455.27,201.19L455.68,207.32L456.08,225.88L456.49,219.25L456.89,220.85" style="vector-effect: none; fill: none; stroke: rgb(171, 99, 250); stroke-opacity: 1; stroke-width: 2px; opacity: 1;"/></g><g class="points"/><g class="text"/></g><g class="trace scatter traceeede0f" style="stroke-miterlimit: 2; opacity: 1;"><g class="fills"/><g class="errorbars"/><g class="lines"><path class="js-line" d="M0,184.83L0.36,181.8L0.77,229.18L2.38,286.77L2.83,262.03L3.19,280.7L3.55,231.16L3.96,241.77L4.77,220.12L5.98,175.56L6.38,177.82L7.19,127.18L7.59,138.5L7.96,158.16L8.36,155.29L9.17,137.73L9.61,135.13L9.98,124.59L11.59,188.97L11.99,163.24L12.4,143.86L13.21,184.45L13.97,115.75L14.38,155.34L14.78,160.04L15.19,146.56L16.36,210.95L16.76,205.76L17.57,240.22L17.97,230.83L18.78,218.46L19.18,194.88L19.99,221.78L20.35,173.13L21.2,201.07L21.57,195.6L22.01,184.34L22.78,159.38L23.18,160.81L23.59,203.55L24.39,169.48L24.76,175.72L25.56,209.02L26.01,196.32L26.37,184.39L26.78,186.66L27.18,208.19L28.39,239.34L28.8,224.43L29.2,185.94L29.6,229.56L30.37,256.84L30.77,273.9L31.18,279.32L31.58,243.59L31.99,272.08L32.39,233.15L33.2,240.83L33.6,240.72L34.01,223.87L34.77,171.58L35.58,132.32L36.39,120.67L36.79,136.29L38,114.98L38.41,136.85L38.81,130L39.22,154.57L39.58,171.97L39.98,160.87L40.39,173.35L40.79,166.28L41.19,169.04L41.6,146.45L42.41,155.51L42.81,110.89L43.21,61.75L43.98,144.85L45.56,237.57L46,258.99L46.4,247.12L47.21,247.07L47.82,299.69L48.42,262.75L50,126.96L50.4,129.78L51.21,172.57L52.02,147.89L52.42,181.57L52.83,113.1L54.04,165.84L54.44,112.82L54.84,159.71L55.25,125.19L55.65,136.24L56.02,151.48L56.82,105.7L57.27,120.78L57.63,91.79L58.44,130.66L58.84,122.87L60.86,248.5L61.63,234.75L62.03,237.96L62.44,217.08L62.84,202.72L63.24,249.5L63.65,263.36L64.05,233.1L64.86,199.74L65.26,93.88L67.65,221L68.05,198.69L68.86,170.09L69.26,182.79L69.67,186.93L70.03,200.46L70.47,193.83L71.24,247.34L71.65,266.01L72.05,262.31L72.45,257.06L74.07,300.8L74.43,284.51L74.84,284.62L75.64,304L76.86,269.93L77.22,277.44L77.66,267.22L78.07,284.56L79.24,216.59L79.64,225.31L80.85,77.1L81.26,110.39L82.06,162.3L82.43,129L83.28,138.45L83.64,164.73L84.04,119.01L84.45,145.29L84.85,147.28L85.26,147.17L85.66,128.4L86.47,146.56L86.87,130.27L87.27,106.64L87.64,114.87L88.08,153.08L89.66,170.86L90.47,169.59L92.48,230L92.85,198.36L94.06,136.24L94.46,152.2L95.27,138.06L95.68,169.21L96.08,173.13L96.44,188.97L97.65,133.15L98.06,152.58L98.46,201.12L99.27,198.86L99.67,198.97L100.04,194.83L101.25,112.16L101.65,110.45L102.1,115.92L102.46,135.63L103.67,172.57L104.08,182.96L104.48,192.9L104.88,224.92L105.29,208.8L105.65,213.55L106.09,213.27L106.86,177.16L107.27,179.53L108.07,182.46L108.48,138.89L108.88,140.49L109.29,139.11L109.69,145.74L110.09,141.26L110.5,118.68L110.86,138.34L111.3,121.83L111.71,118.62L112.48,152.03L112.88,133.09L113.28,129.83L113.69,130.94L114.09,140.32L114.9,171.8L115.3,152.31L115.71,154.52L116.51,135.24L116.88,151.31L117.32,140.77L117.73,139.11L118.53,184.45L118.9,161.2L120.51,215.37L120.92,212.11L121.72,212.5L122.13,216.03L123.3,197.48L123.7,168.21L124.51,124.42L124.91,134.25L125.32,143.97L125.72,146.12L126.13,104.54L126.89,148.94L127.3,115.53L127.7,119.84L128.11,140.88L128.91,153.91L129.32,146.62L129.72,186.1L130.12,124.48L130.93,133.59L131.34,157.61L132.1,106.03L132.91,170.7L134.53,272.3L134.93,244.09L135.29,262.42L135.74,240.5L136.1,271.7L136.51,247.62L136.91,244.8L137.72,233.21L138.12,207.75L139.33,81.4L139.74,140.93L140.54,111.94L141.31,108.24L141.72,130.55L142.12,107.97L142.48,114.59L142.97,148.39L143.78,190.69L144.14,155.23L144.91,194.61L145.35,162.97L146.12,200.63L146.52,171.75L146.93,151.37L147.37,153.3L147.73,161.86L148.1,149.88L148.54,200.9L148.99,202.56L149.35,200.9L150.56,261.37L150.96,242.7L151.73,220.51L152.18,225.53L152.54,207.86L152.9,220.17L153.35,130.94L153.79,85.88L154.11,96.7L154.48,137.4L156.09,181.46L156.66,175.72L157.35,123.15L157.67,160.98L158.15,130.22L158.56,147.72L158.96,153.36L159.36,165.06L159.73,145.52L160.17,157.83L160.54,146.79L160.9,129.45L161.5,175.78L162.11,133.75L162.51,134.31L162.96,184.23L164.13,255.18L164.57,266.23L164.98,248.94L165.3,264.24L165.71,213.33L166.19,188.75L166.55,198.25L166.96,213.77L167.36,215.54L167.76,155.29L168.49,74.06L169.78,96.2L170.96,148.88L171.32,130.99L172.17,145.02L172.61,162.74L172.93,139.39L173.34,172.52L173.78,170.53L174.19,174.01L174.55,171.08L175.03,189.31L176.17,144.47L176.61,169.7L176.93,192.18L177.42,180.86L177.74,185.05L179.8,283.84L180.12,241.77L181.05,280.2L181.37,235.75L182.99,140.66L183.43,148.06L183.8,144.96L184.2,124.26L184.61,175.33L185.01,124.03L186.22,139.5L186.58,128.84L187.43,172.41L187.76,142.15L188.6,178.32" style="vector-effect: none; fill: none; stroke: rgb(255, 161, 90); stroke-opacity: 1; stroke-width: 2px; opacity: 1;"/></g><g class="points"/><g class="text"/></g></g></g><g class="overplot"/><path class="xlines-above crisp" d="M0,0" style="fill: none;"/><path class="ylines-above crisp" d="M0,0" style="fill: none;"/><g class="overlines-above"/><g class="xaxislayer-above"><g class="xtick"><text text-anchor="middle" x="0" y="433" transform="translate(110.09,0)" style="font-family: 'Open Sans', verdana, arial, sans-serif; font-size: 12px; fill: rgb(42, 63, 95); fill-opacity: 1; white-space: pre; opacity: 1;">1995</text></g><g class="xtick"><text text-anchor="middle" x="0" y="433" style="font-family: 'Open Sans', verdana, arial, sans-serif; font-size: 12px; fill: rgb(42, 63, 95); fill-opacity: 1; white-space: pre; opacity: 1;" transform="translate(183.82999999999998,0)">2000</text></g><g class="xtick"><text text-anchor="middle" x="0" y="433" style="font-family: 'Open Sans', verdana, arial, sans-serif; font-size: 12px; fill: rgb(42, 63, 95); fill-opacity: 1; white-space: pre; opacity: 1;" transform="translate(257.62,0)">2005</text></g><g class="xtick"><text text-anchor="middle" x="0" y="433" style="font-family: 'Open Sans', verdana, arial, sans-serif; font-size: 12px; fill: rgb(42, 63, 95); fill-opacity: 1; white-space: pre; opacity: 1;" transform="translate(331.36,0)">2010</text></g><g class="xtick"><text text-anchor="middle" x="0" y="433" style="font-family: 'Open Sans', verdana, arial, sans-serif; font-size: 12px; fill: rgb(42, 63, 95); fill-opacity: 1; white-space: pre; opacity: 1;" transform="translate(405.11,0)">2015</text></g><g class="xtick"><text text-anchor="middle" x="0" y="433" style="font-family: 'Open Sans', verdana, arial, sans-serif; font-size: 12px; fill: rgb(42, 63, 95); fill-opacity: 1; white-space: pre; opacity: 1;" transform="translate(478.86,0)">2020</text></g></g><g class="yaxislayer-above"><g class="ytick"><text text-anchor="end" x="79" y="4.199999999999999" transform="translate(0,387.06)" style="font-family: 'Open Sans', verdana, arial, sans-serif; font-size: 12px; fill: rgb(42, 63, 95); fill-opacity: 1; white-space: pre; opacity: 1;">−200</text></g><g class="ytick"><text text-anchor="end" x="79" y="4.199999999999999" style="font-family: 'Open Sans', verdana, arial, sans-serif; font-size: 12px; fill: rgb(42, 63, 95); fill-opacity: 1; white-space: pre; opacity: 1;" transform="translate(0,331.84000000000003)">−100</text></g><g class="ytick"><text text-anchor="end" x="79" y="4.199999999999999" style="font-family: 'Open Sans', verdana, arial, sans-serif; font-size: 12px; fill: rgb(42, 63, 95); fill-opacity: 1; white-space: pre; opacity: 1;" transform="translate(0,276.62)">0</text></g><g class="ytick"><text text-anchor="end" x="79" y="4.199999999999999" style="font-family: 'Open Sans', verdana, arial, sans-serif; font-size: 12px; fill: rgb(42, 63, 95); fill-opacity: 1; white-space: pre; opacity: 1;" transform="translate(0,221.39)">100</text></g><g class="ytick"><text text-anchor="end" x="79" y="4.199999999999999" style="font-family: 'Open Sans', verdana, arial, sans-serif; font-size: 12px; fill: rgb(42, 63, 95); fill-opacity: 1; white-space: pre; opacity: 1;" transform="translate(0,166.17000000000002)">200</text></g><g class="ytick"><text text-anchor="end" x="79" y="4.199999999999999" style="font-family: 'Open Sans', verdana, arial, sans-serif; font-size: 12px; fill: rgb(42, 63, 95); fill-opacity: 1; white-space: pre; opacity: 1;" transform="translate(0,110.95)">300</text></g></g><g class="overaxes-above"/></g></g><g class="polarlayer"/><g class="smithlayer"/><g class="ternarylayer"/><g class="geolayer"/><g class="funnelarealayer"/><g class="pielayer"/><g class="iciclelayer"/><g class="treemaplayer"/><g class="sunburstlayer"/><g class="glimages"/><defs id="topdefs-0bee73"><g class="clips"/><clipPath id="legend0bee73"><rect width="139" height="105" x="0" y="0"/></clipPath></defs><g class="layer-above"><g class="imagelayer"/><g class="shapelayer"/></g><g class="infolayer"><g class="legend" pointer-events="all" transform="translate(549.2,100)"><rect class="bg" shape-rendering="crispEdges" width="139" height="105" x="0" y="0" style="stroke: rgb(68, 68, 68); stroke-opacity: 1; fill: rgb(255, 255, 255); fill-opacity: 1; stroke-width: 0px;"/><g class="scrollbox" transform="" clip-path="url(#legend0bee73)"><g class="groups"><g class="traces" transform="translate(0,14.5)" style="opacity: 1;"><text class="legendtext" text-anchor="start" x="40" y="4.680000000000001" style="font-family: 'Open Sans', verdana, arial, sans-serif; font-size: 12px; fill: rgb(42, 63, 95); fill-opacity: 1; white-space: pre;">Jason.1</text><g class="layers" style="opacity: 1;"><g class="legendfill"/><g class="legendlines"><path class="js-line" d="M5,0h30" style="fill: none; stroke: rgb(99, 110, 250); stroke-opacity: 1; stroke-width: 2px;"/></g><g class="legendsymbols"><g class="legendpoints"/></g></g><rect class="legendtoggle" x="0" y="-9.5" width="133.84375" height="19" style="fill: rgb(0, 0, 0); fill-opacity: 0;"/></g><g class="traces" transform="translate(0,33.5)" style="opacity: 1;"><text class="legendtext" text-anchor="start" x="40" y="4.680000000000001" style="font-family: 'Open Sans', verdana, arial, sans-serif; font-size: 12px; fill: rgb(42, 63, 95); fill-opacity: 1; white-space: pre;">Jason.2</text><g class="layers" style="opacity: 1;"><g class="legendfill"/><g class="legendlines"><path class="js-line" d="M5,0h30" style="fill: none; stroke: rgb(239, 85, 59); stroke-opacity: 1; stroke-width: 2px;"/></g><g class="legendsymbols"><g class="legendpoints"/></g></g><rect class="legendtoggle" x="0" y="-9.5" width="133.84375" height="19" style="fill: rgb(0, 0, 0); fill-opacity: 0;"/></g><g class="traces" transform="translate(0,52.5)" style="opacity: 1;"><text class="legendtext" text-anchor="start" x="40" y="4.680000000000001" style="font-family: 'Open Sans', verdana, arial, sans-serif; font-size: 12px; fill: rgb(42, 63, 95); fill-opacity: 1; white-space: pre;">Jason.3</text><g class="layers" style="opacity: 1;"><g class="legendfill"/><g class="legendlines"><path class="js-line" d="M5,0h30" style="fill: none; stroke: rgb(0, 204, 150); stroke-opacity: 1; stroke-width: 2px;"/></g><g class="legendsymbols"><g class="legendpoints"/></g></g><rect class="legendtoggle" x="0" y="-9.5" width="133.84375" height="19" style="fill: rgb(0, 0, 0); fill-opacity: 0;"/></g><g class="traces" transform="translate(0,71.5)" style="opacity: 1;"><text class="legendtext" text-anchor="start" x="40" y="4.680000000000001" style="font-family: 'Open Sans', verdana, arial, sans-serif; font-size: 12px; fill: rgb(42, 63, 95); fill-opacity: 1; white-space: pre;">Sentinel-6MF</text><g class="layers" style="opacity: 1;"><g class="legendfill"/><g class="legendlines"><path class="js-line" d="M5,0h30" style="fill: none; stroke: rgb(171, 99, 250); stroke-opacity: 1; stroke-width: 2px;"/></g><g class="legendsymbols"><g class="legendpoints"/></g></g><rect class="legendtoggle" x="0" y="-9.5" width="133.84375" height="19" style="fill: rgb(0, 0, 0); fill-opacity: 0;"/></g><g class="traces" transform="translate(0,90.5)" style="opacity: 1;"><text class="legendtext" text-anchor="start" x="40" y="4.680000000000001" style="font-family: 'Open Sans', verdana, arial, sans-serif; font-size: 12px; fill: rgb(42, 63, 95); fill-opacity: 1; white-space: pre;">TOPEX.Poseidon</text><g class="layers" style="opacity: 1;"><g class="legendfill"/><g class="legendlines"><path class="js-line" d="M5,0h30" style="fill: none; stroke: rgb(255, 161, 90); stroke-opacity: 1; stroke-width: 2px;"/></g><g class="legendsymbols"><g class="legendpoints"/></g></g><rect class="legendtoggle" x="0" y="-9.5" width="133.84375" height="19" style="fill: rgb(0, 0, 0); fill-opacity: 0;"/></g></g></g><rect class="scrollbar" rx="20" ry="3" width="0" height="0" x="0" y="0" style="fill: rgb(128, 139, 164); fill-opacity: 1;"/></g><g class="g-gtitle"><text class="gtitle" x="35" y="50" text-anchor="start" dy="0em" style="font-family: 'Open Sans', verdana, arial, sans-serif; font-size: 17px; fill: rgb(42, 63, 95); opacity: 1; font-weight: normal; white-space: pre;">Mean Sea Levels Changing - Andaman Sea</text></g><g class="g-xtitle"><text class="xtitle" x="310" y="460.3" text-anchor="middle" style="font-family: 'Open Sans', verdana, arial, sans-serif; font-size: 14px; fill: rgb(42, 63, 95); opacity: 1; font-weight: normal; white-space: pre;">Date</text></g><g class="g-ytitle"><text class="ytitle" transform="rotate(-90,27.668750000000003,260)" x="27.668750000000003" y="260" text-anchor="middle" style="font-family: 'Open Sans', verdana, arial, sans-serif; font-size: 14px; fill: rgb(42, 63, 95); opacity: 1; font-weight: normal; white-space: pre;">Change in Sea Level [mm]</text></g></g></svg>