<svg class="main-svg" xmlns="http://www.w3.org/2000/svg" xmlns:xlink="http://www.w3.org/1999/xlink" width="700" height="500" style="" viewBox="0 0 700 500"><rect x="0" y="0" width="700" height="500" style="fill: rgb(255, 255, 255); fill-opacity: 1;"/><defs id="defs-415410"><g class="clips"><clipPath id="clip415410xyplot" class="plotclip"><rect width="460" height="320"/></clipPath><clipPath class="axesclip" id="clip415410x"><rect x="80" y="0" width="460" height="500"/></clipPath><clipPath class="axesclip" id="clip415410y"><rect x="0" y="100" width="700" height="320"/></clipPath><clipPath class="axesclip" id="clip415410xy"><rect x="80" y="100" width="460" height="320"/></clipPath></g><g class="gradients"/><g class="patterns"/></defs><g class="bglayer"><rect class="bg" x="80" y="100" width="460" height="320" style="fill: rgb(229, 236, 246); fill-opacity: 1; stroke-width: 0;"/></g><g class="layer-below"><g class="imagelayer"/><g class="shapelayer"/></g><g class="cartesianlayer"><g class="subplot xy"><g class="layer-subplot"><g class="shapelayer"/><g class="imagelayer"/></g><g class="minor-gridlayer"><g class="x"/><g class="y"/></g><g class="gridlayer"><g class="x"><path class="xgrid crisp" transform="translate(110.09,0)" d="M0,100v320" style="stroke: rgb(255, 255, 255); stroke-opacity: 1; stroke-width: 1px;"/><path class="xgrid crisp" transform="translate(183.82999999999998,0)" d="M0,100v320" style="stroke: rgb(255, 255, 255); stroke-opacity: 1; stroke-width: 1px;"/><path class="xgrid crisp" transform="translate(257.62,0)" d="M0,100v320" style="stroke: rgb(255, 255, 255); stroke-opacity: 1; stroke-width: 1px;"/><path class="xgrid crisp" transform="translate(331.36,0)" d="M0,100v320" style="stroke: rgb(255, 255, 255); stroke-opacity: 1; stroke-width: 1px;"/><path class="xgrid crisp" transform="translate(405.11,0)" d="M0,100v320" style="stroke: rgb(255, 255, 255); stroke-opacity: 1; stroke-width: 1px;"/><path class="xgrid crisp" transform="translate(478.86,0)" d="M0,100v320" style="stroke: rgb(255, 255, 255); stroke-opacity: 1; stroke-width: 1px;"/></g><g class="y"><path class="ygrid crisp" transform="translate(0,412.38)" d="M80,0h460" style="stroke: rgb(255, 255, 255); stroke-opacity: 1; stroke-width: 1px;"/><path class="ygrid crisp" transform="translate(0,349.49)" d="M80,0h460" style="stroke: rgb(255, 255, 255); stroke-opacity: 1; stroke-width: 1px;"/><path class="ygrid crisp" transform="translate(0,223.70999999999998)" d="M80,0h460" style="stroke: rgb(255, 255, 255); stroke-opacity: 1; stroke-width: 1px;"/><path class="ygrid crisp" transform="translate(0,160.82)" d="M80,0h460" style="stroke: rgb(255, 255, 255); stroke-opacity: 1; stroke-width: 1px;"/></g></g><g class="zerolinelayer"><path class="yzl zl crisp" transform="translate(0,286.6)" d="M80,0h460" style="stroke: rgb(255, 255, 255); stroke-opacity: 1; stroke-width: 2px;"/></g><g class="layer-between"><g class="shapelayer"/><g class="imagelayer"/></g><path class="xlines-below"/><path class="ylines-below"/><g class="overlines-below"/><g class="xaxislayer-below"/><g class="yaxislayer-below"/><g class="overaxes-below"/><g class="plot" transform="translate(80,100)" clip-path="url(#clip415410xyplot)"><g class="scatterlayer mlayer"><g class="trace scatter tracebfadf7" style="stroke-miterlimit: 2; opacity: 1;"><g class="fills"/><g class="errorbars"/><g class="lines"><path class="js-line" d="M134.16,202.1L134.57,177L134.97,211.97L135.37,177.32L135.78,193.35L136.18,184.05L136.99,248.64L137.39,193.35L137.8,166.12L138.2,200.78L139.37,224.93L139.78,211.47L140.22,200.84L140.58,229.45L140.99,224.05L141.35,198.51L142.2,153.92L142.6,184.49L143.05,177.95L143.41,144.8L143.82,137.32L144.22,115.81L144.58,175.68L144.99,102.04L145.79,172.91L146.2,97.63L146.56,59.27L147.01,115.56L147.41,111.72L147.81,126.69L148.18,72.48L148.58,118.64L148.99,188.13L149.35,190.08L149.79,209.01L151.37,257.76L151.81,231.72L152.26,216.37L152.58,231.84L152.98,210.46L153.39,226.31L153.79,236.06L154.19,198.26L154.56,228.7L154.96,219.01L156.21,178.95L156.58,185.93L156.94,203.61L157.39,158.7L157.83,158.58L158.19,173.86L158.56,181.15L159,168.07L159.4,131.22L159.85,174.36L160.62,94.36L160.98,161.15L161.5,152.16L161.79,115.49L162.19,164.93L162.6,159.33L163,148.95L163.4,197.13L163.81,166.06L164.17,162.92L164.53,226.94L165.06,162.85L165.42,147.13L165.83,203.73L166.19,272.22L166.59,197.82L167.4,216.37L167.81,184.8L168.21,164.86L168.61,221.09L169.02,204.17L169.42,219.96L169.82,189.46L170.19,189.52L170.63,215.81L172.21,152.16L172.65,185.24L173.78,128.51L174.27,147.32L175.44,105.31L175.84,116.88L176.25,186.75L176.65,146.06L177.09,186.12L177.46,138.58L177.86,194.86L178.27,236.62L178.63,158.7L179.03,169.58L179.44,264.61L179.84,179.9L180.24,184.99L180.61,177.07L181.46,207.82L181.86,194.42L182.22,197.19L182.67,208.2L183.03,209.77L183.43,236L183.88,228.64L184.24,199.64L185.09,192.6L185.45,197.19L187.03,167.88L187.47,174.49L187.88,169.2L188.12,176.56L188.68,160.46L189.05,176.19L189.45,146.31L189.86,156.37L190.26,173.86L190.66,182.41L191.07,133.92L191.47,116.25L191.83,188.2L192.24,184.74L192.64,169.33L193.45,222.79L193.89,221.03L195.07,160.78L195.47,177.95L195.83,162.92L196.24,200.9L196.64,194.86L197.04,254.55L198.7,204.11L199.02,217.57L199.87,161.97L200.28,202.54L200.68,206.5L201.08,184.05L201.45,181.78L201.89,170.71L202.21,200.96L202.66,182.85L203.06,126.37L203.83,177.88L204.27,122.66L204.52,77.13L205.49,152.22L205.89,154.8L206.25,187.69L207.06,230.33L207.46,195.68L207.87,195.74L208.27,182.91L208.68,214.11L209.08,165.75L209.48,176.5L209.85,212.91L210.25,243.67L210.7,172.54L211.83,255.74L212.27,191.66L212.71,211.15L213.04,176.81L213.48,197.76L213.85,177.76L214.25,170.59L214.65,187.76L215.06,203.92L215.46,182.16L216.63,207L217.08,194.86L217.44,189.77L217.84,192.41L218.25,142.16L219.46,191.15L219.86,191.34L220.27,136.19L220.67,202.47L221.07,163.8L221.44,200.46L221.88,231.03L222.29,156.81L222.69,174.36L223.09,225.18L223.46,232.85L223.86,267L225.48,182.54L225.84,217.69L226.28,169.14L226.69,209.9L226.93,226.56L227.5,204.11L227.9,197.69L228.3,225.62L228.67,219.77L229.11,196.81L229.47,184.42L229.88,226.31L230.61,228.39L231.49,220.4L232.3,171.97L232.71,173.86L233.11,194.55L233.51,227.57L233.88,173.17L234.32,104.49L234.73,130.59L235.13,164.24L235.49,98.01L235.86,118.2L236.3,176.19L236.7,222.41L237.11,200.59L237.51,183.8L238.4,130.02L238.76,248.07L239.65,211.91L240.06,237.13L241.23,179.02L241.63,206.5L242.84,192.16L243.29,150.9L243.65,145.62L244.01,176.94L244.46,173.04L244.82,201.28L245.63,185.05L246.03,190.84L246.44,154.49L246.84,177.25L247.65,146.56L248.46,118.26L248.86,135.75L249.22,135.31L249.67,126.44L250.03,142.66L250.44,126.82L251.24,28.33L251.65,58.26L252.86,197.44L253.26,119.96L253.67,70.46L254.03,117.38L254.39,192.85L255.2,261.4L255.65,219.52L256.86,169.58L257.26,191.53L258.07,147.51L258.43,162.92L259.24,185.49L259.64,173.04L260.05,186.37L260.45,175.12L260.86,162.73L261.66,137.38L262.07,125.81L262.83,113.04L263.24,74.55L263.64,118.58L264.05,94.17L264.45,62.73L264.85,56.75L265.26,118.2L265.66,97.26L266.02,108.39L266.47,131.28L267.64,206.18L268.04,177.95L268.45,139.39L268.85,219.64L269.26,207.32L269.62,249.2L270.06,244.74L270.47,219.83L271.27,164.05L271.68,213.29L272.85,156.25L273.29,192.29L274.47,156.5L274.87,170.27L275.27,174.61L275.64,167.19L276.85,136L277.25,158.07L278.06,119.21L278.42,94.3L279.63,197L280.08,130.9L280.44,139.58L280.85,177.88L281.65,224.55L282.02,200.96L282.7,253.23L283.31,237.57L286.3,205.3L286.62,159.33L287.51,216.37L287.83,206.44L288.24,175.68L288.52,179.64L288.92,205.68L290.09,150.27L290.42,148.83L291.71,169.02L291.99,138.7L292.36,153.04L292.8,116.63L293.2,102.79L293.57,160.71L293.89,180.08L294.25,167.82L294.78,111.72L295.79,189.58L296.19,169.64L296.68,62.04L297.04,151.91L297.49,212.91L297.69,206L298.78,45.43L298.94,141.22L299.59,129.83L299.99,210.4L300.43,227.32L300.84,185.12L301.52,166.37L302.01,183.86L302.33,180.02L302.45,201.15" style="vector-effect: none; fill: none; stroke: rgb(99, 110, 250); stroke-opacity: 1; stroke-width: 2px; opacity: 1;"/></g><g class="points"/><g class="text"/></g><g class="trace scatter trace862c66" style="stroke-miterlimit: 2; opacity: 1;"><g class="fills"/><g class="errorbars"/><g class="lines"><path class="js-line" d="M229.56,165.76L229.88,205.07L230.28,201.23L230.69,188.85L231.09,171.93L231.45,185.2L231.9,173.56L232.3,173.75L232.71,183.37L233.11,173.94L233.47,217.78L234.28,118.78L234.68,130.86L235.09,168.97L235.49,119.41L235.9,125.01L236.3,166.9L236.7,228.34L237.11,209.1L237.51,184.76L237.92,91.8L238.32,120.92L238.68,221.8L239.09,232.43L239.53,187.52L239.89,246.45L240.3,217.08L240.74,216.2L241.11,189.29L241.51,195.32L241.91,189.22L242.28,202.18L242.72,191.93L243.09,145.39L243.49,157.27L243.89,141.55L244.7,183.19L245.1,169.47L245.51,169.41L245.87,168.03L246.32,166.77L246.72,187.15L247.49,138.15L247.93,151.86L248.29,164.07L249.51,111.87L249.91,146.64L250.31,159.6L250.72,142.24L251.53,53.31L251.89,82.37L252.7,205.76L253.1,138.66L253.5,75.39L253.91,110.86L254.27,159.22L255.52,232.05L255.89,199.47L256.29,204.82L256.7,168.09L257.1,171.05L257.5,199.79L258.31,133.56L258.67,166.14L259.08,177.9L259.52,149.73L259.93,179.03L260.33,162.37L260.69,154.19L261.5,142.81L261.91,150.1L263.12,107.84L263.56,143.69L263.92,130.73L264.33,69.35L265.5,145.14L265.9,88.85L267.12,193.31L267.48,175.39L267.92,199.1L268.33,144.95L268.73,210.29L269.13,210.92L269.5,219.1L270.31,235.2L270.71,197.15L271.11,168.28L271.52,221.86L272.73,154.63L273.13,187.46L274.71,137.78L275.11,156.14L275.52,179.47L275.92,127.02L276.73,145.89L277.13,169.73L279.11,135.14L279.51,169.54L280.32,129.54L280.73,163.25L282.34,233.94L282.74,235.45L283.11,259.85L283.51,207.96L284.32,236.33L284.72,216.2L285.13,142.62L285.53,164.07L285.94,188.97L286.34,209.41L286.74,160.98L287.55,209.22L287.95,192.68L288.36,172.18L288.76,193.12L289.21,190.54L289.53,154.19L289.93,164.95L290.34,140.61L290.74,168.28L291.14,153.06L291.55,150.61L293.16,79.67L293.57,123.31L293.97,184.44L294.38,149.41L294.78,115.26L295.95,196.27L296.35,139.04L296.76,76.08L297.16,174.07L297.97,205.89L298.37,174.82L298.78,117.71L299.63,131.17L300.35,221.86L300.84,176.46L301.16,176.71L301.56,160.1L301.97,162.93L302.37,148.66L303.18,185.32L303.58,164.95L304.35,140.48L304.76,160.73L305.16,161.99L305.48,157.4L306.05,165.26L306.37,141.93L307.18,124.19L307.54,133.44L308.39,120.61L308.75,104.19L309.16,176.96L309.56,174L310.01,172.3L310.77,125.64L311.18,128.15L312.39,157.97L312.79,198.53L313.16,189.54L313.6,221.42L315.26,145.39L315.58,188.66L315.98,219.6L316.39,200.67L316.79,184L317.56,134.7L317.96,147.15L318.37,143.31L318.77,148.91L319.17,137.21L319.58,162.24L321.19,119.73L321.6,156.33L321.96,104.51L322.36,129.35L322.77,122.43L323.17,80.67L323.58,84.89L323.98,89.92L325.59,190.04L326,153.81L326.81,107.97L327.17,216.89L327.61,196.46L327.98,206.9L328.38,228.53L328.78,162.93L329.19,207.84L329.59,243.37L330.4,148.53L330.8,189.98L331.21,196.01L331.57,188.72L331.98,157.84L332.38,159.79L332.78,171.11L333.99,135.58L334.4,131.8L334.76,152.37L335.21,134.38L335.57,131.24L335.97,142.68L336.38,151.8L336.78,96.58L337.99,148.53L338.4,128.85L338.8,116.27L339.2,142.87L339.97,156.14L340.38,98.47L341.18,187.78L341.59,179.6L341.99,166.77L342.4,158.41L342.8,163.12L343.2,198.66L343.57,207.4L344.01,173.19L344.41,171.99L344.82,198.85L345.26,151.42L345.63,175.76L345.99,186.27L346.43,184.25L346.8,149.03L348.01,184.63L348.41,149.54L348.82,158.03L349.22,188.15L349.62,148.91L350.03,149.1L350.43,145.64L350.84,155.39L351.52,128.6L351.72,138.03L352.17,123.69L352.53,121.05L352.94,140.23L354.15,196.33L354.55,219.35L355.36,182.05L355.72,215.13L356.45,161.36L356.93,248.09L357.38,193.56L358.35,243.81L358.95,214.88L359.36,223.69L359.72,203.25L360.04,163" style="vector-effect: none; fill: none; stroke: rgb(239, 85, 59); stroke-opacity: 1; stroke-width: 2px; opacity: 1;"/></g><g class="points"/><g class="text"/></g><g class="trace scatter trace17bd37" style="stroke-miterlimit: 2; opacity: 1;"><g class="fills"/><g class="errorbars"/><g class="lines"><path class="js-line" d="M341.67,162.39L341.99,170.37L342.4,142.89L343.61,206.41L344.01,174.71L344.82,192.39L345.26,145.85L346.03,189.74L346.43,180L346.84,137.1L347.24,162.2L347.65,162.7L348.05,177.42L348.45,149.68L349.22,179.87L349.62,143.52L350.07,140.19L350.47,142.76L350.84,143.9L351.24,143.14L351.64,120.69L352.05,120.75L352.45,88.61L353.62,146.73L354.07,199.81L354.47,221.76L354.87,198.11L355.24,173.77L355.64,209.93L356.45,165.03L356.85,245.91L357.26,189.56L357.66,214.65L358.06,230L359.64,209.12L360.04,171.38L361.26,206.03L361.66,173.39L362.06,145.78L362.47,174.71L363.23,138.68L363.64,155.72L364.04,176.03L364.45,154.53L365.25,126.16L365.66,159.24L366.47,149.18L366.87,164.97L367.68,116.41L368.08,127.1L368.44,159.49L368.85,164.53L369.29,183.14L369.66,113.96L370.1,178.24L370.87,215.66L371.27,180.88L371.68,161.13L372.04,82.07L373.65,176.85L374.06,227.67L374.46,166.35L374.87,169.56L375.27,162.51L375.67,176.22L376.08,157.86L376.48,180.81L376.88,162.89L377.25,165.03L378.06,154.78L378.46,146.03L378.86,131.32L379.27,149.56L380.08,103.33L380.48,138.68L381.29,120.19L381.65,68.05L382.05,67.92L382.46,96.85L382.86,63.9L383.27,102.83L383.67,111.7L384.07,181.63L384.48,190.18L384.88,150.88L385.65,111.63L386.05,210.81L386.9,155.85L387.26,229.87L387.67,242.32L387.91,206.03L388.52,168.93L388.88,215.66L389.69,184.21L390.05,192.64L390.45,194.78L390.86,193.08L391.26,166.6L391.71,178.11L392.07,146.03L392.47,166.22L392.88,162.26L393.28,161.19L393.69,160.5L394.05,144.09L394.45,145.41L394.86,164.71L395.26,119.93L395.66,132.7L396.07,123.08L396.47,114.53L396.88,26.48L397.68,73.46L398.09,191.76L398.49,81.82L398.86,130.31L399.3,190.18L399.66,171.13L399.95,193.08L400.87,199.56L401.28,196.98L401.68,159.31L402.49,238.8L402.89,205.59L403.3,213.01L403.66,157.86L404.87,211.44L405.28,148.8L405.72,137.73L406.08,169.62L406.89,181.95L407.26,141.95L408.1,142.45L408.51,154.34L408.91,144.71L409.32,155.03L410.12,97.61L410.49,103.02L410.93,105.66L411.7,153.71L412.1,89.87L412.91,42.64L413.35,142.76L413.72,124.71L414.12,128.17L414.53,153.77L415.33,92.26L415.74,168.68L416.14,265.15L416.54,259.68L416.91,223.45L417.31,232.2L417.72,213.08L418.52,184.71L418.93,195.78L419.33,200.25L419.73,229.49L420.5,139.81L420.95,173.58L421.35,179.05L421.71,165.91L422.12,115.53L422.93,161.69L423.33,160.37L423.73,144.09L424.14,134.4L424.54,150.56L424.94,127.67L425.31,129.18L425.71,134.4L426.12,83.71L426.56,128.8L427.33,60.75L427.73,93.46L428.14,158.68L428.54,126.6L428.94,140.75L429.71,223.64L430.11,185.09L430.52,194.34L430.92,239.62L431.33,199.24L431.73,268.3L433.06,184.9L433.35,191.76L433.75,194.21L434.15,186.35L434.52,155.97L434.92,163.96L435.32,172.51L435.73,145.41L436.13,183.64L436.54,175.15L436.94,149.31L437.75,169.05L438.15,148.11L439.32,122.58L439.73,144.27L440.13,138.55L440.53,108.11L440.94,105.03L441.34,79.81L442.03,110.69L442.43,70.63L442.8,68.05L443.36,135.72L443.64,121.88L444.17,144.02L444.9,262.51L445.34,245.78L445.74,135.09L446.15,130.19L446.55,191.82L446.96,212.76L447.36,206.73L447.76,187.79L448.13,156.03L448.53,181.88L448.93,182.26L450.15,118.55L450.55,143.52L450.95,134.21L451.36,147.17L452.12,158.61L452.57,140.81L453.74,114.9L454.14,120.88L454.55,117.1L454.95,44.78L456.16,110.75L456.57,106.79L456.93,88.74L457.33,124.97L457.74,117.99L458.14,79.75L458.55,89.31L458.95,152.07L459.35,181.13L459.76,118.74L460,157.86" style="vector-effect: none; fill: none; stroke: rgb(0, 204, 150); stroke-opacity: 1; stroke-width: 2px; opacity: 1;"/></g><g class="points"/><g class="text"/></g><g class="trace scatter trace0c65ab" style="stroke-miterlimit: 2; opacity: 1;"><g class="fills"/><g class="errorbars"/><g class="lines"><path class="js-line" d="M413.35,146.81L413.72,108.33L414.12,123.54L414.53,155.68L415.33,89.52L415.74,164.36L416.14,272.03L416.54,254.99L416.91,219.01L417.35,245.37L417.72,212.16L418.56,183.42L418.93,195.3L419.33,203.73L419.73,237L420.5,166.06L420.95,187.19L421.31,180.9L422.12,120.78L422.52,133.17L422.93,168.89L423.29,173.48L423.73,151.59L424.14,132.79L424.5,156.25L425.31,120.78L425.71,129.21L426.12,79.84L426.56,128.2L426.92,111.66L427.33,56.57L428.14,154.74L428.54,124.17L428.94,137.51L429.75,223.73L430.11,194.42L430.52,191.53L430.92,238.07L431.33,225.56L431.69,268.7L432.54,191.72L432.9,199.01L433.3,202.79L434.96,171.53L435.32,187.38L435.77,157.13L436.09,212.41L436.98,132.98L437.34,163.54L437.75,161.97L438.55,139.83L438.92,166.81L440.13,131.47L440.57,112.22L440.94,111.53L441.3,92.85L441.75,85.68L442.15,97.13L442.55,27.82L442.96,103.04L443.4,153.17L443.72,113.42L444.13,116.06L444.9,257.88L445.38,247.13L445.74,125.43L446.11,121.22L446.55,186L447.36,208.2L447.76,183.17L448.17,155.81L448.53,173.86L448.93,203.17L449.78,128.95L450.15,129.14L450.55,148.39L450.91,146.81L451.36,133.42L451.72,134.3L452.17,147.19L452.53,137.44L452.93,99.46L453.3,148.76L453.7,124.17L454.14,111.41L454.51,118.2L454.95,55.12L455.36,16L455.72,47.38L456.16,115.75L456.93,71.16" style="vector-effect: none; fill: none; stroke: rgb(171, 99, 250); stroke-opacity: 1; stroke-width: 2px; opacity: 1;"/></g><g class="points"/><g class="text"/></g><g class="trace scatter trace9879d8" style="stroke-miterlimit: 2; opacity: 1;"><g class="fills"/><g class="errorbars"/><g class="lines"><path class="js-line" d="M0,166.02L0.85,231.42L1.21,223.5L1.53,234.82L2.06,241.93L2.42,288.47L3.27,214.63L3.68,274.94L4.04,290.35L4.85,249.66L5.29,261.42L5.65,241.86L6.83,216.77L7.23,231.61L7.63,233.44L8,248.59L8.44,245.26L9.25,221.3L10.82,197.4L11.27,175.07L11.63,165.7L12.04,106.71L12.44,131.87L13.29,134.95L13.65,227.27L14.05,158.53L14.42,137.59L15.23,173.94L15.63,154.44L16.03,180.61L16.44,277.02L17.24,162.68L17.65,188.59L18.05,261.42L18.86,260.04L19.26,242.49L19.67,204.76L20.03,209.98L20.48,228.03L21.24,182.87L21.65,219.16L22.05,235.57L22.86,207.15L23.22,236.83L23.63,214.13L24.07,174.19L24.47,172.93L24.84,187.15L25.24,193.12L25.65,173.5L26.05,182.62L26.45,158.72L26.86,192.87L27.26,145.7L27.66,141.11L28.47,160.17L28.84,163.25L29.24,176.52L29.64,157.65L30.05,175.2L30.86,195.76L31.22,192.49L31.66,187.65L32.07,182.49L32.43,224.57L33.64,274.25L34.05,266.64L34.45,234.32L35.7,215.39L36.06,249.72L36.87,203.25L37.24,226.96L38.49,196.64L38.85,203.69L39.26,215.26L39.66,187.78L40.47,175.89L40.87,177.02L41.68,195.26L42.49,174.88L42.85,140.73L43.25,148.78L44.1,116.21L44.47,103.38L44.87,61.05L45.68,185.39L46.04,141.74L46.48,167.15L47.7,246.14L48.14,173.44L49.68,257.02L50.08,164.82L50.48,160.48L50.89,220.67L51.29,242.68L52.1,232.37L52.91,236.14L53.27,228.34L54.52,200.23L54.88,208.22L55.29,195.26L55.73,156.96L56.1,171.17L56.9,166.2L57.31,159.16L57.71,137.65L58.12,97.46L58.52,142.49L58.96,138.91L59.33,96.27L60.14,111.05L60.54,155.95L61.71,226.01L62.15,238.28L62.52,246.39L62.92,206.27L63.69,304L64.13,263.06L64.94,194.51L65.35,239.6L66.88,173.63L67.32,205.39L67.73,217.71L68.13,194.19L68.9,206.27L69.3,189.47L70.11,158.34L70.51,177.78L72.53,72.94L72.9,106.14L73.3,141.55L73.71,133.63L74.11,76.71L74.92,191.3L75.72,142.05L77.7,264.32L78.11,212.3L78.47,223.12L78.91,182.49L79.32,207.15L79.72,203.25L80.49,177.59L81.3,205.45L81.7,181.61L82.15,181.68L82.51,208.09L84.93,141.87L85.34,153.88L85.7,114.13L86.51,121.61L87.72,168.78L88.16,143.63L88.53,191.74L88.93,167.27L89.33,152.75L90.55,207.46L90.99,174.07L91.72,228.97L92.16,190.73L93.37,239.22L94.18,185.89L94.54,212.74L94.91,195.45L95.35,204.82L96.12,227.71L96.52,214.88L96.93,189.79L97.29,191.55L97.73,196.77L98.14,154.82L98.54,159.16L99.35,178.91L100.12,125.2L100.52,163L101.33,117.15L101.69,132.49L102.14,108.28L102.54,195.39L103.35,137.34L104.52,201.17L104.92,198.53L105.37,215.32L105.73,204.38L106.14,211.99L106.54,241.05L106.94,233.37L107.39,224.63L108.15,139.66L108.52,152.05L108.96,189.1L110.17,208.15L110.58,194.38L110.98,213.44L111.39,195.7L112.56,186.83L112.96,229.03L114.17,155.2L114.54,141.36L114.98,153.56L115.38,123.75L115.79,140.92L116.55,82.06L116.96,84.63L117.36,101.8L118.17,153.37L118.57,57.9L118.98,63.06L119.79,135.07L120.19,131.17L120.59,200.86L121,186.39L121.4,109.73L122.57,218.15L123.02,231.93L124.15,166.39L124.55,204.07L125,212.93L125.36,210.17L125.76,207.46L126.17,225.83L126.57,189.66L126.97,189.41L127.38,166.58L127.78,181.61L128.19,168.85L128.59,139.04L128.95,136.83L129.4,139.79L129.8,137.4L130.21,160.54L130.61,108.53L130.97,167.34L131.38,106.83L131.78,202.43L132.18,213.5L132.71,195.64L132.99,203.88L133.4,184.95L133.76,259.85L134.2,190.67L134.61,182.87L134.97,210.67L135.37,170.98L135.78,192.43L136.18,186.33L136.59,198.59L136.99,261.74L137.84,166.96L138.2,207.02L138.61,229.03L139.01,228.97L139.41,199.66L139.78,211.74L140.18,201.8L140.58,205.32L141.76,183.06L142.16,163.75L142.64,189.35L143.05,149.85L143.37,172.62L143.78,133.63L144.1,102.68L144.5,171.11L144.91,101.99L145.31,122.62L145.71,156.2L146.56,42.87L146.93,88.53L147.29,123.63L147.69,160.04L148.14,104.63L150.12,234.57L150.52,220.42L150.92,229.41L151.29,280.35L152.54,216.52L152.9,222.74L153.39,235.57L153.71,233.56L154.11,217.71L154.48,217.15L155,205.7L155.33,182.18L156.13,197.52L156.66,201.8L156.94,174.38L157.35,173L157.71,155.76L158.52,176.14L158.96,170.73L160.09,130.36L160.5,92.68L160.9,155.89L161.5,121.68L163.32,222.18L163.77,182.74L164.13,171.86L164.53,247.15L165.34,159.54L165.75,186.71L166.15,257.96L166.55,215.07L166.92,219.22L167.32,225.39L167.72,185.13L168.13,163.63L168.53,216.27L170.19,187.08L170.51,202.3L171,201.49L171.44,176.46L171.72,184.95L172.17,146.02L173.34,191.49L173.82,127.4L174.15,146.2L174.55,134.44L175.03,120.04L175.36,106.9L175.76,122.18L176.93,201.93L177.34,165.95L177.74,189.35L178.14,261.99L178.95,176.96L179.36,252.24L180.12,201.17L180.61,225.13L180.97,225.76L181.37,232.49L181.78,220.23L182.22,176.33L183.35,241.3L183.76,237.59L184.57,176.71L184.97,186.83L185.37,215.2L185.78,205.01L186.18,172.37L186.54,195.45L186.95,180.54L187.35,175.45L188.16,178.22L188.56,164.19" style="vector-effect: none; fill: none; stroke: rgb(255, 161, 90); stroke-opacity: 1; stroke-width: 2px; opacity: 1;"/></g><g class="points"/><g class="text"/></g></g></g><g class="overplot"/><path class="xlines-above crisp" d="M0,0" style="fill: none;"/><path class="ylines-above crisp" d="M0,0" style="fill: none;"/><g class="overlines-above"/><g class="xaxislayer-above"><g class="xtick"><text text-anchor="middle" x="0" y="433" transform="translate(110.09,0)" style="font-family: 'Open Sans', verdana, arial, sans-serif; font-size: 12px; fill: rgb(42, 63, 95); fill-opacity: 1; white-space: pre; opacity: 1;">1995</text></g><g class="xtick"><text text-anchor="middle" x="0" y="433" style="font-family: 'Open Sans', verdana, arial, sans-serif; font-size: 12px; fill: rgb(42, 63, 95); fill-opacity: 1; white-space: pre; opacity: 1;" transform="translate(183.82999999999998,0)">2000</text></g><g class="xtick"><text text-anchor="middle" x="0" y="433" style="font-family: 'Open Sans', verdana, arial, sans-serif; font-size: 12px; fill: rgb(42, 63, 95); fill-opacity: 1; white-space: pre; opacity: 1;" transform="translate(257.62,0)">2005</text></g><g class="xtick"><text text-anchor="middle" x="0" y="433" style="font-family: 'Open Sans', verdana, arial, sans-serif; font-size: 12px; fill: rgb(42, 63, 95); fill-opacity: 1; white-space: pre; opacity: 1;" transform="translate(331.36,0)">2010</text></g><g class="xtick"><text text-anchor="middle" x="0" y="433" style="font-family: 'Open Sans', verdana, arial, sans-serif; font-size: 12px; fill: rgb(42, 63, 95); fill-opacity: 1; white-space: pre; opacity: 1;" transform="translate(405.11,0)">2015</text></g><g class="xtick"><text text-anchor="middle" x="0" y="433" style="font-family: 'Open Sans', verdana, arial, sans-serif; font-size: 12px; fill: rgb(42, 63, 95); fill-opacity: 1; white-space: pre; opacity: 1;" transform="translate(478.86,0)">2020</text></g></g><g class="yaxislayer-above"><g class="ytick"><text text-anchor="end" x="79" y="4.199999999999999" transform="translate(0,412.38)" style="font-family: 'Open Sans', verdana, arial, sans-serif; font-size: 12px; fill: rgb(42, 63, 95); fill-opacity: 1; white-space: pre; opacity: 1;">−200</text></g><g class="ytick"><text text-anchor="end" x="79" y="4.199999999999999" style="font-family: 'Open Sans', verdana, arial, sans-serif; font-size: 12px; fill: rgb(42, 63, 95); fill-opacity: 1; white-space: pre; opacity: 1;" transform="translate(0,349.49)">−100</text></g><g class="ytick"><text text-anchor="end" x="79" y="4.199999999999999" style="font-family: 'Open Sans', verdana, arial, sans-serif; font-size: 12px; fill: rgb(42, 63, 95); fill-opacity: 1; white-space: pre; opacity: 1;" transform="translate(0,286.6)">0</text></g><g class="ytick"><text text-anchor="end" x="79" y="4.199999999999999" style="font-family: 'Open Sans', verdana, arial, sans-serif; font-size: 12px; fill: rgb(42, 63, 95); fill-opacity: 1; white-space: pre; opacity: 1;" transform="translate(0,223.70999999999998)">100</text></g><g class="ytick"><text text-anchor="end" x="79" y="4.199999999999999" style="font-family: 'Open Sans', verdana, arial, sans-serif; font-size: 12px; fill: rgb(42, 63, 95); fill-opacity: 1; white-space: pre; opacity: 1;" transform="translate(0,160.82)">200</text></g></g><g class="overaxes-above"/></g></g><g class="polarlayer"/><g class="smithlayer"/><g class="ternarylayer"/><g class="geolayer"/><g class="funnelarealayer"/><g class="pielayer"/><g class="iciclelayer"/><g class="treemaplayer"/><g class="sunburstlayer"/><g class="glimages"/><defs id="topdefs-415410"><g class="clips"/><clipPath id="legend415410"><rect width="139" height="105" x="0" y="0"/></clipPath></defs><g class="layer-above"><g class="imagelayer"/><g class="shapelayer"/></g><g class="infolayer"><g class="legend" pointer-events="all" transform="translate(549.2,100)"><rect class="bg" shape-rendering="crispEdges" width="139" height="105" x="0" y="0" style="stroke: rgb(68, 68, 68); stroke-opacity: 1; fill: rgb(255, 255, 255); fill-opacity: 1; stroke-width: 0px;"/><g class="scrollbox" transform="" clip-path="url(#legend415410)"><g class="groups"><g class="traces" transform="translate(0,14.5)" style="opacity: 1;"><text class="legendtext" text-anchor="start" x="40" y="4.680000000000001" style="font-family: 'Open Sans', verdana, arial, sans-serif; font-size: 12px; fill: rgb(42, 63, 95); fill-opacity: 1; white-space: pre;">Jason.1</text><g class="layers" style="opacity: 1;"><g class="legendfill"/><g class="legendlines"><path class="js-line" d="M5,0h30" style="fill: none; stroke: rgb(99, 110, 250); stroke-opacity: 1; stroke-width: 2px;"/></g><g class="legendsymbols"><g class="legendpoints"/></g></g><rect class="legendtoggle" x="0" y="-9.5" width="133.84375" height="19" style="fill: rgb(0, 0, 0); fill-opacity: 0;"/></g><g class="traces" transform="translate(0,33.5)" style="opacity: 1;"><text class="legendtext" text-anchor="start" x="40" y="4.680000000000001" style="font-family: 'Open Sans', verdana, arial, sans-serif; font-size: 12px; fill: rgb(42, 63, 95); fill-opacity: 1; white-space: pre;">Jason.2</text><g class="layers" style="opacity: 1;"><g class="legendfill"/><g class="legendlines"><path class="js-line" d="M5,0h30" style="fill: none; stroke: rgb(239, 85, 59); stroke-opacity: 1; stroke-width: 2px;"/></g><g class="legendsymbols"><g class="legendpoints"/></g></g><rect class="legendtoggle" x="0" y="-9.5" width="133.84375" height="19" style="fill: rgb(0, 0, 0); fill-opacity: 0;"/></g><g class="traces" transform="translate(0,52.5)" style="opacity: 1;"><text class="legendtext" text-anchor="start" x="40" y="4.680000000000001" style="font-family: 'Open Sans', verdana, arial, sans-serif; font-size: 12px; fill: rgb(42, 63, 95); fill-opacity: 1; white-space: pre;">Jason.3</text><g class="layers" style="opacity: 1;"><g class="legendfill"/><g class="legendlines"><path class="js-line" d="M5,0h30" style="fill: none; stroke: rgb(0, 204, 150); stroke-opacity: 1; stroke-width: 2px;"/></g><g class="legendsymbols"><g class="legendpoints"/></g></g><rect class="legendtoggle" x="0" y="-9.5" width="133.84375" height="19" style="fill: rgb(0, 0, 0); fill-opacity: 0;"/></g><g class="traces" transform="translate(0,71.5)" style="opacity: 1;"><text class="legendtext" text-anchor="start" x="40" y="4.680000000000001" style="font-family: 'Open Sans', verdana, arial, sans-serif; font-size: 12px; fill: rgb(42, 63, 95); fill-opacity: 1; white-space: pre;">Sentinel-6MF</text><g class="layers" style="opacity: 1;"><g class="legendfill"/><g class="legendlines"><path class="js-line" d="M5,0h30" style="fill: none; stroke: rgb(171, 99, 250); stroke-opacity: 1; stroke-width: 2px;"/></g><g class="legendsymbols"><g class="legendpoints"/></g></g><rect class="legendtoggle" x="0" y="-9.5" width="133.84375" height="19" style="fill: rgb(0, 0, 0); fill-opacity: 0;"/></g><g class="traces" transform="translate(0,90.5)" style="opacity: 1;"><text class="legendtext" text-anchor="start" x="40" y="4.680000000000001" style="font-family: 'Open Sans', verdana, arial, sans-serif; font-size: 12px; fill: rgb(42, 63, 95); fill-opacity: 1; white-space: pre;">TOPEX.Poseidon</text><g class="layers" style="opacity: 1;"><g class="legendfill"/><g class="legendlines"><path class="js-line" d="M5,0h30" style="fill: none; stroke: rgb(255, 161, 90); stroke-opacity: 1; stroke-width: 2px;"/></g><g class="legendsymbols"><g class="legendpoints"/></g></g><rect class="legendtoggle" x="0" y="-9.5" width="133.84375" height="19" style="fill: rgb(0, 0, 0); fill-opacity: 0;"/></g></g></g><rect class="scrollbar" rx="20" ry="3" width="0" height="0" x="0" y="0" style="fill: rgb(128, 139, 164); fill-opacity: 1;"/></g><g class="g-gtitle"><text class="gtitle" x="35" y="50" text-anchor="start" dy="0em" style="font-family: 'Open Sans', verdana, arial, sans-serif; font-size: 17px; fill: rgb(42, 63, 95); opacity: 1; font-weight: normal; white-space: pre;">Mean Sea Levels Changing - Adriatic Sea</text></g><g class="g-xtitle"><text class="xtitle" x="310" y="460.3" text-anchor="middle" style="font-family: 'Open Sans', verdana, arial, sans-serif; font-size: 14px; fill: rgb(42, 63, 95); opacity: 1; font-weight: normal; white-space: pre;">Date</text></g><g class="g-ytitle"><text class="ytitle" transform="rotate(-90,27.668750000000003,260)" x="27.668750000000003" y="260" text-anchor="middle" style="font-family: 'Open Sans', verdana, arial, sans-serif; font-size: 14px; fill: rgb(42, 63, 95); opacity: 1; font-weight: normal; white-space: pre;">Change in Sea Level [mm]</text></g></g></svg>