<svg class="main-svg" xmlns="http://www.w3.org/2000/svg" xmlns:xlink="http://www.w3.org/1999/xlink" width="700" height="500" style="" viewBox="0 0 700 500"><rect x="0" y="0" width="700" height="500" style="fill: rgb(255, 255, 255); fill-opacity: 1;"/><defs id="defs-61b9d1"><g class="clips"><clipPath id="clip61b9d1xyplot" class="plotclip"><rect width="460" height="320"/></clipPath><clipPath class="axesclip" id="clip61b9d1x"><rect x="80" y="0" width="460" height="500"/></clipPath><clipPath class="axesclip" id="clip61b9d1y"><rect x="0" y="100" width="700" height="320"/></clipPath><clipPath class="axesclip" id="clip61b9d1xy"><rect x="80" y="100" width="460" height="320"/></clipPath></g><g class="gradients"/><g class="patterns"/></defs><g class="bglayer"><rect class="bg" x="80" y="100" width="460" height="320" style="fill: rgb(229, 236, 246); fill-opacity: 1; stroke-width: 0;"/></g><g class="layer-below"><g class="imagelayer"/><g class="shapelayer"/></g><g class="cartesianlayer"><g class="subplot xy"><g class="layer-subplot"><g class="shapelayer"/><g class="imagelayer"/></g><g class="minor-gridlayer"><g class="x"/><g class="y"/></g><g class="gridlayer"><g class="x"><path class="xgrid crisp" transform="translate(110.09,0)" d="M0,100v320" style="stroke: rgb(255, 255, 255); stroke-opacity: 1; stroke-width: 1px;"/><path class="xgrid crisp" transform="translate(183.82,0)" d="M0,100v320" style="stroke: rgb(255, 255, 255); stroke-opacity: 1; stroke-width: 1px;"/><path class="xgrid crisp" transform="translate(257.6,0)" d="M0,100v320" style="stroke: rgb(255, 255, 255); stroke-opacity: 1; stroke-width: 1px;"/><path class="xgrid crisp" transform="translate(331.34000000000003,0)" d="M0,100v320" style="stroke: rgb(255, 255, 255); stroke-opacity: 1; stroke-width: 1px;"/><path class="xgrid crisp" transform="translate(405.08,0)" d="M0,100v320" style="stroke: rgb(255, 255, 255); stroke-opacity: 1; stroke-width: 1px;"/><path class="xgrid crisp" transform="translate(478.82,0)" d="M0,100v320" style="stroke: rgb(255, 255, 255); stroke-opacity: 1; stroke-width: 1px;"/></g><g class="y"><path class="ygrid crisp" transform="translate(0,416.8)" d="M80,0h460" style="stroke: rgb(255, 255, 255); stroke-opacity: 1; stroke-width: 1px;"/><path class="ygrid crisp" transform="translate(0,363.65)" d="M80,0h460" style="stroke: rgb(255, 255, 255); stroke-opacity: 1; stroke-width: 1px;"/><path class="ygrid crisp" transform="translate(0,257.35)" d="M80,0h460" style="stroke: rgb(255, 255, 255); stroke-opacity: 1; stroke-width: 1px;"/><path class="ygrid crisp" transform="translate(0,204.2)" d="M80,0h460" style="stroke: rgb(255, 255, 255); stroke-opacity: 1; stroke-width: 1px;"/><path class="ygrid crisp" transform="translate(0,151.06)" d="M80,0h460" style="stroke: rgb(255, 255, 255); stroke-opacity: 1; stroke-width: 1px;"/></g></g><g class="zerolinelayer"><path class="yzl zl crisp" transform="translate(0,310.5)" d="M80,0h460" style="stroke: rgb(255, 255, 255); stroke-opacity: 1; stroke-width: 2px;"/></g><g class="layer-between"><g class="shapelayer"/><g class="imagelayer"/></g><path class="xlines-below"/><path class="ylines-below"/><g class="overlines-below"/><g class="xaxislayer-below"/><g class="yaxislayer-below"/><g class="overaxes-below"/><g class="plot" transform="translate(80,100)" clip-path="url(#clip61b9d1xyplot)"><g class="scatterlayer mlayer"><g class="trace scatter trace5ba54f" style="stroke-miterlimit: 2; opacity: 1;"><g class="fills"/><g class="errorbars"/><g class="lines"><path class="js-line" d="M134.11,212.35L134.56,239.99L134.92,239.24L135.32,214.16L136.94,158.88L137.34,165.16L138.11,134.22L138.51,153.68L138.92,201.62L139.32,188.54L139.72,177.38L140.13,182.27L140.53,227.02L140.94,278.04L141.34,266.67L141.7,253.91L142.11,251.36L142.51,264.33L142.91,276.98L143.32,273.9L143.72,262.95L144.53,234.14L144.93,250.41L145.34,265.71L145.74,259.76L146.1,240.94L146.51,227.34L146.91,244.56L147.72,207.89L148.12,226.28L148.53,254.13L148.93,224.47L150.1,178.55L150.55,202.47L151.31,167.28L151.72,134.54L152.16,155.8L152.53,154.63L152.93,136.77L153.33,142.83L153.74,169.73L154.91,130.29L155.31,168.45L157.74,290.27L158.14,265.07L158.91,239.24L159.31,250.3L159.71,267.52L160.12,250.51L160.88,204.59L161.49,209.16L161.73,199.6L162.14,215.65L162.54,206.93L162.94,187.05L163.35,174.62L163.71,182.27L164.12,184.93L165,229.89L165.33,205.55L166.13,175.04L166.5,179.08L167.35,144.32L167.75,153.89L168.15,173.13L168.56,191.3L168.96,180.78L169.37,153.99L170.13,205.55L170.54,234.89L170.94,233.72L171.34,247.54L172.15,239.14L172.56,260.72L172.96,276.24L173.36,272.73L173.77,267.2L174.17,279.21L174.57,256.57L175.38,206.29L175.79,216.28L176.19,211.61L177.36,173.13L177.76,182.06L178.57,207.57L178.98,197.58L180.96,151.55L181.36,178.76L182.57,131.03L182.97,137.31L183.38,136.24L183.78,132.63L184.19,152.4L185.36,218.3L185.76,220.85L186.16,218.3L186.57,205.55L187.78,255.08L188.1,240.94L188.67,248.81L188.99,229.78L189.76,255.93L190.16,255.19L190.57,232.97L191.37,221.17L191.78,213.63L192.18,226.06L192.59,204.38L192.99,192.58L193.39,205.12L193.8,204.27L194.16,185.88L194.97,175.57L195.37,180.46L195.78,197.89L196.18,196.3L196.58,167.39L197.79,150.91L198.16,149.21L198.6,134.75L198.97,141.24L199.37,162.18L199.77,175.25L200.18,219.15L200.98,236.16L201.39,235.1L201.79,247.22L203,277.62L203.41,252.42L204.46,200.98L205.43,209.37L206.15,184.5L206.6,194.81L207,196.83L207.37,222.13L207.77,216.92L208.17,196.83L209.38,179.51L209.79,190.99L211.81,115.73L212.17,139.01L213.38,105.63L213.79,133.59L215.4,234.35L215.81,232.65L216.17,231.91L216.57,221.92L216.98,208.74L217.38,250.3L217.78,232.12L218.19,245.62L218.59,242.65L220.21,205.55L220.61,184.82L220.97,170.26L221.42,187.16L221.78,202.47L222.19,200.45L222.59,169.41L223.4,217.03L223.8,210.65L224.21,202.78L225.42,151.34L225.82,166.22L226.63,150.59L226.91,153.25L227.8,95L228.2,111.9L228.61,150.17L230.55,247.85L231.43,234.99L231.84,215.75L232.24,232.87L232.65,228.4L233.01,207.89L233.41,208.31L233.82,195.02L234.22,201.4L234.62,187.9L235.84,174.19L236.24,168.24L236.64,176.32L237.05,157.93L237.45,149L238.46,181.42L239.63,112.11L240.04,113.28L240.44,94.04L240.84,114.56L241.25,127.53L241.65,108.18L242.05,88.3L242.42,104.35L242.82,114.03L245.65,244.77L246.05,248.07L246.82,224.89L247.43,233.08L247.63,253.59L248.03,248.28L248.43,206.82L249.24,186.1L249.65,212.24L250.05,221.81L250.45,197.26L251.22,171.85L251.62,192.69L254.05,137.09L254.45,141.24L254.82,124.23L255.22,132.31L255.62,132.1L256.03,129.97L256.43,85.65L256.83,81.71L257.24,106.69L257.64,110.31L258.05,123.38L258.85,158.67L259.26,180.25L261.24,233.82L261.64,226.28L262.04,213.1L262.45,221.17L262.85,247.32L263.66,218.52L264.02,206.29L264.43,193.22L264.83,205.55L265.23,232.97L265.64,223.51L266.04,212.99L266.45,233.61L266.85,227.34L267.25,175.36L268.06,194.71L268.42,168.13L269.23,143.9L269.64,156.65L270.44,127.85L270.85,105.52L271.25,121.57L271.65,100.21L272.06,97.02L272.46,102.76L274.04,200.13L274.44,194.17L274.85,173.98L275.25,193.01L275.65,202.78L276.06,196.3L276.46,201.19L277.27,215.86L277.63,212.24L278.44,174.4L278.84,178.87L279.25,173.66L279.65,176.85L280.05,175.04L280.46,169.3L280.86,174.51L281.27,181.74L281.67,160.58L282.03,159.1L282.44,142.94L282.68,131.78L283.29,144.96L286.64,83.41L287.08,101.06L288.53,149.85L289.02,171.43L289.42,193.75L289.75,146.13L290.47,213.31L290.96,197.47L291.68,218.41L291.97,207.04L293.14,196.83L293.46,184.08L294.79,151.66L295.08,167.07L295.36,150.81L295.8,179.4L296.25,197.36L296.69,162.18L297.3,132.84L297.74,143.58L297.98,152.19L298.75,89.68L299.2,97.55L299.64,106.48L300.12,107.33L300.41,54.93L302.47,141.66" style="vector-effect: none; fill: none; stroke: rgb(99, 110, 250); stroke-opacity: 1; stroke-width: 2px; opacity: 1;"/></g><g class="points"/><g class="text"/></g><g class="trace scatter tracefae4fb" style="stroke-miterlimit: 2; opacity: 1;"><g class="fills"/><g class="errorbars"/><g class="lines"><path class="js-line" d="M229.45,184.41L230.63,245.31L231.03,230.01L231.84,206.52L232.24,226.82L233.01,200.99L233.41,203.96L233.82,206.83L234.22,204.6L234.62,190.36L235.43,181.43L235.84,184.72L237.85,139.97L238.26,161.76L238.62,158.47L239.03,139.34L239.43,136.78L239.83,113.51L240.24,102.98L240.64,108.72L241.04,121.37L241.85,94.16L242.26,95.75L242.62,117.33L243.43,127.11L243.83,149.22L245.85,239.25L246.25,229.79L246.66,236.7L247.06,225.12L247.43,242.55L247.83,239.47L248.23,217.36L248.64,181.11L249.04,190.57L249.44,200.46L249.85,224.8L250.25,217.78L250.66,195.89L251.06,176.43L251.46,189.51L251.83,193.76L253.44,149.75L253.85,138.27L254.25,147.84L254.65,128.39L256.63,85.76L257.04,97.35L257.84,106.92L258.25,123.6L259.86,187.81L260.27,189.72L260.67,198.54L261.03,229.48L261.84,215.02L262.25,223.84L263.05,243.08L263.46,239.68L264.67,205.98L265.03,217.78L265.44,224.16L265.84,209.6L266.65,240.32L267.05,204.71L267.86,173.88L268.26,182.49L269.43,130.09L269.84,150.92L271.05,119.99L271.45,111.06L271.86,90.65L272.26,108.62L274.24,192.8L274.64,184.09L275.05,179.3L275.45,197.16L275.85,199.07L276.26,197.48L276.66,211.62L277.07,207.05L277.47,215.13L278.64,177.82L279.04,182.28L279.45,183.77L279.85,177.71L280.26,183.77L280.66,178.77L281.06,179.52L282.68,125.41L283.08,126.58L283.85,172.18L284.25,156.45L285.47,106.38L285.87,104.05L286.68,95.86L287.08,112.76L288.7,170.48L289.1,170.91L290.27,206.2L290.68,207.37L291.08,206.83L291.48,204.81L291.89,215.98L292.29,201.2L292.69,197.91L293.1,182.39L293.5,180.15L293.91,162.08L294.31,163.25L294.71,152.2L295.12,145.93L295.52,151.45L296.29,176.75L296.69,152.84L297.5,111.91L297.9,147.73L299.03,74.5L299.56,89.38L299.92,108.94L300.29,82.15L300.69,59.08L301.09,78.53L301.5,91.4L301.9,103.09L302.31,137.42L304.69,232.13L305.09,222.03L305.46,211.3L306.02,224.16L306.3,241.59L306.71,237.13L307.11,215.02L308.73,176.54L309.09,178.67L309.49,193.55L309.9,183.56L310.3,195.57L311.51,167.19L311.92,166.65L312.32,171.54L312.72,162.61L313.9,118.71L314.3,119.03L314.7,124.99L315.11,101.49L315.51,96.82L315.91,81.83L316.32,86.4L316.72,108.3L318.7,192.7L319.1,184.09L320.32,201.31L320.72,198.22L321.53,186L321.89,189.51L322.34,203.54L323.1,195.25L323.51,161.02L324.31,166.34L324.72,175.9L325.12,187.7L325.53,173.99L326.33,125.84L326.7,137.95L327.1,127.01L328.31,102.77L328.72,99.58L330.33,81.4L330.73,63.97L331.1,89.27L331.5,63.01L331.91,68.22L332.31,109.89L333.52,164.63L333.93,153.47L334.33,172.18L334.73,161.98L335.14,158.68L335.9,167.29L336.31,150.28L337.52,127.11L337.92,153.47L338.73,130.51L339.13,140.51L339.54,163.25L339.94,126.16L340.31,120.42L340.71,126.26L341.52,136.78L341.92,115.74L342.73,72.9L343.13,94.59L344.34,65.67L344.75,67.27L345.56,43.03L345.92,64.5L346.73,81.51L347.13,104.68L349.96,202.26L350.36,195.67L351.49,205.77L351.73,197.69L352.14,190.68L352.54,165.7L352.95,139.12L353.35,152.3L353.75,172.71L354.16,180.79L354.56,159.64L355.37,144.76L355.77,150.82L356.18,163.04L356.58,149.97L357.59,105.43L358.28,119.99L359.37,86.4L359.77,74.92L360.05,69.61" style="vector-effect: none; fill: none; stroke: rgb(239, 85, 59); stroke-opacity: 1; stroke-width: 2px; opacity: 1;"/></g><g class="points"/><g class="text"/></g><g class="trace scatter trace8ec6bf" style="stroke-miterlimit: 2; opacity: 1;"><g class="fills"/><g class="errorbars"/><g class="lines"><path class="js-line" d="M341.6,144.3L342.69,74.99L343.13,97.95L343.54,92.53L343.94,66.49L344.75,68.83L345.15,48.42L345.56,38.22L345.92,63.3L346.32,66.7L346.73,81.16L349.96,199.89L350.36,190.54L351.17,197.98L351.57,204.36L353.15,127.19L353.55,150.25L353.95,163.43L354.36,151.85L354.76,146.74L355.17,155.57L355.97,128.46L356.38,143.66L357.15,113.58L357.55,121.45L357.95,112.62L358.36,109.75L358.76,98.06L359.16,96.25L359.57,83.29L359.97,61.49L360.38,78.18L360.78,111.99L361.18,126.44L361.55,108.69L361.95,101.78L362.35,140.69L363.97,198.94L364.37,180.55L365.95,213.92L366.35,197.66L367.16,164.18L367.56,177.78L367.97,182.89L368.37,209.35L369.18,188.84L369.58,190.33L369.95,193.73L370.75,157.91L371.16,161.84L372.77,134.1L373.18,137.18L373.58,104.33L374.79,88.18L375.16,87.75L376.37,130.8L376.77,132.61L378.39,218.6L378.79,214.35L379.56,229.12L379.96,219.98L381.58,166.83L381.98,169.07L382.38,183.1L382.79,179.48L383.19,136.86L383.96,169.17L384.36,148.55L384.77,139.41L385.17,150.78L385.57,146.43L385.98,154.72L386.22,152.7L386.83,139.2L388.76,70.96L389.17,79.57L389.57,82.22L389.98,72.66L390.38,61.6L390.78,85.62L391.96,126.23L392.4,143.34L392.76,128.46L393.17,136.12L393.57,144.41L393.97,161.73L394.38,160.46L394.78,148.76L395.99,111.45L396.4,119.11L396.76,136.12L397.16,124.95L397.57,127.61L397.97,116.66L398.38,127.93L399.18,146.43L399.59,136.43L399.91,111.03L400.48,112.41L400.8,115.28L402.37,88.81L402.78,53.42L403.59,33.33L403.99,42.89L404.8,90.51L405.2,54.05L405.6,28.54L406.01,57.46L406.82,121.66L407.22,105.5L407.62,98.59L408.79,146.32L409.2,146.74L409.6,148.23L410.01,138.77L410.77,184.16L411.26,170.77L412.03,110.18L412.43,136.86L412.83,158.65L413.24,131.86L413.64,117.3L414.04,127.93L414.41,118.68L414.81,128.36L415.22,117.41L416.43,85.31L416.83,75.1L417.23,50.33L417.64,76.48L418.81,16L419.21,31.94L420.42,92.21L420.83,79.88L421.64,138.45L422.04,136.22L422.44,131.12L422.85,159.71L423.25,155.89L423.62,134.95L424.02,130.69L424.42,143.13L425.23,175.13L425.63,170.77L426.04,165.67L426.44,166.52L426.85,154.08L428.82,92.75L429.23,103.69L429.63,106.99L430.04,100.4L430.44,94.13L430.84,94.45L431.25,96.79L432.01,104.12L432.26,59.48L433.02,93.07L433.71,92.43L434.11,101.36L434.92,69.04L435.33,96.68L437.3,190.01L437.71,171.83L438.52,188.84L438.92,175.23L439.32,169.17L439.73,188.73L440.13,191.39L440.5,177.25L440.9,169.49L441.3,185.22L442.51,152.06L442.92,165.98L443.32,160.03L443.73,142.07L444.13,128.36L444.53,144.19L444.9,144.51L445.3,141.43L446.51,76.38L446.92,83.6L447.72,55.86L448.13,61.6L448.53,67.98L449.3,37.15L449.7,60.86L450.91,143.02L451.32,134.73L451.72,137.92L452.13,158.22L452.53,156.84L452.93,155.99L453.34,157.59L453.7,154.93L454.91,118.04L456.12,120.6L456.53,111.45L456.93,139.09L457.74,142.92L458.1,137.28L458.91,111.56L459.31,120.81L459.72,87.54L460,99.87" style="vector-effect: none; fill: none; stroke: rgb(0, 204, 150); stroke-opacity: 1; stroke-width: 2px; opacity: 1;"/></g><g class="points"/><g class="text"/></g><g class="trace scatter trace23bc11" style="stroke-miterlimit: 2; opacity: 1;"><g class="fills"/><g class="errorbars"/><g class="lines"><path class="js-line" d="M413.24,128.65L413.64,118.02L414.04,128.97L414.41,126.95L414.81,133.54L416.43,93.15L416.83,84.33L418.04,53.82L418.45,42.23L418.81,19.81L419.21,29.58L419.62,64.24L420.02,82.95L420.42,81.14L420.83,77.84L421.64,131.2L422.04,127.59L422.44,118.77L422.85,151.72L423.25,144.81L423.62,130.67L424.02,126.21L424.42,141.41L425.63,180.63L426.04,175L426.44,171.38L428.82,97.93L429.23,102.82L429.63,107.29L430.04,100.38L430.84,98.15L431.25,104.84L431.61,104.63L432.01,107.39L433.23,69.87L433.63,93.89L434.03,93.89L434.44,83.9L434.84,71.04L435.25,90.81L435.65,90.07L436.05,141.09L436.42,137.26L436.82,161.29L437.22,186.69L437.63,169.9L438.03,170.22L438.84,176.7L439.24,164.9L440.05,192.11L440.45,181.91L440.82,162.35L441.22,172.66L441.63,174.47L443.64,113.98L444.05,127.38L444.45,150.34L444.86,147.79L445.22,138.33L446.03,79.97L446.43,91.66L446.84,97.4L447.24,102.82L447.64,72.63L448.45,57.12L448.85,63.81L449.22,53.18L449.62,60.73L450.03,65.94L451.24,133.12L451.64,138.86L452.04,156.61L452.45,148.11L452.85,144.39L454.02,164.26L454.43,144.39L454.83,120.89L455.23,122.17L455.64,118.77L456.04,123.87L456.45,111.11L456.85,135.67" style="vector-effect: none; fill: none; stroke: rgb(171, 99, 250); stroke-opacity: 1; stroke-width: 2px; opacity: 1;"/></g><g class="points"/><g class="text"/></g><g class="trace scatter trace4e4cc5" style="stroke-miterlimit: 2; opacity: 1;"><g class="fills"/><g class="errorbars"/><g class="lines"><path class="js-line" d="M0,220.88L0.77,170.28L1.17,177.83L1.53,209.08L2.02,214.07L2.34,198.66L3.59,181.23L4,184.84L5.57,142.54L5.98,151.78L6.38,149.44L6.78,153.38L9.61,284.76L9.97,270.41L10.38,252.13L10.78,263.39L11.19,266.48L11.59,256.06L11.99,258.93L12.4,267.01L13.21,224.49L13.57,238.52L13.97,263.71L15.99,193.88L16.4,196.32L16.8,205.68L17.2,212.69L17.61,195.58L17.97,195.05L18.78,183.46L19.59,153.38L19.99,154.44L20.39,155.29L21.2,136.8L21.6,148.7L22.78,215.45L23.18,204.29L24.39,261.69L24.8,266.26L25.2,246.92L25.6,256.38L25.97,273.81L26.37,272.32L26.81,260.1L28.39,226.72L28.79,228.53L29.2,244.16L29.6,230.55L30,203.87L30.41,207.8L30.81,223.75L33.19,190.16L33.6,169.22L34,176.98L34.41,146.57L34.81,132.01L35.58,149.76L35.98,155.61L36.38,148.38L38,208.44L38.4,207.16L39.21,232.67L39.58,225.02L40.38,262.44L40.79,240.86L41.19,268.18L41.59,253.51L42.4,232.78L43.17,250.21L44.02,237.99L44.78,176.34L45.19,188.77L45.59,215.03L46,215.14L46.4,192.07L47.21,198.55L47.61,175.7L47.97,176.02L48.42,173.15L48.82,185.27L49.23,173.57L50.03,143.28L50.4,152.74L51.21,130.31L52.01,194.2L52.42,199.51L52.82,215.99L54.84,289.65L55.24,271.9L55.65,290.61L56.05,284.44L56.82,294.11L57.22,299.54L57.63,269.99L58.43,213.44L58.84,240.01L59.24,259.46L59.65,248.3L60.05,218.75L60.86,255L61.66,247.24L62.03,243.09L62.43,217.16L64.85,140.94L65.26,163.58L65.66,173.89L66.43,106.71L67.24,144.66L67.64,175.59L69.26,242.03L69.66,236.18L70.06,237.14L70.47,232.14L72.04,200.04L72.45,184.74L72.85,198.77L73.25,183.03L74.47,213.22L74.87,218.54L75.68,221.83L76.04,204.83L76.85,192.07L77.25,196.11L77.66,166.66L78.46,135.52L78.87,146.68L79.27,135.41L79.63,125L80.44,173.47L80.85,161.99L81.25,167.52L81.65,163.58L83.63,232.99L84.08,228.1L84.84,230.34L85.25,254.68L85.65,273.81L86.46,252.77L86.86,259.14L87.27,282.21L88.48,226.93L88.84,244.37L89.65,229.27L90.46,248.83L90.9,239.37L91.27,194.2L91.67,194.51L92.07,213.33L92.48,216.31L92.84,199.62L93.24,202.27L94.05,185.8L94.46,164.43L94.86,172.62L95.26,214.29L95.67,212.27L96.07,220.45L96.88,230.34L97.28,252.34L98.05,277L98.45,262.12L100.07,299.11L100.47,286.46L101.68,297.62L102.09,275.73L102.45,261.38L103.26,260.21L104.47,222.58L104.87,225.66L105.28,222.68L105.68,238.52L108.47,191.54L108.87,204.93L109.68,168.58L110.08,169.43L111.29,238.41L111.7,251.7L112.91,248.94L113.27,261.91L113.68,287.63L114.08,270.2L114.49,254.57L114.89,254.36L115.29,260.74L115.7,268.07L116.5,244.16L116.91,220.66L117.31,261.59L118.52,235.12L118.89,226.4L120.1,242.03L120.5,256.27L121.31,206.84L121.71,207.16L122.12,208.76L123.73,161.03L124.1,163.48L124.5,170.39L124.9,193.03L125.31,179.21L125.71,216.2L126.52,259.25L126.92,247.88L127.73,275.51L128.09,271.47L128.5,278.17L128.9,272.96L129.31,267.86L130.52,304L130.92,264.14L131.32,260.21L131.73,281.78L132.13,277.32L132.7,250.21L133.71,192.39L134.11,217.58L134.51,245.54L134.92,243.3L135.32,224.17L136.53,184.95L136.94,165.6L137.3,175.59L137.71,159.22L138.11,140.2L138.51,148.7L138.92,195.47L140.13,165.28L140.53,206.95L141.3,259.57L141.7,246.39L142.11,236.82L143.32,266.48L143.72,262.65L145.3,247.77L145.74,247.24L146.1,239.8L146.55,241.92L146.91,267.75L147.72,206.63L148.08,210.46L148.49,242.45L150.14,168.68L150.55,206.21L151.31,185.27L151.72,153.06L152.53,158.59L152.93,136.48L153.33,140.62L153.74,169.32L154.54,110.43L154.91,116.92L155.31,157.31L156.12,180.27L156.64,216.31L157.74,278.17L158.14,257.55L158.54,254.68L158.91,259.04L159.31,235.76L159.75,263.5L160.93,203.23L161.49,230.44L161.65,226.51L162.1,230.76L162.54,188.56L162.94,191.01L163.35,171.55L164.92,222.15L165.33,203.23L165.73,174.53L166.13,178.14L166.54,179.31L166.94,178.04L167.35,145.94L168.52,183.57L169.73,160.18L170.54,229.49L170.94,217.47L171.3,224.6L172.56,262.97L172.96,261.91L173.32,277.32L173.73,257.12L174.13,260.52L174.57,255.32L175.79,216.52L176.19,224.17L176.55,221.3L176.92,182.4L177.81,229.7L178.21,207.38L178.98,204.4L179.38,208.44L181,157.1L181.36,172.83L182.17,156.67L182.57,110.54L182.97,123.08L183.38,109.48L184.19,133.61L184.59,190.37L185.8,171.24L186.16,214.5L186.57,201.21L187.01,215.99L187.78,252.55L188.22,228.95L188.59,236.4" style="vector-effect: none; fill: none; stroke: rgb(255, 161, 90); stroke-opacity: 1; stroke-width: 2px; opacity: 1;"/></g><g class="points"/><g class="text"/></g></g></g><g class="overplot"/><path class="xlines-above crisp" d="M0,0" style="fill: none;"/><path class="ylines-above crisp" d="M0,0" style="fill: none;"/><g class="overlines-above"/><g class="xaxislayer-above"><g class="xtick"><text text-anchor="middle" x="0" y="433" transform="translate(110.09,0)" style="font-family: 'Open Sans', verdana, arial, sans-serif; font-size: 12px; fill: rgb(42, 63, 95); fill-opacity: 1; white-space: pre; opacity: 1;">1995</text></g><g class="xtick"><text text-anchor="middle" x="0" y="433" style="font-family: 'Open Sans', verdana, arial, sans-serif; font-size: 12px; fill: rgb(42, 63, 95); fill-opacity: 1; white-space: pre; opacity: 1;" transform="translate(183.82,0)">2000</text></g><g class="xtick"><text text-anchor="middle" x="0" y="433" style="font-family: 'Open Sans', verdana, arial, sans-serif; font-size: 12px; fill: rgb(42, 63, 95); fill-opacity: 1; white-space: pre; opacity: 1;" transform="translate(257.6,0)">2005</text></g><g class="xtick"><text text-anchor="middle" x="0" y="433" style="font-family: 'Open Sans', verdana, arial, sans-serif; font-size: 12px; fill: rgb(42, 63, 95); fill-opacity: 1; white-space: pre; opacity: 1;" transform="translate(331.34000000000003,0)">2010</text></g><g class="xtick"><text text-anchor="middle" x="0" y="433" style="font-family: 'Open Sans', verdana, arial, sans-serif; font-size: 12px; fill: rgb(42, 63, 95); fill-opacity: 1; white-space: pre; opacity: 1;" transform="translate(405.08,0)">2015</text></g><g class="xtick"><text text-anchor="middle" x="0" y="433" style="font-family: 'Open Sans', verdana, arial, sans-serif; font-size: 12px; fill: rgb(42, 63, 95); fill-opacity: 1; white-space: pre; opacity: 1;" transform="translate(478.82,0)">2020</text></g></g><g class="yaxislayer-above"><g class="ytick"><text text-anchor="end" x="79" y="4.199999999999999" transform="translate(0,416.8)" style="font-family: 'Open Sans', verdana, arial, sans-serif; font-size: 12px; fill: rgb(42, 63, 95); fill-opacity: 1; white-space: pre; opacity: 1;">−100</text></g><g class="ytick"><text text-anchor="end" x="79" y="4.199999999999999" style="font-family: 'Open Sans', verdana, arial, sans-serif; font-size: 12px; fill: rgb(42, 63, 95); fill-opacity: 1; white-space: pre; opacity: 1;" transform="translate(0,363.65)">−50</text></g><g class="ytick"><text text-anchor="end" x="79" y="4.199999999999999" style="font-family: 'Open Sans', verdana, arial, sans-serif; font-size: 12px; fill: rgb(42, 63, 95); fill-opacity: 1; white-space: pre; opacity: 1;" transform="translate(0,310.5)">0</text></g><g class="ytick"><text text-anchor="end" x="79" y="4.199999999999999" style="font-family: 'Open Sans', verdana, arial, sans-serif; font-size: 12px; fill: rgb(42, 63, 95); fill-opacity: 1; white-space: pre; opacity: 1;" transform="translate(0,257.35)">50</text></g><g class="ytick"><text text-anchor="end" x="79" y="4.199999999999999" style="font-family: 'Open Sans', verdana, arial, sans-serif; font-size: 12px; fill: rgb(42, 63, 95); fill-opacity: 1; white-space: pre; opacity: 1;" transform="translate(0,204.2)">100</text></g><g class="ytick"><text text-anchor="end" x="79" y="4.199999999999999" style="font-family: 'Open Sans', verdana, arial, sans-serif; font-size: 12px; fill: rgb(42, 63, 95); fill-opacity: 1; white-space: pre; opacity: 1;" transform="translate(0,151.06)">150</text></g></g><g class="overaxes-above"/></g></g><g class="polarlayer"/><g class="smithlayer"/><g class="ternarylayer"/><g class="geolayer"/><g class="funnelarealayer"/><g class="pielayer"/><g class="iciclelayer"/><g class="treemaplayer"/><g class="sunburstlayer"/><g class="glimages"/><defs id="topdefs-61b9d1"><g class="clips"/><clipPath id="legend61b9d1"><rect width="139" height="105" x="0" y="0"/></clipPath></defs><g class="layer-above"><g class="imagelayer"/><g class="shapelayer"/></g><g class="infolayer"><g class="legend" pointer-events="all" transform="translate(549.2,100)"><rect class="bg" shape-rendering="crispEdges" width="139" height="105" x="0" y="0" style="stroke: rgb(68, 68, 68); stroke-opacity: 1; fill: rgb(255, 255, 255); fill-opacity: 1; stroke-width: 0px;"/><g class="scrollbox" transform="" clip-path="url(#legend61b9d1)"><g class="groups"><g class="traces" transform="translate(0,14.5)" style="opacity: 1;"><text class="legendtext" text-anchor="start" x="40" y="4.680000000000001" style="font-family: 'Open Sans', verdana, arial, sans-serif; font-size: 12px; fill: rgb(42, 63, 95); fill-opacity: 1; white-space: pre;">Jason.1</text><g class="layers" style="opacity: 1;"><g class="legendfill"/><g class="legendlines"><path class="js-line" d="M5,0h30" style="fill: none; stroke: rgb(99, 110, 250); stroke-opacity: 1; stroke-width: 2px;"/></g><g class="legendsymbols"><g class="legendpoints"/></g></g><rect class="legendtoggle" x="0" y="-9.5" width="133.84375" height="19" style="fill: rgb(0, 0, 0); fill-opacity: 0;"/></g><g class="traces" transform="translate(0,33.5)" style="opacity: 1;"><text class="legendtext" text-anchor="start" x="40" y="4.680000000000001" style="font-family: 'Open Sans', verdana, arial, sans-serif; font-size: 12px; fill: rgb(42, 63, 95); fill-opacity: 1; white-space: pre;">Jason.2</text><g class="layers" style="opacity: 1;"><g class="legendfill"/><g class="legendlines"><path class="js-line" d="M5,0h30" style="fill: none; stroke: rgb(239, 85, 59); stroke-opacity: 1; stroke-width: 2px;"/></g><g class="legendsymbols"><g class="legendpoints"/></g></g><rect class="legendtoggle" x="0" y="-9.5" width="133.84375" height="19" style="fill: rgb(0, 0, 0); fill-opacity: 0;"/></g><g class="traces" transform="translate(0,52.5)" style="opacity: 1;"><text class="legendtext" text-anchor="start" x="40" y="4.680000000000001" style="font-family: 'Open Sans', verdana, arial, sans-serif; font-size: 12px; fill: rgb(42, 63, 95); fill-opacity: 1; white-space: pre;">Jason.3</text><g class="layers" style="opacity: 1;"><g class="legendfill"/><g class="legendlines"><path class="js-line" d="M5,0h30" style="fill: none; stroke: rgb(0, 204, 150); stroke-opacity: 1; stroke-width: 2px;"/></g><g class="legendsymbols"><g class="legendpoints"/></g></g><rect class="legendtoggle" x="0" y="-9.5" width="133.84375" height="19" style="fill: rgb(0, 0, 0); fill-opacity: 0;"/></g><g class="traces" transform="translate(0,71.5)" style="opacity: 1;"><text class="legendtext" text-anchor="start" x="40" y="4.680000000000001" style="font-family: 'Open Sans', verdana, arial, sans-serif; font-size: 12px; fill: rgb(42, 63, 95); fill-opacity: 1; white-space: pre;">Sentinel-6MF</text><g class="layers" style="opacity: 1;"><g class="legendfill"/><g class="legendlines"><path class="js-line" d="M5,0h30" style="fill: none; stroke: rgb(171, 99, 250); stroke-opacity: 1; stroke-width: 2px;"/></g><g class="legendsymbols"><g class="legendpoints"/></g></g><rect class="legendtoggle" x="0" y="-9.5" width="133.84375" height="19" style="fill: rgb(0, 0, 0); fill-opacity: 0;"/></g><g class="traces" transform="translate(0,90.5)" style="opacity: 1;"><text class="legendtext" text-anchor="start" x="40" y="4.680000000000001" style="font-family: 'Open Sans', verdana, arial, sans-serif; font-size: 12px; fill: rgb(42, 63, 95); fill-opacity: 1; white-space: pre;">TOPEX.Poseidon</text><g class="layers" style="opacity: 1;"><g class="legendfill"/><g class="legendlines"><path class="js-line" d="M5,0h30" style="fill: none; stroke: rgb(255, 161, 90); stroke-opacity: 1; stroke-width: 2px;"/></g><g class="legendsymbols"><g class="legendpoints"/></g></g><rect class="legendtoggle" x="0" y="-9.5" width="133.84375" height="19" style="fill: rgb(0, 0, 0); fill-opacity: 0;"/></g></g></g><rect class="scrollbar" rx="20" ry="3" width="0" height="0" x="0" y="0" style="fill: rgb(128, 139, 164); fill-opacity: 1;"/></g><g class="g-gtitle"><text class="gtitle" x="35" y="50" text-anchor="start" dy="0em" style="font-family: 'Open Sans', verdana, arial, sans-serif; font-size: 17px; fill: rgb(42, 63, 95); opacity: 1; font-weight: normal; white-space: pre;">Mean Sea Levels Changing - Arabian Sea</text></g><g class="g-xtitle"><text class="xtitle" x="310" y="460.3" text-anchor="middle" style="font-family: 'Open Sans', verdana, arial, sans-serif; font-size: 14px; fill: rgb(42, 63, 95); opacity: 1; font-weight: normal; white-space: pre;">Date</text></g><g class="g-ytitle"><text class="ytitle" transform="rotate(-90,27.668750000000003,260)" x="27.668750000000003" y="260" text-anchor="middle" style="font-family: 'Open Sans', verdana, arial, sans-serif; font-size: 14px; fill: rgb(42, 63, 95); opacity: 1; font-weight: normal; white-space: pre;">Change in Sea Level [mm]</text></g></g></svg>