<svg class="main-svg" xmlns="http://www.w3.org/2000/svg" xmlns:xlink="http://www.w3.org/1999/xlink" width="700" height="500" style="" viewBox="0 0 700 500"><rect x="0" y="0" width="700" height="500" style="fill: rgb(255, 255, 255); fill-opacity: 1;"/><defs id="defs-99e81a"><g class="clips"><clipPath id="clip99e81axyplot" class="plotclip"><rect width="460" height="320"/></clipPath><clipPath class="axesclip" id="clip99e81ax"><rect x="80" y="0" width="460" height="500"/></clipPath><clipPath class="axesclip" id="clip99e81ay"><rect x="0" y="100" width="700" height="320"/></clipPath><clipPath class="axesclip" id="clip99e81axy"><rect x="80" y="100" width="460" height="320"/></clipPath></g><g class="gradients"/><g class="patterns"/></defs><g class="bglayer"><rect class="bg" x="80" y="100" width="460" height="320" style="fill: rgb(229, 236, 246); fill-opacity: 1; stroke-width: 0;"/></g><g class="layer-below"><g class="imagelayer"/><g class="shapelayer"/></g><g class="cartesianlayer"><g class="subplot xy"><g class="layer-subplot"><g class="shapelayer"/><g class="imagelayer"/></g><g class="minor-gridlayer"><g class="x"/><g class="y"/></g><g class="gridlayer"><g class="x"><path class="xgrid crisp" transform="translate(110.09,0)" d="M0,100v320" style="stroke: rgb(255, 255, 255); stroke-opacity: 1; stroke-width: 1px;"/><path class="xgrid crisp" transform="translate(183.82999999999998,0)" d="M0,100v320" style="stroke: rgb(255, 255, 255); stroke-opacity: 1; stroke-width: 1px;"/><path class="xgrid crisp" transform="translate(257.62,0)" d="M0,100v320" style="stroke: rgb(255, 255, 255); stroke-opacity: 1; stroke-width: 1px;"/><path class="xgrid crisp" transform="translate(331.36,0)" d="M0,100v320" style="stroke: rgb(255, 255, 255); stroke-opacity: 1; stroke-width: 1px;"/><path class="xgrid crisp" transform="translate(405.11,0)" d="M0,100v320" style="stroke: rgb(255, 255, 255); stroke-opacity: 1; stroke-width: 1px;"/><path class="xgrid crisp" transform="translate(478.86,0)" d="M0,100v320" style="stroke: rgb(255, 255, 255); stroke-opacity: 1; stroke-width: 1px;"/></g><g class="y"><path class="ygrid crisp" transform="translate(0,416.25)" d="M80,0h460" style="stroke: rgb(255, 255, 255); stroke-opacity: 1; stroke-width: 1px;"/><path class="ygrid crisp" transform="translate(0,376.59)" d="M80,0h460" style="stroke: rgb(255, 255, 255); stroke-opacity: 1; stroke-width: 1px;"/><path class="ygrid crisp" transform="translate(0,336.94)" d="M80,0h460" style="stroke: rgb(255, 255, 255); stroke-opacity: 1; stroke-width: 1px;"/><path class="ygrid crisp" transform="translate(0,257.62)" d="M80,0h460" style="stroke: rgb(255, 255, 255); stroke-opacity: 1; stroke-width: 1px;"/><path class="ygrid crisp" transform="translate(0,217.97)" d="M80,0h460" style="stroke: rgb(255, 255, 255); stroke-opacity: 1; stroke-width: 1px;"/><path class="ygrid crisp" transform="translate(0,178.31)" d="M80,0h460" style="stroke: rgb(255, 255, 255); stroke-opacity: 1; stroke-width: 1px;"/><path class="ygrid crisp" transform="translate(0,138.66)" d="M80,0h460" style="stroke: rgb(255, 255, 255); stroke-opacity: 1; stroke-width: 1px;"/></g></g><g class="zerolinelayer"><path class="yzl zl crisp" transform="translate(0,297.28)" d="M80,0h460" style="stroke: rgb(255, 255, 255); stroke-opacity: 1; stroke-width: 2px;"/></g><g class="layer-between"><g class="shapelayer"/><g class="imagelayer"/></g><path class="xlines-below"/><path class="ylines-below"/><g class="overlines-below"/><g class="xaxislayer-below"/><g class="yaxislayer-below"/><g class="overaxes-below"/><g class="plot" transform="translate(80,100)" clip-path="url(#clip99e81axyplot)"><g class="scatterlayer mlayer"><g class="trace scatter tracef9f0a6" style="stroke-miterlimit: 2; opacity: 1;"><g class="fills"/><g class="errorbars"/><g class="lines"><path class="js-line" d="M134.12,207.42L134.89,248.18L135.29,223.12L136.51,275.07L136.91,275.86L138.93,191.71L139.33,191.71L139.74,191.87L140.1,182.91L141.31,148.88L141.72,152.61L142.12,118.11L142.52,157.29L142.93,100.58L143.33,117.79L143.69,98.28L144.14,112.01L144.54,111.29L144.91,107.17L145.31,95.03L145.71,160.78L146.12,176.25L146.48,168.4L146.93,153.96L148.1,193.46L148.5,232.16L148.9,235.89L149.31,211.14L149.71,204.96L150.12,232.32L150.52,231.29L150.92,233.98L151.73,276.02L152.18,262.06L152.54,263.81L152.94,286.73L153.71,182.27L154.11,185.53L154.52,189.1L154.92,163.95L155.33,199.8L155.73,199.09L156.13,161.42L156.54,173.23L156.94,160.62L159.32,71.87L159.73,100.66L160.13,119.06L160.54,115.26L160.94,113.27L161.71,113.43L162.11,194.25L162.51,230.5L162.92,203.53L163.32,164.11L164.45,256.03L165.02,253.42L165.34,250.24L165.75,251.99L166.15,251.75L166.47,211.38L166.96,255.72L168.17,187.59L168.53,158.72L169.34,207.02L169.74,195.6L170.15,170.14L171.76,103.99L172.17,89.96L172.57,109.94L172.97,102.73L173.34,87.5L174.55,147.38L174.95,93.68L175.36,94.32L175.76,136.19L176.17,163.95L176.57,142.62L176.97,113.43L177.38,124.3L177.78,175.06L178.99,199.33L179.36,198.37L180.16,269.67L180.57,266.34L180.97,274.75L181.78,234.94L182.18,238.51L182.59,221.22L182.99,220.34L183.39,229.31L183.8,240.17L184.2,216.38L184.61,209.95L184.97,177.04L185.37,216.62L185.78,197.58L186.18,146.11L186.58,167.76L186.99,166.25L187.39,161.02L187.8,162.13L188.12,139.29L188.97,161.34L189.37,142.7L189.78,167.52L190.18,149.84L190.58,124.54L191.79,229.46L192.2,192.58L192.56,188.86L192.97,208.21L193.37,182.35L193.77,207.57L195.39,301.95L195.79,245.72L196.2,231.76L196.6,257.46L197,255.95L197.37,245.01L197.77,250.08L198.18,220.98L198.98,195.2L199.39,227.48L199.79,228.51L200.19,185.37L200.6,187.75L201,171.57L202.17,138.73L202.58,147.62L202.98,151.98L203.39,108.28L203.79,81.31L204.19,105.26L204.48,158.32L205.45,163.48L205.77,151.66L206.17,162.21L206.58,168.16L206.98,158.24L207.38,186.08L207.79,196.07L208.19,235.97L208.6,260.79L209,248.74L209.4,235.1L210.57,166.89L210.98,225.1L211.38,222.09L211.79,229.54L212.59,195.28L213,197.9L213.4,195.76L214.61,204.8L214.98,212.02L216.19,93.92L216.59,121.6L217,129.14L217.4,121.92L218.61,154.04L218.97,165.14L219.38,147.46L219.78,88.85L221.4,169.03L221.8,175.45L222.21,215.43L222.61,190.84L223.01,214.63L224.18,247.31L224.59,243.18L224.99,238.11L225.4,210.91L225.8,225.02L226.2,220.18L226.61,217.73L226.89,200.83L227.42,193.46L227.82,213.44L228.63,196.55L229.03,233.35L230.57,165.78L231.41,186.72L231.82,186.16L232.22,178.15L233.84,112.64L234.24,166.89L234.64,126.76L235.05,158.64L235.45,154.83L235.86,159.19L236.22,192.19L236.62,196.63L237.03,176.33L237.43,231.45L238.48,196.39L239.25,256.43L239.65,252.23L240.06,238.35L240.46,251.91L240.86,236.44L242.44,196.47L242.84,187.83L243.25,184.65L243.65,198.14L244.46,178.78L244.86,189.02L245.27,188.06L245.67,143.57L246.84,79.33L247.65,91.94L248.05,87.42L248.46,116.76L249.26,159.51L249.67,157.85L250.03,96.14L250.44,106.77L250.84,166.41L251.65,200.99L252.05,230.65L252.45,234.06L252.86,177.75L254.43,266.11L254.84,251.75L255.24,236.36L256.45,192.9L256.86,182.75L257.62,227.48L258.07,200.75L258.88,191.95L259.28,146.19L260.45,115.65L260.86,119.22L261.66,80.99L262.07,112.8L262.87,82.11L263.24,97.65L263.68,90.19L264.05,96.3L264.45,95.51L266.06,223.91L266.43,213.21L266.87,216.06L268.45,268.48L268.85,265.07L269.26,286.65L269.66,281.97L270.06,278L271.27,235.1L271.64,225.5L273.66,186.87L274.06,196.63L274.87,104.07L275.27,107.96L275.68,129.45L276.48,104.71L276.85,105.58L277.25,53.39L278.06,124.69L278.46,103.6L278.87,110.66L279.27,135.72L280.08,160.15L280.48,177.99L281.65,190.28L282.06,195.52L282.46,257.46L282.7,254.05L283.31,179.02L286.22,219.71L286.7,189.02L287.11,202.1L287.51,193.46L287.87,200.6L288.16,192.51L288.6,154.2L290.54,68.23L290.94,92.65L291.71,112.01L292.03,73.06L292.44,43.24L292.88,79.17L293.97,160.23L294.38,135.01L295.43,213.6L295.87,212.65L296.27,191.16L296.72,180.21L297.04,224.55L297.36,222.41L297.77,249.69L298.01,235.33L298.78,253.18L300.43,170.93L300.76,173.95L301.2,191.79L301.6,197.34L302.05,188.62L302.37,186.08L302.49,208.76" style="vector-effect: none; fill: none; stroke: rgb(99, 110, 250); stroke-opacity: 1; stroke-width: 2px; opacity: 1;"/></g><g class="points"/><g class="text"/></g><g class="trace scatter trace5bf2d3" style="stroke-miterlimit: 2; opacity: 1;"><g class="fills"/><g class="errorbars"/><g class="lines"><path class="js-line" d="M229.47,203.24L231.05,108.54L231.45,194.51L233.43,105.53L233.84,107.35L234.24,162.39L234.64,106.95L235.05,153.19L235.45,157L236.26,201.57L236.66,193.8L237.07,185.71L237.83,244.4L238.24,211.64L238.64,206.65L239.05,234.88L239.45,256.53L239.85,244.08L240.26,238.45L240.66,249.32L241.03,223.78L241.47,235.83L241.83,219.1L243.04,189.52L243.45,208.47L244.66,190.86L245.06,211.72L246.68,102.99L247.08,97.2L247.45,60.56L247.85,109.65L248.25,74.36L248.66,118.53L249.47,154.46L249.87,129.87L250.27,85.62L250.68,152.56L252.25,272.79L252.66,220.76L253.06,180.95L253.46,191.42L253.87,219.49L254.68,263.83L255.08,234.96L256.65,186.58L257.06,194.43L257.46,226.39L257.87,197.05L258.27,193.8L258.67,174.76L259.08,163.5L259.48,130.03L259.85,132.09L260.25,111.08L260.65,134.87L261.06,112.98L261.46,100.37L261.86,107.75L262.27,114.49L262.67,84.11L263.08,97.2L263.48,89.27L263.84,65.24L264.25,102.43L265.86,221.16L266.27,214.82L266.67,223.54L267.07,212.99L267.48,250.19L267.88,233.53L268.29,249.47L269.86,280.8L270.27,269.14L271.48,225.21L271.88,227.66L273.46,191.42L273.86,191.97L274.26,196.65L274.67,133.6L275.07,98.31L275.47,126.94L275.84,117.03L276.28,112.82L276.69,123.13L277.09,53.82L277.49,68.73L277.86,121.31L279.07,97.75L279.47,160.17L279.88,143.99L280.28,165.25L281.09,183.57L281.45,175.4L281.86,187.22L282.26,228.22L282.66,237.34L283.07,187.53L283.47,182.38L283.88,198.24L284.68,264.62L285.09,252.41L285.49,229.57L286.3,193.72L286.7,175.95L287.91,200.22L288.28,165.25L289.89,76.82L290.3,81.73L290.7,55.64L291.1,98.78L291.51,100.61L291.91,78.08L292.32,50.25L292.72,80.54L293.12,94.1L293.53,86.25L293.93,145.1L294.7,173.81L295.1,173.65L295.51,229.33L296.72,167.63L297.12,203.24L298.33,239.08L298.74,258.59L300.72,166.04L301.12,178.97L301.52,178.49L301.93,179.84L302.33,181.19L302.74,163.98L303.14,151.68L303.54,159.62L303.95,159.38L305.12,101.64L305.44,120.28L306.01,150.81L306.33,123.69L307.95,75.63L308.31,129.08L309.12,226.24L309.52,211.09L309.92,176.27L310.73,213.63L311.14,192.05L311.94,213.86L312.31,183.49L312.71,192.53L313.12,181.03L313.52,170.88L313.92,191.97L315.13,169.77L315.54,190.39L315.94,160.65L316.35,169.61L316.75,207.99L318.32,165.17L318.73,164.29L319.13,114.96L319.54,121.55L319.94,129.16L321.11,91.8L321.56,107.43L321.92,49.53L322.32,66.11L322.73,104.49L323.94,163.82L324.34,136.14L324.75,207.84L325.15,179.52L325.51,179.6L325.96,181.11L326.32,198.72L326.73,241.7L327.13,190.55L327.94,266.37L328.34,237.66L328.74,247.89L329.15,245.91L329.55,247.41L329.92,244.64L330.32,213.71L330.72,207.68L331.17,181.19L331.53,183.81L331.94,195.23L332.34,187.69L332.74,191.82L333.15,161.44L333.91,109.49L334.36,120.83L334.72,152.16L335.13,162.47L335.53,131.46L335.93,96.33L336.34,100.21L336.74,120.04L337.51,79.67L337.95,99.1L338.36,95.61L338.72,158.74L339.53,113.3L339.93,119.33L340.34,136.69L341.14,220.05L341.55,186.9L342.76,233.69L343.16,170.72L343.57,181.03L343.97,166.83L344.37,156.28L344.74,165.25L345.14,180L346.35,125.35L346.76,135.5L347.16,168.58L347.56,157.79L347.97,162.31L349.54,80.07L349.99,85.3L350.39,105.13L350.8,72.93L351.76,44.69L352.17,68.65L352.57,39.54L352.98,64.76L355,157.08L355.4,148.04L356.21,172.62L356.57,154.78L357.62,202.76L358.31,150.49L359.4,189.83L359.8,219.65L360.04,217.12" style="vector-effect: none; fill: none; stroke: rgb(239, 85, 59); stroke-opacity: 1; stroke-width: 2px; opacity: 1;"/></g><g class="points"/><g class="text"/></g><g class="trace scatter trace5ad4d5" style="stroke-miterlimit: 2; opacity: 1;"><g class="fills"/><g class="errorbars"/><g class="lines"><path class="js-line" d="M341.63,177.79L342.72,226.33L343.16,160.5L343.57,170.26L343.93,164.47L344.33,145.12L345.14,166.53L345.55,161.77L345.95,134.41L346.35,118.15L346.76,127.99L347.16,156.06L347.97,147.1L348.37,125.21L349.99,64.86L350.35,89.92L351.97,54.78L352.37,54.62L352.77,49.07L353.18,75.4L353.54,75.48L353.99,97.37L355.16,151.7L355.56,135.76L355.96,160.58L356.37,151.14L356.77,147.34L357.18,167.8L357.58,162.72L357.98,157.01L358.39,158.12L358.79,188.74L359.2,187.71L359.6,207.38L360,209.76L360.37,217.69L362.39,105.3L362.79,120.06L363.6,126.32L364,107.84L364.37,116.64L364.77,86.9L365.17,83.26L365.58,67.55L365.98,46.53L366.38,97.69L366.79,37.1L367.19,91.03L368,207.38L368.36,190.4L368.77,183.82L369.17,209.68L369.58,180.49L371.19,267.33L371.59,245.6L372.4,302.95L372.77,243.22L373.21,227.05L373.57,249.81L373.98,247.27L374.38,219.43L375.19,171.85L375.59,173.99L376,183.74L376.4,174.86L376.8,135.28L377.21,153.13L377.61,112.04L377.98,108.16L378.38,84.29L378.78,58.35L379.19,98.72L379.59,105.54L379.99,82.54L380.4,103.48L380.8,99.28L381.21,104.99L381.61,128.07L382.01,112.76L382.42,115.93L383.99,81.83L384.4,112.44L384.8,137.5L385.2,132.19L385.57,138.46L386.25,232.44L386.86,172.56L387.18,169.78L387.59,178.98L387.87,179.7L388.4,197.46L388.8,201.75L389.2,170.73L389.61,157.01L390.01,168.51L390.41,184.46L391.59,133.38L392.03,159.23L393.2,105.07L393.6,119.9L394.01,133.62L394.41,120.21L394.82,124.81L395.18,67.31L395.58,107.52L395.99,77.7L396.39,73.98L397.6,118.71L398.01,145.51L399.18,100.62L399.58,165.5L399.91,163.6L400.59,131.56L402.01,210.95L402.41,205.95L402.81,190.4L403.22,201.27L403.62,216.97L405.24,121.96L405.6,135.76L406.04,121.32L406.41,147.34L407.62,117.2L408.02,110.46L408.83,54.54L409.23,110.38L409.64,116.96L410.04,100.39L410.85,35.83L411.25,48.12L411.66,95.79L412.47,138.38L412.87,113.87L413.23,113.95L413.64,139.17L414.04,164.39L414.44,160.82L414.85,145.83L416.42,210.95L416.87,204.52L417.23,189.13L418.44,152.97L418.85,163.52L419.25,174.86L419.65,153.44L420.06,148.61L420.46,126.56L420.87,88.89L421.27,101.66L421.63,97.61L422.44,21.31L422.84,85.95L423.25,68.9L423.65,96.02L424.86,23.93L425.27,58.51L426.04,81.11L426.44,122.59L426.84,104.67L427.25,124.81L427.65,115.06L428.05,146.23L428.46,155.67L428.86,155.59L429.27,129.18L429.63,138.22L430.07,123.78L430.84,195.32L431.24,168.67L431.65,173.19L432.05,199.68L433.06,206.35L433.35,198.49L433.75,199.21L434.15,131.79L434.52,127.03L434.96,144.17L435.32,139.88L435.73,118.79L437.34,72.63L437.75,78.1L438.15,59.14L438.55,61.21L438.96,62.32L439.32,16L439.73,48.28L440.13,82.14L441.34,63.35L441.75,88.33L442.51,177.79L442.92,159.23L443.72,115.85L444.13,132.11L446.55,199.37L446.96,188.5L447.36,191.51L447.76,177.87L448.17,178.82L448.53,150.43L449.74,116.17L450.15,94.6L450.51,101.5L450.95,83.49L451.76,74.85L452.17,97.13L452.57,94.99L452.93,53.59L454.14,22.27L454.55,41.38L456.57,140.12L456.97,135.2L457.33,138.85L458.14,161.14L458.55,140.76L459.76,176.45L460,201.9" style="vector-effect: none; fill: none; stroke: rgb(0, 204, 150); stroke-opacity: 1; stroke-width: 2px; opacity: 1;"/></g><g class="points"/><g class="text"/></g><g class="trace scatter traceb32a0e" style="stroke-miterlimit: 2; opacity: 1;"><g class="fills"/><g class="errorbars"/><g class="lines"><path class="js-line" d="M413.23,110.18L414.44,160.23L414.85,139.53L416.06,167.6L416.42,208.92L418.04,171.41L418.48,145.71L419.25,176.33L419.65,157.21L420.06,149.36L420.46,126.84L420.87,98.6L421.27,100.43L421.63,105.74L422.44,18.26L422.84,84.8L423.25,72.19L423.65,95.43L424.86,21.67L425.27,54.66L426.08,82.34L426.44,119.7L426.84,98.21L427.25,120.81L427.65,108.67L428.05,136.43L428.46,151.18L428.86,150.95L429.27,121.6L429.67,128.11L430.07,115.97L430.84,188.7L431.24,167.68L431.65,170.85L432.46,217.96L432.86,210.51L433.26,196.95L433.67,211.14L434.07,145.95L434.48,128.9L434.88,145.71L435.24,141.98L435.65,124.14L438.47,46.26L438.88,73.14L439.69,24.68L440.05,74.49L440.45,59.5L440.86,65.53L441.26,58.23L441.66,73.06L442.07,139.45L442.47,166.57L442.88,160.07L443.24,141.43L443.64,104.47L444.05,111.69L444.45,137.31L446.07,187.83L446.47,206.54L447.68,174.11L448.09,175.93L448.85,143.73L449.26,146.74L449.66,129.14L450.87,91.31L451.28,93.68L452.08,90.04L452.45,116.92L453.66,31.19L454.06,36.26L455.27,55.46L455.68,54.51L456.49,138.73L456.85,138.57" style="vector-effect: none; fill: none; stroke: rgb(171, 99, 250); stroke-opacity: 1; stroke-width: 2px; opacity: 1;"/></g><g class="points"/><g class="text"/></g><g class="trace scatter trace946911" style="stroke-miterlimit: 2; opacity: 1;"><g class="fills"/><g class="errorbars"/><g class="lines"><path class="js-line" d="M0,232.86L0.77,205.26L1.17,212L1.49,257.44L1.98,304L2.34,297.66L2.79,259.59L3.15,267.44L3.55,248.8L5.17,211.29L5.57,241.74L5.98,241.19L6.38,241.98L6.78,235.87L7.19,271.72L7.55,265.77L7.96,241.98L8.36,213.03L9.17,225.09L9.61,221.28L9.98,193.36L10.38,200.34L10.78,187.65L11.19,183.21L11.59,125.87L11.99,137.61L12.36,124.92L13.17,201.61L13.57,162.99L13.97,248.88L14.38,227.62L14.78,220.49L15.95,186.7L16.36,218.27L17.16,259.9L17.57,260.7L18.78,248.24L19.18,248.64L19.59,225.4L19.99,214.46L20.4,251.89L20.8,289.49L21.16,252.21L21.57,251.42L21.97,246.26L22.78,235.24L23.18,206.84L23.99,167.74L24.39,129.6L25.2,116.43L25.56,127.06L25.97,112.86L26.37,165.21L26.78,146.57L27.18,155.61L27.58,151.41L28.39,162.83L28.8,205.1L29.2,175.83L29.56,183.69L29.97,190.51L30.37,250.23L30.77,222.15L31.18,195.74L33.56,276.56L34.01,271.48L34.37,237.22L34.77,237.38L35.58,234.68L35.98,229.45L36.39,259.19L38.41,179.4L38.81,201.53L39.17,201.85L39.58,159.42L40.39,204.39L40.79,135.15L41.19,130.87L41.6,134.67L42.81,252.13L43.17,173.22L43.98,149.11L44.38,173.14L45.19,220.33L45.56,214.7L47.21,289.72L47.62,297.58L47.94,297.58L48.38,285.6L48.83,288.14L49.19,262.52L49.59,258.71L50,218.74L50.81,245.23L51.21,219.69L52.02,231.51L52.42,263.08L53.63,187.26L54.04,183.05L54.44,192.25L54.84,182.58L56.02,116.99L56.82,140.7L57.63,139.19L58.04,176.87L58.44,174.8L58.84,220.57L59.25,212.4L59.65,187.1L60.42,229.61L60.82,210.65L61.63,212.24L62.03,214.78L63.24,282.03L63.65,266.8L64.05,233.1L64.46,245.31L64.82,254.91L65.63,228.5L66.44,226.2L67.24,164.89L67.65,173.3L68.05,161.4L69.67,136.02L70.03,182.97L70.43,135.86L71.24,175.28L72.45,193.04L72.86,169.49L73.62,223.66L74.03,178.37L74.43,188.44L74.84,221.6L75.64,230.08L76.05,229.53L76.45,253.08L77.26,213.59L77.66,226.43L78.07,259.9L78.43,255.14L78.83,253.56L79.24,219.53L79.64,240.47L80.45,205.42L81.66,148.08L82.06,177.82L82.47,158.78L83.24,160.45L83.64,187.57L84.04,176.55L84.45,168.38L84.85,149.66L85.26,164.81L85.66,150.22L86.47,123.33L86.87,156.4L87.27,144.59L87.64,166.16L88.45,230.08L88.85,180.12L89.66,220.8L90.42,249.12L90.95,278.78L91.23,276.8L91.64,254.43L92.04,247.06L92.44,208.99L92.85,205.18L93.25,232.54L94.06,265.14L94.46,257.13L94.87,221.99L95.63,212.24L96.04,189.24L96.48,190.43L96.85,184.48L97.65,129.28L98.06,130.47L98.46,131.02L99.27,119.92L99.63,129.2L101.25,51.4L101.65,92.24L103.27,176.47L103.67,176.31L104.08,151.49L105.65,229.61L106.05,192.17L108.07,261.17L108.48,248.32L108.88,253.8L109.29,248.88L110.05,245.15L110.5,220.49L110.9,234.6L111.26,212.48L113.28,125.08L113.69,114.92L114.09,196.93L114.5,109.21L114.9,117.22L115.3,169.25L116.51,141.73L116.92,153.07L117.32,148L117.69,159.58L118.49,144.03L118.9,145.06L119.71,194.55L120.11,231.11L120.51,230.4L120.92,233.89L121.72,242.22L122.13,230.24L123.3,265.93L123.7,270.21L124.91,225.8L125.32,220.64L128.91,106.83L129.32,122.38L129.72,89.62L130.12,98.82L130.53,112.23L131.74,192.17L132.1,162.91L132.71,260.06L132.91,198.6L133.32,222.07L134.12,211.84L134.49,238.81L134.89,253.72L135.29,226.75L136.51,279.81L136.91,280.76L138.93,193.2L139.29,193.68L139.7,202.4L140.1,190.9L141.31,145.06L141.72,152.52L142.12,128.88L142.52,166.48L143.73,98.74L144.1,110.96L144.54,123.57L144.91,118.57L145.31,104.69L146.12,184.88L146.52,166.63L146.93,157.59L147.33,168.78L148.54,238.49L148.9,238.01L149.31,212.71L149.71,210.26L150.12,226.04L151.33,255.38L151.73,276.4L152.14,264.5L152.54,265.3L152.9,289.57L154.52,191.7L154.96,177.98L155.33,201.61L156.13,169.49L156.9,155.85L157.3,138.72L159.32,62.1L159.73,87.56L160.94,110.72L161.5,68.37L162.51,215.17L162.92,207.16L163.32,160.13L164.53,256.02L164.94,267.44L166.15,244.2L166.55,239.12L166.96,262.04L167.36,234.6L167.72,239.92L168.13,182.73L168.53,163.54L169.74,177.1L170.15,174.25L170.55,142.13L172.17,91.84L172.57,108.66L172.97,102.31L173.38,104.85L173.78,141.81L174.19,136.26L174.55,137.84L174.95,91.05L175.36,94.62L175.76,143.95L176.17,165.76L176.57,142.21L176.89,115L177.38,133.09L177.78,186.22L178.18,203.12L178.59,197.8L178.99,195.03L179.36,196.46L179.76,250.86L180.16,273.7L180.57,273.62L180.97,275.45L182.55,234.13L182.99,230.08L183.8,250.39L184.16,231.51L184.57,223.34L185.01,192.01L185.37,214.38L185.78,205.97L186.18,153.87L186.58,176.63L186.99,168.93L187.39,164.1L187.76,165.6L188.16,135.78L188.56,147.52" style="vector-effect: none; fill: none; stroke: rgb(255, 161, 90); stroke-opacity: 1; stroke-width: 2px; opacity: 1;"/></g><g class="points"/><g class="text"/></g></g></g><g class="overplot"/><path class="xlines-above crisp" d="M0,0" style="fill: none;"/><path class="ylines-above crisp" d="M0,0" style="fill: none;"/><g class="overlines-above"/><g class="xaxislayer-above"><g class="xtick"><text text-anchor="middle" x="0" y="433" transform="translate(110.09,0)" style="font-family: 'Open Sans', verdana, arial, sans-serif; font-size: 12px; fill: rgb(42, 63, 95); fill-opacity: 1; white-space: pre; opacity: 1;">1995</text></g><g class="xtick"><text text-anchor="middle" x="0" y="433" style="font-family: 'Open Sans', verdana, arial, sans-serif; font-size: 12px; fill: rgb(42, 63, 95); fill-opacity: 1; white-space: pre; opacity: 1;" transform="translate(183.82999999999998,0)">2000</text></g><g class="xtick"><text text-anchor="middle" x="0" y="433" style="font-family: 'Open Sans', verdana, arial, sans-serif; font-size: 12px; fill: rgb(42, 63, 95); fill-opacity: 1; white-space: pre; opacity: 1;" transform="translate(257.62,0)">2005</text></g><g class="xtick"><text text-anchor="middle" x="0" y="433" style="font-family: 'Open Sans', verdana, arial, sans-serif; font-size: 12px; fill: rgb(42, 63, 95); fill-opacity: 1; white-space: pre; opacity: 1;" transform="translate(331.36,0)">2010</text></g><g class="xtick"><text text-anchor="middle" x="0" y="433" style="font-family: 'Open Sans', verdana, arial, sans-serif; font-size: 12px; fill: rgb(42, 63, 95); fill-opacity: 1; white-space: pre; opacity: 1;" transform="translate(405.11,0)">2015</text></g><g class="xtick"><text text-anchor="middle" x="0" y="433" style="font-family: 'Open Sans', verdana, arial, sans-serif; font-size: 12px; fill: rgb(42, 63, 95); fill-opacity: 1; white-space: pre; opacity: 1;" transform="translate(478.86,0)">2020</text></g></g><g class="yaxislayer-above"><g class="ytick"><text text-anchor="end" x="79" y="4.199999999999999" transform="translate(0,416.25)" style="font-family: 'Open Sans', verdana, arial, sans-serif; font-size: 12px; fill: rgb(42, 63, 95); fill-opacity: 1; white-space: pre; opacity: 1;">−150</text></g><g class="ytick"><text text-anchor="end" x="79" y="4.199999999999999" style="font-family: 'Open Sans', verdana, arial, sans-serif; font-size: 12px; fill: rgb(42, 63, 95); fill-opacity: 1; white-space: pre; opacity: 1;" transform="translate(0,376.59)">−100</text></g><g class="ytick"><text text-anchor="end" x="79" y="4.199999999999999" style="font-family: 'Open Sans', verdana, arial, sans-serif; font-size: 12px; fill: rgb(42, 63, 95); fill-opacity: 1; white-space: pre; opacity: 1;" transform="translate(0,336.94)">−50</text></g><g class="ytick"><text text-anchor="end" x="79" y="4.199999999999999" style="font-family: 'Open Sans', verdana, arial, sans-serif; font-size: 12px; fill: rgb(42, 63, 95); fill-opacity: 1; white-space: pre; opacity: 1;" transform="translate(0,297.28)">0</text></g><g class="ytick"><text text-anchor="end" x="79" y="4.199999999999999" style="font-family: 'Open Sans', verdana, arial, sans-serif; font-size: 12px; fill: rgb(42, 63, 95); fill-opacity: 1; white-space: pre; opacity: 1;" transform="translate(0,257.62)">50</text></g><g class="ytick"><text text-anchor="end" x="79" y="4.199999999999999" style="font-family: 'Open Sans', verdana, arial, sans-serif; font-size: 12px; fill: rgb(42, 63, 95); fill-opacity: 1; white-space: pre; opacity: 1;" transform="translate(0,217.97)">100</text></g><g class="ytick"><text text-anchor="end" x="79" y="4.199999999999999" style="font-family: 'Open Sans', verdana, arial, sans-serif; font-size: 12px; fill: rgb(42, 63, 95); fill-opacity: 1; white-space: pre; opacity: 1;" transform="translate(0,178.31)">150</text></g><g class="ytick"><text text-anchor="end" x="79" y="4.199999999999999" style="font-family: 'Open Sans', verdana, arial, sans-serif; font-size: 12px; fill: rgb(42, 63, 95); fill-opacity: 1; white-space: pre; opacity: 1;" transform="translate(0,138.66)">200</text></g></g><g class="overaxes-above"/></g></g><g class="polarlayer"/><g class="smithlayer"/><g class="ternarylayer"/><g class="geolayer"/><g class="funnelarealayer"/><g class="pielayer"/><g class="iciclelayer"/><g class="treemaplayer"/><g class="sunburstlayer"/><g class="glimages"/><defs id="topdefs-99e81a"><g class="clips"/><clipPath id="legend99e81a"><rect width="139" height="105" x="0" y="0"/></clipPath></defs><g class="layer-above"><g class="imagelayer"/><g class="shapelayer"/></g><g class="infolayer"><g class="legend" pointer-events="all" transform="translate(549.2,100)"><rect class="bg" shape-rendering="crispEdges" width="139" height="105" x="0" y="0" style="stroke: rgb(68, 68, 68); stroke-opacity: 1; fill: rgb(255, 255, 255); fill-opacity: 1; stroke-width: 0px;"/><g class="scrollbox" transform="" clip-path="url(#legend99e81a)"><g class="groups"><g class="traces" transform="translate(0,14.5)" style="opacity: 1;"><text class="legendtext" text-anchor="start" x="40" y="4.680000000000001" style="font-family: 'Open Sans', verdana, arial, sans-serif; font-size: 12px; fill: rgb(42, 63, 95); fill-opacity: 1; white-space: pre;">Jason.1</text><g class="layers" style="opacity: 1;"><g class="legendfill"/><g class="legendlines"><path class="js-line" d="M5,0h30" style="fill: none; stroke: rgb(99, 110, 250); stroke-opacity: 1; stroke-width: 2px;"/></g><g class="legendsymbols"><g class="legendpoints"/></g></g><rect class="legendtoggle" x="0" y="-9.5" width="133.84375" height="19" style="fill: rgb(0, 0, 0); fill-opacity: 0;"/></g><g class="traces" transform="translate(0,33.5)" style="opacity: 1;"><text class="legendtext" text-anchor="start" x="40" y="4.680000000000001" style="font-family: 'Open Sans', verdana, arial, sans-serif; font-size: 12px; fill: rgb(42, 63, 95); fill-opacity: 1; white-space: pre;">Jason.2</text><g class="layers" style="opacity: 1;"><g class="legendfill"/><g class="legendlines"><path class="js-line" d="M5,0h30" style="fill: none; stroke: rgb(239, 85, 59); stroke-opacity: 1; stroke-width: 2px;"/></g><g class="legendsymbols"><g class="legendpoints"/></g></g><rect class="legendtoggle" x="0" y="-9.5" width="133.84375" height="19" style="fill: rgb(0, 0, 0); fill-opacity: 0;"/></g><g class="traces" transform="translate(0,52.5)" style="opacity: 1;"><text class="legendtext" text-anchor="start" x="40" y="4.680000000000001" style="font-family: 'Open Sans', verdana, arial, sans-serif; font-size: 12px; fill: rgb(42, 63, 95); fill-opacity: 1; white-space: pre;">Jason.3</text><g class="layers" style="opacity: 1;"><g class="legendfill"/><g class="legendlines"><path class="js-line" d="M5,0h30" style="fill: none; stroke: rgb(0, 204, 150); stroke-opacity: 1; stroke-width: 2px;"/></g><g class="legendsymbols"><g class="legendpoints"/></g></g><rect class="legendtoggle" x="0" y="-9.5" width="133.84375" height="19" style="fill: rgb(0, 0, 0); fill-opacity: 0;"/></g><g class="traces" transform="translate(0,71.5)" style="opacity: 1;"><text class="legendtext" text-anchor="start" x="40" y="4.680000000000001" style="font-family: 'Open Sans', verdana, arial, sans-serif; font-size: 12px; fill: rgb(42, 63, 95); fill-opacity: 1; white-space: pre;">Sentinel-6MF</text><g class="layers" style="opacity: 1;"><g class="legendfill"/><g class="legendlines"><path class="js-line" d="M5,0h30" style="fill: none; stroke: rgb(171, 99, 250); stroke-opacity: 1; stroke-width: 2px;"/></g><g class="legendsymbols"><g class="legendpoints"/></g></g><rect class="legendtoggle" x="0" y="-9.5" width="133.84375" height="19" style="fill: rgb(0, 0, 0); fill-opacity: 0;"/></g><g class="traces" transform="translate(0,90.5)" style="opacity: 1;"><text class="legendtext" text-anchor="start" x="40" y="4.680000000000001" style="font-family: 'Open Sans', verdana, arial, sans-serif; font-size: 12px; fill: rgb(42, 63, 95); fill-opacity: 1; white-space: pre;">TOPEX.Poseidon</text><g class="layers" style="opacity: 1;"><g class="legendfill"/><g class="legendlines"><path class="js-line" d="M5,0h30" style="fill: none; stroke: rgb(255, 161, 90); stroke-opacity: 1; stroke-width: 2px;"/></g><g class="legendsymbols"><g class="legendpoints"/></g></g><rect class="legendtoggle" x="0" y="-9.5" width="133.84375" height="19" style="fill: rgb(0, 0, 0); fill-opacity: 0;"/></g></g></g><rect class="scrollbar" rx="20" ry="3" width="0" height="0" x="0" y="0" style="fill: rgb(128, 139, 164); fill-opacity: 1;"/></g><g class="g-gtitle"><text class="gtitle" x="35" y="50" text-anchor="start" dy="0em" style="font-family: 'Open Sans', verdana, arial, sans-serif; font-size: 17px; fill: rgb(42, 63, 95); opacity: 1; font-weight: normal; white-space: pre;">Mean Sea Levels Changing - Sea Japan</text></g><g class="g-xtitle"><text class="xtitle" x="310" y="460.3" text-anchor="middle" style="font-family: 'Open Sans', verdana, arial, sans-serif; font-size: 14px; fill: rgb(42, 63, 95); opacity: 1; font-weight: normal; white-space: pre;">Date</text></g><g class="g-ytitle"><text class="ytitle" transform="rotate(-90,27.668750000000003,260)" x="27.668750000000003" y="260" text-anchor="middle" style="font-family: 'Open Sans', verdana, arial, sans-serif; font-size: 14px; fill: rgb(42, 63, 95); opacity: 1; font-weight: normal; white-space: pre;">Change in Sea Level [mm]</text></g></g></svg>