<svg class="main-svg" xmlns="http://www.w3.org/2000/svg" xmlns:xlink="http://www.w3.org/1999/xlink" width="700" height="500" style="" viewBox="0 0 700 500"><rect x="0" y="0" width="700" height="500" style="fill: rgb(255, 255, 255); fill-opacity: 1;"/><defs id="defs-46afd2"><g class="clips"><clipPath id="clip46afd2xyplot" class="plotclip"><rect width="460" height="320"/></clipPath><clipPath class="axesclip" id="clip46afd2x"><rect x="80" y="0" width="460" height="500"/></clipPath><clipPath class="axesclip" id="clip46afd2y"><rect x="0" y="100" width="700" height="320"/></clipPath><clipPath class="axesclip" id="clip46afd2xy"><rect x="80" y="100" width="460" height="320"/></clipPath></g><g class="gradients"/><g class="patterns"/></defs><g class="bglayer"><rect class="bg" x="80" y="100" width="460" height="320" style="fill: rgb(229, 236, 246); fill-opacity: 1; stroke-width: 0;"/></g><g class="layer-below"><g class="imagelayer"/><g class="shapelayer"/></g><g class="cartesianlayer"><g class="subplot xy"><g class="layer-subplot"><g class="shapelayer"/><g class="imagelayer"/></g><g class="minor-gridlayer"><g class="x"/><g class="y"/></g><g class="gridlayer"><g class="x"><path class="xgrid crisp" transform="translate(110.09,0)" d="M0,100v320" style="stroke: rgb(255, 255, 255); stroke-opacity: 1; stroke-width: 1px;"/><path class="xgrid crisp" transform="translate(183.82999999999998,0)" d="M0,100v320" style="stroke: rgb(255, 255, 255); stroke-opacity: 1; stroke-width: 1px;"/><path class="xgrid crisp" transform="translate(257.62,0)" d="M0,100v320" style="stroke: rgb(255, 255, 255); stroke-opacity: 1; stroke-width: 1px;"/><path class="xgrid crisp" transform="translate(331.36,0)" d="M0,100v320" style="stroke: rgb(255, 255, 255); stroke-opacity: 1; stroke-width: 1px;"/><path class="xgrid crisp" transform="translate(405.11,0)" d="M0,100v320" style="stroke: rgb(255, 255, 255); stroke-opacity: 1; stroke-width: 1px;"/><path class="xgrid crisp" transform="translate(478.86,0)" d="M0,100v320" style="stroke: rgb(255, 255, 255); stroke-opacity: 1; stroke-width: 1px;"/></g><g class="y"><path class="ygrid crisp" transform="translate(0,405.1)" d="M80,0h460" style="stroke: rgb(255, 255, 255); stroke-opacity: 1; stroke-width: 1px;"/><path class="ygrid crisp" transform="translate(0,341.61)" d="M80,0h460" style="stroke: rgb(255, 255, 255); stroke-opacity: 1; stroke-width: 1px;"/><path class="ygrid crisp" transform="translate(0,214.62)" d="M80,0h460" style="stroke: rgb(255, 255, 255); stroke-opacity: 1; stroke-width: 1px;"/><path class="ygrid crisp" transform="translate(0,151.13)" d="M80,0h460" style="stroke: rgb(255, 255, 255); stroke-opacity: 1; stroke-width: 1px;"/></g></g><g class="zerolinelayer"><path class="yzl zl crisp" transform="translate(0,278.11)" d="M80,0h460" style="stroke: rgb(255, 255, 255); stroke-opacity: 1; stroke-width: 2px;"/></g><g class="layer-between"><g class="shapelayer"/><g class="imagelayer"/></g><path class="xlines-below"/><path class="ylines-below"/><g class="overlines-below"/><g class="xaxislayer-below"/><g class="yaxislayer-below"/><g class="overaxes-below"/><g class="plot" transform="translate(80,100)" clip-path="url(#clip46afd2xyplot)"><g class="scatterlayer mlayer"><g class="trace scatter trace5dc5a0" style="stroke-miterlimit: 2; opacity: 1;"><g class="fills"/><g class="errorbars"/><g class="lines"><path class="js-line" d="M134.12,154.94L134.93,80.37L135.33,90.43L135.74,97.63L136.1,55.92L136.51,84.43L136.91,112.3L137.72,218.81L138.12,208.4L138.53,208.08L139.74,236.24L140.14,206.4L140.95,133.86L141.31,170.49L141.72,140.68L142.12,187.44L142.93,201.16L143.33,181.51L143.73,208.46L144.14,195.41L144.54,165.06L145.35,249.67L145.71,189.44L146.12,227.29L146.52,212.4L146.93,213.29L147.73,271.41L148.1,266.78L148.54,216.4L148.94,159.32L149.31,165.25L149.75,155.79L150.12,175.95L150.56,248.94L150.92,239.25L151.33,198.56L151.77,192.87L152.18,166.65L152.94,254.11L153.35,202.71L154.15,200.27L154.56,201.54L155.73,151.32L156.13,158.14L156.54,175.67L156.94,174.97L157.35,172.97L157.75,136.14L158.15,138.05L158.56,165L159.73,104.43L160.13,196.02L160.54,148.94L160.9,192.59L161.5,180.65L161.75,186.94L162.15,173.57L162.55,115.44L162.92,121.7L163.32,197.63L163.73,194.9L164.17,197.32L164.49,135.35L164.98,174.97L165.34,151.29L166.15,204.05L166.51,198.24L167.76,262.75L168.17,261.95L168.57,180.17L168.94,152.81L169.38,184.59L170.96,121.92L171.36,148.94L172.17,218.56L172.57,159.1L172.97,142.81L173.38,165.1L173.78,88.97L174.19,94.21L174.59,162.43L174.99,173.6L175.36,159.92L175.8,153.44L176.21,119.67L176.57,104.21L177.01,108.02L177.38,108.14L178.18,26.75L178.59,48.3L178.99,87.16L180.2,239.95L180.57,227.44L180.97,205.32L181.42,252.68L181.78,224.71L182.14,233.03L182.63,249.6L182.99,204.14L183.8,197.79L184.16,166.84L184.61,171.03L184.97,164.52L185.41,187.32L185.78,171.06L186.18,147.25L186.99,121.51L187.39,126.14L187.8,160.17L188.64,125.51L189.01,125.86L189.41,197.22L190.58,114.84L190.99,171.41L191.39,208.49L191.79,170.9L192.2,127.44L192.6,154.3L193.01,187L193.37,230.9L193.77,213.83L194.22,208.33L194.58,244.84L194.99,242.56L195.39,250.3L195.79,274.97L196.2,235.57L197,173.7L197.37,202.71L197.81,252.87L198.22,223.35L198.62,143.16L199.39,187.86L199.79,180.78L200.19,178.56L201.41,198.14L201.81,205.06L202.62,111.51L203.02,164.17L203.43,173.86L203.79,122.56L204.52,182.71L205.45,79.6L206.17,107.73L206.62,24.56L207.38,84.81L207.79,32.3L208.19,34.21L208.55,57.54L209.4,231.63L209.81,201.98L210.21,131.13L210.57,132.14L211.02,177.67L211.42,152.49L211.83,163.35L212.23,216.4L213,156.87L213.4,186.75L213.81,222.3L214.21,208.52L214.61,175.22L215.78,99.7L216.23,151.7L216.63,166.17L217,130.33L217.8,73.29L218.21,114.02L219.42,155.29L219.82,116.17L220.59,162.71L220.99,85.95L222.21,188.87L222.61,170.52L223.01,102.11L223.42,66.27L223.82,122.14L224.63,94.14L224.99,134.87L226.61,225.48L226.93,213.6L227.82,230.71L228.22,263.51L229.03,152.3L229.43,173.98L229.84,162.02L230.24,142.02L230.57,195.73L231.45,156.81L231.86,162.78L232.26,177.13L232.67,219L233.03,181.32L233.43,129.89L234.24,81.13L234.64,145.19L235.45,112.87L235.86,131.63L236.26,128.46L236.66,163.95L237.07,153.67L237.47,186.46L239.25,226.46L239.65,200.4L240.06,205.25L240.46,199L241.27,249.7L241.67,233.67L242.04,191L242.48,199.41L242.84,191L243.29,181.32L243.65,144.62L244.05,199.44L244.46,173.89L244.86,156.56L245.23,130.97L245.67,164.71L246.84,106.68L247.45,154.46L248.05,83.13L248.46,118.97L249.26,243.32L249.67,239.1L250.07,155.79L250.44,142.05L250.84,204.27L251.24,233.6L251.61,205.25L252.41,275.57L252.86,250.43L253.67,277.73L254.07,204.46L254.88,184.37L255.28,195.32L255.69,206.37L256.05,179.1L256.86,193.6L257.26,183.44L258.07,190.94L258.47,160.56L258.88,161.73L259.28,176.11L259.64,183.54L260.05,165.06L260.86,174.46L261.26,143.63L261.66,189.1L262.07,144.78L262.87,217.44L263.24,187.16L264.05,136.49L264.45,144.75L264.85,213.44L265.26,210.75L265.66,195.92L266.06,204.14L266.47,185.22L266.87,158.59L267.28,182.4L267.64,130.81L268.04,134.65L268.49,218.08L268.85,220.14L269.26,201.1L270.02,154.43L270.47,129.1L271.27,220.24L271.68,198.33L272.04,162.68L272.85,177L273.25,136.75L274.06,202.84L274.47,177.95L274.87,182.81L275.27,159.7L275.68,154.3L276.08,158.68L276.44,132.37L277.66,81.48L278.06,81.54L279.27,175.32L279.59,150.05L280.48,50.62L280.89,54.02L281.25,51.22L281.65,53.25L281.98,74.24L282.7,231.06L283.31,121.22L286.22,189.35L286.66,171.25L287.11,186.87L287.59,177.32L287.79,177.41L288.12,170.9L288.6,197.29L289.04,139.86L290.46,160.78L290.98,116.05L291.67,84.14L291.99,111.63L292.44,89.7L292.92,142.94L293.16,173.16L293.49,141.19L293.93,101.67L295.39,236.65L295.87,149.76L296.76,260.08L297,216.05L297.28,162.62L298.94,290.17L299.22,284.43L299.63,254.02L300.68,177.57L301.12,219.13L301.6,221.79L302.09,204.78L302.45,191.67" style="vector-effect: none; fill: none; stroke: rgb(99, 110, 250); stroke-opacity: 1; stroke-width: 2px; opacity: 1;"/></g><g class="points"/><g class="text"/></g><g class="trace scatter trace8e8874" style="stroke-miterlimit: 2; opacity: 1;"><g class="fills"/><g class="errorbars"/><g class="lines"><path class="js-line" d="M229.43,168.76L229.76,166.32L230.2,125.68L230.61,185.65L231.01,169.11L231.41,151.62L231.82,151.71L232.22,164.03L232.63,207.84L233.03,194.22L233.39,130.89L234.2,71.87L234.6,142.25L235.41,117.59L235.82,128.32L236.22,130L236.62,148.67L238.2,250.16L238.6,208.54L239.01,208.35L239.41,220.92L240.62,193.21L241.03,231.43L241.43,253.05L241.83,198.57L242.24,200.54L242.6,183.46L243,193.65L243.41,149.9L243.81,155.52L244.22,197.62L245.02,140.29L245.43,141.81L245.83,147.94L246.24,148.06L246.64,132.38L247,112.13L247.41,139.71L248.21,87.24L248.62,143.11L249.43,257.78L249.83,217.33L250.23,138.19L250.64,161.84L251,246.41L251.45,222.89L251.81,228.63L252.25,261.62L252.62,286.6L253.02,252.25L253.42,304L253.83,244.86L254.64,183.59L255.04,188.1L255.44,197.33L255.85,195.81L256.25,173.17L256.61,195.46L257.06,187.62L257.42,183.37L257.83,201.17L258.23,163.87L258.63,155.08L259.04,157.62L259.44,178.57L259.85,174.44L260.25,154.57L260.61,182.1L261.02,151.78L261.42,158.03L261.82,188.03L262.23,141.33L262.63,197.17L263.04,216.63L263.44,165.24L264.25,131.4L264.65,166.76L265.01,222.92L265.42,196.16L265.82,194.41L266.23,208.7L266.63,177.21L267.03,157.97L267.44,171.94L267.84,106.54L268.69,233.02L269.05,206.51L269.46,194.13L269.86,180.25L270.22,128.03L270.63,141.65L271.03,195.84L271.48,217.62L271.84,184.1L272.24,149.81L272.65,182.95L273.46,131.84L273.86,177.14L274.22,204.6L274.63,164.67L275.03,181.97L275.43,153.9L276.24,160.98L276.65,113.17L277.86,77.11L278.22,110.38L279.03,179.14L279.43,176L279.84,118.16L281.05,52.86L281.45,43.27L281.86,54.54L282.26,132.98L282.66,236.06L283.07,174L283.47,133.97L285.05,177.08L285.45,202.89L285.85,212.48L286.26,185.33L286.62,160.38L287.07,185.97L288.24,164L288.68,200.7L289.04,130.13L289.49,152.38L289.85,137.24L290.26,170.32L290.66,136.73L291.47,77.08L291.87,109.56L292.28,91.37L292.68,106.73L293.08,156.41L293.89,97.46L294.29,150.51L295.47,244.92L295.87,140.38L296.68,260.35L297.08,191.81L297.53,169.3L297.89,217.71L299.06,288.03L299.55,252.51L299.91,240.38L300.31,191.49L300.72,169.68L301.08,211.11L301.48,217.94L301.89,201.3L302.29,197.78L302.7,187.33L303.5,147.17L303.87,158.06L304.31,166.98L304.71,142.44L305.08,120.48L305.48,141.08L306.01,171.84L306.29,156.32L306.69,165.37L307.1,180.6L307.5,215.46L307.91,178.16L308.71,72.41L309.08,106.73L309.48,59.14L309.88,80.16L310.29,90.54L310.69,99.56L311.1,127.87L311.9,300.67L312.31,242.44L313.88,131.81L314.29,203.68L314.69,150.67L315.09,193.4L315.5,206.19L315.9,175.84L316.31,211.97L316.71,216.44L317.11,202L317.88,156.86L318.28,175.49L318.69,199.46L319.09,198.6L319.5,197.56L319.9,120.63L320.3,128.48L320.71,156.16L321.11,193.08L321.52,143.65L321.92,193.08L322.28,185.02L322.69,145.17L323.49,202.13L323.9,239.24L324.3,228.16L324.75,96.6L325.88,40.25L326.32,123.56L326.68,108.38L327.09,152L327.49,161.43L327.9,96.16L328.7,216.25L329.11,157.43L329.51,141.08L329.92,155.56L330.32,168.16L330.72,138.83L331.13,136.83L331.49,120.41L331.89,139.37L332.3,116.51L332.7,146.06L333.11,135.11L333.51,130.1L333.91,112L334.32,149.4L334.72,209.33L335.09,166.48L335.49,192.89L336.3,130.48L336.7,202.38L338.32,97.33L338.72,51.05L339.08,16L339.53,29.56L339.89,73.4L340.34,220.32L340.7,210.25L341.1,162.03L341.51,112.19L341.91,135.87L342.31,149.49L343.12,212.92L343.53,200.63L343.93,195.84L344.33,186.44L344.74,151.9L345.18,199.81L345.5,182.32L345.91,186.76L346.31,234.6L346.72,215.78L347.12,179.97L347.93,104.1L348.33,139.9L349.14,83.75L349.54,118.79L349.95,116.44L350.35,129.4L351.76,232.13L352.17,201.9L352.57,205.27L352.98,190.79L354.59,62.41L355,85.59L355.36,78.1L355.8,120.13L356.57,234L356.97,194.48L357.38,175.43L359.4,125.21L359.8,183.37L360.04,210.29" style="vector-effect: none; fill: none; stroke: rgb(239, 85, 59); stroke-opacity: 1; stroke-width: 2px; opacity: 1;"/></g><g class="points"/><g class="text"/></g><g class="trace scatter tracec6b0d4" style="stroke-miterlimit: 2; opacity: 1;"><g class="fills"/><g class="errorbars"/><g class="lines"><path class="js-line" d="M341.63,114.18L343.16,213.19L343.57,195.77L343.97,196.59L344.37,181.48L344.78,154.24L345.18,201.29L345.55,183.89L345.99,194.24L346.35,238.3L347.97,108.91L348.37,143.57L349.18,88.75L349.58,118.05L349.99,112.15L350.39,137.32L351.2,145.26L351.6,218.69L352.01,219.77L352.41,191.73L352.81,198.46L353.18,169.57L354.39,87.54L354.79,58.56L356.01,137.64L356.41,208.34L356.81,227L357.18,167.32L357.58,178.94L357.98,142.08L358.43,161.77L358.79,133.92L359.2,125.67L359.6,159.86L360,204.72L360.41,189.67L360.81,171.26L361.22,165.07L361.62,132.05L362.43,119.38L362.79,134.18L363.19,170.88L363.6,130.59L364.41,123.51L364.81,159.13L365.21,113.48L365.62,156.3L366.02,155L366.42,93.89L366.83,127.48L367.19,93.57L367.6,73.45L368,73.73L368.4,88.97L368.81,63.48L369.21,91.96L369.62,90.91L369.98,145.1L370.42,163.86L370.79,136.11L371.59,170.34L372,272.37L374.42,182.97L374.83,183.89L375.23,203.54L375.59,247.1L376,217.45L376.4,153.77L376.8,170.84L377.21,164.27L377.61,159.48L378.02,168.53L378.42,151L379.23,118.27L379.63,156.94L380.4,53.99L380.8,54.97L381.21,96.05L381.61,95.1L382.01,128.46L382.82,229.23L383.23,165.29L383.99,171.23L384.4,147.54L384.8,127.26L385.2,162.78L385.61,194.53L386.01,137.8L386.25,123.73L386.86,178.78L387.63,91.96L387.91,131.23L388.8,236.56L389.2,182.21L389.61,167.13L390.01,180.91L390.41,147.83L390.82,185.29L391.22,178.84L391.63,138.37L391.99,117.89L392.43,147.99L392.84,203.26L393.24,168.72L393.6,117.51L394.01,134.11L394.41,99.32L394.82,90.78L395.22,138.27L396.03,126.69L396.43,136.43L397.6,230.75L398.01,144.62L399.22,57.89L399.62,25.32L400.39,74.02L400.83,48.69L401.2,48.34L401.64,99.32L402.05,69.26L402.41,125.77L402.81,132.21L403.22,120.72L403.62,173.99L404.02,168.81L404.43,112.97L404.83,102.05L405.24,168.53L406.04,183.51L406.45,141.57L407.66,91.8L408.06,149.19L408.47,170.46L408.87,146.02L409.27,92.59L409.64,126.65L410.04,180.05L410.45,174.21L410.85,187.19L412.06,75.51L412.47,85.29L413.27,179.26L413.64,176.34L414.08,177.96L414.48,207.54L414.85,180.24L415.25,187.48L415.66,210.75L416.06,166.5L416.46,177.99L416.87,159.7L417.27,154.81L417.68,106.18L418.04,118.53L418.48,174.56L418.89,186.21L419.29,180.84L419.65,164.4L420.1,188.43L420.46,159.13L420.87,157.42L421.27,177.07L421.67,173.29L422.08,181.32L423.25,104.37L423.65,158.72L424.06,173.83L424.5,157.32L426.48,73.8L426.88,104.18L428.09,156.72L428.46,163.51L429.67,75.51L430.07,72.15L430.88,36.46L431.29,114.02L432.09,231.19L433.06,193.54L433.35,195.07L433.75,167.92L434.15,170.24L434.56,134.53L434.96,136.4L435.32,118.37L435.77,134.46L436.17,106.94L436.54,103.99L436.94,116.59L437.34,111.19L437.75,142.91L438.15,155.42L438.55,233.77L440.13,99.89L440.53,118.59L440.94,104.62L441.34,122.24L442.11,201.48L442.55,200.91L442.96,160.84L444.57,85.61L444.94,99.45L445.34,107.8L445.74,154.53L446.15,160.24L446.55,144.69L446.96,152.65L447.36,197.13L447.76,216.81L448.17,171.92L448.57,192.53L448.97,171.1L449.34,161.73L449.74,190.69L450.19,188.02L450.55,138.4L451.76,114.78L452.17,59.19L452.97,116.88L453.38,112.27L453.74,136.3L454.14,102.27L454.55,79.03L454.95,81.86L456.16,149.13L456.97,186.11L457.37,179.83L457.74,100.91L458.55,153.26L458.99,71.45L459.31,60.62L459.76,97.8L460,117.83" style="vector-effect: none; fill: none; stroke: rgb(0, 204, 150); stroke-opacity: 1; stroke-width: 2px; opacity: 1;"/></g><g class="points"/><g class="text"/></g><g class="trace scatter trace768b05" style="stroke-miterlimit: 2; opacity: 1;"><g class="fills"/><g class="errorbars"/><g class="lines"><path class="js-line" d="M413.27,177.85L413.64,171.25L414.04,178.8L414.48,207.85L414.85,181.25L415.66,208.04L416.06,163.85L416.46,177.91L416.91,155.88L417.27,157.95L417.68,110.74L418.08,122.52L418.48,176.3L418.85,186.45L419.29,185.88L419.69,168.52L420.1,192.52L420.46,161.91L420.87,159.5L421.27,176.96L421.67,173.12L422.08,182.99L423.25,102.8L423.65,153.82L424.06,174.04L424.46,159.47L424.86,144.17L425.27,137.69L425.67,90.64L426.08,90.01L426.48,73.06L428.09,153.91L428.46,157.06L429.67,72.83L430.07,67.82L430.88,36.3L431.29,112.01L432.05,227.95L432.46,153.31L432.86,154.83L433.26,188.64L436.45,100.64L436.86,113.5L437.26,107.82L437.67,141.34L438.07,151.37L438.47,216.61L439.28,168.42L439.69,123.69L440.09,90.77L440.49,121.25L441.3,111.95L441.66,161.76L442.47,210.33L442.88,165.25L444.09,111.25L444.45,93.95L444.86,87.63L445.26,100.04L446.07,164.26L446.47,145.31L446.87,148.14L447.28,198.3L447.68,228.8L448.09,172.33L448.49,193.18L448.89,178.71L449.26,160.61L450.06,197.31L450.51,147.57L452.08,68.14L452.49,99.6L453.7,138.04L454.1,112.01L454.87,68.61L455.27,167.37L455.68,170.45L456.08,147.31L456.89,172.87" style="vector-effect: none; fill: none; stroke: rgb(171, 99, 250); stroke-opacity: 1; stroke-width: 2px; opacity: 1;"/></g><g class="points"/><g class="text"/></g><g class="trace scatter trace21e5b7" style="stroke-miterlimit: 2; opacity: 1;"><g class="fills"/><g class="errorbars"/><g class="lines"><path class="js-line" d="M0,110.35L0.36,108.38L0.77,177.18L1.17,160.64L1.53,59.56L2.02,22.77L2.34,85.5L3.59,224.92L4,137.5L4.81,262.23L5.17,242.1L5.57,228.23L6.38,266.07L6.78,232.67L7.55,178.38L8,156.77L8.4,144.03L9.17,144.38L9.57,149.18L9.98,142.73L10.38,150.86L10.78,187.84L11.99,299.02L12.4,209.5L13.17,229.65L13.61,201.97L14.38,267.84L14.78,222.77L15.19,180.32L15.59,208.29L15.99,215.59L16.76,99.78L17.16,181.5L18.01,282.92L18.78,158.77L19.99,217.75L20.4,204.57L21.2,260.38L21.61,198.99L22.78,139.46L23.18,181.11L23.99,223.3L24.39,219.62L24.8,195.18L25.2,190.51L25.6,203.97L26.78,109.84L27.18,164.67L28.39,184.1L28.8,104.42L29.2,121.15L29.6,96.19L30.77,126.26L31.18,174.07L32.39,107.43L33.2,186.23L34.01,89.05L34.41,116.61L34.77,173.18L35.62,197.21L35.98,176.86L36.79,216.42L37.2,182.73L38,189.11L38.37,154.35L39.62,204.99L39.98,194.64L40.79,255.56L41.19,165.65L42.41,115.15L42.81,150.8L43.17,146.57L44.02,210.86L44.38,253.78L44.79,210.51L46.36,282.48L47.21,260.64L47.66,220.23L47.98,287.4L48.42,283.72L48.83,225.02L49.23,259.69L49.59,255.21L50.04,217.02L50.4,234.16L50.85,224.57L51.25,202.26L52.42,183.43L52.83,117.18L54.44,220.16L54.84,223.5L55.25,233.78L55.65,263.46L56.86,187.65L57.23,181.43L57.67,110.23L58.04,146.29L58.44,163.53L58.84,194.35L59.25,185.05L59.65,188.13L60.05,219.56L60.46,171.72L60.86,168.89L61.63,170.89L62.44,92.35L62.84,172.8L63.24,188.48L63.65,142.19L64.86,182.99L65.26,208.7L65.67,201.78L66.44,231.02L67.24,204.67L67.65,232.89L68.05,229.84L68.86,215.94L69.26,213.88L69.67,187.21L70.07,94.67L70.47,96.99L71.24,116.57L71.65,100.23L72.05,141.84L73.26,246.92L73.66,190.99L74.03,239.15L74.47,216.26L74.88,158.83L75.64,173.02L76.05,132.61L77.26,93.94L77.66,119.3L78.43,286.42L78.87,271.65L79.32,239.88L79.68,197.69L80.45,224.73L80.85,229.56L81.26,169.4L81.66,190.1L82.06,156.23L82.47,124.32L83.28,122.48L83.68,145.5L84.04,93.02L84.49,176.86L84.85,154.23L85.26,174.16L85.66,265.18L86.47,144.32L86.87,86.07L87.27,101.65L87.68,144.45L88.08,184.35L88.49,181.97L88.85,132.77L89.25,136.7L89.7,168.99L90.47,145.34L90.91,162.73L91.23,157.78L91.68,158.03L92.08,202.77L92.44,223.11L92.89,209.84L93.25,209.11L94.1,186.26L94.5,233.75L94.87,231.3L95.27,211.94L95.68,209.4L96.08,195.84L96.48,201.97L96.89,198.89L97.25,173.88L97.65,169.08L98.06,213.24L99.27,169.65L99.67,236.51L100.08,227.11L100.48,126.48L100.88,132.86L101.29,183.34L101.69,126.57L102.06,171.08L102.46,182.26L103.27,100.61L103.67,112.29L104.08,95.46L104.48,98.89L104.88,144.19L105.65,67.53L106.09,119.08L106.9,82.38L107.27,148.61L108.07,233.59L108.52,215.18L108.88,226.13L109.29,254.29L109.69,218.89L110.5,154.16L110.86,160.29L111.3,159.24L111.67,163.24L112.52,161.4L113.32,143.21L113.69,162.64L114.13,159.75L114.5,200.73L114.9,238.99L115.3,225.27L115.71,219.46L116.92,202L117.32,207.72L118.13,139.84L118.53,191.5L118.94,175.46L119.75,220.96L120.11,227.75L120.51,195.91L122.13,271.5L122.53,244.45L123.74,214.45L124.15,229.94L125.32,155.97L125.72,162.57L126.53,200L126.93,184.51L127.7,137.78L128.11,152.29L128.55,169.21L128.95,114.45L129.32,137.88L129.72,204.7L130.12,145.43L130.53,171.18L130.93,154L131.7,76.1L132.1,84.48L132.91,197.46L133.32,159.27L133.72,118.23L134.12,154.8L134.53,110.8L134.93,82.7L135.33,96.03L135.74,104.89L136.1,57.21L136.55,79.05L136.95,115.02L137.76,222.32L138.12,212.03L138.53,210.45L139.74,238.73L140.14,211.05L140.54,150.29L141.31,169.75L141.72,143.46L142.12,191.24L142.52,194.57L142.97,205.34L143.29,183.4L143.78,210.8L144.54,171.56L144.91,235.02L145.31,255.27L145.75,189.97L146.12,222.77L146.52,214.77L146.93,215.97L147.69,279.3L148.1,265.72L148.5,222.07L148.9,167.78L149.31,170.03L149.71,167.53L150.16,177.91L150.52,232.38L150.92,237.84L151.33,201.56L151.73,199.02L152.09,161.21L152.94,251.02L153.31,204.86L154.11,200.35L154.52,201.46L155.33,157.88L156.13,157.72L156.66,175.24L156.94,173.43L157.35,172.35L157.71,135.05L158.11,138.67L158.52,168.67L159.73,102.83L160.13,191.11L160.54,142.54L160.94,188.38L161.5,181.59L161.67,190.83L162.15,173.34L162.55,110.92L162.92,118.1L163.32,202.38L163.73,197.91L164.17,198.35L164.53,130.48L166.15,203.65L166.55,199.75L167.76,258.67L168.17,257.72L168.53,179.81L171,121.69L171.36,151.37L172.17,216.92L172.57,157.69L172.97,142.89L173.38,164.1L174.15,91.56L174.55,164.92L174.95,164.48L175.36,165.02L175.8,152.89L176.93,104.45L177.38,105.97L178.18,29.34L178.59,53.37L180.16,237.24L180.57,229.27L180.97,209.27L181.42,247.4L181.78,230.42L182.14,233.37L182.63,255.37L182.99,210.61L183.76,195.69L184.16,167.75L185.41,184.42L185.78,171.62L186.99,119.62L187.39,124.83L187.76,162.89L188.2,135.56L188.56,125.91" style="vector-effect: none; fill: none; stroke: rgb(255, 161, 90); stroke-opacity: 1; stroke-width: 2px; opacity: 1;"/></g><g class="points"/><g class="text"/></g></g></g><g class="overplot"/><path class="xlines-above crisp" d="M0,0" style="fill: none;"/><path class="ylines-above crisp" d="M0,0" style="fill: none;"/><g class="overlines-above"/><g class="xaxislayer-above"><g class="xtick"><text text-anchor="middle" x="0" y="433" transform="translate(110.09,0)" style="font-family: 'Open Sans', verdana, arial, sans-serif; font-size: 12px; fill: rgb(42, 63, 95); fill-opacity: 1; white-space: pre; opacity: 1;">1995</text></g><g class="xtick"><text text-anchor="middle" x="0" y="433" style="font-family: 'Open Sans', verdana, arial, sans-serif; font-size: 12px; fill: rgb(42, 63, 95); fill-opacity: 1; white-space: pre; opacity: 1;" transform="translate(183.82999999999998,0)">2000</text></g><g class="xtick"><text text-anchor="middle" x="0" y="433" style="font-family: 'Open Sans', verdana, arial, sans-serif; font-size: 12px; fill: rgb(42, 63, 95); fill-opacity: 1; white-space: pre; opacity: 1;" transform="translate(257.62,0)">2005</text></g><g class="xtick"><text text-anchor="middle" x="0" y="433" style="font-family: 'Open Sans', verdana, arial, sans-serif; font-size: 12px; fill: rgb(42, 63, 95); fill-opacity: 1; white-space: pre; opacity: 1;" transform="translate(331.36,0)">2010</text></g><g class="xtick"><text text-anchor="middle" x="0" y="433" style="font-family: 'Open Sans', verdana, arial, sans-serif; font-size: 12px; fill: rgb(42, 63, 95); fill-opacity: 1; white-space: pre; opacity: 1;" transform="translate(405.11,0)">2015</text></g><g class="xtick"><text text-anchor="middle" x="0" y="433" style="font-family: 'Open Sans', verdana, arial, sans-serif; font-size: 12px; fill: rgb(42, 63, 95); fill-opacity: 1; white-space: pre; opacity: 1;" transform="translate(478.86,0)">2020</text></g></g><g class="yaxislayer-above"><g class="ytick"><text text-anchor="end" x="79" y="4.199999999999999" transform="translate(0,405.1)" style="font-family: 'Open Sans', verdana, arial, sans-serif; font-size: 12px; fill: rgb(42, 63, 95); fill-opacity: 1; white-space: pre; opacity: 1;">−400</text></g><g class="ytick"><text text-anchor="end" x="79" y="4.199999999999999" style="font-family: 'Open Sans', verdana, arial, sans-serif; font-size: 12px; fill: rgb(42, 63, 95); fill-opacity: 1; white-space: pre; opacity: 1;" transform="translate(0,341.61)">−200</text></g><g class="ytick"><text text-anchor="end" x="79" y="4.199999999999999" style="font-family: 'Open Sans', verdana, arial, sans-serif; font-size: 12px; fill: rgb(42, 63, 95); fill-opacity: 1; white-space: pre; opacity: 1;" transform="translate(0,278.11)">0</text></g><g class="ytick"><text text-anchor="end" x="79" y="4.199999999999999" style="font-family: 'Open Sans', verdana, arial, sans-serif; font-size: 12px; fill: rgb(42, 63, 95); fill-opacity: 1; white-space: pre; opacity: 1;" transform="translate(0,214.62)">200</text></g><g class="ytick"><text text-anchor="end" x="79" y="4.199999999999999" style="font-family: 'Open Sans', verdana, arial, sans-serif; font-size: 12px; fill: rgb(42, 63, 95); fill-opacity: 1; white-space: pre; opacity: 1;" transform="translate(0,151.13)">400</text></g></g><g class="overaxes-above"/></g></g><g class="polarlayer"/><g class="smithlayer"/><g class="ternarylayer"/><g class="geolayer"/><g class="funnelarealayer"/><g class="pielayer"/><g class="iciclelayer"/><g class="treemaplayer"/><g class="sunburstlayer"/><g class="glimages"/><defs id="topdefs-46afd2"><g class="clips"/><clipPath id="legend46afd2"><rect width="139" height="105" x="0" y="0"/></clipPath></defs><g class="layer-above"><g class="imagelayer"/><g class="shapelayer"/></g><g class="infolayer"><g class="legend" pointer-events="all" transform="translate(549.2,100)"><rect class="bg" shape-rendering="crispEdges" width="139" height="105" x="0" y="0" style="stroke: rgb(68, 68, 68); stroke-opacity: 1; fill: rgb(255, 255, 255); fill-opacity: 1; stroke-width: 0px;"/><g class="scrollbox" transform="" clip-path="url(#legend46afd2)"><g class="groups"><g class="traces" transform="translate(0,14.5)" style="opacity: 1;"><text class="legendtext" text-anchor="start" x="40" y="4.680000000000001" style="font-family: 'Open Sans', verdana, arial, sans-serif; font-size: 12px; fill: rgb(42, 63, 95); fill-opacity: 1; white-space: pre;">Jason.1</text><g class="layers" style="opacity: 1;"><g class="legendfill"/><g class="legendlines"><path class="js-line" d="M5,0h30" style="fill: none; stroke: rgb(99, 110, 250); stroke-opacity: 1; stroke-width: 2px;"/></g><g class="legendsymbols"><g class="legendpoints"/></g></g><rect class="legendtoggle" x="0" y="-9.5" width="133.84375" height="19" style="fill: rgb(0, 0, 0); fill-opacity: 0;"/></g><g class="traces" transform="translate(0,33.5)" style="opacity: 1;"><text class="legendtext" text-anchor="start" x="40" y="4.680000000000001" style="font-family: 'Open Sans', verdana, arial, sans-serif; font-size: 12px; fill: rgb(42, 63, 95); fill-opacity: 1; white-space: pre;">Jason.2</text><g class="layers" style="opacity: 1;"><g class="legendfill"/><g class="legendlines"><path class="js-line" d="M5,0h30" style="fill: none; stroke: rgb(239, 85, 59); stroke-opacity: 1; stroke-width: 2px;"/></g><g class="legendsymbols"><g class="legendpoints"/></g></g><rect class="legendtoggle" x="0" y="-9.5" width="133.84375" height="19" style="fill: rgb(0, 0, 0); fill-opacity: 0;"/></g><g class="traces" transform="translate(0,52.5)" style="opacity: 1;"><text class="legendtext" text-anchor="start" x="40" y="4.680000000000001" style="font-family: 'Open Sans', verdana, arial, sans-serif; font-size: 12px; fill: rgb(42, 63, 95); fill-opacity: 1; white-space: pre;">Jason.3</text><g class="layers" style="opacity: 1;"><g class="legendfill"/><g class="legendlines"><path class="js-line" d="M5,0h30" style="fill: none; stroke: rgb(0, 204, 150); stroke-opacity: 1; stroke-width: 2px;"/></g><g class="legendsymbols"><g class="legendpoints"/></g></g><rect class="legendtoggle" x="0" y="-9.5" width="133.84375" height="19" style="fill: rgb(0, 0, 0); fill-opacity: 0;"/></g><g class="traces" transform="translate(0,71.5)" style="opacity: 1;"><text class="legendtext" text-anchor="start" x="40" y="4.680000000000001" style="font-family: 'Open Sans', verdana, arial, sans-serif; font-size: 12px; fill: rgb(42, 63, 95); fill-opacity: 1; white-space: pre;">Sentinel-6MF</text><g class="layers" style="opacity: 1;"><g class="legendfill"/><g class="legendlines"><path class="js-line" d="M5,0h30" style="fill: none; stroke: rgb(171, 99, 250); stroke-opacity: 1; stroke-width: 2px;"/></g><g class="legendsymbols"><g class="legendpoints"/></g></g><rect class="legendtoggle" x="0" y="-9.5" width="133.84375" height="19" style="fill: rgb(0, 0, 0); fill-opacity: 0;"/></g><g class="traces" transform="translate(0,90.5)" style="opacity: 1;"><text class="legendtext" text-anchor="start" x="40" y="4.680000000000001" style="font-family: 'Open Sans', verdana, arial, sans-serif; font-size: 12px; fill: rgb(42, 63, 95); fill-opacity: 1; white-space: pre;">TOPEX.Poseidon</text><g class="layers" style="opacity: 1;"><g class="legendfill"/><g class="legendlines"><path class="js-line" d="M5,0h30" style="fill: none; stroke: rgb(255, 161, 90); stroke-opacity: 1; stroke-width: 2px;"/></g><g class="legendsymbols"><g class="legendpoints"/></g></g><rect class="legendtoggle" x="0" y="-9.5" width="133.84375" height="19" style="fill: rgb(0, 0, 0); fill-opacity: 0;"/></g></g></g><rect class="scrollbar" rx="20" ry="3" width="0" height="0" x="0" y="0" style="fill: rgb(128, 139, 164); fill-opacity: 1;"/></g><g class="g-gtitle"><text class="gtitle" x="35" y="50" text-anchor="start" dy="0em" style="font-family: 'Open Sans', verdana, arial, sans-serif; font-size: 17px; fill: rgb(42, 63, 95); opacity: 1; font-weight: normal; white-space: pre;">Mean Sea Levels Changing - Baltic Sea</text></g><g class="g-xtitle"><text class="xtitle" x="310" y="460.3" text-anchor="middle" style="font-family: 'Open Sans', verdana, arial, sans-serif; font-size: 14px; fill: rgb(42, 63, 95); opacity: 1; font-weight: normal; white-space: pre;">Date</text></g><g class="g-ytitle"><text class="ytitle" transform="rotate(-90,27.668750000000003,260)" x="27.668750000000003" y="260" text-anchor="middle" style="font-family: 'Open Sans', verdana, arial, sans-serif; font-size: 14px; fill: rgb(42, 63, 95); opacity: 1; font-weight: normal; white-space: pre;">Change in Sea Level [mm]</text></g></g></svg>