<svg class="main-svg" xmlns="http://www.w3.org/2000/svg" xmlns:xlink="http://www.w3.org/1999/xlink" width="700" height="500" style="" viewBox="0 0 700 500"><rect x="0" y="0" width="700" height="500" style="fill: rgb(255, 255, 255); fill-opacity: 1;"/><defs id="defs-ef0d46"><g class="clips"><clipPath id="clipef0d46xyplot" class="plotclip"><rect width="460" height="320"/></clipPath><clipPath class="axesclip" id="clipef0d46x"><rect x="80" y="0" width="460" height="500"/></clipPath><clipPath class="axesclip" id="clipef0d46y"><rect x="0" y="100" width="700" height="320"/></clipPath><clipPath class="axesclip" id="clipef0d46xy"><rect x="80" y="100" width="460" height="320"/></clipPath></g><g class="gradients"/><g class="patterns"/></defs><g class="bglayer"><rect class="bg" x="80" y="100" width="460" height="320" style="fill: rgb(229, 236, 246); fill-opacity: 1; stroke-width: 0;"/></g><g class="layer-below"><g class="imagelayer"/><g class="shapelayer"/></g><g class="cartesianlayer"><g class="subplot xy"><g class="layer-subplot"><g class="shapelayer"/><g class="imagelayer"/></g><g class="minor-gridlayer"><g class="x"/><g class="y"/></g><g class="gridlayer"><g class="x"><path class="xgrid crisp" transform="translate(110.09,0)" d="M0,100v320" style="stroke: rgb(255, 255, 255); stroke-opacity: 1; stroke-width: 1px;"/><path class="xgrid crisp" transform="translate(183.82,0)" d="M0,100v320" style="stroke: rgb(255, 255, 255); stroke-opacity: 1; stroke-width: 1px;"/><path class="xgrid crisp" transform="translate(257.6,0)" d="M0,100v320" style="stroke: rgb(255, 255, 255); stroke-opacity: 1; stroke-width: 1px;"/><path class="xgrid crisp" transform="translate(331.34000000000003,0)" d="M0,100v320" style="stroke: rgb(255, 255, 255); stroke-opacity: 1; stroke-width: 1px;"/><path class="xgrid crisp" transform="translate(405.08,0)" d="M0,100v320" style="stroke: rgb(255, 255, 255); stroke-opacity: 1; stroke-width: 1px;"/><path class="xgrid crisp" transform="translate(478.82,0)" d="M0,100v320" style="stroke: rgb(255, 255, 255); stroke-opacity: 1; stroke-width: 1px;"/></g><g class="y"><path class="ygrid crisp" transform="translate(0,374.52)" d="M80,0h460" style="stroke: rgb(255, 255, 255); stroke-opacity: 1; stroke-width: 1px;"/><path class="ygrid crisp" transform="translate(0,260.44)" d="M80,0h460" style="stroke: rgb(255, 255, 255); stroke-opacity: 1; stroke-width: 1px;"/><path class="ygrid crisp" transform="translate(0,203.41)" d="M80,0h460" style="stroke: rgb(255, 255, 255); stroke-opacity: 1; stroke-width: 1px;"/><path class="ygrid crisp" transform="translate(0,146.37)" d="M80,0h460" style="stroke: rgb(255, 255, 255); stroke-opacity: 1; stroke-width: 1px;"/></g></g><g class="zerolinelayer"><path class="yzl zl crisp" transform="translate(0,317.48)" d="M80,0h460" style="stroke: rgb(255, 255, 255); stroke-opacity: 1; stroke-width: 2px;"/></g><g class="layer-between"><g class="shapelayer"/><g class="imagelayer"/></g><path class="xlines-below"/><path class="ylines-below"/><g class="overlines-below"/><g class="xaxislayer-below"/><g class="yaxislayer-below"/><g class="overaxes-below"/><g class="plot" transform="translate(80,100)" clip-path="url(#clipef0d46xyplot)"><g class="scatterlayer mlayer"><g class="trace scatter trace8fc944" style="stroke-miterlimit: 2; opacity: 1;"><g class="fills"/><g class="errorbars"/><g class="lines"><path class="js-line" d="M134.11,234.42L134.51,234.77L134.92,246.74L135.73,270.36L136.13,284.05L137.34,259.41L137.71,248.23L138.11,251.19L138.51,242.41L138.92,232.48L139.32,240.24L139.72,232.14L140.13,220.16L140.53,185.37L141.34,149.78L141.7,156.74L142.11,167.35L143.32,128.9L143.72,134.04L144.13,148.41L144.53,151.83L144.93,132.9L145.34,120.12L145.74,157.19L146.15,150.69L146.51,157.65L147.72,194.61L148.12,230.89L148.93,244.46L149.34,230.77L150.91,286.44L151.31,271.27L152.2,249.94L152.53,261L152.93,283.02L153.33,262.03L153.74,233.4L154.14,235.45L154.54,238.42L154.91,237.62L155.31,233.4L156.52,172.48L156.93,170.31L157.33,169.4L157.74,157.99L158.54,139.4L158.95,142.14L159.31,143.85L159.71,142.48L160.12,156.05L160.52,165.07L160.88,150.69L161.73,169.86L162.14,190.62L164.16,267.16L164.48,266.14L165,247.09L165.33,241.38L165.73,256.56L166.13,269.33L166.5,258.61L166.94,264.54L168.56,226.67L168.96,222.33L169.37,223.13L169.77,211.15L172.15,157.08L172.56,133.35L173.77,154.8L174.17,142.82L174.57,134.26L174.98,145.79L176.19,174.76L176.55,169.74L177.36,191.99L177.76,224.27L178.57,252.22L178.98,241.38L179.38,236.36L179.78,271.27L180.19,271.96L180.59,270.59L181,272.64L181.36,254.62L181.76,245.38L182.17,258.95L182.57,267.39L182.97,259.98L184.99,199.52L185.4,206.36L186.16,171.57L186.57,180.01L186.97,171.8L187.78,130.5L188.1,131.07L188.67,136.09L188.99,130.16L189.4,137.12L189.8,135.86L190.16,126.96L191.37,179.9L191.78,225.3L192.59,207.27L192.99,222.45L194.56,261.8L194.97,258.49L195.37,258.27L196.18,247.54L196.58,253.7L196.99,253.25L197.39,250.39L197.79,251.54L198.2,249.71L198.6,253.02L199.01,242.07L200.58,184.91L200.98,172.37L202.2,144.87L202.6,149.89L203.37,123.88L203.77,138.26L204.46,176.36L205.43,163.47L206.6,189.71L207,200.89L207.41,199.74L207.77,234.77L208.58,268.99L208.98,256.56L209.38,252.9L209.79,258.49L210.19,244.69L210.6,248.11L211,260.66L212.57,236.36L212.98,245.83L213.38,258.95L213.79,236.71L214.19,235.56L214.59,211.15L215,206.48L215.4,190.85L217.78,134.26L218.19,139.74L219.4,161.87L219.8,153.43L220.21,153.77L220.57,178.07L222.19,213.21L222.59,220.51L224.21,269.79L224.61,255.87L225.42,240.24L225.82,242.52L226.22,239.9L226.63,253.82L227.4,234.31L227.8,251.88L228.61,218.8L229.01,223.7L230.55,165.29L231.23,178.53L231.43,148.75L231.84,150.58L232.24,151.38L233.41,126.16L233.82,137.23L235.03,174.88L235.43,164.95L237.45,226.21L238.46,232.83L239.63,242.52L240.04,228.04L240.44,239.9L240.84,238.07L241.25,230.77L242.05,236.14L242.46,221.08L242.82,231.46L243.23,218.23L246.05,125.02L246.46,112.36L246.82,105.74L247.43,136.2L247.63,88.18L248.03,120L248.43,126.96L248.84,133.24L249.24,129.47L249.65,125.25L250.05,113.84L250.45,158.68L252.43,238.19L252.84,217.08L253.24,239.1L253.64,232.14L254.05,229.29L254.45,238.19L254.86,211.84L255.26,215.15L255.66,230.2L256.07,237.28L256.43,235.68L256.83,232.26L257.64,218.8L258.05,226.1L258.85,207.16L259.26,178.07L261.24,141.34L261.64,142.25L262.45,125.25L262.85,127.65L263.26,124.68L264.06,131.18L264.47,147.27L266.45,216.4L266.85,212.41L267.66,242.41L268.06,242.52L268.46,251.54L268.87,246.29L269.27,242.75L269.64,246.63L270.04,245.83L270.44,247.09L270.85,254.16L271.25,244.92L274.04,186.51L274.44,155.14L276.06,121.15L276.46,130.73L277.27,111.45L277.67,115.1L278.08,138.26L278.44,126.96L278.84,142.25L280.05,163.13L280.46,185.14L282.48,251.31L282.68,222.56L283.29,217.2L286.19,228.38L287.81,189.59L288.13,191.19L289.75,122.06L290.03,131.64L291.68,90.8L291.97,92.51L292.41,115.56L292.86,141.11L293.14,140.77L293.46,121.83L293.91,126.74L294.35,150.46L294.79,145.79L295.08,164.27L295.36,185.71L295.8,178.53L296.25,190.5L296.69,197.35L297.02,214.8L297.74,210.01L297.98,223.7L298.75,213.89L298.91,239.1L300.12,225.18L300.41,236.59L300.69,234.99L301.13,204.65L302.02,198.38L302.31,201L302.47,207.16" style="vector-effect: none; fill: none; stroke: rgb(99, 110, 250); stroke-opacity: 1; stroke-width: 2px; opacity: 1;"/></g><g class="points"/><g class="text"/></g><g class="trace scatter traced46788" style="stroke-miterlimit: 2; opacity: 1;"><g class="fills"/><g class="errorbars"/><g class="lines"><path class="js-line" d="M229.45,199.39L231.03,150.34L231.43,140.87L232.24,142.81L232.65,135.74L233.05,142.47L233.41,125.47L234.22,165.17L234.62,150.11L235.84,188.55L236.24,191.52L236.64,195.97L237.05,211.26L238.22,236.01L238.62,241.71L239.43,240.34L239.83,232.25L240.24,230.99L240.64,235.44L241.45,224.03L241.85,237.72L243.43,208.86L243.83,184.33L245.04,148.17L245.45,131.4L247.47,88.05L247.83,111.55L248.64,136.99L249.04,128.78L249.44,128.21L249.85,121.7L252.23,239.2L252.63,231.9L253.04,233.96L253.44,244.34L254.65,224.72L255.06,210.68L256.23,237.49L256.63,234.18L257.04,220.15L260.27,148.28L260.67,153.53L261.44,140.98L261.84,147.37L262.65,117.37L263.05,122.05L263.46,130.03L263.86,132.2L264.26,144.86L265.84,194.94L266.24,201.22L267.46,248.33L267.86,230.65L268.67,255.06L269.07,240.12L269.43,243.42L269.84,235.1L270.65,250.61L271.05,239.77L271.45,235.9L271.86,212.17L272.26,211.26L272.66,200.87L274.24,164.37L274.64,139.5L275.05,139.39L275.45,135.28L275.85,108.01L276.26,121.93L276.66,127.18L277.47,102.2L277.87,123.53L278.24,127.75L278.64,123.53L282.28,239.09L282.68,222.78L283.45,206.24L283.85,209.54L284.25,217.87L285.06,243.2L285.47,232.7L287.48,193.12L287.89,188.21L288.29,179.66L288.7,154.22L289.87,124.1L290.27,129.92L291.48,97.63L291.89,87.14L293.1,136.31L293.5,121.48L295.52,182.51L295.88,170.07L297.5,213.76L297.9,203.38L299.03,232.82L299.56,238.63L299.92,220.95L300.33,227.23L300.69,229.74L301.9,190.15L302.31,192.43L302.71,169.39L303.11,174.18L303.52,169.27L305.09,113.83L305.46,117.37L306.02,117.37L306.71,79.15L307.11,91.02L307.51,108.47L309.9,173.5L310.3,175.55L311.51,213.19L311.92,206.69L312.32,202.36L312.72,221.29L313.49,198.14L313.9,207.6L314.3,199.39L314.7,205.67L315.11,203.95L315.51,209.77L315.91,203.73L316.72,190.04L317.13,166.99L319.1,119.76L319.51,101.06L319.91,100.49L320.32,91.7L321.12,104.14L321.53,103.57L321.93,96.38L322.7,102.88L323.1,135.05L323.91,159.01L324.31,146.46L324.72,149.77L325.12,174.18L326.7,229.39L327.1,206.69L327.5,200.76L327.91,209.09L328.31,210.11L328.72,206.81L330.33,189.12L330.73,189.81L331.5,183.65L331.91,173.38L334.73,84.17L335.14,79.84L335.5,87.14L335.9,74.93L336.31,77.44L336.71,95.35L337.92,82.69L338.33,94.21L341.11,201.67L341.52,195.17L341.92,195.28L342.32,215.48L342.73,233.73L343.13,206.35L343.94,208.75L344.34,204.18L345.56,190.72L345.96,171.1L347.53,141.44L347.94,140.18L349.96,87.94L350.36,89.99L351.49,76.99L351.77,79.27L352.18,106.08L352.58,111.78L352.95,108.13L353.35,106.65L356.18,231.22L356.58,216.27L357.39,232.36L357.59,223.46L358.28,206.81L358.56,220.72L358.96,216.39L359.37,204.87L359.77,211.48L360.05,210.57" style="vector-effect: none; fill: none; stroke: rgb(239, 85, 59); stroke-opacity: 1; stroke-width: 2px; opacity: 1;"/></g><g class="points"/><g class="text"/></g><g class="trace scatter traceb7bed9" style="stroke-miterlimit: 2; opacity: 1;"><g class="fills"/><g class="errorbars"/><g class="lines"><path class="js-line" d="M341.6,186.66L341.92,182.32L342.32,201.03L342.69,216.89L343.13,193.62L343.94,199.44L344.34,196.81L345.56,188.14L345.96,165.44L346.32,152.78L346.73,161.56L347.13,152.55L349.55,87.18L349.96,81.25L351.57,72.13L351.98,82.39L352.34,95.97L352.74,93.34L353.15,89.24L354.36,122.21L354.76,164.64L355.97,214.04L356.38,212.1L356.78,205.6L357.19,223.62L357.55,217.12L357.95,208.79L358.36,204.34L358.76,215.52L359.57,206.62L359.97,210.96L360.38,208.22L360.78,198.64L361.95,187.8L362.35,163.05L363.16,117.3L363.57,131.67L363.97,113.31L364.37,123.8L364.78,107.72L365.59,94.94L365.99,84.1L368.78,138.06L369.18,173.88L370.39,184.04L370.75,199.21L371.56,195.56L371.97,220.31L372.37,215.64L372.77,200.01L373.18,209.13L373.58,197.5L373.98,188.83L374.39,191.68L374.79,189.4L375.16,184.38L375.56,160.99L376.77,136.92L377.17,110L377.58,106.81L377.98,95.28L378.39,71.33L378.79,79.88L379.19,84.45L380.37,68.36L380.77,77.72L382.79,100.3L383.19,112.74L383.6,124.26L383.96,107.38L385.17,164.53L385.57,158.14L386.22,185.98L386.83,179.47L387.19,179.93L387.59,192.02L388.36,187.12L388.76,198.41L389.98,171.49L390.38,188.6L391.59,126.2L392,123.58L393.17,94.03L393.57,69.39L394.38,64.71L394.78,73.15L395.19,82.16L395.59,74.86L395.99,67.22L397.97,117.76L398.38,116.16L398.78,125.51L399.18,121.18L399.59,154.03L399.91,160.31L400.52,115.02L401.61,178.45L402.01,190.54L402.41,188.37L402.78,177.76L403.59,187L403.99,171.03L405.2,135.67L405.6,129.28L406.01,122.32L406.41,129.62L407.62,98.36L408.03,88.55L408.84,73.61L409.2,75.32L410.77,44.86L411.22,55.36L412.03,103.16L412.43,99.16L412.83,99.5L415.22,169.43L415.62,160.76L416.02,149.81L416.43,164.99L416.83,173.31L417.23,155.4L417.64,143.99L418.04,150.27L418.45,163.5L419.21,155.74L419.62,141.71L420.83,115.48L421.23,122.89L422.44,48.97L422.85,57.18L423.25,67.56L423.62,66.31L424.02,42.92L424.42,32.77L424.83,38.7L425.23,49.54L426.44,90.49L426.85,87.07L427.25,89.24L428.02,106.12L428.42,127.11L429.63,156.2L430.04,146.73L430.84,177.99L431.25,174.45L431.65,172.4L432.06,163.84L432.26,136.58L433.02,163.84L433.31,141.49L433.71,154.15L434.11,140.8L434.52,147.3L434.92,139.32L435.33,139.09L435.73,129.05L436.54,88.33L436.9,90.26L437.3,86.61L438.11,63.57L438.52,40.64L438.92,40.64L439.32,39.39L439.73,55.93L440.13,45.89L440.54,55.13L441.71,87.3L442.11,101.1L443.32,144.11L443.73,139.55L444.13,141.37L444.53,149.36L444.94,136.58L445.34,137.26L445.7,164.53L446.92,176.28L447.32,163.16L448.53,144.22L448.94,135.1L449.34,138.18L449.74,136.58L450.11,127.68L452.13,60.26L452.53,66.88L453.74,16L454.14,31.4L454.51,49.54L454.91,45.09L456.12,70.53L456.53,74.07L456.93,87.75L457.33,94.71L457.74,119.13L458.14,121.98L458.55,150.61L458.91,152.09L459.31,160.76L459.72,163.96L460,148.22" style="vector-effect: none; fill: none; stroke: rgb(0, 204, 150); stroke-opacity: 1; stroke-width: 2px; opacity: 1;"/></g><g class="points"/><g class="text"/></g><g class="trace scatter trace696442" style="stroke-miterlimit: 2; opacity: 1;"><g class="fills"/><g class="errorbars"/><g class="lines"><path class="js-line" d="M413.24,110.32L413.64,109.06L414.04,139.98L414.41,143.63L414.81,141.01L415.22,163.59L416.02,146.48L416.43,163.82L416.83,172.26L417.23,155.15L417.64,142.95L418.04,150.47L418.45,160.17L418.85,161.88L419.21,154.81L420.83,115.11L421.23,122.53L422.44,47.92L422.85,55.45L423.25,71.08L423.66,68.11L424.02,41.42L424.42,30.47L424.83,35.37L425.23,45.52L426.44,88.87L426.85,84.2L427.25,82.6L428.02,103.36L428.42,123.67L429.63,152.64L430.04,143.4L430.84,172.04L431.25,171.46L431.65,168.27L432.42,154.92L432.82,162.68L434.03,142.26L434.44,150.02L435.65,137.7L436.05,105.41L436.46,89.67L436.82,95.15L437.22,90.93L437.63,85.45L438.03,68.34L439.24,39.48L439.65,52.6L440.05,45.98L440.45,47.69L440.86,68.91L442.03,95.95L442.43,116.37L442.84,108.49L443.24,130.17L443.64,134.62L444.05,128.23L444.45,142.72L444.86,136.21L445.26,131.54L446.43,174.43L446.84,175.69L448.85,138.38L449.26,138.04L450.03,132.11L450.43,115.45L452.04,62.52L452.45,70.28L453.66,17.8L454.06,31.61L454.43,42.44L454.83,35.14L455.23,69.82L455.64,52.94L456.04,67.77L456.85,75.64" style="vector-effect: none; fill: none; stroke: rgb(171, 99, 250); stroke-opacity: 1; stroke-width: 2px; opacity: 1;"/></g><g class="points"/><g class="text"/></g><g class="trace scatter trace28af41" style="stroke-miterlimit: 2; opacity: 1;"><g class="fills"/><g class="errorbars"/><g class="lines"><path class="js-line" d="M0,199.73L1.53,280.84L2.02,304L3.19,271.49L3.59,287.12L5.21,263.84L5.57,268.18L6.38,282.1L6.78,279.36L7.19,260.31L9.21,195.74L9.61,184.33L9.97,165.51L10.38,172.81L10.78,186.5L11.19,189.35L11.59,165.4L12.4,168.7L13.21,201.1L13.61,200.19L14.01,212.05L14.78,199.05L15.18,218.9L16.8,269.89L17.2,259.62L17.61,274.34L17.97,271.49L18.78,287.12L19.59,263.62L19.99,267.5L21.2,281.3L21.6,266.47L23.58,200.87L23.99,204.41L25.6,138.7L26.01,134.48L26.41,170.76L26.81,158.78L27.18,157.98L27.58,153.53L28.39,179.88L28.79,207.03L29.2,193.92L29.6,194.94L30.41,268.75L30.81,253.58L31.22,267.15L31.58,261.11L31.98,262.48L32.39,290.77L33.19,293.96L33.6,285.06L34.41,261.34L34.81,262.93L35.62,268.29L38.4,220.61L38.81,223.23L39.21,203.5L40.79,151.36L41.19,155.59L41.59,154.9L42.81,193L43.17,180L45.19,257.8L45.59,243.54L46.4,286.43L47.21,289.85L47.61,297.04L47.97,268.98L48.42,298.3L48.82,294.3L49.23,270.46L49.63,260.88L50.03,268.86L50.44,278.67L50.8,272.06L51.21,247.42L52.42,230.19L52.82,217.07L55.65,153.76L56.05,162.89L56.86,159.01L57.26,160.49L57.67,168.59L58.84,213.42L59.24,228.25L59.65,226.43L60.05,243.54L60.45,275.59L60.86,273.66L61.66,260.08L62.07,234.07L62.43,273.54L62.84,286.77L63.24,280.27L63.64,283.24L64.05,283.81L64.45,259.62L64.85,254.95L65.26,268.52L65.66,256.09L66.47,254.49L68.04,184.22L68.85,167.79L69.26,173.15L69.66,153.65L70.47,131.74L71.24,165.62L71.64,174.07L72.04,171.9L72.45,199.96L73.25,182.74L73.66,209.2L74.06,213.31L74.47,234.07L74.87,236.24L75.68,285.52L76.04,279.13L76.44,250.73L77.66,280.73L78.06,283.01L78.46,293.96L78.87,274.11L79.27,266.7L79.68,278.79L83.27,183.65L83.67,193.46L84.08,173.95L84.48,176.8L84.84,174.86L85.65,157.87L86.46,175.55L86.86,183.19L87.27,176.23L87.67,179.88L88.07,179.77L88.48,222.78L88.84,227L89.25,247.53L89.65,240.57L90.46,255.63L91.27,278.56L91.67,276.51L92.07,261.22L92.48,240.69L92.88,251.18L93.28,264.19L94.05,263.05L94.46,255.06L94.86,252.44L95.26,242.85L95.67,243.08L96.07,227.23L97.28,198.59L97.69,182.28L98.45,163.46L99.26,163L100.07,143.72L100.47,143.15L101.68,151.93L102.09,163.34L102.45,165.51L103.26,199.85L103.66,210.46L104.07,196.77L105.28,271.03L105.68,267.27L106.89,260.08L107.3,262.36L108.06,273.54L108.47,272.4L108.87,260.88L109.28,262.59L109.68,259.85L110.08,261.68L110.49,224.03L110.89,230.53L111.29,213.54L113.31,152.16L113.72,144.41L114.89,151.82L115.29,153.99L115.7,149.31L116.5,162.43L119.73,254.26L120.1,240L121.71,284.95L122.12,267.15L122.52,254.72L122.93,269.89L124.1,255.63L124.5,256.77L124.9,252.67L125.31,238.41L127.33,163.46L127.73,154.67L128.9,131.06L129.31,137.33L129.71,142.92L130.11,137.22L130.52,140.18L130.92,158.21L131.73,184.79L132.13,166.54L132.7,169.62L132.9,207.38L133.71,249.01L134.11,233.61L134.51,229.51L134.92,238.29L136.13,279.13L136.53,267.95L138.92,235.55L139.32,246.96L140.13,229.62L140.53,188.33L141.34,154.22L141.7,155.01L142.11,171.78L143.32,125.47L143.72,128.78L144.13,146.69L144.53,152.39L144.93,138.25L145.34,120.45L145.74,157.52L146.15,152.16L146.55,169.96L146.91,166.31L147.32,175.09L148.53,242.97L148.93,241.94L149.34,232.82L150.91,277.19L151.31,263.27L151.72,246.73L152.12,248.56L152.53,258.14L152.93,281.07L153.33,260.19L153.74,239.09L154.14,239.43L154.54,239.66L154.95,236.12L155.31,224.49L156.93,166.76L157.33,166.31L158.95,144.63L159.35,145.2L159.71,138.13L160.12,154.1L160.52,167.11L160.93,157.87L161.49,151.59L163.75,250.73L164.12,257.8L164.52,263.05L164.92,260.65L165.33,240.92L166.13,264.53L166.54,262.02L166.94,270.23L167.35,247.87L167.75,248.22L168.15,239.43L168.56,219.58L169.77,209.32L170.13,211.71L170.54,191.41L172.56,136.08L172.96,152.39L173.36,152.73L173.77,159.24L174.57,138.59L174.98,147.49L176.19,178.86L176.59,170.42L178.57,257L178.98,232.59L179.38,236.81L179.78,268.86L180.19,273.2L180.59,269.78L181,270.8L181.76,242.97L182.17,255.4L182.57,288.26L182.97,261.22L183.38,247.65L183.78,249.59L184.19,235.55L186.16,173.27L186.57,175.78L188.18,123.76L188.59,132.43" style="vector-effect: none; fill: none; stroke: rgb(255, 161, 90); stroke-opacity: 1; stroke-width: 2px; opacity: 1;"/></g><g class="points"/><g class="text"/></g></g></g><g class="overplot"/><path class="xlines-above crisp" d="M0,0" style="fill: none;"/><path class="ylines-above crisp" d="M0,0" style="fill: none;"/><g class="overlines-above"/><g class="xaxislayer-above"><g class="xtick"><text text-anchor="middle" x="0" y="433" transform="translate(110.09,0)" style="font-family: 'Open Sans', verdana, arial, sans-serif; font-size: 12px; fill: rgb(42, 63, 95); fill-opacity: 1; white-space: pre; opacity: 1;">1995</text></g><g class="xtick"><text text-anchor="middle" x="0" y="433" style="font-family: 'Open Sans', verdana, arial, sans-serif; font-size: 12px; fill: rgb(42, 63, 95); fill-opacity: 1; white-space: pre; opacity: 1;" transform="translate(183.82,0)">2000</text></g><g class="xtick"><text text-anchor="middle" x="0" y="433" style="font-family: 'Open Sans', verdana, arial, sans-serif; font-size: 12px; fill: rgb(42, 63, 95); fill-opacity: 1; white-space: pre; opacity: 1;" transform="translate(257.6,0)">2005</text></g><g class="xtick"><text text-anchor="middle" x="0" y="433" style="font-family: 'Open Sans', verdana, arial, sans-serif; font-size: 12px; fill: rgb(42, 63, 95); fill-opacity: 1; white-space: pre; opacity: 1;" transform="translate(331.34000000000003,0)">2010</text></g><g class="xtick"><text text-anchor="middle" x="0" y="433" style="font-family: 'Open Sans', verdana, arial, sans-serif; font-size: 12px; fill: rgb(42, 63, 95); fill-opacity: 1; white-space: pre; opacity: 1;" transform="translate(405.08,0)">2015</text></g><g class="xtick"><text text-anchor="middle" x="0" y="433" style="font-family: 'Open Sans', verdana, arial, sans-serif; font-size: 12px; fill: rgb(42, 63, 95); fill-opacity: 1; white-space: pre; opacity: 1;" transform="translate(478.82,0)">2020</text></g></g><g class="yaxislayer-above"><g class="ytick"><text text-anchor="end" x="79" y="4.199999999999999" transform="translate(0,374.52)" style="font-family: 'Open Sans', verdana, arial, sans-serif; font-size: 12px; fill: rgb(42, 63, 95); fill-opacity: 1; white-space: pre; opacity: 1;">−50</text></g><g class="ytick"><text text-anchor="end" x="79" y="4.199999999999999" style="font-family: 'Open Sans', verdana, arial, sans-serif; font-size: 12px; fill: rgb(42, 63, 95); fill-opacity: 1; white-space: pre; opacity: 1;" transform="translate(0,317.48)">0</text></g><g class="ytick"><text text-anchor="end" x="79" y="4.199999999999999" style="font-family: 'Open Sans', verdana, arial, sans-serif; font-size: 12px; fill: rgb(42, 63, 95); fill-opacity: 1; white-space: pre; opacity: 1;" transform="translate(0,260.44)">50</text></g><g class="ytick"><text text-anchor="end" x="79" y="4.199999999999999" style="font-family: 'Open Sans', verdana, arial, sans-serif; font-size: 12px; fill: rgb(42, 63, 95); fill-opacity: 1; white-space: pre; opacity: 1;" transform="translate(0,203.41)">100</text></g><g class="ytick"><text text-anchor="end" x="79" y="4.199999999999999" style="font-family: 'Open Sans', verdana, arial, sans-serif; font-size: 12px; fill: rgb(42, 63, 95); fill-opacity: 1; white-space: pre; opacity: 1;" transform="translate(0,146.37)">150</text></g></g><g class="overaxes-above"/></g></g><g class="polarlayer"/><g class="smithlayer"/><g class="ternarylayer"/><g class="geolayer"/><g class="funnelarealayer"/><g class="pielayer"/><g class="iciclelayer"/><g class="treemaplayer"/><g class="sunburstlayer"/><g class="glimages"/><defs id="topdefs-ef0d46"><g class="clips"/><clipPath id="legendef0d46"><rect width="139" height="105" x="0" y="0"/></clipPath></defs><g class="layer-above"><g class="imagelayer"/><g class="shapelayer"/></g><g class="infolayer"><g class="legend" pointer-events="all" transform="translate(549.2,100)"><rect class="bg" shape-rendering="crispEdges" width="139" height="105" x="0" y="0" style="stroke: rgb(68, 68, 68); stroke-opacity: 1; fill: rgb(255, 255, 255); fill-opacity: 1; stroke-width: 0px;"/><g class="scrollbox" transform="" clip-path="url(#legendef0d46)"><g class="groups"><g class="traces" transform="translate(0,14.5)" style="opacity: 1;"><text class="legendtext" text-anchor="start" x="40" y="4.680000000000001" style="font-family: 'Open Sans', verdana, arial, sans-serif; font-size: 12px; fill: rgb(42, 63, 95); fill-opacity: 1; white-space: pre;">Jason.1</text><g class="layers" style="opacity: 1;"><g class="legendfill"/><g class="legendlines"><path class="js-line" d="M5,0h30" style="fill: none; stroke: rgb(99, 110, 250); stroke-opacity: 1; stroke-width: 2px;"/></g><g class="legendsymbols"><g class="legendpoints"/></g></g><rect class="legendtoggle" x="0" y="-9.5" width="133.84375" height="19" style="fill: rgb(0, 0, 0); fill-opacity: 0;"/></g><g class="traces" transform="translate(0,33.5)" style="opacity: 1;"><text class="legendtext" text-anchor="start" x="40" y="4.680000000000001" style="font-family: 'Open Sans', verdana, arial, sans-serif; font-size: 12px; fill: rgb(42, 63, 95); fill-opacity: 1; white-space: pre;">Jason.2</text><g class="layers" style="opacity: 1;"><g class="legendfill"/><g class="legendlines"><path class="js-line" d="M5,0h30" style="fill: none; stroke: rgb(239, 85, 59); stroke-opacity: 1; stroke-width: 2px;"/></g><g class="legendsymbols"><g class="legendpoints"/></g></g><rect class="legendtoggle" x="0" y="-9.5" width="133.84375" height="19" style="fill: rgb(0, 0, 0); fill-opacity: 0;"/></g><g class="traces" transform="translate(0,52.5)" style="opacity: 1;"><text class="legendtext" text-anchor="start" x="40" y="4.680000000000001" style="font-family: 'Open Sans', verdana, arial, sans-serif; font-size: 12px; fill: rgb(42, 63, 95); fill-opacity: 1; white-space: pre;">Jason.3</text><g class="layers" style="opacity: 1;"><g class="legendfill"/><g class="legendlines"><path class="js-line" d="M5,0h30" style="fill: none; stroke: rgb(0, 204, 150); stroke-opacity: 1; stroke-width: 2px;"/></g><g class="legendsymbols"><g class="legendpoints"/></g></g><rect class="legendtoggle" x="0" y="-9.5" width="133.84375" height="19" style="fill: rgb(0, 0, 0); fill-opacity: 0;"/></g><g class="traces" transform="translate(0,71.5)" style="opacity: 1;"><text class="legendtext" text-anchor="start" x="40" y="4.680000000000001" style="font-family: 'Open Sans', verdana, arial, sans-serif; font-size: 12px; fill: rgb(42, 63, 95); fill-opacity: 1; white-space: pre;">Sentinel-6MF</text><g class="layers" style="opacity: 1;"><g class="legendfill"/><g class="legendlines"><path class="js-line" d="M5,0h30" style="fill: none; stroke: rgb(171, 99, 250); stroke-opacity: 1; stroke-width: 2px;"/></g><g class="legendsymbols"><g class="legendpoints"/></g></g><rect class="legendtoggle" x="0" y="-9.5" width="133.84375" height="19" style="fill: rgb(0, 0, 0); fill-opacity: 0;"/></g><g class="traces" transform="translate(0,90.5)" style="opacity: 1;"><text class="legendtext" text-anchor="start" x="40" y="4.680000000000001" style="font-family: 'Open Sans', verdana, arial, sans-serif; font-size: 12px; fill: rgb(42, 63, 95); fill-opacity: 1; white-space: pre;">TOPEX.Poseidon</text><g class="layers" style="opacity: 1;"><g class="legendfill"/><g class="legendlines"><path class="js-line" d="M5,0h30" style="fill: none; stroke: rgb(255, 161, 90); stroke-opacity: 1; stroke-width: 2px;"/></g><g class="legendsymbols"><g class="legendpoints"/></g></g><rect class="legendtoggle" x="0" y="-9.5" width="133.84375" height="19" style="fill: rgb(0, 0, 0); fill-opacity: 0;"/></g></g></g><rect class="scrollbar" rx="20" ry="3" width="0" height="0" x="0" y="0" style="fill: rgb(128, 139, 164); fill-opacity: 1;"/></g><g class="g-gtitle"><text class="gtitle" x="35" y="50" text-anchor="start" dy="0em" style="font-family: 'Open Sans', verdana, arial, sans-serif; font-size: 17px; fill: rgb(42, 63, 95); opacity: 1; font-weight: normal; white-space: pre;">Mean Sea Levels Changing - North Pacific</text></g><g class="g-xtitle"><text class="xtitle" x="310" y="460.3" text-anchor="middle" style="font-family: 'Open Sans', verdana, arial, sans-serif; font-size: 14px; fill: rgb(42, 63, 95); opacity: 1; font-weight: normal; white-space: pre;">Date</text></g><g class="g-ytitle"><text class="ytitle" transform="rotate(-90,34.340625,260)" x="34.340625" y="260" text-anchor="middle" style="font-family: 'Open Sans', verdana, arial, sans-serif; font-size: 14px; fill: rgb(42, 63, 95); opacity: 1; font-weight: normal; white-space: pre;">Change in Sea Level [mm]</text></g></g></svg>