<svg class="main-svg" xmlns="http://www.w3.org/2000/svg" xmlns:xlink="http://www.w3.org/1999/xlink" width="700" height="500" style="" viewBox="0 0 700 500"><rect x="0" y="0" width="700" height="500" style="fill: rgb(255, 255, 255); fill-opacity: 1;"/><defs id="defs-b3437f"><g class="clips"><clipPath id="clipb3437fxyplot" class="plotclip"><rect width="460" height="320"/></clipPath><clipPath class="axesclip" id="clipb3437fx"><rect x="80" y="0" width="460" height="500"/></clipPath><clipPath class="axesclip" id="clipb3437fy"><rect x="0" y="100" width="700" height="320"/></clipPath><clipPath class="axesclip" id="clipb3437fxy"><rect x="80" y="100" width="460" height="320"/></clipPath></g><g class="gradients"/><g class="patterns"/></defs><g class="bglayer"><rect class="bg" x="80" y="100" width="460" height="320" style="fill: rgb(229, 236, 246); fill-opacity: 1; stroke-width: 0;"/></g><g class="layer-below"><g class="imagelayer"/><g class="shapelayer"/></g><g class="cartesianlayer"><g class="subplot xy"><g class="layer-subplot"><g class="shapelayer"/><g class="imagelayer"/></g><g class="minor-gridlayer"><g class="x"/><g class="y"/></g><g class="gridlayer"><g class="x"><path class="xgrid crisp" transform="translate(110.09,0)" d="M0,100v320" style="stroke: rgb(255, 255, 255); stroke-opacity: 1; stroke-width: 1px;"/><path class="xgrid crisp" transform="translate(183.82999999999998,0)" d="M0,100v320" style="stroke: rgb(255, 255, 255); stroke-opacity: 1; stroke-width: 1px;"/><path class="xgrid crisp" transform="translate(257.62,0)" d="M0,100v320" style="stroke: rgb(255, 255, 255); stroke-opacity: 1; stroke-width: 1px;"/><path class="xgrid crisp" transform="translate(331.36,0)" d="M0,100v320" style="stroke: rgb(255, 255, 255); stroke-opacity: 1; stroke-width: 1px;"/><path class="xgrid crisp" transform="translate(405.11,0)" d="M0,100v320" style="stroke: rgb(255, 255, 255); stroke-opacity: 1; stroke-width: 1px;"/><path class="xgrid crisp" transform="translate(478.86,0)" d="M0,100v320" style="stroke: rgb(255, 255, 255); stroke-opacity: 1; stroke-width: 1px;"/></g><g class="y"><path class="ygrid crisp" transform="translate(0,392.18)" d="M80,0h460" style="stroke: rgb(255, 255, 255); stroke-opacity: 1; stroke-width: 1px;"/><path class="ygrid crisp" transform="translate(0,354.88)" d="M80,0h460" style="stroke: rgb(255, 255, 255); stroke-opacity: 1; stroke-width: 1px;"/><path class="ygrid crisp" transform="translate(0,280.28)" d="M80,0h460" style="stroke: rgb(255, 255, 255); stroke-opacity: 1; stroke-width: 1px;"/><path class="ygrid crisp" transform="translate(0,242.98)" d="M80,0h460" style="stroke: rgb(255, 255, 255); stroke-opacity: 1; stroke-width: 1px;"/><path class="ygrid crisp" transform="translate(0,205.68)" d="M80,0h460" style="stroke: rgb(255, 255, 255); stroke-opacity: 1; stroke-width: 1px;"/><path class="ygrid crisp" transform="translate(0,168.39)" d="M80,0h460" style="stroke: rgb(255, 255, 255); stroke-opacity: 1; stroke-width: 1px;"/><path class="ygrid crisp" transform="translate(0,131.09)" d="M80,0h460" style="stroke: rgb(255, 255, 255); stroke-opacity: 1; stroke-width: 1px;"/></g></g><g class="zerolinelayer"><path class="yzl zl crisp" transform="translate(0,317.58000000000004)" d="M80,0h460" style="stroke: rgb(255, 255, 255); stroke-opacity: 1; stroke-width: 2px;"/></g><g class="layer-between"><g class="shapelayer"/><g class="imagelayer"/></g><path class="xlines-below"/><path class="ylines-below"/><g class="overlines-below"/><g class="xaxislayer-below"/><g class="yaxislayer-below"/><g class="overaxes-below"/><g class="plot" transform="translate(80,100)" clip-path="url(#clipb3437fxyplot)"><g class="scatterlayer mlayer"><g class="trace scatter trace8d5445" style="stroke-miterlimit: 2; opacity: 1;"><g class="fills"/><g class="errorbars"/><g class="lines"><path class="js-line" d="M134.12,180.75L134.93,154.45L135.33,162.47L135.74,151.47L136.14,162.1L136.55,172.36L136.91,168.07L137.35,159.11L139.33,200.89L139.74,206.3L140.95,228.86L141.35,247.14L142.52,223.83L142.93,226.62L143.73,257.58L144.14,238.37L144.54,230.17L144.95,244.15L145.35,234.83L145.75,244.9L146.52,209.84L146.93,210.96L147.33,215.43L149.75,156.5L150.16,161.35L150.52,165.27L150.92,146.25L151.33,148.67L151.73,156.88L152.22,173.47L152.54,169.56L152.94,172.17L155.73,226.44L156.13,222.15L156.54,227.18L156.94,243.04L157.35,242.85L157.75,241.73L158.15,240.61L158.56,241.17L158.96,243.41L159.32,223.27L159.73,227L160.13,227.18L160.54,227.37L160.9,230.54L161.75,209.28L162.15,212.64L162.55,213.2L164.13,153.89L164.49,169L165.02,167.88L165.34,160.42L165.75,157.62L166.15,172.54L166.96,156.88L167.36,158.55L169.78,229.98L170.19,195.11L170.96,202.01L171.36,211.52L171.76,216.93L172.17,209.84L172.97,215.06L173.38,205.36L174.19,226.44L174.59,219.35L174.99,202.75L175.4,202.19L175.8,213.76L177.38,177.02L177.78,184.85L179.4,145.31L179.8,142.33L180.61,129.09L180.97,139.16L181.37,140.46L181.78,133.19L182.99,167.88L183.39,165.27L183.8,164.34L184.2,168.81L185.78,231.1L186.18,218.98L186.58,221.96L186.99,216.37L187.39,213.01L187.8,233.52L188.68,224.39L189.01,212.82L189.41,212.26L189.82,215.99L191.79,179.63L192.2,179.81L192.6,181.87L193.41,167.13L193.81,160.05L194.99,139.16L195.39,151.28L195.79,140.09L196.2,151.65L196.6,152.03L197,160.23L197.41,165.27L197.81,161.35L198.22,176.64L198.98,181.49L199.39,204.99L199.79,210.59L200.19,190.26L200.6,199.96L201,228.3L201.41,238L201.81,199.96L202.62,186.53L203.02,218.42L203.43,239.68L203.79,225.13L204.19,203.5L204.48,185.04L205.45,184.66L205.81,188.39L206.21,185.41L206.62,172.17L207.02,167.13L207.42,171.05L207.79,167.13L209.4,120.14L209.81,132.07L210.21,126.85L210.61,145.31L211.42,142.14L211.79,149.6L212.19,179.26L212.59,173.1L213,177.2L213.4,163.59L213.81,184.1L215.82,228.3L216.23,205.55L216.63,210.21L217,226.06L217.4,224.76L217.8,228.86L218.61,213.01L219.01,218.23L220.63,174.59L220.99,170.49L221.4,171.05L221.8,166.76L223.82,130.58L224.22,131.89L224.63,122.38L225.03,124.05L225.44,130.77L225.84,133.75L226.24,129.46L226.93,169L227.42,163.4L227.82,149.98L229.03,186.16L229.43,182.8L230.24,209.84L230.57,199.96L231.25,156.88L231.45,200.14L232.26,223.83L232.67,216.55L233.84,203.5L234.24,194.92L235.05,193.06L235.45,186.53L237.47,154.08L237.67,102.98L238.48,133.01L238.84,124.61L239.25,121.26L239.65,118.09L240.06,134.68L240.46,133.75L240.86,143.64L241.27,147.74L241.67,138.97L242.48,177.39L242.84,169.18L243.25,169L244.05,212.82L244.46,196.04L244.86,180L245.27,199.96L246.07,226.44L246.48,220.1L246.84,220.66L247.45,228.12L248.05,191.19L248.46,197.72L248.86,174.22L249.26,172.91L249.67,179.81L250.07,184.66L250.48,176.83L250.88,168.07L251.28,175.9L252.45,137.29L252.86,139.16L253.26,137.11L254.07,123.68L254.47,131.7L255.24,149.23L255.69,131.7L256.45,150.72L256.86,149.79L257.26,155.2L257.66,158.93L258.07,152.96L258.47,153.52L258.88,159.3L259.28,183.36L259.64,179.81L260.09,179.81L260.45,175.53L260.86,176.27L261.26,197.53L262.07,197.35L262.47,206.3L262.87,216.55L263.28,196.04L263.68,183.92L264.09,191L264.49,190.63L265.66,143.82L266.06,144.19L266.47,148.3L266.87,160.05L267.68,108.02L268.08,121.82L268.89,129.65L269.26,120.7L270.06,153.71L270.47,127.22L272.89,177.2L273.29,169.56L273.7,160.23L274.06,176.64L274.47,196.97L274.87,190.82L275.27,195.67L275.68,196.04L276.08,199.4L276.48,207.23L276.89,198.09L277.29,199.96L277.7,198.09L278.1,196.04L278.46,202.38L278.87,206.48L279.27,171.8L279.68,158.74L280.08,173.29L282.1,121.63L282.46,115.85L282.7,114.92L283.31,115.85L286.22,134.12L286.66,148.86L287.55,127.97L287.83,152.59L289,147.74L289.45,163.03L290.05,182.05L290.5,194.36L291.39,175.71L291.71,182.05L291.99,183.92L292.44,167.13L293.16,151.65L293.49,156.32L293.93,158.37L294.82,149.23L295.1,157.25L297.32,94.59L297.77,92.72L298.01,52.25L298.78,91.6L300.43,126.48L300.72,105.78L302.49,153.89" style="vector-effect: none; fill: none; stroke: rgb(99, 110, 250); stroke-opacity: 1; stroke-width: 2px; opacity: 1;"/></g><g class="points"/><g class="text"/></g><g class="trace scatter tracea3c110" style="stroke-miterlimit: 2; opacity: 1;"><g class="fills"/><g class="errorbars"/><g class="lines"><path class="js-line" d="M229.47,188.17L230.24,218.19L230.65,208.5L231.05,185.75L231.45,199.92L231.86,215.21L232.26,231.06L232.67,214.65L234.64,192.65L235.05,190.97L238.64,127L239.05,128.12L239.45,127.19L239.85,130.54L241.87,156.47L242.28,172.13L244.26,221.92L244.66,199.36L245.06,191.53L245.47,223.79L245.87,230.13L246.28,220.06L246.68,220.43L247.08,211.85L247.45,211.85L247.85,201.78L249.06,176.42L249.47,177.35L249.87,186.49L252.66,137.07L253.06,137.07L253.46,133.53L253.87,121.78L255.08,150.5L255.48,142.29L255.85,140.24L256.25,151.8L256.65,158.14L257.06,151.24L257.46,159.82L257.87,159.64L258.27,160.94L258.67,156.84L259.08,182.2L259.89,178.66L260.25,194.14L260.65,181.64L261.06,195.44L261.46,197.87L261.86,195.82L262.27,204.58L262.67,213.91L263.08,201.78L265.86,139.12L266.27,147.51L266.67,145.46L267.07,135.39L267.48,108.54L267.88,116.37L268.29,123.27L268.69,121.96L269.09,115.62L269.86,133.34L270.27,118.61L271.88,160.38L272.28,174.18L272.69,170.64L273.09,174.37L273.46,166.91L273.86,169.52L274.26,191.71L274.67,204.39L275.07,187.05L275.88,207.56L276.28,202.72L276.69,205.7L277.09,203.65L277.49,196.93L277.9,187.05L278.26,187.98L278.67,204.02L279.47,154.23L279.88,154.41L280.28,156.65L281.09,142.11L281.49,128.87L283.07,107.98L283.47,118.98L283.88,128.31L284.28,112.45L285.49,128.68L285.89,141.73L286.7,152.18L287.11,142.85L287.51,135.58L287.91,154.97L288.32,160.94L288.72,153.86L289.13,155.35L289.49,167.28L290.7,201.04L291.1,184.25L291.51,177.91L291.91,183.69L292.72,160.2L293.12,161.5L293.53,167.1L294.34,158.7L294.74,147.14L295.14,153.11L295.55,138.94L298.33,77.21L298.74,90.45L299.06,121.59L299.59,103.13L299.95,116.18L300.31,115.81L300.72,118.61L301.93,146.02L302.33,144.16L303.54,163.93L303.95,158.7L304.71,197.31L305.12,193.76L305.48,180.15L306.05,179.03L306.33,188.92L306.73,199.17L307.14,187.8L308.35,153.48L308.75,138.19L309.12,129.24L309.52,132.04L309.92,134.65L310.33,134.46L310.73,121.96L311.54,110.4L311.94,94.74L312.75,78.7L313.12,89.33L313.92,80.56L314.33,102.38L315.54,143.78L315.94,140.8L316.35,137.26L316.75,133.53L317.15,153.86L317.56,162.81L317.92,157.03L318.32,153.48L318.73,174.56L319.13,164.49L319.54,155.35L320.75,184.63L321.15,183.51L322.32,157.77L322.73,161.87L324.34,128.87L324.75,132.04L325.15,133.71L325.55,115.25L325.96,113.01L326.36,95.67L327.13,73.1L327.53,75.16L327.94,90.82L328.34,91.38L328.74,84.48L329.96,101.26L330.36,119.35L331.13,133.34L331.53,111.89L331.94,117.49L332.34,136.14L333.15,129.61L333.55,145.46L333.95,147.7L334.36,143.04L335.53,129.42L335.93,147.14L336.34,164.3L336.74,149.19L337.55,123.46L337.95,136.88L338.36,123.27L338.76,132.78L339.16,125.69L339.57,123.46L339.93,107.6L340.74,72.36L341.14,80.75L341.55,66.39L341.95,69L342.35,68.63L342.76,61.54L343.53,67.32L343.97,62.29L345.59,130.36L345.95,123.46L346.76,126.63L347.16,143.41L347.56,140.99L347.97,145.84L348.78,165.6L349.18,162.06L349.58,152.36L350.39,143.97L350.8,168.59L351.52,164.67L351.81,154.04L352.21,161.31L352.57,145.09L353.78,118.61L354.19,124.95L356.21,76.09L356.61,80L357.01,77.02L357.38,66.02L357.62,52.78L358.31,68.63L358.59,67.32L358.99,80.94L359.8,96.04L360.08,88.4" style="vector-effect: none; fill: none; stroke: rgb(239, 85, 59); stroke-opacity: 1; stroke-width: 2px; opacity: 1;"/></g><g class="points"/><g class="text"/></g><g class="trace scatter tracee3c53f" style="stroke-miterlimit: 2; opacity: 1;"><g class="fills"/><g class="errorbars"/><g class="lines"><path class="js-line" d="M341.63,69.62L341.95,72.97L342.35,71.29L342.72,66.82L343.16,64.77L343.57,68.12L343.97,64.58L344.37,83.6L345.59,127.06L345.95,123.7L346.35,124.07L346.76,127.06L347.16,144.03L347.56,139.92L347.97,149.44L348.78,171.81L349.18,168.27L349.58,157.83L350.39,147.2L350.8,166.22L351.2,168.46L351.6,156.34L352.37,154.1L352.77,139.55L353.58,120.9L353.99,123.89L354.39,126.12L355.6,98.9L356.01,81.37L356.81,86.59L357.22,70.74L357.98,78.94L358.39,74.09L358.79,78.94L359.2,97.59L359.6,101.69L360,94.61L361.22,112.51L361.62,121.83L362.39,145.52L362.79,136.19L363.19,141.42L364,143.28L364.41,135.08L366.38,149.99L366.79,139.92L368,104.86L368.4,107.85L368.81,99.08L370.02,86.4L370.38,60.85L371.59,76.89L372,56L372.4,52.27L372.81,67.19L374.42,95.91L374.83,102.63L376,128.92L376.4,128.18L378.42,169.76L378.82,155.78L379.23,136.19L379.59,152.23L379.99,138.81L380.4,130.79L380.8,133.21L381.21,140.3L382.42,125.19L382.82,126.5L383.99,98.34L384.4,82.86L384.8,68.5L385.2,69.99L385.61,68.31L386.01,63.46L386.25,72.41L386.86,54.32L387.22,55.44L387.63,64.39L388.4,80.81L388.8,75.4L389.2,72.6L389.61,90.32L390.01,110.27L390.41,103.37L390.82,97.59L392.43,144.59L392.8,127.62L393.2,117.92L393.6,134.14L394.82,116.61L395.22,127.99L395.62,126.87L396.03,134.52L396.43,139.92L396.84,121.65L397.6,111.2L398.01,95.35L398.81,100.39L399.22,92.74L399.62,92.74L399.95,82.67L400.83,55.82L401.24,56.94L401.64,56.19L402.41,50.22L402.81,71.85L404.02,86.03L404.43,99.83L405.64,124.45L406.04,121.46L407.26,135.45L407.66,130.79L408.06,122.21L408.47,129.85L408.83,146.26L409.23,137.69L409.64,120.34L410.45,114L410.85,120.72L412.47,103L412.87,83.98L413.27,83.23L413.68,79.31L414.85,55.26L415.25,48.17L416.06,51.9L416.46,49.66L416.87,41.64L417.27,45.56L417.68,59.55L418.89,80.62L419.25,92.18L420.06,108.59L420.46,103L420.87,106.17L421.27,104.68L421.67,120.72L422.08,140.67L422.48,132.46L422.88,121.65L423.29,128.18L423.65,125.75L424.06,124.63L424.86,121.09L425.27,122.02L425.67,106.54L426.48,101.51L426.88,84.91L427.29,78.75L427.69,91.25L428.46,78.2L428.86,61.04L430.07,38.29L430.48,45.56L430.88,44.25L431.29,36.05L431.69,42.2L432.09,36.98L432.29,86.59L433.06,54.7L433.35,56.94L433.75,82.11L434.15,79.13L434.56,80.25L434.96,99.83L435.36,113.44L435.77,100.2L436.94,114.56L437.34,119.41L437.75,108.41L438.15,109.71L438.55,114.56L438.96,116.24L439.36,114.19L439.77,113.07L440.17,118.29L440.98,92.56L441.34,111.58L443.76,47.05L444.17,50.41L445.34,25.6L445.74,32.88L446.55,22.43L446.96,53.95L448.17,65.33L448.57,60.11L449.74,95.17L450.15,93.11L450.55,93.86L450.95,112.14L451.36,121.46L451.76,117.55L452.17,104.12L452.57,103.93L452.97,113.63L453.38,123.7L453.78,103.93L454.14,100.95L454.55,83.04L454.95,86.59L456.16,73.72L456.57,74.28L456.97,67.01L457.37,63.28L457.78,48.36L458.18,48.36L458.59,35.67L458.95,45.19L459.35,43.51L459.76,31.95L460,24.11" style="vector-effect: none; fill: none; stroke: rgb(0, 204, 150); stroke-opacity: 1; stroke-width: 2px; opacity: 1;"/></g><g class="points"/><g class="text"/></g><g class="trace scatter trace3ec7b9" style="stroke-miterlimit: 2; opacity: 1;"><g class="fills"/><g class="errorbars"/><g class="lines"><path class="js-line" d="M413.27,88.92L413.68,83.7L414.08,63.93L414.48,65.23L414.85,61.69L415.25,50.87L415.66,57.59L416.06,53.67L416.46,55.16L416.87,48.45L417.27,50.69L417.68,62.06L418.08,82.58L418.48,82.2L418.89,78.1L420.06,107.38L420.46,98.99L421.27,100.29L421.67,116.71L422.08,135.17L422.48,122.86L422.88,117.45L423.29,123.23L423.65,120.81L424.06,121.37L424.46,122.3L424.86,120.25L425.27,123.23L425.67,106.82L426.08,111.11L426.48,107.75L426.88,90.22L427.29,84.07L427.69,95.63L428.46,87.05L428.86,68.4L430.07,41.36L430.48,45.28L430.88,46.58L431.29,37.07L431.69,41.55L432.09,36.33L435.28,111.11L435.69,98.06L436.09,103.84L436.5,98.62L437.26,118.2L437.67,103.46L438.88,118.01L439.28,114.65L439.69,109.81L440.09,117.64L440.49,111.11L440.86,93.02L441.26,107.94L441.66,97.31L442.07,90.97L443.28,66.91L443.68,57.03L444.9,44.72L445.3,27.19L445.66,31.85L446.07,23.65L446.47,16L446.87,47.89L448.09,73.63L448.49,68.96L449.7,91.16L450.06,92.83L450.47,87.05L450.87,103.09L451.28,118.94L451.68,113.54L452.08,104.21L452.49,99.92L452.89,112.42L453.3,128.64L453.7,110.18L455.27,85.75L455.68,82.76L456.08,72.32L456.49,80.71L456.89,78.1" style="vector-effect: none; fill: none; stroke: rgb(171, 99, 250); stroke-opacity: 1; stroke-width: 2px; opacity: 1;"/></g><g class="points"/><g class="text"/></g><g class="trace scatter trace5e5cb3" style="stroke-miterlimit: 2; opacity: 1;"><g class="fills"/><g class="errorbars"/><g class="lines"><path class="js-line" d="M0,261.29L1.17,237.24L1.53,238.17L2.02,234.25L2.34,220.64L2.79,218.96L3.19,223.81L3.59,211.5L4,213.74L4.81,235L5.57,227.72L5.98,243.58L7.19,267.07L7.59,262.04L8,259.24L9.21,302.32L9.61,304L11.19,288.71L11.59,290.01L11.99,289.27L12.4,286.66L13.21,269.31L13.61,275.84L14.01,271.74L14.78,242.64L15.19,246.75L15.59,249.36L17.2,213.92L17.61,209.82L18.78,196.95L19.18,221.38L19.59,210.19L19.99,218.96L20.4,226.98L23.18,290.76L23.59,274.72L23.99,267.63L24.39,271.92L24.8,280.87L26.01,301.95L26.41,280.87L27.18,257.38L27.58,268.75L28.39,272.11L28.8,263.72L30.01,230.52L30.41,218.77L30.81,218.4L31.22,197.89L31.99,219.15L32.39,211.87L33.2,176.81L34.01,217.47L34.41,210.19L34.81,225.11L35.62,232.95L36.02,231.27L36.39,219.71L38,278.64L38.41,275.47L38.81,271.92L39.22,284.98L39.62,284.6L40.02,279.01L40.79,259.61L41.19,274.72L41.6,274.72L42.41,248.05L42.81,259.8L43.17,252.34L44.02,233.32L45.19,218.03L45.6,216.54L47.21,183.53L47.62,190.99L48.02,193.78L48.42,175.69L49.63,223.06L50.04,219.52L50.44,214.3L50.81,217.84L51.21,244.14L52.02,235.74L52.42,251.78L53.23,268.75L53.63,268.94L54.84,294.3L55.25,282.55L56.86,247.31L57.23,248.43L57.63,257.38L58.04,249.54L58.44,248.61L58.84,232.76L59.25,231.83L59.65,226.79L60.86,197.14L61.67,183.71L62.44,189.68L62.84,186.51L63.65,179.8L64.05,182.41L64.46,185.58L64.86,194.9L65.67,239.29L66.48,239.85L66.84,232.95L67.24,235.74L67.65,237.05L68.86,254.95L69.26,235L69.67,229.22L70.07,230.15L70.47,255.51L71.24,259.61L71.65,238.73L72.45,226.23L72.86,230.71L73.26,236.68L73.66,230.52L75.64,180.92L76.05,180.17L76.45,185.39L76.86,179.98L77.26,184.27L77.66,175.69L78.07,184.27L78.47,165.44L78.87,171.03L79.28,188.56L79.68,197.51L80.45,231.64L81.26,245.63L81.66,229.96L82.06,232.57L82.47,254.58L83.28,253.27L83.68,247.49L84.85,273.6L85.26,270.99L85.66,257.56L87.68,240.78L88.08,227.54L88.49,201.8L88.85,209.08L89.25,205.35L90.47,187.44L90.91,164.13L92.08,178.3L92.48,183.15L92.85,176.44L93.25,178.68L94.06,195.83L94.46,193.97L94.87,216.72L95.68,247.12L96.08,244.32L96.48,242.27L96.89,246.56L97.29,259.06L97.65,246.37L98.06,253.65L98.46,259.99L100.08,247.68L100.48,228.47L101.29,232.95L101.69,252.9L103.27,188L103.67,189.49L104.08,199.19L105.29,166.37L105.69,182.78L107.27,145.3L108.07,172.34L110.9,238.17L111.3,234.81L112.52,251.97L112.92,249.54L113.32,246.56L114.09,270.24L114.5,248.98L115.3,228.28L115.71,237.8L116.51,235.37L116.92,228.84L118.13,221.57L118.53,208.52L119.71,178.49L120.11,179.8L120.51,180.17L121.72,160.4L122.13,157.23L122.53,155.18L122.94,159.47L123.34,158.72L123.74,187.26L124.11,203.29L124.51,193.22L124.91,196.21L125.32,217.28L125.72,208.7L126.13,213.55L126.53,208.52L126.93,235.93L127.74,247.31L128.15,242.08L128.51,242.64L128.91,250.1L129.72,221.38L130.12,235.93L130.53,235.74L130.93,222.69L131.74,186.7L132.14,200.68L135.74,149.21L136.14,150.89L136.55,167.86L136.95,165.44L137.31,160.96L138.53,184.46L138.93,202.92L139.33,202.73L139.74,204.23L140.54,216.72L141.35,260.36L141.72,254.39L142.12,220.64L142.52,224.74L143.01,221.01L143.73,271.74L144.14,245.44L144.54,240.59L144.95,241.34L145.35,224.93L145.75,236.12L146.16,228.28L146.56,203.48L146.93,196.21L147.33,202.36L147.73,197.33L148.94,169.91L149.35,166.93L149.75,149.4L150.12,163.94L150.52,157.04L150.92,146.04L151.33,148.84L151.73,149.21L152.14,167.49L152.54,165.62L152.94,164.69L156.94,248.8L157.35,244.88L157.75,244.51L158.15,240.22L158.56,247.31L158.96,245.25L159.32,223.44L159.73,234.07L160.13,226.05L160.54,224.18L160.94,228.28L161.5,212.81L162.15,197.89L162.55,200.68L163.77,170.29L164.13,159.84L164.53,159.28L164.94,164.88L165.75,160.03L166.15,176.81L166.96,141.38L167.36,150.33L168.57,201.62L169.78,229.03L170.19,188.37L170.55,196.39L170.96,216.72L171.36,212.81L171.76,216.35L172.17,213.36L172.57,220.26L172.97,225.67L173.38,213.74L173.78,222.13L174.19,221.2L174.59,220.64L175.4,201.24L175.8,210.38L177.38,176.81L177.78,190.8L178.59,147.35L178.99,155.93L179.4,151.26L179.8,153.13L180.2,135.78L180.61,138.39L180.97,138.02L181.37,136.9L181.78,140.07L182.18,176.07L182.59,160.96L182.99,166.37L183.39,163.01L184.2,184.27L184.61,203.85L185.78,231.64L186.18,231.27L186.58,231.83L186.99,231.27L187.39,235.93L187.8,235.18L188.2,227.35L188.6,235.18" style="vector-effect: none; fill: none; stroke: rgb(255, 161, 90); stroke-opacity: 1; stroke-width: 2px; opacity: 1;"/></g><g class="points"/><g class="text"/></g></g></g><g class="overplot"/><path class="xlines-above crisp" d="M0,0" style="fill: none;"/><path class="ylines-above crisp" d="M0,0" style="fill: none;"/><g class="overlines-above"/><g class="xaxislayer-above"><g class="xtick"><text text-anchor="middle" x="0" y="433" transform="translate(110.09,0)" style="font-family: 'Open Sans', verdana, arial, sans-serif; font-size: 12px; fill: rgb(42, 63, 95); fill-opacity: 1; white-space: pre; opacity: 1;">1995</text></g><g class="xtick"><text text-anchor="middle" x="0" y="433" style="font-family: 'Open Sans', verdana, arial, sans-serif; font-size: 12px; fill: rgb(42, 63, 95); fill-opacity: 1; white-space: pre; opacity: 1;" transform="translate(183.82999999999998,0)">2000</text></g><g class="xtick"><text text-anchor="middle" x="0" y="433" style="font-family: 'Open Sans', verdana, arial, sans-serif; font-size: 12px; fill: rgb(42, 63, 95); fill-opacity: 1; white-space: pre; opacity: 1;" transform="translate(257.62,0)">2005</text></g><g class="xtick"><text text-anchor="middle" x="0" y="433" style="font-family: 'Open Sans', verdana, arial, sans-serif; font-size: 12px; fill: rgb(42, 63, 95); fill-opacity: 1; white-space: pre; opacity: 1;" transform="translate(331.36,0)">2010</text></g><g class="xtick"><text text-anchor="middle" x="0" y="433" style="font-family: 'Open Sans', verdana, arial, sans-serif; font-size: 12px; fill: rgb(42, 63, 95); fill-opacity: 1; white-space: pre; opacity: 1;" transform="translate(405.11,0)">2015</text></g><g class="xtick"><text text-anchor="middle" x="0" y="433" style="font-family: 'Open Sans', verdana, arial, sans-serif; font-size: 12px; fill: rgb(42, 63, 95); fill-opacity: 1; white-space: pre; opacity: 1;" transform="translate(478.86,0)">2020</text></g></g><g class="yaxislayer-above"><g class="ytick"><text text-anchor="end" x="79" y="4.199999999999999" transform="translate(0,392.18)" style="font-family: 'Open Sans', verdana, arial, sans-serif; font-size: 12px; fill: rgb(42, 63, 95); fill-opacity: 1; white-space: pre; opacity: 1;">−40</text></g><g class="ytick"><text text-anchor="end" x="79" y="4.199999999999999" style="font-family: 'Open Sans', verdana, arial, sans-serif; font-size: 12px; fill: rgb(42, 63, 95); fill-opacity: 1; white-space: pre; opacity: 1;" transform="translate(0,354.88)">−20</text></g><g class="ytick"><text text-anchor="end" x="79" y="4.199999999999999" style="font-family: 'Open Sans', verdana, arial, sans-serif; font-size: 12px; fill: rgb(42, 63, 95); fill-opacity: 1; white-space: pre; opacity: 1;" transform="translate(0,317.58000000000004)">0</text></g><g class="ytick"><text text-anchor="end" x="79" y="4.199999999999999" style="font-family: 'Open Sans', verdana, arial, sans-serif; font-size: 12px; fill: rgb(42, 63, 95); fill-opacity: 1; white-space: pre; opacity: 1;" transform="translate(0,280.28)">20</text></g><g class="ytick"><text text-anchor="end" x="79" y="4.199999999999999" style="font-family: 'Open Sans', verdana, arial, sans-serif; font-size: 12px; fill: rgb(42, 63, 95); fill-opacity: 1; white-space: pre; opacity: 1;" transform="translate(0,242.98)">40</text></g><g class="ytick"><text text-anchor="end" x="79" y="4.199999999999999" style="font-family: 'Open Sans', verdana, arial, sans-serif; font-size: 12px; fill: rgb(42, 63, 95); fill-opacity: 1; white-space: pre; opacity: 1;" transform="translate(0,205.68)">60</text></g><g class="ytick"><text text-anchor="end" x="79" y="4.199999999999999" style="font-family: 'Open Sans', verdana, arial, sans-serif; font-size: 12px; fill: rgb(42, 63, 95); fill-opacity: 1; white-space: pre; opacity: 1;" transform="translate(0,168.39)">80</text></g><g class="ytick"><text text-anchor="end" x="79" y="4.199999999999999" style="font-family: 'Open Sans', verdana, arial, sans-serif; font-size: 12px; fill: rgb(42, 63, 95); fill-opacity: 1; white-space: pre; opacity: 1;" transform="translate(0,131.09)">100</text></g></g><g class="overaxes-above"/></g></g><g class="polarlayer"/><g class="smithlayer"/><g class="ternarylayer"/><g class="geolayer"/><g class="funnelarealayer"/><g class="pielayer"/><g class="iciclelayer"/><g class="treemaplayer"/><g class="sunburstlayer"/><g class="glimages"/><defs id="topdefs-b3437f"><g class="clips"/><clipPath id="legendb3437f"><rect width="139" height="105" x="0" y="0"/></clipPath></defs><g class="layer-above"><g class="imagelayer"/><g class="shapelayer"/></g><g class="infolayer"><g class="legend" pointer-events="all" transform="translate(549.2,100)"><rect class="bg" shape-rendering="crispEdges" width="139" height="105" x="0" y="0" style="stroke: rgb(68, 68, 68); stroke-opacity: 1; fill: rgb(255, 255, 255); fill-opacity: 1; stroke-width: 0px;"/><g class="scrollbox" transform="" clip-path="url(#legendb3437f)"><g class="groups"><g class="traces" transform="translate(0,14.5)" style="opacity: 1;"><text class="legendtext" text-anchor="start" x="40" y="4.680000000000001" style="font-family: 'Open Sans', verdana, arial, sans-serif; font-size: 12px; fill: rgb(42, 63, 95); fill-opacity: 1; white-space: pre;">Jason.1</text><g class="layers" style="opacity: 1;"><g class="legendfill"/><g class="legendlines"><path class="js-line" d="M5,0h30" style="fill: none; stroke: rgb(99, 110, 250); stroke-opacity: 1; stroke-width: 2px;"/></g><g class="legendsymbols"><g class="legendpoints"/></g></g><rect class="legendtoggle" x="0" y="-9.5" width="133.84375" height="19" style="fill: rgb(0, 0, 0); fill-opacity: 0;"/></g><g class="traces" transform="translate(0,33.5)" style="opacity: 1;"><text class="legendtext" text-anchor="start" x="40" y="4.680000000000001" style="font-family: 'Open Sans', verdana, arial, sans-serif; font-size: 12px; fill: rgb(42, 63, 95); fill-opacity: 1; white-space: pre;">Jason.2</text><g class="layers" style="opacity: 1;"><g class="legendfill"/><g class="legendlines"><path class="js-line" d="M5,0h30" style="fill: none; stroke: rgb(239, 85, 59); stroke-opacity: 1; stroke-width: 2px;"/></g><g class="legendsymbols"><g class="legendpoints"/></g></g><rect class="legendtoggle" x="0" y="-9.5" width="133.84375" height="19" style="fill: rgb(0, 0, 0); fill-opacity: 0;"/></g><g class="traces" transform="translate(0,52.5)" style="opacity: 1;"><text class="legendtext" text-anchor="start" x="40" y="4.680000000000001" style="font-family: 'Open Sans', verdana, arial, sans-serif; font-size: 12px; fill: rgb(42, 63, 95); fill-opacity: 1; white-space: pre;">Jason.3</text><g class="layers" style="opacity: 1;"><g class="legendfill"/><g class="legendlines"><path class="js-line" d="M5,0h30" style="fill: none; stroke: rgb(0, 204, 150); stroke-opacity: 1; stroke-width: 2px;"/></g><g class="legendsymbols"><g class="legendpoints"/></g></g><rect class="legendtoggle" x="0" y="-9.5" width="133.84375" height="19" style="fill: rgb(0, 0, 0); fill-opacity: 0;"/></g><g class="traces" transform="translate(0,71.5)" style="opacity: 1;"><text class="legendtext" text-anchor="start" x="40" y="4.680000000000001" style="font-family: 'Open Sans', verdana, arial, sans-serif; font-size: 12px; fill: rgb(42, 63, 95); fill-opacity: 1; white-space: pre;">Sentinel-6MF</text><g class="layers" style="opacity: 1;"><g class="legendfill"/><g class="legendlines"><path class="js-line" d="M5,0h30" style="fill: none; stroke: rgb(171, 99, 250); stroke-opacity: 1; stroke-width: 2px;"/></g><g class="legendsymbols"><g class="legendpoints"/></g></g><rect class="legendtoggle" x="0" y="-9.5" width="133.84375" height="19" style="fill: rgb(0, 0, 0); fill-opacity: 0;"/></g><g class="traces" transform="translate(0,90.5)" style="opacity: 1;"><text class="legendtext" text-anchor="start" x="40" y="4.680000000000001" style="font-family: 'Open Sans', verdana, arial, sans-serif; font-size: 12px; fill: rgb(42, 63, 95); fill-opacity: 1; white-space: pre;">TOPEX.Poseidon</text><g class="layers" style="opacity: 1;"><g class="legendfill"/><g class="legendlines"><path class="js-line" d="M5,0h30" style="fill: none; stroke: rgb(255, 161, 90); stroke-opacity: 1; stroke-width: 2px;"/></g><g class="legendsymbols"><g class="legendpoints"/></g></g><rect class="legendtoggle" x="0" y="-9.5" width="133.84375" height="19" style="fill: rgb(0, 0, 0); fill-opacity: 0;"/></g></g></g><rect class="scrollbar" rx="20" ry="3" width="0" height="0" x="0" y="0" style="fill: rgb(128, 139, 164); fill-opacity: 1;"/></g><g class="g-gtitle"><text class="gtitle" x="35" y="50" text-anchor="start" dy="0em" style="font-family: 'Open Sans', verdana, arial, sans-serif; font-size: 17px; fill: rgb(42, 63, 95); opacity: 1; font-weight: normal; white-space: pre;">Mean Sea Levels Changing - Southern Ocean</text></g><g class="g-xtitle"><text class="xtitle" x="310" y="460.3" text-anchor="middle" style="font-family: 'Open Sans', verdana, arial, sans-serif; font-size: 14px; fill: rgb(42, 63, 95); opacity: 1; font-weight: normal; white-space: pre;">Date</text></g><g class="g-ytitle"><text class="ytitle" transform="rotate(-90,34.340625,260)" x="34.340625" y="260" text-anchor="middle" style="font-family: 'Open Sans', verdana, arial, sans-serif; font-size: 14px; fill: rgb(42, 63, 95); opacity: 1; font-weight: normal; white-space: pre;">Change in Sea Level [mm]</text></g></g></svg>