<svg class="main-svg" xmlns="http://www.w3.org/2000/svg" xmlns:xlink="http://www.w3.org/1999/xlink" width="700" height="500" style="" viewBox="0 0 700 500"><rect x="0" y="0" width="700" height="500" style="fill: rgb(255, 255, 255); fill-opacity: 1;"/><defs id="defs-d2e127"><g class="clips"><clipPath id="clipd2e127xyplot" class="plotclip"><rect width="460" height="320"/></clipPath><clipPath class="axesclip" id="clipd2e127x"><rect x="80" y="0" width="460" height="500"/></clipPath><clipPath class="axesclip" id="clipd2e127y"><rect x="0" y="100" width="700" height="320"/></clipPath><clipPath class="axesclip" id="clipd2e127xy"><rect x="80" y="100" width="460" height="320"/></clipPath></g><g class="gradients"/><g class="patterns"/></defs><g class="bglayer"><rect class="bg" x="80" y="100" width="460" height="320" style="fill: rgb(229, 236, 246); fill-opacity: 1; stroke-width: 0;"/></g><g class="layer-below"><g class="imagelayer"/><g class="shapelayer"/></g><g class="cartesianlayer"><g class="subplot xy"><g class="layer-subplot"><g class="shapelayer"/><g class="imagelayer"/></g><g class="minor-gridlayer"><g class="x"/><g class="y"/></g><g class="gridlayer"><g class="x"><path class="xgrid crisp" transform="translate(110.09,0)" d="M0,100v320" style="stroke: rgb(255, 255, 255); stroke-opacity: 1; stroke-width: 1px;"/><path class="xgrid crisp" transform="translate(183.82999999999998,0)" d="M0,100v320" style="stroke: rgb(255, 255, 255); stroke-opacity: 1; stroke-width: 1px;"/><path class="xgrid crisp" transform="translate(257.62,0)" d="M0,100v320" style="stroke: rgb(255, 255, 255); stroke-opacity: 1; stroke-width: 1px;"/><path class="xgrid crisp" transform="translate(331.36,0)" d="M0,100v320" style="stroke: rgb(255, 255, 255); stroke-opacity: 1; stroke-width: 1px;"/><path class="xgrid crisp" transform="translate(405.11,0)" d="M0,100v320" style="stroke: rgb(255, 255, 255); stroke-opacity: 1; stroke-width: 1px;"/><path class="xgrid crisp" transform="translate(478.86,0)" d="M0,100v320" style="stroke: rgb(255, 255, 255); stroke-opacity: 1; stroke-width: 1px;"/></g><g class="y"><path class="ygrid crisp" transform="translate(0,396.17)" d="M80,0h460" style="stroke: rgb(255, 255, 255); stroke-opacity: 1; stroke-width: 1px;"/><path class="ygrid crisp" transform="translate(0,358.14)" d="M80,0h460" style="stroke: rgb(255, 255, 255); stroke-opacity: 1; stroke-width: 1px;"/><path class="ygrid crisp" transform="translate(0,282.09000000000003)" d="M80,0h460" style="stroke: rgb(255, 255, 255); stroke-opacity: 1; stroke-width: 1px;"/><path class="ygrid crisp" transform="translate(0,244.07)" d="M80,0h460" style="stroke: rgb(255, 255, 255); stroke-opacity: 1; stroke-width: 1px;"/><path class="ygrid crisp" transform="translate(0,206.04000000000002)" d="M80,0h460" style="stroke: rgb(255, 255, 255); stroke-opacity: 1; stroke-width: 1px;"/><path class="ygrid crisp" transform="translate(0,168.01999999999998)" d="M80,0h460" style="stroke: rgb(255, 255, 255); stroke-opacity: 1; stroke-width: 1px;"/><path class="ygrid crisp" transform="translate(0,129.99)" d="M80,0h460" style="stroke: rgb(255, 255, 255); stroke-opacity: 1; stroke-width: 1px;"/></g></g><g class="zerolinelayer"><path class="yzl zl crisp" transform="translate(0,320.12)" d="M80,0h460" style="stroke: rgb(255, 255, 255); stroke-opacity: 1; stroke-width: 2px;"/></g><g class="layer-between"><g class="shapelayer"/><g class="imagelayer"/></g><path class="xlines-below"/><path class="ylines-below"/><g class="overlines-below"/><g class="xaxislayer-below"/><g class="yaxislayer-below"/><g class="overaxes-below"/><g class="plot" transform="translate(80,100)" clip-path="url(#clipd2e127xyplot)"><g class="scatterlayer mlayer"><g class="trace scatter trace2ea753" style="stroke-miterlimit: 2; opacity: 1;"><g class="fills"/><g class="errorbars"/><g class="lines"><path class="js-line" d="M134.12,188.96L134.93,190.86L135.33,205.88L135.74,205.5L136.14,200.36L136.55,197.32L136.91,175.46L137.72,194.66L138.12,183.82L138.93,236.11L139.33,204.93L139.74,211.96L140.14,197.89L140.95,256.83L141.35,250.56L141.72,236.68L142.12,201.88L142.52,210.63L142.93,216.71L143.73,244.66L144.14,230.21L144.54,215.38L144.95,235.54L145.35,237.82L145.75,255.69L146.52,201.5L146.93,227.74L147.73,170.32L148.14,197.32L148.54,234.78L148.94,189.15L149.75,160.82L150.16,165.57L150.52,189.53L151.73,152.64L152.22,185.34L152.54,193.14L152.94,171.65L154.15,223.18L154.52,207.02L154.92,161.96L155.33,191.05L155.73,230.21L156.54,223.56L156.94,234.21L157.35,224.51L157.75,242.19L158.15,241.24L158.56,238.01L159.32,218.43L159.73,237.63L160.13,237.06L160.54,221.09L160.9,215.57L161.5,228.12L161.75,220.52L162.15,223.75L162.55,228.12L163.36,180.78L163.73,163.86L164.13,166.33L164.49,215.95L165.02,226.22L165.34,185.34L165.75,177.36L166.15,202.26L166.96,184.96L167.36,169.56L167.76,176.41L168.17,203.22L168.57,245.8L168.98,219.76L169.38,203.03L170.55,225.46L170.96,217.47L171.36,218.62L171.76,224.51L172.57,197.51L172.97,212.15L174.19,248.46L174.59,237.44L175.4,206.07L175.8,226.79L177.01,200.74L177.38,166.9L177.78,159.68L178.18,197.51L178.59,204.36L178.99,191.43L180.97,157.78L181.37,186.29L182.18,175.46L182.59,176.6L183.39,185.72L183.8,169.56L184.2,178.5L184.61,223.18L185.01,235.92L185.37,201.31L185.78,235.35L186.18,213.48L186.58,193.9L187.8,238.58L188.12,248.65L189.01,203.22L189.41,222.61L189.78,244.66L190.18,239.15L190.58,229.26L191.79,194.47L192.2,214.62L193.01,184.39L193.41,189.15L193.81,188.58L194.18,178.5L194.99,161.58L195.39,177.36L195.79,179.26L196.2,195.23L197,164.62L197.41,184.96L197.81,185.34L198.18,168.23L198.58,167.66L198.98,165.19L200.19,190.48L200.6,183.63L201,218.24L201.41,200.55L201.81,183.63L202.21,183.06L202.62,194.47L203.43,242.57L203.79,215.95L204.48,144.09L205.45,186.86L205.81,190.86L206.21,167.28L207.02,142.57L207.38,192.76L207.79,184.01L208.19,149.79L208.6,149.6L209,153.97L209.4,153.4L209.81,187.82L211.02,138.19L211.42,150.36L211.83,158.35L212.23,194.09L212.59,155.87L213,177.17L213.4,146.56L214.21,164.24L214.61,215.19L215.02,182.11L215.42,200.36L215.82,230.59L216.63,173.56L217,196.94L217.4,217.47L219.82,162.34L220.23,188.39L221.4,145.61L221.8,178.88L222.21,195.42L222.61,153.78L223.01,131.73L223.42,156.44L223.82,169.94L224.22,165L224.63,163.67L225.03,145.23L225.44,157.97L225.84,195.8L226.24,161.96L226.65,172.61L226.93,173.18L227.82,114.81L228.22,145.23L229.03,182.3L229.43,173.56L229.84,154.92L230.24,159.87L230.57,198.46L231.25,105.3L231.45,159.87L231.86,161.39L232.67,190.48L233.03,163.29L233.43,172.42L233.84,153.59L234.64,169.56L235.05,145.8L236.66,181.35L237.07,156.25L237.47,153.78L237.67,103.97L238.48,165.38L238.84,132.87L239.65,118.8L240.06,142.19L240.46,134.01L240.86,146.75L241.27,164.62L241.67,147.51L242.84,134.96L243.25,138.38L244.46,186.29L244.86,185.91L246.07,206.07L246.48,200.55L246.84,188.2L247.45,247.89L248.05,162.91L248.46,181.35L249.26,146.18L249.67,161.39L250.07,201.69L250.48,196.18L250.88,155.49L251.28,150.93L251.65,167.47L252.05,176.6L252.45,168.04L254.07,110.24L254.47,153.59L255.69,134.39L256.05,155.68L256.45,125.45L256.86,132.3L257.26,145.04L258.07,131.92L258.47,119.75L258.88,123.74L259.28,168.99L260.45,105.11L260.86,137.05L261.26,158.54L261.66,156.25L262.07,145.61L262.87,178.69L263.28,154.35L263.68,116.14L264.09,143.52L264.49,151.5L264.85,139.52L265.26,152.64L265.66,144.85L266.06,150.93L266.47,184.01L266.87,192.95L267.28,134.77L267.68,131.92L268.08,147.7L268.49,146.94L268.89,131.54L269.26,133.06L269.66,153.78L270.06,149.98L270.47,138.57L270.87,135.91L271.27,153.78L271.68,156.63L272.08,129.26L272.49,127.93L272.89,168.23L273.29,170.13L273.66,152.64L274.06,157.21L274.47,173.56L274.87,146.75L275.27,163.29L275.68,157.78L276.08,137.81L276.48,160.25L276.89,168.61L277.29,157.78L278.06,132.68L278.46,143.9L278.87,166.33L279.27,147.51L279.68,122.03L281.29,157.59L281.69,131.92L282.1,136.67L282.46,106.06L282.7,149.98L283.31,107.77L286.22,106.82L286.66,113.67L287.11,100.93L287.55,110.81L288.56,122.79L289,118.23L289.45,135.91L289.77,127.93L290.05,124.31L290.5,146.56L290.94,145.8L291.39,146.18L291.99,161.01L292.44,158.54L292.88,148.46L293.16,128.5L293.49,132.68L293.93,128.31L295.1,144.66L295.39,138.57L295.83,127.36L296.27,169.56L297.32,100.17L297.77,115.57L298.01,92.94L298.78,98.46L298.94,92.75L299.26,115.19L300.11,145.04L300.43,133.25L300.72,92.56L302.05,153.02L302.33,148.27L302.49,152.64" style="vector-effect: none; fill: none; stroke: rgb(99, 110, 250); stroke-opacity: 1; stroke-width: 2px; opacity: 1;"/></g><g class="points"/><g class="text"/></g><g class="trace scatter trace1ce4e8" style="stroke-miterlimit: 2; opacity: 1;"><g class="fills"/><g class="errorbars"/><g class="lines"><path class="js-line" d="M229.47,173.08L229.84,162.05L230.24,168.52L230.65,193.42L231.45,154.07L231.86,160.34L232.67,187.53L233.03,164.52L233.43,167.57L233.84,152.74L234.64,170.23L235.05,145.13L235.45,148.36L235.86,144.37L236.66,163.38L237.07,147.98L237.47,148.74L237.88,137.53L238.24,164.91L238.64,140.38L239.05,131.25L239.45,132.39L239.85,145.32L240.26,157.3L240.66,146.27L241.47,166.05L241.87,145.13L242.28,147.6L242.64,141.9L243.04,142.28L243.45,152.36L244.26,201.79L244.66,189.43L245.06,194.75L245.47,204.07L245.87,196.66L246.28,201.98L247.04,183.16L247.45,199.7L248.66,159.39L249.06,145.32L250.27,198.94L250.68,157.3L251.08,136.96L251.49,163L251.85,171.75L252.25,170.61L252.66,158.82L253.87,103.69L254.27,142.28L254.68,150.27L255.08,140.57L255.48,141.33L255.85,153.12L256.25,148.36L256.65,134.3L257.06,136.96L257.46,150.46L258.67,116.04L259.08,155.78L259.89,142.28L260.25,126.31L260.65,114.52L261.06,162.43L261.86,146.08L262.27,161.29L262.67,186.58L263.08,160.34L263.88,131.06L264.29,143.42L265.06,138.67L265.46,156.92L265.86,142.09L266.27,173.65L266.67,189.24L267.07,159.2L267.48,124.79L267.88,148.55L268.29,159.58L269.05,125.17L269.46,142.09L269.86,160.91L270.27,148.17L270.67,137.72L271.07,162.05L271.48,157.3L271.88,153.12L272.28,135.63L272.69,154.83L273.09,177.83L273.46,164.72L273.86,163L274.67,177.26L275.07,147.79L275.47,168.71L275.88,161.1L276.28,141.9L277.09,161.1L277.49,152.93L278.26,138.48L278.67,150.84L279.07,159.96L279.47,121.94L279.88,106.35L280.28,133.34L281.09,145.51L281.49,137.53L281.9,136.2L282.3,117.94L282.66,119.28L283.07,114.33L283.47,119.47L283.88,165.29L285.49,134.49L285.89,120.23L286.7,128.59L287.11,117.75L288.32,136.96L288.72,127.26L289.09,120.42L289.49,140.76L289.89,128.97L290.3,144.94L291.51,140L291.91,162.43L293.93,120.99L294.34,134.87L294.74,122.89L295.14,129.54L295.51,125.74L295.91,132.01L296.31,167.76L297.53,104.07L297.93,129.54L298.74,97.79L299.06,106.73L299.59,118.9L299.91,146.27L300.31,124.98L300.72,100.83L301.93,152.17L302.33,140.38L303.14,160.15L303.54,156.16L303.95,147.98L304.31,152.17L304.71,170.61L305.12,178.4L305.48,146.46L306.73,193.99L307.14,161.67L308.35,112.43L308.71,113.57L309.12,107.87L309.52,120.99L309.92,113.19L310.33,140.38L311.14,117.18L311.54,121.37L312.35,103.11L312.75,102.54L313.12,103.5L313.52,99.88L313.92,84.48L314.33,113.57L315.54,141.9L315.94,143.23L316.75,121.18L317.11,135.06L317.52,167.38L317.92,164.52L318.32,162.81L318.73,174.41L319.13,134.49L319.54,125.55L319.94,144.56L320.34,157.3L320.75,142.09L321.15,136.2L321.56,162.81L321.92,144.37L322.32,149.32L322.73,149.32L323.94,129.16L324.34,134.87L324.75,119.09L325.15,135.06L325.96,126.12L326.32,84.48L327.94,125.93L328.34,114.33L328.74,90.38L329.15,95.7L329.55,119.85L329.96,136.39L330.36,134.87L330.72,111.29L331.13,138.48L331.53,114.71L331.94,93.04L332.34,128.4L332.74,115.85L333.15,122.89L333.55,131.82L333.95,99.88L334.36,106.54L334.76,101.4L335.13,105.02L335.53,119.09L336.34,135.25L336.74,129.35L337.14,111.48L337.55,92.47L337.95,114.52L338.76,94.56L339.16,105.59L339.53,117.37L339.93,107.11L340.34,99.31L340.74,77.64L341.14,91.71L341.55,98.55L342.76,64.52L343.16,69.65L343.53,89.43L343.97,80.87L344.37,100.26L345.59,126.69L345.95,121.75L346.35,135.63L346.76,120.42L347.16,154.26L347.56,136.77L347.97,134.11L348.37,173.65L348.78,170.8L349.18,178.97L350.39,130.87L350.8,173.46L351.52,173.65L351.81,168.33L352.98,134.49L353.38,141.52L353.78,129.73L354.19,143.23L354.59,138.67L355,115.09L355.4,137.91L355.8,124.6L356.21,133.72L357.38,111.67L357.62,115.66L358.31,146.27L358.59,127.26L358.99,124.41L359.4,122.7L359.8,98.36L360.08,103.69" style="vector-effect: none; fill: none; stroke: rgb(239, 85, 59); stroke-opacity: 1; stroke-width: 2px; opacity: 1;"/></g><g class="points"/><g class="text"/></g><g class="trace scatter trace3ce21e" style="stroke-miterlimit: 2; opacity: 1;"><g class="fills"/><g class="errorbars"/><g class="lines"><path class="js-line" d="M341.63,105.55L342.72,66.57L343.16,72.28L344.37,102.89L344.78,113.15L346.35,134.83L346.76,125.51L347.16,154.6L347.56,139.2L347.97,133.12L349.18,184.26L349.58,144.33L349.99,157.07L350.39,131.22L351.2,188.63L351.6,162.4L352.37,153.08L352.77,144.33L353.18,123.99L353.58,138.44L353.99,139.58L354.39,152.89L354.79,124.18L356.01,134.45L356.41,130.45L357.58,112.01L357.98,121.33L358.39,132.17L358.79,126.27L359.2,130.45L360,102.89L360.41,133.12L361.22,135.59L361.58,110.68L361.98,86.73L362.39,112.77L363.19,149.09L363.6,133.88L364.41,91.86L364.81,117.72L365.98,152.13L366.38,132.74L367.19,100.61L367.6,119.05L368,107.26L368.4,139.58L369.21,103.08L369.62,104.22L370.02,115.05L371.19,96.61L371.59,93.38L372,89.58L372.4,92.81L372.81,120.38L373.21,128.55L373.61,100.99L374.02,93.95L374.42,118.1L374.78,114.29L375.19,116.58L375.59,143.57L376,135.78L376.4,107.45L376.8,104.03L377.21,139.96L377.61,146.24L378.02,166.58L378.82,114.67L379.19,115.43L379.59,140.72L380.4,102.32L380.8,118.29L381.21,143.95L381.61,131.79L382.01,127.98L382.82,154.79L383.23,117.53L383.59,119.05L383.99,139.77L384.8,102.51L385.2,115.05L385.61,109.92L387.22,91.1L387.63,94.33L387.91,101.56L388.4,97.75L388.8,86.73L389.61,119.81L390.01,116.96L390.41,77.03L390.82,86.73L391.22,124.75L391.63,139.96L392.03,119.05L392.8,88.63L393.2,91.67L393.6,104.22L394.01,118.48L394.41,111.63L394.82,96.42L395.62,111.25L396.03,86.73L396.43,85.02L396.8,101.56L397.2,112.01L397.6,97.18L398.01,69.04L398.41,79.69L398.81,90.15L399.22,103.46L399.62,101.56L399.95,84.25L400.83,75.89L401.24,86.92L401.64,87.11L402.01,76.27L402.81,66.38L403.22,85.4L403.62,79.31L404.02,89.77L404.83,146.04L405.24,127.6L406.04,91.86L406.45,92.43L406.85,110.68L407.26,119.24L407.66,88.82L408.83,135.97L409.23,110.87L409.64,110.87L410.04,95.28L410.45,82.35L410.81,95.09L411.25,89.77L411.66,115.43L412.47,86.16L412.87,96.61L413.68,49.84L414.08,53.64L414.44,80.45L415.25,94.71L415.66,84.63L417.27,66.38L417.68,100.8L418.04,112.2L418.48,99.08L419.25,90.72L419.65,107.45L420.06,141.48L420.46,118.48L420.87,65.81L421.27,60.3L421.67,117.72L422.08,151.56L422.48,127.79L422.88,131.41L424.46,102.32L424.86,106.5L425.27,111.06L425.67,91.29L426.08,111.82L426.48,108.59L426.88,105.93L427.29,97.37L427.65,127.79L429.27,57.07L429.67,66.38L430.07,70.76L430.48,62.58L430.88,53.26L431.29,60.49L431.69,71.33L432.29,101.37L433.06,67.52L433.35,70.57L433.75,91.86L434.15,98.89L434.56,73.23L434.96,65.05L435.36,101.56L435.77,61.44L436.17,94.9L436.54,94.33L437.34,110.3L437.75,75.7L438.15,79.31L438.55,101.37L438.96,103.65L439.36,81.21L440.17,106.88L440.57,79.5L440.94,59.73L441.34,99.65L441.75,107.07L442.15,95.47L442.55,52.12L442.96,83.3L443.36,79.69L444.17,57.26L444.57,97.37L444.98,118.1L445.34,91.48L446.55,34.06L446.96,74.18L447.36,98.32L447.76,75.7L448.17,78.93L448.57,59.92L449.74,84.82L450.15,66.19L450.95,99.08L451.36,87.11L451.76,96.42L452.17,86.73L452.57,83.3L452.97,83.87L453.38,83.11L453.78,87.49L454.14,71.14L454.95,43.76L456.16,40.72L456.57,39.2L456.97,40.91L458.59,16L458.95,35.39L459.35,32.92L459.76,20.37L460,29.12" style="vector-effect: none; fill: none; stroke: rgb(0, 204, 150); stroke-opacity: 1; stroke-width: 2px; opacity: 1;"/></g><g class="points"/><g class="text"/></g><g class="trace scatter trace06d014" style="stroke-miterlimit: 2; opacity: 1;"><g class="fills"/><g class="errorbars"/><g class="lines"><path class="js-line" d="M413.27,68.57L413.68,52.03L414.08,58.87L414.44,89.1L415.25,94.81L415.66,87.58L416.06,85.68L416.46,87.77L417.27,73.32L417.68,101.84L418.08,116.1L418.48,100.32L419.25,88.34L419.65,103.74L420.06,136.25L420.46,113.06L420.87,62.87L421.27,56.78L421.67,114.01L422.08,143.86L422.48,114.01L422.88,124.66L423.25,112.3L424.06,101.65L424.46,101.84L424.86,103.17L425.27,110.78L425.67,95.19L426.08,120.28L426.48,116.67L426.88,108.5L427.29,98.61L427.65,130.55L429.27,57.73L429.67,63.44L430.07,69.9L430.88,55.83L431.29,64.39L432.05,81.69L432.46,76.74L432.86,68.38L433.26,69.33L433.67,84.16L434.07,99.37L434.48,84.16L434.88,51.65L435.28,100.89L435.69,60.39L436.09,85.49L436.45,80.93L437.26,111.54L437.67,75.79L438.07,76.55L438.47,92.91L438.88,98.99L439.28,79.41L440.09,106.4L440.49,87.77L440.86,57.92L441.26,83.4L441.66,102.41L442.07,103.55L442.47,60.77L443.28,90.81L443.68,67.05L444.09,55.83L444.49,92.91L444.9,120.47L445.26,99.94L445.66,80.74L446.47,33.21L446.87,68.19L447.28,103.36L447.68,78.84L448.09,84.16L448.49,64.96L448.89,79.79L449.3,76.36L449.66,81.69L450.06,64.2L451.68,96.14L452.08,83.02L452.89,76.93L453.3,82.45L453.7,81.88L454.06,76.55L454.87,46.32L455.27,49.18L455.68,40.81L456.08,40.62L456.49,36.06L456.89,51.46" style="vector-effect: none; fill: none; stroke: rgb(171, 99, 250); stroke-opacity: 1; stroke-width: 2px; opacity: 1;"/></g><g class="points"/><g class="text"/></g><g class="trace scatter trace52af05" style="stroke-miterlimit: 2; opacity: 1;"><g class="fills"/><g class="errorbars"/><g class="lines"><path class="js-line" d="M0,271.3L1.17,226.05L1.53,239.55L2.02,257.04L2.34,244.87L2.79,243.73L3.19,250L3.59,243.73L4,248.86L4.77,277L5.57,224.91L5.98,242.4L6.78,234.79L7.19,245.25L7.59,260.08L8,241.26L8.4,247.34L9.17,296.2L9.61,304L9.98,268.64L10.38,251.72L10.78,257.99L11.19,277.38L11.59,277.38L11.99,266.36L12.4,266.36L13.21,238.41L14.01,292.78L14.38,272.44L14.78,261.41L15.59,266.93L15.99,251.53L16.4,232.51L16.8,241.45L17.2,251.91L17.61,254.76L17.97,250L18.78,230.8L19.18,245.63L19.59,248.1L19.99,260.46L20.4,231.18L20.8,234.41L21.2,246.39L21.61,242.02L22.01,242.59L22.78,279.66L23.59,260.27L23.99,233.08L24.39,242.78L24.8,279.85L25.6,254.19L26.01,265.79L26.78,247.34L27.18,258.37L27.58,257.04L28.39,245.06L28.8,242.97L29.2,250.39L29.6,255.9L30.01,232.89L30.41,197.53L30.81,215.02L31.18,235.75L31.99,258.94L32.39,223.01L33.2,233.84L33.6,215.97L34.41,230.04L34.81,213.5L35.98,241.07L36.39,185.74L38,268.45L38.41,242.78L38.81,245.06L39.22,269.59L39.62,278.52L40.02,252.86L40.39,252.29L40.79,231.37L41.6,267.69L42.41,233.84L43.17,260.65L44.02,259.51L45.19,207.42L45.6,229.09L46,245.63L46.4,213.31L47.62,223.77L47.98,207.61L48.42,210.46L48.83,231.37L49.23,226.62L49.63,239.36L50.04,228.52L50.44,246.58L50.81,210.08L51.21,231.94L52.02,230.04L52.42,213.31L52.83,256.85L53.23,280.61L53.63,250.39L54.04,251.91L54.44,275.48L54.84,300.77L55.25,270.73L55.65,257.42L56.06,259.32L56.82,244.68L57.23,243.73L57.63,266.93L58.84,218.63L59.25,261.22L59.65,259.89L60.05,217.11L60.46,211.03L60.86,228.14L61.67,236.51L62.03,254.95L62.44,259.32L62.84,223.2L63.24,211.6L63.65,219.78L64.05,226.62L64.46,228.52L64.86,198.67L65.67,261.79L66.48,234.03L66.84,214.07L67.24,225.67L67.65,233.65L68.86,259.89L69.26,229.47L69.67,221.87L70.07,241.83L70.47,245.63L71.24,243.73L72.05,216.73L72.45,226.05L72.86,238.79L73.26,219.58L73.66,208.94L74.07,221.11L74.88,227.57L75.64,208.37L76.05,213.69L76.45,200L78.47,149.81L78.87,165.59L79.28,173.96L79.64,169.96L80.45,233.65L80.85,231.37L81.26,213.12L81.66,196.96L82.06,208.94L82.47,231.94L83.28,246.01L83.68,220.16L84.08,217.11L84.45,219.58L84.85,237.84L85.66,262.17L86.47,232.13L87.27,267.12L87.68,246.2L88.08,242.21L88.45,207.42L89.25,225.1L89.66,218.82L90.47,240.69L90.91,228.33L91.27,227.57L91.68,219.78L92.08,216.54L92.48,248.67L93.25,235.56L94.06,212.74L94.46,186.12L94.87,201.9L95.27,240.12L95.68,248.48L96.08,240.88L96.48,221.11L96.89,224.34L97.29,261.03L98.46,236.32L99.27,246.2L99.67,238.22L100.08,251.53L100.48,231.56L100.88,247.34L101.29,236.32L101.69,237.46L102.06,218.82L103.67,204.76L104.08,217.49L104.88,189.36L105.29,194.49L106.09,221.3L106.5,218.63L106.86,219.78L107.27,207.04L108.48,217.11L108.88,245.06L110.09,185.74L110.5,234.41L111.71,265.59L112.52,229.09L113.32,248.67L113.69,270.92L114.09,290.5L114.5,239.55L115.3,213.5L115.71,241.45L116.51,230.99L116.92,212.36L117.73,249.43L118.13,242.4L119.71,204.37L120.11,209.89L120.51,241.83L120.92,228.33L121.32,211.98L121.72,225.1L122.13,211.22L122.53,198.1L122.94,198.67L123.34,207.42L123.74,208.94L124.11,197.34L124.51,187.07L124.91,190.12L125.32,202.66L125.72,212.93L126.13,212.36L126.53,207.23L127.34,222.63L127.74,260.27L128.51,220.92L128.91,231.18L129.32,226.05L129.72,208.75L130.53,236.7L130.93,220.92L131.34,189.17L131.74,196.39L132.14,224.15L132.71,231.56L132.91,203.42L133.72,162.93L134.12,180.04L135.33,208.37L135.74,200.76L136.91,175.1L137.31,183.84L137.72,199.43L138.12,177.38L138.53,186.88L138.93,229.66L140.14,188.59L140.54,218.06L141.31,254.76L141.72,243.92L142.12,198.1L142.52,207.61L143.01,199.62L143.73,253.81L144.14,230.8L144.54,227.95L144.91,236.13L145.35,235.18L145.75,245.25L147.73,169.96L148.14,186.69L148.54,226.05L148.94,186.5L149.75,159.13L150.12,171.67L150.52,190.31L150.92,183.46L151.33,170.53L151.73,146.39L152.14,170.72L152.54,185.36L152.94,162.74L154.15,222.44L154.52,190.69L154.92,160.84L155.33,191.83L156.94,229.66L157.35,217.68L158.56,237.84L158.96,233.84L159.32,217.87L159.73,236.89L160.13,233.65L160.54,210.46L160.94,207.04L161.5,216.73L161.67,212.74L162.15,213.88L162.55,219.01L164.13,164.83L164.53,207.8L164.94,222.63L165.34,185.17L165.75,187.64L166.15,206.09L167.36,158.36L167.76,177.38L168.57,238.22L169.78,196.58L170.51,211.6L170.96,211.03L171.36,205.33L171.76,212.74L172.57,191.45L172.97,215.59L174.19,242.21L174.59,235.37L175.4,197.91L175.8,228.52L177.78,168.06L178.18,195.63L178.99,200.76L179.4,186.88L180.2,184.03L180.61,179.09L181.01,157.98L181.37,188.21L181.78,188.21L182.18,192.02L182.63,161.03L182.99,183.84L183.39,181.37L183.8,185.93L184.2,184.22L184.61,223.96L185.01,238.79L185.37,205.71L185.82,224.53L186.18,216.16L186.58,197.53L188.2,252.67L188.6,227" style="vector-effect: none; fill: none; stroke: rgb(255, 161, 90); stroke-opacity: 1; stroke-width: 2px; opacity: 1;"/></g><g class="points"/><g class="text"/></g></g></g><g class="overplot"/><path class="xlines-above crisp" d="M0,0" style="fill: none;"/><path class="ylines-above crisp" d="M0,0" style="fill: none;"/><g class="overlines-above"/><g class="xaxislayer-above"><g class="xtick"><text text-anchor="middle" x="0" y="433" transform="translate(110.09,0)" style="font-family: 'Open Sans', verdana, arial, sans-serif; font-size: 12px; fill: rgb(42, 63, 95); fill-opacity: 1; white-space: pre; opacity: 1;">1995</text></g><g class="xtick"><text text-anchor="middle" x="0" y="433" style="font-family: 'Open Sans', verdana, arial, sans-serif; font-size: 12px; fill: rgb(42, 63, 95); fill-opacity: 1; white-space: pre; opacity: 1;" transform="translate(183.82999999999998,0)">2000</text></g><g class="xtick"><text text-anchor="middle" x="0" y="433" style="font-family: 'Open Sans', verdana, arial, sans-serif; font-size: 12px; fill: rgb(42, 63, 95); fill-opacity: 1; white-space: pre; opacity: 1;" transform="translate(257.62,0)">2005</text></g><g class="xtick"><text text-anchor="middle" x="0" y="433" style="font-family: 'Open Sans', verdana, arial, sans-serif; font-size: 12px; fill: rgb(42, 63, 95); fill-opacity: 1; white-space: pre; opacity: 1;" transform="translate(331.36,0)">2010</text></g><g class="xtick"><text text-anchor="middle" x="0" y="433" style="font-family: 'Open Sans', verdana, arial, sans-serif; font-size: 12px; fill: rgb(42, 63, 95); fill-opacity: 1; white-space: pre; opacity: 1;" transform="translate(405.11,0)">2015</text></g><g class="xtick"><text text-anchor="middle" x="0" y="433" style="font-family: 'Open Sans', verdana, arial, sans-serif; font-size: 12px; fill: rgb(42, 63, 95); fill-opacity: 1; white-space: pre; opacity: 1;" transform="translate(478.86,0)">2020</text></g></g><g class="yaxislayer-above"><g class="ytick"><text text-anchor="end" x="79" y="4.199999999999999" transform="translate(0,396.17)" style="font-family: 'Open Sans', verdana, arial, sans-serif; font-size: 12px; fill: rgb(42, 63, 95); fill-opacity: 1; white-space: pre; opacity: 1;">−40</text></g><g class="ytick"><text text-anchor="end" x="79" y="4.199999999999999" style="font-family: 'Open Sans', verdana, arial, sans-serif; font-size: 12px; fill: rgb(42, 63, 95); fill-opacity: 1; white-space: pre; opacity: 1;" transform="translate(0,358.14)">−20</text></g><g class="ytick"><text text-anchor="end" x="79" y="4.199999999999999" style="font-family: 'Open Sans', verdana, arial, sans-serif; font-size: 12px; fill: rgb(42, 63, 95); fill-opacity: 1; white-space: pre; opacity: 1;" transform="translate(0,320.12)">0</text></g><g class="ytick"><text text-anchor="end" x="79" y="4.199999999999999" style="font-family: 'Open Sans', verdana, arial, sans-serif; font-size: 12px; fill: rgb(42, 63, 95); fill-opacity: 1; white-space: pre; opacity: 1;" transform="translate(0,282.09000000000003)">20</text></g><g class="ytick"><text text-anchor="end" x="79" y="4.199999999999999" style="font-family: 'Open Sans', verdana, arial, sans-serif; font-size: 12px; fill: rgb(42, 63, 95); fill-opacity: 1; white-space: pre; opacity: 1;" transform="translate(0,244.07)">40</text></g><g class="ytick"><text text-anchor="end" x="79" y="4.199999999999999" style="font-family: 'Open Sans', verdana, arial, sans-serif; font-size: 12px; fill: rgb(42, 63, 95); fill-opacity: 1; white-space: pre; opacity: 1;" transform="translate(0,206.04000000000002)">60</text></g><g class="ytick"><text text-anchor="end" x="79" y="4.199999999999999" style="font-family: 'Open Sans', verdana, arial, sans-serif; font-size: 12px; fill: rgb(42, 63, 95); fill-opacity: 1; white-space: pre; opacity: 1;" transform="translate(0,168.01999999999998)">80</text></g><g class="ytick"><text text-anchor="end" x="79" y="4.199999999999999" style="font-family: 'Open Sans', verdana, arial, sans-serif; font-size: 12px; fill: rgb(42, 63, 95); fill-opacity: 1; white-space: pre; opacity: 1;" transform="translate(0,129.99)">100</text></g></g><g class="overaxes-above"/></g></g><g class="polarlayer"/><g class="smithlayer"/><g class="ternarylayer"/><g class="geolayer"/><g class="funnelarealayer"/><g class="pielayer"/><g class="iciclelayer"/><g class="treemaplayer"/><g class="sunburstlayer"/><g class="glimages"/><defs id="topdefs-d2e127"><g class="clips"/><clipPath id="legendd2e127"><rect width="139" height="105" x="0" y="0"/></clipPath></defs><g class="layer-above"><g class="imagelayer"/><g class="shapelayer"/></g><g class="infolayer"><g class="legend" pointer-events="all" transform="translate(549.2,100)"><rect class="bg" shape-rendering="crispEdges" width="139" height="105" x="0" y="0" style="stroke: rgb(68, 68, 68); stroke-opacity: 1; fill: rgb(255, 255, 255); fill-opacity: 1; stroke-width: 0px;"/><g class="scrollbox" transform="" clip-path="url(#legendd2e127)"><g class="groups"><g class="traces" transform="translate(0,14.5)" style="opacity: 1;"><text class="legendtext" text-anchor="start" x="40" y="4.680000000000001" style="font-family: 'Open Sans', verdana, arial, sans-serif; font-size: 12px; fill: rgb(42, 63, 95); fill-opacity: 1; white-space: pre;">Jason.1</text><g class="layers" style="opacity: 1;"><g class="legendfill"/><g class="legendlines"><path class="js-line" d="M5,0h30" style="fill: none; stroke: rgb(99, 110, 250); stroke-opacity: 1; stroke-width: 2px;"/></g><g class="legendsymbols"><g class="legendpoints"/></g></g><rect class="legendtoggle" x="0" y="-9.5" width="133.84375" height="19" style="fill: rgb(0, 0, 0); fill-opacity: 0;"/></g><g class="traces" transform="translate(0,33.5)" style="opacity: 1;"><text class="legendtext" text-anchor="start" x="40" y="4.680000000000001" style="font-family: 'Open Sans', verdana, arial, sans-serif; font-size: 12px; fill: rgb(42, 63, 95); fill-opacity: 1; white-space: pre;">Jason.2</text><g class="layers" style="opacity: 1;"><g class="legendfill"/><g class="legendlines"><path class="js-line" d="M5,0h30" style="fill: none; stroke: rgb(239, 85, 59); stroke-opacity: 1; stroke-width: 2px;"/></g><g class="legendsymbols"><g class="legendpoints"/></g></g><rect class="legendtoggle" x="0" y="-9.5" width="133.84375" height="19" style="fill: rgb(0, 0, 0); fill-opacity: 0;"/></g><g class="traces" transform="translate(0,52.5)" style="opacity: 1;"><text class="legendtext" text-anchor="start" x="40" y="4.680000000000001" style="font-family: 'Open Sans', verdana, arial, sans-serif; font-size: 12px; fill: rgb(42, 63, 95); fill-opacity: 1; white-space: pre;">Jason.3</text><g class="layers" style="opacity: 1;"><g class="legendfill"/><g class="legendlines"><path class="js-line" d="M5,0h30" style="fill: none; stroke: rgb(0, 204, 150); stroke-opacity: 1; stroke-width: 2px;"/></g><g class="legendsymbols"><g class="legendpoints"/></g></g><rect class="legendtoggle" x="0" y="-9.5" width="133.84375" height="19" style="fill: rgb(0, 0, 0); fill-opacity: 0;"/></g><g class="traces" transform="translate(0,71.5)" style="opacity: 1;"><text class="legendtext" text-anchor="start" x="40" y="4.680000000000001" style="font-family: 'Open Sans', verdana, arial, sans-serif; font-size: 12px; fill: rgb(42, 63, 95); fill-opacity: 1; white-space: pre;">Sentinel-6MF</text><g class="layers" style="opacity: 1;"><g class="legendfill"/><g class="legendlines"><path class="js-line" d="M5,0h30" style="fill: none; stroke: rgb(171, 99, 250); stroke-opacity: 1; stroke-width: 2px;"/></g><g class="legendsymbols"><g class="legendpoints"/></g></g><rect class="legendtoggle" x="0" y="-9.5" width="133.84375" height="19" style="fill: rgb(0, 0, 0); fill-opacity: 0;"/></g><g class="traces" transform="translate(0,90.5)" style="opacity: 1;"><text class="legendtext" text-anchor="start" x="40" y="4.680000000000001" style="font-family: 'Open Sans', verdana, arial, sans-serif; font-size: 12px; fill: rgb(42, 63, 95); fill-opacity: 1; white-space: pre;">TOPEX.Poseidon</text><g class="layers" style="opacity: 1;"><g class="legendfill"/><g class="legendlines"><path class="js-line" d="M5,0h30" style="fill: none; stroke: rgb(255, 161, 90); stroke-opacity: 1; stroke-width: 2px;"/></g><g class="legendsymbols"><g class="legendpoints"/></g></g><rect class="legendtoggle" x="0" y="-9.5" width="133.84375" height="19" style="fill: rgb(0, 0, 0); fill-opacity: 0;"/></g></g></g><rect class="scrollbar" rx="20" ry="3" width="0" height="0" x="0" y="0" style="fill: rgb(128, 139, 164); fill-opacity: 1;"/></g><g class="g-gtitle"><text class="gtitle" x="35" y="50" text-anchor="start" dy="0em" style="font-family: 'Open Sans', verdana, arial, sans-serif; font-size: 17px; fill: rgb(42, 63, 95); opacity: 1; font-weight: normal; white-space: pre;">Mean Sea Levels Changing - Indian Ocean</text></g><g class="g-xtitle"><text class="xtitle" x="310" y="460.3" text-anchor="middle" style="font-family: 'Open Sans', verdana, arial, sans-serif; font-size: 14px; fill: rgb(42, 63, 95); opacity: 1; font-weight: normal; white-space: pre;">Date</text></g><g class="g-ytitle"><text class="ytitle" transform="rotate(-90,34.340625,260)" x="34.340625" y="260" text-anchor="middle" style="font-family: 'Open Sans', verdana, arial, sans-serif; font-size: 14px; fill: rgb(42, 63, 95); opacity: 1; font-weight: normal; white-space: pre;">Change in Sea Level [mm]</text></g></g></svg>