<svg class="main-svg" xmlns="http://www.w3.org/2000/svg" xmlns:xlink="http://www.w3.org/1999/xlink" width="700" height="500" style="" viewBox="0 0 700 500"><rect x="0" y="0" width="700" height="500" style="fill: rgb(255, 255, 255); fill-opacity: 1;"/><defs id="defs-5b274a"><g class="clips"><clipPath id="clip5b274axyplot" class="plotclip"><rect width="460" height="320"/></clipPath><clipPath class="axesclip" id="clip5b274ax"><rect x="80" y="0" width="460" height="500"/></clipPath><clipPath class="axesclip" id="clip5b274ay"><rect x="0" y="100" width="700" height="320"/></clipPath><clipPath class="axesclip" id="clip5b274axy"><rect x="80" y="100" width="460" height="320"/></clipPath></g><g class="gradients"/><g class="patterns"/></defs><g class="bglayer"><rect class="bg" x="80" y="100" width="460" height="320" style="fill: rgb(229, 236, 246); fill-opacity: 1; stroke-width: 0;"/></g><g class="layer-below"><g class="imagelayer"/><g class="shapelayer"/></g><g class="cartesianlayer"><g class="subplot xy"><g class="layer-subplot"><g class="shapelayer"/><g class="imagelayer"/></g><g class="minor-gridlayer"><g class="x"/><g class="y"/></g><g class="gridlayer"><g class="x"><path class="xgrid crisp" transform="translate(110.09,0)" d="M0,100v320" style="stroke: rgb(255, 255, 255); stroke-opacity: 1; stroke-width: 1px;"/><path class="xgrid crisp" transform="translate(183.82999999999998,0)" d="M0,100v320" style="stroke: rgb(255, 255, 255); stroke-opacity: 1; stroke-width: 1px;"/><path class="xgrid crisp" transform="translate(257.62,0)" d="M0,100v320" style="stroke: rgb(255, 255, 255); stroke-opacity: 1; stroke-width: 1px;"/><path class="xgrid crisp" transform="translate(331.36,0)" d="M0,100v320" style="stroke: rgb(255, 255, 255); stroke-opacity: 1; stroke-width: 1px;"/><path class="xgrid crisp" transform="translate(405.11,0)" d="M0,100v320" style="stroke: rgb(255, 255, 255); stroke-opacity: 1; stroke-width: 1px;"/><path class="xgrid crisp" transform="translate(478.86,0)" d="M0,100v320" style="stroke: rgb(255, 255, 255); stroke-opacity: 1; stroke-width: 1px;"/></g><g class="y"><path class="ygrid crisp" transform="translate(0,360.91)" d="M80,0h460" style="stroke: rgb(255, 255, 255); stroke-opacity: 1; stroke-width: 1px;"/><path class="ygrid crisp" transform="translate(0,242.96)" d="M80,0h460" style="stroke: rgb(255, 255, 255); stroke-opacity: 1; stroke-width: 1px;"/><path class="ygrid crisp" transform="translate(0,183.98000000000002)" d="M80,0h460" style="stroke: rgb(255, 255, 255); stroke-opacity: 1; stroke-width: 1px;"/><path class="ygrid crisp" transform="translate(0,125)" d="M80,0h460" style="stroke: rgb(255, 255, 255); stroke-opacity: 1; stroke-width: 1px;"/></g></g><g class="zerolinelayer"><path class="yzl zl crisp" transform="translate(0,301.93)" d="M80,0h460" style="stroke: rgb(255, 255, 255); stroke-opacity: 1; stroke-width: 2px;"/></g><g class="layer-between"><g class="shapelayer"/><g class="imagelayer"/></g><path class="xlines-below"/><path class="ylines-below"/><g class="overlines-below"/><g class="xaxislayer-below"/><g class="yaxislayer-below"/><g class="overaxes-below"/><g class="plot" transform="translate(80,100)" clip-path="url(#clip5b274axyplot)"><g class="scatterlayer mlayer"><g class="trace scatter trace440756" style="stroke-miterlimit: 2; opacity: 1;"><g class="fills"/><g class="errorbars"/><g class="lines"><path class="js-line" d="M134.12,200.19L134.57,197.71L134.93,204.67L135.33,197L135.74,213.75L136.55,246.43L136.95,241.12L137.35,220.83L137.76,232.63L138.12,217.64L138.53,220.48L138.93,210.92L139.74,187.21L140.14,198.42L140.54,206.79L140.95,198.54L143.73,101.34L144.14,104.17L144.54,100.04L144.95,73.62L146.52,150.06L146.93,137.91L147.33,146.05L147.73,172.35L148.94,156.43L149.35,180.72L149.75,166.45L150.16,168.69L150.56,184.26L151.37,174.24L151.73,187.33L152.22,175.06L152.54,203.49L152.94,151.24L153.35,166.1L153.75,158.2L154.15,147.93L154.56,167.99L154.96,167.63L155.37,155.13L156.13,141.33L156.54,144.87L158.96,88.84L159.36,90.25L159.77,94.15L160.17,88.13L160.58,96.39L161.5,162.44L161.75,155.01L162.15,133.9L163.77,200.31L164.17,209.62L164.49,218.23L165.02,203.49L165.34,232.39L165.75,220.48L166.15,210.8L166.55,246.78L166.96,242.06L167.36,242.42L167.76,240.29L168.17,226.26L168.57,250.08L168.98,221.66L169.78,195.94L170.19,196.29L170.59,196.88L171,200.54L171.4,188.39L172.17,158.55L172.57,184.5L172.97,157.61L173.38,172.11L173.78,158.43L174.19,137.67L174.59,140.03L174.99,139.56L175.4,138.02L175.8,156.07L177.01,196.53L177.42,192.87L178.59,227.44L178.99,232.39L179.4,235.57L179.8,247.13L180.61,264.71L181.01,243.01L181.78,212.1L182.18,216.94L182.59,210.1L183.39,234.87L183.8,190.99L184.2,190.75L184.61,180.84L185.01,186.98L185.41,171.17L185.82,173.06L186.22,180.49L187.03,170.93L187.39,176.01L188.68,124.93L189.01,153.48L189.82,148.4L190.22,154.3L190.62,184.97L191.03,177.3L191.39,185.33L192.6,227.67L193.01,208.09L193.81,242.18L194.22,234.98L194.62,237.23L195.03,239.82L195.39,232.27L196.2,239.58L196.6,251.14L197,249.61L197.41,232.98L197.81,215.29L198.22,217.06L198.62,225.78L199.79,175.3L200.19,199.6L201,168.58L201.41,191.1L201.81,191.93L202.21,177.78L203.83,111.25L204.23,126.47L204.48,148.88L205.45,163.62L205.81,157.72L206.21,172L207.83,221.42L208.23,218.94L209,245.36L209.4,220.36L209.81,214.11L210.21,215.52L210.61,220.59L211.42,234.98L211.83,211.16L212.23,211.04L212.63,210.1L214.61,150.17L215.02,150.76L215.42,166.1L215.82,151.71L216.63,175.06L217.04,166.81L218.21,102.64L218.61,115.38L219.82,142.27L220.23,142.27L222.21,207.03L222.61,196.77L223.01,201.48L223.42,215.64L223.82,233.45L224.22,227.08L224.63,225.67L225.44,247.72L225.84,229.91L226.65,212.22L226.93,227.55L227.86,192.64L228.22,204.79L229.03,155.95L229.43,160.08L229.84,153.95L230.57,173.06L231.25,120.21L231.45,158.79L231.86,133.66L232.26,130.24L232.67,130.36L233.07,144.98L233.47,143.57L233.88,122.69L234.24,119.27L234.68,128.71L235.05,125.64L235.45,172.59L236.26,191.58L236.66,225.67L237.07,243.01L237.47,235.1L238.48,241.47L238.88,239.82L239.29,225.55L240.06,254.33L240.46,253.03L240.86,239.11L241.27,242.18L241.67,253.27L243.69,215.64L244.05,200.66L244.46,176.83L244.86,189.93L245.27,200.19L245.67,197.59L246.07,168.46L246.48,171.41L246.84,162.21L247.45,188.27L247.69,166.33L248.86,142.04L249.26,164.09L250.07,146.4L250.48,149.35L250.88,161.85L251.28,172.94L251.69,207.38L252.9,235.34L253.26,219.3L254.07,209.62L254.47,185.8L254.88,191.1L255.28,175.89L255.69,201.25L256.09,188.75L256.49,186.03L256.9,201.01L257.3,200.19L257.66,184.85L258.07,128.71L258.47,161.5L258.88,165.98L260.49,117.03L260.9,131.77L262.11,121.16L262.47,141.45L262.87,110.42L263.28,139.56L263.68,182.02L264.09,151.59L264.49,167.87L265.7,203.37L266.11,208.68L266.47,197.71L266.87,204.2L267.28,223.19L267.68,237.34L268.08,209.86L268.49,213.87L268.89,206.91L270.06,287.24L270.47,210.57L271.27,215.17L271.68,208.56L272.08,218.12L272.49,191.22L273.29,146.99L273.7,193.94L274.51,160.91L274.87,161.62L275.27,148.29L275.68,146.52L276.08,157.37L277.29,140.5L277.7,135.31L278.5,156.78L278.91,150.76L279.68,173.18L280.08,161.38L281.29,202.9L281.69,197.47L283.31,229.91L286.22,205.26L286.66,188.51L287.11,192.76L287.55,186.03L288.6,144.98L289.04,147.82L289.45,134.96L289.77,149.82L290.05,123.63L290.5,127.29L290.94,120.1L291.39,103.94L291.71,124.34L292.88,100.4L293.16,122.69L293.49,109.83L293.93,128.12L294.38,121.39L294.82,156.66L295.43,161.5L295.83,155.13L296.27,157.84L296.72,169.4L297.04,157.84L297.32,186.74L297.97,217.88L298.78,202.55L298.94,207.62L299.26,176.36L300.11,192.76L300.43,168.1L302.05,218.59L302.33,201.72L302.49,187.09" style="vector-effect: none; fill: none; stroke: rgb(99, 110, 250); stroke-opacity: 1; stroke-width: 2px; opacity: 1;"/></g><g class="points"/><g class="text"/></g><g class="trace scatter trace556532" style="stroke-miterlimit: 2; opacity: 1;"><g class="fills"/><g class="errorbars"/><g class="lines"><path class="js-line" d="M229.47,157.57L229.84,159.1L230.24,164.77L230.65,183.17L231.05,146.95L231.45,152.85L231.86,140.23L232.26,123.72L232.67,125.49L233.07,134.69L233.47,137.52L233.88,118.41L234.28,121.12L234.68,138.93L235.05,142L235.49,193.78L235.86,192.25L236.26,198.03L237.11,244.03L237.47,233.77L237.88,233.65L238.28,248.04L239.09,234.6L239.49,245.09L240.26,269.27L240.66,242.38L241.07,232.59L241.47,239.67L241.87,235.07L242.68,247.33L243.09,227.87L243.49,223.15L243.89,202.75L244.66,187.06L245.06,200.86L245.47,195.55L245.87,173.85L246.28,162.05L246.68,172.79L247.08,152.85L247.49,167.83L247.89,172.9L249.06,149.9L249.47,152.73L249.87,151.91L250.27,152.26L250.68,155.45L251.08,157.57L251.49,187.18L252.29,217.96L252.7,212.77L253.06,216.31L253.46,211.12L253.87,211.48L254.27,205.46L254.68,186.47L255.08,188.36L255.48,189.54L255.89,198.15L256.29,193.9L256.7,187.41L257.1,183.28L257.5,188.71L257.87,136.1L258.27,146.6L258.67,153.8L259.08,130.44L259.48,145.54L259.89,152.62L261.5,103.31L261.91,97.65L263.88,190.48L264.29,163.11L265.9,218.32L266.31,198.03L266.67,189.89L267.07,205.11L267.48,219.38L267.88,216.19L268.29,219.97L268.69,211.36L269.09,232.94L269.5,247.69L269.9,222.68L271.11,198.5L271.48,198.38L271.88,210.89L272.28,204.04L272.69,181.04L273.09,155.21L273.5,181.52L275.47,137.75L275.88,165.36L276.69,138.46L277.09,138.93L277.49,132.21L277.9,126.31L278.3,153.8L278.71,142.94L279.11,154.74L281.9,215.37L282.3,210.53L282.7,212.54L283.51,234.12L283.92,229.29L284.32,223.04L284.72,202.51L285.89,221.86L286.3,187.18L287.11,167.01L287.51,167.71L288.32,138.58L288.72,141.41L289.13,141.88L291.14,102.84L291.55,102.37L291.91,112.39L292.36,83.49L293.53,118.41L293.93,120.89L294.74,155.92L295.14,166.42L295.55,164.06L295.95,156.15L296.72,185.76L297.12,180.81L297.53,219.73L297.93,217.61L298.33,200.62L298.74,200.51L299.06,157.57L299.95,181.04L300.35,178.33L300.76,165.12L301.93,214.42L302.33,191.31L303.95,141.53L304.35,133.27L304.76,141.29L305.16,128.44L305.48,120.65L306.05,129.26L306.73,144.48L307.14,131.74L307.54,131.27L307.95,120.41L308.35,122.89L308.75,138.46L309.16,138.58L309.56,133.74L311.54,181.16L311.94,184.94L312.35,177.03L312.75,191.19L313.16,219.26L313.56,201.92L313.96,184.7L314.37,188.24L314.77,152.85L315.54,138.58L315.94,160.17L317.15,142.35L317.56,121.59L317.96,108.15L318.37,120.89L319.17,110.51L319.54,111.57L319.94,90.81L321.15,104.84L321.56,88.57L321.96,98L322.36,73.23L323.17,76.53L323.58,93.64L323.94,96.59L324.34,125.01L324.79,154.15L325.15,136.93L325.55,132.09L326.77,157.22L327.17,149.67L329.15,186.59L329.55,184.82L330.36,128.08L330.76,162.17L331.57,154.03L331.98,116.88L332.38,98.24L332.74,110.03L333.15,110.62L333.55,116.17L333.95,97.18L334.36,96.47L334.76,97.29L336.38,18.62L336.78,26.29L337.19,38.2L337.55,75.47L337.95,75.59L338.36,67.22L339.57,99.65L339.97,86.68L340.78,130.91L341.18,117.58L341.59,132.45L342.76,166.3L343.16,164.77L343.57,166.89L343.97,156.04L344.78,118.06L345.18,123.25L345.59,128.79L345.99,166.18L346.39,153.32L346.8,114.63L347.6,102.96L348.01,86.44L348.37,83.14L348.78,96L349.58,75.47L349.99,101.78L350.39,98.36L350.8,78.89L351.52,93.52L351.81,76.3L352.21,65.68L352.61,95.53L353.42,133.74L353.78,130.91L354.19,127.14L355.8,185.76L356.21,176.8L356.61,183.17L357.01,161.82L357.42,181.63L357.62,263.26L358.59,159.46L358.99,164.88L359.4,166.53L359.8,168.07L360.08,180.22" style="vector-effect: none; fill: none; stroke: rgb(239, 85, 59); stroke-opacity: 1; stroke-width: 2px; opacity: 1;"/></g><g class="points"/><g class="text"/></g><g class="trace scatter tracede9d3c" style="stroke-miterlimit: 2; opacity: 1;"><g class="fills"/><g class="errorbars"/><g class="lines"><path class="js-line" d="M341.67,135.13L342.72,167.1L343.16,160.5L343.57,166.51L343.97,159.43L344.78,109.18L345.18,114.61L345.59,124.05L345.99,158.61L346.39,139.5L346.8,109.77L348.37,80.29L348.78,99.16L349.18,77.69L349.58,80.88L349.99,91.96L350.39,91.85L350.8,73.33L351.6,85.48L352.01,71.67L353.58,131.48L353.99,113.9L355.6,195.65L356.01,185.5L356.41,196.47L356.81,165.57L357.22,170.29L357.62,189.04L358.02,194.23L358.39,191.87L358.79,161.67L359.2,160.61L359.6,186.56L360.41,161.32L360.81,167.45L361.22,158.73L361.62,157.31L362.02,134.9L362.43,129.83L362.83,140.56L363.6,107.89L364,118.39L365.21,89.84L365.62,113.67L366.02,118.03L366.42,101.75L366.83,129.12L367.19,115.91L367.6,118.03L368,127.11L368.4,115.2L370.02,167.1L370.42,164.62L370.83,160.61L371.23,180.31L371.59,217.35L372,202.25L372.4,188.8L373.21,167.57L373.61,176.42L374.02,181.73L374.42,166.98L374.83,173.23L375.23,153.42L376.04,171.94L376.4,154.48L377.61,106L378.02,111.19L378.42,114.49L378.82,110.36L380.04,62.83L380.4,88.31L380.8,95.15L381.21,84.06L382.01,64.36L382.42,80.64L382.82,84.18L383.23,120.74L384.44,144.93L384.8,133.6L386.25,176.42L386.86,149.29L387.22,150.71L387.63,149.76L387.95,144.1L388.44,152.24L388.84,141.03L390.41,107.18L390.82,109.66L391.63,80.4L392.03,83.23L392.43,76.16L392.84,71.2L393.24,81.94L393.6,68.49L394.01,78.28L394.41,80.99L395.62,34.87L396.03,55.99L396.84,31.69L397.24,44.55L398.81,121.57L399.22,101.52L400.51,159.08L400.83,142.8L401.24,143.39L401.64,136.31L402.45,168.52L402.85,150.35L403.26,148.82L403.66,134.43L404.02,128.88L404.43,133.37L404.83,105.17L406.04,77.57L406.45,83.12L406.85,86.18L407.26,73.68L407.66,69.79L408.06,78.52L408.47,83.47L408.87,73.8L409.27,85L409.68,64.36L410.08,58.7L410.45,73.92L410.85,74.74L411.29,79.7L411.66,87.36L412.06,83.71L412.47,119.68L412.87,119.56L413.27,112.02L414.48,146.46L414.89,134.66L415.66,153.42L416.06,168.75L416.87,175.36L417.27,154.6L417.68,166.87L418.08,126.17L418.89,165.33L419.29,160.14L419.69,164.15L420.46,117.8L420.87,142.21L422.48,93.85L422.88,110.25L423.29,109.54L423.69,105.53L424.86,51.86L425.27,53.75L425.67,71.44L426.48,45.72L426.88,70.14L428.09,100.69L428.5,94.44L429.27,119.09L429.67,105.88L430.07,116.03L430.48,101.64L431.29,145.4L431.69,133.72L433.06,167.93L433.39,157.31L434.15,111.31L434.56,116.03L435.77,89.96L436.17,97.74L437.38,67.19L437.79,81.58L438.96,43.72L439.36,53.16L440.17,40.77L440.57,47.73L440.98,51.74L441.38,47.85L442.15,84.53L442.55,70.73L442.96,83.12L443.76,114.96L444.17,104.7L444.57,96.8L445.38,160.61L445.78,120.74L446.19,103.4L446.59,107.53L446.96,105.06L447.76,117.68L448.17,106.35L448.57,99.98L448.97,109.07L450.59,49.03L450.99,51.15L451.36,70.97L452.57,60.47L452.97,62L453.38,45.61L453.78,46.79L454.18,26.38L454.59,16L454.99,24.73L456.16,78.16L457.78,110.25L458.18,99.16L458.99,145.04L459.39,131.71L459.8,132.3L460,93.14" style="vector-effect: none; fill: none; stroke: rgb(0, 204, 150); stroke-opacity: 1; stroke-width: 2px; opacity: 1;"/></g><g class="points"/><g class="text"/></g><g class="trace scatter traceb56d8b" style="stroke-miterlimit: 2; opacity: 1;"><g class="fills"/><g class="errorbars"/><g class="lines"><path class="js-line" d="M413.27,108.3L414.48,148.52L414.89,136.14L415.29,135.67L415.66,154.89L416.46,175.65L416.91,173.29L417.27,153.01L417.68,167.99L418.08,129.89L418.89,165.51L419.29,157.25L419.69,142.39L420.46,115.97L420.87,140.03L422.48,91.55L422.88,110.42L423.29,112.78L423.69,107.12L424.86,51.56L425.27,59.94L425.67,68.55L426.08,63.01L426.48,43.66L427.69,82.7L428.09,102.52L428.5,91.43L428.86,118.56L429.27,120.92L429.67,101.69L430.07,115.73L430.48,98.27L432.09,151.24L432.5,136.02L433.26,156.43L433.67,117.03L434.88,96.03L435.28,94.62L435.69,94.15L436.09,91.9L436.9,44.49L437.3,64.77L438.07,92.61L438.47,73.27L439.69,35.4L440.09,51.09L440.9,61.59L441.3,47.44L441.71,52.27L442.11,81.64L442.47,70.32L442.88,81.29L443.28,97.8L443.68,96.27L444.09,91.9L444.49,93.91L444.9,117.26L445.3,154.3L445.7,130L446.11,113.02L446.47,121.75L446.87,93.67L447.68,115.5L448.09,108.54L448.49,103.94L448.89,114.08L450.91,48.85L451.28,69.14L452.08,55.22L452.49,74.68L454.1,27.03L454.51,34.7L454.87,38.59L455.32,27.26L455.68,32.34L456.08,67.49L456.89,77.04" style="vector-effect: none; fill: none; stroke: rgb(171, 99, 250); stroke-opacity: 1; stroke-width: 2px; opacity: 1;"/></g><g class="points"/><g class="text"/></g><g class="trace scatter tracedbff82" style="stroke-miterlimit: 2; opacity: 1;"><g class="fills"/><g class="errorbars"/><g class="lines"><path class="js-line" d="M0,210.7L0.4,201.97L0.77,221.9L2.83,245.73L3.19,271.68L3.59,261.18L4,277.93L4.81,249.5L5.21,254.46L5.61,254.93L6.02,253.75L6.38,242.9L6.78,246.56L7.19,220.13L7.59,245.97L8,234.76L8.4,225.44L9.61,190.41L10.02,197.25L10.38,193.12L11.99,154.67L12.4,158.8L13.21,147.47L13.61,167.17L15.19,202.09L15.59,206.69L16.4,242.19L16.8,235.47L17.2,234.17L18.01,251.98L18.82,247.62L21.2,193.12L21.61,217.18L22.01,232.99L22.82,175.55L23.22,195.01L23.63,190.17L24.03,170.71L24.39,177.67L24.8,176.61L25.2,152.55L25.6,148.18L26.01,151.48L26.41,128.95L27.22,154.67L27.58,146.88L28.39,140.75L28.8,151.25L30.81,217.07L31.22,222.85L31.62,235.7L32.03,214L32.39,204.33L33.2,266.02L34.01,220.96L34.41,234.76L34.81,246.91L35.62,215.06L36.02,213.53L36.43,215.65L37.2,206.69L38,185.57L38.41,201.61L38.81,199.85L39.22,178.14L40.02,188.52L40.43,183.8L40.83,163.63L41.19,168.23L41.6,178.38L42.41,184.87L42.81,183.92L43.21,182.86L44.02,188.17L44.42,221.67L44.83,247.15L45.19,230.16L45.6,226.74L46.4,261.06L47.21,261.77L47.62,255.52L47.98,265.31L49.23,291.14L49.63,272.74L50.85,245.85L51.21,249.39L52.06,249.15L52.46,235.7L53.23,195.95L53.63,215.89L54.84,176.37L55.25,197.84L56.06,160.33L56.86,161.39L57.27,146.41L57.67,150.07L58.08,185.45L59.65,235.7L60.05,229.92L60.46,213.06L60.86,229.22L61.67,255.28L62.07,253.75L62.48,236.88L63.24,291.14L63.65,259.41L64.05,254.58L64.46,235.7L64.86,238.18L65.26,220.49L65.67,233.93L66.48,204.45L66.88,193.12L67.28,197.37L67.65,207.98L68.05,209.4L68.86,174.48L69.26,145.35L69.67,153.61L70.07,140.99L70.47,147L71.28,141.93L71.69,128.13L72.05,150.3L73.26,209.87L73.66,209.64L74.07,205.63L74.47,203.74L74.88,212.47L75.68,233.82L76.09,218.25L76.45,215.53L76.86,201.26L77.26,212.47L77.66,264.25L78.07,261.42L78.47,238.77L78.87,262.01L79.28,249.62L79.68,223.2L80.49,216.36L80.89,223.55L82.47,169.88L83.28,202.44L84.89,165.05L85.26,175.9L86.47,139.45L86.87,165.99L88.08,230.87L88.49,193.36L88.89,188.05L89.29,191.71L89.66,224.5L90.47,223.79L90.91,220.96L92.48,281.47L92.89,265.9L93.25,235.35L94.1,235.7L94.5,241.01L94.87,231.69L95.68,218.6L96.08,222.14L96.48,223.79L96.89,197.13L97.29,197.49L97.69,185.57L98.1,184.16L98.46,185.69L100.08,135.21L100.48,164.22L100.88,174.25L101.29,173.31L101.69,158.09L103.27,243.61L103.67,242.55L104.48,229.22L104.88,255.28L106.9,304L107.31,297.75L108.92,269.09L109.29,249.5L109.69,249.5L110.09,234.41L112.52,201.97L112.92,206.21L114.13,169.29L114.5,174.72L114.9,176.49L115.3,174.25L115.71,150.78L116.51,166.58L118.53,206.45L118.94,200.32L119.75,194.77L120.15,218.36L120.51,223.44L120.92,251.51L121.32,251.27L121.72,247.85L122.53,260.47L122.94,226.98L123.34,243.02L123.74,220.84L124.15,212.35L124.55,216.71L124.96,211.4L126.13,164.46L126.53,185.45L126.93,179.56L127.34,189.23L128.55,131.9L128.91,149.01L130.12,114.68L130.53,125.65L130.93,118.93L131.34,146.65L132.71,192.53L132.95,158.91L134.12,205.51L134.53,197.49L134.93,210.23L135.33,201.38L135.74,204.68L136.55,246.79L136.95,241.13L137.35,224.03L137.76,229.1L138.12,222.37L138.53,233.58L138.93,213.88L139.74,188.05L140.14,194.42L140.54,206.33L142.12,157.62L142.56,172.24L143.78,97.46L144.14,106.31L144.54,98.4L144.95,70.68L145.35,81.06L145.75,121.99L146.56,147.71L146.93,143.93L147.33,142.52L147.73,176.37L148.58,168.23L148.94,161.63L150.16,181.33L150.56,175.66L151.37,185.57L151.73,183.33L152.14,172.13L152.54,205.39L152.94,146.18L153.75,173.78L154.15,171.89L154.56,158.44L155.37,142.28L156.13,145.35L156.94,128.95L157.35,147.94L157.75,146.06L158.15,126.12L158.96,88.85L159.32,100.17L159.77,111.73L160.17,87.32L160.58,89.56L160.94,128.6L161.5,136.27L161.63,161.63L162.15,161.16L162.55,172.13L163.77,210.7L164.13,217.42L164.57,195.6L164.98,216.71L165.38,234.52L165.75,222.02L166.15,214.71L166.96,258.59L167.4,239.6L167.81,236.18L168.17,217.3L168.57,244.08L169.78,195.6L171.36,185.81L171.8,181.92L172.21,172.72L172.61,186.87L173.82,140.63L174.19,125.3L175.03,153.02L175.4,146.41L175.8,149.24L176.17,174.25L176.61,202.2L176.93,180.85L177.42,193.95L178.59,231.69L178.99,237.71L180.61,261.77L181.01,243.25L181.42,239.48L181.82,218.01L182.18,214.59L182.63,220.37L183.43,238.65L183.8,203.74L184.61,194.66L185.01,196.66L185.41,171.18L186.18,194.77L186.63,182.15L187.03,179.79L187.39,180.26L187.8,165.64L188.6,132.37" style="vector-effect: none; fill: none; stroke: rgb(255, 161, 90); stroke-opacity: 1; stroke-width: 2px; opacity: 1;"/></g><g class="points"/><g class="text"/></g></g></g><g class="overplot"/><path class="xlines-above crisp" d="M0,0" style="fill: none;"/><path class="ylines-above crisp" d="M0,0" style="fill: none;"/><g class="overlines-above"/><g class="xaxislayer-above"><g class="xtick"><text text-anchor="middle" x="0" y="433" transform="translate(110.09,0)" style="font-family: 'Open Sans', verdana, arial, sans-serif; font-size: 12px; fill: rgb(42, 63, 95); fill-opacity: 1; white-space: pre; opacity: 1;">1995</text></g><g class="xtick"><text text-anchor="middle" x="0" y="433" style="font-family: 'Open Sans', verdana, arial, sans-serif; font-size: 12px; fill: rgb(42, 63, 95); fill-opacity: 1; white-space: pre; opacity: 1;" transform="translate(183.82999999999998,0)">2000</text></g><g class="xtick"><text text-anchor="middle" x="0" y="433" style="font-family: 'Open Sans', verdana, arial, sans-serif; font-size: 12px; fill: rgb(42, 63, 95); fill-opacity: 1; white-space: pre; opacity: 1;" transform="translate(257.62,0)">2005</text></g><g class="xtick"><text text-anchor="middle" x="0" y="433" style="font-family: 'Open Sans', verdana, arial, sans-serif; font-size: 12px; fill: rgb(42, 63, 95); fill-opacity: 1; white-space: pre; opacity: 1;" transform="translate(331.36,0)">2010</text></g><g class="xtick"><text text-anchor="middle" x="0" y="433" style="font-family: 'Open Sans', verdana, arial, sans-serif; font-size: 12px; fill: rgb(42, 63, 95); fill-opacity: 1; white-space: pre; opacity: 1;" transform="translate(405.11,0)">2015</text></g><g class="xtick"><text text-anchor="middle" x="0" y="433" style="font-family: 'Open Sans', verdana, arial, sans-serif; font-size: 12px; fill: rgb(42, 63, 95); fill-opacity: 1; white-space: pre; opacity: 1;" transform="translate(478.86,0)">2020</text></g></g><g class="yaxislayer-above"><g class="ytick"><text text-anchor="end" x="79" y="4.199999999999999" transform="translate(0,419.89)" style="font-family: 'Open Sans', verdana, arial, sans-serif; font-size: 12px; fill: rgb(42, 63, 95); fill-opacity: 1; white-space: pre; opacity: 1;">−100</text></g><g class="ytick"><text text-anchor="end" x="79" y="4.199999999999999" style="font-family: 'Open Sans', verdana, arial, sans-serif; font-size: 12px; fill: rgb(42, 63, 95); fill-opacity: 1; white-space: pre; opacity: 1;" transform="translate(0,360.91)">−50</text></g><g class="ytick"><text text-anchor="end" x="79" y="4.199999999999999" style="font-family: 'Open Sans', verdana, arial, sans-serif; font-size: 12px; fill: rgb(42, 63, 95); fill-opacity: 1; white-space: pre; opacity: 1;" transform="translate(0,301.93)">0</text></g><g class="ytick"><text text-anchor="end" x="79" y="4.199999999999999" style="font-family: 'Open Sans', verdana, arial, sans-serif; font-size: 12px; fill: rgb(42, 63, 95); fill-opacity: 1; white-space: pre; opacity: 1;" transform="translate(0,242.96)">50</text></g><g class="ytick"><text text-anchor="end" x="79" y="4.199999999999999" style="font-family: 'Open Sans', verdana, arial, sans-serif; font-size: 12px; fill: rgb(42, 63, 95); fill-opacity: 1; white-space: pre; opacity: 1;" transform="translate(0,183.98000000000002)">100</text></g><g class="ytick"><text text-anchor="end" x="79" y="4.199999999999999" style="font-family: 'Open Sans', verdana, arial, sans-serif; font-size: 12px; fill: rgb(42, 63, 95); fill-opacity: 1; white-space: pre; opacity: 1;" transform="translate(0,125)">150</text></g></g><g class="overaxes-above"/></g></g><g class="polarlayer"/><g class="smithlayer"/><g class="ternarylayer"/><g class="geolayer"/><g class="funnelarealayer"/><g class="pielayer"/><g class="iciclelayer"/><g class="treemaplayer"/><g class="sunburstlayer"/><g class="glimages"/><defs id="topdefs-5b274a"><g class="clips"/><clipPath id="legend5b274a"><rect width="139" height="105" x="0" y="0"/></clipPath></defs><g class="layer-above"><g class="imagelayer"/><g class="shapelayer"/></g><g class="infolayer"><g class="legend" pointer-events="all" transform="translate(549.2,100)"><rect class="bg" shape-rendering="crispEdges" width="139" height="105" x="0" y="0" style="stroke: rgb(68, 68, 68); stroke-opacity: 1; fill: rgb(255, 255, 255); fill-opacity: 1; stroke-width: 0px;"/><g class="scrollbox" transform="" clip-path="url(#legend5b274a)"><g class="groups"><g class="traces" transform="translate(0,14.5)" style="opacity: 1;"><text class="legendtext" text-anchor="start" x="40" y="4.680000000000001" style="font-family: 'Open Sans', verdana, arial, sans-serif; font-size: 12px; fill: rgb(42, 63, 95); fill-opacity: 1; white-space: pre;">Jason.1</text><g class="layers" style="opacity: 1;"><g class="legendfill"/><g class="legendlines"><path class="js-line" d="M5,0h30" style="fill: none; stroke: rgb(99, 110, 250); stroke-opacity: 1; stroke-width: 2px;"/></g><g class="legendsymbols"><g class="legendpoints"/></g></g><rect class="legendtoggle" x="0" y="-9.5" width="133.84375" height="19" style="fill: rgb(0, 0, 0); fill-opacity: 0;"/></g><g class="traces" transform="translate(0,33.5)" style="opacity: 1;"><text class="legendtext" text-anchor="start" x="40" y="4.680000000000001" style="font-family: 'Open Sans', verdana, arial, sans-serif; font-size: 12px; fill: rgb(42, 63, 95); fill-opacity: 1; white-space: pre;">Jason.2</text><g class="layers" style="opacity: 1;"><g class="legendfill"/><g class="legendlines"><path class="js-line" d="M5,0h30" style="fill: none; stroke: rgb(239, 85, 59); stroke-opacity: 1; stroke-width: 2px;"/></g><g class="legendsymbols"><g class="legendpoints"/></g></g><rect class="legendtoggle" x="0" y="-9.5" width="133.84375" height="19" style="fill: rgb(0, 0, 0); fill-opacity: 0;"/></g><g class="traces" transform="translate(0,52.5)" style="opacity: 1;"><text class="legendtext" text-anchor="start" x="40" y="4.680000000000001" style="font-family: 'Open Sans', verdana, arial, sans-serif; font-size: 12px; fill: rgb(42, 63, 95); fill-opacity: 1; white-space: pre;">Jason.3</text><g class="layers" style="opacity: 1;"><g class="legendfill"/><g class="legendlines"><path class="js-line" d="M5,0h30" style="fill: none; stroke: rgb(0, 204, 150); stroke-opacity: 1; stroke-width: 2px;"/></g><g class="legendsymbols"><g class="legendpoints"/></g></g><rect class="legendtoggle" x="0" y="-9.5" width="133.84375" height="19" style="fill: rgb(0, 0, 0); fill-opacity: 0;"/></g><g class="traces" transform="translate(0,71.5)" style="opacity: 1;"><text class="legendtext" text-anchor="start" x="40" y="4.680000000000001" style="font-family: 'Open Sans', verdana, arial, sans-serif; font-size: 12px; fill: rgb(42, 63, 95); fill-opacity: 1; white-space: pre;">Sentinel-6MF</text><g class="layers" style="opacity: 1;"><g class="legendfill"/><g class="legendlines"><path class="js-line" d="M5,0h30" style="fill: none; stroke: rgb(171, 99, 250); stroke-opacity: 1; stroke-width: 2px;"/></g><g class="legendsymbols"><g class="legendpoints"/></g></g><rect class="legendtoggle" x="0" y="-9.5" width="133.84375" height="19" style="fill: rgb(0, 0, 0); fill-opacity: 0;"/></g><g class="traces" transform="translate(0,90.5)" style="opacity: 1;"><text class="legendtext" text-anchor="start" x="40" y="4.680000000000001" style="font-family: 'Open Sans', verdana, arial, sans-serif; font-size: 12px; fill: rgb(42, 63, 95); fill-opacity: 1; white-space: pre;">TOPEX.Poseidon</text><g class="layers" style="opacity: 1;"><g class="legendfill"/><g class="legendlines"><path class="js-line" d="M5,0h30" style="fill: none; stroke: rgb(255, 161, 90); stroke-opacity: 1; stroke-width: 2px;"/></g><g class="legendsymbols"><g class="legendpoints"/></g></g><rect class="legendtoggle" x="0" y="-9.5" width="133.84375" height="19" style="fill: rgb(0, 0, 0); fill-opacity: 0;"/></g></g></g><rect class="scrollbar" rx="20" ry="3" width="0" height="0" x="0" y="0" style="fill: rgb(128, 139, 164); fill-opacity: 1;"/></g><g class="g-gtitle"><text class="gtitle" x="35" y="50" text-anchor="start" dy="0em" style="font-family: 'Open Sans', verdana, arial, sans-serif; font-size: 17px; fill: rgb(42, 63, 95); opacity: 1; font-weight: normal; white-space: pre;">Mean Sea Levels Changing - Caribbean Sea</text></g><g class="g-xtitle"><text class="xtitle" x="310" y="460.3" text-anchor="middle" style="font-family: 'Open Sans', verdana, arial, sans-serif; font-size: 14px; fill: rgb(42, 63, 95); opacity: 1; font-weight: normal; white-space: pre;">Date</text></g><g class="g-ytitle"><text class="ytitle" transform="rotate(-90,27.668750000000003,260)" x="27.668750000000003" y="260" text-anchor="middle" style="font-family: 'Open Sans', verdana, arial, sans-serif; font-size: 14px; fill: rgb(42, 63, 95); opacity: 1; font-weight: normal; white-space: pre;">Change in Sea Level [mm]</text></g></g></svg>