<svg class="main-svg" xmlns="http://www.w3.org/2000/svg" xmlns:xlink="http://www.w3.org/1999/xlink" width="700" height="500" style="" viewBox="0 0 700 500"><rect x="0" y="0" width="700" height="500" style="fill: rgb(255, 255, 255); fill-opacity: 1;"/><defs id="defs-87708e"><g class="clips"><clipPath id="clip87708exyplot" class="plotclip"><rect width="460" height="320"/></clipPath><clipPath class="axesclip" id="clip87708ex"><rect x="80" y="0" width="460" height="500"/></clipPath><clipPath class="axesclip" id="clip87708ey"><rect x="0" y="100" width="700" height="320"/></clipPath><clipPath class="axesclip" id="clip87708exy"><rect x="80" y="100" width="460" height="320"/></clipPath></g><g class="gradients"/><g class="patterns"/></defs><g class="bglayer"><rect class="bg" x="80" y="100" width="460" height="320" style="fill: rgb(229, 236, 246); fill-opacity: 1; stroke-width: 0;"/></g><g class="layer-below"><g class="imagelayer"/><g class="shapelayer"/></g><g class="cartesianlayer"><g class="subplot xy"><g class="layer-subplot"><g class="shapelayer"/><g class="imagelayer"/></g><g class="minor-gridlayer"><g class="x"/><g class="y"/></g><g class="gridlayer"><g class="x"><path class="xgrid crisp" transform="translate(110.09,0)" d="M0,100v320" style="stroke: rgb(255, 255, 255); stroke-opacity: 1; stroke-width: 1px;"/><path class="xgrid crisp" transform="translate(183.82,0)" d="M0,100v320" style="stroke: rgb(255, 255, 255); stroke-opacity: 1; stroke-width: 1px;"/><path class="xgrid crisp" transform="translate(257.6,0)" d="M0,100v320" style="stroke: rgb(255, 255, 255); stroke-opacity: 1; stroke-width: 1px;"/><path class="xgrid crisp" transform="translate(331.34000000000003,0)" d="M0,100v320" style="stroke: rgb(255, 255, 255); stroke-opacity: 1; stroke-width: 1px;"/><path class="xgrid crisp" transform="translate(405.08,0)" d="M0,100v320" style="stroke: rgb(255, 255, 255); stroke-opacity: 1; stroke-width: 1px;"/><path class="xgrid crisp" transform="translate(478.82,0)" d="M0,100v320" style="stroke: rgb(255, 255, 255); stroke-opacity: 1; stroke-width: 1px;"/></g><g class="y"><path class="ygrid crisp" transform="translate(0,397.01)" d="M80,0h460" style="stroke: rgb(255, 255, 255); stroke-opacity: 1; stroke-width: 1px;"/><path class="ygrid crisp" transform="translate(0,336.61)" d="M80,0h460" style="stroke: rgb(255, 255, 255); stroke-opacity: 1; stroke-width: 1px;"/><path class="ygrid crisp" transform="translate(0,215.81)" d="M80,0h460" style="stroke: rgb(255, 255, 255); stroke-opacity: 1; stroke-width: 1px;"/><path class="ygrid crisp" transform="translate(0,155.41)" d="M80,0h460" style="stroke: rgb(255, 255, 255); stroke-opacity: 1; stroke-width: 1px;"/></g></g><g class="zerolinelayer"><path class="yzl zl crisp" transform="translate(0,276.21000000000004)" d="M80,0h460" style="stroke: rgb(255, 255, 255); stroke-opacity: 1; stroke-width: 2px;"/></g><g class="layer-between"><g class="shapelayer"/><g class="imagelayer"/></g><path class="xlines-below"/><path class="ylines-below"/><g class="overlines-below"/><g class="xaxislayer-below"/><g class="yaxislayer-below"/><g class="overaxes-below"/><g class="plot" transform="translate(80,100)" clip-path="url(#clip87708exyplot)"><g class="scatterlayer mlayer"><g class="trace scatter trace6374e0" style="stroke-miterlimit: 2; opacity: 1;"><g class="fills"/><g class="errorbars"/><g class="lines"><path class="js-line" d="M134.11,219.45L134.51,271.52L134.92,242.16L135.32,235.52L135.73,230.32L136.13,243.97L137.3,221.75L137.71,242.77L138.51,276.23L138.92,232.38L139.32,241.32L139.72,212.81L140.53,180.8L140.9,158.93L141.34,148.9L141.7,158.69L142.11,182L142.51,170.41L142.91,180.67L144.13,145.28L144.53,173.31L144.93,191.18L145.34,180.31L145.7,186.47L146.1,191.43L146.51,183.21L146.91,114.72L147.32,142.86L147.72,142.74L148.12,175.24L148.53,140.69L148.93,124.87L149.34,144.68L150.14,235.76L150.55,185.99L150.91,229.6L151.31,223.44L151.72,195.53L153.33,236.97L153.74,206.04L154.14,199.88L154.5,170.89L154.91,201.57L155.31,180.43L155.72,159.78L156.52,120.4L156.93,128.61L157.33,146.61L157.74,156.03L158.14,106.38L158.54,98.17L158.91,122.09L159.31,154.58L159.71,132.96L160.12,114.36L160.52,92.61L160.88,149.51L161.73,232.86L162.14,180.43L162.94,129.82L163.35,133.93L163.75,151.56L164.12,207.73L164.48,226.46L165,171.13L166.13,219.69L166.5,213.65L166.94,184.78L167.35,212.08L167.75,179.35L168.15,180.43L168.56,198.8L169.37,181.04L169.77,162.68L170.13,159.78L170.54,134.65L170.94,158.09L171.34,146.01L171.75,135.62L172.56,114.23L172.96,136.46L173.77,195.9L174.17,183.33L174.57,138.27L175.34,246.75L175.79,218.49L176.15,217.16L176.55,251.46L176.96,219.81L177.76,159.9L178.17,183.82L178.57,176.45L178.98,195.17L179.78,226.22L180.19,222.59L180.59,174.76L181.36,248.56L181.76,215.1L182.57,185.02L182.97,210.27L183.38,171.61L183.78,182.12L184.19,213.29L186.57,102.4L186.97,151.2L187.78,126.92L188.1,153.74L189.4,202.54L189.8,162.31L190.16,189.73L190.57,144.56L190.97,130.3L191.37,148.78L191.78,168.23L192.18,163.76L192.59,135.62L192.99,140.45L193.39,167.63L193.8,186.96L194.2,158.69L194.97,243.49L195.37,231.89L195.78,196.26L196.58,246.15L196.99,216.07L197.39,225.13L197.79,193L199.01,180.31L199.41,145.28L199.77,145.4L200.18,157.84L200.58,120.27L200.98,137.67L201.39,156.51L201.79,167.39L202.2,149.63L202.6,166.54L202.96,147.21L203.37,142.14L203.77,171.49L204.18,161.47L204.5,203.75L205.79,117.38L206.15,129.58L206.56,175L207.41,146.73L207.77,187.08L208.17,185.39L208.58,163.28L209.38,208.1L209.79,167.15L210.19,169.8L210.6,202.06L211.4,193.84L211.81,202.66L212.21,194.45L212.57,198.43L213.02,198.31L213.38,210.63L213.79,193.36L214.19,195.65L214.59,177.05L215.81,129.7L216.17,147.33L217.38,121.48L217.78,158.21L218.59,211.24L219,187.68L219.4,199.4L219.8,234.91L220.57,155.31L220.97,178.14L221.38,197.95L221.78,186.96L222.19,150.72L223.4,218.61L223.8,191.06L224.61,197.47L224.97,222.59L225.82,188.77L226.22,206.28L226.59,232.86L226.95,199.4L227.4,193.6L227.8,220.54L229.82,151.08L230.22,146.73L231.43,119.31L231.84,159.53L232.2,171.13L232.6,123.29L233.41,167.63L233.82,124.02L234.22,174.63L234.62,170.53L235.03,154.34L235.43,151.2L235.84,159.17L236.64,159.41L237.05,146.01L237.45,155.19L238.46,227.55L238.82,184.66L239.23,209.55L239.63,216.31L240.04,188.89L240.44,198.67L240.84,202.42L241.25,195.41L241.65,203.26L242.46,188.53L242.86,192.39L243.27,165.45L243.63,164.37L244.03,132.48L244.84,169.32L245.24,134.17L246.46,114.23L246.82,133.2L247.43,63.02L247.63,95.39L248.03,107.95L248.84,154.82L249.24,195.65L250.45,98.77L250.86,156.64L251.67,141.9L252.03,142.02L252.43,108.56L254.05,191.79L254.45,182.37L254.86,169.2L255.26,206.65L255.66,219.81L256.07,200.49L256.47,196.38L256.83,221.87L257.64,179.71L258.05,196.26L258.45,196.02L258.85,188.53L259.26,136.7L259.66,159.53L260.06,163.16L260.43,187.56L260.83,181.52L261.24,145.64L261.64,122.45L262.04,159.78L262.45,185.27L262.85,162.07L263.66,199.64L264.06,95.75L264.47,101.67L264.83,213.53L265.23,197.83L265.64,147.94L266.45,90.2L266.85,114.23L267.66,193.24L268.06,167.87L268.46,144.31L268.87,183.94L269.27,169.44L269.68,177.78L270.04,200.24L270.48,191.06L270.85,205.32L271.65,185.63L272.06,154.82L273.27,175.72L273.63,154.22L274.04,154.22L274.44,145.04L274.85,129.09L275.25,151.44L276.06,137.67L276.46,140.21L276.82,154.34L277.63,113.75L278.04,189.25L278.44,168.23L278.84,195.65L279.25,175.96L279.65,187.32L280.05,184.06L280.46,228.15L280.82,189.13L281.27,129.94L281.67,139.12L282.07,191.79L282.48,198.31L282.68,195.78L283.29,268.98L286.64,195.53L287.08,182.73L287.81,155.91L288.13,175.6L289.75,126.19L290.03,142.86L290.47,134.53L290.92,162.07L291.36,189.25L291.68,151.68L292.86,119.79L293.14,143.59L293.46,142.38L293.91,143.35L294.35,134.17L294.75,122.21L295.08,166.18L295.36,180.43L295.8,155.07L296.25,159.41L296.69,185.51L297.3,183.33L297.74,225.49L297.98,208.1L298.75,171.74L298.91,210.63L299.24,211L299.68,189.25L300.12,166.66L300.41,174.15L300.73,186.96L301.13,163.4L301.58,171.49L302.02,156.76L302.47,184.66" style="vector-effect: none; fill: none; stroke: rgb(99, 110, 250); stroke-opacity: 1; stroke-width: 2px; opacity: 1;"/></g><g class="points"/><g class="text"/></g><g class="trace scatter trace7320a9" style="stroke-miterlimit: 2; opacity: 1;"><g class="fills"/><g class="errorbars"/><g class="lines"><path class="js-line" d="M229.45,143.66L230.63,115.03L231.03,133.39L231.43,103.19L231.84,138.23L232.24,148.01L232.65,118.17L233.45,168.79L233.82,132.67L234.22,178.94L234.62,168.31L235.03,160.21L235.43,155.26L235.84,162.39L236.64,170L237.05,154.65L237.85,178.33L238.26,216.38L238.66,200.56L239.03,202.61L239.43,200.32L239.83,186.79L240.24,203.1L240.64,204.3L241.04,201.65L241.45,185.58L241.85,186.43L242.26,191.86L243.47,160.94L243.83,142.57L244.23,130.37L244.64,169.39L246.25,115.03L246.66,130.37L247.43,86.28L247.87,134.24L248.64,121.07L249.04,177L249.44,185.7L249.85,174.35L250.25,132.06L250.62,140.04L251.06,167.1L251.83,159.37L252.27,135.21L252.63,120.35L253.04,161.42L253.44,166.49L253.85,184.25L254.25,201.65L254.65,162.87L255.87,220.01L256.27,186.18L256.67,206.12L257.08,201.53L257.44,156.35L258.25,183.28L258.65,166.13L259.06,131.7L259.46,151.15L259.86,154.53L260.67,170.48L261.03,152.48L261.44,124.45L261.84,145.11L262.25,179.54L262.65,164.08L263.05,172.77L263.46,195.12L264.26,87.61L264.67,175.55L265.03,225.93L265.44,159.49L266.61,88.09L267.05,151.03L267.86,180.51L268.26,147.53L269.07,176.28L269.43,164.44L270.65,196.81L271.05,192.83L271.45,188.72L271.86,153.08L272.26,146.2L272.66,157.19L274.24,139.8L274.68,119.86L275.05,125.18L275.45,147.77L276.26,123.61L276.66,154.78L277.47,87.25L277.87,137.62L279.04,188.24L279.45,187.87L279.85,178.21L280.26,219.16L280.66,203.94L281.06,151.39L281.47,128.32L281.87,176.28L283.45,248.4L283.85,234.26L284.25,216.02L284.66,234.99L285.06,207.81L285.51,208.65L285.87,209.01L286.27,201.89L286.68,175.19L287.08,175.07L287.48,155.62L287.89,143.18L288.29,164.92L289.5,129.77L289.87,125.9L291.48,173.98L291.89,120.59L293.1,144.14L293.5,133.76L293.91,146.2L294.31,138.1L294.67,116.12L295.48,169.03L295.92,144.63L297.9,219.52L298.31,181.35L298.71,171.81L299.03,210.1L299.56,202.49L299.92,171.69L300.69,174.71L301.09,151.63L301.5,152.6L301.94,148.37L302.31,153.2L302.71,138.95L303.11,157.67L303.52,156.59L303.92,123.85L304.32,142.45L304.73,139.19L305.09,126.99L305.46,147.04L306.02,122.64L306.3,156.71L306.71,113.46L307.51,172.29L307.92,146.92L308.32,120.59L308.73,152.72L309.09,117.57L309.49,125.54L309.9,132.43L310.3,140.04L310.7,183.53L311.11,188.96L311.51,131.58L312.32,182.92L312.72,160.09L313.13,149.46L313.53,157.19L313.94,170L315.51,109.6L315.91,115.15L316.32,141.85L316.72,130.74L317.13,127.35L317.53,120.11L317.93,120.83L318.3,94.62L319.1,116.72L319.51,90.39L319.91,76.13L320.32,83.26L320.72,110.92L321.49,20.57L321.93,86.16L322.29,105.97L322.7,83.62L323.1,82.3L323.51,101.5L324.31,124.21L324.72,72.39L325.12,63.33L325.53,93.05L325.89,94.13L326.33,79.28L326.7,73.6L327.1,89.3L327.5,83.74L327.91,102.11L329.12,136.78L329.52,133.15L329.93,118.29L330.73,98.6L331.14,133.27L331.5,127.11L331.91,96.67L332.71,79.88L333.12,97.27L333.52,104.04L333.93,82.42L334.73,64.54L335.14,79.28L335.54,80L335.9,43.64L336.31,72.51L336.71,70.46L337.12,36.75L338.73,141.49L339.09,161.9L339.5,183.65L339.9,153.33L340.31,119.26L340.71,119.62L341.11,123.97L341.92,131.34L342.32,123.73L342.73,168.43L343.13,136.17L343.54,130.74L343.94,149.7L344.34,142.33L344.75,126.15L345.15,108.87L345.56,147.29L346.32,81.09L346.77,108.75L347.53,80.48L347.94,98.97L348.34,96.91L348.75,105.73L349.55,60.31L349.96,72.27L350.36,80.97L350.76,58.38L351.49,66.59L351.77,44.24L352.18,107.54L352.54,81.09L352.95,62.36L353.35,99.69L353.75,94.74L354.16,98.24L354.56,101.02L354.96,114.79L355.37,158.88L355.77,120.59L356.18,102.71L356.54,133.03L356.98,117.45L357.39,122.88L357.59,156.1L358.28,130.25L358.6,131.7L358.96,136.29L359.37,124.09L359.77,139.43L360.05,151.63" style="vector-effect: none; fill: none; stroke: rgb(239, 85, 59); stroke-opacity: 1; stroke-width: 2px; opacity: 1;"/></g><g class="points"/><g class="text"/></g><g class="trace scatter trace3c6890" style="stroke-miterlimit: 2; opacity: 1;"><g class="fills"/><g class="errorbars"/><g class="lines"><path class="js-line" d="M341.6,108.17L341.92,111.43L342.32,93.07L342.69,149.24L343.13,114.45L343.54,114.94L343.94,138.73L344.34,122.79L344.75,114.45L345.11,100.8L345.56,145.74L346.32,80.14L346.73,104.67L347.13,88.96L347.53,83.16L347.94,98.14L348.34,91.26L348.75,105.51L349.55,46.8L349.96,63.72L350.36,68.19L350.76,47.17L351.17,16L351.57,43.18L351.94,32.67L352.34,80.39L352.74,49.58L353.15,57.07L353.55,72.9L353.95,68.06L354.36,101.29L354.76,77.25L355.17,111.55L355.57,148.64L355.97,69.64L356.34,115.78L356.78,112.04L357.15,119.65L357.95,111.43L358.36,122.91L358.8,122.3L359.16,132.45L359.57,125.2L359.97,153.59L360.78,155.77L361.18,126.17L361.59,119.65L361.95,98.75L362.35,85.34L362.76,99.23L363.16,73.98L363.57,80.14L363.97,95L364.37,125.2L364.78,75.43L365.18,89.57L365.59,82.32L365.95,75.19L366.35,133.66L366.76,119.89L367.16,70.72L367.97,190.19L368.37,106.96L368.78,109.14L369.18,87.39L369.58,124L369.99,92.83L370.35,84.25L370.79,37.38L371.2,47.41L371.56,117.59L371.97,200.1L372.37,167.36L372.77,123.51L373.18,127.38L373.58,163.98L374.39,177.15L374.75,173.64L375.16,165.91L375.56,115.78L375.96,123.27L376.37,125.69L377.17,72.05L377.58,87.03L377.98,87.27L378.39,73.74L378.79,92.35L379.56,63.72L379.96,83.41L380.37,76.28L380.77,84.13L381.17,109.98L381.58,60.21L381.98,41.37L382.38,93.43L382.79,80.27L383.15,117.71L383.56,118.08L383.96,78.21L384.77,106.24L385.17,90.78L385.57,97.9L385.98,156.49L386.22,158.54L386.83,184.15L387.59,84.37L387.92,128.83L388.36,157.34L388.81,135.83L389.57,187.17L389.98,153.23L390.38,152.75L390.78,128.1L391.59,81.35L392,105.51L393.57,59L393.97,63.72L394.78,100.92L395.19,78.7L395.99,113.24L396.4,94.04L396.76,138.01L397.16,123.27L397.57,113.97L397.97,149L398.38,113.12L398.78,130.16L399.18,97.18L399.59,76.64L399.91,88.12L400.6,103.7L400.8,167.6L401.16,150.33L401.61,149L402.01,125.93L402.41,185.36L403.18,149L403.59,168.93L404.8,101.41L405.2,115.3L405.6,119.89L406.01,76.28L406.41,111.55L406.82,110.59L407.22,73.02L407.62,111.67L407.99,97.3L408.43,88L408.79,86.55L409.2,75.31L409.6,97.06L410.01,65.29L410.41,75.19L410.77,56.11L411.22,47.29L411.62,153.95L412.03,170.87L412.43,109.62L412.83,101.77L413.24,136.08L414.45,87.03L414.85,156.13L415.22,120.49L415.62,153.83L416.02,201.07L416.43,148.76L416.83,192.73L417.23,179.2L417.64,172.44L418.04,152.87L418.45,183.67L418.81,175.46L419.25,148.4L419.62,150.57L420.02,147.31L420.83,84.86L421.23,136.68L422.44,56.47L422.85,98.39L423.25,97.18L423.66,110.22L424.42,76.04L424.83,130.76L425.23,178.36L425.63,150.81L426.04,140.91L426.81,82.2L427.25,124.12L427.61,167.36L428.02,122.18L428.42,126.65L428.82,107.08L429.23,125.2L429.63,105.39L430.04,120.37L430.44,170.38L430.84,139.1L431.21,165.19L431.65,166.28L432.06,157.46L432.26,121.34L433.06,167.73L433.31,161.81L433.71,137.28L434.92,100.8L435.33,81.59L435.73,97.54L436.13,84.74L436.5,69.51L437.3,109.02L437.71,100.2L438.52,78.94L438.92,84.01L439.32,117.96L439.73,77.85L440.13,89.33L440.54,155.28L441.71,39.68L442.11,75.68L442.92,34L443.32,86.18L443.73,92.35L444.13,63.23L445.34,149L445.74,156.97L446.92,175.21L447.32,158.18L449.34,111.79L449.7,114.21L450.11,133.18L450.51,97.54L452.13,61.78L452.53,66.86L452.93,83.77L453.34,60.45L453.74,57.07L454.14,85.46L454.51,82.08L454.91,22.4L456.12,45.6L456.53,67.94L457.74,107.69L458.14,127.98L458.55,77.37L458.91,98.39L459.35,152.63L459.72,146.59L460,114.81" style="vector-effect: none; fill: none; stroke: rgb(0, 204, 150); stroke-opacity: 1; stroke-width: 2px; opacity: 1;"/></g><g class="points"/><g class="text"/></g><g class="trace scatter tracef9eebe" style="stroke-miterlimit: 2; opacity: 1;"><g class="fills"/><g class="errorbars"/><g class="lines"><path class="js-line" d="M413.24,132.95L414.45,86.56L414.81,161.33L415.22,119.05L415.62,144.3L416.02,190.57L416.43,147.93L416.83,161.46L417.23,178.85L418.04,157.11L418.45,188.15L419.25,149.01L419.62,150.83L420.02,150.34L420.83,90.55L421.23,138.26L422.44,75.08L422.85,100.93L423.25,99.85L423.62,119.42L424.42,76.9L424.83,125.94L425.23,175.11L425.63,144.54L426.04,138.14L426.81,80.64L427.25,118.09L427.61,161.82L428.02,121.95L428.42,117.24L428.82,99.49L429.23,120.87L429.63,99L430.04,117.12L430.44,164.6L430.84,126.67L431.21,161.46L431.65,152.27L432.01,152.52L432.46,118.57L433.23,164.84L433.63,142.85L434.84,120.75L435.25,81.73L435.65,100.93L436.05,99.97L436.42,68.32L437.63,107.46L438.03,92.96L438.84,73.03L439.24,106.25L440.05,65.9L440.45,141.4L440.82,138.02L441.22,80.16L441.63,53.82L442.03,87.28L442.84,17.46L443.24,72.91L443.64,93.08L444.05,47.54L444.82,157.71L445.26,125.7L445.62,157.11L446.03,158.8L446.43,157.35L446.84,164.84L449.26,117.73L449.66,112.89L450.03,136.33L450.43,118.57L450.83,91.87L451.24,100.33L451.64,80.04L452.04,74.48L452.45,56.84L452.85,77.38L453.26,66.51L453.66,57.69L454.43,78.1L454.83,28.94L455.23,39.69L455.64,105.77L456.04,44.4L456.45,56.6L456.85,88.61" style="vector-effect: none; fill: none; stroke: rgb(171, 99, 250); stroke-opacity: 1; stroke-width: 2px; opacity: 1;"/></g><g class="points"/><g class="text"/></g><g class="trace scatter trace309849" style="stroke-miterlimit: 2; opacity: 1;"><g class="fills"/><g class="errorbars"/><g class="lines"><path class="js-line" d="M0,188.51L0.4,224.51L0.77,188.15L1.53,266.91L2.02,182.23L2.38,206.03L2.79,189.72L3.19,176.43L3.59,186.22L4,226.81L5.21,197.82L5.57,215.69L5.98,193.83L6.38,195.88L6.78,199.87L7.19,188.15L7.55,154.93L8,158.92L8.4,169.43L9.17,125.22L9.61,157.95L9.97,162.42L10.38,137.3L11.59,185.74L11.99,149.13L12.4,158.8L13.21,151.43L14.38,232.97L14.78,205.55L15.59,162.66L15.99,192.26L16.4,212.67L16.8,174.99L17.2,205.55L17.57,182.23L17.97,171.24L18.82,243.12L19.18,204.7L19.99,237.8L20.39,235.39L20.8,215.82L21.2,235.63L21.6,205.19L22.01,168.1L22.82,188.88L23.58,154.69L23.99,173.9L24.8,127.15L25.2,155.05L25.6,177.4L26.01,174.62L26.37,158.19L27.18,139.35L27.58,203.37L28.39,223.55L28.79,210.38L29.2,210.26L29.6,196.37L30.37,174.74L30.81,178.61L31.62,133.55L31.98,149.13L33.6,190.69L34,173.41L34.41,192.38L34.81,181.87L35.62,193.83L36.02,196.61L36.38,193.47L37.19,150.95L38,153.85L38.81,193.71L39.21,140.92L39.58,139.47L39.98,129.08L40.38,128.48L40.79,104.32L41.59,194.19L42.4,125.34L42.81,146.6L43.17,134.76L43.98,56.48L44.38,118.21L44.82,71.46L45.19,101.42L45.59,102.99L46,117L47.21,155.17L47.61,138.5L49.23,200.96L49.63,164.48L50.03,120.02L50.44,182.84L50.8,181.27L51.21,157.71L52.01,166.65L52.42,136.09L52.82,137.3L53.22,134.4L53.63,128.36L54.03,140.44L54.44,143.34L54.84,118.45L55.2,139.11L55.65,115.79L56.05,108.42L56.82,114.1L57.22,134.64L57.63,99L58.03,86.32L58.43,119.9L58.84,157.95L59.24,45L59.65,56.12L60.05,90.3L60.45,103.59L60.86,80.04L62.47,143.82L62.84,130.29L63.28,127.39L63.64,146.6L64.05,165.44L64.45,148.53L64.85,117.24L65.26,142.49L65.66,143.09L66.47,138.99L66.83,132.34L68.04,96.59L68.85,90.43L69.26,134.15L69.66,104.2L70.06,91.63L70.47,88.25L71.24,50.8L71.64,61.07L72.04,90.79L72.45,78.59L72.85,142.25L73.25,158.68L73.66,117.12L74.06,107.58L74.47,113.86L74.83,125.58L75.64,140.44L76.04,131.86L76.85,142.73L77.25,135.12L78.46,210.14L78.87,185.49L79.27,184.05L79.68,235.99L80.48,172.09L80.85,173.41L81.25,195.04L83.27,128.48L83.67,138.02L84.04,170.76L84.44,160.37L84.84,148.17L85.25,140.44L85.65,165.8L86.46,166.17L86.86,122.32L87.27,148.89L87.63,231.04L88.84,114.95L89.25,156.87L89.65,161.46L90.46,214.37L90.9,226.33L91.27,209.9L92.48,263.17L92.84,257.98L93.24,238.53L94.05,248.79L94.46,232.24L95.26,217.02L95.67,232.37L96.47,193.83L96.88,199.02L98.05,181.75L98.45,178.61L99.66,162.42L100.07,181.87L100.47,229.47L100.88,186.58L101.64,226.45L102.05,207.48L103.26,189.96L103.66,167.5L104.07,173.78L104.47,217.75L104.87,274.28L105.28,259.79L105.68,211.35L106.05,256.89L106.49,246.74L106.85,240.46L107.26,262.81L108.1,261L109.68,222.82L110.08,237.2L111.29,182.23L111.7,198.3L112.51,168.58L112.87,183.44L113.27,179.33L113.72,181.03L114.08,197.21L114.49,155.42L114.89,166.89L115.29,204.82L115.7,206.63L116.5,200.59L116.87,231.64L117.31,212.67L117.72,192.02L118.12,217.75L118.52,198.42L118.89,209.65L119.69,249.04L120.1,228.62L120.91,250.49L121.31,267.64L122.93,284.19L123.33,304L123.73,286.6L124.1,222.58L124.9,243.48L125.31,197.57L125.71,188.64L126.12,229.83L127.69,162.06L128.13,219.08L128.9,153.48L129.31,184.29L129.71,176.31L130.11,193.47L130.92,259.06L131.32,226.57L132.09,154.21L132.7,233.94L132.9,250.61L133.3,203.01L133.71,189.48L134.11,214.97L134.51,275.37L134.92,231.04L135.32,237.08L136.13,208.57L136.53,240.94L136.9,221.37L137.34,226.93L137.71,250.12L138.51,279.48L138.92,233.45L139.32,250.12L139.72,221.13L140.13,212.67L140.53,182.23L141.34,155.54L141.7,161.46L142.11,194.55L143.32,152.88L143.72,154.45L144.13,149.01L144.53,182.11L144.89,198.3L145.34,181.63L146.1,193.35L146.51,188.39L146.91,114.22L147.32,133.91L147.72,151.91L148.12,176.07L148.53,148.77L148.93,119.05L149.34,147.08L150.14,227.29L150.55,195.52L150.91,228.98L151.31,212.07L151.72,183.92L152.53,239.49L152.93,221.86L153.33,231.16L154.54,167.86L154.91,202.04L156.12,134.64L156.64,136.21L156.93,120.75L157.33,144.3L157.74,149.25L158.14,114.71L158.54,107.7L158.95,134.03L159.31,162.66L159.71,138.99L160.12,118.45L160.52,94.29L160.93,145.99L161.65,219.56L162.14,185.74L162.54,140.44L162.94,141.16L163.35,138.99L163.75,139.35L164.12,198.66L164.52,196.73L164.92,177.76L166.13,224.27L166.54,213.64L166.94,205.79L167.35,206.51L167.75,180.9L168.15,176.43L168.52,194.43L169.77,149.38L170.13,167.13L170.54,139.35L170.94,153.12L171.3,157.95L172.56,123.28L172.96,139.35L173.77,199.63L174.17,182.96L174.57,133.79L175.38,254.23L175.79,219.08L176.15,220.29L176.55,251.57L176.92,243.36L177.4,165.56L177.76,166.17L178.17,201.56L178.57,175.47L178.98,175.83L179.38,188.51L179.78,222.82L180.19,213.16L180.59,171L181.36,252.3L181.8,203.37L182.17,185.98L182.61,220.16L182.97,211.59L183.38,172.81L184.19,209.53L184.55,200.72L184.99,175.23L185.4,170.64L185.76,171.84L186.16,141.89L186.57,104.08L186.97,149.5L187.78,138.75L188.18,161.33L188.59,174.02" style="vector-effect: none; fill: none; stroke: rgb(255, 161, 90); stroke-opacity: 1; stroke-width: 2px; opacity: 1;"/></g><g class="points"/><g class="text"/></g></g></g><g class="overplot"/><path class="xlines-above crisp" d="M0,0" style="fill: none;"/><path class="ylines-above crisp" d="M0,0" style="fill: none;"/><g class="overlines-above"/><g class="xaxislayer-above"><g class="xtick"><text text-anchor="middle" x="0" y="433" transform="translate(110.09,0)" style="font-family: 'Open Sans', verdana, arial, sans-serif; font-size: 12px; fill: rgb(42, 63, 95); fill-opacity: 1; white-space: pre; opacity: 1;">1995</text></g><g class="xtick"><text text-anchor="middle" x="0" y="433" style="font-family: 'Open Sans', verdana, arial, sans-serif; font-size: 12px; fill: rgb(42, 63, 95); fill-opacity: 1; white-space: pre; opacity: 1;" transform="translate(183.82,0)">2000</text></g><g class="xtick"><text text-anchor="middle" x="0" y="433" style="font-family: 'Open Sans', verdana, arial, sans-serif; font-size: 12px; fill: rgb(42, 63, 95); fill-opacity: 1; white-space: pre; opacity: 1;" transform="translate(257.6,0)">2005</text></g><g class="xtick"><text text-anchor="middle" x="0" y="433" style="font-family: 'Open Sans', verdana, arial, sans-serif; font-size: 12px; fill: rgb(42, 63, 95); fill-opacity: 1; white-space: pre; opacity: 1;" transform="translate(331.34000000000003,0)">2010</text></g><g class="xtick"><text text-anchor="middle" x="0" y="433" style="font-family: 'Open Sans', verdana, arial, sans-serif; font-size: 12px; fill: rgb(42, 63, 95); fill-opacity: 1; white-space: pre; opacity: 1;" transform="translate(405.08,0)">2015</text></g><g class="xtick"><text text-anchor="middle" x="0" y="433" style="font-family: 'Open Sans', verdana, arial, sans-serif; font-size: 12px; fill: rgb(42, 63, 95); fill-opacity: 1; white-space: pre; opacity: 1;" transform="translate(478.82,0)">2020</text></g></g><g class="yaxislayer-above"><g class="ytick"><text text-anchor="end" x="79" y="4.199999999999999" transform="translate(0,397.01)" style="font-family: 'Open Sans', verdana, arial, sans-serif; font-size: 12px; fill: rgb(42, 63, 95); fill-opacity: 1; white-space: pre; opacity: 1;">−100</text></g><g class="ytick"><text text-anchor="end" x="79" y="4.199999999999999" style="font-family: 'Open Sans', verdana, arial, sans-serif; font-size: 12px; fill: rgb(42, 63, 95); fill-opacity: 1; white-space: pre; opacity: 1;" transform="translate(0,336.61)">−50</text></g><g class="ytick"><text text-anchor="end" x="79" y="4.199999999999999" style="font-family: 'Open Sans', verdana, arial, sans-serif; font-size: 12px; fill: rgb(42, 63, 95); fill-opacity: 1; white-space: pre; opacity: 1;" transform="translate(0,276.21000000000004)">0</text></g><g class="ytick"><text text-anchor="end" x="79" y="4.199999999999999" style="font-family: 'Open Sans', verdana, arial, sans-serif; font-size: 12px; fill: rgb(42, 63, 95); fill-opacity: 1; white-space: pre; opacity: 1;" transform="translate(0,215.81)">50</text></g><g class="ytick"><text text-anchor="end" x="79" y="4.199999999999999" style="font-family: 'Open Sans', verdana, arial, sans-serif; font-size: 12px; fill: rgb(42, 63, 95); fill-opacity: 1; white-space: pre; opacity: 1;" transform="translate(0,155.41)">100</text></g></g><g class="overaxes-above"/></g></g><g class="polarlayer"/><g class="smithlayer"/><g class="ternarylayer"/><g class="geolayer"/><g class="funnelarealayer"/><g class="pielayer"/><g class="iciclelayer"/><g class="treemaplayer"/><g class="sunburstlayer"/><g class="glimages"/><defs id="topdefs-87708e"><g class="clips"/><clipPath id="legend87708e"><rect width="139" height="105" x="0" y="0"/></clipPath></defs><g class="layer-above"><g class="imagelayer"/><g class="shapelayer"/></g><g class="infolayer"><g class="legend" pointer-events="all" transform="translate(549.2,100)"><rect class="bg" shape-rendering="crispEdges" width="139" height="105" x="0" y="0" style="stroke: rgb(68, 68, 68); stroke-opacity: 1; fill: rgb(255, 255, 255); fill-opacity: 1; stroke-width: 0px;"/><g class="scrollbox" transform="" clip-path="url(#legend87708e)"><g class="groups"><g class="traces" transform="translate(0,14.5)" style="opacity: 1;"><text class="legendtext" text-anchor="start" x="40" y="4.680000000000001" style="font-family: 'Open Sans', verdana, arial, sans-serif; font-size: 12px; fill: rgb(42, 63, 95); fill-opacity: 1; white-space: pre;">Jason.1</text><g class="layers" style="opacity: 1;"><g class="legendfill"/><g class="legendlines"><path class="js-line" d="M5,0h30" style="fill: none; stroke: rgb(99, 110, 250); stroke-opacity: 1; stroke-width: 2px;"/></g><g class="legendsymbols"><g class="legendpoints"/></g></g><rect class="legendtoggle" x="0" y="-9.5" width="133.84375" height="19" style="fill: rgb(0, 0, 0); fill-opacity: 0;"/></g><g class="traces" transform="translate(0,33.5)" style="opacity: 1;"><text class="legendtext" text-anchor="start" x="40" y="4.680000000000001" style="font-family: 'Open Sans', verdana, arial, sans-serif; font-size: 12px; fill: rgb(42, 63, 95); fill-opacity: 1; white-space: pre;">Jason.2</text><g class="layers" style="opacity: 1;"><g class="legendfill"/><g class="legendlines"><path class="js-line" d="M5,0h30" style="fill: none; stroke: rgb(239, 85, 59); stroke-opacity: 1; stroke-width: 2px;"/></g><g class="legendsymbols"><g class="legendpoints"/></g></g><rect class="legendtoggle" x="0" y="-9.5" width="133.84375" height="19" style="fill: rgb(0, 0, 0); fill-opacity: 0;"/></g><g class="traces" transform="translate(0,52.5)" style="opacity: 1;"><text class="legendtext" text-anchor="start" x="40" y="4.680000000000001" style="font-family: 'Open Sans', verdana, arial, sans-serif; font-size: 12px; fill: rgb(42, 63, 95); fill-opacity: 1; white-space: pre;">Jason.3</text><g class="layers" style="opacity: 1;"><g class="legendfill"/><g class="legendlines"><path class="js-line" d="M5,0h30" style="fill: none; stroke: rgb(0, 204, 150); stroke-opacity: 1; stroke-width: 2px;"/></g><g class="legendsymbols"><g class="legendpoints"/></g></g><rect class="legendtoggle" x="0" y="-9.5" width="133.84375" height="19" style="fill: rgb(0, 0, 0); fill-opacity: 0;"/></g><g class="traces" transform="translate(0,71.5)" style="opacity: 1;"><text class="legendtext" text-anchor="start" x="40" y="4.680000000000001" style="font-family: 'Open Sans', verdana, arial, sans-serif; font-size: 12px; fill: rgb(42, 63, 95); fill-opacity: 1; white-space: pre;">Sentinel-6MF</text><g class="layers" style="opacity: 1;"><g class="legendfill"/><g class="legendlines"><path class="js-line" d="M5,0h30" style="fill: none; stroke: rgb(171, 99, 250); stroke-opacity: 1; stroke-width: 2px;"/></g><g class="legendsymbols"><g class="legendpoints"/></g></g><rect class="legendtoggle" x="0" y="-9.5" width="133.84375" height="19" style="fill: rgb(0, 0, 0); fill-opacity: 0;"/></g><g class="traces" transform="translate(0,90.5)" style="opacity: 1;"><text class="legendtext" text-anchor="start" x="40" y="4.680000000000001" style="font-family: 'Open Sans', verdana, arial, sans-serif; font-size: 12px; fill: rgb(42, 63, 95); fill-opacity: 1; white-space: pre;">TOPEX.Poseidon</text><g class="layers" style="opacity: 1;"><g class="legendfill"/><g class="legendlines"><path class="js-line" d="M5,0h30" style="fill: none; stroke: rgb(255, 161, 90); stroke-opacity: 1; stroke-width: 2px;"/></g><g class="legendsymbols"><g class="legendpoints"/></g></g><rect class="legendtoggle" x="0" y="-9.5" width="133.84375" height="19" style="fill: rgb(0, 0, 0); fill-opacity: 0;"/></g></g></g><rect class="scrollbar" rx="20" ry="3" width="0" height="0" x="0" y="0" style="fill: rgb(128, 139, 164); fill-opacity: 1;"/></g><g class="g-gtitle"><text class="gtitle" x="35" y="50" text-anchor="start" dy="0em" style="font-family: 'Open Sans', verdana, arial, sans-serif; font-size: 17px; fill: rgb(42, 63, 95); opacity: 1; font-weight: normal; white-space: pre;">Mean Sea Levels Changing - Bering Sea</text></g><g class="g-xtitle"><text class="xtitle" x="310" y="460.3" text-anchor="middle" style="font-family: 'Open Sans', verdana, arial, sans-serif; font-size: 14px; fill: rgb(42, 63, 95); opacity: 1; font-weight: normal; white-space: pre;">Date</text></g><g class="g-ytitle"><text class="ytitle" transform="rotate(-90,27.668750000000003,260)" x="27.668750000000003" y="260" text-anchor="middle" style="font-family: 'Open Sans', verdana, arial, sans-serif; font-size: 14px; fill: rgb(42, 63, 95); opacity: 1; font-weight: normal; white-space: pre;">Change in Sea Level [mm]</text></g></g></svg>