<svg class="main-svg" xmlns="http://www.w3.org/2000/svg" xmlns:xlink="http://www.w3.org/1999/xlink" width="700" height="500" style="" viewBox="0 0 700 500"><rect x="0" y="0" width="700" height="500" style="fill: rgb(255, 255, 255); fill-opacity: 1;"/><defs id="defs-8de0c5"><g class="clips"><clipPath id="clip8de0c5xyplot" class="plotclip"><rect width="460" height="320"/></clipPath><clipPath class="axesclip" id="clip8de0c5x"><rect x="80" y="0" width="460" height="500"/></clipPath><clipPath class="axesclip" id="clip8de0c5y"><rect x="0" y="100" width="700" height="320"/></clipPath><clipPath class="axesclip" id="clip8de0c5xy"><rect x="80" y="100" width="460" height="320"/></clipPath></g><g class="gradients"/><g class="patterns"/></defs><g class="bglayer"><rect class="bg" x="80" y="100" width="460" height="320" style="fill: rgb(229, 236, 246); fill-opacity: 1; stroke-width: 0;"/></g><g class="layer-below"><g class="imagelayer"/><g class="shapelayer"/></g><g class="cartesianlayer"><g class="subplot xy"><g class="layer-subplot"><g class="shapelayer"/><g class="imagelayer"/></g><g class="minor-gridlayer"><g class="x"/><g class="y"/></g><g class="gridlayer"><g class="x"><path class="xgrid crisp" transform="translate(110.08,0)" d="M0,100v320" style="stroke: rgb(255, 255, 255); stroke-opacity: 1; stroke-width: 1px;"/><path class="xgrid crisp" transform="translate(183.81,0)" d="M0,100v320" style="stroke: rgb(255, 255, 255); stroke-opacity: 1; stroke-width: 1px;"/><path class="xgrid crisp" transform="translate(257.59000000000003,0)" d="M0,100v320" style="stroke: rgb(255, 255, 255); stroke-opacity: 1; stroke-width: 1px;"/><path class="xgrid crisp" transform="translate(331.32,0)" d="M0,100v320" style="stroke: rgb(255, 255, 255); stroke-opacity: 1; stroke-width: 1px;"/><path class="xgrid crisp" transform="translate(405.05,0)" d="M0,100v320" style="stroke: rgb(255, 255, 255); stroke-opacity: 1; stroke-width: 1px;"/><path class="xgrid crisp" transform="translate(478.79,0)" d="M0,100v320" style="stroke: rgb(255, 255, 255); stroke-opacity: 1; stroke-width: 1px;"/></g><g class="y"><path class="ygrid crisp" transform="translate(0,389.31)" d="M80,0h460" style="stroke: rgb(255, 255, 255); stroke-opacity: 1; stroke-width: 1px;"/><path class="ygrid crisp" transform="translate(0,295.13)" d="M80,0h460" style="stroke: rgb(255, 255, 255); stroke-opacity: 1; stroke-width: 1px;"/><path class="ygrid crisp" transform="translate(0,248.04)" d="M80,0h460" style="stroke: rgb(255, 255, 255); stroke-opacity: 1; stroke-width: 1px;"/><path class="ygrid crisp" transform="translate(0,200.95)" d="M80,0h460" style="stroke: rgb(255, 255, 255); stroke-opacity: 1; stroke-width: 1px;"/><path class="ygrid crisp" transform="translate(0,153.86)" d="M80,0h460" style="stroke: rgb(255, 255, 255); stroke-opacity: 1; stroke-width: 1px;"/><path class="ygrid crisp" transform="translate(0,106.77)" d="M80,0h460" style="stroke: rgb(255, 255, 255); stroke-opacity: 1; stroke-width: 1px;"/></g></g><g class="zerolinelayer"><path class="yzl zl crisp" transform="translate(0,342.22)" d="M80,0h460" style="stroke: rgb(255, 255, 255); stroke-opacity: 1; stroke-width: 2px;"/></g><g class="layer-between"><g class="shapelayer"/><g class="imagelayer"/></g><path class="xlines-below"/><path class="ylines-below"/><g class="overlines-below"/><g class="xaxislayer-below"/><g class="yaxislayer-below"/><g class="overaxes-below"/><g class="plot" transform="translate(80,100)" clip-path="url(#clip8de0c5xyplot)"><g class="scatterlayer mlayer"><g class="trace scatter trace49fc22" style="stroke-miterlimit: 2; opacity: 1;"><g class="fills"/><g class="errorbars"/><g class="lines"><path class="js-line" d="M134.1,241.04L134.91,225.27L135.31,225.27L135.71,228.8L136.12,243.4L136.52,240.33L136.93,243.16L137.33,232.33L137.69,241.98L138.1,241.04L138.5,241.98L138.9,237.98L139.31,239.86L139.71,245.99L141.69,219.85L142.09,216.32L142.5,212.32L142.9,216.55L143.31,218.2L143.71,215.14L145.32,190.66L145.73,209.49L146.09,208.78L146.5,201.25L148.51,221.97L148.92,213.26L149.32,215.61L149.73,210.9L150.49,231.86L150.9,226.91L151.3,225.74L152.51,233.98L152.92,232.33L153.32,229.03L153.72,227.39L154.13,227.62L154.53,234.68L154.89,232.33L155.3,236.57L155.7,234.21L156.11,222.21L156.51,224.32L156.91,218.2L157.32,221.5L157.72,211.14L159.3,192.07L159.7,194.66L160.1,195.13L160.51,197.01L161.48,208.78L161.72,200.07L162.12,201.96L162.53,212.32L162.93,214.91L163.33,206.9L164.46,231.86L164.99,221.73L165.31,220.09L165.72,222.68L166.12,223.38L166.48,218.67L166.93,225.74L167.33,217.97L168.54,230.68L168.95,221.73L169.35,222.68L169.75,225.74L170.16,215.85L170.52,216.32L170.93,218.91L171.33,223.15L171.73,217.03L173.35,189.01L173.75,196.78L174.56,187.36L174.96,190.66L175.37,190.18L175.77,191.13L176.17,205.25L177.35,187.83L177.75,202.19L178.96,208.78L179.36,209.02L179.77,211.14L180.17,204.55L180.58,208.55L180.94,221.5L181.34,220.09L181.75,208.78L182.15,215.61L182.55,212.32L182.96,213.26L183.36,215.61L183.77,215.14L184.17,211.85L184.57,210.67L184.98,212.08L185.38,205.02L185.74,211.85L186.15,205.25L186.55,207.14L186.96,201.49L188.09,187.12L188.65,184.77L190.15,174.41L190.55,177.47L191.76,183.83L192.16,185L192.97,206.9L193.38,203.13L193.78,203.37L194.59,209.73L194.95,208.08L195.35,219.14L195.76,210.9L196.16,214.67L197.37,214.67L197.78,206.19L198.58,207.14L198.95,209.26L199.35,209.49L199.76,204.55L200.16,204.55L200.56,203.6L201.37,207.37L201.77,197.72L202.99,179.59L203.39,178.88L203.75,174.64L204.16,174.88L204.44,176.06L205.77,186.18L206.18,178.65L207.75,205.25L208.15,201.02L208.56,205.25L209.77,211.61L210.17,207.84L210.58,207.14L210.98,200.54L211.79,204.08L212.15,217.26L212.96,202.9L213.36,208.78L213.77,216.32L214.17,215.61L214.58,212.55L214.98,213.49L215.38,211.14L216.19,194.89L216.59,198.19L216.96,198.43L217.36,194.42L217.77,178.88L218.17,177.94L218.57,180.53L218.98,179.82L219.38,185.71L220.19,167.35L220.59,171.82L220.96,179.35L221.36,195.13L221.76,192.54L222.17,193.25L222.57,188.54L222.97,192.07L223.38,199.37L223.78,197.95L224.19,206.67L224.99,199.13L225.4,201.96L225.8,205.25L226.2,202.43L226.61,203.6L226.89,205.49L227.38,193.01L227.78,193.72L228.18,198.66L228.59,201.72L228.99,196.78L229.8,190.89L230.2,193.95L231.41,194.19L231.82,184.06L232.22,185L232.62,177.94L233.8,166.64L234.2,170.88L235.41,161.7L235.81,177L236.22,183.83L236.62,182.18L237.03,182.41L238.44,200.31L238.8,194.19L239.61,186.18L240.01,188.54L240.42,190.42L240.82,197.25L241.63,186.42L242.03,195.6L242.8,196.54L243.2,187.59L243.61,192.07L244.01,191.13L244.42,190.42L245.22,181L245.63,182.65L246.03,180.3L246.43,171.11L246.8,162.64L247.4,169.94L247.61,154.87L248.01,156.52L248.41,157.69L248.82,151.1L249.22,160.28L250.03,159.81L250.43,164.05L251.6,169.7L252.01,178.41L252.41,191.36L252.81,189.24L253.22,180.77L253.62,175.82L254.03,178.88L254.43,190.18L254.83,188.77L255.2,190.89L255.64,178.88L256,184.53L256.41,187.59L256.81,185L257.22,188.3L257.62,186.89L258.02,181.94L258.83,186.89L259.23,180.3L260.04,176.76L260.45,167.11L261.21,173.23L261.62,169.7L262.02,168.05L262.42,168.52L262.83,161.7L263.23,152.04L263.64,152.98L264.04,160.28L264.81,176.53L265.21,172.05L265.61,170.88L266.02,173.23L266.83,188.07L267.23,185.24L267.63,191.83L268.04,191.6L268.44,192.07L269.21,198.43L269.61,197.25L270.02,208.78L270.42,199.13L270.82,201.25L271.23,201.25L271.63,202.66L272.03,195.6L273.25,190.66L273.65,193.48L274.01,196.31L274.42,189.01L275.63,168.05L276.03,168.99L276.44,176.76L277.65,152.98L278.05,161.46L278.41,160.75L278.82,170.88L279.22,160.99L279.63,161.46L280.03,162.4L280.43,159.11L280.84,168.29L282.41,172.29L282.65,175.59L283.26,183.59L286.17,168.29L286.61,173.7L287.06,168.76L287.5,162.87L288.11,164.76L288.55,161.46L289.72,147.57L290,155.34L290.89,148.04L291.34,140.5L291.66,141.45L291.94,133.44L292.39,133.68L292.83,137.21L293.44,127.79L293.88,131.09L295.33,150.86L295.78,145.68L296.22,152.04L296.67,144.74L297.72,156.28L298.81,163.81L299.21,158.16L299.61,166.17L300.06,172.53L300.38,170.64L300.66,155.57L301.11,156.52L301.55,160.05L302.28,178.18" style="vector-effect: none; fill: none; stroke: rgb(99, 110, 250); stroke-opacity: 1; stroke-width: 2px; opacity: 1;"/></g><g class="points"/><g class="text"/></g><g class="trace scatter trace8a7512" style="stroke-miterlimit: 2; opacity: 1;"><g class="fills"/><g class="errorbars"/><g class="lines"><path class="js-line" d="M229.8,194.07L230.2,193.36L230.61,194.3L231.82,182.06L232.22,181.83L233.8,167.93L234.2,172.41L234.6,168.17L235.01,172.64L235.41,164.17L235.81,177.59L236.22,183.71L236.62,182.53L237.03,183.71L238.24,198.31L238.6,195.25L239,193.6L239.81,191.24L240.22,191.95L240.62,194.3L241.43,193.13L241.83,195.25L242.6,198.78L243,193.36L243.41,191.24L243.81,194.3L244.21,196.89L244.62,191.24L245.83,178.53L246.23,174.76L247.81,159.22L248.21,155.69L248.61,154.51L249.02,155.93L249.42,165.11L249.83,160.64L250.23,165.58L250.63,172.41L251.04,164.17L252.61,193.36L253.02,185.36L253.82,173.82L254.23,189.6L254.63,188.65L255.04,190.07L255.84,184.42L256.21,191.48L256.61,191.24L257.01,182.06L257.42,182.3L257.82,181.59L259.44,175L259.84,176.65L260.24,177.59L260.61,171.7L261.01,177.35L261.42,170.29L262.63,164.17L263.03,155.69L265.41,175.94L265.82,173.11L266.62,185.12L267.03,183.47L267.43,189.12L267.84,193.36L268.24,192.89L268.64,192.66L269.05,192.89L269.41,199.25L269.81,195.25L270.22,195.48L270.62,197.37L271.03,203.96L271.43,196.19L272.64,191.95L273.04,185.83L273.81,188.89L274.22,188.65L275.83,167.93L276.23,168.64L276.64,166.99L277.04,159.46L277.85,149.1L278.21,159.46L278.62,161.58L279.02,161.11L279.42,156.87L280.64,162.52L281.04,160.4L282.25,167.93L282.65,166.29L283.42,174.53L283.83,172.41L284.23,167.7L285.04,175.23L285.44,175L285.84,174.29L286.25,169.58L286.65,171.7L287.06,172.88L287.46,163.93L287.86,166.76L288.27,166.52L289.07,151.22L289.44,153.1L289.84,150.98L290.25,156.63L290.65,146.74L291.05,146.51L291.46,135.44L292.26,128.85L292.67,134.5L293.07,136.15L293.48,132.62L293.88,133.79L294.28,139.45L294.69,134.97L295.09,143.92L295.86,147.45L296.26,149.57L296.67,146.74L297.07,150.51L297.47,157.57L297.88,154.51L298.28,151.92L299.9,162.52L300.26,156.87L300.66,156.4L301.07,161.58L302.28,166.29L302.68,161.58L303.09,162.75L303.49,161.11L304.3,152.87L304.66,159.46L305.06,156.16L305.43,144.15L305.99,150.04L306.28,143.92L307.89,125.79L308.3,131.44L309.47,147.92L309.87,145.8L310.27,145.57L311.49,157.1L311.89,153.81L312.29,149.33L312.7,150.98L313.1,151.22L313.87,156.16L314.27,155.69L314.68,155.93L315.89,162.99L316.29,160.64L316.69,162.52L317.1,156.87L318.27,147.69L318.67,151.69L320.69,128.61L321.1,132.85L321.9,117.31L322.27,117.78L322.67,124.38L323.07,125.55L323.48,135.44L323.88,134.74L324.29,118.02L325.09,138.27L325.5,133.32L325.9,136.15L327.07,130.5L327.48,133.79L328.28,139.45L328.69,137.09L329.09,134.97L329.49,137.09L330.3,142.27L330.71,146.51L332.28,132.62L332.68,134.03L334.3,121.08L334.7,108.84L337.09,89.06L337.49,97.77L337.89,107.19L338.3,102.24L338.7,102.95L339.87,124.14L340.28,118.26L340.68,111.19L341.08,121.08L341.49,116.14L341.89,120.14L342.29,119.9L342.7,125.55L343.1,119.43L344.31,129.09L344.72,129.56L345.12,130.5L345.52,133.79L346.7,121.55L347.1,125.55L347.5,125.79L347.91,123.2L348.31,126.02L348.71,123.67L349.12,122.49L349.93,105.07L350.33,105.54L350.73,108.6L351.46,107.9L351.74,98.95L352.15,100.13L352.51,98.71L352.91,96.83L353.32,98.01L353.72,102.95L354.53,115.43L354.93,112.6L355.34,114.49L356.14,128.38L356.55,124.61L356.95,127.91L357.56,120.61L358.24,120.84L358.53,124.14L358.93,120.84L359.33,125.32L360.02,130.26" style="vector-effect: none; fill: none; stroke: rgb(239, 85, 59); stroke-opacity: 1; stroke-width: 2px; opacity: 1;"/></g><g class="points"/><g class="text"/></g><g class="trace scatter trace793f77" style="stroke-miterlimit: 2; opacity: 1;"><g class="fills"/><g class="errorbars"/><g class="lines"><path class="js-line" d="M341.57,117.62L342.29,118.33L342.66,124.21L343.1,114.32L343.51,122.33L344.72,128.92L345.12,127.98L345.52,129.16L346.7,120.21L347.1,123.03L347.5,123.03L347.91,122.09L348.31,125.62L348.71,124.21L349.12,123.27L350.33,100.2L350.73,101.14L351.14,103.96L351.54,96.43L351.95,95.25L352.31,91.25L352.71,89.37L353.12,83.48L354.73,112.2L355.14,111.03L356.75,126.33L357.15,123.98L357.52,123.98L357.92,122.33L358.33,120.44L358.73,126.1L359.13,126.33L359.54,127.51L359.94,128.45L360.34,135.98L361.15,129.86L361.56,129.16L363.13,111.26L363.53,114.09L363.94,111.73L365.15,93.84L365.55,98.31L366.32,90.54L366.72,86.78L367.13,83.48L367.53,85.36L367.94,85.36L369.95,106.55L370.36,107.02L370.72,108.2L371.13,120.21L371.53,124.92L371.93,117.85L372.34,117.62L372.74,120.92L373.14,125.86L373.55,123.51L373.95,123.51L374.36,122.33L374.76,122.8L375.12,125.62L375.53,122.56L375.93,123.27L376.33,123.51L378.76,105.38L379.16,100.43L380.33,78.53L380.74,82.07L381.54,74.77L381.95,80.65L384.33,100.9L384.73,92.19L385.94,103.02L386.19,104.67L386.79,105.38L387.16,100.67L388.33,108.44L388.73,104.43L389.13,99.49L389.54,107.02L390.35,111.97L390.75,101.37L391.15,102.32L391.56,97.61L391.96,100.67L392.36,99.25L392.73,96.19L393.94,79.48L394.34,75.95L395.55,69.12L395.96,68.88L396.36,72.88L396.77,65.35L398.34,79.01L398.74,82.77L399.55,97.37L399.88,95.96L400.4,84.19L401.98,105.14L402.38,100.67L402.74,94.78L403.15,101.14L403.55,102.32L403.95,99.02L405.17,95.02L405.57,101.84L406.78,92.19L407.18,88.19L407.59,85.83L407.99,88.89L410.37,59.23L410.78,57.58L411.18,54.99L411.59,60.88L411.99,70.06L412.39,63.94L412.8,70.77L413.6,74.3L414.01,72.65L414.41,75.24L414.78,74.53L415.18,84.42L415.99,95.02L416.39,91.48L416.79,90.07L417.6,82.07L418.01,82.3L418.41,91.96L419.18,87.48L419.58,90.07L419.98,96.43L420.39,86.3L421.6,82.54L422,74.77L422.81,66.76L423.21,73.36L424.79,51.93L425.19,49.57L425.6,43.92L426,49.1L426.4,54.75L426.81,50.75L427.21,49.1L427.98,67.94L428.38,66.29L428.79,63.7L429.19,65.82L429.59,74.06L430,71.47L430.4,80.89L430.81,84.19L431.21,79.24L431.61,83.01L432.02,81.12L432.22,93.13L432.99,91.96L433.27,82.77L433.67,87.72L434.08,85.13L434.48,87.95L436.5,70.29L436.86,75.71L437.27,76.89L437.67,70.06L439.29,46.04L439.69,46.51L440.5,46.75L440.9,44.4L442.07,63.23L442.48,48.63L442.88,45.57L443.28,54.28L443.69,54.75L444.09,59.46L445.26,71L445.67,65.82L446.47,77.36L446.88,84.42L447.28,82.77L447.68,72.88L448.49,64.64L448.9,72.65L449.66,73.83L450.07,69.59L451.68,57.11L452.09,54.05L452.49,54.28L452.89,41.1L453.3,41.1L453.7,30.74L454.1,30.97L454.47,21.56L454.87,17.79L455.28,24.85L455.68,25.56L456.08,35.68L456.49,41.57L456.89,37.8L457.29,35.92L457.7,35.68L458.1,39.69L458.51,38.74L458.87,47.46L459.27,57.11L459.68,51.22L460,49.57" style="vector-effect: none; fill: none; stroke: rgb(0, 204, 150); stroke-opacity: 1; stroke-width: 2px; opacity: 1;"/></g><g class="points"/><g class="text"/></g><g class="trace scatter tracec49a47" style="stroke-miterlimit: 2; opacity: 1;"><g class="fills"/><g class="errorbars"/><g class="lines"><path class="js-line" d="M413.2,72.04L414.41,80.75L414.78,77.69L416.39,97.23L416.79,96.29L417.6,82.87L418.01,87.81L418.41,95.35L419.18,85.69L419.58,86.63L419.98,92.99L421.2,80.28L421.6,82.4L422.41,62.15L422.81,63.56L423.21,72.27L424.79,47.08L425.19,49.2L425.6,45.9L426.4,60.26L426.81,52.97L427.21,46.84L427.62,59.79L428.38,72.51L428.79,70.39L429.19,64.74L429.59,71.09L430,71.09L430.4,78.39L430.81,84.52L431.21,80.04L431.61,79.57L432.02,76.75L432.38,79.34L432.78,87.81L433.19,83.1L433.59,87.81L434.8,83.34L435.21,86.63L436.42,65.44L436.78,68.98L437.19,77.92L439.2,46.14L439.61,47.08L440.01,46.61L440.42,47.31L440.82,39.07L441.99,60.74L442.39,50.85L442.8,50.14L443.2,53.67L443.61,52.73L444.01,56.73L445.22,73.68L445.58,66.15L445.99,64.74L446.39,73.92L447.2,86.4L447.6,78.16L448.01,75.1L448.41,66.15L449.62,73.68L449.99,72.27L450.79,54.85L451.2,59.09L451.6,57.91L454.79,16L455.19,27.07L455.6,25.89L456,31.78L456.41,44.49L456.81,42.13L457.21,40.25L458.02,37.19L458.43,40.96L458.83,43.08L459.19,52.73L459.96,48.02" style="vector-effect: none; fill: none; stroke: rgb(171, 99, 250); stroke-opacity: 1; stroke-width: 2px; opacity: 1;"/></g><g class="points"/><g class="text"/></g><g class="trace scatter trace6f545e" style="stroke-miterlimit: 2; opacity: 1;"><g class="fills"/><g class="errorbars"/><g class="lines"><path class="js-line" d="M0,276.92L1.53,300.47L2.02,301.17L3.59,297.88L4,299.76L4.81,300.47L5.17,294.82L5.98,304L6.38,303.76L6.78,303.29L7.59,294.58L8,294.82L8.4,295.52L9.21,295.05L9.61,291.76L10.38,278.34L10.78,280.46L11.19,282.34L11.99,259.5L12.4,263.5L13.2,269.62L14.01,273.86L14.38,268.45L14.78,260.91L15.18,270.57L15.59,283.52L15.99,279.28L16.39,277.63L17.2,293.88L17.61,290.58L18.01,283.75L18.78,280.69L19.18,283.05L19.58,282.81L19.99,285.87L21.2,296.23L21.6,293.17L22.01,287.52L22.77,297.64L24.39,279.04L24.79,276.22L27.58,251.73L28.39,261.15L28.79,266.33L29.19,256.91L29.6,255.03L30,260.21L30.81,268.21L31.21,259.97L31.98,280.93L32.38,272.92L33.19,267.03L33.6,279.98L34,275.04L34.4,273.39L35.61,279.04L36.02,278.57L36.38,274.1L38,284.93L38.4,278.57L38.8,276.45L39.21,267.98L40.02,261.62L40.38,249.38L40.78,233.37L41.19,243.49L41.59,246.08L42.4,241.37L42.8,245.37L43.17,237.13L44.01,246.79L44.42,242.31L44.82,250.08L45.99,267.74L46.4,263.03L47.2,262.09L47.61,271.27L48.41,268.21L48.82,272.45L49.22,272.45L49.63,270.57L50.03,263.03L50.43,267.27L50.8,265.62L51.2,274.1L52.01,273.16L53.22,255.73L53.62,260.91L54.03,262.09L54.43,255.5L54.83,258.32L55.24,244.9L57.22,218.53L57.62,223.48L58.83,242.08L59.24,251.73L60.04,246.32L60.45,255.03L60.85,257.38L61.66,257.62L62.06,254.79L62.43,261.38L62.83,263.97L63.23,259.5L64.04,269.62L64.45,259.97L64.85,254.79L65.25,259.97L65.66,259.74L66.46,268.21L67.64,249.61L68.04,250.32L68.85,242.31L70.46,220.18L71.23,223.71L72.04,215.47L72.44,228.89L73.65,239.96L74.06,236.66L74.46,243.25L74.86,241.14L75.63,246.32L76.84,255.03L77.25,252.67L77.65,252.2L78.05,257.38L78.86,251.97L79.26,257.38L80.44,266.09L80.84,263.74L81.24,262.33L81.65,255.5L82.45,261.62L83.26,250.55L83.67,252.67L84.07,243.02L85.24,241.61L85.64,237.37L86.45,227.95L86.86,234.31L87.26,235.48L87.66,244.9L88.07,236.66L88.47,240.66L88.83,243.73L89.24,250.08L89.64,247.02L90.45,256.67L90.89,248.43L91.26,259.26L91.66,266.56L92.06,265.62L92.47,258.32L93.24,265.39L94.04,265.62L94.85,271.51L95.25,269.15L96.06,274.1L96.47,269.86L100.06,229.83L100.46,222.3L101.67,228.66L102.08,224.18L102.44,228.89L103.25,224.65L104.06,238.78L104.46,235.25L104.86,235.01L105.67,251.26L106.08,244.9L106.88,251.02L107.29,241.84L108.86,259.74L109.27,257.85L109.67,256.44L110.07,257.62L110.48,259.74L110.88,264.44L111.29,256.2L111.69,248.2L112.5,251.73L114.07,238.78L114.48,220.65L114.88,218.3L115.28,219.47L115.69,220.89L116.49,214.53L116.9,215.94L117.3,217.59L118.11,232.42L118.51,224.65L118.92,224.89L119.68,237.37L120.49,243.02L120.9,241.37L121.3,232.19L121.7,246.08L122.11,239.72L122.51,242.08L122.91,240.66L123.32,244.9L123.72,243.73L124.09,242.08L124.89,251.26L125.3,251.02L125.7,235.72L126.51,231.95L126.91,235.48L127.32,224.65L127.72,232.66L128.12,228.42L129.7,203.93L130.1,208.41L130.51,211.94L130.91,199.7L131.31,198.05L131.72,206.76L132.12,216.65L132.69,211.47L133.7,230.07L134.1,236.9L134.5,226.07L134.91,228.42L135.31,225.83L135.71,225.36L136.12,235.48L136.93,242.08L137.29,239.02L137.73,245.84L138.1,237.84L139.71,248.67L140.12,239.02L140.52,232.66L141.33,236.66L142.98,210.53L143.31,214.29L143.71,216.18L144.11,210.29L144.52,219.47L144.88,199.93L145.32,186.51L145.73,205.11L146.09,208.17L146.54,204.41L146.9,194.75L147.3,196.16L147.71,215.24L148.11,211L148.51,217.59L149.73,206.05L150.13,227.95L150.49,222.3L150.9,225.83L151.3,225.12L151.7,222.77L152.11,224.18L152.51,229.6L152.92,228.42L153.32,224.42L154.13,228.42L154.53,228.19L154.89,226.3L155.3,230.78L156.11,223.71L156.63,226.54L156.91,216.88L157.32,219.71L157.72,213.82L160.1,191.93L160.51,194.99L161.48,202.99L161.64,200.64L162.12,197.34L162.53,204.17L163.7,216.18L164.1,219.24L164.5,222.06L164.91,232.42L165.31,223.48L165.72,229.83L166.12,225.6L166.52,217.12L166.93,224.89L167.33,218.53L167.74,231.01L168.14,221.12L168.54,223.71L169.75,217.83L171.33,230.07L171.73,221.83L173.35,195.46L173.75,202.52L174.16,189.34L174.56,192.4L174.96,196.16L175.77,193.57L176.17,204.88L176.58,195.69L176.9,198.05L177.35,196.64L177.75,214.53L178.15,211.7L178.56,206.29L179.77,222.06L180.17,214.29L181.34,224.89L181.75,219L182.15,231.25L182.55,220.89L182.96,216.18L183.36,218.53L183.77,226.77L184.98,223.95L185.38,217.12L186.15,213.59L186.55,213.59L188.17,188.63L188.57,192.4" style="vector-effect: none; fill: none; stroke: rgb(255, 161, 90); stroke-opacity: 1; stroke-width: 2px; opacity: 1;"/></g><g class="points"/><g class="text"/></g><g class="trace scatter traceded362" style="stroke-miterlimit: 2; opacity: 1;"><g class="fills"/><g class="errorbars"/><g class="lines"><path class="js-line" d="M460,234.83" style="vector-effect: none; fill: none; stroke: rgb(25, 211, 243); stroke-opacity: 1; stroke-width: 2px; opacity: 1;"/></g><g class="points"/><g class="text"/></g></g></g><g class="overplot"/><path class="xlines-above crisp" d="M0,0" style="fill: none;"/><path class="ylines-above crisp" d="M0,0" style="fill: none;"/><g class="overlines-above"/><g class="xaxislayer-above"><g class="xtick"><text text-anchor="middle" x="0" y="433" transform="translate(110.08,0)" style="font-family: 'Open Sans', verdana, arial, sans-serif; font-size: 12px; fill: rgb(42, 63, 95); fill-opacity: 1; white-space: pre; opacity: 1;">1995</text></g><g class="xtick"><text text-anchor="middle" x="0" y="433" style="font-family: 'Open Sans', verdana, arial, sans-serif; font-size: 12px; fill: rgb(42, 63, 95); fill-opacity: 1; white-space: pre; opacity: 1;" transform="translate(183.81,0)">2000</text></g><g class="xtick"><text text-anchor="middle" x="0" y="433" style="font-family: 'Open Sans', verdana, arial, sans-serif; font-size: 12px; fill: rgb(42, 63, 95); fill-opacity: 1; white-space: pre; opacity: 1;" transform="translate(257.59000000000003,0)">2005</text></g><g class="xtick"><text text-anchor="middle" x="0" y="433" style="font-family: 'Open Sans', verdana, arial, sans-serif; font-size: 12px; fill: rgb(42, 63, 95); fill-opacity: 1; white-space: pre; opacity: 1;" transform="translate(331.32,0)">2010</text></g><g class="xtick"><text text-anchor="middle" x="0" y="433" style="font-family: 'Open Sans', verdana, arial, sans-serif; font-size: 12px; fill: rgb(42, 63, 95); fill-opacity: 1; white-space: pre; opacity: 1;" transform="translate(405.05,0)">2015</text></g><g class="xtick"><text text-anchor="middle" x="0" y="433" style="font-family: 'Open Sans', verdana, arial, sans-serif; font-size: 12px; fill: rgb(42, 63, 95); fill-opacity: 1; white-space: pre; opacity: 1;" transform="translate(478.79,0)">2020</text></g></g><g class="yaxislayer-above"><g class="ytick"><text text-anchor="end" x="79" y="4.199999999999999" transform="translate(0,389.31)" style="font-family: 'Open Sans', verdana, arial, sans-serif; font-size: 12px; fill: rgb(42, 63, 95); fill-opacity: 1; white-space: pre; opacity: 1;">−20</text></g><g class="ytick"><text text-anchor="end" x="79" y="4.199999999999999" style="font-family: 'Open Sans', verdana, arial, sans-serif; font-size: 12px; fill: rgb(42, 63, 95); fill-opacity: 1; white-space: pre; opacity: 1;" transform="translate(0,342.22)">0</text></g><g class="ytick"><text text-anchor="end" x="79" y="4.199999999999999" style="font-family: 'Open Sans', verdana, arial, sans-serif; font-size: 12px; fill: rgb(42, 63, 95); fill-opacity: 1; white-space: pre; opacity: 1;" transform="translate(0,295.13)">20</text></g><g class="ytick"><text text-anchor="end" x="79" y="4.199999999999999" style="font-family: 'Open Sans', verdana, arial, sans-serif; font-size: 12px; fill: rgb(42, 63, 95); fill-opacity: 1; white-space: pre; opacity: 1;" transform="translate(0,248.04)">40</text></g><g class="ytick"><text text-anchor="end" x="79" y="4.199999999999999" style="font-family: 'Open Sans', verdana, arial, sans-serif; font-size: 12px; fill: rgb(42, 63, 95); fill-opacity: 1; white-space: pre; opacity: 1;" transform="translate(0,200.95)">60</text></g><g class="ytick"><text text-anchor="end" x="79" y="4.199999999999999" style="font-family: 'Open Sans', verdana, arial, sans-serif; font-size: 12px; fill: rgb(42, 63, 95); fill-opacity: 1; white-space: pre; opacity: 1;" transform="translate(0,153.86)">80</text></g><g class="ytick"><text text-anchor="end" x="79" y="4.199999999999999" style="font-family: 'Open Sans', verdana, arial, sans-serif; font-size: 12px; fill: rgb(42, 63, 95); fill-opacity: 1; white-space: pre; opacity: 1;" transform="translate(0,106.77)">100</text></g></g><g class="overaxes-above"/></g></g><g class="polarlayer"/><g class="smithlayer"/><g class="ternarylayer"/><g class="geolayer"/><g class="funnelarealayer"/><g class="pielayer"/><g class="iciclelayer"/><g class="treemaplayer"/><g class="sunburstlayer"/><g class="glimages"/><defs id="topdefs-8de0c5"><g class="clips"/><clipPath id="legend8de0c5"><rect width="139" height="124" x="0" y="0"/></clipPath></defs><g class="layer-above"><g class="imagelayer"/><g class="shapelayer"/></g><g class="infolayer"><g class="legend" pointer-events="all" transform="translate(549.2,100)"><rect class="bg" shape-rendering="crispEdges" width="139" height="124" x="0" y="0" style="stroke: rgb(68, 68, 68); stroke-opacity: 1; fill: rgb(255, 255, 255); fill-opacity: 1; stroke-width: 0px;"/><g class="scrollbox" transform="" clip-path="url(#legend8de0c5)"><g class="groups"><g class="traces" transform="translate(0,14.5)" style="opacity: 1;"><text class="legendtext" text-anchor="start" x="40" y="4.680000000000001" style="font-family: 'Open Sans', verdana, arial, sans-serif; font-size: 12px; fill: rgb(42, 63, 95); fill-opacity: 1; white-space: pre;">Jason.1</text><g class="layers" style="opacity: 1;"><g class="legendfill"/><g class="legendlines"><path class="js-line" d="M5,0h30" style="fill: none; stroke: rgb(99, 110, 250); stroke-opacity: 1; stroke-width: 2px;"/></g><g class="legendsymbols"><g class="legendpoints"/></g></g><rect class="legendtoggle" x="0" y="-9.5" width="133.84375" height="19" style="fill: rgb(0, 0, 0); fill-opacity: 0;"/></g><g class="traces" transform="translate(0,33.5)" style="opacity: 1;"><text class="legendtext" text-anchor="start" x="40" y="4.680000000000001" style="font-family: 'Open Sans', verdana, arial, sans-serif; font-size: 12px; fill: rgb(42, 63, 95); fill-opacity: 1; white-space: pre;">Jason.2</text><g class="layers" style="opacity: 1;"><g class="legendfill"/><g class="legendlines"><path class="js-line" d="M5,0h30" style="fill: none; stroke: rgb(239, 85, 59); stroke-opacity: 1; stroke-width: 2px;"/></g><g class="legendsymbols"><g class="legendpoints"/></g></g><rect class="legendtoggle" x="0" y="-9.5" width="133.84375" height="19" style="fill: rgb(0, 0, 0); fill-opacity: 0;"/></g><g class="traces" transform="translate(0,52.5)" style="opacity: 1;"><text class="legendtext" text-anchor="start" x="40" y="4.680000000000001" style="font-family: 'Open Sans', verdana, arial, sans-serif; font-size: 12px; fill: rgb(42, 63, 95); fill-opacity: 1; white-space: pre;">Jason.3</text><g class="layers" style="opacity: 1;"><g class="legendfill"/><g class="legendlines"><path class="js-line" d="M5,0h30" style="fill: none; stroke: rgb(0, 204, 150); stroke-opacity: 1; stroke-width: 2px;"/></g><g class="legendsymbols"><g class="legendpoints"/></g></g><rect class="legendtoggle" x="0" y="-9.5" width="133.84375" height="19" style="fill: rgb(0, 0, 0); fill-opacity: 0;"/></g><g class="traces" transform="translate(0,71.5)" style="opacity: 1;"><text class="legendtext" text-anchor="start" x="40" y="4.680000000000001" style="font-family: 'Open Sans', verdana, arial, sans-serif; font-size: 12px; fill: rgb(42, 63, 95); fill-opacity: 1; white-space: pre;">Sentinel-6MF</text><g class="layers" style="opacity: 1;"><g class="legendfill"/><g class="legendlines"><path class="js-line" d="M5,0h30" style="fill: none; stroke: rgb(171, 99, 250); stroke-opacity: 1; stroke-width: 2px;"/></g><g class="legendsymbols"><g class="legendpoints"/></g></g><rect class="legendtoggle" x="0" y="-9.5" width="133.84375" height="19" style="fill: rgb(0, 0, 0); fill-opacity: 0;"/></g><g class="traces" transform="translate(0,90.5)" style="opacity: 1;"><text class="legendtext" text-anchor="start" x="40" y="4.680000000000001" style="font-family: 'Open Sans', verdana, arial, sans-serif; font-size: 12px; fill: rgb(42, 63, 95); fill-opacity: 1; white-space: pre;">TOPEX.Poseidon</text><g class="layers" style="opacity: 1;"><g class="legendfill"/><g class="legendlines"><path class="js-line" d="M5,0h30" style="fill: none; stroke: rgb(255, 161, 90); stroke-opacity: 1; stroke-width: 2px;"/></g><g class="legendsymbols"><g class="legendpoints"/></g></g><rect class="legendtoggle" x="0" y="-9.5" width="133.84375" height="19" style="fill: rgb(0, 0, 0); fill-opacity: 0;"/></g><g class="traces" transform="translate(0,109.5)" style="opacity: 1;"><text class="legendtext" text-anchor="start" x="40" y="4.680000000000001" style="font-family: 'Open Sans', verdana, arial, sans-serif; font-size: 12px; fill: rgb(42, 63, 95); fill-opacity: 1; white-space: pre;">Trend</text><g class="layers" style="opacity: 1;"><g class="legendfill"/><g class="legendlines"><path class="js-line" d="M5,0h30" style="fill: none; stroke: rgb(25, 211, 243); stroke-opacity: 1; stroke-width: 2px;"/></g><g class="legendsymbols"><g class="legendpoints"/></g></g><rect class="legendtoggle" x="0" y="-9.5" width="133.84375" height="19" style="fill: rgb(0, 0, 0); fill-opacity: 0;"/></g></g></g><rect class="scrollbar" rx="20" ry="3" width="0" height="0" x="0" y="0" style="fill: rgb(128, 139, 164); fill-opacity: 1;"/></g><g class="g-gtitle"><text class="gtitle" x="35" y="50" text-anchor="start" dy="0em" style="font-family: 'Open Sans', verdana, arial, sans-serif; font-size: 17px; fill: rgb(42, 63, 95); opacity: 1; font-weight: normal; white-space: pre;">Change in Mean Sea Levels - World</text></g><g class="g-xtitle"><text class="xtitle" x="310" y="460.3" text-anchor="middle" style="font-family: 'Open Sans', verdana, arial, sans-serif; font-size: 14px; fill: rgb(42, 63, 95); opacity: 1; font-weight: normal; white-space: pre;">Date</text></g><g class="g-ytitle"><text class="ytitle" transform="rotate(-90,34.340625,260)" x="34.340625" y="260" text-anchor="middle" style="font-family: 'Open Sans', verdana, arial, sans-serif; font-size: 14px; fill: rgb(42, 63, 95); opacity: 1; font-weight: normal; white-space: pre;">Change in Sea Level [mm]</text></g></g></svg>